<svg xmlns="http://www.w3.org/2000/svg" xmlns:xlink="http://www.w3.org/1999/xlink" viewBox="0 0 91.29 35.5"><defs><style>.cls-1{fill:none;stroke:#fff;stroke-miterlimit:10;}.cls-2{clip-path:url(#clip-path);}.cls-3{fill:#fefefe;}.cls-4{fill:#fe1300;}.cls-5{fill:#eb5b56;}.cls-6{fill:#f43524;}</style><clipPath id="clip-path" transform="translate(-1.71 1.44)"><circle class="cls-1" cx="74" cy="16.56" r="16"/></clipPath></defs><title>Asset 53BANDERAS NUEVAS</title><g id="Layer_2" data-name="Layer 2"><g id="Layer_9" data-name="Layer 9"><g class="cls-2"><g id="g9JPm6"><path class="cls-3" d="M63.68-1.43H64c.19.24.4.15.61.15H82.39c.2,0,.42.09.61-.15h.32A4.59,4.59,0,0,1,83.58.48V32.13A4.57,4.57,0,0,1,83.32,34H83c-.19-.24-.41-.14-.61-.14H64.61c-.21,0-.42-.1-.61.14h-.32a4.41,4.41,0,0,1-.26-1.91V.48A4.44,4.44,0,0,1,63.68-1.43Z" transform="translate(-1.71 1.44)"/><path class="cls-4" d="M63.68-1.43c0,.33,0,.66,0,1V33.05c0,.33,0,.66,0,1-3,0-6.06,0-9.09,0-.42,0-.59,0-.59-1Q54,16.31,54-.45c0-1,.17-1,.59-1C57.62-1.41,60.65-1.43,63.68-1.43Z" transform="translate(-1.71 1.44)"/><path class="cls-4" d="M83.32,34c0-.33,0-.66,0-1q0-16.74,0-33.49c0-.33,0-.66,0-1,3,0,6.06,0,9.09,0,.42,0,.59,0,.59,1q0,16.76,0,33.52c0,1-.17,1-.59,1C89.38,34,86.35,34,83.32,34Z" transform="translate(-1.71 1.44)"/><path class="cls-4" d="M73.35,20.34c-.11-.5-.49-.48-.87-.42l-2.34.33c.54-1,0-1.42-.64-1.88s-1.44-1.14-2.2-1.75c1.27-.73.1-1.66.24-2.52.77-.06,1.84.82,2.18-.76.47.52.84,1,1.23,1.38.14.15.24.42.5.28s.17-.37.13-.57l-.61-3c1.23.45,1.23.45,1.86-.69l.59-1.07a5.64,5.64,0,0,1,.94,1.55c.26.51.5.84,1.1.4.09-.07.24-.05.41-.08a11.92,11.92,0,0,1-.37,2.11c0,.29-.13.57-.16.86s0,.39.19.46.29-.09.39-.21.36-.45.57-.65c.34-.35.65-1.07,1.1-.05.11.26.49.23.79.16s.66-.14,1-.2c.25.83-1.05,1.75.31,2.49L77.4,18.41c-.57.45-1.21.85-.63,1.83-.83-.12-1.53-.22-2.23-.3-.33,0-.69-.18-.9.24a.66.66,0,0,1-.15.22A.11.11,0,0,1,73.35,20.34Z" transform="translate(-1.71 1.44)"/><path class="cls-5" d="M73.49,20.34l.15-.16c0,.84,0,1.68,0,2.52,0,.15,0,.35-.24.29s-.09-.17-.08-.27C73.57,21.94,73.28,21.12,73.49,20.34Z" transform="translate(-1.71 1.44)"/><path class="cls-6" d="M73.49,20.34c-.09.79.2,1.61-.15,2.38V20.34A.65.65,0,0,0,73.49,20.34Z" transform="translate(-1.71 1.44)"/></g></g><circle class="cls-1" cx="72.29" cy="18" r="16"/><path d="M3.87,4.59v19H1.71v-19Z" transform="translate(-1.71 1.44)"/><path d="M7.13,13.49c0-1.61-.07-2.43-.11-3.52h1.9L9,11.61h.05a3.47,3.47,0,0,1,3.13-1.87c1.89,0,3.3,1.39,3.3,4.7v9.17H13.35V14.82c0-1.63-.31-3.25-1.9-3.25-.91,0-1.77.76-2,2.22A6.26,6.26,0,0,0,9.3,15v8.6H7.13Z" transform="translate(-1.71 1.44)"/><path d="M26.92,10c-.05.93-.12,2.15-.12,4.25v7.63c0,3.59-.46,5-1.35,5.95a4.76,4.76,0,0,1-3.63,1.45,6.54,6.54,0,0,1-3-.67l.5-1.71a5.69,5.69,0,0,0,2.54.61c1.73,0,2.79-1.08,2.79-4.18V21.92h-.06A2.73,2.73,0,0,1,22,23.58c-2.42,0-4-2.72-4-6.74,0-5,2.28-7.1,4.3-7.1a2.78,2.78,0,0,1,2.54,1.76h.06L25,10Zm-2.28,4.69a3.5,3.5,0,0,0-.11-1c-.24-.93-.73-2.08-2-2.08-1.57,0-2.42,2.12-2.42,5.15,0,3.49,1.1,5.07,2.41,5.07.68,0,1.52-.31,1.95-1.95a4.58,4.58,0,0,0,.14-1.24Z" transform="translate(-1.71 1.44)"/><path d="M29.81,4.09H32V23.61H29.81Z" transform="translate(-1.71 1.44)"/><path d="M36.73,17c0,4.19,1.66,5.07,3.23,5.07a5,5,0,0,0,2.26-.51l.36,1.58a6.57,6.57,0,0,1-3,.66c-3.26,0-5-2.67-5-6.85,0-4.42,1.88-7.19,4.6-7.19s3.91,2.94,3.91,6c0,.54,0,.9,0,1.23ZM41,15.38c0-2.74-1-4-2-4-1.44,0-2.15,2.07-2.25,4Zm1.51-11-3,3.81H38.14l2.17-3.81Z" transform="translate(-1.71 1.44)"/><path d="M45.07,21.35a4.22,4.22,0,0,0,2.21.71,1.85,1.85,0,0,0,2-2c0-1-.38-1.76-1.75-2.67-1.78-1.15-2.76-2.33-2.76-3.89a3.68,3.68,0,0,1,3.78-3.78,4.5,4.5,0,0,1,2.43.7l-.58,1.64a3.08,3.08,0,0,0-1.82-.61,1.68,1.68,0,0,0-1.76,1.74c0,.91.35,1.43,1.7,2.35,1.57,1,2.82,2.26,2.82,4.17a3.81,3.81,0,0,1-4.11,4.05,4.67,4.67,0,0,1-2.7-.79Z" transform="translate(-1.71 1.44)"/></g></g></svg>