<svg xmlns="http://www.w3.org/2000/svg" xmlns:xlink="http://www.w3.org/1999/xlink" viewBox="0 0 127.29 33"><defs><style>.cls-1{fill:none;stroke:#fff;stroke-miterlimit:10;}.cls-2{clip-path:url(#clip-path);}.cls-3{fill:#da2f16;}.cls-4{fill:#fefefe;}.cls-5{fill:#0033a7;}.cls-6{fill:#8e3171;}.cls-7{fill:#d70e00;}.cls-8{fill:#e22f00;}.cls-9{fill:#0022a3;}.cls-10{fill:#0034ad;}.cls-11{fill:#fbfcfd;}</style><clipPath id="clip-path" transform="translate(-1.71 -0.06)"><circle class="cls-1" cx="97" cy="16.56" r="16"/></clipPath></defs><title>Asset 55BANDERAS NUEVAS2</title><g id="Layer_2" data-name="Layer 2"><g id="Layer_9" data-name="Layer 9"><g class="cls-2"><g id="ckeMSC"><path class="cls-3" d="M129,16.77c0,4.91,0,9.83,0,14.74,0,.72-.15.86-.86.86q-23.56,0-47.13,0V16.77a2.37,2.37,0,0,1,1.72-.33h44.41A2.54,2.54,0,0,1,129,16.77Z" transform="translate(-1.71 -0.06)"/><path class="cls-4" d="M97.08.47q15.49,0,31,0c.7,0,.95.1.94.9-.05,5.06,0,10.12,0,15.18a1.6,1.6,0,0,1-.94.11H98a1.78,1.78,0,0,1-.94-.1c-.43-.41-.34-.95-.34-1.46q0-6.57,0-13.14A2,2,0,0,1,97.08.47Z" transform="translate(-1.71 -0.06)"/><path class="cls-5" d="M81,16.05c0-5,0-9.91,0-14.86,0-.6.13-.74.73-.74,5,0,9.92,0,14.87,0a1.42,1.42,0,0,1,.24,1V15.17a1.54,1.54,0,0,1-.17.92,2.18,2.18,0,0,1-1.49.3H82.49A2,2,0,0,1,81,16.05Z" transform="translate(-1.71 -0.06)"/><path class="cls-6" d="M97.08.47v16l-.17.17c-5.11,0-10.21,0-15.32,0a1,1,0,0,1-.58-.12v-.24a2.58,2.58,0,0,1,1.29-.11c4.72,0,9.44,0,14.16,0,.5-.3.25-.79.25-1.18,0-4.41,0-8.82,0-13.23A2.54,2.54,0,0,1,96.84.47Z" transform="translate(-1.71 -0.06)"/><path class="cls-7" d="M97.08,16.46h30.59c.43,0,.87,0,1.31.06v.24H97.08c-.08-.05-.1-.09-.08-.14s.06-.07.08-.07Z" transform="translate(-1.71 -0.06)"/><path class="cls-8" d="M97.08,16.56v.21H81v-.24Z" transform="translate(-1.71 -0.06)"/><path class="cls-9" d="M96.84.47q0,7.47,0,15c0,.29.15.66-.26.83-.08,0-.11-.09-.08-.13s0-.07.08-.07V.47Z" transform="translate(-1.71 -0.06)"/><path class="cls-10" d="M96.6,16.05v.2L81,16.29v-.24Z" transform="translate(-1.71 -0.06)"/><path class="cls-11" d="M92.72,7.13c-.72,1-2,1.1-2.07,2a7.56,7.56,0,0,0,.71,2.59c-2.5-1.62-2.07-2.14-4.51-.09a8.81,8.81,0,0,0-1.49-4.56c2.21.61,3.43-.13,3.43-2.09.24-.28.29-.27.34-.16.34.75.27,1.87.94,2.23S91.66,7.13,92.72,7.13Z" transform="translate(-1.71 -0.06)"/></g></g><circle class="cls-1" cx="95.29" cy="16.5" r="16"/><path d="M8.63,14.58H3.87v7.14H9.29v1.89H1.71v-19H9V6.48H3.87v6.26H8.63Z" transform="translate(-1.71 -0.06)"/><path d="M11.13,21.35a4.28,4.28,0,0,0,2.21.71,1.86,1.86,0,0,0,2-2c0-1-.38-1.76-1.75-2.67-1.78-1.15-2.76-2.33-2.76-3.89a3.67,3.67,0,0,1,3.77-3.78,4.5,4.5,0,0,1,2.43.7l-.57,1.64a3.11,3.11,0,0,0-1.82-.61,1.69,1.69,0,0,0-1.77,1.74c0,.91.35,1.43,1.7,2.35,1.58,1,2.83,2.26,2.83,4.17a3.81,3.81,0,0,1-4.12,4.05A4.67,4.67,0,0,1,10.6,23Z" transform="translate(-1.71 -0.06)"/><path d="M19.64,14.22c0-2.1-.08-3.3-.11-4.25h1.93l.11,1.73h.06a3.13,3.13,0,0,1,2.88-2c2.38,0,3.95,2.52,3.95,7,0,5.07-2.09,7.09-4.22,7.09a2.6,2.6,0,0,1-2.39-1.58h-.06V29H19.64Zm2.15,4.38a5,5,0,0,0,.11,1.13c.42,1.94,1.4,2.29,2,2.29,1.8,0,2.38-2.48,2.38-5.22s-.68-5.21-2.4-5.21c-1,0-1.87,1.24-2,2.48a5.85,5.85,0,0,0-.08,1Z" transform="translate(-1.71 -0.06)"/><path d="M36.31,23.61l-.14-1.44h-.08a3.07,3.07,0,0,1-2.73,1.67c-1.83,0-3.24-1.54-3.24-3.91,0-3.4,2.73-4.91,5.83-4.94v-.43c0-1.85-.47-3.11-2.19-3.11a4,4,0,0,0-2.26.71L31,10.63a6,6,0,0,1,3.19-.89c2.74,0,3.91,1.79,3.91,4.86v5.92a23.33,23.33,0,0,0,.14,3.09ZM36,16.54c-1.11,0-3.75.22-3.75,3.19,0,1.78.9,2.41,1.68,2.41.94,0,1.75-.71,2-2a3.57,3.57,0,0,0,.07-.79Z" transform="translate(-1.71 -0.06)"/><path d="M41.18,13.49c0-1.61-.08-2.43-.11-3.52H43l.1,1.64h.06a3.45,3.45,0,0,1,3.13-1.87c1.88,0,3.3,1.39,3.3,4.7v9.17H47.4V14.82c0-1.63-.32-3.25-1.9-3.25-.92,0-1.77.76-2,2.22A6.2,6.2,0,0,0,43.34,15v8.6H41.18Zm1.17-5.7c0-1.5.59-2.66,1.74-2.66a2.66,2.66,0,0,1,1.39.49,2.34,2.34,0,0,0,1.11.48c.42,0,.66-.21.7-1h1.17c0,1.55-.56,2.53-1.79,2.53a2.89,2.89,0,0,1-1.37-.48,2.41,2.41,0,0,0-1.06-.48c-.42,0-.63.39-.69,1.14Z" transform="translate(-1.71 -0.06)"/><path d="M61,16.77c0,5.28-2.45,7.07-4.54,7.07-2.44,0-4.44-2.24-4.44-7,0-5,2.24-7.07,4.59-7.07S61,12,61,16.77Zm-6.79,0c0,2.26.41,5.32,2.36,5.32s2.25-3.19,2.25-5.32-.38-5.3-2.31-5.3S54.19,14.69,54.19,16.78Z" transform="translate(-1.71 -0.06)"/><path d="M63.41,4.09h2.16V23.61H63.41Z" transform="translate(-1.71 -0.06)"/></g></g></svg>