<?xml version="1.0" encoding="utf-8"?>
<!-- Generator: Adobe Illustrator 23.0.2, SVG Export Plug-In . SVG Version: 6.00 Build 0)  -->
<svg version="1.1" id="Capa_1" xmlns="http://www.w3.org/2000/svg" xmlns:xlink="http://www.w3.org/1999/xlink" x="0px" y="0px"
	 viewBox="0 0 209.1 75.4" style="enable-background:new 0 0 209.1 75.4;" xml:space="preserve">
<style type="text/css">
	.st0{fill:#E84E1B;}
	.st1{opacity:0.2;fill:none;stroke:#E84E1B;stroke-width:0.63;stroke-miterlimit:10;enable-background:new    ;}
	.st2{opacity:0.31;fill:none;stroke:#E84E1B;stroke-width:0.81;stroke-miterlimit:10;enable-background:new    ;}
	.st3{opacity:0.43;fill:none;stroke:#E84E1B;stroke-width:0.99;stroke-miterlimit:10;enable-background:new    ;}
	.st4{opacity:0.54;fill:none;stroke:#E84E1B;stroke-width:1.17;stroke-miterlimit:10;enable-background:new    ;}
	.st5{opacity:0.66;fill:none;stroke:#E84E1B;stroke-width:1.36;stroke-miterlimit:10;enable-background:new    ;}
	.st6{opacity:0.77;fill:none;stroke:#E84E1B;stroke-width:1.54;stroke-miterlimit:10;enable-background:new    ;}
	.st7{opacity:0.89;fill:none;stroke:#E84E1B;stroke-width:1.72;stroke-miterlimit:10;enable-background:new    ;}
	.st8{fill:none;stroke:#E84E1B;stroke-width:1.9;stroke-miterlimit:10;}
	.st9{fill:#1D1D1B;}
	.st10{fill:#FFFFFF;}
	.st11{fill:#FFFFFF;stroke:#000000;stroke-miterlimit:10;}
</style>
<title>Asset 48NUEVO CLIC</title>
<g id="Layer_9">
	<circle class="st0" cx="163.1" cy="33.9" r="8.9"/>
	<circle class="st1" cx="163.1" cy="33.9" r="33.6"/>
	<circle class="st2" cx="163.1" cy="33.9" r="30.8"/>
	<circle class="st3" cx="163.1" cy="33.9" r="27.9"/>
	<circle class="st4" cx="163.1" cy="33.9" r="25.1"/>
	<circle class="st5" cx="163.1" cy="33.9" r="22.3"/>
	<circle class="st6" cx="163.1" cy="33.9" r="19.5"/>
	<circle class="st7" cx="163.1" cy="33.9" r="16.7"/>
	<circle class="st8" cx="163.1" cy="33.9" r="13.9"/>
	<path class="st9" d="M2,21.1v6.6h4.3v-6.6h1.8v15.5H6.3v-7.2H2v7.2H0.2V21.1H2z"/>
	<path class="st9" d="M15.1,36.6L15,35.4h-0.1c-0.4,0.8-1.3,1.4-2.2,1.4c-1.5,0-2.6-1.2-2.6-3.2c0-2.8,2.2-4,4.7-4v-0.4
		c0-1.5-0.4-2.5-1.8-2.5c-0.7,0-1.3,0.2-1.8,0.6L10.8,26c0.8-0.5,1.7-0.7,2.6-0.7c2.2,0,3.2,1.5,3.2,4v4.8c0,0.8,0,1.7,0.1,2.5H15.1
		z M14.9,30.9c-0.9,0-3.1,0.2-3.1,2.6c0,1.4,0.7,2,1.4,2s1.4-0.6,1.6-1.7c0-0.2,0.1-0.4,0-0.6V30.9z"/>
	<path class="st9" d="M18.2,35.5l3.5-6.9c0.3-0.5,0.6-1.1,0.9-1.6v0h-4v-1.5h6v1.2l-3.5,6.8c-0.3,0.6-0.6,1.2-0.9,1.7l0,0h4.4v1.5
		h-6.3V35.5z"/>
	<path class="st9" d="M36.8,36.3c-0.7,0.3-1.5,0.4-2.2,0.4c-3,0-5.2-2.4-5.2-7.7c0-6.1,3-8.1,5.5-8.1c0.7,0,1.3,0.1,1.9,0.4
		l-0.4,1.5c-0.5-0.2-1-0.4-1.5-0.3c-1.7,0-3.6,1.6-3.6,6.3s1.7,6.3,3.6,6.3c0.6,0,1.1-0.1,1.6-0.3L36.8,36.3z"/>
	<path class="st9" d="M38.4,20.7h1.8v15.9h-1.8V20.7z"/>
	<path class="st9" d="M44.7,22.6c0,0.6-0.5,1-1,1c-0.6,0-1-0.5-1-1c-0.1-0.5,0.3-1.1,0.8-1.1c0.1,0,0.1,0,0.2,0
		c0.5-0.1,1,0.3,1.1,0.9C44.7,22.4,44.7,22.5,44.7,22.6z M42.8,36.6V25.5h1.8v11.1L42.8,36.6z"/>
	<path class="st9" d="M52.4,36.3c-0.6,0.3-1.2,0.4-1.8,0.4c-2.4,0-4.1-2-4.1-5.6c0-3.2,1.6-5.8,4.4-5.8c0.5,0,1.1,0.1,1.6,0.4
		l-0.3,1.5c-0.4-0.2-0.8-0.3-1.3-0.3c-1.8,0-2.6,2.1-2.6,4.3c0,2.6,1,4.2,2.6,4.2c0.4,0,0.9-0.1,1.3-0.3L52.4,36.3z"/>
	<path class="st9" d="M55.7,30.7L55.7,30.7c0.2-0.4,0.4-0.9,0.6-1.2l2.2-3.9h2l-2.9,4.7l3.2,6.4h-2l-2.4-5.2l-0.6,1v4.2h-1.7V20.7
		h1.8V30.7z"/>
	<path class="st9" d="M65.7,29c0-1.7-0.1-2.7-0.1-3.5h1.6l0.1,1.4l0,0c0.4-1,1.3-1.6,2.3-1.6c2,0,3.2,2,3.2,5.6
		c0,4.1-1.7,5.8-3.4,5.8c-0.8,0-1.6-0.5-1.9-1.3l0,0V41h-1.8V29z M67.4,32.6c0,0.3,0,0.6,0.1,0.9c0.3,1.5,1.1,1.8,1.6,1.8
		c1.5,0,1.9-2,1.9-4.3s-0.6-4.2-2-4.2c-0.8,0-1.5,1-1.6,2c0,0.3-0.1,0.6-0.1,0.9L67.4,32.6z"/>
	<path class="st9" d="M79.3,36.6l-0.1-1.2h-0.1c-0.4,0.8-1.3,1.4-2.2,1.4c-1.5,0-2.6-1.2-2.6-3.2c0-2.8,2.2-4,4.8-4v-0.4
		c0-1.5-0.4-2.5-1.8-2.5c-0.7,0-1.3,0.2-1.8,0.6L75,26c0.8-0.5,1.7-0.7,2.6-0.7c2.2,0,3.2,1.5,3.2,4v4.8c0,0.8,0,1.7,0.1,2.5H79.3z
		 M79,30.9c-0.9,0-3.1,0.2-3.1,2.6c0,1.4,0.7,2,1.4,2s1.4-0.6,1.6-1.7c0-0.2,0.1-0.4,0.1-0.6V30.9z"/>
	<path class="st9" d="M83.2,28.4c0-0.9-0.1-2-0.1-2.9h1.6l0.1,1.7l0,0c0.3-1.1,1.2-1.8,2.3-1.9h0.4v1.8h-0.4
		c-1.2,0.1-2.1,1.1-2.2,2.3c0,0.3-0.1,0.7-0.1,1v6.2h-1.8V28.4z"/>
	<path class="st9" d="M93.2,36.6l-0.1-1.2H93c-0.4,0.8-1.3,1.3-2.2,1.4c-1.5,0-2.6-1.2-2.6-3.2c0-2.8,2.2-4,4.8-4v-0.4
		c0-1.5-0.4-2.5-1.8-2.5c-0.7,0-1.3,0.2-1.8,0.6L88.9,26c0.8-0.5,1.7-0.7,2.6-0.7c2.2,0,3.2,1.5,3.2,4v4.8c0,0.8,0.1,1.7,0.2,2.5
		H93.2z M93,30.9c-0.9,0-3.1,0.2-3.1,2.6c0,1.4,0.7,2,1.4,2s1.4-0.6,1.6-1.7c0-0.2,0-0.4,0-0.6L93,30.9z"/>
	<path class="st9" d="M101.7,25.5l1.4,6.2c0.2,0.7,0.3,1.7,0.5,2.7h0.1c0.1-0.9,0.3-1.9,0.5-2.7l1.4-6.2h1.8l-2.9,11.1h-1.6
		l-2.9-11.1H101.7z"/>
	<path class="st9" d="M109.7,31.2c0,3.4,1.3,4.1,2.6,4.1c0.6,0,1.3-0.1,1.8-0.4l0.3,1.3c-0.8,0.4-1.6,0.6-2.5,0.5
		c-2.7,0-4-2.2-4-5.6c0-3.6,1.5-5.9,3.8-5.9s3.2,2.4,3.2,4.9c0,0.4,0,0.7,0,1L109.7,31.2z M113.2,29.9c0-2.2-0.8-3.2-1.7-3.2
		c-1.2,0-1.8,1.7-1.8,3.2H113.2z"/>
	<path class="st9" d="M116.8,28.4c0-0.9-0.1-2-0.1-2.9h1.6l0.1,1.7h0.1c0.3-1.1,1.2-1.8,2.3-1.9h0.4v1.8h-0.4
		c-1.2,0.1-2.1,1.1-2.1,2.3c0,0.3-0.1,0.7-0.1,1v6.2h-1.8V28.4z"/>
	<path class="st9" d="M0.1,48.4c0-1.3-0.1-2-0.1-2.9h1.6l0.1,1.4l0,0c0.5-1,1.4-1.6,2.5-1.6C5.2,45.2,6.2,46,6.5,47l0,0
		c0.3-0.5,0.7-0.9,1.1-1.3c0.5-0.3,1-0.4,1.5-0.4c1.5,0,2.7,1.1,2.7,3.9v7.4h-1.8v-7c0-1.5-0.2-2.9-1.6-2.9c-0.7,0-1.4,0.6-1.6,1.7
		c-0.1,0.3-0.1,0.7-0.1,1v7.2H5.1v-7.3c0-1.2-0.2-2.5-1.5-2.5c-0.7,0-1.4,0.6-1.6,1.8c-0.1,0.3-0.1,0.6-0.1,1v7.1H0.1V48.4z"/>
	<path class="st9" d="M18.8,56.6l-0.1-1.2h-0.1c-0.4,0.8-1.3,1.4-2.2,1.4c-1.5,0-2.6-1.2-2.6-3.2c0-2.8,2.2-4,4.7-4v-0.3
		c0-1.5-0.4-2.5-1.8-2.5c-0.7,0-1.3,0.2-1.8,0.6L14.5,46c0.8-0.5,1.7-0.7,2.6-0.7c2.2,0,3.2,1.5,3.2,4v4.8c0,0.8,0,1.7,0.1,2.5H18.8
		z M18.5,50.9c-0.9,0-3.1,0.2-3.1,2.6c0,1.4,0.7,2,1.4,2s1.4-0.6,1.6-1.7c0-0.2,0.1-0.4,0.1-0.6V50.9z M19.9,41l-2.4,3.1h-1.2
		l1.8-3.1H19.9z"/>
	<path class="st9" d="M22.4,54.8c0.5,0.4,1.2,0.6,1.8,0.6c0.8,0.1,1.6-0.6,1.6-1.4c0-0.1,0-0.2,0-0.2c0-0.8-0.3-1.4-1.4-2.2
		c-1.5-0.9-2.2-1.9-2.2-3.2c0-1.7,1.3-3,2.9-3.1c0.1,0,0.1,0,0.2,0c0.7,0,1.4,0.2,2,0.6l-0.5,1.3c-0.4-0.3-0.9-0.5-1.5-0.5
		c-0.8,0-1.4,0.5-1.4,1.3c0,0,0,0.1,0,0.1c0,0.7,0.3,1.2,1.4,1.9c1.3,0.8,2.3,1.8,2.3,3.4c0.1,1.7-1.2,3.2-2.9,3.3
		c-0.2,0-0.3,0-0.5,0c-0.8,0-1.6-0.2-2.2-0.7L22.4,54.8z"/>
	<path class="st9" d="M34.9,42.6c0.1,0.5-0.3,1.1-0.8,1.1c-0.1,0-0.1,0-0.2,0c-0.6,0-1-0.4-1-1c0-0.1,0-0.1,0-0.2
		c0-0.6,0.5-1.1,1-1.1S34.9,42,34.9,42.6C34.9,42.6,34.9,42.6,34.9,42.6L34.9,42.6z M33,56.6V45.5h1.8v11.1L33,56.6z"/>
	<path class="st9" d="M37.2,48.4c0-1.3-0.1-2-0.1-2.9h1.5l0.1,1.3h0.1c0.5-0.9,1.5-1.5,2.5-1.5c1.5,0,2.7,1.1,2.7,3.8v7.5h-1.8v-7.2
		c0-1.3-0.2-2.6-1.5-2.6c-0.8,0-1.5,0.6-1.7,1.8c-0.1,0.3-0.1,0.7-0.1,1v7h-1.8V48.4z"/>
	<path class="st9" d="M46.8,56.6v-9.8h-1.4v-1.3h1.4v-0.7c-0.1-1.2,0.3-2.4,1-3.3c0.6-0.6,1.4-1,2.2-1c0.5,0,1,0.1,1.4,0.3l-0.3,1.4
		c-0.3-0.1-0.7-0.2-1-0.2c-1.3,0-1.6,1.3-1.6,2.8v0.7h2v1.3h-2v9.8H46.8z"/>
	<path class="st9" d="M58.5,51c0,4.3-2,5.8-3.7,5.8c-2,0-3.6-1.8-3.6-5.7s1.8-5.8,3.7-5.8S58.5,47.2,58.5,51z M53,51
		c0,1.8,0.3,4.3,1.9,4.3s1.8-2.6,1.8-4.3s-0.3-4.3-1.9-4.3S53,49.3,53,51L53,51z"/>
	<path class="st9" d="M60.5,48.4c0-0.9-0.1-2-0.1-2.9H62l0.1,1.7h0.1c0.3-1.1,1.2-1.8,2.3-1.9h0.4v1.8h-0.4
		c-1.2,0.1-2.1,1.1-2.1,2.3c0,0.3-0.1,0.7-0.1,1v6.2h-1.8V48.4z"/>
	<path class="st9" d="M66.2,48.4c0-1.3-0.1-2-0.1-2.9h1.6l0.1,1.4l0,0c0.5-1,1.4-1.6,2.5-1.6c1.1-0.1,2.1,0.6,2.4,1.7l0,0
		c0.3-0.5,0.6-0.9,1.1-1.3c0.5-0.3,1-0.4,1.5-0.4c1.5,0,2.7,1.1,2.7,3.9v7.4h-1.7v-7c0-1.5-0.2-2.9-1.6-2.9c-0.7,0-1.4,0.6-1.6,1.7
		c-0.1,0.3-0.1,0.7-0.1,1v7.2h-1.8v-7.3c0-1.2-0.2-2.5-1.5-2.5c-0.7,0-1.4,0.6-1.7,1.8c-0.1,0.3-0.1,0.6-0.1,1v7.1h-1.8V48.4z"/>
	<path class="st9" d="M84.8,56.6l-0.1-1.2h-0.1c-0.4,0.8-1.3,1.4-2.2,1.4c-1.5,0-2.6-1.2-2.6-3.2c0-2.8,2.2-4,4.8-4v-0.3
		c0-1.5-0.4-2.5-1.8-2.5c-0.7,0-1.3,0.2-1.8,0.6L80.5,46c0.8-0.5,1.7-0.7,2.6-0.7c2.2,0,3.2,1.5,3.2,4v4.8c0,0.8,0,1.7,0.1,2.5H84.8
		z M84.6,50.9c-0.9,0-3.1,0.2-3.1,2.6c0,1.4,0.7,2,1.4,2s1.4-0.6,1.6-1.7c0-0.2,0-0.4,0-0.6L84.6,50.9z"/>
	<path class="st9" d="M96.4,42.6c0,0.6-0.5,1.1-1,1.1c-0.6,0-1.1-0.5-1.1-1c0,0,0,0,0,0c-0.1-0.6,0.4-1.1,0.9-1.1c0,0,0,0,0.1,0
		c0.5-0.1,1,0.3,1.1,0.9C96.4,42.4,96.4,42.5,96.4,42.6z M94.4,56.6V45.5h1.8v11.1L94.4,56.6z"/>
	<path class="st9" d="M105.5,51c0,4.3-2,5.8-3.7,5.8c-2,0-3.6-1.8-3.6-5.7s1.8-5.8,3.7-5.8S105.5,47.2,105.5,51z M100,51
		c0,1.8,0.3,4.3,1.9,4.3s1.8-2.6,1.8-4.3s-0.3-4.3-1.9-4.3S100,49.3,100,51L100,51z"/>
	<path class="st9" d="M107.5,48.4c0-1.3-0.1-2-0.1-2.9h1.5l0.1,1.3l0,0c0.5-1,1.5-1.5,2.6-1.5c1.5,0,2.7,1.1,2.7,3.8v7.5h-1.8v-7.2
		c0-1.3-0.3-2.6-1.6-2.6c-0.8,0-1.4,0.6-1.7,1.8c-0.1,0.3-0.1,0.7-0.1,1v7h-1.8L107.5,48.4z"/>
	<path d="M185.9,48.7c0.2,0,0.4-0.1,0.5-0.2c0.3-0.3,0.3-0.7,0-1c0,0,0,0,0,0c-3.8-3.8-3.8-10.1,0-13.9c3.8-3.9,10-3.9,13.9-0.1
		c3.5,3.5,3.9,9,1,12.9c-0.2,0.3-0.2,0.7,0.1,1c0.3,0.2,0.7,0.2,1-0.1c0,0,0,0,0-0.1c3.7-5,2.7-12-2.3-15.7
		c-4.5-3.3-10.7-2.9-14.6,1.1c-4.4,4.4-4.4,11.5,0,15.8C185.6,48.6,185.7,48.7,185.9,48.7L185.9,48.7z"/>
	<path d="M202.5,48.1h-2.1c-0.3-0.9-1.1-1.5-2-1.5h-2v-6.6c0-0.6-0.2-2.6-2.9-2.6c-1.8,0-2.8,1-2.8,2.9c-0.1,3.3-0.1,12-0.1,15.5
		c-0.8-0.7-1.9-1.6-2.3-2c-0.9-1-2.4-1.1-3.4-0.2c-1.4,1.2-0.7,3-0.2,3.8l7.8,12.2c0.1,0.2,0.3,0.3,0.6,0.3h12.2
		c0.3,0,0.6-0.2,0.6-0.5c0.1-0.3,2.7-8,3.1-10.8c0.1-1.6,0.1-3.2,0-4.7c0-0.7,0-1.3,0-1.8c0-1.8-1.7-2.4-2.7-2.5h-1.7
		c-0.1-0.4-0.3-0.7-0.6-1C203.6,48.4,203.1,48.1,202.5,48.1L202.5,48.1z M204.7,52.4V51h1.5c0.1,0,1.4,0.1,1.4,1.1
		c0,0.5,0,1.2,0,1.9c0.1,1.5,0.1,3,0,4.5c-0.8,3.4-1.7,6.8-2.9,10.1h-11.4l-7.7-11.9c0,0-0.9-1.3-0.1-1.9c0.5-0.4,1.2-0.4,1.7,0.1
		c0,0,0,0,0,0c0.8,0.8,3.5,3,3.5,3c0.2,0.2,0.5,0.2,0.8,0.1c0.2-0.1,0.4-0.4,0.4-0.6c0-0.1,0-12.8,0.1-17c0-0.9,0.1-1.6,1.5-1.6
		c1.1,0,1.6,0.4,1.6,1.3V51c0,0.4,0.3,0.7,0.7,0.7s0.7-0.3,0.7-0.7l0,0v-3h2c0.4,0,0.8,0.3,0.8,0.7c0,0,0,0,0,0.1V51
		c0,0.4,0.3,0.7,0.7,0.7s0.7-0.3,0.7-0.7l0,0v-1.6h1.9c0.2,0,0.5,0.1,0.6,0.2c0.2,0.2,0.3,0.5,0.2,0.8v1.9c0,0.4,0.3,0.7,0.7,0.7
		c0,0,0,0,0,0C204.4,53.1,204.7,52.8,204.7,52.4L204.7,52.4z"/>
	<path class="st10" d="M204.7,52.4V51h1.5c0.1,0,1.4,0.1,1.4,1.1c0,0.5,0,1.2,0,1.9c0.1,1.5,0.1,3,0,4.5c-0.8,3.4-1.7,6.8-2.9,10.1
		h-11.4l-7.7-11.9c0,0-0.9-1.3-0.1-1.9c0.5-0.4,1.2-0.4,1.7,0.1c0,0,0,0,0,0c0.8,0.8,3.5,3,3.5,3c0.2,0.2,0.5,0.2,0.8,0.1
		c0.2-0.1,0.4-0.4,0.4-0.6c0-0.1,0-12.8,0.1-17c0-0.9,0.1-1.6,1.5-1.6c1.1,0,1.6,0.4,1.6,1.3V51c0,0.4,0.3,0.7,0.7,0.7
		s0.7-0.3,0.7-0.7l0,0v-3h2c0.4,0,0.8,0.3,0.8,0.7c0,0,0,0,0,0.1V51c0,0.4,0.3,0.7,0.7,0.7s0.7-0.3,0.7-0.7l0,0v-1.6h1.9
		c0.2,0,0.5,0.1,0.6,0.2c0.2,0.2,0.3,0.5,0.2,0.8v1.9c0,0.4,0.3,0.7,0.7,0.7c0,0,0,0,0,0C204.4,53.1,204.7,52.8,204.7,52.4
		L204.7,52.4z"/>
	<rect x="192.9" y="68.9" class="st11" width="13" height="6"/>
</g>
<path class="st9" d="M93.3,56.4c-0.6,0.3-1.2,0.4-1.8,0.4c-2.4,0-4.1-2-4.1-5.6c0-3.2,1.6-5.8,4.4-5.8c0.5,0,1.1,0.1,1.6,0.3
	L93,47.2c-0.4-0.2-0.8-0.3-1.3-0.3c-1.8,0-2.6,2.1-2.6,4.3c0,2.6,1,4.2,2.6,4.2c0.4,0,0.9-0.1,1.3-0.3L93.3,56.4z"/>
<polygon class="st9" points="105.7,40.9 103.3,44 102.1,44 103.8,40.9 "/>
</svg>
