<svg xmlns="http://www.w3.org/2000/svg" viewBox="0 0 1281.57 160.07"><defs><style>.cls-1{fill:#1d1d1b;}</style></defs><title>Asset 32titulo2</title><g id="Layer_2" data-name="Layer 2"><g id="Layer_7" data-name="Layer 7"><path class="cls-1" d="M32.22,46.61a25.31,25.31,0,0,1-9.65,1.57c-14.34,0-20.64-8.92-20.64-19.13,0-13.51,9.91-20.38,21.34-20.38,4.4,0,8,.83,9.58,1.71l-2,8.07a18.1,18.1,0,0,0-7.09-1.38c-5.9,0-11,3.48-11,11.33,0,7,4.15,11.27,11.19,11.27a21.66,21.66,0,0,0,6.86-1.09Z" transform="translate(-0.21 -8.64)"/><path class="cls-1" d="M71.92,28c0,12.33-7.4,20.17-19.23,20.17S34.28,39.3,34.28,28.65c0-11.15,7.31-20,19-20C65.65,8.64,71.92,17.78,71.92,28Zm-26.78.43c0,7.21,3.14,11.61,8,11.61s7.87-4.8,7.87-11.71c0-6.59-3-11.6-7.93-11.6S45.14,21.42,45.14,28.47Z" transform="translate(-0.21 -8.64)"/><path class="cls-1" d="M77.39,47.59V9.27H89.5L95.58,21a113.93,113.93,0,0,1,6,13.43h.15A146.83,146.83,0,0,1,101,18.32v-9h9.38V47.59H99.54L93,34.85A151.62,151.62,0,0,1,86.59,21h-.2c.25,5.17.38,10.94.38,17.17v9.41Z" transform="translate(-0.21 -8.64)"/><path class="cls-1" d="M153.5,28c0,12.33-7.4,20.17-19.23,20.17s-18.4-8.91-18.4-19.56c0-11.15,7.3-20,19-20C147.24,8.64,153.5,17.78,153.5,28Zm-26.77.43c0,7.21,3.14,11.61,8,11.61s7.88-4.8,7.88-11.71c0-6.59-3-11.6-7.94-11.6S126.73,21.42,126.73,28.47Z" transform="translate(-0.21 -8.64)"/><path class="cls-1" d="M187.66,46.61A25.31,25.31,0,0,1,178,48.18c-14.34,0-20.64-8.92-20.64-19.13,0-13.51,9.91-20.38,21.33-20.38,4.41,0,8,.83,9.58,1.71l-2,8.07a18.14,18.14,0,0,0-7.09-1.38c-5.9,0-11,3.48-11,11.33,0,7,4.15,11.27,11.18,11.27a21.68,21.68,0,0,0,6.87-1.09Z" transform="translate(-0.21 -8.64)"/><path class="cls-1" d="M217.24,32.14H203.46V39.2h15.4v8.39H193.2V9.27h24.86v8.38h-14.6v6.19h13.78Z" transform="translate(-0.21 -8.64)"/><path class="cls-1" d="M235.84,9.27H246.1V39h14.76v8.6h-25Z" transform="translate(-0.21 -8.64)"/><path class="cls-1" d="M276.29,38.7l-2.16,8.89H263.51L274.63,9.27H288.3l11.43,38.32H288.64L286.2,38.7Zm8.5-7.57L283,24.23c-.58-2.16-1.3-5.28-1.9-7.54H281c-.57,2.26-1.14,5.41-1.7,7.59l-1.64,6.85Z" transform="translate(-0.21 -8.64)"/><path class="cls-1" d="M305.31,37.38a23.52,23.52,0,0,0,9.94,2.38c3.51,0,5.24-1.23,5.24-3.16s-1.72-2.91-6.05-4.39c-6.45-2.29-10.76-5.86-10.76-11.56,0-6.78,5.71-12,15.39-12a25,25,0,0,1,10.36,2l-2.14,8.2A20.3,20.3,0,0,0,319,17c-3.13,0-4.85,1.16-4.85,2.83,0,1.95,2,2.73,6.87,4.54,6.91,2.53,10,6.22,10,11.55,0,6.63-5.15,12.25-16.33,12.25a27.31,27.31,0,0,1-11.27-2.33Z" transform="translate(-0.21 -8.64)"/><path class="cls-1" d="M348.47,37.38a23.43,23.43,0,0,0,9.93,2.38c3.51,0,5.25-1.23,5.25-3.16s-1.72-2.91-6.06-4.39c-6.45-2.29-10.76-5.86-10.76-11.56,0-6.78,5.71-12,15.39-12a25.06,25.06,0,0,1,10.37,2l-2.15,8.2A20.3,20.3,0,0,0,362.11,17c-3.13,0-4.85,1.16-4.85,2.83,0,1.95,2,2.73,6.87,4.54,6.91,2.53,10,6.22,10,11.55,0,6.63-5.14,12.25-16.33,12.25a27.31,27.31,0,0,1-11.27-2.33Z" transform="translate(-0.21 -8.64)"/><path class="cls-1" d="M415.71,28c0,12.33-7.41,20.17-19.23,20.17s-18.41-8.91-18.41-19.56c0-11.15,7.31-20,19.05-20C409.44,8.64,415.71,17.78,415.71,28Zm-26.78.43c0,7.21,3.14,11.61,8.05,11.61s7.87-4.8,7.87-11.71c0-6.59-3-11.6-7.93-11.6S388.93,21.42,388.93,28.47Z" transform="translate(-0.21 -8.64)"/><path class="cls-1" d="M421.18,9.27h10.26V39H446.2v8.6h-25Z" transform="translate(-0.21 -8.64)"/><path class="cls-1" d="M459.8,9.27V31c0,5.79,2,9.06,6.07,9.06s6.07-3,6.07-9.06V9.27H482.2V30.4c0,11.84-5.89,17.81-16.66,17.81-10.47,0-16-5.75-16-18V9.27Z" transform="translate(-0.21 -8.64)"/><path class="cls-1" d="M517.92,46.61a25.31,25.31,0,0,1-9.65,1.57c-14.35,0-20.64-8.92-20.64-19.13,0-13.51,9.91-20.38,21.33-20.38,4.41,0,8,.83,9.58,1.71l-2,8.07a18.14,18.14,0,0,0-7.09-1.38c-5.9,0-11,3.48-11,11.33,0,7,4.15,11.27,11.18,11.27a21.72,21.72,0,0,0,6.87-1.09Z" transform="translate(-0.21 -8.64)"/><path class="cls-1" d="M533.72,9.27V47.59H523.46V9.27Z" transform="translate(-0.21 -8.64)"/><path class="cls-1" d="M576.83,28c0,12.33-7.4,20.17-19.23,20.17s-18.41-8.91-18.41-19.56c0-11.15,7.31-20,19-20C570.56,8.64,576.83,17.78,576.83,28Zm-26.78.43c0,7.21,3.14,11.61,8.05,11.61S566,35.28,566,28.37c0-6.59-3-11.6-7.93-11.6S550.05,21.42,550.05,28.47Z" transform="translate(-0.21 -8.64)"/><path class="cls-1" d="M582.3,47.59V9.27h12.11L600.5,21a115.58,115.58,0,0,1,6,13.43h.16a144.31,144.31,0,0,1-.77-16.13v-9h9.38V47.59H604.45L598,34.85A151.62,151.62,0,0,1,591.5,21h-.2c.26,5.17.38,10.94.38,17.17v9.41Z" transform="translate(-0.21 -8.64)"/><path class="cls-1" d="M646.42,32.14H632.65V39.2H648v8.39H622.38V9.27h24.86v8.38H632.65v6.19h13.77Z" transform="translate(-0.21 -8.64)"/><path class="cls-1" d="M654.45,37.38a23.47,23.47,0,0,0,9.93,2.38c3.51,0,5.25-1.23,5.25-3.16s-1.72-2.91-6.06-4.39c-6.45-2.29-10.76-5.86-10.76-11.56,0-6.78,5.72-12,15.4-12a25,25,0,0,1,10.36,2l-2.15,8.2A20.3,20.3,0,0,0,668.09,17c-3.12,0-4.84,1.16-4.84,2.83,0,1.95,2,2.73,6.86,4.54,6.91,2.53,10,6.22,10,11.55,0,6.63-5.14,12.25-16.33,12.25a27.35,27.35,0,0,1-11.27-2.33Z" transform="translate(-0.21 -8.64)"/><path class="cls-1" d="M696.92,9.79A81.67,81.67,0,0,1,709.1,9c7.35,0,11.95,1.19,15.76,3.81,4.22,2.91,6.94,7.69,6.94,14.72,0,7.81-3,12.88-6.7,15.79-4.2,3.27-10.49,4.72-18,4.72a69.39,69.39,0,0,1-10.2-.62Zm10.25,30.14a13.33,13.33,0,0,0,2.17.11c6.65.08,11.57-3.57,11.57-12.21,0-7.49-4.46-11-10.62-11a14,14,0,0,0-3.12.26Z" transform="translate(-0.21 -8.64)"/><path class="cls-1" d="M747.54,9.27V47.59H737.28V9.27Z" transform="translate(-0.21 -8.64)"/><path class="cls-1" d="M787.83,45.8A46.21,46.21,0,0,1,774.59,48c-7.52,0-12.67-1.88-16.12-5.17A18.55,18.55,0,0,1,753,29c.05-13.32,10-20.09,22.38-20.09,5.18,0,9.11.93,11.12,1.88L784.46,19a21.94,21.94,0,0,0-9.11-1.62c-6.33,0-11.56,3.31-11.56,11.1,0,7.14,4.63,11.29,10.92,11.29a11.53,11.53,0,0,0,3.22-.33V32.8H772.8v-8h15Z" transform="translate(-0.21 -8.64)"/><path class="cls-1" d="M804.51,9.27V47.59H794.25V9.27Z" transform="translate(-0.21 -8.64)"/><path class="cls-1" d="M819,17.88h-9.76V9.27h30v8.61h-9.94V47.59H819Z" transform="translate(-0.21 -8.64)"/><path class="cls-1" d="M850,38.7l-2.16,8.89H837.22L848.33,9.27H862l11.43,38.32H862.35L859.9,38.7Zm8.5-7.57-1.77-6.9c-.59-2.16-1.31-5.28-1.91-7.54h-.11c-.57,2.26-1.14,5.41-1.69,7.59l-1.65,6.85Z" transform="translate(-0.21 -8.64)"/><path class="cls-1" d="M878.33,9.27H888.6V39h14.75v8.6h-25Z" transform="translate(-0.21 -8.64)"/><path class="cls-1" d="M932.39,32.14H918.62V39.2H934v8.39H908.35V9.27h24.86v8.38H918.62v6.19h13.77Z" transform="translate(-0.21 -8.64)"/><path class="cls-1" d="M940.42,37.38a23.47,23.47,0,0,0,9.93,2.38c3.51,0,5.25-1.23,5.25-3.16s-1.72-2.91-6.06-4.39c-6.45-2.29-10.76-5.86-10.76-11.56,0-6.78,5.72-12,15.4-12a25,25,0,0,1,10.36,2l-2.15,8.2A20.3,20.3,0,0,0,954.06,17c-3.12,0-4.84,1.16-4.84,2.83,0,1.95,2,2.73,6.86,4.54,6.91,2.53,10,6.22,10,11.55,0,6.63-5.14,12.25-16.33,12.25a27.35,27.35,0,0,1-11.27-2.33Z" transform="translate(-0.21 -8.64)"/><path class="cls-1" d="M1015.29,33.87c-.12-4.35-.22-9.46-.21-15.46h-.16c-1.18,5.1-2.8,10.81-4,15l-3.8,13.36h-8l-3.21-13.32c-1-4.12-2.16-9.79-3.06-15.06h-.11c-.21,5.4-.41,11.11-.58,15.46l-.59,13.72h-9.45l2.36-38.32h13.82l2.53,10.32c1.05,4.26,2.19,9.33,3,14h.2c1.07-4.68,2.35-10.09,3.47-14.13l2.87-10.23h13.5l1.92,38.32h-10Z" transform="translate(-0.21 -8.64)"/><path class="cls-1" d="M1042.33,9.27V47.59h-10.27V9.27Z" transform="translate(-0.21 -8.64)"/><path class="cls-1" d="M1049.4,47.59V9.27h12.11L1067.6,21a115.58,115.58,0,0,1,6,13.43h.16a144.31,144.31,0,0,1-.77-16.13v-9h9.38V47.59h-10.83l-6.5-12.74A151.62,151.62,0,0,1,1058.6,21h-.2c.26,5.17.39,10.94.39,17.17v9.41Z" transform="translate(-0.21 -8.64)"/><path class="cls-1" d="M1113.52,32.14h-13.77V39.2h15.39v8.39h-25.65V9.27h24.85v8.38h-14.59v6.19h13.77Z" transform="translate(-0.21 -8.64)"/><path class="cls-1" d="M1121.55,37.38a23.48,23.48,0,0,0,9.94,2.38c3.51,0,5.24-1.23,5.24-3.16s-1.72-2.91-6-4.39c-6.46-2.29-10.76-5.86-10.76-11.56,0-6.78,5.71-12,15.39-12a25,25,0,0,1,10.36,2l-2.15,8.2A20.24,20.24,0,0,0,1135.2,17c-3.13,0-4.85,1.16-4.85,2.83,0,1.95,2,2.73,6.86,4.54,6.91,2.53,10,6.22,10,11.55,0,6.63-5.15,12.25-16.33,12.25a27.36,27.36,0,0,1-11.28-2.33Z" transform="translate(-0.21 -8.64)"/><path class="cls-1" d="M1176.8,32.14H1163V39.2h15.39v8.39h-25.66V9.27h24.86v8.38H1163v6.19h13.77Z" transform="translate(-0.21 -8.64)"/><path class="cls-1" d="M1184.14,47.59V9.27h12.11L1202.34,21a115.58,115.58,0,0,1,6,13.43h.16a144.31,144.31,0,0,1-.77-16.13v-9h9.38V47.59h-10.83l-6.5-12.74A151.62,151.62,0,0,1,1193.34,21h-.2c.26,5.17.39,10.94.39,17.17v9.41Z" transform="translate(-0.21 -8.64)"/><path class="cls-1" d="M1224.91,37.38a23.47,23.47,0,0,0,9.93,2.38c3.51,0,5.25-1.23,5.25-3.16s-1.72-2.91-6.06-4.39c-6.45-2.29-10.76-5.86-10.76-11.56,0-6.78,5.72-12,15.4-12a25,25,0,0,1,10.36,2l-2.15,8.2a20.3,20.3,0,0,0-8.33-1.82c-3.12,0-4.84,1.16-4.84,2.83,0,1.95,2,2.73,6.86,4.54,6.91,2.53,10,6.22,10,11.55,0,6.63-5.14,12.25-16.33,12.25A27.35,27.35,0,0,1,1223,45.85Z" transform="translate(-0.21 -8.64)"/><path class="cls-1" d="M1280.16,32.14h-13.78V39.2h15.4v8.39h-25.66V9.27H1281v8.38h-14.6v6.19h13.78Z" transform="translate(-0.21 -8.64)"/><path class="cls-1" d="M3,85.67c0-3.14-.09-5.79-.2-8H9.23L9.58,81h.09a9.27,9.27,0,0,1,8-3.88c5.23,0,9.93,4.55,9.93,12.18,0,8.71-5.55,12.8-10.87,12.8-2.86,0-5.14-1.15-6.2-2.73h-.1v11.86H3Zm7.43,5.64a7.48,7.48,0,0,0,.15,1.55,4.51,4.51,0,0,0,4.35,3.52c3.2,0,5.12-2.7,5.12-6.76,0-3.8-1.7-6.7-5-6.7a4.65,4.65,0,0,0-4.44,3.76A5.25,5.25,0,0,0,10.4,88Z" transform="translate(-0.21 -8.64)"/><path class="cls-1" d="M45.79,101.54l-.44-2.37h-.16a8.59,8.59,0,0,1-6.83,2.91c-4.87,0-7.73-3.5-7.73-7.31,0-6.23,5.58-9.19,14-9.17v-.31c0-1.27-.68-3.08-4.37-3.08A13.69,13.69,0,0,0,33.7,84l-1.37-4.76a19.34,19.34,0,0,1,9.29-2.14c8,0,10.48,4.7,10.48,10.32v8.33a34.53,34.53,0,0,0,.38,5.79Zm-.9-11.3C41,90.22,38,91.16,38,94a2.68,2.68,0,0,0,2.95,2.87,4.07,4.07,0,0,0,3.85-2.75,4.81,4.81,0,0,0,.14-1.27Z" transform="translate(-0.21 -8.64)"/><path class="cls-1" d="M58,85.52c0-3.51-.06-5.83-.19-7.89h6.38l.27,4.43h.19a7,7,0,0,1,6.45-5,6.54,6.54,0,0,1,1.59.14v7a8.73,8.73,0,0,0-2-.21c-2.73,0-4.6,1.45-5.1,3.77a9.11,9.11,0,0,0-.14,1.66v12.09H58Z" transform="translate(-0.21 -8.64)"/><path class="cls-1" d="M89.6,101.54l-.44-2.37H89a8.59,8.59,0,0,1-6.83,2.91c-4.87,0-7.73-3.5-7.73-7.31,0-6.23,5.57-9.19,14-9.17v-.31c0-1.27-.68-3.08-4.38-3.08A13.75,13.75,0,0,0,77.51,84l-1.36-4.76a19.34,19.34,0,0,1,9.29-2.14c8,0,10.47,4.7,10.47,10.32v8.33a35.63,35.63,0,0,0,.38,5.79Zm-.9-11.3c-3.91,0-6.93.92-6.93,3.76a2.68,2.68,0,0,0,3,2.87,4.05,4.05,0,0,0,3.84-2.75,4.42,4.42,0,0,0,.14-1.27Z" transform="translate(-0.21 -8.64)"/><path class="cls-1" d="M111.66,66.86h7.44v34.68h-7.44Z" transform="translate(-0.21 -8.64)"/><path class="cls-1" d="M138.69,101.54l-.43-2.37h-.16a8.59,8.59,0,0,1-6.83,2.91c-4.87,0-7.73-3.5-7.73-7.31,0-6.23,5.57-9.19,14-9.17v-.31c0-1.27-.68-3.08-4.38-3.08A13.68,13.68,0,0,0,126.61,84l-1.37-4.76a19.34,19.34,0,0,1,9.29-2.14c8,0,10.48,4.7,10.48,10.32v8.33a34.53,34.53,0,0,0,.38,5.79Zm-.9-11.3c-3.91,0-6.93.92-6.93,3.76a2.68,2.68,0,0,0,2.95,2.87,4.07,4.07,0,0,0,3.85-2.75,4.81,4.81,0,0,0,.13-1.27Z" transform="translate(-0.21 -8.64)"/><path class="cls-1" d="M184.33,89.35c0,8.74-6.19,12.73-12.6,12.73-6.95,0-12.34-4.6-12.34-12.32s5.09-12.66,12.77-12.66C179.47,77.1,184.33,82.13,184.33,89.35Zm-17.28.24c0,4.08,1.72,7.18,4.89,7.18,2.89,0,4.73-2.9,4.73-7.21,0-3.53-1.36-7.15-4.73-7.15C168.4,82.41,167.05,86.05,167.05,89.59Z" transform="translate(-0.21 -8.64)"/><path class="cls-1" d="M188.93,85.67c0-3.14-.09-5.79-.19-8h6.46l.34,3.35h.1a9.24,9.24,0,0,1,8-3.88c5.23,0,9.93,4.55,9.93,12.18,0,8.71-5.55,12.8-10.87,12.8-2.85,0-5.14-1.15-6.2-2.73h-.09v11.86h-7.44Zm7.44,5.64a6.85,6.85,0,0,0,.15,1.55,4.49,4.49,0,0,0,4.34,3.52c3.21,0,5.13-2.7,5.13-6.76,0-3.8-1.7-6.7-5-6.7a4.65,4.65,0,0,0-4.44,3.76,4.83,4.83,0,0,0-.17,1.32Z" transform="translate(-0.21 -8.64)"/><path class="cls-1" d="M226.44,70.82v6.81h5.35v5.49h-5.35v8.66c0,2.88.71,4.21,2.93,4.21a9.84,9.84,0,0,0,2.21-.22l.06,5.65a16,16,0,0,1-4.82.63,7.77,7.77,0,0,1-5.6-2.07c-1.38-1.42-2.05-3.69-2.05-7.08V83.12H216V77.63h3.18V72.5Z" transform="translate(-0.21 -8.64)"/><path class="cls-1" d="M243.73,71a3.69,3.69,0,0,1-4,3.71,3.72,3.72,0,1,1,4-3.71Zm-7.66,30.54V77.63h7.45v23.91Z" transform="translate(-0.21 -8.64)"/><path class="cls-1" d="M249.46,85.27c0-3-.1-5.49-.2-7.64h6.28l.32,3.24H256a8.28,8.28,0,0,1,7.21-3.77,6.74,6.74,0,0,1,6.54,4.1h.1A10,10,0,0,1,273,78.28a8.47,8.47,0,0,1,4.53-1.18c4.57,0,8.05,3.23,8.05,10.37v14.07h-7.23v-13c0-3.46-1.12-5.48-3.52-5.48a3.64,3.64,0,0,0-3.42,2.6,6.47,6.47,0,0,0-.27,1.88v14h-7.23V88.14c0-3-1.07-5.06-3.44-5.06A3.83,3.83,0,0,0,257,85.75a5.69,5.69,0,0,0-.27,1.89v13.9h-7.23Z" transform="translate(-0.21 -8.64)"/><path class="cls-1" d="M299.12,71a3.94,3.94,0,1,1-3.93-3.72A3.69,3.69,0,0,1,299.12,71Zm-7.66,30.54V77.63h7.45v23.91Z" transform="translate(-0.21 -8.64)"/><path class="cls-1" d="M302.94,97.28l7.54-9.42c1.35-1.59,2.43-2.79,3.78-4.22v-.11H303.78v-5.9h19.56v4.48l-7.2,9c-1.3,1.54-2.54,3-3.9,4.38v.11h11.48v5.89H302.94Z" transform="translate(-0.21 -8.64)"/><path class="cls-1" d="M341.36,101.54l-.44-2.37h-.15a8.59,8.59,0,0,1-6.83,2.91c-4.87,0-7.73-3.5-7.73-7.31,0-6.23,5.57-9.19,14-9.17v-.31c0-1.27-.68-3.08-4.38-3.08A13.75,13.75,0,0,0,329.27,84l-1.36-4.76a19.34,19.34,0,0,1,9.29-2.14c8,0,10.47,4.7,10.47,10.32v8.33a34.53,34.53,0,0,0,.38,5.79Zm-.9-11.3c-3.91,0-6.93.92-6.93,3.76a2.68,2.68,0,0,0,3,2.87,4.06,4.06,0,0,0,3.84-2.75,4.42,4.42,0,0,0,.14-1.27Z" transform="translate(-0.21 -8.64)"/><path class="cls-1" d="M371.49,100.94a17.5,17.5,0,0,1-6.66,1.11c-7.72,0-12.64-4.72-12.64-12.23,0-7,4.78-12.7,13.66-12.7a17.07,17.07,0,0,1,5.68.94l-1.16,5.52a10,10,0,0,0-4.16-.76c-3.93,0-6.45,2.79-6.42,6.7,0,4.39,2.95,6.72,6.54,6.72a11,11,0,0,0,4.28-.78Z" transform="translate(-0.21 -8.64)"/><path class="cls-1" d="M383.23,71a3.68,3.68,0,0,1-4,3.71,3.72,3.72,0,1,1,4-3.71Zm-7.65,30.54V77.63H383v23.91Z" transform="translate(-0.21 -8.64)"/><path class="cls-1" d="M412.54,89.35c0,8.74-6.19,12.73-12.6,12.73-6.95,0-12.34-4.6-12.34-12.32s5.09-12.66,12.77-12.66C407.68,77.1,412.54,82.13,412.54,89.35Zm-17.28.24c0,4.08,1.72,7.18,4.89,7.18,2.9,0,4.73-2.9,4.73-7.21,0-3.53-1.36-7.15-4.72-7.15C396.61,82.41,395.26,86.05,395.26,89.59Zm12.59-22.33-6,7.42h-5.09l4.2-7.42Z" transform="translate(-0.21 -8.64)"/><path class="cls-1" d="M417.15,85.27c0-3-.09-5.49-.2-7.64h6.45l.35,3.32h.15a8.65,8.65,0,0,1,7.39-3.85c4.88,0,8.55,3.25,8.55,10.29v14.15H432.4V88.29c0-3.08-1.1-5.19-3.78-5.19a4,4,0,0,0-3.77,2.81,5.34,5.34,0,0,0-.26,1.84v13.79h-7.44Z" transform="translate(-0.21 -8.64)"/><path class="cls-1" d="M478.79,66.86V94.4c0,2.72.09,5.54.2,7.14h-6.61l-.31-3.5H472a8.32,8.32,0,0,1-7.48,4c-5.64,0-10.2-4.85-10.2-12.28,0-8,5-12.7,10.69-12.7,3,0,5.22,1.05,6.29,2.7h.1V66.86Zm-7.43,20.92a7.81,7.81,0,0,0-.1-1.35A4.41,4.41,0,0,0,467,82.8c-3.4,0-5.13,3-5.13,6.79,0,4,2,6.56,5.08,6.56a4.38,4.38,0,0,0,4.3-3.56,7.43,7.43,0,0,0,.16-1.68Z" transform="translate(-0.21 -8.64)"/><path class="cls-1" d="M490.48,92c.22,3.08,3.27,4.55,6.74,4.55a19.85,19.85,0,0,0,6.58-1l1,5a23.15,23.15,0,0,1-8.66,1.51c-8.1,0-12.75-4.71-12.75-12.16,0-6.08,3.79-12.79,12.05-12.79,7.75,0,10.68,6,10.68,11.94a14.28,14.28,0,0,1-.27,2.94Zm8.73-5.09c0-1.79-.79-4.85-4.17-4.85-3.14,0-4.41,2.87-4.62,4.85Z" transform="translate(-0.21 -8.64)"/><path class="cls-1" d="M548.5,89c-.15-4-.3-8.74-.28-13.56h-.14c-1.05,4.21-2.43,8.89-3.67,12.78l-4,12.83h-5.79l-3.54-12.72c-1.06-3.88-2.16-8.55-3-12.89H528c-.16,4.48-.34,9.56-.54,13.66l-.61,12.49h-6.89L522,68.62H532l3.21,11c1,3.78,2.06,7.92,2.79,11.77h.16c.9-3.81,2-8.15,3.13-11.82l3.5-10.95h9.73l1.77,32.92H549Z" transform="translate(-0.21 -8.64)"/><path class="cls-1" d="M569.68,71a3.94,3.94,0,1,1-3.93-3.72A3.68,3.68,0,0,1,569.68,71ZM562,101.54V77.63h7.44v23.91Z" transform="translate(-0.21 -8.64)"/><path class="cls-1" d="M575.42,85.27c0-3-.1-5.49-.2-7.64h6.45L582,81h.16a8.63,8.63,0,0,1,7.38-3.85c4.89,0,8.56,3.25,8.56,10.29v14.15h-7.44V88.29c0-3.08-1.1-5.19-3.78-5.19a4,4,0,0,0-3.77,2.81,5.34,5.34,0,0,0-.26,1.84v13.79h-7.44Z" transform="translate(-0.21 -8.64)"/><path class="cls-1" d="M609.77,92c.22,3.08,3.27,4.55,6.73,4.55a19.76,19.76,0,0,0,6.58-1l1,5a23.21,23.21,0,0,1-8.67,1.51c-8.09,0-12.74-4.71-12.74-12.16,0-6.08,3.78-12.79,12.05-12.79,7.74,0,10.67,6,10.67,11.94a13.6,13.6,0,0,1-.27,2.94Zm8.72-5.09c0-1.79-.78-4.85-4.17-4.85-3.14,0-4.41,2.87-4.61,4.85Z" transform="translate(-0.21 -8.64)"/><path class="cls-1" d="M642.57,86.23v5H629.79v-5Z" transform="translate(-0.21 -8.64)"/><path class="cls-1" d="M655.32,70.82v6.81h5.35v5.49h-5.35v8.66c0,2.88.71,4.21,2.93,4.21a9.84,9.84,0,0,0,2.21-.22l.06,5.65a16,16,0,0,1-4.82.63,7.75,7.75,0,0,1-5.6-2.07c-1.38-1.42-2.06-3.69-2.06-7.08V83.12h-3.17V77.63H648V72.5Z" transform="translate(-0.21 -8.64)"/><path class="cls-1" d="M688.29,89.35c0,8.74-6.19,12.73-12.6,12.73-7,0-12.35-4.6-12.35-12.32s5.09-12.66,12.78-12.66C683.43,77.1,688.29,82.13,688.29,89.35ZM671,89.59c0,4.08,1.73,7.18,4.9,7.18,2.89,0,4.73-2.9,4.73-7.21,0-3.53-1.36-7.15-4.73-7.15C672.36,82.41,671,86.05,671,89.59Z" transform="translate(-0.21 -8.64)"/><path class="cls-1" d="M705,86.23v5H692.17v-5Z" transform="translate(-0.21 -8.64)"/><path class="cls-1" d="M737.49,89c-.15-4-.3-8.74-.28-13.56h-.14c-1.05,4.21-2.43,8.89-3.67,12.78l-4,12.83h-5.78L720,88.28c-1.06-3.88-2.16-8.55-3-12.89H717c-.16,4.48-.34,9.56-.54,13.66l-.61,12.49h-6.89L711,68.62H721l3.21,11c1,3.78,2.06,7.92,2.79,11.77h.16c.9-3.81,2-8.15,3.13-11.82l3.5-10.95h9.73l1.77,32.92H738Z" transform="translate(-0.21 -8.64)"/><path class="cls-1" d="M758.68,71a3.69,3.69,0,0,1-4,3.71,3.72,3.72,0,1,1,4-3.71ZM751,101.54V77.63h7.45v23.91Z" transform="translate(-0.21 -8.64)"/><path class="cls-1" d="M764.41,66.86h7.44v34.68h-7.44Z" transform="translate(-0.21 -8.64)"/><path class="cls-1" d="M777.84,66.86h7.44v34.68h-7.44Z" transform="translate(-0.21 -8.64)"/><path class="cls-1" d="M1.69,137.09v-15H3.82l4.8,7.59a42.85,42.85,0,0,1,2.68,4.88l0,0c-.18-2-.21-3.83-.21-6.16v-6.29H13v15H11l-4.77-7.61a48.13,48.13,0,0,1-2.8-5l-.06,0c.11,1.9.14,3.71.14,6.19v6.42Z" transform="translate(-0.21 -8.64)"/><path class="cls-1" d="M25.25,134.14c0,1.13,0,2.1.09,3H23.61l-.1-1.76h-.06a4,4,0,0,1-3.56,2c-1.69,0-3.71-.94-3.71-4.71v-6.3h1.95v6c0,2,.64,3.45,2.41,3.45a2.86,2.86,0,0,0,2.59-1.8,3,3,0,0,0,.17-1v-6.6h1.95Z" transform="translate(-0.21 -8.64)"/><path class="cls-1" d="M29.61,132.06a3.44,3.44,0,0,0,3.68,3.74,7.23,7.23,0,0,0,3-.55l.35,1.39a8.76,8.76,0,0,1-3.59.68c-3.31,0-5.3-2.2-5.3-5.43s1.92-5.81,5.06-5.81c3.52,0,4.44,3.08,4.44,5.06a5,5,0,0,1-.07.92Zm5.73-1.41c0-1.23-.51-3.17-2.7-3.17-2,0-2.85,1.81-3,3.17Z" transform="translate(-0.21 -8.64)"/><path class="cls-1" d="M39.39,135.09a5.32,5.32,0,0,0,2.59.77c1.43,0,2.09-.7,2.09-1.6s-.57-1.44-2-2c-1.94-.71-2.86-1.77-2.86-3.06,0-1.73,1.41-3.15,3.73-3.15a5.16,5.16,0,0,1,2.63.66l-.48,1.42a4.28,4.28,0,0,0-2.21-.63c-1.16,0-1.79.67-1.79,1.48s.64,1.29,2,1.83c1.85.69,2.82,1.63,2.82,3.24,0,1.91-1.48,3.24-4,3.24a6.11,6.11,0,0,1-3-.75Z" transform="translate(-0.21 -8.64)"/><path class="cls-1" d="M50.83,123.22v3.1h2.81v1.49H50.83v5.8c0,1.34.38,2.1,1.48,2.1a4.29,4.29,0,0,0,1.13-.14l.09,1.48a5,5,0,0,1-1.75.27,2.7,2.7,0,0,1-2.11-.83,4.11,4.11,0,0,1-.76-2.81v-5.87H47.24v-1.49h1.67v-2.59Z" transform="translate(-0.21 -8.64)"/><path class="cls-1" d="M55.84,129.68c0-1.28,0-2.36-.09-3.36h1.72l.07,2.11h.07a3.26,3.26,0,0,1,3-2.35,2.31,2.31,0,0,1,.54,0V128a3.22,3.22,0,0,0-.66,0,2.73,2.73,0,0,0-2.62,2.5,4.5,4.5,0,0,0-.08.92v5.75H55.84Z" transform="translate(-0.21 -8.64)"/><path class="cls-1" d="M69,137.09l-.17-1.36h-.06a4,4,0,0,1-3.3,1.6,3.07,3.07,0,0,1-3.29-3.09c0-2.6,2.32-4,6.47-4V130a2.21,2.21,0,0,0-2.45-2.48,5.24,5.24,0,0,0-2.8.8l-.45-1.3a6.86,6.86,0,0,1,3.56-.94c3.29,0,4.09,2.25,4.09,4.4v4a17,17,0,0,0,.16,2.58Zm-.31-5.5c-2.12,0-4.54.34-4.54,2.42A1.72,1.72,0,0,0,66,135.88a2.69,2.69,0,0,0,2.62-1.8,2,2,0,0,0,.09-.62Z" transform="translate(-0.21 -8.64)"/><path class="cls-1" d="M78.45,129.68c0-1.28,0-2.36-.09-3.36h1.72l.07,2.11h.07a3.26,3.26,0,0,1,3-2.35,2.31,2.31,0,0,1,.54,0V128a3.22,3.22,0,0,0-.66,0,2.73,2.73,0,0,0-2.62,2.5,5.34,5.34,0,0,0-.08.92v5.75h-2Z" transform="translate(-0.21 -8.64)"/><path class="cls-1" d="M86.6,132.06a3.44,3.44,0,0,0,3.69,3.74,7.23,7.23,0,0,0,3-.55l.34,1.39a8.72,8.72,0,0,1-3.59.68c-3.31,0-5.3-2.2-5.3-5.43s1.93-5.81,5.07-5.81c3.51,0,4.43,3.08,4.43,5.06a4.27,4.27,0,0,1-.07.92Zm5.73-1.41c0-1.23-.5-3.17-2.7-3.17-2,0-2.85,1.81-3,3.17Z" transform="translate(-0.21 -8.64)"/><path class="cls-1" d="M97.41,126.32l2.11,6c.37,1,.64,1.89.89,2.78h0c.25-.89.56-1.79.9-2.78l2.11-6h2l-4.24,10.77H99.41l-4.1-10.77Z" transform="translate(-0.21 -8.64)"/><path class="cls-1" d="M116.89,131.6c0,4-2.77,5.73-5.36,5.73-2.92,0-5.17-2.12-5.17-5.54,0-3.61,2.36-5.71,5.34-5.71S116.89,128.32,116.89,131.6Zm-8.54.13c0,2.36,1.35,4.14,3.26,4.14s3.28-1.76,3.28-4.2c0-1.82-.91-4.13-3.24-4.13S108.35,129.69,108.35,131.73Z" transform="translate(-0.21 -8.64)"/><path class="cls-1" d="M119.36,121.28h2v15.81h-2Z" transform="translate(-0.21 -8.64)"/><path class="cls-1" d="M133.61,134.14c0,1.13,0,2.1.09,3H132l-.1-1.76h-.06a4,4,0,0,1-3.56,2c-1.69,0-3.71-.94-3.71-4.71v-6.3h1.95v6c0,2,.64,3.45,2.41,3.45a2.86,2.86,0,0,0,2.59-1.8,3,3,0,0,0,.18-1v-6.6h1.94Z" transform="translate(-0.21 -8.64)"/><path class="cls-1" d="M144.55,136.7a7.45,7.45,0,0,1-3.09.62,5.13,5.13,0,0,1-5.37-5.5,5.48,5.48,0,0,1,5.78-5.74,6.28,6.28,0,0,1,2.72.57l-.43,1.51a4.7,4.7,0,0,0-2.29-.52c-2.46,0-3.8,1.84-3.8,4.08a3.7,3.7,0,0,0,3.75,4,5.67,5.67,0,0,0,2.4-.52Z" transform="translate(-0.21 -8.64)"/><path class="cls-1" d="M149,123.28a1.22,1.22,0,1,1-1.21-1.22A1.17,1.17,0,0,1,149,123.28Zm-2.19,13.81V126.32h1.95v10.77Z" transform="translate(-0.21 -8.64)"/><path class="cls-1" d="M161.8,131.6c0,4-2.77,5.73-5.36,5.73-2.92,0-5.17-2.12-5.17-5.54,0-3.61,2.37-5.71,5.34-5.71S161.8,128.32,161.8,131.6Zm-8.54.13c0,2.36,1.35,4.14,3.26,4.14s3.28-1.76,3.28-4.2c0-1.82-.91-4.13-3.24-4.13S153.26,129.69,153.26,131.73Z" transform="translate(-0.21 -8.64)"/><path class="cls-1" d="M164.27,129.23c0-1.12,0-2-.09-2.91h1.73l.11,1.77h0a4,4,0,0,1,3.56-2c1.48,0,3.8.89,3.8,4.59v6.42h-2v-6.21c0-1.74-.66-3.2-2.49-3.2a2.83,2.83,0,0,0-2.64,2,3.12,3.12,0,0,0-.13.91v6.49h-1.95Z" transform="translate(-0.21 -8.64)"/><path class="cls-1" d="M182.59,137.09l-.17-1.36h-.06a4,4,0,0,1-3.29,1.6,3.07,3.07,0,0,1-3.29-3.09c0-2.6,2.31-4,6.47-4V130a2.22,2.22,0,0,0-2.45-2.48,5.28,5.28,0,0,0-2.81.8l-.44-1.3a6.8,6.8,0,0,1,3.55-.94c3.29,0,4.09,2.25,4.09,4.4v4a16.92,16.92,0,0,0,.17,2.58Zm-.3-5.5c-2.12,0-4.55.34-4.55,2.42a1.73,1.73,0,0,0,1.83,1.87,2.68,2.68,0,0,0,2.62-1.8,2,2,0,0,0,.1-.62Z" transform="translate(-0.21 -8.64)"/><path class="cls-1" d="M187.34,129.68c0-1.28,0-2.36-.09-3.36H189l.07,2.11h.08a3.25,3.25,0,0,1,3-2.35,2.34,2.34,0,0,1,.55,0V128a3.33,3.33,0,0,0-.67,0,2.74,2.74,0,0,0-2.62,2.5,5.34,5.34,0,0,0-.08.92v5.75h-1.95Z" transform="translate(-0.21 -8.64)"/><path class="cls-1" d="M196.9,123.28a1.22,1.22,0,1,1-1.21-1.22A1.17,1.17,0,0,1,196.9,123.28Zm-2.19,13.81V126.32h1.95v10.77Z" transform="translate(-0.21 -8.64)"/><path class="cls-1" d="M205.89,137.09l-.17-1.36h-.06a4,4,0,0,1-3.29,1.6,3.07,3.07,0,0,1-3.29-3.09c0-2.6,2.31-4,6.47-4V130a2.22,2.22,0,0,0-2.45-2.48,5.28,5.28,0,0,0-2.81.8l-.44-1.3a6.8,6.8,0,0,1,3.55-.94c3.29,0,4.09,2.25,4.09,4.4v4a16.92,16.92,0,0,0,.17,2.58Zm-.3-5.5c-2.12,0-4.55.34-4.55,2.42a1.73,1.73,0,0,0,1.83,1.87,2.68,2.68,0,0,0,2.62-1.8,2,2,0,0,0,.1-.62Z" transform="translate(-0.21 -8.64)"/><path class="cls-1" d="M217.72,123.22v3.1h2.81v1.49h-2.81v5.8c0,1.34.38,2.1,1.48,2.1a4.23,4.23,0,0,0,1.13-.14l.09,1.48a5,5,0,0,1-1.75.27,2.7,2.7,0,0,1-2.11-.83,4.11,4.11,0,0,1-.76-2.81v-5.87h-1.67v-1.49h1.67v-2.59Z" transform="translate(-0.21 -8.64)"/><path class="cls-1" d="M223.7,132.06a3.43,3.43,0,0,0,3.68,3.74,7.23,7.23,0,0,0,3-.55l.35,1.39a8.82,8.82,0,0,1-3.6.68c-3.31,0-5.3-2.2-5.3-5.43s1.93-5.81,5.07-5.81c3.51,0,4.43,3.08,4.43,5.06a5.23,5.23,0,0,1-.06.92Zm5.73-1.41c0-1.23-.51-3.17-2.71-3.17-2,0-2.84,1.81-3,3.17Z" transform="translate(-0.21 -8.64)"/><path class="cls-1" d="M241.43,136.7a7.5,7.5,0,0,1-3.09.62,5.13,5.13,0,0,1-5.38-5.5,5.49,5.49,0,0,1,5.79-5.74,6.35,6.35,0,0,1,2.72.57l-.43,1.51a4.73,4.73,0,0,0-2.29-.52c-2.46,0-3.81,1.84-3.8,4.08a3.7,3.7,0,0,0,3.75,4,5.71,5.71,0,0,0,2.4-.52Z" transform="translate(-0.21 -8.64)"/><path class="cls-1" d="M243.72,129.23c0-1.12,0-2-.09-2.91h1.73l.11,1.77h.05a4,4,0,0,1,3.56-2c1.48,0,3.8.89,3.8,4.59v6.42h-1.95v-6.21c0-1.74-.66-3.2-2.49-3.2a2.83,2.83,0,0,0-2.64,2,3.12,3.12,0,0,0-.13.91v6.49h-1.95Z" transform="translate(-0.21 -8.64)"/><path class="cls-1" d="M265.82,131.6c0,4-2.77,5.73-5.36,5.73-2.92,0-5.17-2.12-5.17-5.54,0-3.61,2.37-5.71,5.34-5.71S265.82,128.32,265.82,131.6Zm-8.54.13c0,2.36,1.35,4.14,3.26,4.14s3.28-1.76,3.28-4.2c0-1.82-.91-4.13-3.24-4.13S257.28,129.69,257.28,131.73Z" transform="translate(-0.21 -8.64)"/><path class="cls-1" d="M268.29,121.28h1.95v15.81h-1.95Z" transform="translate(-0.21 -8.64)"/><path class="cls-1" d="M283.29,131.6c0,4-2.77,5.73-5.36,5.73-2.92,0-5.17-2.12-5.17-5.54,0-3.61,2.37-5.71,5.34-5.71S283.29,128.32,283.29,131.6Zm-8.54.13c0,2.36,1.35,4.14,3.26,4.14s3.28-1.76,3.28-4.2c0-1.82-.91-4.13-3.24-4.13S274.75,129.69,274.75,131.73Z" transform="translate(-0.21 -8.64)"/><path class="cls-1" d="M295.07,126.32c-.05.76-.09,1.64-.09,3v6.25c0,2.49-.51,4-1.54,4.93a5.77,5.77,0,0,1-3.92,1.29,6.94,6.94,0,0,1-3.59-.88l.49-1.51a6,6,0,0,0,3.17.86c2,0,3.47-1,3.47-3.77v-1.2H293a3.82,3.82,0,0,1-3.42,1.81c-2.68,0-4.59-2.28-4.59-5.26,0-3.66,2.37-5.71,4.86-5.71a3.59,3.59,0,0,1,3.36,1.85h0l.08-1.61Zm-2,4.24a3,3,0,0,0-.11-.88,2.83,2.83,0,0,0-2.75-2.08c-1.87,0-3.21,1.58-3.21,4.08,0,2.11,1.09,3.88,3.19,3.88a2.87,2.87,0,0,0,2.72-2,3.32,3.32,0,0,0,.16-1Z" transform="translate(-0.21 -8.64)"/><path class="cls-1" d="M302.06,121.65l-2.72,3.19H298l1.95-3.19Zm-4,15.44V126.32h2v10.77Z" transform="translate(-0.21 -8.64)"/><path class="cls-1" d="M309.27,137.09l-.18-1.36h0a4,4,0,0,1-3.3,1.6,3.07,3.07,0,0,1-3.29-3.09c0-2.6,2.31-4,6.47-4V130a2.21,2.21,0,0,0-2.45-2.48,5.24,5.24,0,0,0-2.8.8l-.45-1.3a6.83,6.83,0,0,1,3.56-.94c3.29,0,4.09,2.25,4.09,4.4v4a17,17,0,0,0,.16,2.58Zm-.31-5.5c-2.12,0-4.54.34-4.54,2.42a1.72,1.72,0,0,0,1.83,1.87,2.69,2.69,0,0,0,2.62-1.8,2,2,0,0,0,.09-.62Z" transform="translate(-0.21 -8.64)"/><path class="cls-1" d="M312.76,139.84a33.33,33.33,0,0,0,1.34-5.34l2.17-.22a27.06,27.06,0,0,1-2.13,5.41Z" transform="translate(-0.21 -8.64)"/><path class="cls-1" d="M332.35,134.14c0,1.13,0,2.1.09,3h-1.73l-.11-1.76h-.05a4,4,0,0,1-3.56,2c-1.69,0-3.71-.94-3.71-4.71v-6.3h2v6c0,2,.64,3.45,2.4,3.45a2.85,2.85,0,0,0,2.59-1.8,2.79,2.79,0,0,0,.18-1v-6.6h2ZM331,121.65l-2.72,3.19h-1.39l1.95-3.19Z" transform="translate(-0.21 -8.64)"/><path class="cls-1" d="M335.61,129.23c0-1.12,0-2-.09-2.91h1.73l.11,1.77h.05a4,4,0,0,1,3.56-2c1.48,0,3.8.89,3.8,4.59v6.42h-1.95v-6.21c0-1.74-.66-3.2-2.49-3.2a2.83,2.83,0,0,0-2.64,2,3.12,3.12,0,0,0-.13.91v6.49h-1.95Z" transform="translate(-0.21 -8.64)"/><path class="cls-1" d="M350.15,123.28a1.22,1.22,0,1,1-1.21-1.22A1.17,1.17,0,0,1,350.15,123.28ZM348,137.09V126.32h2v10.77Z" transform="translate(-0.21 -8.64)"/><path class="cls-1" d="M360.85,136.7a7.5,7.5,0,0,1-3.09.62,5.13,5.13,0,0,1-5.38-5.5,5.49,5.49,0,0,1,5.79-5.74,6.35,6.35,0,0,1,2.72.57l-.43,1.51a4.73,4.73,0,0,0-2.29-.52c-2.46,0-3.81,1.84-3.8,4.08a3.7,3.7,0,0,0,3.75,4,5.71,5.71,0,0,0,2.4-.52Z" transform="translate(-0.21 -8.64)"/><path class="cls-1" d="M369.13,137.09l-.17-1.36h-.06a4,4,0,0,1-3.29,1.6,3.07,3.07,0,0,1-3.29-3.09c0-2.6,2.31-4,6.47-4V130a2.22,2.22,0,0,0-2.45-2.48,5.28,5.28,0,0,0-2.81.8l-.44-1.3a6.8,6.8,0,0,1,3.55-.94c3.29,0,4.09,2.25,4.09,4.4v4a16.92,16.92,0,0,0,.17,2.58Zm-.3-5.5c-2.12,0-4.55.34-4.55,2.42a1.73,1.73,0,0,0,1.83,1.87,2.68,2.68,0,0,0,2.62-1.8,2,2,0,0,0,.1-.62Z" transform="translate(-0.21 -8.64)"/><path class="cls-1" d="M379.7,132.06a3.44,3.44,0,0,0,3.69,3.74,7.23,7.23,0,0,0,3-.55l.34,1.39a8.72,8.72,0,0,1-3.59.68c-3.31,0-5.3-2.2-5.3-5.43s1.93-5.81,5.07-5.81c3.51,0,4.43,3.08,4.43,5.06a4.27,4.27,0,0,1-.07.92Zm5.73-1.41c0-1.23-.5-3.17-2.7-3.17-2,0-2.85,1.81-3,3.17Z" transform="translate(-0.21 -8.64)"/><path class="cls-1" d="M389.76,129.23c0-1.12,0-2-.09-2.91h1.73l.11,1.77h.05a4,4,0,0,1,3.56-2c1.48,0,3.79.89,3.79,4.59v6.42H397v-6.21c0-1.74-.66-3.2-2.49-3.2a2.82,2.82,0,0,0-2.64,2,3.12,3.12,0,0,0-.13.91v6.49h-1.95Z" transform="translate(-0.21 -8.64)"/><path class="cls-1" d="M407.92,132.06a3.44,3.44,0,0,0,3.69,3.74,7.26,7.26,0,0,0,3-.55l.34,1.39a8.72,8.72,0,0,1-3.59.68c-3.31,0-5.3-2.2-5.3-5.43s1.92-5.81,5.07-5.81c3.51,0,4.43,3.08,4.43,5.06a5,5,0,0,1-.07.92Zm5.73-1.41c0-1.23-.5-3.17-2.7-3.17-2,0-2.85,1.81-3,3.17Z" transform="translate(-0.21 -8.64)"/><path class="cls-1" d="M418,121.28h1.94v15.81H418Z" transform="translate(-0.21 -8.64)"/><path class="cls-1" d="M428,129.23c0-1.12,0-2-.09-2.91h1.7l.1,1.74h.06a3.71,3.71,0,0,1,3.4-2,3.17,3.17,0,0,1,3,2.16h0a4.4,4.4,0,0,1,1.22-1.41,3.65,3.65,0,0,1,2.37-.75c1.44,0,3.55.92,3.55,4.67v6.34h-1.91V131c0-2.09-.77-3.32-2.34-3.32a2.57,2.57,0,0,0-2.33,1.76,3.35,3.35,0,0,0-.16,1v6.67h-1.91v-6.46c0-1.72-.75-2.95-2.23-2.95a2.72,2.72,0,0,0-2.45,1.95,3.34,3.34,0,0,0-.14,1v6.49H428Z" transform="translate(-0.21 -8.64)"/><path class="cls-1" d="M455.51,134.14c0,1.13,0,2.1.09,3h-1.73l-.11-1.76h-.05a4,4,0,0,1-3.56,2c-1.69,0-3.71-.94-3.71-4.71v-6.3h1.95v6c0,2,.64,3.45,2.4,3.45a2.85,2.85,0,0,0,2.59-1.8,3,3,0,0,0,.18-1v-6.6h1.95Z" transform="translate(-0.21 -8.64)"/><path class="cls-1" d="M458.77,129.23c0-1.12,0-2-.09-2.91h1.73l.11,1.77h.05a4,4,0,0,1,3.56-2c1.48,0,3.8.89,3.8,4.59v6.42H466v-6.21c0-1.74-.66-3.2-2.49-3.2a2.83,2.83,0,0,0-2.64,2,3.12,3.12,0,0,0-.13.91v6.49h-2Z" transform="translate(-0.21 -8.64)"/><path class="cls-1" d="M480.41,121.28v13c0,1,0,2,.09,2.78h-1.74l-.1-1.86h-.05a3.94,3.94,0,0,1-3.65,2.1c-2.61,0-4.62-2.2-4.62-5.47,0-3.6,2.21-5.78,4.83-5.78a3.58,3.58,0,0,1,3.25,1.63h.05v-6.43Zm-1.94,9.42a3.91,3.91,0,0,0-.09-.83,2.89,2.89,0,0,0-2.83-2.26c-2,0-3.24,1.78-3.24,4.15,0,2.18,1.09,4,3.2,4a3,3,0,0,0,2.86-2.35,3.17,3.17,0,0,0,.1-.84Z" transform="translate(-0.21 -8.64)"/><path class="cls-1" d="M493.42,131.6c0,4-2.77,5.73-5.36,5.73-2.92,0-5.17-2.12-5.17-5.54,0-3.61,2.37-5.71,5.34-5.71S493.42,128.32,493.42,131.6Zm-8.54.13c0,2.36,1.35,4.14,3.26,4.14s3.28-1.76,3.28-4.2c0-1.82-.91-4.13-3.24-4.13S484.88,129.69,484.88,131.73Z" transform="translate(-0.21 -8.64)"/><path class="cls-1" d="M494.1,139.84a33.35,33.35,0,0,0,1.33-5.34l2.18-.22a27.68,27.68,0,0,1-2.13,5.41Z" transform="translate(-0.21 -8.64)"/><path class="cls-1" d="M512.36,136.7a7.5,7.5,0,0,1-3.09.62,5.13,5.13,0,0,1-5.37-5.5,5.48,5.48,0,0,1,5.78-5.74,6.28,6.28,0,0,1,2.72.57l-.43,1.51a4.73,4.73,0,0,0-2.29-.52c-2.46,0-3.8,1.84-3.8,4.08a3.7,3.7,0,0,0,3.75,4,5.71,5.71,0,0,0,2.4-.52Z" transform="translate(-0.21 -8.64)"/><path class="cls-1" d="M524.26,131.6c0,4-2.76,5.73-5.35,5.73-2.92,0-5.18-2.12-5.18-5.54,0-3.61,2.37-5.71,5.35-5.71S524.26,128.32,524.26,131.6Zm-8.53.13c0,2.36,1.35,4.14,3.26,4.14s3.28-1.76,3.28-4.2c0-1.82-.92-4.13-3.24-4.13S515.73,129.69,515.73,131.73Z" transform="translate(-0.21 -8.64)"/><path class="cls-1" d="M526.74,129.23c0-1.12,0-2-.09-2.91h1.73l.11,1.77h0a4,4,0,0,1,3.56-2c1.48,0,3.79.89,3.79,4.59v6.42H534v-6.21c0-1.74-.66-3.2-2.49-3.2a2.82,2.82,0,0,0-2.64,2,3.12,3.12,0,0,0-.13.91v6.49h-2Z" transform="translate(-0.21 -8.64)"/><path class="cls-1" d="M538.81,135.09a5.32,5.32,0,0,0,2.6.77c1.43,0,2.09-.7,2.09-1.6s-.57-1.44-2-2c-2-.71-2.87-1.77-2.86-3.06,0-1.73,1.41-3.15,3.72-3.15a5.17,5.17,0,0,1,2.64.66l-.49,1.42a4.21,4.21,0,0,0-2.21-.63c-1.15,0-1.78.67-1.78,1.48s.63,1.29,2,1.83c1.86.69,2.82,1.63,2.83,3.24,0,1.91-1.48,3.24-4,3.24a6,6,0,0,1-3-.75Z" transform="translate(-0.21 -8.64)"/><path class="cls-1" d="M550.25,123.22v3.1h2.81v1.49h-2.81v5.8c0,1.34.39,2.1,1.48,2.1a4.31,4.31,0,0,0,1.14-.14l.09,1.48a5,5,0,0,1-1.75.27,2.73,2.73,0,0,1-2.12-.83,4.11,4.11,0,0,1-.76-2.81v-5.87h-1.66v-1.49h1.66v-2.59Z" transform="translate(-0.21 -8.64)"/><path class="cls-1" d="M561.24,137.09l-.18-1.36h0a4,4,0,0,1-3.3,1.6,3.07,3.07,0,0,1-3.29-3.09c0-2.6,2.31-4,6.47-4V130a2.21,2.21,0,0,0-2.45-2.48,5.24,5.24,0,0,0-2.8.8l-.45-1.3a6.83,6.83,0,0,1,3.56-.94c3.29,0,4.09,2.25,4.09,4.4v4a17,17,0,0,0,.16,2.58Zm-.31-5.5c-2.12,0-4.54.34-4.54,2.42a1.72,1.72,0,0,0,1.83,1.87,2.69,2.69,0,0,0,2.62-1.8,2,2,0,0,0,.09-.62Z" transform="translate(-0.21 -8.64)"/><path class="cls-1" d="M580,121.28v13c0,1,0,2,.09,2.78h-1.74l-.1-1.86h0a3.94,3.94,0,0,1-3.65,2.1c-2.61,0-4.62-2.2-4.62-5.47,0-3.6,2.21-5.78,4.84-5.78a3.58,3.58,0,0,1,3.24,1.63h0v-6.43Zm-1.94,9.42a3.89,3.89,0,0,0-.08-.83,2.9,2.9,0,0,0-2.84-2.26c-2,0-3.24,1.78-3.24,4.15,0,2.18,1.09,4,3.2,4a3,3,0,0,0,2.86-2.35,3.17,3.17,0,0,0,.1-.84Z" transform="translate(-0.21 -8.64)"/><path class="cls-1" d="M584.36,132.06A3.44,3.44,0,0,0,588,135.8a7.28,7.28,0,0,0,3-.55l.34,1.39a8.76,8.76,0,0,1-3.59.68c-3.31,0-5.3-2.2-5.3-5.43s1.92-5.81,5.07-5.81c3.51,0,4.43,3.08,4.43,5.06a5,5,0,0,1-.07.92Zm5.73-1.41c0-1.23-.5-3.17-2.7-3.17-2,0-2.85,1.81-3,3.17Z" transform="translate(-0.21 -8.64)"/><path class="cls-1" d="M608.14,134.14c0,1.13,0,2.1.08,3h-1.73l-.1-1.76h0a4,4,0,0,1-3.57,2c-1.68,0-3.71-.94-3.71-4.71v-6.3h2v6c0,2,.64,3.45,2.41,3.45a2.85,2.85,0,0,0,2.59-1.8,3,3,0,0,0,.18-1v-6.6h1.95Z" transform="translate(-0.21 -8.64)"/><path class="cls-1" d="M611.4,129.23c0-1.12,0-2-.09-2.91H613l.1,1.77h.06a4,4,0,0,1,3.56-2c1.48,0,3.79.89,3.79,4.59v6.42h-1.94v-6.21c0-1.74-.66-3.2-2.49-3.2a2.82,2.82,0,0,0-2.64,2,3.11,3.11,0,0,0-.14.91v6.49H611.4Z" transform="translate(-0.21 -8.64)"/><path class="cls-1" d="M628.19,135.09a5.32,5.32,0,0,0,2.59.77c1.43,0,2.1-.7,2.1-1.6s-.58-1.44-2-2c-1.94-.71-2.86-1.77-2.86-3.06,0-1.73,1.41-3.15,3.73-3.15a5.2,5.2,0,0,1,2.64.66l-.49,1.42a4.28,4.28,0,0,0-2.21-.63c-1.16,0-1.78.67-1.78,1.48s.63,1.29,2,1.83c1.86.69,2.82,1.63,2.82,3.24,0,1.91-1.48,3.24-4,3.24a6.11,6.11,0,0,1-3-.75Z" transform="translate(-0.21 -8.64)"/><path class="cls-1" d="M639.46,123.28a1.21,1.21,0,1,1-2.42,0,1.19,1.19,0,0,1,1.21-1.22A1.16,1.16,0,0,1,639.46,123.28Zm-2.18,13.81V126.32h2v10.77Z" transform="translate(-0.21 -8.64)"/><path class="cls-1" d="M642.21,135.09a5.32,5.32,0,0,0,2.59.77c1.43,0,2.1-.7,2.1-1.6s-.57-1.44-2-2c-1.94-.71-2.86-1.77-2.86-3.06,0-1.73,1.41-3.15,3.73-3.15a5.2,5.2,0,0,1,2.64.66l-.49,1.42a4.24,4.24,0,0,0-2.21-.63c-1.16,0-1.78.67-1.78,1.48s.63,1.29,2,1.83c1.86.69,2.82,1.63,2.83,3.24,0,1.91-1.49,3.24-4,3.24a6.11,6.11,0,0,1-3-.75Z" transform="translate(-0.21 -8.64)"/><path class="cls-1" d="M653.65,123.22v3.1h2.81v1.49h-2.81v5.8c0,1.34.38,2.1,1.48,2.1a4.23,4.23,0,0,0,1.13-.14l.09,1.48a5,5,0,0,1-1.75.27,2.71,2.71,0,0,1-2.11-.83,4.11,4.11,0,0,1-.76-2.81v-5.87h-1.67v-1.49h1.67v-2.59Z" transform="translate(-0.21 -8.64)"/><path class="cls-1" d="M659.63,132.06a3.43,3.43,0,0,0,3.68,3.74,7.23,7.23,0,0,0,3-.55l.35,1.39a8.82,8.82,0,0,1-3.6.68c-3.3,0-5.29-2.2-5.29-5.43s1.92-5.81,5.06-5.81c3.52,0,4.43,3.08,4.43,5.06a5.23,5.23,0,0,1-.06.92Zm5.73-1.41c0-1.23-.51-3.17-2.7-3.17-2,0-2.85,1.81-3,3.17Z" transform="translate(-0.21 -8.64)"/><path class="cls-1" d="M669.68,129.23c0-1.12,0-2-.09-2.91h1.7l.11,1.74h.05a3.71,3.71,0,0,1,3.4-2,3.16,3.16,0,0,1,3,2.16h0a4.38,4.38,0,0,1,1.21-1.41,3.67,3.67,0,0,1,2.37-.75c1.44,0,3.56.92,3.56,4.67v6.34h-1.91V131c0-2.09-.77-3.32-2.34-3.32a2.56,2.56,0,0,0-2.33,1.76,3.35,3.35,0,0,0-.16,1v6.67h-1.91v-6.46c0-1.72-.76-2.95-2.24-2.95a2.71,2.71,0,0,0-2.44,1.95,3,3,0,0,0-.15,1v6.49h-1.91Z" transform="translate(-0.21 -8.64)"/><path class="cls-1" d="M694.21,137.09l-.17-1.36H694a4,4,0,0,1-3.29,1.6,3.07,3.07,0,0,1-3.29-3.09c0-2.6,2.31-4,6.47-4V130a2.22,2.22,0,0,0-2.45-2.48,5.31,5.31,0,0,0-2.81.8l-.44-1.3a6.8,6.8,0,0,1,3.55-.94c3.29,0,4.09,2.25,4.09,4.4v4a16.92,16.92,0,0,0,.17,2.58Zm-.3-5.5c-2.12,0-4.55.34-4.55,2.42a1.73,1.73,0,0,0,1.83,1.87,2.68,2.68,0,0,0,2.62-1.8,2,2,0,0,0,.1-.62Z" transform="translate(-0.21 -8.64)"/><path class="cls-1" d="M711.36,136.7a7.45,7.45,0,0,1-3.09.62,5.13,5.13,0,0,1-5.37-5.5,5.49,5.49,0,0,1,5.79-5.74,6.35,6.35,0,0,1,2.72.57l-.44,1.51a4.7,4.7,0,0,0-2.29-.52c-2.45,0-3.8,1.84-3.8,4.08a3.7,3.7,0,0,0,3.75,4,5.67,5.67,0,0,0,2.4-.52Z" transform="translate(-0.21 -8.64)"/><path class="cls-1" d="M723.27,131.6c0,4-2.77,5.73-5.36,5.73-2.92,0-5.17-2.12-5.17-5.54,0-3.61,2.37-5.71,5.34-5.71S723.27,128.32,723.27,131.6Zm-8.54.13c0,2.36,1.35,4.14,3.27,4.14s3.28-1.76,3.28-4.2c0-1.82-.92-4.13-3.25-4.13S714.73,129.69,714.73,131.73Z" transform="translate(-0.21 -8.64)"/><path class="cls-1" d="M725.74,129.23c0-1.12,0-2-.09-2.91h1.7l.11,1.74h0a3.72,3.72,0,0,1,3.4-2,3.18,3.18,0,0,1,3,2.16h0a4.28,4.28,0,0,1,1.22-1.41,3.64,3.64,0,0,1,2.36-.75c1.44,0,3.56.92,3.56,4.67v6.34h-1.91V131c0-2.09-.77-3.32-2.34-3.32a2.57,2.57,0,0,0-2.33,1.76,3.35,3.35,0,0,0-.16,1v6.67h-1.91v-6.46c0-1.72-.76-2.95-2.24-2.95a2.71,2.71,0,0,0-2.44,1.95,3.34,3.34,0,0,0-.15,1v6.49h-1.91Z" transform="translate(-0.21 -8.64)"/><path class="cls-1" d="M744.3,129.83c0-1.37,0-2.49-.09-3.51H746l.11,1.84h0a4.18,4.18,0,0,1,3.82-2.08c2.61,0,4.57,2.19,4.57,5.46,0,3.88-2.37,5.79-4.89,5.79a3.75,3.75,0,0,1-3.32-1.69h0v5.86h-2Zm2,2.88a3.42,3.42,0,0,0,.08.79,3,3,0,0,0,2.93,2.3c2.07,0,3.27-1.7,3.27-4.17,0-2.15-1.12-4-3.2-4a3.12,3.12,0,0,0-3,2.42,3.6,3.6,0,0,0-.12.79Z" transform="translate(-0.21 -8.64)"/><path class="cls-1" d="M757,121.28h1.94v15.81H757Z" transform="translate(-0.21 -8.64)"/><path class="cls-1" d="M763.31,132.06A3.44,3.44,0,0,0,767,135.8a7.23,7.23,0,0,0,3-.55l.34,1.39a8.72,8.72,0,0,1-3.59.68c-3.31,0-5.3-2.2-5.3-5.43s1.93-5.81,5.07-5.81c3.51,0,4.43,3.08,4.43,5.06a4.27,4.27,0,0,1-.07.92Zm5.73-1.41c0-1.23-.5-3.17-2.7-3.17-2,0-2.85,1.81-3,3.17Z" transform="translate(-0.21 -8.64)"/><path class="cls-1" d="M775.72,123.22v3.1h2.81v1.49h-2.81v5.8c0,1.34.38,2.1,1.48,2.1a4.23,4.23,0,0,0,1.13-.14l.09,1.48a5,5,0,0,1-1.75.27,2.7,2.7,0,0,1-2.11-.83,4.11,4.11,0,0,1-.76-2.81v-5.87h-1.67v-1.49h1.67v-2.59Z" transform="translate(-0.21 -8.64)"/><path class="cls-1" d="M790.35,131.6c0,4-2.77,5.73-5.36,5.73-2.92,0-5.17-2.12-5.17-5.54,0-3.61,2.36-5.71,5.34-5.71S790.35,128.32,790.35,131.6Zm-8.54.13c0,2.36,1.35,4.14,3.26,4.14s3.28-1.76,3.28-4.2c0-1.82-.91-4.13-3.24-4.13S781.81,129.69,781.81,131.73Z" transform="translate(-0.21 -8.64)"/><path class="cls-1" d="M806.83,121.28v13c0,1,0,2,.09,2.78h-1.74l-.1-1.86H805a4,4,0,0,1-3.66,2.1c-2.61,0-4.62-2.2-4.62-5.47,0-3.6,2.22-5.78,4.84-5.78a3.6,3.6,0,0,1,3.25,1.63h0v-6.43Zm-2,9.42a3.89,3.89,0,0,0-.08-.83,2.89,2.89,0,0,0-2.84-2.26c-2,0-3.24,1.78-3.24,4.15,0,2.18,1.09,4,3.2,4a3,3,0,0,0,2.87-2.35,3.18,3.18,0,0,0,.09-.84Z" transform="translate(-0.21 -8.64)"/><path class="cls-1" d="M811.18,132.06a3.44,3.44,0,0,0,3.69,3.74,7.23,7.23,0,0,0,3-.55l.34,1.39a8.72,8.72,0,0,1-3.59.68c-3.31,0-5.3-2.2-5.3-5.43s1.93-5.81,5.07-5.81c3.51,0,4.43,3.08,4.43,5.06a4.27,4.27,0,0,1-.07.92Zm5.74-1.41c0-1.23-.51-3.17-2.71-3.17-2,0-2.85,1.81-3,3.17Z" transform="translate(-0.21 -8.64)"/><path class="cls-1" d="M826,121.28h1.94V128H828a3.81,3.81,0,0,1,1.41-1.38,3.91,3.91,0,0,1,2-.54c1.45,0,3.75.88,3.75,4.6v6.41h-1.94v-6.2c0-1.74-.66-3.2-2.49-3.2a2.85,2.85,0,0,0-2.64,2,2.43,2.43,0,0,0-.14.93v6.51H826Z" transform="translate(-0.21 -8.64)"/><path class="cls-1" d="M844.28,137.09l-.18-1.36h-.05a4,4,0,0,1-3.3,1.6,3.07,3.07,0,0,1-3.29-3.09c0-2.6,2.31-4,6.47-4V130a2.21,2.21,0,0,0-2.45-2.48,5.24,5.24,0,0,0-2.8.8l-.45-1.3a6.83,6.83,0,0,1,3.56-.94c3.29,0,4.09,2.25,4.09,4.4v4a17,17,0,0,0,.16,2.58Zm-.31-5.5c-2.12,0-4.54.34-4.54,2.42a1.72,1.72,0,0,0,1.83,1.87,2.69,2.69,0,0,0,2.62-1.8,2,2,0,0,0,.09-.62Z" transform="translate(-0.21 -8.64)"/><path class="cls-1" d="M849,129.68c0-1.28,0-2.36-.09-3.36h1.72l.07,2.11h.07a3.26,3.26,0,0,1,3-2.35,2.26,2.26,0,0,1,.54,0V128a3.16,3.16,0,0,0-.66,0,2.73,2.73,0,0,0-2.62,2.5,5.34,5.34,0,0,0-.08.92v5.75h-2Z" transform="translate(-0.21 -8.64)"/><path class="cls-1" d="M865.38,121.28v13c0,1,0,2,.09,2.78h-1.74l-.1-1.86h0a4,4,0,0,1-3.65,2.1c-2.61,0-4.63-2.2-4.63-5.47,0-3.6,2.22-5.78,4.84-5.78a3.58,3.58,0,0,1,3.25,1.63h.05v-6.43Zm-1.94,9.42a3.91,3.91,0,0,0-.09-.83,2.89,2.89,0,0,0-2.83-2.26c-2,0-3.24,1.78-3.24,4.15,0,2.18,1.09,4,3.2,4a3,3,0,0,0,2.86-2.35,3.17,3.17,0,0,0,.1-.84Z" transform="translate(-0.21 -8.64)"/><path class="cls-1" d="M869.41,126.32l1.44,5.47c.31,1.2.59,2.32.8,3.43h.06c.24-1.08.59-2.25,1-3.42l1.76-5.48h1.65l1.67,5.39c.39,1.27.71,2.41,1,3.51h.06c.19-1.09.48-2.22.83-3.5l1.54-5.4h1.93l-3.48,10.77H877.8L876.17,132a32,32,0,0,1-1-3.55h0a31.33,31.33,0,0,1-1,3.57l-1.73,5.12h-1.79l-3.24-10.77Z" transform="translate(-0.21 -8.64)"/><path class="cls-1" d="M890.9,137.09l-.17-1.36h-.06a4,4,0,0,1-3.29,1.6,3.07,3.07,0,0,1-3.29-3.09c0-2.6,2.31-4,6.47-4V130a2.22,2.22,0,0,0-2.45-2.48,5.31,5.31,0,0,0-2.81.8l-.44-1.3a6.8,6.8,0,0,1,3.55-.94c3.29,0,4.09,2.25,4.09,4.4v4a16.92,16.92,0,0,0,.17,2.58Zm-.3-5.5c-2.12,0-4.55.34-4.55,2.42a1.73,1.73,0,0,0,1.83,1.87,2.68,2.68,0,0,0,2.62-1.8,2,2,0,0,0,.1-.62Z" transform="translate(-0.21 -8.64)"/><path class="cls-1" d="M895.66,129.68c0-1.28,0-2.36-.09-3.36h1.71l.08,2.11h.07a3.26,3.26,0,0,1,3-2.35,2.34,2.34,0,0,1,.55,0V128a3.33,3.33,0,0,0-.67,0,2.74,2.74,0,0,0-2.62,2.5,5.34,5.34,0,0,0-.08.92v5.75h-1.94Z" transform="translate(-0.21 -8.64)"/><path class="cls-1" d="M903.81,132.06a3.44,3.44,0,0,0,3.69,3.74,7.26,7.26,0,0,0,3-.55l.34,1.39a8.76,8.76,0,0,1-3.59.68c-3.31,0-5.3-2.2-5.3-5.43s1.92-5.81,5.07-5.81c3.51,0,4.43,3.08,4.43,5.06a5,5,0,0,1-.07.92Zm5.73-1.41c0-1.23-.5-3.17-2.7-3.17-2,0-2.85,1.81-3,3.17Z" transform="translate(-0.21 -8.64)"/><path class="cls-1" d="M2.34,153l2.35,6.36c.25.71.52,1.56.69,2.2h.06c.19-.63.43-1.46.68-2.24L8.25,153h2.08L7.38,160.7C6,164.4,5,166.28,3.7,167.45a5.49,5.49,0,0,1-2.4,1.26l-.49-1.64a4.91,4.91,0,0,0,1.71-1,6,6,0,0,0,1.64-2.18,1.13,1.13,0,0,0,.15-.47,1.34,1.34,0,0,0-.13-.5L.21,153Z" transform="translate(-0.21 -8.64)"/><path class="cls-1" d="M16.55,161.8a5.32,5.32,0,0,0,2.6.77c1.43,0,2.09-.7,2.09-1.61s-.57-1.43-2-2c-1.95-.7-2.87-1.76-2.86-3.05,0-1.73,1.41-3.16,3.72-3.16a5.17,5.17,0,0,1,2.64.67l-.49,1.42a4.21,4.21,0,0,0-2.21-.63c-1.15,0-1.78.66-1.78,1.47s.63,1.29,2,1.84c1.86.69,2.82,1.63,2.83,3.24,0,1.9-1.48,3.24-4,3.24a6.15,6.15,0,0,1-3-.75Z" transform="translate(-0.21 -8.64)"/><path class="cls-1" d="M35.39,158.31c0,4-2.77,5.73-5.36,5.73-2.92,0-5.17-2.13-5.17-5.55,0-3.6,2.37-5.71,5.34-5.71S35.39,155,35.39,158.31Zm-8.54.12c0,2.37,1.35,4.14,3.26,4.14s3.28-1.75,3.28-4.19c0-1.83-.91-4.13-3.24-4.13S26.85,156.39,26.85,158.43Z" transform="translate(-0.21 -8.64)"/><path class="cls-1" d="M38.05,163.79v-9.28h-1.5V153h1.5v-.52a5.16,5.16,0,0,1,1.25-3.77,3.77,3.77,0,0,1,2.62-1,4.14,4.14,0,0,1,1.67.32l-.26,1.5a3,3,0,0,0-1.25-.24c-1.66,0-2.09,1.46-2.09,3.13V153h2.6v1.48H40v9.28Z" transform="translate(-0.21 -8.64)"/><path class="cls-1" d="M47,149.93V153h2.82v1.48H47v5.8c0,1.35.39,2.1,1.48,2.1a3.93,3.93,0,0,0,1.14-.14l.09,1.49a5,5,0,0,1-1.75.27,2.77,2.77,0,0,1-2.12-.83,4.16,4.16,0,0,1-.76-2.81v-5.88H43.37V153H45v-2.6Z" transform="translate(-0.21 -8.64)"/><path class="cls-1" d="M52.93,153l1.45,5.46c.31,1.2.58,2.33.8,3.44h0c.24-1.09.6-2.26,1-3.42L58,153h1.65l1.67,5.38c.39,1.28.7,2.42.95,3.52h.05c.2-1.09.49-2.23.84-3.5l1.54-5.4h1.93l-3.48,10.76H61.33l-1.63-5.13a32.56,32.56,0,0,1-1-3.55h0a33.34,33.34,0,0,1-1,3.56L56,163.79H54.19L50.94,153Z" transform="translate(-0.21 -8.64)"/><path class="cls-1" d="M74.43,163.79l-.17-1.35H74.2a4,4,0,0,1-3.3,1.6A3.06,3.06,0,0,1,67.62,161c0-2.61,2.31-4,6.47-4v-.23a2.22,2.22,0,0,0-2.45-2.48,5.28,5.28,0,0,0-2.81.8l-.44-1.3a6.71,6.71,0,0,1,3.55-.95c3.29,0,4.09,2.25,4.09,4.41v4a15.53,15.53,0,0,0,.17,2.57Zm-.31-5.49c-2.11-.05-4.54.33-4.54,2.41a1.73,1.73,0,0,0,1.83,1.88,2.68,2.68,0,0,0,2.62-1.8,2,2,0,0,0,.09-.62Z" transform="translate(-0.21 -8.64)"/><path class="cls-1" d="M79.18,156.38c0-1.27,0-2.35-.09-3.35h1.72l.07,2.11H81a3.28,3.28,0,0,1,3-2.36,2.38,2.38,0,0,1,.55.06v1.84a3.26,3.26,0,0,0-.67-.06,2.74,2.74,0,0,0-2.62,2.51,5.14,5.14,0,0,0-.08.91v5.75H79.18Z" transform="translate(-0.21 -8.64)"/><path class="cls-1" d="M87.34,158.77A3.43,3.43,0,0,0,91,162.5a7.23,7.23,0,0,0,3-.55l.35,1.39a8.58,8.58,0,0,1-3.6.69c-3.3,0-5.29-2.2-5.29-5.44s1.92-5.81,5.06-5.81c3.52,0,4.43,3.09,4.43,5.07a5.3,5.3,0,0,1-.06.92Zm5.73-1.41c0-1.24-.51-3.17-2.7-3.17-2,0-2.85,1.8-3,3.17Z" transform="translate(-0.21 -8.64)"/><path class="cls-1" d="M109.46,162.14h-.06a3.83,3.83,0,0,1-3.51,1.9c-2.52,0-4.56-2.17-4.56-5.45,0-4,2.6-5.81,4.87-5.81a3.53,3.53,0,0,1,3.32,1.87h0l.07-1.62h1.86c0,.89-.09,1.83-.09,3V168.2h-1.94Zm0-4.76a3.53,3.53,0,0,0-.09-.81,2.9,2.9,0,0,0-2.82-2.24c-2,0-3.25,1.73-3.25,4.14,0,2.15,1,4,3.19,4a2.93,2.93,0,0,0,2.81-2.13,3,3,0,0,0,.16-.94Z" transform="translate(-0.21 -8.64)"/><path class="cls-1" d="M123.64,160.85c0,1.13,0,2.09.09,2.94H122l-.1-1.76h-.06a4,4,0,0,1-3.56,2c-1.69,0-3.71-.94-3.71-4.72V153h2V159c0,2.05.64,3.44,2.4,3.44a2.86,2.86,0,0,0,2.6-1.79,3,3,0,0,0,.17-1V153h2Z" transform="translate(-0.21 -8.64)"/><path class="cls-1" d="M128,158.77a3.43,3.43,0,0,0,3.68,3.73,7.23,7.23,0,0,0,3-.55l.35,1.39a8.62,8.62,0,0,1-3.6.69c-3.3,0-5.29-2.2-5.29-5.44s1.92-5.81,5.06-5.81c3.52,0,4.43,3.09,4.43,5.07a5.3,5.3,0,0,1-.06.92Zm5.73-1.41c0-1.24-.51-3.17-2.7-3.17-2,0-2.85,1.8-3,3.17Z" transform="translate(-0.21 -8.64)"/><path class="cls-1" d="M142.77,155.94c0-1.13,0-2-.09-2.91h1.7l.1,1.73h.06a3.72,3.72,0,0,1,3.4-2,3.16,3.16,0,0,1,3,2.16H151a4.34,4.34,0,0,1,1.21-1.4,3.68,3.68,0,0,1,2.37-.76c1.44,0,3.56.93,3.56,4.68v6.33h-1.92v-6.08c0-2.09-.76-3.32-2.33-3.32a2.54,2.54,0,0,0-2.33,1.76,3,3,0,0,0-.16,1v6.66h-1.91v-6.46c0-1.71-.76-2.94-2.24-2.94a2.7,2.7,0,0,0-2.44,2,3,3,0,0,0-.15,1v6.49h-1.91Z" transform="translate(-0.21 -8.64)"/><path class="cls-1" d="M163.52,150a1.18,1.18,0,0,1-1.25,1.21,1.16,1.16,0,0,1-1.18-1.21,1.19,1.19,0,0,1,1.22-1.22A1.17,1.17,0,0,1,163.52,150Zm-2.19,13.8V153h1.95v10.76Z" transform="translate(-0.21 -8.64)"/><path class="cls-1" d="M175.83,148v13c0,1,0,2,.09,2.77h-1.74l-.1-1.86H174a3.94,3.94,0,0,1-3.66,2.11c-2.6,0-4.62-2.21-4.62-5.47,0-3.6,2.22-5.79,4.84-5.79a3.6,3.6,0,0,1,3.25,1.64h0V148Zm-2,9.42a4,4,0,0,0-.08-.84,2.89,2.89,0,0,0-2.83-2.25c-2,0-3.24,1.78-3.24,4.14,0,2.19,1.08,4,3.2,4a3,3,0,0,0,2.86-2.35,3.23,3.23,0,0,0,.09-.84Z" transform="translate(-0.21 -8.64)"/><path class="cls-1" d="M180.19,158.77a3.43,3.43,0,0,0,3.68,3.73,7.23,7.23,0,0,0,3-.55l.35,1.39a8.62,8.62,0,0,1-3.6.69c-3.31,0-5.29-2.2-5.29-5.44s1.92-5.81,5.06-5.81c3.51,0,4.43,3.09,4.43,5.07a5.3,5.3,0,0,1-.06.92Zm5.73-1.41c0-1.24-.51-3.17-2.7-3.17-2,0-2.85,1.8-3,3.17Z" transform="translate(-0.21 -8.64)"/><path class="cls-1" d="M190.24,155.94c0-1.13,0-2-.09-2.91h1.73l.11,1.77h0a4,4,0,0,1,3.56-2c1.48,0,3.8.89,3.8,4.59v6.42h-2v-6.2c0-1.74-.66-3.2-2.49-3.2a2.82,2.82,0,0,0-2.64,2,3.12,3.12,0,0,0-.13.91v6.48h-1.95Z" transform="translate(-0.21 -8.64)"/><path class="cls-1" d="M208.41,158.77a3.43,3.43,0,0,0,3.68,3.73,7.23,7.23,0,0,0,3-.55l.34,1.39a8.53,8.53,0,0,1-3.59.69c-3.31,0-5.3-2.2-5.3-5.44s1.93-5.81,5.07-5.81c3.51,0,4.43,3.09,4.43,5.07a5.3,5.3,0,0,1-.06.92Zm5.73-1.41c0-1.24-.51-3.17-2.71-3.17-2,0-2.85,1.8-3,3.17Z" transform="translate(-0.21 -8.64)"/><path class="cls-1" d="M225.36,150a1.21,1.21,0,1,1-2.42,0,1.19,1.19,0,0,1,1.21-1.22A1.17,1.17,0,0,1,225.36,150Zm-2.18,13.8V153h1.94v10.76Z" transform="translate(-0.21 -8.64)"/><path class="cls-1" d="M228.38,155.94c0-1.13,0-2-.09-2.91H230l.1,1.77h.06a4,4,0,0,1,3.56-2c1.48,0,3.79.89,3.79,4.59v6.42h-1.95v-6.2c0-1.74-.65-3.2-2.48-3.2a2.81,2.81,0,0,0-2.64,2,3.11,3.11,0,0,0-.14.91v6.48h-2Z" transform="translate(-0.21 -8.64)"/><path class="cls-1" d="M240.93,163.79v-9.28h-1.51V153h1.51v-.52a5.16,5.16,0,0,1,1.25-3.77,3.75,3.75,0,0,1,2.62-1,4.18,4.18,0,0,1,1.67.32l-.26,1.5a3,3,0,0,0-1.26-.24c-1.65,0-2.08,1.46-2.08,3.13V153h2.6v1.48h-2.59v9.28Z" transform="translate(-0.21 -8.64)"/><path class="cls-1" d="M256.69,158.31c0,4-2.77,5.73-5.35,5.73-2.92,0-5.18-2.13-5.18-5.55,0-3.6,2.37-5.71,5.35-5.71S256.69,155,256.69,158.31Zm-8.54.12c0,2.37,1.36,4.14,3.27,4.14s3.28-1.75,3.28-4.19c0-1.83-.92-4.13-3.25-4.13S248.15,156.39,248.15,158.43Z" transform="translate(-0.21 -8.64)"/><path class="cls-1" d="M259.16,156.38c0-1.27,0-2.35-.09-3.35h1.72l.07,2.11h.07a3.27,3.27,0,0,1,3-2.36,2.29,2.29,0,0,1,.54.06v1.84a3.16,3.16,0,0,0-.66-.06,2.73,2.73,0,0,0-2.62,2.51,5.14,5.14,0,0,0-.08.91v5.75h-1.95Z" transform="translate(-0.21 -8.64)"/><path class="cls-1" d="M266.53,155.94c0-1.13,0-2-.09-2.91h1.7l.11,1.73h.05a3.72,3.72,0,0,1,3.4-2,3.16,3.16,0,0,1,3,2.16h0a4.34,4.34,0,0,1,1.21-1.4,3.68,3.68,0,0,1,2.37-.76c1.44,0,3.56.93,3.56,4.68v6.33H280v-6.08c0-2.09-.76-3.32-2.33-3.32a2.54,2.54,0,0,0-2.33,1.76,3.3,3.3,0,0,0-.16,1v6.66h-1.91v-6.46c0-1.71-.76-2.94-2.24-2.94a2.71,2.71,0,0,0-2.44,2,3,3,0,0,0-.15,1v6.49h-1.91Z" transform="translate(-0.21 -8.64)"/><path class="cls-1" d="M291.06,163.79l-.17-1.35h-.06a4,4,0,0,1-3.29,1.6,3.07,3.07,0,0,1-3.29-3.09c0-2.61,2.31-4,6.47-4v-.23a2.22,2.22,0,0,0-2.45-2.48,5.28,5.28,0,0,0-2.81.8l-.44-1.3a6.71,6.71,0,0,1,3.55-.95c3.29,0,4.09,2.25,4.09,4.41v4a16.69,16.69,0,0,0,.17,2.57Zm-.3-5.49c-2.12-.05-4.55.33-4.55,2.41a1.73,1.73,0,0,0,1.83,1.88,2.68,2.68,0,0,0,2.62-1.8,2,2,0,0,0,.1-.62Z" transform="translate(-0.21 -8.64)"/><path class="cls-1" d="M295.82,155.94c0-1.13,0-2-.09-2.91h1.73l.11,1.77h.05a4,4,0,0,1,3.56-2c1.48,0,3.8.89,3.8,4.59v6.42h-2v-6.2c0-1.74-.66-3.2-2.49-3.2a2.81,2.81,0,0,0-2.64,2,3.12,3.12,0,0,0-.13.91v6.48h-1.95Z" transform="translate(-0.21 -8.64)"/><path class="cls-1" d="M312.89,148h1.95v15.8h-1.95Z" transform="translate(-0.21 -8.64)"/><path class="cls-1" d="M324.11,163.79l-.17-1.35h-.06a4,4,0,0,1-3.3,1.6,3.07,3.07,0,0,1-3.29-3.09c0-2.61,2.32-4,6.48-4v-.23a2.22,2.22,0,0,0-2.46-2.48,5.24,5.24,0,0,0-2.8.8l-.44-1.3a6.71,6.71,0,0,1,3.55-.95c3.29,0,4.09,2.25,4.09,4.41v4a15.53,15.53,0,0,0,.17,2.57Zm-.31-5.49c-2.11-.05-4.54.33-4.54,2.41a1.72,1.72,0,0,0,1.83,1.88,2.69,2.69,0,0,0,2.62-1.8,2,2,0,0,0,.09-.62Z" transform="translate(-0.21 -8.64)"/><path class="cls-1" d="M333.58,148h1.95v15.8h-1.95Z" transform="translate(-0.21 -8.64)"/><path class="cls-1" d="M339.93,158.77a3.44,3.44,0,0,0,3.69,3.73,7.23,7.23,0,0,0,3-.55l.34,1.39a8.53,8.53,0,0,1-3.59.69c-3.31,0-5.3-2.2-5.3-5.44s1.92-5.81,5.07-5.81c3.51,0,4.43,3.09,4.43,5.07a4.33,4.33,0,0,1-.07.92Zm5.73-1.41c0-1.24-.5-3.17-2.7-3.17-2,0-2.85,1.8-3,3.17Z" transform="translate(-0.21 -8.64)"/><path class="cls-1" d="M350.69,153l2.36,6.36c.25.71.51,1.56.69,2.2h.05c.2-.63.43-1.46.69-2.24l2.13-6.32h2.08l-2.95,7.67c-1.39,3.7-2.35,5.58-3.69,6.75a5.39,5.39,0,0,1-2.4,1.26l-.48-1.64a5,5,0,0,0,1.71-1,6,6,0,0,0,1.64-2.18,1.13,1.13,0,0,0,.15-.47,1.34,1.34,0,0,0-.13-.5l-4-9.93Z" transform="translate(-0.21 -8.64)"/><path class="cls-1" d="M365.89,153l2.36,6.36c.25.71.51,1.56.69,2.2H369c.2-.63.43-1.46.69-2.24l2.13-6.32h2.08l-2.95,7.67c-1.39,3.7-2.35,5.58-3.69,6.75a5.39,5.39,0,0,1-2.4,1.26l-.48-1.64a4.91,4.91,0,0,0,1.71-1,6,6,0,0,0,1.64-2.18,1.13,1.13,0,0,0,.15-.47,1.34,1.34,0,0,0-.13-.5l-4-9.93Z" transform="translate(-0.21 -8.64)"/><path class="cls-1" d="M380.39,148h1.94v15.8h-1.94Z" transform="translate(-0.21 -8.64)"/><path class="cls-1" d="M391.61,163.79l-.17-1.35h-.06a4,4,0,0,1-3.3,1.6,3.07,3.07,0,0,1-3.29-3.09c0-2.61,2.32-4,6.47-4v-.23a2.21,2.21,0,0,0-2.45-2.48,5.24,5.24,0,0,0-2.8.8l-.45-1.3a6.77,6.77,0,0,1,3.56-.95c3.29,0,4.09,2.25,4.09,4.41v4a16.78,16.78,0,0,0,.16,2.57Zm-.31-5.49c-2.12-.05-4.54.33-4.54,2.41a1.72,1.72,0,0,0,1.83,1.88,2.69,2.69,0,0,0,2.62-1.8,2,2,0,0,0,.09-.62Z" transform="translate(-0.21 -8.64)"/><path class="cls-1" d="M396.09,161.8a5.32,5.32,0,0,0,2.59.77c1.43,0,2.1-.7,2.1-1.61s-.57-1.43-2-2c-1.95-.7-2.87-1.76-2.87-3.05,0-1.73,1.41-3.16,3.73-3.16a5.19,5.19,0,0,1,2.64.67l-.49,1.42a4.21,4.21,0,0,0-2.21-.63c-1.16,0-1.78.66-1.78,1.47s.63,1.29,2,1.84c1.86.69,2.82,1.63,2.83,3.24,0,1.9-1.49,3.24-4,3.24a6.22,6.22,0,0,1-3-.75Z" transform="translate(-0.21 -8.64)"/><path class="cls-1" d="M417.57,163.41a7.45,7.45,0,0,1-3.09.62,5.13,5.13,0,0,1-5.37-5.5,5.49,5.49,0,0,1,5.79-5.74,6.35,6.35,0,0,1,2.72.57l-.44,1.5a4.83,4.83,0,0,0-2.29-.51c-2.45,0-3.8,1.84-3.8,4.07a3.7,3.7,0,0,0,3.75,4,5.85,5.85,0,0,0,2.4-.51Z" transform="translate(-0.21 -8.64)"/><path class="cls-1" d="M425.86,163.79l-.17-1.35h-.06a4,4,0,0,1-3.3,1.6A3.07,3.07,0,0,1,419,161c0-2.61,2.32-4,6.47-4v-.23a2.21,2.21,0,0,0-2.45-2.48,5.24,5.24,0,0,0-2.8.8l-.45-1.3a6.77,6.77,0,0,1,3.56-.95c3.29,0,4.09,2.25,4.09,4.41v4a16.78,16.78,0,0,0,.16,2.57Zm-.31-5.49c-2.12-.05-4.54.33-4.54,2.41a1.72,1.72,0,0,0,1.83,1.88,2.69,2.69,0,0,0,2.62-1.8,2,2,0,0,0,.09-.62Z" transform="translate(-0.21 -8.64)"/><path class="cls-1" d="M430.61,156.38c0-1.27,0-2.35-.09-3.35h1.72l.07,2.11h.07a3.28,3.28,0,0,1,3-2.36,2.38,2.38,0,0,1,.55.06v1.84a3.26,3.26,0,0,0-.67-.06,2.74,2.74,0,0,0-2.62,2.51,5.14,5.14,0,0,0-.08.91v5.75h-1.95Z" transform="translate(-0.21 -8.64)"/><path class="cls-1" d="M443.75,163.79l-.17-1.35h-.06a4,4,0,0,1-3.29,1.6,3.07,3.07,0,0,1-3.29-3.09c0-2.61,2.31-4,6.47-4v-.23a2.22,2.22,0,0,0-2.45-2.48,5.31,5.31,0,0,0-2.81.8l-.44-1.3a6.71,6.71,0,0,1,3.55-.95c3.29,0,4.09,2.25,4.09,4.41v4a16.69,16.69,0,0,0,.17,2.57Zm-.3-5.49c-2.12-.05-4.55.33-4.55,2.41a1.73,1.73,0,0,0,1.83,1.88,2.68,2.68,0,0,0,2.62-1.8,2,2,0,0,0,.1-.62Z" transform="translate(-0.21 -8.64)"/><path class="cls-1" d="M456.19,163.41a7.5,7.5,0,0,1-3.09.62,5.13,5.13,0,0,1-5.38-5.5,5.49,5.49,0,0,1,5.79-5.74,6.35,6.35,0,0,1,2.72.57l-.43,1.5a4.87,4.87,0,0,0-2.29-.51,3.73,3.73,0,0,0-3.8,4.07,3.69,3.69,0,0,0,3.75,4,5.89,5.89,0,0,0,2.4-.51Z" transform="translate(-0.21 -8.64)"/><path class="cls-1" d="M461.12,149.93V153h2.81v1.48h-2.81v5.8c0,1.35.38,2.1,1.48,2.1a3.8,3.8,0,0,0,1.13-.14l.09,1.49a5,5,0,0,1-1.75.27,2.74,2.74,0,0,1-2.11-.83,4.11,4.11,0,0,1-.76-2.81v-5.88h-1.67V153h1.67v-2.6Z" transform="translate(-0.21 -8.64)"/><path class="cls-1" d="M467.1,158.77a3.43,3.43,0,0,0,3.68,3.73,7.23,7.23,0,0,0,3-.55l.35,1.39a8.58,8.58,0,0,1-3.6.69c-3.3,0-5.29-2.2-5.29-5.44s1.92-5.81,5.06-5.81c3.52,0,4.43,3.09,4.43,5.07a5.3,5.3,0,0,1-.06.92Zm5.73-1.41c0-1.24-.51-3.17-2.7-3.17-2,0-2.85,1.8-3,3.17Z" transform="translate(-0.21 -8.64)"/><path class="cls-1" d="M477.15,156.38c0-1.27,0-2.35-.09-3.35h1.71l.08,2.11h.07a3.27,3.27,0,0,1,3-2.36,2.29,2.29,0,0,1,.54.06v1.84a3.26,3.26,0,0,0-.67-.06,2.75,2.75,0,0,0-2.62,2.51,5.17,5.17,0,0,0-.07.91v5.75h-2Z" transform="translate(-0.21 -8.64)"/><path class="cls-1" d="M488.48,148.36l-2.71,3.19h-1.39l1.95-3.19Zm-4,15.43V153h2v10.76Z" transform="translate(-0.21 -8.64)"/><path class="cls-1" d="M489.45,161.8a5.32,5.32,0,0,0,2.59.77c1.43,0,2.1-.7,2.1-1.61s-.57-1.43-2-2c-1.94-.7-2.86-1.76-2.86-3.05,0-1.73,1.41-3.16,3.73-3.16a5.19,5.19,0,0,1,2.64.67l-.49,1.42a4.24,4.24,0,0,0-2.21-.63c-1.16,0-1.78.66-1.78,1.47s.63,1.29,2,1.84c1.86.69,2.82,1.63,2.83,3.24,0,1.9-1.49,3.24-4,3.24a6.22,6.22,0,0,1-3-.75Z" transform="translate(-0.21 -8.64)"/><path class="cls-1" d="M500.89,149.93V153h2.81v1.48h-2.81v5.8c0,1.35.38,2.1,1.48,2.1a3.8,3.8,0,0,0,1.13-.14l.09,1.49a5,5,0,0,1-1.75.27,2.74,2.74,0,0,1-2.11-.83,4.11,4.11,0,0,1-.76-2.81v-5.88H497.3V153H499v-2.6Z" transform="translate(-0.21 -8.64)"/><path class="cls-1" d="M508.09,150a1.18,1.18,0,0,1-1.24,1.21,1.16,1.16,0,0,1-1.18-1.21,1.21,1.21,0,1,1,2.42,0Zm-2.18,13.8V153h1.94v10.76Z" transform="translate(-0.21 -8.64)"/><path class="cls-1" d="M518.79,163.41a7.5,7.5,0,0,1-3.09.62,5.13,5.13,0,0,1-5.37-5.5,5.48,5.48,0,0,1,5.78-5.74,6.28,6.28,0,0,1,2.72.57l-.43,1.5a4.83,4.83,0,0,0-2.29-.51c-2.46,0-3.8,1.84-3.8,4.07a3.69,3.69,0,0,0,3.75,4,5.89,5.89,0,0,0,2.4-.51Z" transform="translate(-0.21 -8.64)"/><path class="cls-1" d="M527.07,163.79l-.17-1.35h-.06a4,4,0,0,1-3.29,1.6,3.07,3.07,0,0,1-3.29-3.09c0-2.61,2.31-4,6.47-4v-.23a2.21,2.21,0,0,0-2.45-2.48,5.24,5.24,0,0,0-2.8.8l-.45-1.3a6.73,6.73,0,0,1,3.55-.95c3.3,0,4.1,2.25,4.1,4.41v4a16.78,16.78,0,0,0,.16,2.57Zm-.3-5.49c-2.12-.05-4.54.33-4.54,2.41a1.72,1.72,0,0,0,1.82,1.88,2.7,2.7,0,0,0,2.63-1.8,2,2,0,0,0,.09-.62Z" transform="translate(-0.21 -8.64)"/><path class="cls-1" d="M531.55,161.8a5.32,5.32,0,0,0,2.6.77c1.43,0,2.09-.7,2.09-1.61s-.57-1.43-2-2c-1.94-.7-2.86-1.76-2.86-3.05,0-1.73,1.41-3.16,3.72-3.16a5.17,5.17,0,0,1,2.64.67l-.49,1.42a4.2,4.2,0,0,0-2.2-.63c-1.16,0-1.79.66-1.79,1.47s.64,1.29,2,1.84c1.85.69,2.82,1.63,2.82,3.24,0,1.9-1.48,3.24-4,3.24a6.22,6.22,0,0,1-3-.75Z" transform="translate(-0.21 -8.64)"/><path class="cls-1" d="M554.66,148v13c0,1,0,2,.08,2.77H553l-.1-1.86h0A3.93,3.93,0,0,1,549.2,164c-2.61,0-4.62-2.21-4.62-5.47,0-3.6,2.21-5.79,4.84-5.79a3.58,3.58,0,0,1,3.24,1.64h.05V148Zm-1.95,9.42a4,4,0,0,0-.08-.84,2.9,2.9,0,0,0-2.84-2.25c-2,0-3.24,1.78-3.24,4.14,0,2.19,1.09,4,3.2,4a3,3,0,0,0,2.86-2.35,3.22,3.22,0,0,0,.1-.84Z" transform="translate(-0.21 -8.64)"/><path class="cls-1" d="M559,158.77a3.44,3.44,0,0,0,3.69,3.73,7.26,7.26,0,0,0,3-.55l.34,1.39a8.56,8.56,0,0,1-3.59.69c-3.31,0-5.3-2.2-5.3-5.44s1.92-5.81,5.07-5.81c3.51,0,4.43,3.09,4.43,5.07a5.12,5.12,0,0,1-.07.92Zm5.73-1.41c0-1.24-.5-3.17-2.7-3.17-2,0-2.85,1.8-3,3.17Z" transform="translate(-0.21 -8.64)"/><path class="cls-1" d="M569.06,148h2v15.8h-2Z" transform="translate(-0.21 -8.64)"/><path class="cls-1" d="M579,155.94c0-1.13,0-2-.09-2.91h1.7l.1,1.73h0a3.73,3.73,0,0,1,3.4-2,3.17,3.17,0,0,1,3,2.16h0a4.36,4.36,0,0,1,1.22-1.4,3.66,3.66,0,0,1,2.37-.76c1.43,0,3.55.93,3.55,4.68v6.33h-1.91v-6.08c0-2.09-.77-3.32-2.34-3.32a2.55,2.55,0,0,0-2.33,1.76,3.3,3.3,0,0,0-.16,1v6.66h-1.91v-6.46c0-1.71-.76-2.94-2.23-2.94a2.72,2.72,0,0,0-2.45,2,3.32,3.32,0,0,0-.14,1v6.49H579Z" transform="translate(-0.21 -8.64)"/><path class="cls-1" d="M599.78,150a1.21,1.21,0,1,1-2.42,0,1.21,1.21,0,1,1,2.42,0Zm-2.18,13.8V153h1.94v10.76Z" transform="translate(-0.21 -8.64)"/><path class="cls-1" d="M602.8,155.94c0-1.13,0-2-.09-2.91h1.73l.11,1.77h.06a4,4,0,0,1,3.56-2c1.48,0,3.79.89,3.79,4.59v6.42h-2v-6.2c0-1.74-.65-3.2-2.49-3.2a2.9,2.9,0,0,0-2.77,2.92v6.48h-2Z" transform="translate(-0.21 -8.64)"/><path class="cls-1" d="M616.25,158.77a3.44,3.44,0,0,0,3.69,3.73,7.26,7.26,0,0,0,3-.55l.34,1.39a8.53,8.53,0,0,1-3.59.69c-3.31,0-5.3-2.2-5.3-5.44s1.92-5.81,5.07-5.81c3.51,0,4.43,3.09,4.43,5.07a5.12,5.12,0,0,1-.07.92Zm5.73-1.41c0-1.24-.5-3.17-2.7-3.17-2,0-2.85,1.8-3,3.17Z" transform="translate(-0.21 -8.64)"/><path class="cls-1" d="M626.3,156.38c0-1.27,0-2.35-.09-3.35h1.72l.07,2.11h.07a3.27,3.27,0,0,1,3-2.36,2.23,2.23,0,0,1,.54.06v1.84a3.1,3.1,0,0,0-.66-.06,2.73,2.73,0,0,0-2.62,2.51,5.14,5.14,0,0,0-.08.91v5.75h-2Z" transform="translate(-0.21 -8.64)"/><path class="cls-1" d="M639.44,163.79l-.17-1.35h-.06a4,4,0,0,1-3.29,1.6,3.07,3.07,0,0,1-3.29-3.09c0-2.61,2.31-4,6.47-4v-.23a2.22,2.22,0,0,0-2.45-2.48,5.28,5.28,0,0,0-2.81.8l-.44-1.3a6.71,6.71,0,0,1,3.55-.95c3.29,0,4.09,2.25,4.09,4.41v4a15.53,15.53,0,0,0,.17,2.57Zm-.3-5.49c-2.12-.05-4.55.33-4.55,2.41a1.73,1.73,0,0,0,1.83,1.88,2.68,2.68,0,0,0,2.62-1.8,2,2,0,0,0,.1-.62Z" transform="translate(-0.21 -8.64)"/><path class="cls-1" d="M644.2,148h1.95v15.8H644.2Z" transform="translate(-0.21 -8.64)"/><path class="cls-1" d="M655.26,158.77A3.44,3.44,0,0,0,659,162.5a7.23,7.23,0,0,0,3-.55l.34,1.39a8.53,8.53,0,0,1-3.59.69c-3.31,0-5.3-2.2-5.3-5.44s1.93-5.81,5.07-5.81c3.51,0,4.43,3.09,4.43,5.07a4.33,4.33,0,0,1-.07.92Zm5.73-1.41c0-1.24-.5-3.17-2.7-3.17-2,0-2.85,1.8-3,3.17Z" transform="translate(-0.21 -8.64)"/><path class="cls-1" d="M665.32,155.94c0-1.13,0-2-.09-2.91H667l.11,1.77h0a4,4,0,0,1,3.56-2c1.48,0,3.79.89,3.79,4.59v6.42h-1.94v-6.2c0-1.74-.66-3.2-2.49-3.2a2.81,2.81,0,0,0-2.64,2,3.12,3.12,0,0,0-.13.91v6.48h-1.95Z" transform="translate(-0.21 -8.64)"/><path class="cls-1" d="M684.74,149.93V153h2.81v1.48h-2.81v5.8c0,1.35.38,2.1,1.48,2.1a3.9,3.9,0,0,0,1.13-.14l.09,1.49a5,5,0,0,1-1.75.27,2.73,2.73,0,0,1-2.11-.83,4.11,4.11,0,0,1-.76-2.81v-5.88h-1.67V153h1.67v-2.6Z" transform="translate(-0.21 -8.64)"/><path class="cls-1" d="M691.94,150a1.22,1.22,0,1,1-1.21-1.22A1.18,1.18,0,0,1,691.94,150Zm-2.19,13.8V153h2v10.76Z" transform="translate(-0.21 -8.64)"/><path class="cls-1" d="M696.06,158.77a3.43,3.43,0,0,0,3.68,3.73,7.23,7.23,0,0,0,3-.55l.35,1.39a8.62,8.62,0,0,1-3.6.69c-3.3,0-5.29-2.2-5.29-5.44s1.92-5.81,5.06-5.81c3.51,0,4.43,3.09,4.43,5.07a5.3,5.3,0,0,1-.06.92Zm5.73-1.41c0-1.24-.51-3.17-2.7-3.17-2,0-2.85,1.8-3,3.17Z" transform="translate(-0.21 -8.64)"/><path class="cls-1" d="M706.11,155.94c0-1.13,0-2-.09-2.91h1.7l.11,1.73h0a3.72,3.72,0,0,1,3.4-2,3.16,3.16,0,0,1,3,2.16h.05a4.34,4.34,0,0,1,1.21-1.4,3.7,3.7,0,0,1,2.37-.76c1.44,0,3.56.93,3.56,4.68v6.33h-1.91v-6.08c0-2.09-.77-3.32-2.34-3.32a2.55,2.55,0,0,0-2.33,1.76,3.3,3.3,0,0,0-.16,1v6.66h-1.91v-6.46c0-1.71-.76-2.94-2.24-2.94a2.71,2.71,0,0,0-2.44,2,3,3,0,0,0-.15,1v6.49h-1.91Z" transform="translate(-0.21 -8.64)"/><path class="cls-1" d="M724.67,156.54c0-1.38,0-2.5-.09-3.51h1.75l.11,1.83h0a4.2,4.2,0,0,1,3.82-2.08c2.61,0,4.57,2.2,4.57,5.47,0,3.88-2.37,5.79-4.89,5.79a3.76,3.76,0,0,1-3.32-1.7h0v5.86h-1.94Zm1.94,2.87a3.44,3.44,0,0,0,.09.8,3,3,0,0,0,2.93,2.3c2.07,0,3.27-1.71,3.27-4.18,0-2.14-1.13-4-3.2-4a3.1,3.1,0,0,0-3,2.42,3.52,3.52,0,0,0-.13.79Z" transform="translate(-0.21 -8.64)"/><path class="cls-1" d="M747.1,158.31c0,4-2.76,5.73-5.35,5.73-2.92,0-5.18-2.13-5.18-5.55,0-3.6,2.37-5.71,5.35-5.71S747.1,155,747.1,158.31Zm-8.53.12c0,2.37,1.35,4.14,3.26,4.14s3.28-1.75,3.28-4.19c0-1.83-.92-4.13-3.25-4.13S738.57,156.39,738.57,158.43Z" transform="translate(-0.21 -8.64)"/><path class="cls-1" d="M754.29,156.38c0-1.27,0-2.35-.09-3.35h1.72l.07,2.11h.07a3.27,3.27,0,0,1,3-2.36,2.29,2.29,0,0,1,.54.06v1.84a3.16,3.16,0,0,0-.66-.06,2.73,2.73,0,0,0-2.62,2.51,5.14,5.14,0,0,0-.08.91v5.75h-2Z" transform="translate(-0.21 -8.64)"/><path class="cls-1" d="M762.44,158.77a3.44,3.44,0,0,0,3.69,3.73,7.23,7.23,0,0,0,3-.55l.34,1.39a8.53,8.53,0,0,1-3.59.69c-3.31,0-5.3-2.2-5.3-5.44s1.93-5.81,5.07-5.81c3.51,0,4.43,3.09,4.43,5.07a4.33,4.33,0,0,1-.07.92Zm5.73-1.41c0-1.24-.5-3.17-2.7-3.17-2,0-2.85,1.8-3,3.17Z" transform="translate(-0.21 -8.64)"/><path class="cls-1" d="M778.47,163.79l-.18-1.35h0a4,4,0,0,1-3.3,1.6,3.07,3.07,0,0,1-3.29-3.09c0-2.61,2.31-4,6.47-4v-.23a2.21,2.21,0,0,0-2.45-2.48,5.24,5.24,0,0,0-2.8.8l-.45-1.3a6.77,6.77,0,0,1,3.56-.95c3.29,0,4.09,2.25,4.09,4.41v4a16.78,16.78,0,0,0,.16,2.57Zm-.31-5.49c-2.12-.05-4.54.33-4.54,2.41a1.72,1.72,0,0,0,1.83,1.88,2.69,2.69,0,0,0,2.62-1.8,2,2,0,0,0,.09-.62Z" transform="translate(-0.21 -8.64)"/><path class="cls-1" d="M783.22,148h1.95v15.8h-1.95Z" transform="translate(-0.21 -8.64)"/><path class="cls-1" d="M787.79,162.64a1.32,1.32,0,0,1,1.33-1.41,1.41,1.41,0,1,1-1.33,1.41Z" transform="translate(-0.21 -8.64)"/></g></g></svg>