<svg xmlns="http://www.w3.org/2000/svg" viewBox="0 0 333.18 106.1"><defs><style>.cls-1{fill:#1d1d1b;}.cls-2{fill:#f29100;}</style></defs><title>Asset 34shovel ing</title><g id="Layer_2" data-name="Layer 2"><g id="Layer_7" data-name="Layer 7"><path class="cls-1" d="M45.92,22.33a7,7,0,0,0,3.23.83c2,0,3.14-1.19,3.14-2.89s-1-2.63-2.73-3.81c-2.3-1.47-3.92-3.54-3.92-5.79,0-3.26,2.21-5.82,6.09-5.82a6.29,6.29,0,0,1,3.11.75l-.61,2.83a4.71,4.71,0,0,0-2.57-.71,2.53,2.53,0,0,0-2.77,2.52c0,1.62.84,2.35,3,3.72,2.64,1.71,3.69,3.73,3.69,6,0,3.72-2.68,6.1-6.4,6.1a7.94,7.94,0,0,1-3.77-.87Z" transform="translate(0 -3.06)"/><path class="cls-1" d="M58,4.48h3.3V12.4h.06a4.41,4.41,0,0,1,1.29-1.29,3.79,3.79,0,0,1,2-.54c2.38,0,3.7,2,3.7,5.78v9.5H65V16.46c0-1.63-.33-3.12-1.73-3.12-.87,0-1.57.58-1.9,1.86a6.38,6.38,0,0,0-.13,1.13v9.52H58Z" transform="translate(0 -3.06)"/><path class="cls-1" d="M81.58,18.29c0,6.07-3.13,7.8-5.41,7.8-3.19,0-5.37-2.66-5.37-7.72,0-5.44,2.67-7.8,5.48-7.8C79.43,10.57,81.58,13.34,81.58,18.29Zm-7.49,0c0,2.53.43,5.24,2.18,5.24s2-3,2-5.24-.38-5.2-2.08-5.2S74.09,16.13,74.09,18.31Z" transform="translate(0 -3.06)"/><path class="cls-1" d="M86,10.81l1.49,7.49c.21,1.19.44,2.54.64,4h.08c.17-1.4.4-2.67.61-4l1.47-7.49h3.25l-4,15h-3l-4-15Z" transform="translate(0 -3.06)"/><path class="cls-1" d="M97.54,19.21c0,3.36,1.59,4.28,3.35,4.28a6.84,6.84,0,0,0,2.69-.54l.47,2.38a9.59,9.59,0,0,1-3.76.7c-3.88,0-6-2.81-6-7.46,0-5,2.38-8,5.6-8s4.75,2.85,4.75,6.88a11.87,11.87,0,0,1-.09,1.76Zm4.09-2.34c0-2.41-.77-3.85-1.94-3.85-1.43,0-2.07,2.09-2.14,3.85Z" transform="translate(0 -3.06)"/><path class="cls-1" d="M107.08,4.48h3.3V25.85h-3.3Z" transform="translate(0 -3.06)"/><path class="cls-1" d="M113.39,22.33a7,7,0,0,0,3.23.83c2,0,3.14-1.19,3.14-2.89s-1-2.63-2.73-3.81c-2.3-1.47-3.92-3.54-3.92-5.79,0-3.26,2.21-5.82,6.1-5.82a6.35,6.35,0,0,1,3.11.75l-.62,2.83a4.68,4.68,0,0,0-2.57-.71,2.52,2.52,0,0,0-2.76,2.52c0,1.62.83,2.35,2.95,3.72,2.65,1.71,3.7,3.73,3.7,6,0,3.72-2.68,6.1-6.4,6.1a8,8,0,0,1-3.78-.87Z" transform="translate(0 -3.06)"/><path class="cls-1" d="M128.14,19.21c0,3.36,1.59,4.28,3.35,4.28a6.86,6.86,0,0,0,2.7-.54l.46,2.38a9.55,9.55,0,0,1-3.76.7c-3.88,0-6-2.81-6-7.46,0-5,2.39-8,5.6-8s4.75,2.85,4.75,6.88a14,14,0,0,1-.08,1.76Zm4.09-2.34c0-2.41-.77-3.85-1.94-3.85-1.43,0-2.07,2.09-2.14,3.85Z" transform="translate(0 -3.06)"/><path class="cls-1" d="M137.68,15.05c0-1.7-.07-2.91-.12-4.24h2.86l.16,1.77h.07a4.05,4.05,0,0,1,3.55-2c2.51,0,3.84,1.94,3.84,5.43v9.85h-3.3V16.31c0-1.5-.31-3-1.75-3-.82,0-1.55.63-1.84,1.84a5,5,0,0,0-.17,1.37v9.3h-3.3Z" transform="translate(0 -3.06)"/><path class="cls-1" d="M150.83,22.73a5.29,5.29,0,0,0,2.6.79,1.66,1.66,0,0,0,1.89-1.72c0-.94-.44-1.56-1.83-2.44-2.24-1.33-3.05-2.77-3.05-4.3a4.38,4.38,0,0,1,4.6-4.49,5.91,5.91,0,0,1,2.88.73l-.67,2.43a3.84,3.84,0,0,0-2.06-.64,1.55,1.55,0,0,0-1.7,1.57c0,.81.37,1.28,1.81,2.2,2,1.2,3.07,2.68,3.07,4.56,0,3-2.14,4.61-5,4.61a5.92,5.92,0,0,1-3.22-.86Z" transform="translate(0 -3.06)"/><path class="cls-1" d="M163.22,19.21c0,3.36,1.59,4.28,3.35,4.28a6.86,6.86,0,0,0,2.7-.54l.46,2.38A9.55,9.55,0,0,1,166,26c-3.88,0-6-2.81-6-7.46,0-5,2.39-8,5.6-8s4.75,2.85,4.75,6.88a14,14,0,0,1-.08,1.76Zm4.09-2.34c0-2.41-.77-3.85-1.94-3.85-1.43,0-2.07,2.09-2.14,3.85Z" transform="translate(0 -3.06)"/><path class="cls-1" d="M182.91,9.76a5.2,5.2,0,1,1-5.18-5.07A5.08,5.08,0,0,1,182.91,9.76Zm-9.11,0a3.92,3.92,0,0,0,4,4,3.88,3.88,0,0,0,3.86-4,3.91,3.91,0,1,0-7.82,0Zm3.12,2.65h-1.17V7.35a9.59,9.59,0,0,1,1.95-.16,3.16,3.16,0,0,1,1.75.37,1.42,1.42,0,0,1,.5,1.12,1.3,1.3,0,0,1-1,1.17v.06a1.53,1.53,0,0,1,.93,1.24,3.53,3.53,0,0,0,.37,1.26h-1.27a4.31,4.31,0,0,1-.4-1.23c-.09-.56-.4-.8-1.05-.8h-.56Zm0-2.87h.56c.65,0,1.17-.22,1.17-.74S178.34,8,177.6,8a2.94,2.94,0,0,0-.65.06Z" transform="translate(0 -3.06)"/><path class="cls-1" d="M53,42C53,46.31,51.55,48,49.71,48s-3.18-2-3.18-5.87,1.37-5.86,3.36-5.86S53,38.36,53,42Zm-5.13.08c0,2.36.45,4.71,1.91,4.71s1.86-2.5,1.86-4.75-.39-4.68-1.87-4.68S47.89,39.77,47.89,42.1Z" transform="translate(0 -3.06)"/><path class="cls-1" d="M59.55,45.59c0,.9.05,1.62.07,2.24H58.48L58.39,47h0a2.18,2.18,0,0,1-1.77,1c-1.43,0-2-1.12-2-3.16V39.61h1.3v5c0,1.29.21,2.25,1.11,2.25a1.28,1.28,0,0,0,1.18-1.1,3.29,3.29,0,0,0,.07-.73V39.61h1.3Z" transform="translate(0 -3.06)"/><path class="cls-1" d="M61.38,41.73c0-.7-.05-1.51-.07-2.12h1.16l.07,1.28h0a2,2,0,0,1,1.73-1.42l.27,0v1.33h-.27a1.78,1.78,0,0,0-1.58,1.71,5.54,5.54,0,0,0,0,.75v4.56h-1.3Z" transform="translate(0 -3.06)"/><path class="cls-1" d="M68.05,46.46a2.5,2.5,0,0,0,1.33.43,1.11,1.11,0,0,0,1.21-1.19c0-.62-.23-1.06-1-1.61-1.07-.69-1.66-1.4-1.66-2.34a2.21,2.21,0,0,1,2.27-2.28,2.76,2.76,0,0,1,1.47.42l-.35,1a1.84,1.84,0,0,0-1.1-.37,1,1,0,0,0-1.06,1.05c0,.55.21.86,1,1.42a3,3,0,0,1,1.7,2.51,2.29,2.29,0,0,1-2.48,2.44,2.78,2.78,0,0,1-1.62-.48Z" transform="translate(0 -3.06)"/><path class="cls-1" d="M74.6,37.47a.76.76,0,0,1-.8.85.77.77,0,0,1-.75-.85.79.79,0,0,1,.77-.85A.77.77,0,0,1,74.6,37.47ZM73.19,47.83V39.61h1.3v8.22Z" transform="translate(0 -3.06)"/><path class="cls-1" d="M81.35,39.61c0,.56-.07,1.29-.07,2.56v4.59c0,2.17-.28,3-.82,3.59a2.86,2.86,0,0,1-2.18.88,4,4,0,0,1-1.82-.41l.31-1a3.39,3.39,0,0,0,1.53.37c1,0,1.68-.66,1.68-2.52v-.83h0a1.64,1.64,0,0,1-1.57,1c-1.45,0-2.41-1.64-2.41-4.06,0-3,1.37-4.28,2.59-4.28a1.67,1.67,0,0,1,1.53,1.06h0l.07-.92ZM80,42.44a2.25,2.25,0,0,0-.07-.6c-.14-.56-.44-1.25-1.19-1.25-.94,0-1.45,1.27-1.45,3.09,0,2.11.66,3.06,1.45,3.06.4,0,.91-.18,1.17-1.18a2.45,2.45,0,0,0,.09-.74Z" transform="translate(0 -3.06)"/><path class="cls-1" d="M83.06,41.73c0-1,0-1.46-.07-2.12h1.15l.06,1h0a2.07,2.07,0,0,1,1.88-1.12c1.14,0,2,.84,2,2.83v5.53h-1.3v-5.3c0-1-.19-2-1.15-2-.55,0-1.06.45-1.23,1.33a4,4,0,0,0-.06.74v5.18H83.06Z" transform="translate(0 -3.06)"/><path class="cls-1" d="M93.2,47.83,93.11,47h0a1.87,1.87,0,0,1-1.65,1,2.08,2.08,0,0,1-2-2.35c0-2,1.65-3,3.51-3v-.26c0-1.11-.28-1.87-1.32-1.87a2.39,2.39,0,0,0-1.36.43L90,40a3.57,3.57,0,0,1,1.92-.54c1.65,0,2.35,1.08,2.35,2.93V46a13.72,13.72,0,0,0,.09,1.86ZM93,43.57c-.67,0-2.26.13-2.26,1.92,0,1.07.54,1.45,1,1.45s1-.43,1.21-1.23a2.56,2.56,0,0,0,0-.47Z" transform="translate(0 -3.06)"/><path class="cls-1" d="M97.58,37.42v2.19h1.58v1H97.58v4.89c0,1.07.39,1.35.86,1.35a2.65,2.65,0,0,0,.53-.05l.06,1a3,3,0,0,1-1,.13,1.63,1.63,0,0,1-1.29-.5,2.93,2.93,0,0,1-.49-2.06V40.6h-1v-1h1V37.8Z" transform="translate(0 -3.06)"/><path class="cls-1" d="M105.25,45.59c0,.9,0,1.62.07,2.24h-1.15l-.09-.86h0a2.16,2.16,0,0,1-1.76,1c-1.44,0-2-1.12-2-3.16V39.61h1.3v5c0,1.29.21,2.25,1.1,2.25a1.27,1.27,0,0,0,1.18-1.1A3.26,3.26,0,0,0,104,45V39.61h1.3Z" transform="translate(0 -3.06)"/><path class="cls-1" d="M107.07,41.73c0-.7,0-1.51-.07-2.12h1.17l.07,1.28h0A2,2,0,0,1,110,39.47l.28,0v1.33H110a1.8,1.8,0,0,0-1.59,1.71,5.54,5.54,0,0,0,0,.75v4.56h-1.3Z" transform="translate(0 -3.06)"/><path class="cls-1" d="M112,43.83c0,2.52,1,3.05,2,3.05a3,3,0,0,0,1.36-.3l.22,1a3.94,3.94,0,0,1-1.82.4c-2,0-3-1.61-3-4.13s1.13-4.33,2.77-4.33,2.36,1.77,2.36,3.62a7.12,7.12,0,0,1,0,.74Zm2.59-1c0-1.65-.6-2.38-1.22-2.38-.87,0-1.3,1.25-1.35,2.38Z" transform="translate(0 -3.06)"/><path class="cls-1" d="M119.67,46.46a2.56,2.56,0,0,0,1.34.43,1.11,1.11,0,0,0,1.21-1.19c0-.62-.23-1.06-1-1.61-1.08-.69-1.67-1.4-1.67-2.34a2.22,2.22,0,0,1,2.28-2.28,2.69,2.69,0,0,1,1.46.42l-.34,1a1.86,1.86,0,0,0-1.1-.37,1,1,0,0,0-1.06,1.05c0,.55.21.86,1,1.42a3,3,0,0,1,1.7,2.51A2.3,2.3,0,0,1,121,47.93a2.78,2.78,0,0,1-1.62-.48Z" transform="translate(0 -3.06)"/><path class="cls-1" d="M129.86,43.71c0,3.18-1.48,4.25-2.73,4.25-1.48,0-2.68-1.34-2.68-4.23s1.35-4.26,2.76-4.26S129.86,40.85,129.86,43.71Zm-4.09,0c0,1.36.24,3.21,1.42,3.21s1.35-1.92,1.35-3.21-.22-3.19-1.38-3.19S125.77,42.45,125.77,43.71Z" transform="translate(0 -3.06)"/><path class="cls-1" d="M131.32,36.06h1.31V47.83h-1.31Z" transform="translate(0 -3.06)"/><path class="cls-1" d="M139.5,45.59c0,.9.05,1.62.07,2.24h-1.14l-.09-.86h0a2.14,2.14,0,0,1-1.76,1c-1.43,0-2-1.12-2-3.16V39.61h1.3v5c0,1.29.21,2.25,1.11,2.25a1.28,1.28,0,0,0,1.18-1.1,3.29,3.29,0,0,0,.07-.73V39.61h1.3Z" transform="translate(0 -3.06)"/><path class="cls-1" d="M142.94,37.42v2.19h1.58v1h-1.58v4.89c0,1.07.38,1.35.86,1.35a2.65,2.65,0,0,0,.53-.05l0,1a2.93,2.93,0,0,1-1,.13,1.6,1.6,0,0,1-1.28-.5,2.88,2.88,0,0,1-.49-2.06V40.6h-1v-1h1V37.8Z" transform="translate(0 -3.06)"/><path class="cls-1" d="M147.09,37.47a.76.76,0,0,1-.8.85.77.77,0,0,1-.75-.85.78.78,0,0,1,.77-.85A.77.77,0,0,1,147.09,37.47Zm-1.42,10.36V39.61H147v8.22Z" transform="translate(0 -3.06)"/><path class="cls-1" d="M153.85,43.71c0,3.18-1.48,4.25-2.74,4.25-1.47,0-2.67-1.34-2.67-4.23s1.34-4.26,2.76-4.26S153.85,40.85,153.85,43.71Zm-4.09,0c0,1.36.24,3.21,1.42,3.21s1.35-1.92,1.35-3.21-.23-3.19-1.39-3.19S149.76,42.45,149.76,43.71Z" transform="translate(0 -3.06)"/><path class="cls-1" d="M155.31,41.73c0-1,0-1.46-.07-2.12h1.15l.06,1h0a2.07,2.07,0,0,1,1.88-1.12c1.14,0,2,.84,2,2.83v5.53h-1.3v-5.3c0-1-.19-2-1.15-2-.55,0-1.07.45-1.23,1.33a3.25,3.25,0,0,0-.06.74v5.18h-1.31Z" transform="translate(0 -3.06)"/><path class="cls-1" d="M166.28,37.47a.76.76,0,0,1-.8.85.77.77,0,0,1-.75-.85.79.79,0,0,1,.77-.85A.77.77,0,0,1,166.28,37.47Zm-1.41,10.36V39.61h1.3v8.22Z" transform="translate(0 -3.06)"/><path class="cls-1" d="M167.77,46.46a2.5,2.5,0,0,0,1.33.43,1.11,1.11,0,0,0,1.21-1.19c0-.62-.23-1.06-1.05-1.61-1.07-.69-1.66-1.4-1.66-2.34a2.21,2.21,0,0,1,2.27-2.28,2.76,2.76,0,0,1,1.47.42l-.35,1a1.84,1.84,0,0,0-1.1-.37,1,1,0,0,0-1.06,1.05c0,.55.21.86,1,1.42a3,3,0,0,1,1.7,2.51,2.29,2.29,0,0,1-2.48,2.44,2.78,2.78,0,0,1-1.62-.48Z" transform="translate(0 -3.06)"/><path class="cls-1" d="M175.42,46.31a3.43,3.43,0,0,0,1.64.47,1.81,1.81,0,0,0,1.92-2,2.94,2.94,0,0,0-1.52-2.38c-.9-.63-2.15-1.69-2.15-3.17a2.89,2.89,0,0,1,3-3,3.09,3.09,0,0,1,1.6.42l-.32,1.12a2.36,2.36,0,0,0-1.36-.39,1.58,1.58,0,0,0-1.65,1.64c0,1.13.59,1.58,1.68,2.35a3.94,3.94,0,0,1,2,3.3,3.07,3.07,0,0,1-3.21,3.22,3.8,3.8,0,0,1-1.93-.5Z" transform="translate(0 -3.06)"/><path class="cls-1" d="M181.76,36.06h1.31v4.43h0a2.54,2.54,0,0,1,.69-.73,2,2,0,0,1,1.1-.29c1,0,1.92.82,1.92,2.9v5.46h-1.3V42.52c0-1-.23-1.94-1.12-1.94-.6,0-1.07.43-1.27,1.3a4.1,4.1,0,0,0-.05.62v5.33h-1.31Z" transform="translate(0 -3.06)"/><path class="cls-1" d="M193.7,43.71c0,3.18-1.48,4.25-2.74,4.25-1.47,0-2.67-1.34-2.67-4.23s1.34-4.26,2.76-4.26S193.7,40.85,193.7,43.71Zm-4.1,0c0,1.36.25,3.21,1.42,3.21s1.36-1.92,1.36-3.21-.23-3.19-1.39-3.19S189.6,42.45,189.6,43.71Z" transform="translate(0 -3.06)"/><path class="cls-1" d="M195.7,39.61l1,4.61c.12.56.25,1.29.36,2h.05c.09-.68.22-1.37.34-2l1-4.61h1.3l-2.15,8.22h-1.16l-2.15-8.22Z" transform="translate(0 -3.06)"/><path class="cls-1" d="M201.64,43.83c0,2.52,1,3.05,1.94,3.05a3,3,0,0,0,1.37-.3l.21,1a3.93,3.93,0,0,1-1.81.4c-2,0-3-1.61-3-4.13s1.14-4.33,2.78-4.33,2.35,1.77,2.35,3.62a7.12,7.12,0,0,1,0,.74Zm2.58-1c0-1.65-.6-2.38-1.22-2.38-.86,0-1.29,1.25-1.35,2.38Z" transform="translate(0 -3.06)"/><path class="cls-1" d="M206.89,36.06h1.3V47.83h-1.3Z" transform="translate(0 -3.06)"/><path class="cls-1" d="M210,46.31a3.43,3.43,0,0,0,1.64.47,1.81,1.81,0,0,0,1.92-2A2.94,2.94,0,0,0,212,42.45c-.9-.63-2.15-1.69-2.15-3.17a2.89,2.89,0,0,1,3-3,3.09,3.09,0,0,1,1.6.42l-.32,1.12a2.36,2.36,0,0,0-1.36-.39,1.58,1.58,0,0,0-1.65,1.64c0,1.13.59,1.58,1.68,2.35a3.94,3.94,0,0,1,2,3.3,3.07,3.07,0,0,1-3.21,3.22,3.8,3.8,0,0,1-1.93-.5Z" transform="translate(0 -3.06)"/><path class="cls-1" d="M217.31,43.83c0,2.52,1,3.05,1.95,3.05a3,3,0,0,0,1.36-.3l.22,1a3.94,3.94,0,0,1-1.82.4c-2,0-3-1.61-3-4.13s1.13-4.33,2.77-4.33,2.35,1.77,2.35,3.62c0,.33,0,.54,0,.74Zm2.59-1c0-1.65-.6-2.38-1.22-2.38-.87,0-1.3,1.25-1.36,2.38Z" transform="translate(0 -3.06)"/><path class="cls-1" d="M222.56,41.73c0-1,0-1.46-.07-2.12h1.15l.06,1h0a2.07,2.07,0,0,1,1.88-1.12c1.14,0,2,.84,2,2.83v5.53h-1.3v-5.3c0-1-.19-2-1.15-2-.55,0-1.07.45-1.23,1.33a3.25,3.25,0,0,0-.06.74v5.18h-1.31Z" transform="translate(0 -3.06)"/><path class="cls-1" d="M229.22,46.46a2.5,2.5,0,0,0,1.33.43,1.12,1.12,0,0,0,1.22-1.19c0-.62-.23-1.06-1.06-1.61-1.07-.69-1.66-1.4-1.66-2.34a2.22,2.22,0,0,1,2.28-2.28,2.72,2.72,0,0,1,1.46.42l-.35,1a1.83,1.83,0,0,0-1.09-.37,1,1,0,0,0-1.07,1.05c0,.55.21.86,1,1.42A3,3,0,0,1,233,45.49a2.3,2.3,0,0,1-2.48,2.44,2.84,2.84,0,0,1-1.63-.48Z" transform="translate(0 -3.06)"/><path class="cls-1" d="M235.28,43.83c0,2.52,1,3.05,1.95,3.05a3,3,0,0,0,1.36-.3l.21,1a3.9,3.9,0,0,1-1.81.4c-2,0-3-1.61-3-4.13s1.13-4.33,2.77-4.33,2.35,1.77,2.35,3.62c0,.33,0,.54,0,.74Zm2.59-1c0-1.65-.6-2.38-1.22-2.38-.87,0-1.3,1.25-1.36,2.38Z" transform="translate(0 -3.06)"/><path class="cls-1" d="M246,39a2.87,2.87,0,1,1-2.86-2.79A2.8,2.8,0,0,1,246,39Zm-5,0a2.17,2.17,0,0,0,2.18,2.23A2.14,2.14,0,0,0,245.32,39a2.15,2.15,0,1,0-4.3,0Zm1.72,1.46h-.64V37.64a5.75,5.75,0,0,1,1.07-.08,1.71,1.71,0,0,1,1,.2.76.76,0,0,1,.28.62.71.71,0,0,1-.58.64v0a.82.82,0,0,1,.51.68,2,2,0,0,0,.2.69h-.69a2.23,2.23,0,0,1-.23-.68c-.05-.3-.22-.44-.57-.44h-.31Zm0-1.58h.3c.36,0,.65-.12.65-.41s-.19-.42-.59-.42a2.28,2.28,0,0,0-.36,0Z" transform="translate(0 -3.06)"/><path class="cls-1" d="M247,50a23.28,23.28,0,0,0,1-4l1.49-.17a20.7,20.7,0,0,1-1.57,4Z" transform="translate(0 -3.06)"/><path class="cls-1" d="M256.87,47.83l-.08-.87h-.05a1.86,1.86,0,0,1-1.65,1,2.08,2.08,0,0,1-2-2.35c0-2,1.65-3,3.51-3v-.26c0-1.11-.28-1.87-1.32-1.87a2.39,2.39,0,0,0-1.36.43l-.28-.92a3.6,3.6,0,0,1,1.92-.54c1.65,0,2.36,1.08,2.36,2.93V46a15.65,15.65,0,0,0,.08,1.86Zm-.19-4.26c-.67,0-2.26.13-2.26,1.92,0,1.07.54,1.45,1,1.45s1.06-.43,1.21-1.23a2.56,2.56,0,0,0,0-.47Z" transform="translate(0 -3.06)"/><path class="cls-1" d="M262.46,41.73c0-.7,0-1.51-.06-2.12h1.16l.07,1.28h0a2,2,0,0,1,1.72-1.42l.28,0v1.33h-.27a1.78,1.78,0,0,0-1.58,1.71,4.28,4.28,0,0,0-.05.75v4.56h-1.31Z" transform="translate(0 -3.06)"/><path class="cls-1" d="M271.5,43.71c0,3.18-1.47,4.25-2.73,4.25-1.48,0-2.68-1.34-2.68-4.23s1.35-4.26,2.77-4.26S271.5,40.85,271.5,43.71Zm-4.09,0c0,1.36.24,3.21,1.42,3.21s1.36-1.92,1.36-3.21-.23-3.19-1.39-3.19S267.41,42.45,267.41,43.71Z" transform="translate(0 -3.06)"/><path class="cls-1" d="M272.88,47.83c0-.47.07-1.42.07-2v-9.8h1.3v4.51h0a1.81,1.81,0,0,1,1.73-1.1c1.29,0,2.25,1.47,2.25,4.16,0,3-1.23,4.33-2.49,4.33a1.69,1.69,0,0,1-1.63-1.21h-.06L274,47.83Zm1.37-2.91a1.93,1.93,0,0,0,.06.51c.3,1.22.86,1.44,1.22,1.44,1.05,0,1.43-1.43,1.43-3.17s-.39-3.11-1.45-3.11c-.61,0-1.11.75-1.22,1.47a5.09,5.09,0,0,0,0,.56Z" transform="translate(0 -3.06)"/><path class="cls-1" d="M284.68,45.59c0,.9,0,1.62.07,2.24H283.6l-.08-.86h0a2.16,2.16,0,0,1-1.76,1c-1.44,0-2-1.12-2-3.16V39.61H281v5c0,1.29.21,2.25,1.1,2.25a1.29,1.29,0,0,0,1.19-1.1,3.32,3.32,0,0,0,.06-.73V39.61h1.31Z" transform="translate(0 -3.06)"/><path class="cls-1" d="M286.29,46.46a2.5,2.5,0,0,0,1.33.43,1.12,1.12,0,0,0,1.22-1.19c0-.62-.24-1.06-1.06-1.61-1.07-.69-1.66-1.4-1.66-2.34a2.22,2.22,0,0,1,2.27-2.28,2.73,2.73,0,0,1,1.47.42l-.35,1a1.84,1.84,0,0,0-1.1-.37,1,1,0,0,0-1.06,1.05c0,.55.21.86,1,1.42a3,3,0,0,1,1.7,2.51,2.29,2.29,0,0,1-2.47,2.44,2.81,2.81,0,0,1-1.63-.48Z" transform="translate(0 -3.06)"/><path class="cls-1" d="M293,37.42v2.19h1.58v1H293v4.89c0,1.07.38,1.35.86,1.35a2.54,2.54,0,0,0,.52-.05l.06,1a3,3,0,0,1-1,.13,1.64,1.64,0,0,1-1.29-.5,2.94,2.94,0,0,1-.48-2.06V40.6h-1v-1h1V37.8Z" transform="translate(0 -3.06)"/><path class="cls-1" d="M298.2,46.46a2.56,2.56,0,0,0,1.34.43,1.11,1.11,0,0,0,1.21-1.19c0-.62-.23-1.06-1.05-1.61-1.08-.69-1.67-1.4-1.67-2.34a2.22,2.22,0,0,1,2.28-2.28,2.69,2.69,0,0,1,1.46.42l-.35,1a1.81,1.81,0,0,0-1.09-.37,1,1,0,0,0-1.06,1.05c0,.55.21.86,1,1.42a3,3,0,0,1,1.7,2.51,2.3,2.3,0,0,1-2.48,2.44,2.78,2.78,0,0,1-1.62-.48Z" transform="translate(0 -3.06)"/><path class="cls-1" d="M304,39.61l1.09,4.72c.15.64.23,1.18.34,1.7h0c.08-.47.22-1.09.35-1.69l1-4.73h1.3l-1.34,5.27a15.14,15.14,0,0,1-2,5.31,4.29,4.29,0,0,1-1.48,1.25l-.49-1.11a4,4,0,0,0,1.17-1,5.35,5.35,0,0,0,.74-1.38,1.39,1.39,0,0,0,.09-.41,1.1,1.1,0,0,0,0-.31l-2.07-7.58Z" transform="translate(0 -3.06)"/><path class="cls-1" d="M309,46.46a2.56,2.56,0,0,0,1.34.43,1.11,1.11,0,0,0,1.21-1.19c0-.62-.23-1.06-1.05-1.61-1.08-.69-1.67-1.4-1.67-2.34a2.22,2.22,0,0,1,2.28-2.28,2.69,2.69,0,0,1,1.46.42l-.34,1a1.86,1.86,0,0,0-1.1-.37A1,1,0,0,0,310,41.56c0,.55.21.86,1,1.42a3,3,0,0,1,1.7,2.51,2.3,2.3,0,0,1-2.48,2.44,2.78,2.78,0,0,1-1.62-.48Z" transform="translate(0 -3.06)"/><path class="cls-1" d="M315.71,37.42v2.19h1.57v1h-1.57v4.89c0,1.07.38,1.35.85,1.35a2.65,2.65,0,0,0,.53-.05l.06,1a3,3,0,0,1-1,.13,1.63,1.63,0,0,1-1.29-.5,2.93,2.93,0,0,1-.49-2.06V40.6h-1v-1h1V37.8Z" transform="translate(0 -3.06)"/><path class="cls-1" d="M319.22,43.83c0,2.52,1,3.05,1.95,3.05a3,3,0,0,0,1.36-.3l.22,1a3.94,3.94,0,0,1-1.82.4c-2,0-3-1.61-3-4.13s1.13-4.33,2.77-4.33,2.36,1.77,2.36,3.62a7.12,7.12,0,0,1,0,.74Zm2.59-1c0-1.65-.6-2.38-1.22-2.38-.87,0-1.29,1.25-1.35,2.38Z" transform="translate(0 -3.06)"/><path class="cls-1" d="M324.47,41.73c0-1,0-1.46-.06-2.12h1.14l.07,1h0a2,2,0,0,1,1.85-1.15,1.7,1.7,0,0,1,1.72,1.25h0a2.6,2.6,0,0,1,.81-.94,2,2,0,0,1,1.13-.31c1.12,0,2,.81,2,2.91v5.45h-1.3V42.68c0-1.08-.16-2.12-1.15-2.12-.54,0-1,.47-1.2,1.24a4.17,4.17,0,0,0,0,.74v5.29h-1.3v-5.4c0-.9-.16-1.87-1.13-1.87-.54,0-1.07.47-1.22,1.34a3.88,3.88,0,0,0-.06.7v5.23h-1.3Z" transform="translate(0 -3.06)"/><path class="cls-1" d="M48.32,57.88a.76.76,0,0,1-.8.84.77.77,0,0,1-.75-.84.79.79,0,0,1,.77-.86A.77.77,0,0,1,48.32,57.88ZM46.9,68.23V60h1.31v8.22Z" transform="translate(0 -3.06)"/><path class="cls-1" d="M50,62.13c0-1,0-1.46-.07-2.12h1.15l.06,1h0a2.07,2.07,0,0,1,1.88-1.12c1.14,0,2,.84,2,2.83v5.53h-1.3v-5.3c0-1-.19-2-1.15-2-.55,0-1.07.46-1.23,1.34a4,4,0,0,0-.06.74v5.18H50Z" transform="translate(0 -3.06)"/><path class="cls-1" d="M56.69,66.86a2.5,2.5,0,0,0,1.33.43,1.12,1.12,0,0,0,1.22-1.19c0-.62-.23-1.06-1.06-1.61-1.07-.69-1.66-1.4-1.66-2.34a2.22,2.22,0,0,1,2.28-2.28,2.72,2.72,0,0,1,1.46.42l-.35,1a1.83,1.83,0,0,0-1.09-.37A1,1,0,0,0,57.75,62c0,.55.21.86,1,1.42a3,3,0,0,1,1.7,2.51A2.3,2.3,0,0,1,58,68.33a2.84,2.84,0,0,1-1.63-.48Z" transform="translate(0 -3.06)"/><path class="cls-1" d="M63.43,57.82V60H65v1H63.43v4.89c0,1.07.39,1.35.86,1.35a2.65,2.65,0,0,0,.53,0l.06,1a3,3,0,0,1-1,.13,1.63,1.63,0,0,1-1.29-.5,2.93,2.93,0,0,1-.49-2.06V61h-1V60h1V58.2Z" transform="translate(0 -3.06)"/><path class="cls-1" d="M69.42,68.23l-.09-.87h0a1.84,1.84,0,0,1-1.64,1,2.08,2.08,0,0,1-2-2.35c0-2.05,1.64-3,3.51-3v-.26c0-1.11-.29-1.87-1.32-1.87a2.36,2.36,0,0,0-1.36.43l-.28-.92a3.57,3.57,0,0,1,1.92-.54c1.65,0,2.35,1.08,2.35,2.93v3.57a13.72,13.72,0,0,0,.09,1.86ZM69.22,64c-.67,0-2.26.13-2.26,1.92,0,1.07.55,1.45,1,1.45s1.06-.43,1.21-1.23a1.91,1.91,0,0,0,0-.47Z" transform="translate(0 -3.06)"/><path class="cls-1" d="M72.35,56.46h1.31V68.23H72.35Z" transform="translate(0 -3.06)"/><path class="cls-1" d="M75.6,56.46h1.3V68.23H75.6Z" transform="translate(0 -3.06)"/><path class="cls-1" d="M79.77,64.23c0,2.52,1,3,1.94,3a3,3,0,0,0,1.37-.3l.21,1a3.94,3.94,0,0,1-1.82.4c-2,0-3-1.61-3-4.13s1.14-4.33,2.78-4.33,2.35,1.77,2.35,3.62c0,.32,0,.54,0,.74Zm2.58-1c0-1.65-.6-2.38-1.22-2.38-.86,0-1.29,1.25-1.35,2.38Z" transform="translate(0 -3.06)"/><path class="cls-1" d="M90,56.46v9.8c0,.55,0,1.49.07,2H88.92l-.09-1h-.06a1.89,1.89,0,0,1-1.72,1.16c-1.39,0-2.39-1.5-2.39-4.21,0-2.92,1.21-4.28,2.47-4.28a1.6,1.6,0,0,1,1.51,1h0V56.46Zm-1.3,6.67a4.87,4.87,0,0,0,0-.54c-.07-.86-.58-1.6-1.22-1.6C86.35,61,86,62.5,86,64.14s.45,3.13,1.39,3.13c.4,0,1-.22,1.26-1.4a2.34,2.34,0,0,0,0-.55Z" transform="translate(0 -3.06)"/><path class="cls-1" d="M95.89,57.88a.77.77,0,0,1-.81.84.75.75,0,0,1-.74-.84.78.78,0,1,1,1.55,0ZM94.47,68.23V60h1.3v8.22Z" transform="translate(0 -3.06)"/><path class="cls-1" d="M97.6,62.13c0-1,0-1.46-.07-2.12h1.14l.07,1h0a2.08,2.08,0,0,1,1.88-1.12c1.14,0,2,.84,2,2.83v5.53h-1.31v-5.3c0-1-.19-2-1.14-2-.55,0-1.07.46-1.24,1.34a4,4,0,0,0-.06.74v5.18H97.6Z" transform="translate(0 -3.06)"/><path class="cls-1" d="M107.15,62.13c0-1-.05-1.46-.07-2.12h1.15l.07,1h0a2,2,0,0,1,1.85-1.15,1.71,1.71,0,0,1,1.72,1.25h0a2.68,2.68,0,0,1,.8-.94,2.07,2.07,0,0,1,1.14-.31c1.11,0,2,.81,2,2.91v5.45h-1.3V63.08c0-1.08-.16-2.12-1.15-2.12-.55,0-1,.46-1.2,1.24a3.36,3.36,0,0,0-.06.74v5.29h-1.3v-5.4c0-.9-.15-1.87-1.13-1.87-.54,0-1.06.47-1.22,1.34a3.91,3.91,0,0,0,0,.7v5.23h-1.3Z" transform="translate(0 -3.06)"/><path class="cls-1" d="M119.11,57.88a.78.78,0,1,1-1.55,0,.78.78,0,1,1,1.55,0Zm-1.42,10.35V60H119v8.22Z" transform="translate(0 -3.06)"/><path class="cls-1" d="M120.82,62.13c0-1,0-1.46-.07-2.12h1.14l.07,1h0a2.09,2.09,0,0,1,1.89-1.12c1.13,0,2,.84,2,2.83v5.53h-1.31v-5.3c0-1-.19-2-1.14-2-.55,0-1.07.46-1.23,1.34a3.21,3.21,0,0,0-.07.74v5.18h-1.3Z" transform="translate(0 -3.06)"/><path class="cls-1" d="M129.12,57.88a.76.76,0,0,1-.8.84.77.77,0,0,1-.75-.84.79.79,0,0,1,.77-.86A.77.77,0,0,1,129.12,57.88ZM127.7,68.23V60H129v8.22Z" transform="translate(0 -3.06)"/><path class="cls-1" d="M130.83,62.13c0-1,0-1.46-.07-2.12h1.15l.06,1h0a2.07,2.07,0,0,1,1.88-1.12c1.14,0,2,.84,2,2.83v5.53h-1.3v-5.3c0-1-.19-2-1.15-2-.55,0-1.07.46-1.23,1.34a3.88,3.88,0,0,0-.07.74v5.18h-1.3Z" transform="translate(0 -3.06)"/><path class="cls-1" d="M142.75,60c0,.56-.07,1.29-.07,2.56v4.6c0,2.16-.27,3-.81,3.58a2.88,2.88,0,0,1-2.19.88,3.91,3.91,0,0,1-1.81-.41l.3-1a3.39,3.39,0,0,0,1.53.37c1,0,1.68-.65,1.68-2.52v-.83h0a1.66,1.66,0,0,1-1.57,1c-1.46,0-2.42-1.64-2.42-4.06,0-3,1.37-4.28,2.59-4.28a1.67,1.67,0,0,1,1.53,1.06h0l.06-.92Zm-1.37,2.83a1.9,1.9,0,0,0-.07-.6c-.14-.56-.44-1.25-1.18-1.25-.95,0-1.46,1.27-1.46,3.09,0,2.11.66,3.06,1.45,3.06.41,0,.92-.18,1.18-1.18a2.79,2.79,0,0,0,.08-.74Z" transform="translate(0 -3.06)"/><path class="cls-1" d="M148.09,64.23c0,2.52,1,3,1.95,3a3,3,0,0,0,1.36-.3l.21,1a3.9,3.9,0,0,1-1.81.4c-2,0-3-1.61-3-4.13s1.13-4.33,2.77-4.33,2.35,1.77,2.35,3.62c0,.32,0,.54,0,.74Zm2.58-1c0-1.65-.59-2.38-1.22-2.38-.86,0-1.29,1.25-1.35,2.38Z" transform="translate(0 -3.06)"/><path class="cls-1" d="M154,60l.76,1.76c.21.47.37.95.55,1.44h0c.18-.52.37-1,.55-1.44l.73-1.76h1.35l-2,4.05,1.94,4.17h-1.42l-.79-1.86c-.18-.44-.33-.86-.54-1.41h0c-.17.5-.36.94-.55,1.41l-.76,1.86h-1.33l2-4.13L152.55,60Z" transform="translate(0 -3.06)"/><path class="cls-1" d="M160.86,57.82V60h1.58v1h-1.58v4.89c0,1.07.38,1.35.85,1.35a2.65,2.65,0,0,0,.53,0l.06,1a3,3,0,0,1-1,.13,1.64,1.64,0,0,1-1.29-.5,2.93,2.93,0,0,1-.49-2.06V61h-1V60h1V58.2Z" transform="translate(0 -3.06)"/><path class="cls-1" d="M163.58,62.13c0-.7-.05-1.51-.07-2.12h1.17l.06,1.28h0a2,2,0,0,1,1.72-1.42l.27,0v1.33h-.27a1.79,1.79,0,0,0-1.58,1.71,5.54,5.54,0,0,0-.05.75v4.56h-1.3Z" transform="translate(0 -3.06)"/><path class="cls-1" d="M171,68.23l-.09-.87h-.05a1.84,1.84,0,0,1-1.64,1,2.08,2.08,0,0,1-2-2.35c0-2.05,1.64-3,3.51-3v-.26c0-1.11-.29-1.87-1.32-1.87a2.36,2.36,0,0,0-1.36.43l-.28-.92a3.57,3.57,0,0,1,1.92-.54c1.65,0,2.35,1.08,2.35,2.93v3.57a13.72,13.72,0,0,0,.09,1.86Zm-.2-4.26c-.67,0-2.26.13-2.26,1.92,0,1.07.54,1.45,1,1.45s1.06-.43,1.21-1.23a1.91,1.91,0,0,0,0-.47Z" transform="translate(0 -3.06)"/><path class="cls-1" d="M177.9,68a2.78,2.78,0,0,1-1.36.31c-1.79,0-3-1.45-3-4.17,0-2.36,1.2-4.28,3.25-4.28a2.58,2.58,0,0,1,1.16.26l-.26,1.07a2,2,0,0,0-.93-.23c-1.32,0-1.9,1.57-1.9,3.18,0,1.92.73,3.08,1.93,3.08a2.05,2.05,0,0,0,.95-.23Z" transform="translate(0 -3.06)"/><path class="cls-1" d="M180.88,57.82V60h1.58v1h-1.58v4.89c0,1.07.39,1.35.86,1.35a2.65,2.65,0,0,0,.53,0l.06,1a3,3,0,0,1-1,.13,1.63,1.63,0,0,1-1.29-.5,2.93,2.93,0,0,1-.49-2.06V61h-1V60h1V58.2Z" transform="translate(0 -3.06)"/><path class="cls-1" d="M185,57.88a.76.76,0,0,1-.8.84.77.77,0,0,1-.75-.84.79.79,0,0,1,.77-.86A.77.77,0,0,1,185,57.88Zm-1.41,10.35V60h1.3v8.22Z" transform="translate(0 -3.06)"/><path class="cls-1" d="M191.79,64.11c0,3.18-1.48,4.25-2.74,4.25-1.47,0-2.67-1.34-2.67-4.23s1.35-4.26,2.76-4.26S191.79,61.25,191.79,64.11Zm-4.09,0c0,1.36.24,3.21,1.42,3.21s1.35-1.92,1.35-3.21-.23-3.19-1.39-3.19S187.7,62.85,187.7,64.11Z" transform="translate(0 -3.06)"/><path class="cls-1" d="M193.25,62.13c0-1,0-1.46-.06-2.12h1.14l.06,1h0a2.07,2.07,0,0,1,1.88-1.12c1.14,0,2,.84,2,2.83v5.53H197v-5.3c0-1-.19-2-1.14-2-.56,0-1.07.46-1.24,1.34a4,4,0,0,0-.06.74v5.18h-1.31Z" transform="translate(0 -3.06)"/><path class="cls-1" d="M203.73,64.23c0,2.52,1,3,1.94,3A3,3,0,0,0,207,67l.21,1a3.93,3.93,0,0,1-1.81.4c-2,0-3-1.61-3-4.13s1.13-4.33,2.77-4.33,2.35,1.77,2.35,3.62c0,.32,0,.54,0,.74Zm2.58-1c0-1.65-.6-2.38-1.22-2.38-.86,0-1.29,1.25-1.35,2.38Z" transform="translate(0 -3.06)"/><path class="cls-1" d="M212.64,67.37h-.06a1.73,1.73,0,0,1-1.58,1c-1.32,0-2.38-1.45-2.38-4.15,0-2.9,1.22-4.34,2.59-4.34A1.63,1.63,0,0,1,212.74,61h0l.06-1H214c0,.56-.06,1.3-.06,2.56v8.92h-1.3Zm0-4.3a3.19,3.19,0,0,0,0-.54c-.09-.86-.61-1.54-1.2-1.54-1.06,0-1.46,1.43-1.46,3.16s.43,3.12,1.44,3.12c.4,0,.92-.24,1.19-1.37a2.69,2.69,0,0,0,.07-.7Z" transform="translate(0 -3.06)"/><path class="cls-1" d="M220.69,66c0,.9.05,1.62.07,2.24h-1.14l-.09-.86h0a2.14,2.14,0,0,1-1.76,1c-1.43,0-2-1.12-2-3.16V60H217v5c0,1.29.21,2.25,1.11,2.25a1.28,1.28,0,0,0,1.18-1.1,3.29,3.29,0,0,0,.07-.73V60h1.3Z" transform="translate(0 -3.06)"/><path class="cls-1" d="M224,57.88a.77.77,0,0,1-.81.84.75.75,0,0,1-.74-.84.78.78,0,1,1,1.55,0Zm-1.42,10.35V60h1.3v8.22Z" transform="translate(0 -3.06)"/><path class="cls-1" d="M225.64,62.57c0-1.27,0-2-.07-2.56h1.17l.07,1h0a1.9,1.9,0,0,1,1.74-1.18c1.43,0,2.38,1.52,2.38,4.22,0,3.06-1.26,4.27-2.55,4.27a1.53,1.53,0,0,1-1.43-1h0v4.08h-1.3Zm1.3,2.64a2.9,2.9,0,0,0,.07.68c.25,1.17.84,1.38,1.19,1.38,1.09,0,1.44-1.49,1.44-3.15S229.23,61,228.19,61c-.59,0-1.12.74-1.2,1.49a3.18,3.18,0,0,0-.05.62Z" transform="translate(0 -3.06)"/><path class="cls-1" d="M232.44,62.13c0-1-.05-1.46-.07-2.12h1.15l.06,1h0a2,2,0,0,1,1.85-1.15,1.71,1.71,0,0,1,1.72,1.25h0a2.81,2.81,0,0,1,.81-.94,2.07,2.07,0,0,1,1.14-.31c1.11,0,2,.81,2,2.91v5.45h-1.29V63.08c0-1.08-.16-2.12-1.15-2.12-.55,0-1,.46-1.2,1.24a3.36,3.36,0,0,0-.06.74v5.29h-1.3v-5.4c0-.9-.16-1.87-1.13-1.87-.54,0-1.07.47-1.22,1.34a3.91,3.91,0,0,0,0,.7v5.23h-1.3Z" transform="translate(0 -3.06)"/><path class="cls-1" d="M243.9,64.23c0,2.52,1,3,1.94,3a3,3,0,0,0,1.37-.3l.21,1a3.93,3.93,0,0,1-1.81.4c-2,0-3-1.61-3-4.13s1.13-4.33,2.77-4.33,2.35,1.77,2.35,3.62c0,.32,0,.54,0,.74Zm2.58-1c0-1.65-.6-2.38-1.22-2.38-.86,0-1.29,1.25-1.35,2.38Z" transform="translate(0 -3.06)"/><path class="cls-1" d="M249.15,62.13c0-1-.05-1.46-.07-2.12h1.14l.07,1h0a2.09,2.09,0,0,1,1.89-1.12c1.13,0,2,.84,2,2.83v5.53h-1.31v-5.3c0-1-.19-2-1.14-2-.55,0-1.07.46-1.23,1.34a3.21,3.21,0,0,0-.07.74v5.18h-1.3Z" transform="translate(0 -3.06)"/><path class="cls-1" d="M257.54,57.82V60h1.57v1h-1.57v4.89c0,1.07.38,1.35.85,1.35a2.65,2.65,0,0,0,.53,0l.06,1a3,3,0,0,1-1,.13,1.63,1.63,0,0,1-1.29-.5,2.93,2.93,0,0,1-.49-2.06V61h-1V60h1V58.2Z" transform="translate(0 -3.06)"/><path class="cls-1" d="M264.54,57.82V60h1.58v1h-1.58v4.89c0,1.07.38,1.35.85,1.35a2.65,2.65,0,0,0,.53,0l.06,1a3,3,0,0,1-1,.13,1.64,1.64,0,0,1-1.29-.5,2.93,2.93,0,0,1-.49-2.06V61h-1V60h1V58.2Z" transform="translate(0 -3.06)"/><path class="cls-1" d="M272.18,64.11c0,3.18-1.48,4.25-2.73,4.25-1.48,0-2.68-1.34-2.68-4.23s1.35-4.26,2.77-4.26S272.18,61.25,272.18,64.11Zm-4.09,0c0,1.36.24,3.21,1.42,3.21s1.36-1.92,1.36-3.21-.23-3.19-1.39-3.19S268.09,62.85,268.09,64.11Z" transform="translate(0 -3.06)"/><path class="cls-1" d="M276.09,66.86a2.5,2.5,0,0,0,1.33.43,1.12,1.12,0,0,0,1.22-1.19c0-.62-.24-1.06-1.06-1.61-1.07-.69-1.66-1.4-1.66-2.34a2.22,2.22,0,0,1,2.27-2.28,2.73,2.73,0,0,1,1.47.42l-.35,1a1.84,1.84,0,0,0-1.1-.37A1,1,0,0,0,277.15,62c0,.55.21.86,1,1.42a3,3,0,0,1,1.7,2.51,2.29,2.29,0,0,1-2.47,2.44,2.79,2.79,0,0,1-1.63-.48Z" transform="translate(0 -3.06)"/><path class="cls-1" d="M285.24,68a2.84,2.84,0,0,1-1.36.31c-1.8,0-3-1.45-3-4.17,0-2.36,1.19-4.28,3.25-4.28a2.62,2.62,0,0,1,1.16.26L285,61.21a2.05,2.05,0,0,0-.94-.23c-1.31,0-1.9,1.57-1.9,3.18,0,1.92.74,3.08,1.93,3.08a2,2,0,0,0,.95-.23Z" transform="translate(0 -3.06)"/><path class="cls-1" d="M289.67,68.23l-.09-.87h-.05a1.85,1.85,0,0,1-1.65,1A2.08,2.08,0,0,1,285.93,66c0-2.05,1.65-3,3.51-3v-.26c0-1.11-.28-1.87-1.32-1.87a2.39,2.39,0,0,0-1.36.43l-.28-.92a3.61,3.61,0,0,1,1.93-.54c1.64,0,2.35,1.08,2.35,2.93v3.57a13.72,13.72,0,0,0,.09,1.86Zm-.2-4.26c-.67,0-2.26.13-2.26,1.92,0,1.07.54,1.45,1,1.45s1.06-.43,1.21-1.23a2.56,2.56,0,0,0,0-.47Z" transform="translate(0 -3.06)"/><path class="cls-1" d="M292.6,62.13c0-1-.05-1.46-.07-2.12h1.14l.07,1h0a2.09,2.09,0,0,1,1.89-1.12c1.13,0,2,.84,2,2.83v5.53h-1.31v-5.3c0-1-.18-2-1.14-2-.55,0-1.07.46-1.23,1.34a3.21,3.21,0,0,0-.07.74v5.18h-1.3Z" transform="translate(0 -3.06)"/><path class="cls-1" d="M305.41,68.23l-.09-.87h-.05a1.85,1.85,0,0,1-1.65,1A2.08,2.08,0,0,1,301.68,66c0-2.05,1.64-3,3.51-3v-.26c0-1.11-.29-1.87-1.32-1.87a2.36,2.36,0,0,0-1.36.43l-.28-.92a3.57,3.57,0,0,1,1.92-.54c1.64,0,2.35,1.08,2.35,2.93v3.57a13.72,13.72,0,0,0,.09,1.86Zm-.2-4.26c-.67,0-2.26.13-2.26,1.92,0,1.07.54,1.45,1,1.45s1.06-.43,1.21-1.23a1.91,1.91,0,0,0,0-.47Z" transform="translate(0 -3.06)"/><path class="cls-1" d="M308.34,62.13c0-1,0-1.46-.07-2.12h1.15l.06,1h0a2.07,2.07,0,0,1,1.88-1.12c1.14,0,2,.84,2,2.83v5.53h-1.3v-5.3c0-1-.19-2-1.15-2-.55,0-1.07.46-1.23,1.34a3.21,3.21,0,0,0-.07.74v5.18h-1.3Z" transform="translate(0 -3.06)"/><path class="cls-1" d="M320.18,56.46v9.8c0,.55,0,1.49.07,2h-1.12l-.09-1H319a1.89,1.89,0,0,1-1.72,1.16c-1.39,0-2.4-1.5-2.4-4.21,0-2.92,1.22-4.28,2.48-4.28a1.6,1.6,0,0,1,1.51,1h0V56.46Zm-1.3,6.67a4.87,4.87,0,0,0,0-.54c-.07-.86-.58-1.6-1.22-1.6-1.09,0-1.46,1.51-1.46,3.15s.45,3.13,1.39,3.13c.4,0,1-.22,1.26-1.4a2.34,2.34,0,0,0,.05-.55Z" transform="translate(0 -3.06)"/><path class="cls-1" d="M46.9,82.53c0-1,0-1.46-.06-2.12H48l.07,1h0a2,2,0,0,1,1.85-1.15,1.7,1.7,0,0,1,1.72,1.25h0a2.6,2.6,0,0,1,.81-.94,2,2,0,0,1,1.13-.31c1.12,0,2,.81,2,2.91v5.45h-1.3V83.48c0-1.08-.15-2.12-1.14-2.12-.55,0-1,.47-1.21,1.24a4.17,4.17,0,0,0-.05.74v5.29h-1.3v-5.4c0-.9-.16-1.87-1.13-1.87-.54,0-1.07.47-1.22,1.34a3.88,3.88,0,0,0-.06.7v5.23H46.9Z" transform="translate(0 -3.06)"/><path class="cls-1" d="M58.37,84.63c0,2.52,1,3.05,1.94,3.05a3,3,0,0,0,1.36-.3l.22,1a3.94,3.94,0,0,1-1.82.4c-2,0-3-1.61-3-4.13s1.14-4.33,2.78-4.33,2.35,1.77,2.35,3.62a7.26,7.26,0,0,1,0,.74Zm2.58-1c0-1.65-.6-2.38-1.22-2.38-.86,0-1.29,1.25-1.35,2.38Z" transform="translate(0 -3.06)"/><path class="cls-1" d="M66.87,88.63l-.09-.87h0a1.84,1.84,0,0,1-1.64,1,2.08,2.08,0,0,1-2-2.35c0-2,1.65-3,3.51-3v-.26c0-1.11-.28-1.87-1.32-1.87a2.36,2.36,0,0,0-1.36.43l-.28-.92a3.57,3.57,0,0,1,1.92-.54c1.65,0,2.35,1.08,2.35,2.93v3.57a13.72,13.72,0,0,0,.09,1.86Zm-.2-4.26c-.67,0-2.26.13-2.26,1.92,0,1.07.55,1.45,1,1.45s1.06-.43,1.21-1.23a1.91,1.91,0,0,0,0-.47Z" transform="translate(0 -3.06)"/><path class="cls-1" d="M69.58,87.26a2.5,2.5,0,0,0,1.33.43,1.11,1.11,0,0,0,1.21-1.19c0-.62-.23-1.06-1.05-1.61-1.07-.69-1.66-1.4-1.66-2.34a2.21,2.21,0,0,1,2.27-2.28,2.76,2.76,0,0,1,1.47.42l-.35,1a1.84,1.84,0,0,0-1.1-.37,1,1,0,0,0-1.06,1c0,.55.21.86,1,1.42a3,3,0,0,1,1.7,2.51,2.29,2.29,0,0,1-2.48,2.44,2.78,2.78,0,0,1-1.62-.48Z" transform="translate(0 -3.06)"/><path class="cls-1" d="M79.65,86.39c0,.9,0,1.62.06,2.24H78.57l-.09-.86h0a2.16,2.16,0,0,1-1.76,1c-1.44,0-2-1.12-2-3.16V80.41H76v5c0,1.29.21,2.25,1.1,2.25a1.27,1.27,0,0,0,1.18-1.1,3.29,3.29,0,0,0,.07-.73V80.41h1.31Z" transform="translate(0 -3.06)"/><path class="cls-1" d="M81.47,82.53c0-.7,0-1.51-.07-2.12h1.17l.06,1.28h.05a2,2,0,0,1,1.72-1.42l.28,0v1.33h-.27a1.79,1.79,0,0,0-1.59,1.71,5.54,5.54,0,0,0,0,.75v4.56h-1.3Z" transform="translate(0 -3.06)"/><path class="cls-1" d="M86.38,84.63c0,2.52,1,3.05,2,3.05a3,3,0,0,0,1.36-.3l.21,1a3.9,3.9,0,0,1-1.81.4c-2,0-3-1.61-3-4.13s1.13-4.33,2.77-4.33,2.35,1.77,2.35,3.62c0,.32,0,.54,0,.74Zm2.59-1c0-1.65-.6-2.38-1.22-2.38-.87,0-1.3,1.25-1.36,2.38Z" transform="translate(0 -3.06)"/><path class="cls-1" d="M99.34,80.41c0,.56-.08,1.29-.08,2.56v4.59c0,2.17-.27,3-.81,3.59a2.86,2.86,0,0,1-2.19.88,4,4,0,0,1-1.81-.41l.3-1a3.44,3.44,0,0,0,1.54.37c1,0,1.67-.66,1.67-2.52v-.83h0a1.66,1.66,0,0,1-1.57,1c-1.46,0-2.42-1.64-2.42-4.06,0-3,1.38-4.28,2.6-4.28a1.67,1.67,0,0,1,1.52,1.06h0l.06-.92ZM98,83.24a2.26,2.26,0,0,0-.06-.6c-.15-.56-.45-1.25-1.19-1.25-.94,0-1.46,1.27-1.46,3.09,0,2.11.67,3.06,1.46,3.06.4,0,.91-.18,1.17-1.18a2.79,2.79,0,0,0,.08-.74Z" transform="translate(0 -3.06)"/><path class="cls-1" d="M101,82.53c0-.7-.05-1.51-.07-2.12h1.16l.07,1.28h0A2,2,0,0,1,104,80.27l.27,0v1.33H104a1.78,1.78,0,0,0-1.58,1.71,5.54,5.54,0,0,0,0,.75v4.56H101Z" transform="translate(0 -3.06)"/><path class="cls-1" d="M108.42,88.63l-.09-.87h0a1.85,1.85,0,0,1-1.65,1,2.08,2.08,0,0,1-1.95-2.35c0-2,1.65-3,3.52-3v-.26c0-1.11-.29-1.87-1.32-1.87a2.34,2.34,0,0,0-1.36.43l-.29-.92a3.61,3.61,0,0,1,1.93-.54c1.64,0,2.35,1.08,2.35,2.93v3.57a13.72,13.72,0,0,0,.09,1.86Zm-.2-4.26c-.67,0-2.26.13-2.26,1.92,0,1.07.54,1.45,1,1.45s1.06-.43,1.21-1.23a2.56,2.56,0,0,0,0-.47Z" transform="translate(0 -3.06)"/><path class="cls-1" d="M116.3,76.86v9.8c0,.55,0,1.49.07,2h-1.12l-.09-1h0a1.91,1.91,0,0,1-1.73,1.17c-1.39,0-2.39-1.5-2.39-4.22,0-2.91,1.22-4.27,2.48-4.27a1.58,1.58,0,0,1,1.5,1h0V76.86ZM115,83.53a4.87,4.87,0,0,0,0-.54c-.07-.86-.58-1.6-1.22-1.6-1.08,0-1.46,1.51-1.46,3.15s.45,3.13,1.39,3.13c.41,0,1-.22,1.26-1.4a2.34,2.34,0,0,0,0-.55Z" transform="translate(0 -3.06)"/><path class="cls-1" d="M119.05,84.63c0,2.52,1,3.05,2,3.05a3,3,0,0,0,1.36-.3l.22,1a3.94,3.94,0,0,1-1.82.4c-2,0-3-1.61-3-4.13s1.13-4.33,2.77-4.33,2.36,1.77,2.36,3.62a7.26,7.26,0,0,1,0,.74Zm2.59-1c0-1.65-.6-2.38-1.22-2.38-.87,0-1.29,1.25-1.35,2.38Z" transform="translate(0 -3.06)"/><path class="cls-1" d="M130.23,88.63l-.09-.87h0a1.84,1.84,0,0,1-1.64,1,2.09,2.09,0,0,1-2-2.35c0-2,1.65-3,3.52-3v-.26c0-1.11-.29-1.87-1.32-1.87a2.34,2.34,0,0,0-1.36.43l-.29-.92a3.64,3.64,0,0,1,1.93-.54c1.64,0,2.35,1.08,2.35,2.93v3.57a13.72,13.72,0,0,0,.09,1.86Zm-.2-4.26c-.67,0-2.26.13-2.26,1.92,0,1.07.54,1.45,1,1.45s1.06-.43,1.21-1.23a1.91,1.91,0,0,0,0-.47Z" transform="translate(0 -3.06)"/><path class="cls-1" d="M133.16,82.53c0-1,0-1.46-.07-2.12h1.15l.06,1h0a2.1,2.1,0,0,1,1.89-1.12c1.14,0,2,.84,2,2.83v5.53h-1.3v-5.3c0-1-.19-2-1.15-2-.55,0-1.07.45-1.23,1.33a3.21,3.21,0,0,0-.07.74v5.18h-1.3Z" transform="translate(0 -3.06)"/><path class="cls-1" d="M145,76.86v9.8c0,.55,0,1.49.07,2H144l-.09-1h-.06a1.89,1.89,0,0,1-1.72,1.17c-1.39,0-2.4-1.5-2.4-4.22,0-2.91,1.22-4.27,2.48-4.27a1.6,1.6,0,0,1,1.51,1h0V76.86Zm-1.3,6.67a4.87,4.87,0,0,0,0-.54c-.08-.86-.58-1.6-1.22-1.6-1.09,0-1.46,1.51-1.46,3.15s.45,3.13,1.39,3.13c.4,0,1-.22,1.26-1.4a2.34,2.34,0,0,0,0-.55Z" transform="translate(0 -3.06)"/><path class="cls-1" d="M149.5,82.53c0-1-.05-1.46-.07-2.12h1.15l.06,1h0a2,2,0,0,1,1.85-1.15,1.71,1.71,0,0,1,1.72,1.25h0a2.81,2.81,0,0,1,.81-.94,2.07,2.07,0,0,1,1.14-.31c1.11,0,2,.81,2,2.91v5.45h-1.3V83.48c0-1.08-.15-2.12-1.14-2.12-.55,0-1,.47-1.21,1.24a4.17,4.17,0,0,0-.05.74v5.29h-1.3v-5.4c0-.9-.16-1.87-1.13-1.87-.54,0-1.07.47-1.22,1.34a3.88,3.88,0,0,0-.06.7v5.23H149.5Z" transform="translate(0 -3.06)"/><path class="cls-1" d="M163.29,88.63l-.09-.87h0a1.87,1.87,0,0,1-1.65,1,2.08,2.08,0,0,1-1.95-2.35c0-2,1.65-3,3.51-3v-.26c0-1.11-.28-1.87-1.32-1.87a2.39,2.39,0,0,0-1.36.43l-.28-.92a3.57,3.57,0,0,1,1.92-.54c1.65,0,2.35,1.08,2.35,2.93v3.57a13.72,13.72,0,0,0,.09,1.86Zm-.19-4.26c-.67,0-2.26.13-2.26,1.92,0,1.07.54,1.45,1,1.45s1.05-.43,1.21-1.23a2.56,2.56,0,0,0,0-.47Z" transform="translate(0 -3.06)"/><path class="cls-1" d="M167.68,78.22v2.19h1.57v1h-1.57v4.89c0,1.07.38,1.35.85,1.35a2.65,2.65,0,0,0,.53,0l.06,1a3,3,0,0,1-1,.13,1.63,1.63,0,0,1-1.29-.5,2.93,2.93,0,0,1-.49-2.06V81.4h-1v-1h1V78.6Z" transform="translate(0 -3.06)"/><path class="cls-1" d="M171.19,84.63c0,2.52,1,3.05,1.95,3.05a3,3,0,0,0,1.36-.3l.22,1a3.94,3.94,0,0,1-1.82.4c-2,0-3-1.61-3-4.13s1.13-4.33,2.77-4.33S175,82,175,83.89a7.26,7.26,0,0,1,0,.74Zm2.59-1c0-1.65-.6-2.38-1.22-2.38-.87,0-1.29,1.25-1.36,2.38Z" transform="translate(0 -3.06)"/><path class="cls-1" d="M176.43,82.53c0-.7-.05-1.51-.07-2.12h1.17l.06,1.28h0a2,2,0,0,1,1.72-1.42l.28,0v1.33h-.27a1.8,1.8,0,0,0-1.59,1.71,5.54,5.54,0,0,0-.05.75v4.56h-1.3Z" transform="translate(0 -3.06)"/><path class="cls-1" d="M182,78.27a.76.76,0,0,1-.8.85.77.77,0,0,1-.75-.85.79.79,0,0,1,.77-.85A.77.77,0,0,1,182,78.27Zm-1.42,10.36V80.41h1.31v8.22Z" transform="translate(0 -3.06)"/><path class="cls-1" d="M187,88.63l-.09-.87h0a1.85,1.85,0,0,1-1.65,1,2.08,2.08,0,0,1-1.95-2.35c0-2,1.65-3,3.52-3v-.26c0-1.11-.29-1.87-1.32-1.87a2.34,2.34,0,0,0-1.36.43l-.28-.92a3.57,3.57,0,0,1,1.92-.54c1.64,0,2.35,1.08,2.35,2.93v3.57a13.72,13.72,0,0,0,.09,1.86Zm-.2-4.26c-.67,0-2.26.13-2.26,1.92,0,1.07.54,1.45,1,1.45s1.06-.43,1.21-1.23a2.56,2.56,0,0,0,0-.47Z" transform="translate(0 -3.06)"/><path class="cls-1" d="M189.94,76.86h1.3V88.63h-1.3Z" transform="translate(0 -3.06)"/><path class="cls-1" d="M199.87,88.42a2.84,2.84,0,0,1-1.36.31c-1.8,0-3-1.45-3-4.17,0-2.36,1.2-4.28,3.26-4.28a2.62,2.62,0,0,1,1.16.26l-.26,1.07a2.05,2.05,0,0,0-.94-.23c-1.31,0-1.9,1.57-1.9,3.18,0,1.92.74,3.08,1.93,3.08a2,2,0,0,0,.95-.23Z" transform="translate(0 -3.06)"/><path class="cls-1" d="M201,76.86h1.3v4.43h0a2.54,2.54,0,0,1,.69-.73,2,2,0,0,1,1.09-.29c1,0,1.93.82,1.93,2.9v5.46h-1.31V83.32c0-1-.22-1.94-1.11-1.94-.6,0-1.07.43-1.27,1.3a3.11,3.11,0,0,0-.06.62v5.33H201Z" transform="translate(0 -3.06)"/><path class="cls-1" d="M211.13,88.63l-.09-.87h0a1.84,1.84,0,0,1-1.64,1,2.08,2.08,0,0,1-1.95-2.35c0-2,1.64-3,3.51-3v-.26c0-1.11-.29-1.87-1.32-1.87a2.36,2.36,0,0,0-1.36.43l-.28-.92a3.57,3.57,0,0,1,1.92-.54c1.65,0,2.35,1.08,2.35,2.93v3.57a13.72,13.72,0,0,0,.09,1.86Zm-.2-4.26c-.67,0-2.26.13-2.26,1.92,0,1.07.55,1.45,1,1.45s1.06-.43,1.21-1.23a1.91,1.91,0,0,0,0-.47Z" transform="translate(0 -3.06)"/><path class="cls-1" d="M214.05,82.53c0-.7-.05-1.51-.07-2.12h1.17l.06,1.28h0A2,2,0,0,1,217,80.27l.28,0v1.33H217a1.8,1.8,0,0,0-1.59,1.71,5.54,5.54,0,0,0-.05.75v4.56h-1.3Z" transform="translate(0 -3.06)"/><path class="cls-1" d="M221.43,88.63l-.09-.87h0a1.87,1.87,0,0,1-1.65,1,2.08,2.08,0,0,1-2-2.35c0-2,1.65-3,3.51-3v-.26c0-1.11-.28-1.87-1.32-1.87a2.36,2.36,0,0,0-1.36.43l-.28-.92a3.57,3.57,0,0,1,1.92-.54c1.65,0,2.35,1.08,2.35,2.93v3.57a13.72,13.72,0,0,0,.09,1.86Zm-.2-4.26c-.67,0-2.26.13-2.26,1.92,0,1.07.55,1.45,1,1.45s1-.43,1.21-1.23a2.53,2.53,0,0,0,0-.47Z" transform="translate(0 -3.06)"/><path class="cls-1" d="M228.37,88.42a2.78,2.78,0,0,1-1.36.31c-1.79,0-3-1.45-3-4.17,0-2.36,1.2-4.28,3.26-4.28a2.57,2.57,0,0,1,1.15.26l-.25,1.07a2.09,2.09,0,0,0-.94-.23c-1.31,0-1.9,1.57-1.9,3.18,0,1.92.74,3.08,1.93,3.08a2,2,0,0,0,.95-.23Z" transform="translate(0 -3.06)"/><path class="cls-1" d="M231.36,78.22v2.19h1.57v1h-1.57v4.89c0,1.07.38,1.35.85,1.35a2.65,2.65,0,0,0,.53,0l.06,1a3,3,0,0,1-1,.13,1.63,1.63,0,0,1-1.29-.5,2.93,2.93,0,0,1-.49-2.06V81.4h-1v-1h1V78.6Z" transform="translate(0 -3.06)"/><path class="cls-1" d="M234.87,84.63c0,2.52,1,3.05,1.95,3.05a3,3,0,0,0,1.36-.3l.22,1a3.94,3.94,0,0,1-1.82.4c-2,0-3-1.61-3-4.13s1.13-4.33,2.77-4.33,2.36,1.77,2.36,3.62a7.26,7.26,0,0,1,0,.74Zm2.59-1c0-1.65-.6-2.38-1.22-2.38-.87,0-1.29,1.25-1.35,2.38Z" transform="translate(0 -3.06)"/><path class="cls-1" d="M240.11,82.53c0-.7,0-1.51-.07-2.12h1.17l.07,1.28h0A2,2,0,0,1,243,80.27l.28,0v1.33h-.27a1.8,1.8,0,0,0-1.59,1.71,5.54,5.54,0,0,0-.05.75v4.56h-1.3Z" transform="translate(0 -3.06)"/><path class="cls-1" d="M245.72,78.27a.76.76,0,0,1-.8.85.77.77,0,0,1-.75-.85.79.79,0,0,1,.77-.85A.77.77,0,0,1,245.72,78.27ZM244.3,88.63V80.41h1.31v8.22Z" transform="translate(0 -3.06)"/><path class="cls-1" d="M247.21,87.26a2.5,2.5,0,0,0,1.33.43,1.11,1.11,0,0,0,1.21-1.19c0-.62-.23-1.06-1.05-1.61-1.07-.69-1.66-1.4-1.66-2.34a2.22,2.22,0,0,1,2.27-2.28,2.76,2.76,0,0,1,1.47.42l-.35,1a1.84,1.84,0,0,0-1.1-.37,1,1,0,0,0-1.06,1c0,.55.21.86,1,1.42a3,3,0,0,1,1.7,2.51,2.29,2.29,0,0,1-2.48,2.44,2.78,2.78,0,0,1-1.62-.48Z" transform="translate(0 -3.06)"/><path class="cls-1" d="M254,78.22v2.19h1.58v1H254v4.89c0,1.07.38,1.35.85,1.35a2.65,2.65,0,0,0,.53,0l.06,1a3,3,0,0,1-1,.13,1.64,1.64,0,0,1-1.29-.5,2.93,2.93,0,0,1-.49-2.06V81.4h-1v-1h1V78.6Z" transform="translate(0 -3.06)"/><path class="cls-1" d="M258.1,78.27a.77.77,0,0,1-.8.85.76.76,0,0,1-.75-.85.78.78,0,1,1,1.55,0Zm-1.42,10.36V80.41H258v8.22Z" transform="translate(0 -3.06)"/><path class="cls-1" d="M263.82,88.42a2.81,2.81,0,0,1-1.36.31c-1.8,0-3-1.45-3-4.17,0-2.36,1.19-4.28,3.25-4.28a2.62,2.62,0,0,1,1.16.26l-.26,1.07a2.05,2.05,0,0,0-.94-.23c-1.31,0-1.9,1.57-1.9,3.18,0,1.92.74,3.08,1.94,3.08a2,2,0,0,0,.94-.23Z" transform="translate(0 -3.06)"/><path class="cls-1" d="M264.72,87.26a2.5,2.5,0,0,0,1.33.43,1.11,1.11,0,0,0,1.21-1.19c0-.62-.23-1.06-1.05-1.61-1.08-.69-1.66-1.4-1.66-2.34a2.21,2.21,0,0,1,2.27-2.28,2.76,2.76,0,0,1,1.47.42l-.35,1a1.86,1.86,0,0,0-1.1-.37,1,1,0,0,0-1.06,1c0,.55.21.86,1,1.42a3,3,0,0,1,1.7,2.51A2.3,2.3,0,0,1,266,88.73a2.78,2.78,0,0,1-1.62-.48Z" transform="translate(0 -3.06)"/><path class="cls-1" d="M273.94,78.27a.76.76,0,0,1-.8.85.77.77,0,0,1-.75-.85.79.79,0,0,1,.77-.85A.77.77,0,0,1,273.94,78.27Zm-1.42,10.36V80.41h1.31v8.22Z" transform="translate(0 -3.06)"/><path class="cls-1" d="M275.65,82.53c0-1,0-1.46-.07-2.12h1.15l.06,1h0a2.07,2.07,0,0,1,1.88-1.12c1.14,0,2,.84,2,2.83v5.53h-1.3v-5.3c0-1-.19-2-1.15-2-.55,0-1.07.45-1.23,1.33a3.88,3.88,0,0,0-.07.74v5.18h-1.3Z" transform="translate(0 -3.06)"/><path class="cls-1" d="M286.13,84.63c0,2.52,1,3.05,1.94,3.05a3,3,0,0,0,1.36-.3l.22,1a3.94,3.94,0,0,1-1.82.4c-2,0-3-1.61-3-4.13s1.14-4.33,2.78-4.33S290,82,290,83.89a7.26,7.26,0,0,1,0,.74Zm2.58-1c0-1.65-.6-2.38-1.22-2.38-.86,0-1.29,1.25-1.35,2.38Z" transform="translate(0 -3.06)"/><path class="cls-1" d="M294.63,88.63l-.09-.87h0a1.87,1.87,0,0,1-1.65,1,2.08,2.08,0,0,1-2-2.35c0-2,1.65-3,3.51-3v-.26c0-1.11-.28-1.87-1.32-1.87a2.36,2.36,0,0,0-1.36.43l-.28-.92a3.57,3.57,0,0,1,1.92-.54c1.65,0,2.35,1.08,2.35,2.93v3.57a13.72,13.72,0,0,0,.09,1.86Zm-.2-4.26c-.67,0-2.26.13-2.26,1.92,0,1.07.55,1.45,1,1.45s1.05-.43,1.21-1.23a2.53,2.53,0,0,0,0-.47Z" transform="translate(0 -3.06)"/><path class="cls-1" d="M301.57,88.42a2.78,2.78,0,0,1-1.36.31c-1.79,0-3-1.45-3-4.17,0-2.36,1.2-4.28,3.26-4.28a2.57,2.57,0,0,1,1.15.26l-.25,1.07a2.09,2.09,0,0,0-.94-.23c-1.31,0-1.9,1.57-1.9,3.18,0,1.92.74,3.08,1.93,3.08a2,2,0,0,0,.95-.23Z" transform="translate(0 -3.06)"/><path class="cls-1" d="M302.7,76.86H304v4.43h0a2.3,2.3,0,0,1,.69-.73,2,2,0,0,1,1.09-.29c1.05,0,1.93.82,1.93,2.9v5.46h-1.31V83.32c0-1-.22-1.94-1.11-1.94-.61,0-1.07.43-1.27,1.3a3.11,3.11,0,0,0-.06.62v5.33h-1.3Z" transform="translate(0 -3.06)"/><path class="cls-1" d="M46.82,109c0-.47.07-1.42.07-2v-9.8h1.3v4.51h0a1.84,1.84,0,0,1,1.74-1.1c1.29,0,2.25,1.47,2.25,4.16,0,3-1.23,4.33-2.49,4.33A1.7,1.7,0,0,1,48.08,108h0L47.94,109Zm1.37-2.91a2,2,0,0,0,.05.51c.31,1.22.87,1.44,1.23,1.44,1.05,0,1.42-1.43,1.42-3.17s-.38-3.11-1.44-3.11c-.61,0-1.11.75-1.22,1.47a3.43,3.43,0,0,0,0,.56Z" transform="translate(0 -3.06)"/><path class="cls-1" d="M58.62,106.79c0,.9,0,1.63.07,2.24H57.54l-.09-.86h0a2.16,2.16,0,0,1-1.76,1c-1.44,0-2-1.12-2-3.16v-5.19H55v5c0,1.29.21,2.25,1.1,2.25a1.27,1.27,0,0,0,1.18-1.1,3.29,3.29,0,0,0,.07-.73v-5.42h1.31Z" transform="translate(0 -3.06)"/><path class="cls-1" d="M64.46,108.83a2.91,2.91,0,0,1-1.36.3c-1.79,0-3-1.45-3-4.17,0-2.36,1.2-4.28,3.26-4.28a2.57,2.57,0,0,1,1.15.26L64.24,102a2,2,0,0,0-.93-.23c-1.32,0-1.9,1.57-1.9,3.18,0,1.92.74,3.08,1.93,3.08a2,2,0,0,0,1-.23Z" transform="translate(0 -3.06)"/><path class="cls-1" d="M66.87,104.63h0c.15-.33.29-.64.44-.93L69,100.81h1.41l-2.17,3.45L70.59,109H69.13l-1.79-3.88-.47.77V109h-1.3V97.26h1.3Z" transform="translate(0 -3.06)"/><path class="cls-1" d="M72.27,105c0,2.52,1,3,2,3a3,3,0,0,0,1.36-.3l.21,1a3.9,3.9,0,0,1-1.81.4c-2,0-3-1.61-3-4.13s1.13-4.33,2.77-4.33,2.35,1.77,2.35,3.62c0,.33,0,.54,0,.74Zm2.59-1c0-1.65-.6-2.38-1.22-2.38-.87,0-1.3,1.25-1.36,2.38Z" transform="translate(0 -3.06)"/><path class="cls-1" d="M79.12,98.62v2.19H80.7v1H79.12v4.89c0,1.07.39,1.35.86,1.35a2.65,2.65,0,0,0,.53-.05l.06,1a3,3,0,0,1-1,.13,1.63,1.63,0,0,1-1.29-.5,2.93,2.93,0,0,1-.49-2.06V101.8h-1v-1h1V99Z" transform="translate(0 -3.06)"/><path class="cls-1" d="M89.57,104.91c0,3.18-1.48,4.25-2.73,4.25-1.48,0-2.68-1.34-2.68-4.23s1.35-4.26,2.76-4.26S89.57,102.05,89.57,104.91Zm-4.09,0c0,1.36.24,3.21,1.42,3.21s1.36-1.92,1.36-3.21-.23-3.19-1.39-3.19S85.48,103.65,85.48,104.91Z" transform="translate(0 -3.06)"/><path class="cls-1" d="M91.31,109V101.8h-1v-1h1v-.51A3.65,3.65,0,0,1,92,97.83a2.18,2.18,0,0,1,1.64-.7,2.32,2.32,0,0,1,1,.2l-.22,1a1.7,1.7,0,0,0-.71-.14c-.94,0-1.17,1-1.17,2.06v.53h1.51v1H92.61V109Z" transform="translate(0 -3.06)"/><path class="cls-1" d="M97.35,107.66a2.53,2.53,0,0,0,1.34.43,1.11,1.11,0,0,0,1.21-1.19c0-.62-.23-1.06-1.05-1.61-1.08-.69-1.67-1.4-1.67-2.34a2.22,2.22,0,0,1,2.28-2.28,2.72,2.72,0,0,1,1.46.42l-.35,1a1.83,1.83,0,0,0-1.09-.37,1,1,0,0,0-1.06,1.05c0,.55.21.86,1,1.42a3,3,0,0,1,1.7,2.51,2.3,2.3,0,0,1-2.48,2.44,2.78,2.78,0,0,1-1.62-.48Z" transform="translate(0 -3.06)"/><path class="cls-1" d="M102.49,97.26h1.31v4.43h0a2.44,2.44,0,0,1,.7-.73,2,2,0,0,1,1.09-.29c1,0,1.92.82,1.92,2.9V109h-1.3v-5.31c0-1-.23-1.94-1.12-1.94-.6,0-1.07.43-1.27,1.3a4.1,4.1,0,0,0,0,.62V109h-1.31Z" transform="translate(0 -3.06)"/><path class="cls-1" d="M114.43,104.91c0,3.18-1.48,4.25-2.74,4.25-1.47,0-2.67-1.34-2.67-4.23s1.34-4.26,2.76-4.26S114.43,102.05,114.43,104.91Zm-4.1,0c0,1.36.25,3.21,1.42,3.21s1.36-1.92,1.36-3.21-.23-3.19-1.39-3.19S110.33,103.65,110.33,104.91Z" transform="translate(0 -3.06)"/><path class="cls-1" d="M116.43,100.81l1,4.61c.12.56.25,1.29.36,2h0c.09-.68.23-1.37.34-2l1-4.61h1.31L118.38,109h-1.16l-2.15-8.22Z" transform="translate(0 -3.06)"/><path class="cls-1" d="M122.37,105c0,2.52,1,3,1.94,3a3,3,0,0,0,1.37-.3l.21,1a3.93,3.93,0,0,1-1.81.4c-2,0-3-1.61-3-4.13s1.14-4.33,2.78-4.33,2.35,1.77,2.35,3.62c0,.33,0,.54,0,.74Zm2.58-1c0-1.65-.6-2.38-1.22-2.38-.86,0-1.29,1.25-1.35,2.38Z" transform="translate(0 -3.06)"/><path class="cls-1" d="M127.62,97.26h1.3V109h-1.3Z" transform="translate(0 -3.06)"/><path class="cls-1" d="M130.64,107.66a2.5,2.5,0,0,0,1.33.43,1.12,1.12,0,0,0,1.22-1.19c0-.62-.24-1.06-1.06-1.61-1.07-.69-1.66-1.4-1.66-2.34a2.22,2.22,0,0,1,2.27-2.28,2.73,2.73,0,0,1,1.47.42l-.35,1a1.84,1.84,0,0,0-1.1-.37,1,1,0,0,0-1.06,1.05c0,.55.21.86,1,1.42a3,3,0,0,1,1.71,2.51,2.3,2.3,0,0,1-2.48,2.44,2.84,2.84,0,0,1-1.63-.48Z" transform="translate(0 -3.06)"/><path class="cls-1" d="M143.49,104.91c0,3.18-1.47,4.25-2.73,4.25-1.47,0-2.68-1.34-2.68-4.23s1.35-4.26,2.77-4.26S143.49,102.05,143.49,104.91Zm-4.09,0c0,1.36.25,3.21,1.42,3.21s1.36-1.92,1.36-3.21-.23-3.19-1.39-3.19S139.4,103.65,139.4,104.91Z" transform="translate(0 -3.06)"/><path class="cls-1" d="M145,102.93c0-.7,0-1.51-.07-2.12H146l.07,1.28h0a2,2,0,0,1,1.72-1.42l.28,0V102h-.27a1.78,1.78,0,0,0-1.58,1.71,4.28,4.28,0,0,0-.05.75V109H145Z" transform="translate(0 -3.06)"/><path class="cls-1" d="M152.12,109V101.8h-1v-1h1v-.51a3.6,3.6,0,0,1,.73-2.47,2.18,2.18,0,0,1,1.64-.7,2.32,2.32,0,0,1,1,.2l-.22,1a1.73,1.73,0,0,0-.71-.14c-1,0-1.17,1-1.17,2.06v.53h1.51v1h-1.51V109Z" transform="translate(0 -3.06)"/><path class="cls-1" d="M155.71,102.93c0-.7-.05-1.51-.07-2.12h1.16l.07,1.28h0a2,2,0,0,1,1.73-1.42l.27,0V102h-.27a1.78,1.78,0,0,0-1.58,1.71,5.54,5.54,0,0,0-.05.75V109h-1.3Z" transform="translate(0 -3.06)"/><path class="cls-1" d="M164.74,104.91c0,3.18-1.47,4.25-2.73,4.25-1.47,0-2.68-1.34-2.68-4.23s1.35-4.26,2.77-4.26S164.74,102.05,164.74,104.91Zm-4.09,0c0,1.36.25,3.21,1.42,3.21s1.36-1.92,1.36-3.21-.23-3.19-1.39-3.19S160.65,103.65,160.65,104.91Z" transform="translate(0 -3.06)"/><path class="cls-1" d="M166.21,102.93c0-1-.05-1.46-.07-2.12h1.14l.07,1h0a2.08,2.08,0,0,1,1.88-1.12c1.14,0,2,.84,2,2.83V109H170v-5.3c0-1-.19-2-1.14-2-.55,0-1.07.45-1.24,1.33a4,4,0,0,0-.06.74V109h-1.3Z" transform="translate(0 -3.06)"/><path class="cls-1" d="M174.59,98.62v2.19h1.58v1h-1.58v4.89c0,1.07.39,1.35.86,1.35A2.65,2.65,0,0,0,176,108l.06,1a3,3,0,0,1-1,.13,1.63,1.63,0,0,1-1.29-.5,2.93,2.93,0,0,1-.49-2.06V101.8h-1v-1h1V99Z" transform="translate(0 -3.06)"/><path class="cls-1" d="M180.92,105c0,2.52,1,3,1.94,3a3,3,0,0,0,1.36-.3l.22,1a3.94,3.94,0,0,1-1.82.4c-2,0-3-1.61-3-4.13s1.14-4.33,2.77-4.33,2.36,1.77,2.36,3.62a7.12,7.12,0,0,1,0,.74Zm2.58-1c0-1.65-.6-2.38-1.22-2.38-.86,0-1.29,1.25-1.35,2.38Z" transform="translate(0 -3.06)"/><path class="cls-1" d="M186.16,102.93c0-1,0-1.46-.06-2.12h1.14l.06,1h0a2.08,2.08,0,0,1,1.88-1.12c1.14,0,2,.84,2,2.83V109h-1.3v-5.3c0-1-.19-2-1.14-2-.56,0-1.07.45-1.24,1.33a4,4,0,0,0-.06.74V109h-1.31Z" transform="translate(0 -3.06)"/><path class="cls-1" d="M198,97.26v9.8c0,.55.05,1.49.07,2H197l-.09-1h-.06a1.89,1.89,0,0,1-1.72,1.16c-1.39,0-2.39-1.5-2.39-4.21,0-2.92,1.22-4.28,2.48-4.28a1.58,1.58,0,0,1,1.5,1h0V97.26Zm-1.3,6.67a4.87,4.87,0,0,0,0-.54c-.07-.86-.58-1.6-1.22-1.6-1.08,0-1.46,1.51-1.46,3.15s.45,3.13,1.39,3.13c.41,0,1-.22,1.26-1.4a2.34,2.34,0,0,0,0-.55Z" transform="translate(0 -3.06)"/><path class="cls-1" d="M202.5,97.26h1.3V109h-1.3Z" transform="translate(0 -3.06)"/><path class="cls-1" d="M210.8,104.91c0,3.18-1.48,4.25-2.74,4.25-1.47,0-2.67-1.34-2.67-4.23s1.34-4.26,2.76-4.26S210.8,102.05,210.8,104.91Zm-4.1,0c0,1.36.25,3.21,1.42,3.21s1.36-1.92,1.36-3.21-.23-3.19-1.39-3.19S206.7,103.65,206.7,104.91Z" transform="translate(0 -3.06)"/><path class="cls-1" d="M215.51,109l-.09-.87h0a1.86,1.86,0,0,1-1.65,1,2.08,2.08,0,0,1-1.95-2.35c0-2,1.65-3,3.51-3v-.26c0-1.11-.28-1.87-1.32-1.87a2.39,2.39,0,0,0-1.36.43l-.28-.92a3.57,3.57,0,0,1,1.92-.54c1.65,0,2.36,1.08,2.36,2.93v3.57a15.65,15.65,0,0,0,.08,1.86Zm-.19-4.26c-.67,0-2.26.13-2.26,1.92,0,1.07.54,1.45,1,1.45s1.05-.43,1.21-1.23a2.56,2.56,0,0,0,0-.47Z" transform="translate(0 -3.06)"/><path class="cls-1" d="M223.4,97.26v9.8c0,.55,0,1.49.07,2h-1.12l-.09-1h-.06a1.89,1.89,0,0,1-1.72,1.16c-1.39,0-2.4-1.5-2.4-4.21,0-2.92,1.22-4.28,2.48-4.28a1.6,1.6,0,0,1,1.51,1h0V97.26Zm-1.3,6.67a4.87,4.87,0,0,0,0-.54c-.07-.86-.58-1.6-1.22-1.6-1.08,0-1.46,1.51-1.46,3.15s.45,3.13,1.39,3.13c.4,0,1-.22,1.26-1.4a2.34,2.34,0,0,0,0-.55Z" transform="translate(0 -3.06)"/><path class="cls-1" d="M226.15,105c0,2.52,1,3,1.95,3a3,3,0,0,0,1.36-.3l.21,1a3.9,3.9,0,0,1-1.81.4c-2,0-3-1.61-3-4.13s1.13-4.33,2.77-4.33,2.35,1.77,2.35,3.62c0,.33,0,.54,0,.74Zm2.59-1c0-1.65-.6-2.38-1.22-2.38-.87,0-1.3,1.25-1.36,2.38Z" transform="translate(0 -3.06)"/><path class="cls-1" d="M231.39,102.93c0-.7,0-1.51-.07-2.12h1.17l.06,1.28h0a2,2,0,0,1,1.72-1.42l.27,0V102h-.27a1.79,1.79,0,0,0-1.58,1.71,5.54,5.54,0,0,0-.05.75V109h-1.3Z" transform="translate(0 -3.06)"/><path class="cls-1" d="M235.39,107.66a2.5,2.5,0,0,0,1.33.43,1.12,1.12,0,0,0,1.22-1.19c0-.62-.23-1.06-1.06-1.61-1.07-.69-1.66-1.4-1.66-2.34a2.22,2.22,0,0,1,2.27-2.28,2.73,2.73,0,0,1,1.47.42l-.35,1a1.83,1.83,0,0,0-1.09-.37,1,1,0,0,0-1.07,1.05c0,.55.21.86,1,1.42a3,3,0,0,1,1.71,2.51,2.3,2.3,0,0,1-2.48,2.44,2.84,2.84,0,0,1-1.63-.48Z" transform="translate(0 -3.06)"/><path class="cls-1" d="M240.23,108.18a.92.92,0,0,1,.87-1,.88.88,0,0,1,.86,1,.87.87,0,0,1-.87,1A.89.89,0,0,1,240.23,108.18Z" transform="translate(0 -3.06)"/><rect class="cls-2" width="14.22" height="12.96"/><rect class="cls-2" x="15.27" width="14.22" height="12.96"/><rect class="cls-2" x="15.27" y="14.32" width="14.22" height="12.96"/></g></g></svg>