<svg xmlns="http://www.w3.org/2000/svg" viewBox="0 0 180.56 102.76"><defs><style>.cls-1{fill:#1d1d1b;}</style></defs><title>Asset 14</title><g id="Layer_2" data-name="Layer 2"><g id="Layer_7" data-name="Layer 7"><path class="cls-1" d="M.42,10.33V.27H1.5L3.34,5c.42,1.08.94,2.41,1.29,3.5h0c-.09-1.59-.14-2.88-.14-4.62V.27h1V10.33H4.47L2.56,5.49A32.8,32.8,0,0,1,1.37,2.08h0c.08,1.34.11,2.62.11,4.76v3.49Z"/><path class="cls-1" d="M11.56,8.36c0,.8,0,1.43.06,2h-1l-.07-.76h0A1.9,1.9,0,0,1,9,10.45c-1.26,0-1.76-1-1.76-2.78V3.11H8.35V7.5c0,1.14.18,2,1,2a1.11,1.11,0,0,0,1-1,2.58,2.58,0,0,0,.06-.64V3.11h1.15Z"/><path class="cls-1" d="M14,6.82C14,9,14.86,9.5,15.69,9.5a2.55,2.55,0,0,0,1.19-.27l.19.84a3.55,3.55,0,0,1-1.59.35c-1.73,0-2.63-1.42-2.63-3.63s1-3.8,2.44-3.8,2.06,1.55,2.06,3.18c0,.28,0,.48,0,.65ZM16.25,6c0-1.44-.53-2.08-1.07-2.08C14.42,3.89,14,5,14,6Z"/><path class="cls-1" d="M18.39,9.13a2.25,2.25,0,0,0,1.17.38,1,1,0,0,0,1.07-1c0-.55-.21-.93-.93-1.41-.94-.61-1.46-1.23-1.46-2.06a1.94,1.94,0,0,1,2-2,2.4,2.4,0,0,1,1.28.37l-.3.87a1.66,1.66,0,0,0-1-.33.9.9,0,0,0-.94.92c0,.49.19.76.9,1.25a2.65,2.65,0,0,1,1.49,2.2,2,2,0,0,1-2.17,2.15A2.5,2.5,0,0,1,18.11,10Z"/><path class="cls-1" d="M24.31,1.19V3.11h1.38V4H24.31V8.27c0,.94.34,1.19.75,1.19a2.11,2.11,0,0,0,.47,0l0,.88a2.4,2.4,0,0,1-.85.12A1.44,1.44,0,0,1,23.6,10a2.53,2.53,0,0,1-.43-1.81V4h-.89V3.11h.89V1.52Z"/><path class="cls-1" d="M26.7,5c0-.61,0-1.32-.06-1.86h1l.06,1.13h0A1.74,1.74,0,0,1,29.27,3h.24V4.18h-.23a1.57,1.57,0,0,0-1.4,1.5,6.15,6.15,0,0,0,0,.66v4H26.7Z"/><path class="cls-1" d="M34.63,6.71c0,2.79-1.29,3.74-2.4,3.74-1.29,0-2.35-1.19-2.35-3.72S31.06,3,32.31,3,34.63,4.2,34.63,6.71ZM31,6.71c0,1.2.21,2.82,1.25,2.82s1.19-1.69,1.19-2.82-.2-2.8-1.22-2.8S31,5.61,31,6.71Z"/><path class="cls-1" d="M38.06,9.13a2.28,2.28,0,0,0,1.17.38,1,1,0,0,0,1.07-1c0-.55-.2-.93-.92-1.41-1-.61-1.46-1.23-1.46-2.06a1.94,1.94,0,0,1,2-2,2.44,2.44,0,0,1,1.29.37l-.31.87a1.63,1.63,0,0,0-1-.33.89.89,0,0,0-.93.92c0,.49.18.76.9,1.25a2.67,2.67,0,0,1,1.49,2.2,2,2,0,0,1-2.18,2.15A2.49,2.49,0,0,1,37.79,10Z"/><path class="cls-1" d="M43.82,1.24a.66.66,0,0,1-.7.74.68.68,0,0,1-.66-.74.68.68,0,0,1,.68-.75A.67.67,0,0,1,43.82,1.24Zm-1.24,9.09V3.11h1.14v7.22Z"/><path class="cls-1" d="M45.12,9.13a2.28,2.28,0,0,0,1.17.38,1,1,0,0,0,1.07-1c0-.55-.2-.93-.92-1.41C45.49,6.44,45,5.82,45,5a1.94,1.94,0,0,1,2-2,2.44,2.44,0,0,1,1.29.37L48,4.23a1.63,1.63,0,0,0-1-.33.89.89,0,0,0-.93.92c0,.49.18.76.9,1.25a2.67,2.67,0,0,1,1.49,2.2,2,2,0,0,1-2.18,2.15A2.49,2.49,0,0,1,44.85,10Z"/><path class="cls-1" d="M51,1.19V3.11h1.39V4H51V8.27c0,.94.34,1.19.76,1.19a2.07,2.07,0,0,0,.46,0l.05.88a2.32,2.32,0,0,1-.85.12A1.44,1.44,0,0,1,50.33,10a2.58,2.58,0,0,1-.43-1.81V4H49V3.11h.88V1.52Z"/><path class="cls-1" d="M54.13,6.82C54.14,9,55,9.5,55.84,9.5A2.63,2.63,0,0,0,57,9.23l.19.84a3.56,3.56,0,0,1-1.6.35C53.9,10.42,53,9,53,6.79S54,3,55.44,3s2.07,1.55,2.07,3.18a5.55,5.55,0,0,1,0,.65ZM56.4,6c0-1.44-.52-2.08-1.07-2.08C54.57,3.89,54.2,5,54.15,6Z"/><path class="cls-1" d="M58.74,5c0-.85,0-1.28-.06-1.86h1l.06.89h0A1.77,1.77,0,0,1,61.4,3a1.5,1.5,0,0,1,1.51,1.1h0a2.36,2.36,0,0,1,.71-.83,1.87,1.87,0,0,1,1-.27c1,0,1.74.71,1.74,2.55v4.79H65.25V5.81c0-.95-.14-1.86-1-1.86-.48,0-.89.4-1.06,1.08a3.3,3.3,0,0,0,0,.65v4.65H62V5.59C62,4.8,61.85,4,61,4c-.47,0-.94.41-1.07,1.17a4,4,0,0,0,0,.62v4.59H58.74Z"/><path class="cls-1" d="M70.85,10.33l-.07-.77h0a1.63,1.63,0,0,1-1.45.89,1.84,1.84,0,0,1-1.71-2.07c0-1.8,1.44-2.6,3.08-2.61V5.54c0-1-.25-1.65-1.16-1.65a2.13,2.13,0,0,0-1.19.38l-.25-.81A3.16,3.16,0,0,1,69.75,3c1.44,0,2.06.94,2.06,2.57V8.69a12.17,12.17,0,0,0,.08,1.64Zm-.17-3.74c-.59,0-2,.12-2,1.68,0,.94.48,1.28.89,1.28s.92-.38,1.06-1.08a2,2,0,0,0,0-.42Z"/><path class="cls-1" d="M75.64,9a3,3,0,0,0,1.44.41A1.58,1.58,0,0,0,78.76,7.7a2.56,2.56,0,0,0-1.33-2.09,3.72,3.72,0,0,1-1.89-2.79A2.54,2.54,0,0,1,78.2.18a2.69,2.69,0,0,1,1.41.37l-.28,1a2.14,2.14,0,0,0-1.2-.34,1.39,1.39,0,0,0-1.45,1.44c0,1,.52,1.39,1.48,2.06a3.48,3.48,0,0,1,1.75,2.9,2.7,2.7,0,0,1-2.82,2.83,3.38,3.38,0,0,1-1.7-.44Z"/><path class="cls-1" d="M81.21,0h1.14V3.88h0A2.16,2.16,0,0,1,83,3.25,1.67,1.67,0,0,1,84,3c.92,0,1.69.72,1.69,2.55v4.79H84.5V5.67c0-.89-.2-1.71-1-1.71-.53,0-.94.39-1.12,1.15a3.19,3.19,0,0,0-.05.54v4.68H81.21Z"/><path class="cls-1" d="M91.69,6.71c0,2.79-1.3,3.74-2.41,3.74-1.29,0-2.34-1.19-2.34-3.72S88.12,3,89.36,3,91.69,4.2,91.69,6.71Zm-3.6,0c0,1.2.22,2.82,1.25,2.82s1.19-1.69,1.19-2.82-.2-2.8-1.22-2.8S88.09,5.61,88.09,6.71Z"/><path class="cls-1" d="M93.44,3.11l.92,4.05c.1.49.22,1.13.32,1.76h0c.08-.6.2-1.21.3-1.76l.89-4.05h1.14l-1.89,7.22h-1L92.25,3.11Z"/><path class="cls-1" d="M98.66,6.82c0,2.21.88,2.68,1.71,2.68a2.63,2.63,0,0,0,1.2-.27l.18.84a3.52,3.52,0,0,1-1.59.35c-1.73,0-2.63-1.42-2.63-3.63S98.53,3,100,3,102,4.54,102,6.17a5.55,5.55,0,0,1,0,.65ZM100.93,6c0-1.44-.52-2.08-1.07-2.08C99.1,3.89,98.73,5,98.67,6Z"/><path class="cls-1" d="M103.27,0h1.15V10.33h-1.15Z"/><path class="cls-1" d="M106,9a3,3,0,0,0,1.44.41,1.58,1.58,0,0,0,1.68-1.71,2.56,2.56,0,0,0-1.33-2.09,3.72,3.72,0,0,1-1.89-2.79A2.54,2.54,0,0,1,108.55.18a2.65,2.65,0,0,1,1.4.37l-.27,1a2.14,2.14,0,0,0-1.2-.34A1.38,1.38,0,0,0,107,2.63c0,1,.52,1.39,1.48,2.06a3.46,3.46,0,0,1,1.74,2.9,2.69,2.69,0,0,1-2.81,2.83,3.38,3.38,0,0,1-1.7-.44Z"/><path class="cls-1" d="M112.42,6.82c0,2.21.88,2.68,1.71,2.68a2.63,2.63,0,0,0,1.2-.27l.19.84a3.56,3.56,0,0,1-1.6.35c-1.73,0-2.62-1.42-2.62-3.63s1-3.8,2.43-3.8,2.07,1.55,2.07,3.18c0,.28,0,.48,0,.65ZM114.69,6c0-1.44-.52-2.08-1.07-2.08-.76,0-1.13,1.09-1.18,2.08Z"/><path class="cls-1" d="M117,5c0-.85,0-1.28-.06-1.86h1L118,4h0a1.83,1.83,0,0,1,1.66-1c1,0,1.75.74,1.75,2.49v4.85h-1.15V5.67c0-.86-.16-1.71-1-1.71-.49,0-.94.4-1.09,1.17a4,4,0,0,0,0,.65v4.55H117Z"/><path class="cls-1" d="M122.88,9.13a2.25,2.25,0,0,0,1.17.38,1,1,0,0,0,1.07-1c0-.55-.21-.93-.93-1.41-.94-.61-1.46-1.23-1.46-2.06a1.94,1.94,0,0,1,2-2,2.4,2.4,0,0,1,1.28.37l-.3.87a1.66,1.66,0,0,0-1-.33.9.9,0,0,0-.94.92c0,.49.19.76.9,1.25a2.65,2.65,0,0,1,1.49,2.2A2,2,0,0,1,124,10.42,2.5,2.5,0,0,1,122.6,10Z"/><path class="cls-1" d="M128.2,6.82c0,2.21.88,2.68,1.71,2.68a2.63,2.63,0,0,0,1.2-.27l.18.84a3.52,3.52,0,0,1-1.59.35c-1.73,0-2.63-1.42-2.63-3.63s1-3.8,2.44-3.8,2.07,1.55,2.07,3.18a5.55,5.55,0,0,1,0,.65ZM130.47,6c0-1.44-.52-2.08-1.07-2.08-.76,0-1.13,1.09-1.19,2.08Z"/><path class="cls-1" d="M137.65,2.55A2.52,2.52,0,1,1,135.14.1,2.46,2.46,0,0,1,137.65,2.55Zm-4.4,0a1.9,1.9,0,0,0,1.91,2A1.88,1.88,0,0,0,137,2.57a1.89,1.89,0,1,0-3.77,0Zm1.5,1.28h-.56V1.39a4.42,4.42,0,0,1,.94-.08,1.57,1.57,0,0,1,.85.18.71.71,0,0,1,.24.54.63.63,0,0,1-.51.57v0a.73.73,0,0,1,.45.59,1.68,1.68,0,0,0,.17.61h-.61a2,2,0,0,1-.19-.59c-.05-.27-.2-.39-.51-.39h-.27Zm0-1.38H135c.31,0,.56-.11.56-.36s-.16-.37-.52-.37a1.09,1.09,0,0,0-.31,0Z"/><path class="cls-1" d="M.31,23.27c0-1.11,0-1.74-.06-2.25h1l.06.92h0a1.67,1.67,0,0,1,1.53-1C4.14,20.9,5,22.23,5,24.61c0,2.68-1.1,3.75-2.23,3.75a1.36,1.36,0,0,1-1.26-.84h0V31.1H.31Zm1.14,2.32a2.71,2.71,0,0,0,.05.59c.23,1,.74,1.22,1.06,1.22.95,0,1.26-1.31,1.26-2.76s-.36-2.76-1.28-2.76c-.52,0-1,.66-1,1.31a3.31,3.31,0,0,0,0,.55Z"/><path class="cls-1" d="M6.26,22.89c0-.61,0-1.33-.06-1.87h1l.06,1.13h0A1.76,1.76,0,0,1,8.84,20.9l.24,0v1.17H8.84a1.56,1.56,0,0,0-1.39,1.5,4.41,4.41,0,0,0,0,.66v4H6.26Z"/><path class="cls-1" d="M14.2,24.62c0,2.8-1.3,3.74-2.4,3.74-1.3,0-2.35-1.18-2.35-3.72s1.18-3.74,2.42-3.74S14.2,22.11,14.2,24.62Zm-3.6,0c0,1.19.22,2.81,1.25,2.81S13,25.75,13,24.63s-.2-2.81-1.22-2.81S10.6,23.52,10.6,24.63Z"/><path class="cls-1" d="M15.47,23.27c0-1.11,0-1.74-.06-2.25h1l.06.92h0a1.66,1.66,0,0,1,1.52-1c1.26,0,2.09,1.33,2.09,3.71,0,2.68-1.11,3.75-2.23,3.75a1.38,1.38,0,0,1-1.27-.84h0V31.1H15.47Zm1.14,2.32a2.68,2.68,0,0,0,.06.59c.22,1,.74,1.22,1,1.22,1,0,1.26-1.31,1.26-2.76s-.36-2.76-1.27-2.76c-.52,0-1,.66-1.05,1.31a2.5,2.5,0,0,0-.05.55Z"/><path class="cls-1" d="M25.87,24.62c0,2.8-1.3,3.74-2.4,3.74-1.29,0-2.35-1.18-2.35-3.72s1.18-3.74,2.43-3.74S25.87,22.11,25.87,24.62Zm-3.59,0c0,1.19.21,2.81,1.25,2.81s1.19-1.69,1.19-2.81-.21-2.81-1.22-2.81S22.28,23.52,22.28,24.63Z"/><path class="cls-1" d="M27.15,22.89c0-.61,0-1.33-.06-1.87h1l.06,1.13h0a1.74,1.74,0,0,1,1.51-1.25l.24,0v1.17h-.23a1.57,1.57,0,0,0-1.4,1.5,4.41,4.41,0,0,0,0,.66v4H27.15Z"/><path class="cls-1" d="M34.17,28.06a2.43,2.43,0,0,1-1.19.27c-1.58,0-2.65-1.27-2.65-3.66,0-2.07,1.05-3.76,2.86-3.76a2.33,2.33,0,0,1,1,.23l-.23.94a1.76,1.76,0,0,0-.82-.2c-1.16,0-1.67,1.37-1.67,2.79,0,1.69.65,2.7,1.7,2.7a1.67,1.67,0,0,0,.83-.2Z"/><path class="cls-1" d="M36.4,19.15a.67.67,0,0,1-.7.75.68.68,0,0,1-.66-.75.69.69,0,0,1,.68-.75A.67.67,0,0,1,36.4,19.15Zm-1.24,9.09V21H36.3v7.22Z"/><path class="cls-1" d="M42.34,24.62c0,2.8-1.3,3.74-2.41,3.74-1.29,0-2.34-1.18-2.34-3.72S38.77,20.9,40,20.9,42.34,22.11,42.34,24.62Zm-3.6,0c0,1.19.22,2.81,1.25,2.81s1.19-1.69,1.19-2.81S41,21.82,40,21.82,38.74,23.52,38.74,24.63Z"/><path class="cls-1" d="M43.62,22.89c0-.85,0-1.29-.06-1.87h1l0,.87h0a1.84,1.84,0,0,1,1.66-1c1,0,1.74.74,1.74,2.49v4.85H46.91V23.59c0-.86-.17-1.72-1-1.72-.49,0-.94.4-1.09,1.18a3,3,0,0,0,0,.64v4.55H43.62Z"/><path class="cls-1" d="M52.52,28.24l-.07-.76h0a1.65,1.65,0,0,1-1.45.88c-1,0-1.71-.81-1.71-2.07,0-1.8,1.44-2.59,3.08-2.61v-.23c0-1-.25-1.64-1.16-1.64a2.12,2.12,0,0,0-1.19.37l-.25-.8a3.15,3.15,0,0,1,1.69-.48c1.44,0,2.06,1,2.06,2.57v3.14a12.11,12.11,0,0,0,.08,1.63Zm-.17-3.74c-.59,0-2,.12-2,1.69,0,.94.48,1.27.89,1.27s.92-.38,1.06-1.08a1.93,1.93,0,0,0,0-.41Z"/><path class="cls-1" d="M61.79,17.91v8.6c0,.49,0,1.31.06,1.73h-1l-.08-.91h0a1.66,1.66,0,0,1-1.51,1c-1.22,0-2.1-1.32-2.1-3.7,0-2.56,1.07-3.76,2.17-3.76a1.39,1.39,0,0,1,1.32.86h0V17.91Zm-1.14,5.85a3.7,3.7,0,0,0,0-.47c-.06-.75-.51-1.41-1.07-1.41-1,0-1.28,1.33-1.28,2.77s.4,2.75,1.22,2.75c.36,0,.85-.19,1.11-1.23a2.39,2.39,0,0,0,0-.48Z"/><path class="cls-1" d="M66.26,28.24l-.08-.76h0a1.64,1.64,0,0,1-1.45.88A1.84,1.84,0,0,1,63,26.29c0-1.8,1.45-2.59,3.08-2.61v-.23c0-1-.24-1.64-1.15-1.64a2.13,2.13,0,0,0-1.2.37l-.25-.8a3.18,3.18,0,0,1,1.69-.48c1.45,0,2.07,1,2.07,2.57v3.14a14.09,14.09,0,0,0,.07,1.63Zm-.17-3.74c-.59,0-2,.12-2,1.69,0,.94.48,1.27.89,1.27s.93-.38,1.06-1.08a2,2,0,0,0,0-.41Z"/><path class="cls-1" d="M70.11,19.1V21h1.38v.87H70.11v4.3c0,.94.33,1.18.75,1.18a2.07,2.07,0,0,0,.46,0l.06.89a2.72,2.72,0,0,1-.86.11,1.43,1.43,0,0,1-1.13-.44A2.58,2.58,0,0,1,69,26.08V21.89h-.88V21H69V19.43Z"/><path class="cls-1" d="M76.82,24.62c0,2.8-1.3,3.74-2.4,3.74-1.3,0-2.35-1.18-2.35-3.72s1.18-3.74,2.42-3.74S76.82,22.11,76.82,24.62Zm-3.59,0c0,1.19.21,2.81,1.24,2.81s1.19-1.69,1.19-2.81-.2-2.81-1.22-2.81S73.23,23.52,73.23,24.63Z"/><path class="cls-1" d="M77.91,27a2.21,2.21,0,0,0,1.16.38,1,1,0,0,0,1.07-1.05c0-.54-.2-.93-.92-1.41-1-.61-1.46-1.23-1.46-2.06a1.94,1.94,0,0,1,2-2,2.44,2.44,0,0,1,1.29.37l-.31.87a1.63,1.63,0,0,0-1-.32.89.89,0,0,0-.93.92c0,.48.18.75.9,1.24a2.67,2.67,0,0,1,1.49,2.21,2,2,0,0,1-2.18,2.14,2.41,2.41,0,0,1-1.42-.42Z"/><path class="cls-1" d="M85.34,21l.91,4.06c.11.48.23,1.13.32,1.75h0c.08-.6.2-1.21.31-1.75L87.8,21H89l-1.89,7.22H86L84.15,21Z"/><path class="cls-1" d="M92.66,28.24l-.07-.76h0a1.64,1.64,0,0,1-1.45.88c-1,0-1.71-.81-1.71-2.07,0-1.8,1.44-2.59,3.08-2.61v-.23c0-1-.25-1.64-1.16-1.64a2.12,2.12,0,0,0-1.19.37l-.25-.8a3.15,3.15,0,0,1,1.69-.48c1.44,0,2.06,1,2.06,2.57v3.14a12.11,12.11,0,0,0,.08,1.63Zm-.17-3.74c-.59,0-2,.12-2,1.69,0,.94.48,1.27.89,1.27s.92-.38,1.06-1.08a1.93,1.93,0,0,0,0-.41Z"/><path class="cls-1" d="M95.24,17.91h1.15V28.24H95.24Z"/><path class="cls-1" d="M99.34,19.15a.68.68,0,0,1-.71.75.67.67,0,0,1-.65-.75.68.68,0,1,1,1.36,0Zm-1.25,9.09V21h1.15v7.22Z"/><path class="cls-1" d="M105.27,24.62c0,2.8-1.3,3.74-2.4,3.74-1.29,0-2.35-1.18-2.35-3.72S101.7,20.9,103,20.9,105.27,22.11,105.27,24.62Zm-3.59,0c0,1.19.21,2.81,1.24,2.81s1.19-1.69,1.19-2.81-.2-2.81-1.22-2.81S101.68,23.52,101.68,24.63Z"/><path class="cls-1" d="M106.36,27a2.22,2.22,0,0,0,1.17.38,1,1,0,0,0,1.06-1.05c0-.54-.2-.93-.92-1.41-.94-.61-1.46-1.23-1.46-2.06a1.94,1.94,0,0,1,2-2,2.43,2.43,0,0,1,1.28.37l-.3.87a1.66,1.66,0,0,0-1-.32.89.89,0,0,0-.93.92c0,.48.19.75.9,1.24a2.67,2.67,0,0,1,1.49,2.21,2,2,0,0,1-2.17,2.14,2.42,2.42,0,0,1-1.43-.42Z"/><path class="cls-1" d="M115.3,24.62c0,2.8-1.3,3.74-2.4,3.74-1.29,0-2.35-1.18-2.35-3.72s1.18-3.74,2.43-3.74S115.3,22.11,115.3,24.62Zm-3.59,0c0,1.19.21,2.81,1.25,2.81s1.19-1.69,1.19-2.81-.21-2.81-1.22-2.81S111.71,23.52,111.71,24.63Z"/><path class="cls-1" d="M116.39,27a2.25,2.25,0,0,0,1.17.38,1,1,0,0,0,1.07-1.05c0-.54-.21-.93-.93-1.41-.94-.61-1.46-1.23-1.46-2.06a2,2,0,0,1,2-2,2.4,2.4,0,0,1,1.28.37l-.3.87a1.65,1.65,0,0,0-1-.32.89.89,0,0,0-.94.92c0,.48.19.75.9,1.24a2.67,2.67,0,0,1,1.49,2.21,2,2,0,0,1-2.17,2.14,2.42,2.42,0,0,1-1.43-.42Z"/><path class="cls-1" d="M123.84,21l1,4.15c.13.56.2,1,.3,1.49h0c.07-.41.2-1,.31-1.48l.85-4.16h1.14l-1.18,4.64a13.46,13.46,0,0,1-1.79,4.66,3.77,3.77,0,0,1-1.3,1.09l-.43-1a3.48,3.48,0,0,0,1-.9,4.7,4.7,0,0,0,.65-1.22,1.07,1.07,0,0,0,.08-.36.84.84,0,0,0,0-.27L122.63,21Z"/><path class="cls-1" d="M135.1,17.91v8.6c0,.49,0,1.31.06,1.73h-1l-.08-.91h0a1.66,1.66,0,0,1-1.51,1c-1.22,0-2.1-1.32-2.1-3.7,0-2.56,1.07-3.76,2.17-3.76a1.39,1.39,0,0,1,1.32.86h0V17.91ZM134,23.76a3.7,3.7,0,0,0,0-.47c-.06-.75-.51-1.41-1.07-1.41-1,0-1.28,1.33-1.28,2.77s.4,2.75,1.22,2.75c.36,0,.85-.19,1.11-1.23a2.39,2.39,0,0,0,0-.48Z"/><path class="cls-1" d="M137.52,24.73c0,2.22.88,2.68,1.71,2.68a2.55,2.55,0,0,0,1.19-.27l.19.84a3.42,3.42,0,0,1-1.59.35c-1.73,0-2.63-1.41-2.63-3.62s1-3.81,2.44-3.81,2.06,1.56,2.06,3.18c0,.29,0,.48,0,.65Zm2.27-.84c0-1.45-.53-2.09-1.07-2.09-.76,0-1.14,1.09-1.19,2.09Z"/><path class="cls-1" d="M144.47,22.89c0-.85,0-1.29-.06-1.87h1l.06.89h0a1.79,1.79,0,0,1,1.62-1,1.5,1.5,0,0,1,1.51,1.1h0a2.31,2.31,0,0,1,.71-.82,1.8,1.8,0,0,1,1-.28c1,0,1.74.71,1.74,2.55v4.79H151V23.72c0-.94-.14-1.86-1-1.86-.48,0-.9.41-1.06,1.09a3.24,3.24,0,0,0,0,.65v4.64h-1.14V23.5c0-.79-.14-1.64-1-1.64-.47,0-.94.41-1.07,1.18a3,3,0,0,0,0,.61v4.59h-1.14Z"/><path class="cls-1" d="M156.58,28.24l-.07-.76h0a1.65,1.65,0,0,1-1.45.88c-1,0-1.71-.81-1.71-2.07,0-1.8,1.44-2.59,3.08-2.61v-.23c0-1-.25-1.64-1.16-1.64a2.12,2.12,0,0,0-1.19.37l-.25-.8a3.15,3.15,0,0,1,1.69-.48c1.44,0,2.06,1,2.06,2.57v3.14a12.11,12.11,0,0,0,.08,1.63Zm-.17-3.74c-.59,0-2,.12-2,1.69,0,.94.48,1.27.89,1.27s.92-.38,1.06-1.08a1.93,1.93,0,0,0,0-.41Z"/><path class="cls-1" d="M159.61,21l.95,4.15c.14.56.21,1,.3,1.49h0c.08-.41.2-1,.31-1.48l.86-4.16h1.14L162,25.66a13.46,13.46,0,0,1-1.79,4.66,4,4,0,0,1-1.3,1.09l-.43-1a3.34,3.34,0,0,0,1-.9,4.41,4.41,0,0,0,.65-1.22,1.15,1.15,0,0,0,.09-.36.84.84,0,0,0,0-.27L158.4,21Z"/><path class="cls-1" d="M168.41,24.62c0,2.8-1.29,3.74-2.4,3.74-1.29,0-2.35-1.18-2.35-3.72s1.18-3.74,2.43-3.74S168.41,22.11,168.41,24.62Zm-3.59,0c0,1.19.21,2.81,1.25,2.81s1.19-1.69,1.19-2.81-.2-2.81-1.22-2.81S164.82,23.52,164.82,24.63Z"/><path class="cls-1" d="M169.69,22.89c0-.61,0-1.33-.06-1.87h1l.06,1.13h0a1.75,1.75,0,0,1,1.51-1.25l.24,0v1.17h-.23a1.57,1.57,0,0,0-1.4,1.5,6.32,6.32,0,0,0,0,.66v4h-1.14Z"/><path class="cls-1" d="M.31,40.8c0-.61,0-1.33-.06-1.86h1l.06,1.12h0a1.73,1.73,0,0,1,1.51-1.24h.24V40H2.89a1.58,1.58,0,0,0-1.4,1.51,6.12,6.12,0,0,0,0,.65v4H.31Z"/><path class="cls-1" d="M4.62,42.64c0,2.22.88,2.69,1.71,2.69a2.55,2.55,0,0,0,1.19-.27l.19.83a3.42,3.42,0,0,1-1.59.35c-1.73,0-2.63-1.41-2.63-3.62s1-3.8,2.44-3.8S8,40.37,8,42c0,.28,0,.47,0,.64Zm2.27-.84c0-1.45-.53-2.09-1.07-2.09-.76,0-1.14,1.1-1.19,2.09Z"/><path class="cls-1" d="M9,45a2.35,2.35,0,0,0,1.17.37,1,1,0,0,0,1.07-1c0-.54-.21-.92-.93-1.41-.94-.61-1.46-1.23-1.46-2a1.94,1.94,0,0,1,2-2,2.32,2.32,0,0,1,1.28.37l-.3.86a1.65,1.65,0,0,0-1-.32.89.89,0,0,0-.94.92c0,.48.19.76.9,1.25a2.62,2.62,0,0,1,1.49,2.2,2,2,0,0,1-2.17,2.14,2.5,2.5,0,0,1-1.43-.41Z"/><path class="cls-1" d="M18,42.54c0,2.79-1.3,3.73-2.41,3.73-1.29,0-2.34-1.18-2.34-3.72s1.18-3.73,2.42-3.73S18,40,18,42.54Zm-3.6,0c0,1.2.22,2.81,1.25,2.81s1.19-1.68,1.19-2.81-.2-2.81-1.22-2.81S14.38,41.43,14.38,42.54Z"/><path class="cls-1" d="M19.26,35.83H20.4V46.15H19.26Z"/><path class="cls-1" d="M26.44,44.19c0,.79,0,1.43.06,2h-1l-.08-.75h0a1.9,1.9,0,0,1-1.55.87c-1.26,0-1.76-1-1.76-2.77V38.94h1.15v4.39c0,1.13.18,2,1,2a1.12,1.12,0,0,0,1-1,2.56,2.56,0,0,0,.07-.64V38.94h1.14Z"/><path class="cls-1" d="M31.57,46a2.56,2.56,0,0,1-1.19.26c-1.58,0-2.65-1.27-2.65-3.66,0-2.07,1.06-3.75,2.86-3.75a2.2,2.2,0,0,1,1,.23l-.23.93a1.9,1.9,0,0,0-.82-.2c-1.15,0-1.67,1.38-1.67,2.8,0,1.68.65,2.69,1.7,2.69a1.78,1.78,0,0,0,.83-.19Z"/><path class="cls-1" d="M33.81,37.06a.68.68,0,0,1-.71.75.75.75,0,1,1,.71-.75Zm-1.25,9.09V38.94H33.7v7.21Z"/><path class="cls-1" d="M39.74,42.54c0,2.79-1.3,3.73-2.4,3.73C36,46.27,35,45.09,35,42.55s1.18-3.73,2.42-3.73S39.74,40,39.74,42.54Zm-3.59,0c0,1.2.21,2.81,1.24,2.81s1.19-1.68,1.19-2.81-.2-2.81-1.22-2.81S36.15,41.43,36.15,42.54Zm3-6.56-1.56,2H36.8L38,36Z"/><path class="cls-1" d="M41,40.8c0-.85,0-1.29-.06-1.86h1l.05.86h0a1.84,1.84,0,0,1,1.66-1c1,0,1.75.73,1.75,2.48v4.85H44.31V41.5c0-.86-.16-1.71-1-1.71-.49,0-.94.4-1.08,1.17a3,3,0,0,0-.06.64v4.55H41Z"/><path class="cls-1" d="M52.63,45.4h-.05a1.53,1.53,0,0,1-1.39.87C50,46.27,49.1,45,49.1,42.62c0-2.54,1.07-3.8,2.28-3.8a1.44,1.44,0,0,1,1.34,1h0l.06-.84h1c0,.49-.06,1.14-.06,2.24V49H52.63Zm0-3.77a2.52,2.52,0,0,0,0-.48c-.08-.75-.54-1.35-1.05-1.35-.93,0-1.28,1.26-1.28,2.77s.37,2.74,1.26,2.74c.35,0,.81-.21,1-1.2a2.48,2.48,0,0,0,.06-.61Z"/><path class="cls-1" d="M59.7,44.19c0,.79,0,1.43.06,2h-1l-.07-.75h0a1.9,1.9,0,0,1-1.55.87c-1.26,0-1.76-1-1.76-2.77V38.94h1.15v4.39c0,1.13.18,2,1,2a1.12,1.12,0,0,0,1-1,2.58,2.58,0,0,0,.06-.64V38.94H59.7Z"/><path class="cls-1" d="M62.12,42.64c0,2.22.88,2.69,1.71,2.69A2.55,2.55,0,0,0,65,45.06l.19.83a3.42,3.42,0,0,1-1.59.35c-1.73,0-2.63-1.41-2.63-3.62s1-3.8,2.44-3.8,2.06,1.55,2.06,3.18c0,.28,0,.47,0,.64Zm2.27-.84c0-1.45-.53-2.09-1.07-2.09-.76,0-1.14,1.1-1.19,2.09Z"/><path class="cls-1" d="M69.88,42.64c0,2.22.88,2.69,1.71,2.69a2.63,2.63,0,0,0,1.2-.27l.18.83a3.39,3.39,0,0,1-1.59.35c-1.73,0-2.63-1.41-2.63-3.62s1-3.8,2.44-3.8,2.07,1.55,2.07,3.18a5.36,5.36,0,0,1,0,.64Zm2.27-.84c0-1.45-.53-2.09-1.07-2.09-.76,0-1.14,1.1-1.19,2.09Z"/><path class="cls-1" d="M74.49,35.83h1.15V46.15H74.49Z"/><path class="cls-1" d="M79.69,40.8c0-.85,0-1.29-.06-1.86h1l.06.88h0a1.79,1.79,0,0,1,1.62-1,1.51,1.51,0,0,1,1.52,1.1h0a2.26,2.26,0,0,1,.71-.83,1.81,1.81,0,0,1,1-.27c1,0,1.74.71,1.74,2.55v4.78H86.19V41.63c0-.94-.14-1.85-1-1.85-.48,0-.89.4-1.05,1.08a3.24,3.24,0,0,0,0,.65v4.64H82.94V41.42c0-.8-.14-1.64-1-1.64-.48,0-.94.4-1.08,1.17a4,4,0,0,0,0,.62v4.58H79.69Z"/><path class="cls-1" d="M93.37,42.54c0,2.79-1.29,3.73-2.4,3.73-1.29,0-2.35-1.18-2.35-3.72s1.18-3.73,2.43-3.73S93.37,40,93.37,42.54Zm-3.59,0c0,1.2.21,2.81,1.25,2.81s1.19-1.68,1.19-2.81S92,39.73,91,39.73,89.78,41.43,89.78,42.54Z"/><path class="cls-1" d="M99,35.83v8.59c0,.49,0,1.31.06,1.73h-1l-.07-.9H98a1.66,1.66,0,0,1-1.51,1c-1.22,0-2.1-1.32-2.1-3.7,0-2.56,1.07-3.75,2.18-3.75a1.39,1.39,0,0,1,1.32.85h0V35.83Zm-1.14,5.85a3.93,3.93,0,0,0,0-.48c-.07-.75-.51-1.4-1.07-1.4-1,0-1.28,1.33-1.28,2.77s.39,2.74,1.21,2.74c.36,0,.85-.19,1.11-1.23a1.73,1.73,0,0,0,.05-.48Z"/><path class="cls-1" d="M101.42,42.64c0,2.22.88,2.69,1.71,2.69a2.63,2.63,0,0,0,1.2-.27l.19.83a3.47,3.47,0,0,1-1.6.35c-1.73,0-2.62-1.41-2.62-3.62s1-3.8,2.43-3.8,2.07,1.55,2.07,3.18a5.36,5.36,0,0,1,0,.64Zm2.27-.84c0-1.45-.52-2.09-1.07-2.09-.76,0-1.13,1.1-1.19,2.09Z"/><path class="cls-1" d="M106,35.83h1.15V46.15H106Z"/><path class="cls-1" d="M113.32,42.54c0,2.79-1.3,3.73-2.41,3.73-1.29,0-2.34-1.18-2.34-3.72s1.18-3.73,2.42-3.73S113.32,40,113.32,42.54Zm-3.6,0c0,1.2.22,2.81,1.25,2.81s1.19-1.68,1.19-2.81-.2-2.81-1.22-2.81S109.72,41.43,109.72,42.54Z"/><path class="cls-1" d="M121.29,35.83v8.59c0,.49,0,1.31.06,1.73h-1l-.08-.9h-.05a1.67,1.67,0,0,1-1.51,1c-1.22,0-2.1-1.32-2.1-3.7,0-2.56,1.07-3.75,2.17-3.75a1.38,1.38,0,0,1,1.32.85h0V35.83Zm-1.14,5.85a3.93,3.93,0,0,0,0-.48c-.06-.75-.51-1.4-1.07-1.4-1,0-1.28,1.33-1.28,2.77s.4,2.74,1.22,2.74c.36,0,.85-.19,1.11-1.23a2.27,2.27,0,0,0,0-.48Z"/><path class="cls-1" d="M123.71,42.64c0,2.22.88,2.69,1.71,2.69a2.55,2.55,0,0,0,1.19-.27l.19.83a3.42,3.42,0,0,1-1.59.35c-1.73,0-2.63-1.41-2.63-3.62s1-3.8,2.44-3.8,2.06,1.55,2.06,3.18c0,.28,0,.47,0,.64ZM126,41.8c0-1.45-.53-2.09-1.07-2.09-.76,0-1.14,1.1-1.19,2.09Z"/><path class="cls-1" d="M130.59,46.15c0-.41.06-1.24.06-1.73V35.83h1.14v4h0a1.6,1.6,0,0,1,1.52-1c1.13,0,2,1.28,2,3.65,0,2.61-1.08,3.8-2.19,3.8a1.49,1.49,0,0,1-1.43-1.06h0l-.08.94Zm1.2-2.54a1.9,1.9,0,0,0,.05.44c.27,1.07.76,1.26,1.08,1.26.92,0,1.25-1.25,1.25-2.78s-.34-2.73-1.27-2.73c-.54,0-1,.66-1.07,1.29a3.89,3.89,0,0,0,0,.49Z"/><path class="cls-1" d="M136.62,35.83h1.14V46.15h-1.14Z"/><path class="cls-1" d="M143.9,42.54c0,2.79-1.3,3.73-2.4,3.73-1.29,0-2.35-1.18-2.35-3.72s1.18-3.73,2.43-3.73S143.9,40,143.9,42.54Zm-3.59,0c0,1.2.21,2.81,1.25,2.81s1.19-1.68,1.19-2.81-.21-2.81-1.22-2.81S140.31,41.43,140.31,42.54Z"/><path class="cls-1" d="M148.4,45.4h-.05a1.51,1.51,0,0,1-1.39.87c-1.16,0-2.09-1.27-2.09-3.65,0-2.54,1.07-3.8,2.28-3.8a1.43,1.43,0,0,1,1.34,1h0l.06-.84h1c0,.49-.06,1.14-.06,2.24V49H148.4Zm0-3.77a3.75,3.75,0,0,0,0-.48c-.09-.75-.54-1.35-1.05-1.35-.94,0-1.29,1.26-1.29,2.77s.38,2.74,1.27,2.74c.35,0,.8-.21,1-1.2a2.48,2.48,0,0,0,.06-.61Z"/><path class="cls-1" d="M155.47,44.19c0,.79,0,1.43.06,2h-1l-.08-.75h0a1.9,1.9,0,0,1-1.55.87c-1.26,0-1.76-1-1.76-2.77V38.94h1.15v4.39c0,1.13.18,2,1,2a1.14,1.14,0,0,0,1-1,3.16,3.16,0,0,0,.06-.64V38.94h1.14Z"/><path class="cls-1" d="M157.89,42.64c0,2.22.88,2.69,1.71,2.69a2.63,2.63,0,0,0,1.2-.27l.19.83a3.47,3.47,0,0,1-1.6.35c-1.73,0-2.62-1.41-2.62-3.62s1-3.8,2.43-3.8,2.07,1.55,2.07,3.18a5.36,5.36,0,0,1,0,.64Zm2.27-.84c0-1.45-.52-2.09-1.07-2.09-.76,0-1.13,1.1-1.19,2.09Z"/><path class="cls-1" d="M4.67,53.74v8.6c0,.48,0,1.3.06,1.73h-1l-.07-.91H3.61a1.66,1.66,0,0,1-1.51,1c-1.22,0-2.1-1.32-2.1-3.7,0-2.56,1.07-3.75,2.18-3.75a1.39,1.39,0,0,1,1.32.85h0V53.74ZM3.53,59.59a3.93,3.93,0,0,0,0-.48c-.07-.75-.51-1.4-1.07-1.4-1,0-1.28,1.33-1.28,2.77s.39,2.74,1.22,2.74c.35,0,.84-.18,1.1-1.22a1.82,1.82,0,0,0,0-.48Z"/><path class="cls-1" d="M7.08,60.56c0,2.21.88,2.68,1.71,2.68A2.63,2.63,0,0,0,10,63l.19.84a3.6,3.6,0,0,1-1.6.35C6.85,64.16,6,62.74,6,60.53s1-3.8,2.43-3.8,2.07,1.55,2.07,3.18a5.55,5.55,0,0,1,0,.65Zm2.27-.85c0-1.45-.52-2.09-1.07-2.09-.76,0-1.13,1.1-1.19,2.09Z"/><path class="cls-1" d="M14,59.1c0-1.11,0-1.75-.06-2.25h1l.06.91h0a1.65,1.65,0,0,1,1.52-1c1.26,0,2.09,1.33,2.09,3.71,0,2.68-1.11,3.74-2.23,3.74a1.35,1.35,0,0,1-1.26-.83h0v3.58H14Zm1.14,2.32a2.76,2.76,0,0,0,.05.59c.23,1,.74,1.21,1.06,1.21.95,0,1.26-1.3,1.26-2.76s-.36-2.75-1.28-2.75c-.52,0-1,.65-1.05,1.31a2.46,2.46,0,0,0,0,.55Z"/><path class="cls-1" d="M20,58.71c0-.61,0-1.32-.06-1.86h1L21,58h0a1.75,1.75,0,0,1,1.51-1.25h.25v1.18h-.24a1.56,1.56,0,0,0-1.39,1.5,4.33,4.33,0,0,0,0,.66v4H20Z"/><path class="cls-1" d="M27.92,60.45c0,2.79-1.3,3.73-2.4,3.73-1.3,0-2.35-1.18-2.35-3.71s1.18-3.74,2.42-3.74S27.92,57.94,27.92,60.45Zm-3.6,0c0,1.2.22,2.82,1.25,2.82s1.19-1.69,1.19-2.82-.2-2.8-1.22-2.8S24.32,59.35,24.32,60.45Z"/><path class="cls-1" d="M33.55,53.74v8.6c0,.48,0,1.3.06,1.73h-1l-.08-.91h0a1.67,1.67,0,0,1-1.51,1c-1.22,0-2.11-1.32-2.11-3.7,0-2.56,1.08-3.75,2.18-3.75a1.38,1.38,0,0,1,1.32.85h0V53.74Zm-1.14,5.85a3.93,3.93,0,0,0,0-.48c-.06-.75-.51-1.4-1.07-1.4C30.37,57.71,30,59,30,60.48s.39,2.74,1.22,2.74c.35,0,.85-.18,1.11-1.22a2.39,2.39,0,0,0,0-.48Z"/><path class="cls-1" d="M39.49,62.1c0,.8,0,1.43.06,2h-1l-.07-.76h0a1.89,1.89,0,0,1-1.55.87c-1.26,0-1.76-1-1.76-2.77V56.85h1.14v4.39c0,1.13.19,2,1,2a1.11,1.11,0,0,0,1-1,2.58,2.58,0,0,0,.06-.64V56.85h1.15Z"/><path class="cls-1" d="M44.62,63.89a2.47,2.47,0,0,1-1.2.27c-1.57,0-2.64-1.28-2.64-3.66,0-2.08,1-3.76,2.86-3.76a2.15,2.15,0,0,1,1,.23l-.22.94a1.8,1.8,0,0,0-.82-.2c-1.16,0-1.67,1.37-1.67,2.79,0,1.68.64,2.7,1.69,2.7a1.83,1.83,0,0,0,.84-.2Z"/><path class="cls-1" d="M49,63.89a2.47,2.47,0,0,1-1.2.27c-1.57,0-2.64-1.28-2.64-3.66,0-2.08,1-3.76,2.86-3.76a2.18,2.18,0,0,1,1,.23l-.22.94a1.81,1.81,0,0,0-.83-.2c-1.15,0-1.66,1.37-1.66,2.79,0,1.68.64,2.7,1.69,2.7a1.83,1.83,0,0,0,.84-.2Z"/><path class="cls-1" d="M51.27,55a.68.68,0,1,1-1.36,0,.68.68,0,0,1,.68-.75A.67.67,0,0,1,51.27,55ZM50,64.07V56.85h1.14v7.22Z"/><path class="cls-1" d="M57.2,60.45c0,2.79-1.29,3.73-2.4,3.73-1.29,0-2.35-1.18-2.35-3.71s1.18-3.74,2.43-3.74S57.2,57.94,57.2,60.45Zm-3.59,0c0,1.2.22,2.82,1.25,2.82s1.19-1.69,1.19-2.82-.2-2.8-1.22-2.8S53.61,59.35,53.61,60.45Zm3-6.55-1.56,2h-.76l1.14-2Z"/><path class="cls-1" d="M58.49,58.71c0-.85,0-1.28-.06-1.86h1l.06.87h0a1.81,1.81,0,0,1,1.65-1c1,0,1.75.74,1.75,2.48v4.86H61.78V59.42c0-.87-.17-1.72-1-1.72-.48,0-.94.4-1.08,1.17a3.06,3.06,0,0,0-.06.65v4.55H58.49Z"/><path class="cls-1" d="M66.88,58.71c0-.85,0-1.28-.06-1.86h1l0,.89h0a1.79,1.79,0,0,1,1.63-1,1.5,1.5,0,0,1,1.51,1.1h0a2.26,2.26,0,0,1,.71-.83,1.85,1.85,0,0,1,1-.27c1,0,1.73.71,1.73,2.55v4.79H73.38V59.54c0-.94-.13-1.85-1-1.85-.49,0-.9.4-1.06,1.08a3.3,3.3,0,0,0,0,.65v4.65H70.13V59.33c0-.79-.14-1.64-1-1.64-.48,0-.94.41-1.07,1.17a3.05,3.05,0,0,0,0,.62v4.59H66.88Z"/><path class="cls-1" d="M77.38,55a.68.68,0,0,1-.71.74A.66.66,0,0,1,76,55a.68.68,0,1,1,1.36,0Zm-1.25,9.09V56.85h1.15v7.22Z"/><path class="cls-1" d="M78.88,58.71c0-.85,0-1.28-.06-1.86h1l.06.87h0a1.81,1.81,0,0,1,1.65-1c1,0,1.75.74,1.75,2.48v4.86H82.17V59.42c0-.87-.17-1.72-1-1.72-.48,0-.93.4-1.08,1.17a3.06,3.06,0,0,0-.06.65v4.55H78.88Z"/><path class="cls-1" d="M85.74,60.56c0,2.21.87,2.68,1.7,2.68a2.63,2.63,0,0,0,1.2-.27l.19.84a3.56,3.56,0,0,1-1.6.35c-1.73,0-2.62-1.42-2.62-3.63s1-3.8,2.43-3.8,2.07,1.55,2.07,3.18c0,.28,0,.48,0,.65ZM88,59.71c0-1.45-.52-2.09-1.07-2.09-.76,0-1.13,1.1-1.18,2.09Z"/><path class="cls-1" d="M90.33,58.71c0-.61,0-1.32-.06-1.86h1l0,1.13h0a1.75,1.75,0,0,1,1.52-1.25h.24v1.18h-.24a1.56,1.56,0,0,0-1.39,1.5,4.33,4.33,0,0,0,0,.66v4H90.33Z"/><path class="cls-1" d="M96.81,64.07l-.07-.77h0a1.6,1.6,0,0,1-1.44.88,1.83,1.83,0,0,1-1.71-2.06c0-1.8,1.44-2.6,3.08-2.61v-.23c0-1-.25-1.65-1.16-1.65a2.13,2.13,0,0,0-1.19.38L94,57.2a3.16,3.16,0,0,1,1.69-.47c1.44,0,2.06.94,2.06,2.57v3.13a12.17,12.17,0,0,0,.08,1.64Zm-.17-3.74c-.59,0-2,.11-2,1.68,0,.94.47,1.28.88,1.28s.93-.38,1.07-1.08a2,2,0,0,0,0-.42Z"/><path class="cls-1" d="M98.85,65.94a22,22,0,0,0,.86-3.47l1.3-.15a19,19,0,0,1-1.37,3.52Z"/><path class="cls-1" d="M107.49,64.07l-.08-.77h0a1.62,1.62,0,0,1-1.45.88,1.83,1.83,0,0,1-1.71-2.06c0-1.8,1.45-2.6,3.08-2.61v-.23c0-1-.25-1.65-1.16-1.65a2.13,2.13,0,0,0-1.19.38l-.25-.81a3.16,3.16,0,0,1,1.69-.47c1.45,0,2.06.94,2.06,2.57v3.13a12.17,12.17,0,0,0,.08,1.64Zm-.18-3.74c-.58,0-2,.11-2,1.68,0,.94.48,1.28.89,1.28s.93-.38,1.06-1.08a2,2,0,0,0,0-.42Z"/><path class="cls-1" d="M110.06,53.74h1.15V64.07h-1.15Z"/><path class="cls-1" d="M115.26,58.71c0-.85,0-1.28-.06-1.86h1l.05.89h0a1.79,1.79,0,0,1,1.63-1,1.5,1.5,0,0,1,1.51,1.1h0a2.26,2.26,0,0,1,.71-.83,1.85,1.85,0,0,1,1-.27c1,0,1.73.71,1.73,2.55v4.79h-1.14V59.54c0-.94-.14-1.85-1-1.85-.48,0-.89.4-1,1.08a3.3,3.3,0,0,0,0,.65v4.65h-1.14V59.33c0-.79-.14-1.64-1-1.64-.48,0-.94.41-1.08,1.17a4,4,0,0,0,0,.62v4.59h-1.14Z"/><path class="cls-1" d="M125.32,60.56c0,2.21.88,2.68,1.71,2.68a2.63,2.63,0,0,0,1.2-.27l.18.84a3.52,3.52,0,0,1-1.59.35c-1.73,0-2.63-1.42-2.63-3.63s1-3.8,2.44-3.8,2.07,1.55,2.07,3.18a5.55,5.55,0,0,1,0,.65Zm2.27-.85c0-1.45-.53-2.09-1.07-2.09-.76,0-1.14,1.1-1.19,2.09Z"/><path class="cls-1" d="M134.28,53.74v8.6c0,.48,0,1.3.06,1.73h-1l-.08-.91h-.05a1.67,1.67,0,0,1-1.51,1c-1.23,0-2.11-1.32-2.11-3.7,0-2.56,1.07-3.75,2.18-3.75a1.39,1.39,0,0,1,1.32.85h0V53.74Zm-1.14,5.85a3.93,3.93,0,0,0,0-.48c-.06-.75-.51-1.4-1.07-1.4-1,0-1.28,1.33-1.28,2.77s.39,2.74,1.22,2.74c.35,0,.84-.18,1.11-1.22a2.39,2.39,0,0,0,0-.48Z"/><path class="cls-1" d="M137.13,55a.66.66,0,0,1-.7.74.75.75,0,0,1,0-1.49A.67.67,0,0,1,137.13,55Zm-1.24,9.09V56.85H137v7.22Z"/><path class="cls-1" d="M138.62,58.71c0-.61,0-1.32-.06-1.86h1l0,1.13h0a1.75,1.75,0,0,1,1.52-1.25h.24v1.18h-.24a1.56,1.56,0,0,0-1.39,1.5,4.33,4.33,0,0,0,0,.66v4h-1.15Z"/><path class="cls-1" d="M144.68,53.74h1.14V64.07h-1.14Z"/><path class="cls-1" d="M150.39,64.07l-.08-.77h0a1.62,1.62,0,0,1-1.45.88,1.83,1.83,0,0,1-1.71-2.06c0-1.8,1.45-2.6,3.08-2.61v-.23c0-1-.25-1.65-1.16-1.65a2.13,2.13,0,0,0-1.19.38l-.25-.81a3.18,3.18,0,0,1,1.69-.47c1.45,0,2.07.94,2.07,2.57v3.13a12.24,12.24,0,0,0,.07,1.64Zm-.18-3.74c-.58,0-2,.11-2,1.68,0,.94.48,1.28.89,1.28s.93-.38,1.06-1.08a2,2,0,0,0,0-.42Z"/><path class="cls-1" d="M155.31,53.74h1.14V64.07h-1.14Z"/><path class="cls-1" d="M159,60.56c0,2.21.88,2.68,1.71,2.68a2.58,2.58,0,0,0,1.19-.27l.19.84a3.55,3.55,0,0,1-1.59.35c-1.73,0-2.63-1.42-2.63-3.63s1-3.8,2.44-3.8,2.06,1.55,2.06,3.18c0,.28,0,.48,0,.65Zm2.27-.85c0-1.45-.53-2.09-1.07-2.09-.76,0-1.14,1.1-1.19,2.09Z"/><path class="cls-1" d="M164.13,56.85l1,4.15c.14.56.21,1,.3,1.49h0c.08-.41.2-1,.31-1.49l.86-4.15h1.14l-1.18,4.63a13.3,13.3,0,0,1-1.79,4.66,3.9,3.9,0,0,1-1.3,1.1l-.43-1a3.38,3.38,0,0,0,1-.91,4.12,4.12,0,0,0,.65-1.21,1.15,1.15,0,0,0,.09-.36.84.84,0,0,0,0-.27l-1.82-6.66Z"/><path class="cls-1" d="M.25,82c0-.41.06-1.24.06-1.73v-8.6H1.45v4h0a1.6,1.6,0,0,1,1.52-1c1.13,0,2,1.29,2,3.65C5,80.9,3.9,82.1,2.79,82.1A1.52,1.52,0,0,1,1.35,81H1.3l-.07,1Zm1.2-2.55a1.59,1.59,0,0,0,.05.45c.26,1.06.75,1.26,1.07,1.26.93,0,1.25-1.26,1.25-2.79s-.34-2.73-1.27-2.73c-.53,0-1,.67-1.07,1.29a4.19,4.19,0,0,0,0,.5Z"/><path class="cls-1" d="M9.13,82l-.08-.77H9a1.62,1.62,0,0,1-1.44.89A1.84,1.84,0,0,1,5.85,80c0-1.8,1.45-2.6,3.09-2.61v-.23c0-1-.25-1.64-1.16-1.64a2.18,2.18,0,0,0-1.2.37l-.24-.81A3.22,3.22,0,0,1,8,74.64c1.44,0,2.06,1,2.06,2.57v3.13A12.17,12.17,0,0,0,10.17,82ZM9,78.24c-.59,0-2,.12-2,1.69,0,.94.47,1.27.88,1.27s.93-.38,1.06-1.08a2,2,0,0,0,0-.41Z"/><path class="cls-1" d="M11.71,71.65h1.14V82H11.71Z"/><path class="cls-1" d="M18.91,71.65v8.6c0,.49,0,1.31.06,1.73H18l-.07-.91h-.05a1.69,1.69,0,0,1-1.52,1c-1.22,0-2.1-1.32-2.1-3.7,0-2.56,1.07-3.76,2.18-3.76a1.4,1.4,0,0,1,1.32.86h0V71.65ZM17.77,77.5a3.7,3.7,0,0,0,0-.47c-.07-.75-.51-1.41-1.07-1.41-.95,0-1.28,1.33-1.28,2.77s.39,2.75,1.22,2.75c.35,0,.84-.19,1.1-1.23a1.82,1.82,0,0,0,.05-.48Z"/><path class="cls-1" d="M23.37,82l-.08-.77h0a1.61,1.61,0,0,1-1.44.89A1.84,1.84,0,0,1,20.1,80c0-1.8,1.44-2.6,3.08-2.61v-.23c0-1-.25-1.64-1.16-1.64a2.12,2.12,0,0,0-1.19.37l-.25-.81a3.22,3.22,0,0,1,1.69-.47c1.44,0,2.06,1,2.06,2.57v3.13A12.17,12.17,0,0,0,24.41,82Zm-.17-3.74c-.59,0-2,.12-2,1.69,0,.94.47,1.27.88,1.27s.93-.38,1.07-1.08a1.93,1.93,0,0,0,0-.41Z"/><path class="cls-1" d="M30.3,71.65v8.6c0,.49,0,1.31.06,1.73h-1l-.07-.91h-.05a1.69,1.69,0,0,1-1.52,1c-1.22,0-2.1-1.32-2.1-3.7,0-2.56,1.07-3.76,2.18-3.76a1.4,1.4,0,0,1,1.32.86h0V71.65ZM29.16,77.5a3.7,3.7,0,0,0,0-.47c-.07-.75-.51-1.41-1.07-1.41-1,0-1.28,1.33-1.28,2.77s.39,2.75,1.22,2.75c.35,0,.84-.19,1.1-1.23a1.82,1.82,0,0,0,.05-.48Z"/><path class="cls-1" d="M34.76,82l-.08-.77h0a1.61,1.61,0,0,1-1.44.89A1.84,1.84,0,0,1,31.48,80c0-1.8,1.45-2.6,3.09-2.61v-.23c0-1-.25-1.64-1.16-1.64a2.18,2.18,0,0,0-1.2.37L32,75.11a3.22,3.22,0,0,1,1.69-.47c1.44,0,2.06,1,2.06,2.57v3.13A12.17,12.17,0,0,0,35.8,82Zm-.17-3.74c-.59,0-2,.12-2,1.69,0,.94.47,1.27.88,1.27s.93-.38,1.07-1.08a2.93,2.93,0,0,0,0-.41Z"/><path class="cls-1" d="M42.54,82l-.08-.77h0A1.63,1.63,0,0,1,41,82.1,1.84,1.84,0,0,1,39.26,80c0-1.8,1.45-2.6,3.08-2.61v-.23c0-1-.24-1.64-1.15-1.64a2.13,2.13,0,0,0-1.2.37l-.24-.81a3.21,3.21,0,0,1,1.68-.47c1.45,0,2.07,1,2.07,2.57v3.13A12.17,12.17,0,0,0,43.58,82Zm-.17-3.74c-.59,0-2,.12-2,1.69,0,.94.48,1.27.89,1.27s.93-.38,1.06-1.08a2,2,0,0,0,0-.41Z"/><path class="cls-1" d="M47.39,82c0-.41.06-1.24.06-1.73v-8.6h1.14v4h0a1.6,1.6,0,0,1,1.52-1c1.13,0,2,1.29,2,3.65,0,2.61-1.08,3.81-2.19,3.81A1.49,1.49,0,0,1,48.5,81h-.06l-.07,1Zm1.2-2.55a1.59,1.59,0,0,0,0,.45c.26,1.06.75,1.26,1.07,1.26.93,0,1.25-1.26,1.25-2.79s-.34-2.73-1.27-2.73c-.53,0-1,.67-1.06,1.29a2.81,2.81,0,0,0,0,.5Z"/><path class="cls-1" d="M56.27,82l-.08-.77h0a1.61,1.61,0,0,1-1.44.89A1.84,1.84,0,0,1,53,80c0-1.8,1.44-2.6,3.08-2.61v-.23c0-1-.25-1.64-1.16-1.64a2.12,2.12,0,0,0-1.19.37l-.25-.81a3.25,3.25,0,0,1,1.69-.47c1.44,0,2.06,1,2.06,2.57v3.13A12.17,12.17,0,0,0,57.31,82Zm-.17-3.74c-.59,0-2,.12-2,1.69,0,.94.47,1.27.88,1.27s.93-.38,1.07-1.08a1.93,1.93,0,0,0,0-.41Z"/><path class="cls-1" d="M58.85,71.65H60V82H58.85Z"/><path class="cls-1" d="M66.05,71.65v8.6c0,.49,0,1.31.06,1.73h-1l-.07-.91h0a1.68,1.68,0,0,1-1.52,1c-1.22,0-2.1-1.32-2.1-3.7,0-2.56,1.07-3.76,2.18-3.76a1.4,1.4,0,0,1,1.32.86h0V71.65ZM64.91,77.5a3.7,3.7,0,0,0,0-.47c-.07-.75-.51-1.41-1.07-1.41-1,0-1.28,1.33-1.28,2.77s.39,2.75,1.22,2.75c.35,0,.84-.19,1.11-1.23a2.39,2.39,0,0,0,0-.48Z"/><path class="cls-1" d="M70.51,82l-.07-.77h0A1.61,1.61,0,0,1,69,82.1,1.84,1.84,0,0,1,67.24,80c0-1.8,1.44-2.6,3.08-2.61v-.23c0-1-.25-1.64-1.16-1.64a2.12,2.12,0,0,0-1.19.37l-.25-.81a3.25,3.25,0,0,1,1.69-.47c1.44,0,2.06,1,2.06,2.57v3.13A12.17,12.17,0,0,0,71.55,82Zm-.17-3.74c-.59,0-2,.12-2,1.69,0,.94.47,1.27.88,1.27s.93-.38,1.07-1.08a1.93,1.93,0,0,0,0-.41Z"/><path class="cls-1" d="M77.44,71.65v8.6c0,.49,0,1.31.06,1.73h-1l-.07-.91h0a1.69,1.69,0,0,1-1.52,1c-1.22,0-2.1-1.32-2.1-3.7,0-2.56,1.07-3.76,2.18-3.76a1.4,1.4,0,0,1,1.32.86h0V71.65ZM76.3,77.5a3.7,3.7,0,0,0,0-.47c-.07-.75-.51-1.41-1.07-1.41-.95,0-1.28,1.33-1.28,2.77s.39,2.75,1.22,2.75c.35,0,.84-.19,1.1-1.23a1.82,1.82,0,0,0,0-.48Z"/><path class="cls-1" d="M81.9,82l-.08-.77h0a1.61,1.61,0,0,1-1.44.89A1.84,1.84,0,0,1,78.63,80c0-1.8,1.44-2.6,3.08-2.61v-.23c0-1-.25-1.64-1.16-1.64a2.12,2.12,0,0,0-1.19.37l-.25-.81a3.25,3.25,0,0,1,1.69-.47c1.44,0,2.06,1,2.06,2.57v3.13A12.17,12.17,0,0,0,82.94,82Zm-.17-3.74c-.59,0-2,.12-2,1.69,0,.94.47,1.27.88,1.27s.93-.38,1.07-1.08a1.93,1.93,0,0,0,0-.41Z"/><path class="cls-1" d="M83.94,83.85a21.47,21.47,0,0,0,.86-3.47l1.3-.15a18.89,18.89,0,0,1-1.37,3.53Z"/><path class="cls-1" d="M90.53,78.47c0,2.22.88,2.68,1.71,2.68a2.58,2.58,0,0,0,1.19-.27l.19.84a3.55,3.55,0,0,1-1.59.35c-1.73,0-2.63-1.42-2.63-3.62,0-2.35,1-3.81,2.44-3.81s2.06,1.56,2.06,3.18c0,.29,0,.48,0,.65Zm2.27-.85c0-1.44-.53-2.08-1.07-2.08-.76,0-1.14,1.09-1.19,2.08Z"/><path class="cls-1" d="M95.14,76.62c0-.84,0-1.28-.06-1.86h1l.06.87h0a1.83,1.83,0,0,1,1.65-1c1,0,1.75.74,1.75,2.49V82H98.42V77.33c0-.86-.16-1.72-1-1.72-.48,0-.94.4-1.08,1.18a2.9,2.9,0,0,0-.06.64V82H95.14Z"/><path class="cls-1" d="M103.53,71.65h1.14V82h-1.14Z"/><path class="cls-1" d="M110.71,80c0,.8,0,1.43.06,2h-1l-.08-.76h0a1.88,1.88,0,0,1-1.54.88c-1.26,0-1.76-1-1.76-2.78V74.76h1.14v4.4c0,1.13.19,2,1,2a1.12,1.12,0,0,0,1-1,3.27,3.27,0,0,0,.06-.65V74.76h1.15Z"/><path class="cls-1" d="M116.74,74.76c0,.5-.06,1.14-.06,2.25v4c0,1.9-.24,2.62-.72,3.14A2.49,2.49,0,0,1,114,85a3.46,3.46,0,0,1-1.59-.35l.27-.91a2.92,2.92,0,0,0,1.34.32c.91,0,1.48-.57,1.48-2.2v-.74h0a1.46,1.46,0,0,1-1.38.88c-1.28,0-2.13-1.44-2.13-3.56,0-2.66,1.21-3.76,2.28-3.76a1.47,1.47,0,0,1,1.34.93h0l.06-.81Zm-1.2,2.49a2.2,2.2,0,0,0-.06-.53c-.13-.49-.39-1.1-1-1.1-.83,0-1.28,1.12-1.28,2.72,0,1.85.58,2.69,1.27,2.69.36,0,.8-.17,1-1a2.18,2.18,0,0,0,.08-.65Z"/><path class="cls-1" d="M121.13,82l-.08-.77h0a1.62,1.62,0,0,1-1.44.89A1.84,1.84,0,0,1,117.85,80c0-1.8,1.45-2.6,3.09-2.61v-.23c0-1-.25-1.64-1.16-1.64a2.18,2.18,0,0,0-1.2.37l-.24-.81a3.22,3.22,0,0,1,1.69-.47c1.44,0,2.06,1,2.06,2.57v3.13a12.17,12.17,0,0,0,.08,1.64ZM121,78.24c-.59,0-2,.12-2,1.69,0,.94.47,1.27.88,1.27s.93-.38,1.06-1.08a2,2,0,0,0,0-.41Z"/><path class="cls-1" d="M123.7,76.62c0-.6,0-1.32-.06-1.86h1l.06,1.13h0a1.74,1.74,0,0,1,1.51-1.25l.24,0v1.17h-.23a1.57,1.57,0,0,0-1.4,1.5,4.41,4.41,0,0,0,0,.66v4H123.7Z"/><path class="cls-1" d="M134.1,71.65v8.6c0,.49,0,1.31.06,1.73h-1l-.08-.91h0a1.68,1.68,0,0,1-1.51,1c-1.22,0-2.1-1.32-2.1-3.7,0-2.56,1.07-3.76,2.17-3.76a1.39,1.39,0,0,1,1.32.86h0V71.65ZM133,77.5a3.7,3.7,0,0,0,0-.47c-.06-.75-.51-1.41-1.07-1.41-1,0-1.28,1.33-1.28,2.77s.4,2.75,1.22,2.75c.36,0,.85-.19,1.11-1.23a2.39,2.39,0,0,0,0-.48Z"/><path class="cls-1" d="M136.52,78.47c0,2.22.88,2.68,1.71,2.68a2.58,2.58,0,0,0,1.19-.27l.19.84a3.55,3.55,0,0,1-1.59.35c-1.73,0-2.63-1.42-2.63-3.62,0-2.35,1-3.81,2.44-3.81s2.06,1.56,2.06,3.18c0,.29,0,.48,0,.65Zm2.27-.85c0-1.44-.53-2.08-1.07-2.08-.76,0-1.14,1.09-1.19,2.08Z"/><path class="cls-1" d="M143.47,71.65h1.15V82h-1.15Z"/><path class="cls-1" d="M149.18,82l-.08-.77h0a1.63,1.63,0,0,1-1.45.89A1.84,1.84,0,0,1,145.9,80c0-1.8,1.45-2.6,3.08-2.61v-.23c0-1-.24-1.64-1.15-1.64a2.13,2.13,0,0,0-1.2.37l-.24-.81a3.21,3.21,0,0,1,1.68-.47c1.45,0,2.07,1,2.07,2.57v3.13a12.17,12.17,0,0,0,.08,1.64ZM149,78.24c-.59,0-2,.12-2,1.69,0,.94.48,1.27.89,1.27s.93-.38,1.06-1.08a2,2,0,0,0,0-.41Z"/><path class="cls-1" d="M154.91,78.47c0,2.22.88,2.68,1.71,2.68a2.55,2.55,0,0,0,1.19-.27l.19.84a3.55,3.55,0,0,1-1.59.35c-1.73,0-2.63-1.42-2.63-3.62,0-2.35,1-3.81,2.44-3.81s2.06,1.56,2.06,3.18c0,.29,0,.48,0,.65Zm2.27-.85c0-1.44-.53-2.08-1.07-2.08-.76,0-1.14,1.09-1.19,2.08Z"/><path class="cls-1" d="M159.32,80.78a2.25,2.25,0,0,0,1.17.38,1,1,0,0,0,1.07-1c0-.54-.21-.93-.93-1.41-.94-.61-1.46-1.23-1.46-2.06a2,2,0,0,1,2-2,2.4,2.4,0,0,1,1.28.37l-.3.87a1.65,1.65,0,0,0-1-.32.89.89,0,0,0-.94.92c0,.48.19.75.9,1.24a2.67,2.67,0,0,1,1.49,2.2,2,2,0,0,1-2.17,2.15,2.5,2.5,0,0,1-1.43-.42Z"/><path class="cls-1" d="M167.35,81.8a2.43,2.43,0,0,1-1.19.27c-1.58,0-2.65-1.27-2.65-3.66,0-2.07,1.06-3.76,2.86-3.76a2.33,2.33,0,0,1,1,.23l-.23.94a1.76,1.76,0,0,0-.82-.2c-1.15,0-1.67,1.38-1.67,2.79,0,1.69.65,2.7,1.7,2.7a1.67,1.67,0,0,0,.83-.2Z"/><path class="cls-1" d="M171.24,82l-.08-.77h0a1.61,1.61,0,0,1-1.44.89A1.84,1.84,0,0,1,168,80c0-1.8,1.45-2.6,3.09-2.61v-.23c0-1-.25-1.64-1.16-1.64a2.18,2.18,0,0,0-1.2.37l-.24-.81a3.22,3.22,0,0,1,1.69-.47c1.44,0,2.06,1,2.06,2.57v3.13a12.17,12.17,0,0,0,.08,1.64Zm-.17-3.74c-.59,0-2,.12-2,1.69,0,.94.47,1.27.88,1.27s.93-.38,1.07-1.08a2.93,2.93,0,0,0,0-.41Z"/><path class="cls-1" d="M173.82,71.65H175V82h-1.14Z"/><path class="cls-1" d="M179.53,82l-.08-.77h0a1.63,1.63,0,0,1-1.45.89A1.84,1.84,0,0,1,176.25,80c0-1.8,1.45-2.6,3.08-2.61v-.23c0-1-.25-1.64-1.16-1.64a2.12,2.12,0,0,0-1.19.37l-.25-.81a3.25,3.25,0,0,1,1.69-.47c1.45,0,2.06,1,2.06,2.57v3.13a12.17,12.17,0,0,0,.08,1.64Zm-.18-3.74c-.58,0-2,.12-2,1.69,0,.94.48,1.27.89,1.27s.93-.38,1.06-1.08a1.93,1.93,0,0,0,0-.41Z"/><path class="cls-1" d="M4.67,89.57v8.59c0,.49,0,1.31.06,1.73h-1L3.67,99H3.61a1.66,1.66,0,0,1-1.51,1C.88,100,0,98.69,0,96.31c0-2.56,1.07-3.75,2.18-3.75a1.39,1.39,0,0,1,1.32.85h0V89.57ZM3.53,95.42a3.85,3.85,0,0,0,0-.48c-.07-.75-.51-1.4-1.07-1.4-1,0-1.28,1.33-1.28,2.77s.39,2.74,1.22,2.74c.35,0,.84-.19,1.1-1.23a1.82,1.82,0,0,0,0-.48Z"/><path class="cls-1" d="M7.08,96.38c0,2.22.88,2.68,1.71,2.68a2.63,2.63,0,0,0,1.2-.27l.19.84a3.47,3.47,0,0,1-1.6.35C6.85,100,6,98.57,6,96.36s1-3.8,2.43-3.8,2.07,1.55,2.07,3.18a5.36,5.36,0,0,1,0,.64Zm2.27-.84c0-1.45-.52-2.09-1.07-2.09-.76,0-1.13,1.09-1.19,2.09Z"/><path class="cls-1" d="M11.69,89.57h1.15V99.89H11.69Z"/><path class="cls-1" d="M16.82,99.89c0-.41.06-1.24.06-1.73V89.57H18v4h0a1.59,1.59,0,0,1,1.52-1c1.13,0,2,1.28,2,3.65,0,2.61-1.08,3.8-2.19,3.8A1.5,1.5,0,0,1,17.92,99h-.05l-.07.94ZM18,97.34a2,2,0,0,0,0,.45c.27,1.07.76,1.26,1.08,1.26.92,0,1.25-1.25,1.25-2.79s-.34-2.72-1.27-2.72c-.53,0-1,.66-1.07,1.29a3.91,3.91,0,0,0,0,.49Z"/><path class="cls-1" d="M22.84,89.57H24V99.89H22.84Z"/><path class="cls-1" d="M30.13,96.27c0,2.8-1.3,3.74-2.41,3.74-1.29,0-2.34-1.18-2.34-3.72s1.18-3.73,2.42-3.73S30.13,93.76,30.13,96.27Zm-3.6,0c0,1.19.22,2.81,1.25,2.81S29,97.41,29,96.28s-.2-2.81-1.22-2.81S26.53,95.17,26.53,96.28Z"/><path class="cls-1" d="M34.62,99.14h0a1.52,1.52,0,0,1-1.38.87c-1.16,0-2.09-1.27-2.09-3.65,0-2.54,1.07-3.8,2.27-3.8a1.44,1.44,0,0,1,1.35,1h0l0-.85h1c0,.5-.06,1.15-.06,2.25v7.84H34.62Zm0-3.77a2.53,2.53,0,0,0,0-.48c-.08-.76-.54-1.35-1.05-1.35-.93,0-1.29,1.25-1.29,2.77s.38,2.74,1.27,2.74c.35,0,.81-.21,1-1.2a2.47,2.47,0,0,0,0-.61Z"/><path class="cls-1" d="M41.7,97.92c0,.8,0,1.43.06,2h-1l-.07-.75h0a1.91,1.91,0,0,1-1.55.87c-1.26,0-1.76-1-1.76-2.77V92.67h1.14v4.4c0,1.13.19,2,1,2a1.13,1.13,0,0,0,1-1,3.16,3.16,0,0,0,.06-.64V92.67H41.7Z"/><path class="cls-1" d="M44.12,96.38c0,2.22.88,2.68,1.71,2.68A2.58,2.58,0,0,0,47,98.79l.19.84a3.42,3.42,0,0,1-1.59.35C43.89,100,43,98.57,43,96.36s1-3.8,2.44-3.8,2.06,1.55,2.06,3.18c0,.28,0,.47,0,.64Zm2.27-.84c0-1.45-.53-2.09-1.07-2.09-.76,0-1.14,1.09-1.19,2.09Z"/><path class="cls-1" d="M48.51,99.15a.81.81,0,0,1,.76-.88.78.78,0,0,1,.76.88.76.76,0,0,1-.76.86A.78.78,0,0,1,48.51,99.15Z"/></g></g></svg>