<svg xmlns="http://www.w3.org/2000/svg" xmlns:xlink="http://www.w3.org/1999/xlink" viewBox="0 0 3509.3 888.22"><defs><style>.cls-1{isolation:isolate;}.cls-2{mix-blend-mode:multiply;}.cls-3{fill:url(#linear-gradient);}.cls-4{fill:url(#linear-gradient-2);}.cls-5{fill:url(#linear-gradient-3);}.cls-6{fill:url(#linear-gradient-4);}.cls-7{fill:url(#linear-gradient-5);}.cls-8{fill:url(#linear-gradient-6);}</style><linearGradient id="linear-gradient" x1="2640.8" y1="84.59" x2="3463.28" y2="84.59" gradientUnits="userSpaceOnUse"><stop offset="0" stop-color="#f8f6f4" stop-opacity="0"/><stop offset="0.03" stop-color="#f5d4c8" stop-opacity="0.2"/><stop offset="0.06" stop-color="#f2b5a0" stop-opacity="0.39"/><stop offset="0.1" stop-color="#f0997c" stop-opacity="0.55"/><stop offset="0.13" stop-color="#ee825e" stop-opacity="0.69"/><stop offset="0.17" stop-color="#ec6f45" stop-opacity="0.8"/><stop offset="0.21" stop-color="#eb6033" stop-opacity="0.89"/><stop offset="0.26" stop-color="#ea5625" stop-opacity="0.95"/><stop offset="0.32" stop-color="#e9501d" stop-opacity="0.99"/><stop offset="0.42" stop-color="#e94e1b"/></linearGradient><linearGradient id="linear-gradient-2" x1="3442.13" y1="45.61" x2="3509.3" y2="45.61" gradientUnits="userSpaceOnUse"><stop offset="0.08" stop-color="#f8f6f4" stop-opacity="0"/><stop offset="0.09" stop-color="#f7eeea" stop-opacity="0.05"/><stop offset="0.14" stop-color="#f4c4b4" stop-opacity="0.3"/><stop offset="0.19" stop-color="#f0a085" stop-opacity="0.51"/><stop offset="0.24" stop-color="#ee835f" stop-opacity="0.69"/><stop offset="0.29" stop-color="#ec6c41" stop-opacity="0.82"/><stop offset="0.34" stop-color="#ea5b2c" stop-opacity="0.92"/><stop offset="0.38" stop-color="#e9511f" stop-opacity="0.98"/><stop offset="0.42" stop-color="#e94e1b"/></linearGradient><linearGradient id="linear-gradient-3" x1="1586.67" y1="827.55" x2="2324.86" y2="827.55" xlink:href="#linear-gradient-2"/><linearGradient id="linear-gradient-4" x1="885.44" y1="742.29" x2="885.44" y2="308.21" gradientUnits="userSpaceOnUse"><stop offset="0.58" stop-color="#e94e1b"/><stop offset="0.62" stop-color="#e9511f" stop-opacity="0.98"/><stop offset="0.66" stop-color="#ea5b2c" stop-opacity="0.92"/><stop offset="0.71" stop-color="#ec6c41" stop-opacity="0.82"/><stop offset="0.76" stop-color="#ee835f" stop-opacity="0.69"/><stop offset="0.81" stop-color="#f0a085" stop-opacity="0.51"/><stop offset="0.86" stop-color="#f4c4b4" stop-opacity="0.3"/><stop offset="0.91" stop-color="#f7eeea" stop-opacity="0.05"/><stop offset="0.92" stop-color="#f8f6f4" stop-opacity="0"/></linearGradient><linearGradient id="linear-gradient-5" x1="0" y1="157.89" x2="748.71" y2="157.89" xlink:href="#linear-gradient-2"/><linearGradient id="linear-gradient-6" x1="2338.12" y1="461.23" x2="2630.34" y2="461.23" xlink:href="#linear-gradient-2"/></defs><title>Asset 2FLECHAS2</title><g class="cls-1"><g id="Layer_2" data-name="Layer 2"><g id="flechas"><g class="cls-2"><path class="cls-3" d="M2650.41,169.18l-9.61-6.71,26.35-37.75a45.94,45.94,0,0,1,32.68-19.63l67.24-7.19a34.2,34.2,0,0,0,25.24-16.08l38-60.1c9.1-14.4,24.95-22.69,41.39-21.63l591.62,38.06-.75,11.7L2870.91,11.79C2858.75,11,2847,17.21,2840.18,28l-38,60.1a45.85,45.85,0,0,1-33.9,21.48l-67.25,7.18a34.27,34.27,0,0,0-24.31,14.69Z"/><polygon class="cls-4" points="3442.13 61.99 3457.5 43.1 3453.64 29.23 3509.3 44.95 3442.13 61.99"/><path class="cls-5" d="M2324.86,766.88l-47.34,39.41,18.53-.08L2261,864.51a25,25,0,0,1-25.43,11.65l-647-105.9-1.9,11.56,647,105.91a37.31,37.31,0,0,0,6,.49A36.64,36.64,0,0,0,2271,870.63l35.33-59.47,11.89,11.23Z"/><path class="cls-6" d="M1304.09,727.87l-51.27-24,2.92,11.93L499.55,592a25.09,25.09,0,0,1-17.46-37.65l144-240.1-10.06-6L472,548.31a36.79,36.79,0,0,0,25.61,55.24l756.19,123.79-9.45,14.95Z"/><path class="cls-7" d="M744,76.47a45.63,45.63,0,0,0-38.51-26L222.15,18.7A112.55,112.55,0,0,0,116.88,75.41L109,89.24A101.27,101.27,0,0,1,13.59,140L.9,139,0,150.68l12.69,1A113,113,0,0,0,119.2,95l7.87-13.83a100.83,100.83,0,0,1,94.31-50.8L704.75,62.21a34.41,34.41,0,0,1,26.06,53.9l-.1.13L643.88,258.39l-10.49-8.71-5.32,47.63,46.41-36.07-19,.68,85.09-139.29A45.62,45.62,0,0,0,744,76.47Z"/><polygon class="cls-8" points="2630.34 234.72 2628.48 188.01 2587.66 223.5 2607.07 221.65 2338.12 730.8 2350.77 734.45 2617.79 224.63 2630.34 234.72"/></g></g></g></g></svg>