<svg xmlns="http://www.w3.org/2000/svg" viewBox="0 0 1717.08 847.46"><defs><style>.cls-1{isolation:isolate;}.cls-2,.cls-3{fill:none;stroke-miterlimit:10;stroke-width:0.93px;stroke-dasharray:2.39 2.09;}.cls-2{stroke:#f29100;mix-blend-mode:multiply;}.cls-3{stroke:#6f6f6e;}</style></defs><title>Asset 18lineas2</title><g class="cls-1"><g id="Layer_2" data-name="Layer 2"><g id="Layer_5" data-name="Layer 5"><path class="cls-2" d="M66,.46h442.9a5.61,5.61,0,0,1,5.6,5.61V262.39a5.61,5.61,0,0,1-5.6,5.61h0a5.6,5.6,0,0,0-5.61,5.6V557.86a5.6,5.6,0,0,1-5.6,5.6H6.07a5.61,5.61,0,0,0-5.61,5.61V847.46"/><path class="cls-3" d="M876.46,500V752.27a28.19,28.19,0,0,1-28.19,28.19H487.49a28.19,28.19,0,0,1-28.19-28.19V624.34a28.19,28.19,0,0,1,28.19-28.19H750.27A28.2,28.2,0,0,0,778.46,568V29.66a28.21,28.21,0,0,1,28.2-28.2h910.42"/></g></g></g></svg>