<?xml version="1.0" encoding="utf-8"?>
<!-- Generator: Adobe Illustrator 23.0.2, SVG Export Plug-In . SVG Version: 6.00 Build 0)  -->
<svg version="1.1" id="Capa_1" xmlns="http://www.w3.org/2000/svg" xmlns:xlink="http://www.w3.org/1999/xlink" x="0px" y="0px"
	 viewBox="0 0 199.2 96.5" style="enable-background:new 0 0 199.2 96.5;" xml:space="preserve">
<style type="text/css">
	.st0{fill:#1D1D1B;}
</style>
<title>Asset 19</title>
<g id="Layer_2">
	<g id="Layer_7">
		<path class="st0" d="M4.1,5.3H1.8v3.5h2.7v0.9H0.7V0.4h3.6v0.9H1.8v3.1h2.4V5.3z"/>
		<path class="st0" d="M5.4,0.1h1.1v9.7H5.4V0.1z"/>
		<path class="st0" d="M13,9.8l-0.1-0.7l0,0c-0.3,0.5-0.8,0.8-1.4,0.8c-1,0-1.7-0.8-1.7-1.8c0,0,0-0.1,0-0.1c0-1.7,1.4-2.4,2.9-2.4
			V5.3c0-0.9-0.2-1.5-1.1-1.5c-0.4,0-0.8,0.1-1.1,0.3l-0.2-0.8c0.5-0.3,1-0.4,1.6-0.4c1.4,0,1.9,0.9,1.9,2.4v2.9c0,0.5,0,1,0.1,1.5
			H13z M12.8,6.3c-0.6,0-1.9,0.1-1.9,1.6c0,0.9,0.4,1.2,0.8,1.2s0.9-0.4,1-1c0-0.1,0-0.3,0-0.4L12.8,6.3z"/>
		<path class="st0" d="M18.7,9.6c-0.3,0.2-0.7,0.3-1.1,0.2c-1.5,0-2.5-1.2-2.5-3.4c0-1.9,1-3.5,2.7-3.5c0.3,0,0.7,0.1,1,0.2L18.5,4
			c-0.2-0.1-0.5-0.2-0.8-0.2c-1.1,0-1.6,1.3-1.6,2.6C16.2,8,16.8,9,17.8,9c0.3,0,0.5-0.1,0.8-0.2L18.7,9.6z"/>
		<path class="st0" d="M22.8,9.6c-0.3,0.2-0.7,0.3-1.1,0.2c-1.5,0-2.5-1.2-2.5-3.4c0-1.9,1-3.5,2.7-3.5c0.3,0,0.7,0.1,1,0.2L22.7,4
			c-0.2-0.1-0.5-0.2-0.8-0.2c-1.1,0-1.6,1.3-1.6,2.6C20.3,8,20.9,9,21.9,9c0.3,0,0.5-0.1,0.8-0.2L22.8,9.6z"/>
		<path class="st0" d="M24.4,6.5C24.5,8.6,25.3,9,26,9c0.4,0,0.8-0.1,1.1-0.2l0.2,0.8c-0.5,0.2-1,0.3-1.5,0.3
			c-1.6,0-2.5-1.3-2.5-3.4s0.9-3.6,2.3-3.6s1.9,1.5,1.9,3c0,0.3,0,0.4,0,0.6L24.4,6.5z M26.6,5.7c0-1.4-0.5-2-1-2
			c-0.7,0-1.1,1-1.1,2H26.6z"/>
		<path class="st0" d="M28.6,8.7C28.9,8.9,29.3,9,29.7,9c0.5,0,1-0.3,1-0.9c0,0,0-0.1,0-0.1c0-0.5-0.2-0.9-0.9-1.3
			c-0.9-0.6-1.4-1.2-1.4-1.9c0-1,0.8-1.8,1.8-1.9c0,0,0.1,0,0.1,0c0.4,0,0.8,0.1,1.2,0.3L31.2,4c-0.3-0.2-0.6-0.3-0.9-0.3
			c-0.5,0-0.9,0.3-0.9,0.8c0,0,0,0.1,0,0.1c0,0.4,0.2,0.7,0.9,1.2c0.8,0.4,1.3,1.2,1.4,2.1c0.1,1-0.7,1.9-1.8,2c-0.1,0-0.2,0-0.3,0
			c-0.5,0-0.9-0.1-1.3-0.4L28.6,8.7z"/>
		<path class="st0" d="M37,6.4c0,2.6-1.2,3.5-2.3,3.5c-1.2,0-2.2-1.1-2.2-3.5s1.1-3.5,2.3-3.5S37,4.1,37,6.4z M33.6,6.4
			c0,1.1,0.2,2.6,1.2,2.6s1.1-1.6,1.1-2.7s-0.2-2.6-1.1-2.6S33.6,5.4,33.6,6.4L33.6,6.4z"/>
		<path class="st0" d="M43,9.8l0-0.7l0,0c-0.3,0.5-0.8,0.8-1.4,0.8c-1,0-1.7-0.9-1.6-1.8c0,0,0-0.1,0-0.1c0-1.7,1.3-2.4,2.9-2.4V5.3
			c0-0.9-0.2-1.5-1.1-1.5c-0.4,0-0.8,0.1-1.1,0.3l-0.2-0.8c0.5-0.3,1-0.4,1.5-0.4c1.4,0,1.9,0.9,1.9,2.4v2.9c0,0.5,0,1,0.1,1.5H43z
			 M42.9,6.3c-0.5,0-1.9,0.1-1.9,1.6c0,0.9,0.4,1.2,0.8,1.2s0.9-0.4,1-1c0-0.1,0-0.3,0-0.4L42.9,6.3z"/>
		<path class="st0" d="M48.8,1.3c0,0.3-0.2,0.7-0.6,0.7c0,0-0.1,0-0.1,0c-0.3,0-0.6-0.3-0.6-0.6c0,0,0,0,0-0.1
			c0-0.4,0.2-0.7,0.6-0.7c0,0,0,0,0,0C48.5,0.6,48.8,0.8,48.8,1.3C48.8,1.2,48.8,1.2,48.8,1.3z M47.7,9.8V3h1.1v6.8H47.7z"/>
		<path class="st0" d="M50.2,4.8c0-0.8,0-1.2-0.1-1.8h0.9l0.1,0.8l0,0c0.3-0.6,0.9-0.9,1.5-0.9c0.9,0,1.6,0.7,1.6,2.3v4.6h-1V5.4
			c0-0.8-0.2-1.6-0.9-1.6c-0.5,0-0.9,0.4-1,1.1c0,0.2-0.1,0.4-0.1,0.6v4.3h-1.1V4.8z"/>
		<path class="st0" d="M56.1,9.8v-6h-0.9V3h0.9V2.6c0-0.7,0.2-1.4,0.6-2C57.1,0.2,57.6,0,58.1,0c0.3,0,0.6,0,0.8,0.2L58.8,1
			c-0.2-0.1-0.4-0.1-0.6-0.1c-0.8,0-1,0.8-1,1.7V3h1.2v0.8h-1.2v6L56.1,9.8z"/>
		<path class="st0" d="M63.2,6.4C63.2,9,62,9.9,61,9.9c-1.2,0-2.2-1.1-2.2-3.5s1.1-3.5,2.2-3.5S63.2,4.1,63.2,6.4z M59.9,6.4
			c0,1.1,0.2,2.6,1.2,2.6s1.1-1.6,1.1-2.7S61.9,3.8,61,3.8S59.8,5.4,59.9,6.4z"/>
		<path class="st0" d="M64.4,4.8c0-0.6,0-1.2-0.1-1.8h1l0.1,1.1l0,0c0.2-0.6,0.7-1.1,1.4-1.2H67V4h-0.2c-0.7,0.1-1.3,0.7-1.3,1.4
			c0,0.2,0,0.4,0,0.6v3.8h-1.1V4.8z"/>
		<path class="st0" d="M67.9,4.8c0-0.8,0-1.2,0-1.8h0.9l0.1,0.8l0,0c0.3-0.6,0.9-0.9,1.5-0.9c0.6,0,1.2,0.4,1.4,1l0,0
			c0.2-0.3,0.4-0.6,0.7-0.8c0.3-0.2,0.6-0.3,0.9-0.3c0.9,0,1.6,0.7,1.6,2.4v4.5h-1V5.6c0-0.9-0.1-1.7-1-1.7c-0.4,0-0.8,0.4-1,1
			c0,0.2,0,0.4,0,0.6v4.4h-1.1V5.4c0-0.7-0.1-1.5-0.9-1.5c-0.4,0-0.9,0.4-1,1.1c0,0.2,0,0.4,0,0.6v4.3h-1.1V4.8z"/>
		<path class="st0" d="M79.2,9.8l-0.1-0.7l0,0c-0.3,0.5-0.8,0.8-1.3,0.8c-1,0-1.7-0.8-1.7-1.8c0,0,0-0.1,0-0.1
			c0-1.7,1.4-2.4,2.9-2.4V5.3c0-0.9-0.2-1.5-1.1-1.5c-0.4,0-0.8,0.1-1.1,0.3l-0.2-0.8c0.5-0.3,1-0.4,1.6-0.4c1.3,0,1.9,0.9,1.9,2.4
			v2.9c0,0.5,0,1,0.1,1.5H79.2z M79.1,6.3c-0.6,0-1.9,0.1-1.9,1.6c0,0.9,0.4,1.2,0.8,1.2s0.9-0.4,1-1c0-0.1,0-0.3,0-0.4L79.1,6.3z"
			/>
		<path class="st0" d="M85,9.6c-0.4,0.2-0.7,0.3-1.1,0.2c-1.5,0-2.5-1.2-2.5-3.4c0-1.9,1-3.5,2.7-3.5c0.3,0,0.7,0.1,1,0.2L84.8,4
			c-0.2-0.1-0.5-0.2-0.8-0.2c-1.1,0-1.6,1.3-1.6,2.6C82.4,8,83,9,84,9c0.3,0,0.5-0.1,0.8-0.2L85,9.6z"/>
		<path class="st0" d="M87,1.3c0,0.4-0.3,0.6-0.6,0.6s-0.6-0.3-0.6-0.6c0,0,0,0,0,0c0-0.4,0.2-0.7,0.6-0.7c0,0,0,0,0,0
			C86.7,0.6,87,0.8,87,1.3C87,1.2,87,1.2,87,1.3z M85.9,9.8V3h1.1v6.8H85.9z"/>
		<path class="st0" d="M92.6,6.4c0,2.6-1.2,3.5-2.2,3.5c-1.2,0-2.2-1.1-2.2-3.5s1.1-3.5,2.3-3.5S92.6,4.1,92.6,6.4z M89.2,6.4
			c0,1.1,0.2,2.6,1.2,2.6s1.1-1.6,1.1-2.7s-0.2-2.6-1.2-2.6S89.2,5.4,89.2,6.4z M92,0.3l-1.4,1.9h-0.7l1.1-1.9H92z"/>
		<path class="st0" d="M93.8,4.8c0-0.8,0-1.2-0.1-1.8h0.9l0.1,0.8l0,0c0.3-0.6,0.9-0.9,1.6-0.9c0.9,0,1.6,0.7,1.6,2.3v4.6h-1.1V5.4
			c0-0.8-0.2-1.6-0.9-1.6c-0.4,0-0.9,0.4-1,1.1c0,0.2-0.1,0.4-0.1,0.6v4.3h-1.1V4.8z"/>
		<path class="st0" d="M105.8,0.1v8.1c0,0.5,0,1.2,0,1.6h-0.9l0-0.8l0,0c-0.2,0.6-0.8,1-1.4,1c-1.2,0-2-1.2-2-3.5c0-2.4,1-3.5,2-3.5
			c0.5,0,1,0.3,1.2,0.8l0,0V0.1H105.8z M104.7,5.6c0-0.1,0-0.3,0-0.4c-0.1-0.7-0.5-1.3-1-1.3c-0.9,0-1.2,1.2-1.2,2.6
			s0.3,2.6,1.1,2.6c0.3,0,0.8-0.2,1-1.2c0-0.1,0-0.3,0-0.4L104.7,5.6z"/>
		<path class="st0" d="M108,6.5c0,2.1,0.8,2.5,1.6,2.5c0.4,0,0.8-0.1,1.1-0.2l0.2,0.8c-0.5,0.2-1,0.3-1.5,0.3
			c-1.6,0-2.5-1.3-2.5-3.4s0.9-3.6,2.3-3.6s1.9,1.5,1.9,3c0,0.2,0,0.4,0,0.6L108,6.5z M110.1,5.7c0-1.4-0.5-2-1-2
			c-0.7,0-1.1,1-1.1,2H110.1z"/>
		<path class="st0" d="M114.5,4.8c0-0.8,0-1.2-0.1-1.8h1v0.8l0,0c0.3-0.6,0.9-0.9,1.5-0.9c0.6,0,1.2,0.4,1.4,1l0,0
			c0.2-0.3,0.4-0.6,0.7-0.8c0.3-0.2,0.6-0.3,0.9-0.3c0.9,0,1.6,0.7,1.6,2.4v4.5h-1.1V5.6c0-0.9-0.1-1.7-0.9-1.7c-0.4,0-0.8,0.4-1,1
			c0,0.2,0,0.4,0,0.6v4.4h-1.1V5.4c0-0.7-0.1-1.5-0.9-1.5c-0.4,0-0.9,0.4-1,1.1c0,0.2,0,0.4,0,0.6v4.3h-1.1L114.5,4.8z"/>
		<path class="st0" d="M125.9,9.8l-0.1-0.7l0,0c-0.3,0.5-0.8,0.8-1.4,0.8c-1,0-1.7-0.9-1.6-1.8c0,0,0-0.1,0-0.1
			c0-1.7,1.3-2.4,2.9-2.4V5.3c0-0.9-0.2-1.5-1.1-1.5c-0.4,0-0.8,0.1-1.1,0.3l-0.2-0.8c0.5-0.3,1-0.4,1.6-0.4c1.4,0,1.9,0.9,1.9,2.4
			v2.9c0,0.5,0,1,0.1,1.5H125.9z M125.7,6.3c-0.6,0-1.9,0.1-1.9,1.6c0,0.9,0.4,1.2,0.8,1.2s0.9-0.4,1-1c0-0.1,0-0.3,0-0.4L125.7,6.3
			z"/>
		<path class="st0" d="M128.7,3l0.9,3.9c0.1,0.5,0.2,1,0.3,1.4l0,0c0.1-0.4,0.2-0.9,0.3-1.4L131,3h1.1L131,7.4
			c-0.3,1.6-0.9,3-1.7,4.4c-0.3,0.4-0.7,0.8-1.2,1l-0.4-0.9c0.4-0.2,0.7-0.5,1-0.9c0.3-0.3,0.5-0.7,0.6-1.1c0-0.1,0.1-0.2,0.1-0.3
			c0-0.1,0-0.2,0-0.2L127.6,3H128.7z"/>
		<path class="st0" d="M137,6.4c0,2.6-1.2,3.5-2.3,3.5c-1.2,0-2.2-1.1-2.2-3.5s1.1-3.5,2.3-3.5S137,4.1,137,6.4z M133.6,6.4
			c0,1.1,0.2,2.6,1.2,2.6s1.1-1.6,1.1-2.7s-0.2-2.6-1.1-2.6S133.6,5.4,133.6,6.4z"/>
		<path class="st0" d="M138.2,4.8c0-0.6,0-1.2-0.1-1.8h1l0.1,1.1l0,0c0.2-0.6,0.8-1.1,1.4-1.2h0.2V4h-0.2c-0.7,0.1-1.3,0.7-1.3,1.4
			c0,0.2,0,0.4,0,0.6v3.8h-1.1L138.2,4.8z"/>
		<path class="st0" d="M143.9,4.8c0-0.6,0-1.2-0.1-1.8h1l0.1,1.1l0,0c0.2-0.6,0.8-1.1,1.4-1.2h0.2V4h-0.2c-0.7,0.1-1.3,0.7-1.3,1.4
			c0,0.2,0,0.4,0,0.6v3.8h-1.1L143.9,4.8z"/>
		<path class="st0" d="M147.9,6.5c0,2.1,0.8,2.5,1.6,2.5c0.4,0,0.8-0.1,1.1-0.2l0.2,0.8c-0.5,0.2-1,0.3-1.5,0.3
			c-1.6,0-2.5-1.3-2.5-3.4s0.9-3.6,2.3-3.6s1.9,1.5,1.9,3c0,0.3,0,0.4,0,0.6L147.9,6.5z M150,5.7c0-1.4-0.5-2-1-2
			c-0.7,0-1.1,1-1.1,2H150z"/>
		<path class="st0" d="M152,8.7c0.3,0.2,0.7,0.3,1.1,0.4c0.5,0,1-0.3,1-0.9c0,0,0-0.1,0-0.1c0-0.5-0.2-0.9-0.9-1.3
			c-0.9-0.6-1.4-1.2-1.4-1.9c0-1,0.8-1.8,1.8-1.9c0,0,0.1,0,0.1,0c0.4,0,0.8,0.1,1.2,0.3l-0.3,0.8c-0.3-0.2-0.6-0.3-0.9-0.3
			c-0.5,0-0.8,0.3-0.9,0.8c0,0,0,0,0,0.1c0,0.4,0.2,0.7,0.8,1.2c0.8,0.4,1.3,1.2,1.4,2.1c0.1,1-0.7,1.9-1.8,2c-0.1,0-0.2,0-0.2,0
			c-0.5,0-0.9-0.1-1.3-0.4L152,8.7z"/>
		<path class="st0" d="M160.4,6.4c0,2.6-1.2,3.5-2.2,3.5c-1.2,0-2.2-1.1-2.2-3.5s1.1-3.5,2.3-3.5S160.4,4.1,160.4,6.4z M157.1,6.4
			c0,1.1,0.2,2.6,1.2,2.6s1.1-1.6,1.1-2.7s-0.2-2.6-1.1-2.6S157.1,5.4,157.1,6.4z"/>
		<path class="st0" d="M161.6,0.1h1.1v9.7h-1.1V0.1z"/>
		<path class="st0" d="M168.4,8c0,0.8,0,1.3,0.1,1.9h-1l-0.1-0.7l0,0c-0.3,0.5-0.9,0.8-1.4,0.8c-1.2,0-1.6-0.9-1.6-2.6V3h1.1v4.2
			c0,1.1,0.2,1.9,0.9,1.9c0.5,0,0.9-0.4,1-0.9c0-0.2,0.1-0.4,0.1-0.6V3h1.1L168.4,8z"/>
		<path class="st0" d="M173.2,9.6c-0.3,0.2-0.7,0.3-1.1,0.2c-1.5,0-2.5-1.2-2.5-3.4c0-1.9,1-3.5,2.7-3.5c0.3,0,0.7,0.1,1,0.2L173,4
			c-0.2-0.1-0.5-0.2-0.8-0.2c-1.1,0-1.6,1.3-1.6,2.6c0,1.6,0.6,2.5,1.6,2.5c0.3,0,0.5-0.1,0.8-0.2L173.2,9.6z"/>
		<path class="st0" d="M175.3,1.3c0,0.4-0.3,0.6-0.6,0.6c-0.4,0-0.6-0.3-0.6-0.6c0,0,0,0,0,0c0-0.4,0.2-0.7,0.6-0.7c0,0,0,0,0.1,0
			C175,0.6,175.3,0.8,175.3,1.3C175.3,1.2,175.3,1.2,175.3,1.3z M174.1,9.8V3h1.1v6.8L174.1,9.8z"/>
		<path class="st0" d="M180.8,6.4c0,2.6-1.2,3.5-2.2,3.5c-1.2,0-2.2-1.1-2.2-3.5s1.1-3.5,2.3-3.5S180.8,4.1,180.8,6.4z M177.5,6.4
			c0,1.1,0.2,2.6,1.2,2.6s1.1-1.6,1.1-2.7s-0.2-2.6-1.1-2.6S177.5,5.4,177.5,6.4z M180.3,0.3l-1.5,1.9h-0.7l1.1-1.9L180.3,0.3z"/>
		<path class="st0" d="M182,4.8c0-0.8,0-1.2,0-1.8h0.9v0.8l0,0c0.3-0.6,0.9-0.9,1.6-0.9c0.9,0,1.6,0.7,1.6,2.3v4.6h-1.1V5.4
			c0-0.8-0.1-1.6-0.9-1.6c-0.4,0-0.9,0.4-1,1.1c0,0.2,0,0.4,0,0.6v4.3H182V4.8z"/>
		<g>
			<path class="st0" d="M1.2,22.5c0,2.1,0.8,2.5,1.6,2.5C3.2,25,3.6,25,4,24.8l0.2,0.8c-0.5,0.2-1,0.3-1.5,0.3
				c-1.6,0-2.5-1.3-2.5-3.4s0.9-3.6,2.3-3.6s1.9,1.5,1.9,3c0,0.3,0,0.4,0,0.6L1.2,22.5z M3.4,21.7c0-1.4-0.5-2-1-2
				c-0.7,0-1.1,1-1.1,2H3.4z"/>
			<path class="st0" d="M5.6,20.8c0-0.8,0-1.2-0.1-1.8h0.9l0.1,0.8l0,0c0.3-0.6,0.9-0.9,1.6-0.9c0.9,0,1.6,0.7,1.6,2.3v4.6H8.6v-4.4
				c0-0.8-0.1-1.6-0.9-1.6c-0.4,0-0.9,0.4-1,1.1c0,0.2-0.1,0.4-0.1,0.6v4.3H5.6V20.8z"/>
		</g>
		<path class="st0" d="M16.3,18v1.8h1.3v0.8h-1.3v4c0,0.9,0.3,1.1,0.7,1.1c0.1,0,0.3,0,0.4,0v0.8c-0.3,0.1-0.5,0.1-0.8,0.1
			c-0.4,0-0.8-0.1-1.1-0.4c-0.3-0.5-0.5-1.1-0.4-1.7v-3.9h-0.8v-0.8h0.8v-1.5L16.3,18z"/>
		<path class="st0" d="M19.7,18.1c0,0.4-0.3,0.6-0.6,0.6s-0.6-0.3-0.6-0.6c0-0.4,0.2-0.7,0.6-0.7c0,0,0,0,0,0
			C19.4,17.4,19.7,17.6,19.7,18.1C19.7,18,19.7,18,19.7,18.1z M18.5,26.6v-6.8h1.1v6.8H18.5z"/>
		<path class="st0" d="M21.8,23.3c0,2.1,0.8,2.5,1.6,2.5c0.4,0,0.8-0.1,1.1-0.2l0.2,0.8c-0.5,0.2-1,0.3-1.5,0.3
			c-1.6,0-2.5-1.3-2.5-3.4s0.9-3.6,2.3-3.6c1.3,0,1.9,1.5,1.9,3c0,0.3,0,0.5,0,0.6L21.8,23.3z M24,22.5c0-1.4-0.5-2-1-2
			c-0.7,0-1.1,1-1.1,2H24z"/>
		<path class="st0" d="M26.2,21.6c0-0.8,0-1.2-0.1-1.8h1l0,0.8l0,0c0.3-0.6,0.9-0.9,1.5-0.9c0.6,0,1.2,0.4,1.4,1l0,0
			c0.2-0.3,0.4-0.6,0.7-0.8c0.3-0.2,0.6-0.3,0.9-0.3c0.9,0,1.6,0.7,1.6,2.4v4.5h-1v-4.2c0-0.9-0.1-1.7-0.9-1.7c-0.5,0-0.8,0.4-1,1
			c0,0.2-0.1,0.4,0,0.6v4.4h-1.1v-4.4c0-0.7-0.1-1.5-0.9-1.5c-0.5,0-0.9,0.4-1,1.1c0,0.2,0,0.4,0,0.6v4.3h-1.1V21.6z"/>
		<path class="st0" d="M34.8,21.9c0-1,0-1.6-0.1-2.1h1l0.1,0.9l0,0c0.2-0.6,0.8-1,1.4-1c1.2,0,2,1.2,2,3.5c0,2.5-1,3.5-2.1,3.5
			c-0.5,0-1-0.3-1.2-0.8l0,0v3.4h-1.2V21.9z M35.9,24.1c0,0.2,0,0.4,0,0.6c0.2,1,0.7,1.1,1,1.1c0.9,0,1.2-1.2,1.2-2.6
			s-0.3-2.6-1.2-2.6c-0.5,0-0.9,0.6-1,1.2c0,0.2,0,0.3,0,0.5L35.9,24.1z"/>
		<path class="st0" d="M44.6,23.2c0,2.6-1.2,3.5-2.2,3.5c-1.2,0-2.2-1.1-2.2-3.5s1.1-3.5,2.3-3.5C43.6,19.7,44.6,20.9,44.6,23.2z
			 M41.2,23.2c0,1.1,0.2,2.6,1.2,2.6c1,0,1.1-1.6,1.1-2.6s-0.2-2.6-1.2-2.6S41.2,22.2,41.2,23.2z"/>
		<path class="st0" d="M48,21.6c0-0.6,0-1.2,0-1.8h1v1.1l0,0c0.2-0.6,0.7-1.1,1.4-1.2h0.2v1.1h-0.2c-0.7,0.1-1.3,0.7-1.3,1.4
			c0,0.2,0,0.4,0,0.6v3.8H48V21.6z"/>
		<path class="st0" d="M52,23.3c0,2.1,0.8,2.5,1.6,2.5c0.4,0,0.8-0.1,1.1-0.2l0.2,0.8c-0.5,0.2-1,0.3-1.5,0.3
			c-1.6,0-2.5-1.3-2.5-3.4s0.9-3.6,2.3-3.6s1.9,1.5,1.9,3c0,0.2,0,0.4,0,0.6L52,23.3z M54.2,22.5c0-1.4-0.5-2-1-2
			c-0.7,0-1.1,1-1.1,2H54.2z"/>
		<path class="st0" d="M59,26.6L59,25.9l0,0c-0.3,0.5-0.8,0.8-1.3,0.8c-1-0.1-1.7-0.9-1.6-1.8c0,0,0-0.1,0-0.1
			c0-1.7,1.4-2.4,2.9-2.5v-0.2c0-0.9-0.2-1.5-1.1-1.5c-0.4,0-0.8,0.1-1.1,0.4l-0.2-0.8c0.5-0.3,1-0.4,1.6-0.4c1.3,0,1.9,0.9,1.9,2.4
			v2.9c0,0.5,0,1,0.1,1.5H59z M58.9,23.1c-0.5,0-1.9,0.1-1.9,1.6c0,0.9,0.5,1.2,0.8,1.2s0.9-0.4,1-1c0-0.1,0-0.3,0-0.4L58.9,23.1z"
			/>
		<path class="st0" d="M61.4,16.9h1.1v9.7h-1.1V16.9z"/>
		<path class="st0" d="M63.4,28.4c0.4-1.1,0.6-2.2,0.8-3.3l1.2-0.1c-0.3,1.1-0.7,2.2-1.3,3.3L63.4,28.4z"/>
		<path class="st0" d="M69.6,23.3c0,2.1,0.8,2.5,1.6,2.5c0.4,0,0.8-0.1,1.1-0.2l0.2,0.8c-0.5,0.2-1,0.3-1.5,0.3
			c-1.6,0-2.5-1.3-2.5-3.4s0.9-3.6,2.3-3.6c1.3,0,1.9,1.5,1.9,3c0,0.3,0,0.5,0,0.6L69.6,23.3z M71.7,22.5c0-1.4-0.5-2-1-2
			c-0.7,0-1.1,1-1.1,2H71.7z"/>
		<path class="st0" d="M73.9,21.6c0-0.8,0-1.2-0.1-1.8h0.9v0.8l0,0c0.3-0.6,0.9-0.9,1.6-0.9c0.9,0,1.6,0.7,1.6,2.3v4.6h-1v-4.4
			c0-0.8-0.2-1.6-0.9-1.6c-0.5,0-0.9,0.4-1,1.1c0,0.2-0.1,0.4-0.1,0.6v4.3h-1.1V21.6z"/>
		<path class="st0" d="M85.9,24.8c0,0.8,0,1.3,0,1.9h-0.9l-0.1-0.7l0,0c-0.3,0.5-0.9,0.8-1.4,0.8c-1.2,0-1.7-0.9-1.7-2.6v-4.3h1.1
			V24c0,1.1,0.2,1.9,0.9,1.9c0.5,0,0.9-0.4,1-0.9c0-0.2,0.1-0.4,0.1-0.6v-4.5h1.1L85.9,24.8z"/>
		<path class="st0" d="M87.4,21.6c0-0.8,0-1.2-0.1-1.8h0.9v0.8l0,0c0.3-0.6,0.9-0.9,1.6-0.9c0.9,0,1.6,0.7,1.6,2.3v4.6h-1v-4.4
			c0-0.8-0.2-1.6-0.9-1.6c-0.4,0-0.9,0.4-1,1.1c0,0.2,0,0.4,0,0.6v4.3h-1.2V21.6z"/>
		<path class="st0" d="M95.7,26.6l-0.1-0.7l0,0c-0.3,0.5-0.8,0.8-1.4,0.8c-1-0.1-1.7-0.9-1.6-1.8c0,0,0-0.1,0-0.1
			c0-1.7,1.4-2.4,2.9-2.5v-0.2c0-0.9-0.2-1.5-1.1-1.5c-0.4,0-0.8,0.1-1.1,0.4l-0.2-0.8c0.5-0.3,1-0.4,1.6-0.4c1.4,0,1.9,0.9,1.9,2.4
			v2.9c0,0.5,0,1,0.1,1.5H95.7z M95.6,23.1c-0.6,0-1.9,0.1-1.9,1.6c0,0.9,0.4,1.2,0.8,1.2s0.9-0.4,1-1c0-0.1,0-0.3,0-0.4L95.6,23.1z
			"/>
		<path class="st0" d="M101.1,23.3c0,2.1,0.8,2.5,1.6,2.5c0.4,0,0.8-0.1,1.1-0.2l0.2,0.8c-0.5,0.2-1,0.3-1.5,0.3
			c-1.6,0-2.5-1.3-2.5-3.4s0.9-3.6,2.3-3.6s1.9,1.5,1.9,3c0,0.2,0,0.4,0,0.6L101.1,23.3z M103.2,22.5c0-1.4-0.5-2-1-2
			c-0.7,0-1.1,1-1.1,2H103.2z"/>
		<path class="st0" d="M106.7,18v1.8h1.3v0.8h-1.3v4c0,0.9,0.3,1.1,0.7,1.1c0.1,0,0.3,0,0.4,0v0.8c-0.3,0.1-0.5,0.1-0.8,0.1
			c-0.4,0-0.8-0.1-1.1-0.4c-0.3-0.5-0.5-1.1-0.4-1.7v-3.9h-0.8v-0.8h0.8v-1.5L106.7,18z"/>
		<path class="st0" d="M111.7,26.6l-0.1-0.7l0,0c-0.3,0.5-0.8,0.8-1.4,0.8c-1-0.1-1.7-0.9-1.6-1.8c0,0,0-0.1,0-0.1
			c0-1.7,1.3-2.4,2.9-2.5v-0.2c0-0.9-0.2-1.5-1.1-1.5c-0.4,0-0.8,0.1-1.1,0.4l-0.2-0.8c0.5-0.3,1-0.4,1.6-0.4c1.4,0,1.9,0.9,1.9,2.4
			v2.9c0,0.5,0,1,0.1,1.5H111.7z M111.5,23.1c-0.6,0-1.9,0.1-1.9,1.6c0,0.9,0.4,1.2,0.8,1.2s0.9-0.4,1-1c0-0.1,0-0.3,0-0.4
			L111.5,23.1z"/>
		<path class="st0" d="M114.1,21.9c0-1,0-1.6-0.1-2.1h1l0.1,0.9l0,0c0.2-0.6,0.8-1,1.4-1c1.2,0,2,1.2,2,3.5c0,2.5-1,3.5-2.1,3.5
			c-0.5,0-1-0.3-1.2-0.8l0,0v3.4h-1.2V21.9z M115.1,24.1c0,0.2,0,0.4,0,0.6c0.2,1,0.7,1.1,1,1.1c0.9,0,1.2-1.2,1.2-2.6
			s-0.3-2.6-1.2-2.6c-0.5,0-0.9,0.6-1,1.2c0,0.2,0,0.3,0,0.5L115.1,24.1z"/>
		<path class="st0" d="M122.4,26.6l-0.1-0.7l0,0c-0.3,0.5-0.8,0.8-1.3,0.8c-1-0.1-1.7-0.9-1.6-1.8c0,0,0-0.1,0-0.1
			c0-1.7,1.4-2.4,2.9-2.5v-0.2c0-0.9-0.2-1.5-1.1-1.5c-0.4,0-0.8,0.1-1.1,0.4l-0.2-0.8c0.5-0.3,1-0.4,1.6-0.4c1.3,0,1.9,0.9,1.9,2.4
			v2.9c0,0.5,0,1,0.1,1.5H122.4z M122.2,23.1c-0.6,0-1.9,0.1-1.9,1.6c0,0.9,0.4,1.2,0.8,1.2s0.9-0.4,1-1c0-0.1,0-0.3,0-0.4
			L122.2,23.1z"/>
		<path class="st0" d="M129.6,26.6l-0.1-0.7l0,0c-0.3,0.5-0.8,0.8-1.4,0.8c-1-0.1-1.7-0.9-1.6-1.8c0,0,0-0.1,0-0.1
			c0-1.7,1.4-2.4,2.9-2.5v-0.2c0-0.9-0.2-1.5-1.1-1.5c-0.4,0-0.8,0.1-1.1,0.4l-0.2-0.8c0.5-0.3,1-0.4,1.6-0.4c1.4,0,1.9,0.9,1.9,2.4
			v2.9c0,0.5,0,1,0.1,1.5H129.6z M129.5,23.1c-0.6,0-1.9,0.1-1.9,1.6c0,0.9,0.4,1.2,0.8,1.2s0.9-0.4,1-1c0-0.1,0-0.3,0-0.4
			L129.5,23.1z"/>
		<path class="st0" d="M132.1,21.6c0-0.8,0-1.2,0-1.8h0.9v0.8l0,0c0.3-0.6,0.9-0.9,1.6-0.9c0.9,0,1.6,0.7,1.6,2.3v4.6h-1.1v-4.4
			c0-0.8-0.2-1.6-0.9-1.6c-0.5,0-0.9,0.4-1,1.1c0,0.2,0,0.4,0,0.6v4.3h-1.1V21.6z"/>
		<path class="st0" d="M139,18v1.8h1.3v0.8H139v4c0,0.9,0.3,1.1,0.7,1.1c0.1,0,0.3,0,0.4,0v0.8c-0.3,0.1-0.5,0.1-0.8,0.1
			c-0.4,0-0.8-0.1-1.1-0.4c-0.3-0.5-0.5-1.1-0.4-1.7v-3.9H137v-0.8h0.8v-1.5L139,18z"/>
		<path class="st0" d="M141.9,23.3c0,2.1,0.8,2.5,1.6,2.5c0.4,0,0.8-0.1,1.1-0.2l0.2,0.8c-0.5,0.2-1,0.3-1.5,0.3
			c-1.6,0-2.5-1.3-2.5-3.4s0.9-3.6,2.3-3.6s1.9,1.5,1.9,3c0,0.3,0,0.5,0,0.6L141.9,23.3z M144,22.5c0-1.4-0.5-2-1-2
			c-0.7,0-1.1,1-1.1,2H144z"/>
		<path class="st0" d="M146.2,21.6c0-0.6,0-1.2-0.1-1.8h1l0.1,1.1l0,0c0.2-0.6,0.8-1.1,1.4-1.2h0.2v1.1h-0.2
			c-0.7,0.1-1.3,0.7-1.3,1.4c0,0.2,0,0.4,0,0.6v3.8h-1.1L146.2,21.6z"/>
		<path class="st0" d="M150.8,18.1c0,0.3-0.2,0.7-0.6,0.7c0,0-0.1,0-0.1,0c-0.3,0-0.6-0.3-0.6-0.6c0,0,0,0,0-0.1
			c0-0.4,0.2-0.7,0.6-0.7c0,0,0,0,0,0C150.5,17.4,150.8,17.6,150.8,18.1C150.8,18,150.8,18,150.8,18.1z M149.6,26.6v-6.8h1.1v6.8
			H149.6z"/>
		<path class="st0" d="M156.4,23.2c0,2.6-1.2,3.5-2.3,3.5c-1.2,0-2.2-1.1-2.2-3.5s1.1-3.5,2.3-3.5S156.4,20.9,156.4,23.2z M153,23.2
			c0,1.1,0.2,2.6,1.2,2.6s1.1-1.6,1.1-2.6s-0.2-2.6-1.1-2.6S153,22.2,153,23.2L153,23.2z"/>
		<path class="st0" d="M157.6,21.6c0-0.6,0-1.2-0.1-1.8h1v1.1l0,0c0.2-0.6,0.7-1.1,1.4-1.2h0.2v1.1h-0.2c-0.7,0.1-1.3,0.7-1.3,1.4
			c0,0.2,0,0.4,0,0.6v3.8h-1.1V21.6z"/>
		<path class="st0" d="M3.3,43.4l-0.1-0.7l0,0c-0.3,0.5-0.8,0.8-1.4,0.8c-1-0.1-1.7-0.9-1.6-1.8c0,0,0-0.1,0-0.1
			c0-1.7,1.4-2.4,2.9-2.5v-0.2c0-0.9-0.2-1.5-1.1-1.5c-0.4,0-0.8,0.1-1.1,0.3L0.6,37c0.5-0.3,1-0.4,1.6-0.4c1.3,0,1.9,0.9,1.9,2.4
			v2.9c0,0.5,0,1,0.1,1.5L3.3,43.4z M3.1,39.9c-0.5,0-1.9,0.1-1.9,1.6c0,0.9,0.4,1.2,0.8,1.2s0.9-0.3,1-1c0-0.1,0-0.3,0-0.4
			L3.1,39.9z"/>
		<path class="st0" d="M5.7,33.7h1.1v9.7H5.7V33.7z"/>
		<path class="st0" d="M10.5,38.7c0-1,0-1.6-0.1-2.1h1l0.1,0.9l0,0c0.2-0.6,0.8-1,1.4-1c1.2,0,2,1.2,2,3.5c0,2.5-1,3.5-2.1,3.5
			c-0.5,0-1-0.3-1.2-0.8l0,0v3.4h-1.2V38.7z M11.6,40.9c0,0.2,0,0.4,0.1,0.6c0.2,1,0.7,1.1,1,1.1c0.9,0,1.2-1.2,1.2-2.6
			s-0.3-2.6-1.2-2.6c-0.5,0-0.9,0.6-1,1.2c0,0.2,0,0.3,0,0.5L11.6,40.9z"/>
		<path class="st0" d="M16.1,38.4c0-0.6,0-1.2,0-1.8h1v1.1l0,0c0.2-0.6,0.8-1.1,1.4-1.2h0.2v1.1h-0.2c-0.7,0.1-1.2,0.7-1.3,1.4
			c0,0.2,0,0.4,0,0.6v3.8h-1.1V38.4z"/>
		<path class="st0" d="M23.6,40c0,2.6-1.2,3.5-2.2,3.5c-1.2,0-2.2-1.1-2.2-3.5s1.1-3.5,2.3-3.5S23.6,37.7,23.6,40z M20.2,40
			c0,1.1,0.2,2.7,1.2,2.7s1.1-1.6,1.1-2.7s-0.2-2.6-1.1-2.6S20.2,39,20.2,40z"/>
		<path class="st0" d="M28.1,43.2c-0.3,0.2-0.7,0.3-1.1,0.2c-1.5,0-2.5-1.2-2.5-3.4c0-1.9,1-3.5,2.7-3.5c0.3,0,0.7,0.1,1,0.2
			l-0.2,0.9c-0.2-0.1-0.5-0.2-0.8-0.2c-1.1,0-1.6,1.3-1.6,2.6c0,1.6,0.6,2.5,1.6,2.5c0.3,0,0.5-0.1,0.8-0.2L28.1,43.2z"/>
		<path class="st0" d="M29.7,40.1c0,2.1,0.8,2.5,1.6,2.5c0.4,0,0.8-0.1,1.1-0.2l0.2,0.8c-0.5,0.2-1,0.3-1.5,0.3
			c-1.6,0-2.5-1.3-2.5-3.4s0.9-3.6,2.3-3.6s1.9,1.5,1.9,3c0,0.3,0,0.5,0,0.6L29.7,40.1z M31.8,39.3c0-1.4-0.5-2-1-2
			c-0.7,0-1.1,1-1.1,2H31.8z"/>
		<path class="st0" d="M33.8,42.3c0.3,0.2,0.7,0.3,1.1,0.4c0.5,0,1-0.3,1-0.9c0,0,0-0.1,0-0.1c0-0.5-0.2-0.9-0.9-1.3
			c-0.9-0.6-1.4-1.2-1.4-1.9c0-1,0.8-1.8,1.8-1.9c0,0,0.1,0,0.1,0c0.4,0,0.8,0.1,1.2,0.3l-0.3,0.8c-0.3-0.2-0.6-0.3-0.9-0.3
			c-0.5,0-0.8,0.3-0.9,0.8c0,0,0,0,0,0.1c0,0.5,0.2,0.7,0.8,1.2c0.8,0.4,1.3,1.2,1.4,2.1c0.1,1-0.7,1.9-1.8,2c-0.1,0-0.2,0-0.2,0
			c-0.5,0-0.9-0.1-1.3-0.4L33.8,42.3z"/>
		<path class="st0" d="M42.2,40c0,2.6-1.2,3.5-2.2,3.5c-1.2,0-2.2-1.1-2.2-3.5s1.1-3.5,2.3-3.5S42.2,37.7,42.2,40z M38.8,40
			c0,1.1,0.2,2.7,1.2,2.7s1.1-1.6,1.1-2.7s-0.2-2.6-1.2-2.6S38.8,39,38.8,40z"/>
		<path class="st0" d="M49.7,33.7v8.1c0,0.5,0,1.2,0,1.6h-0.9l-0.1-0.9l0,0c-0.2,0.6-0.8,1-1.4,1c-1.2,0-2-1.2-2-3.5
			c0-2.4,1-3.5,2-3.5c0.5,0,1,0.3,1.2,0.8l0,0v-3.6H49.7z M48.6,39.2c0-0.1,0-0.3,0-0.4c-0.1-0.7-0.5-1.3-1-1.3
			c-0.9,0-1.2,1.2-1.2,2.6s0.4,2.6,1.2,2.6c0.3,0,0.8-0.2,1-1.2c0-0.1,0-0.3,0-0.5L48.6,39.2z"/>
		<path class="st0" d="M52,40.1c0,2.1,0.8,2.5,1.6,2.5c0.4,0,0.8-0.1,1.1-0.2l0.2,0.8c-0.5,0.2-1,0.3-1.5,0.3
			c-1.6,0-2.5-1.3-2.5-3.4s0.9-3.6,2.3-3.6s1.9,1.5,1.9,3c0,0.3,0,0.5,0,0.6L52,40.1z M54.1,39.3c0-1.4-0.5-2-1-2
			c-0.7,0-1.1,1-1.1,2H54.1z"/>
		<path class="st0" d="M58.5,38.4c0-0.8,0-1.2-0.1-1.8h1v0.8l0,0c0.3-0.6,0.9-1,1.6-0.9c0.6,0,1.2,0.4,1.4,1l0,0
			c0.2-0.3,0.4-0.6,0.7-0.8c0.3-0.2,0.6-0.3,0.9-0.3c0.9,0,1.6,0.7,1.6,2.4v4.5h-1.1v-4.2c0-0.9-0.1-1.7-0.9-1.7c-0.5,0-0.8,0.4-1,1
			c0,0.2,0,0.4,0,0.6v4.4h-1.1V39c0-0.8-0.1-1.5-0.9-1.5c-0.4,0-0.9,0.4-1,1.1c0,0.2,0,0.4,0,0.6v4.3h-1.1V38.4z"/>
		<path class="st0" d="M68.3,34.9c0,0.4-0.3,0.6-0.6,0.6S67,35.2,67,34.9c0,0,0,0,0,0c0-0.4,0.2-0.7,0.6-0.7c0,0,0,0,0,0
			C68,34.2,68.3,34.4,68.3,34.9C68.3,34.8,68.3,34.8,68.3,34.9z M67.2,43.4v-6.8h1.1v6.8H67.2z"/>
		<path class="st0" d="M69.7,38.4c0-0.8,0-1.2-0.1-1.8h0.9l0.1,0.8l0,0c0.3-0.6,0.9-0.9,1.6-0.9c0.9,0,1.6,0.7,1.6,2.3v4.6h-1.1V39
			c0-0.8-0.2-1.6-0.9-1.6c-0.4,0-0.9,0.4-1,1.1c0,0.2,0,0.4,0,0.6v4.3h-1.1V38.4z"/>
		<path class="st0" d="M76.2,40.1c0,2.1,0.8,2.5,1.6,2.5c0.4,0,0.8-0.1,1.1-0.2l0.2,0.8c-0.5,0.2-1,0.3-1.5,0.3
			c-1.6,0-2.5-1.3-2.5-3.4s0.9-3.6,2.3-3.6s1.9,1.5,1.9,3c0,0.3,0,0.5,0,0.6L76.2,40.1z M78.3,39.3c0-1.4-0.5-2-1-2
			c-0.7,0-1.1,1-1.1,2H78.3z"/>
		<path class="st0" d="M80.5,38.4c0-0.6,0-1.2-0.1-1.8h1l0.1,1.1l0,0c0.2-0.6,0.8-1.1,1.4-1.2h0.2v1.1h-0.2
			c-0.7,0.1-1.3,0.7-1.3,1.4c0,0.2,0,0.4,0,0.6v3.8h-1.1V38.4z"/>
		<path class="st0" d="M86.1,33.9l-1.5,1.9h-0.7l1.1-1.9H86.1z M83.9,43.4v-6.8H85v6.8H83.9z"/>
		<path class="st0" d="M89.2,43.4l-0.1-0.7l0,0c-0.3,0.5-0.8,0.8-1.4,0.8c-1-0.1-1.7-0.9-1.6-1.8c0,0,0-0.1,0-0.1
			c0-1.7,1.4-2.4,2.9-2.5v-0.2c0-0.9-0.2-1.5-1.1-1.5c-0.4,0-0.8,0.1-1.1,0.3L86.6,37c0.5-0.3,1-0.4,1.6-0.4c1.4,0,1.9,0.9,1.9,2.4
			v2.9c0,0.5,0,1,0.1,1.5L89.2,43.4z M89,39.9c-0.6,0-1.9,0.1-1.9,1.6c0,0.9,0.4,1.2,0.8,1.2s0.9-0.3,1-1c0-0.1,0-0.3,0-0.4L89,39.9
			z"/>
		<path class="st0" d="M91.1,45.2c0.4-1.1,0.6-2.2,0.8-3.3l1.2-0.1c-0.3,1.1-0.7,2.2-1.3,3.3L91.1,45.2z"/>
		<path class="st0" d="M96.5,38.7c0-1,0-1.6-0.1-2.1h1l0.1,0.9l0,0c0.2-0.6,0.8-1,1.4-1c1.2,0,2,1.2,2,3.5c0,2.5-1,3.5-2.1,3.5
			c-0.5,0-1-0.3-1.2-0.8l0,0v3.4h-1.2V38.7z M97.6,40.9c0,0.2,0,0.4,0.1,0.6c0.2,1,0.7,1.1,1,1.1c0.9,0,1.2-1.2,1.2-2.6
			s-0.3-2.6-1.2-2.6c-0.5,0-0.9,0.6-1,1.2c0,0.2,0,0.3,0,0.5L97.6,40.9z"/>
		<path class="st0" d="M102.8,40.1c0,2.1,0.8,2.5,1.6,2.5c0.4,0,0.8-0.1,1.1-0.2l0.2,0.8c-0.5,0.2-1,0.3-1.5,0.3
			c-1.6,0-2.5-1.3-2.5-3.4s0.9-3.6,2.3-3.6s1.9,1.5,1.9,3c0,0.3,0,0.5,0,0.6H102.8z M105,39.3c0-1.4-0.5-2-1-2c-0.7,0-1.1,1-1.1,2
			H105z"/>
		<path class="st0" d="M107.2,38.4c0-0.6,0-1.2-0.1-1.8h1l0.1,1.1l0,0c0.2-0.6,0.8-1.1,1.4-1.2h0.2v1.1h-0.2
			c-0.7,0.1-1.3,0.7-1.3,1.4c0,0.2,0,0.4,0,0.6v3.8h-1.1L107.2,38.4z"/>
		<path class="st0" d="M110.6,38.4c0-0.8,0-1.2-0.1-1.8h1v0.8l0,0c0.3-0.6,0.9-0.9,1.5-0.9c0.6,0,1.2,0.4,1.4,1l0,0
			c0.2-0.3,0.4-0.6,0.7-0.8c0.3-0.2,0.6-0.3,0.9-0.3c0.9,0,1.6,0.7,1.6,2.4v4.5h-1.1v-4.2c0-0.9-0.1-1.7-0.9-1.7c-0.4,0-0.8,0.4-1,1
			c0,0.2-0.1,0.4-0.1,0.6v4.4h-1.1V39c0-0.8-0.1-1.5-0.9-1.5c-0.4,0-0.9,0.4-1,1.1c0,0.2,0,0.4,0,0.6v4.3h-1.1L110.6,38.4z"/>
		<path class="st0" d="M120.5,34.9c0,0.4-0.3,0.6-0.6,0.6s-0.6-0.3-0.6-0.6c0,0,0,0,0,0c0-0.4,0.2-0.7,0.6-0.7c0,0,0,0,0.1,0
			C120.2,34.2,120.5,34.4,120.5,34.9C120.5,34.8,120.5,34.8,120.5,34.9z M119.3,43.4v-6.8h1.1v6.8H119.3z"/>
		<path class="st0" d="M123.2,34.8v1.8h1.3v0.8h-1.3v4c0,0.9,0.3,1.1,0.7,1.1c0.1,0,0.3,0,0.4,0v0.8c-0.3,0.1-0.5,0.1-0.8,0.1
			c-0.4,0-0.8-0.1-1.1-0.4c-0.3-0.5-0.5-1.1-0.4-1.7v-3.9h-0.8v-0.8h0.8v-1.5L123.2,34.8z"/>
		<path class="st0" d="M126.1,40.1c0,2.1,0.8,2.5,1.6,2.5c0.4,0,0.8-0.1,1.1-0.2l0.2,0.8c-0.5,0.2-1,0.3-1.5,0.3
			c-1.6,0-2.5-1.3-2.5-3.4s0.9-3.6,2.3-3.6c1.3,0,1.9,1.5,1.9,3c0,0.3,0,0.5,0,0.6L126.1,40.1z M128.2,39.3c0-1.4-0.5-2-1-2
			c-0.7,0-1.1,1-1.1,2H128.2z"/>
		<path class="st0" d="M133.9,34.8v1.8h1.3v0.8h-1.3v4c0,0.9,0.3,1.1,0.7,1.1c0.1,0,0.3,0,0.4,0l0.1,0.8c-0.3,0.1-0.5,0.1-0.8,0.1
			c-0.4,0-0.8-0.1-1.1-0.4c-0.3-0.5-0.5-1.1-0.4-1.7v-3.9H132v-0.8h0.8v-1.5L133.9,34.8z"/>
		<path class="st0" d="M140.2,40c0,2.6-1.2,3.5-2.2,3.5c-1.2,0-2.2-1.1-2.2-3.5s1.1-3.5,2.3-3.5S140.2,37.7,140.2,40z M136.9,40
			c0,1.1,0.2,2.7,1.2,2.7s1.1-1.6,1.1-2.7s-0.1-2.6-1.1-2.6S136.9,39,136.9,40z"/>
		<path class="st0" d="M141.4,38.4c0-0.8,0-1.2-0.1-1.8h0.9l0.1,0.8l0,0c0.3-0.6,0.9-0.9,1.5-0.9c0.6,0,1.2,0.4,1.4,1l0,0
			c0.2-0.3,0.4-0.6,0.7-0.8c0.3-0.2,0.6-0.3,0.9-0.3c0.9,0,1.6,0.7,1.6,2.4v4.5h-1.1v-4.2c0-0.9-0.1-1.7-0.9-1.7c-0.4,0-0.8,0.4-1,1
			c0,0.2,0,0.4,0,0.6v4.4h-1.1V39c0-0.8-0.1-1.5-0.9-1.5c-0.4,0-0.9,0.4-1,1.1c0,0.2-0.1,0.4-0.1,0.6v4.3h-1.1L141.4,38.4z"/>
		<path class="st0" d="M152.8,43.4l-0.1-0.7l0,0c-0.3,0.5-0.8,0.8-1.4,0.8c-1-0.1-1.7-0.9-1.6-1.8c0,0,0-0.1,0-0.1
			c0-1.7,1.4-2.4,2.9-2.5v-0.2c0-0.9-0.2-1.5-1.1-1.5c-0.4,0-0.8,0.1-1.1,0.3l-0.2-0.8c0.5-0.3,1-0.4,1.6-0.4c1.4,0,1.9,0.9,1.9,2.4
			v2.9c0,0.5,0,1,0.1,1.5L152.8,43.4z M152.6,39.9c-0.6,0-1.9,0.1-1.9,1.6c0,0.9,0.4,1.2,0.8,1.2s0.9-0.3,1-1c0-0.1,0-0.3,0-0.4
			L152.6,39.9z"/>
		<path class="st0" d="M155.2,38.4c0-0.6,0-1.2-0.1-1.8h1l0.1,1.1l0,0c0.2-0.6,0.8-1.1,1.4-1.2h0.2v1.1h-0.2
			c-0.7,0.1-1.3,0.7-1.3,1.4c0,0.2,0,0.4,0,0.6v3.8h-1.1V38.4z"/>
		<path class="st0" d="M4.7,50.5v8.1c0,0.5,0,1.2,0.1,1.6H3.8l-0.1-0.8l0,0c-0.2,0.6-0.8,1-1.4,1c-1.1,0-2-1.2-2-3.5
			c0-2.4,1-3.5,2-3.5c0.5,0,1,0.3,1.2,0.8l0,0v-3.7H4.7z M3.6,56c0-0.1,0-0.3,0-0.4c-0.1-0.7-0.5-1.3-1-1.3c-0.9,0-1.2,1.2-1.2,2.6
			s0.4,2.6,1.1,2.6c0.3,0,0.8-0.2,1-1.2c0-0.1,0-0.3,0-0.5L3.6,56z"/>
		<path class="st0" d="M6.9,56.9c0,2.1,0.8,2.5,1.6,2.5c0.4,0,0.8-0.1,1.1-0.3L9.8,60c-0.5,0.2-1,0.3-1.5,0.3
			c-1.6,0-2.5-1.3-2.5-3.4s0.9-3.6,2.3-3.6s1.9,1.5,1.9,3c0,0.3,0,0.5,0,0.6L6.9,56.9z M9.1,56.1c0-1.4-0.5-2-1-2
			c-0.7,0-1.1,1-1.1,2H9.1z"/>
		<path class="st0" d="M14.6,60c-0.3,0.2-0.7,0.3-1.1,0.2c-1.4,0-2.4-1.2-2.4-3.4c0-1.9,1-3.5,2.7-3.5c0.3,0,0.7,0.1,1,0.2l-0.2,0.9
			c-0.2-0.1-0.5-0.2-0.8-0.2c-1.1,0-1.6,1.3-1.6,2.6c0,1.6,0.6,2.5,1.6,2.5c0.3,0,0.5-0.1,0.8-0.2L14.6,60z"/>
		<path class="st0" d="M16.6,51.7c0,0.4-0.3,0.6-0.6,0.6s-0.6-0.3-0.6-0.6c0,0,0,0,0,0c0-0.4,0.3-0.7,0.6-0.7c0,0,0,0,0,0
			C16.3,51,16.6,51.3,16.6,51.7C16.7,51.6,16.7,51.6,16.6,51.7z M15.5,60.2v-6.8h1.1v6.8H15.5z"/>
		<path class="st0" d="M17.9,59.1c0.3,0.2,0.7,0.3,1.1,0.4c0.5,0,1-0.3,1-0.9c0,0,0-0.1,0-0.1c0-0.5-0.2-0.9-0.9-1.3
			c-0.9-0.6-1.4-1.2-1.4-1.9c0-1,0.8-1.8,1.8-1.9c0,0,0.1,0,0.1,0c0.4,0,0.8,0.1,1.2,0.3l-0.3,0.8c-0.3-0.2-0.6-0.3-0.9-0.3
			c-0.5,0-0.9,0.3-0.9,0.8c0,0,0,0.1,0,0.1c0,0.5,0.2,0.7,0.8,1.2c0.8,0.4,1.4,1.2,1.4,2.1c0.1,1-0.7,1.9-1.8,2c-0.1,0-0.2,0-0.2,0
			c-0.5,0-0.9-0.1-1.3-0.4L17.9,59.1z"/>
		<path class="st0" d="M23.3,51.7c0,0.4-0.3,0.6-0.6,0.6c-0.4,0-0.6-0.3-0.6-0.6c0-0.4,0.2-0.7,0.6-0.7c0,0,0,0,0,0
			C23,51,23.3,51.2,23.3,51.7C23.3,51.6,23.3,51.6,23.3,51.7z M22.1,60.2v-6.8h1.1v6.8H22.1z"/>
		<path class="st0" d="M28.8,56.8c0,2.6-1.2,3.5-2.2,3.5c-1.2,0-2.2-1.1-2.2-3.5s1.1-3.5,2.3-3.5S28.8,54.5,28.8,56.8z M25.5,56.8
			c0,1.1,0.2,2.7,1.2,2.7s1.1-1.6,1.1-2.7s-0.2-2.6-1.1-2.6S25.5,55.8,25.5,56.8z"/>
		<path class="st0" d="M30,55.2c0-0.8,0-1.2-0.1-1.8h0.9l0.1,0.8l0,0c0.3-0.6,0.9-0.9,1.6-0.9c0.9,0,1.6,0.7,1.6,2.3v4.6h-1v-4.4
			c0-0.8-0.2-1.6-0.9-1.6c-0.5,0-0.9,0.4-1,1.1c0,0.2-0.1,0.4,0,0.6v4.3H30V55.2z"/>
		<path class="st0" d="M36.5,56.9c0,2.1,0.8,2.5,1.6,2.5c0.4,0,0.8-0.1,1.1-0.3l0.2,0.8c-0.5,0.2-1,0.3-1.5,0.3
			c-1.6,0-2.5-1.3-2.5-3.4s0.9-3.6,2.3-3.6s1.9,1.5,1.9,3c0,0.3,0,0.5,0,0.6L36.5,56.9z M38.6,56.1c0-1.4-0.5-2-1-2
			c-0.7,0-1.1,1-1.1,2H38.6z"/>
		<path class="st0" d="M40.6,59.1c0.3,0.2,0.7,0.3,1.1,0.4c0.5,0,1-0.3,1-0.9c0,0,0-0.1,0-0.1c0-0.5-0.2-0.9-0.9-1.3
			c-0.8-0.5-1.4-1.1-1.4-1.9c0-1,0.8-1.8,1.8-1.9c0,0,0.1,0,0.1,0c0.4,0,0.8,0.1,1.2,0.3l-0.3,0.8c-0.3-0.2-0.6-0.3-0.9-0.3
			c-0.5,0-0.8,0.3-0.9,0.8c0,0,0,0,0,0.1c0,0.5,0.2,0.7,0.8,1.2c0.8,0.4,1.3,1.2,1.4,2.1c0.1,1-0.7,1.9-1.8,2c-0.1,0-0.2,0-0.2,0
			c-0.5,0-0.9-0.1-1.3-0.4L40.6,59.1z"/>
		<path class="st0" d="M48.2,51.7c0,0.3-0.2,0.7-0.6,0.7c0,0-0.1,0-0.1,0c-0.3,0-0.6-0.3-0.6-0.6c0,0,0,0,0-0.1
			c0-0.4,0.2-0.7,0.6-0.7c0,0,0,0,0,0C47.9,51,48.2,51.2,48.2,51.7C48.2,51.6,48.2,51.6,48.2,51.7z M47,60.2v-6.8h1.1v6.8H47z"/>
		<path class="st0" d="M49.6,55.2c0-0.8,0-1.2-0.1-1.8h0.9l0.1,0.8l0,0c0.3-0.6,0.9-0.9,1.5-0.9c0.9,0,1.6,0.7,1.6,2.3v4.6h-1v-4.4
			c0-0.8-0.2-1.6-0.9-1.6c-0.5,0-0.9,0.4-1,1.1c0,0.2,0,0.4,0,0.6v4.3h-1.1V55.2z"/>
		<path class="st0" d="M55.5,60.2v-6h-0.8v-0.8h0.8V53c0-0.7,0.2-1.4,0.6-2c0.3-0.4,0.8-0.6,1.4-0.6c0.3,0,0.6,0,0.8,0.2l-0.2,0.8
			c-0.2-0.1-0.4-0.1-0.6-0.1c-0.8,0-1,0.8-1,1.7v0.4h1.2v0.8h-1.2v6L55.5,60.2z"/>
		<path class="st0" d="M62.6,56.8c0,2.6-1.2,3.5-2.3,3.5c-1.2,0-2.2-1.1-2.2-3.5s1.1-3.5,2.3-3.5S62.6,54.5,62.6,56.8z M59.2,56.8
			c0,1.1,0.2,2.7,1.2,2.7s1.1-1.6,1.1-2.7s-0.2-2.6-1.1-2.6S59.2,55.8,59.2,56.8z"/>
		<path class="st0" d="M63.8,55.2c0-0.6,0-1.2-0.1-1.8h1v1.1l0,0c0.2-0.6,0.8-1.1,1.4-1.2h0.2v1.1h-0.2c-0.7,0.1-1.3,0.7-1.3,1.4
			c0,0.2,0,0.4,0,0.6v3.8h-1.1V55.2z"/>
		<path class="st0" d="M67.2,55.2c0-0.8,0-1.2,0-1.8h0.9l0.1,0.8l0,0c0.3-0.6,0.9-0.9,1.5-0.9c0.6,0,1.2,0.4,1.4,1l0,0
			c0.2-0.3,0.4-0.6,0.7-0.8c0.3-0.2,0.6-0.3,0.9-0.3c0.9,0,1.6,0.7,1.6,2.4v4.5h-1.1V56c0-0.9-0.1-1.7-1-1.7c-0.4,0-0.8,0.4-1,1
			c0,0.2,0,0.4,0,0.6v4.4h-1v-4.5c0-0.8-0.1-1.5-0.9-1.5c-0.4,0-0.9,0.4-1,1.1c0,0.2,0,0.4,0,0.6v4.3h-1.1V55.2z"/>
		<path class="st0" d="M78.6,60.2l-0.1-0.7l0,0c-0.3,0.5-0.8,0.8-1.3,0.8c-1-0.1-1.7-0.9-1.6-1.8c0,0,0-0.1,0-0.1
			c0-1.7,1.4-2.4,2.9-2.5v-0.2c0-0.9-0.2-1.5-1.1-1.5c-0.4,0-0.8,0.1-1.1,0.3L76,53.8c0.5-0.3,1-0.4,1.6-0.4c1.3,0,1.9,0.9,1.9,2.4
			v2.9c0,0.5,0,1,0.1,1.5H78.6z M78.4,56.7c-0.6,0-1.9,0.1-1.9,1.6c0,0.9,0.4,1.2,0.8,1.2s0.9-0.3,1-1c0-0.1,0-0.3,0-0.4L78.4,56.7z
			"/>
		<path class="st0" d="M85.1,50.5v8.1c0,0.5,0,1.2,0.1,1.6h-0.9l-0.1-0.8h0c-0.2,0.6-0.8,1-1.4,1c-1.1,0-2-1.2-2-3.5
			c0-2.4,1-3.5,2-3.5c0.5,0,1,0.3,1.2,0.8l0,0v-3.7H85.1z M84,56c0-0.1,0-0.3,0-0.4c-0.1-0.7-0.5-1.3-1-1.3c-0.9,0-1.2,1.2-1.2,2.6
			s0.4,2.6,1.1,2.6c0.3,0,0.8-0.2,1-1.2c0-0.1,0-0.3,0-0.5L84,56z"/>
		<path class="st0" d="M89.3,60.2l-0.1-0.7l0,0c-0.3,0.5-0.8,0.8-1.4,0.8c-1-0.1-1.7-0.9-1.6-1.8c0,0,0-0.1,0-0.1
			c0-1.7,1.4-2.4,2.9-2.5v-0.2c0-0.9-0.2-1.5-1.1-1.5c-0.4,0-0.8,0.1-1.1,0.3l-0.2-0.8c0.5-0.3,1-0.4,1.6-0.4c1.4,0,1.9,0.9,1.9,2.4
			v2.9c0,0.5,0,1,0.1,1.5H89.3z M89.1,56.7c-0.6,0-1.9,0.1-1.9,1.6c0,0.9,0.4,1.2,0.8,1.2s0.9-0.3,1-1c0-0.1,0-0.3,0-0.4L89.1,56.7z
			"/>
		<path class="st0" d="M91.5,59.1c0.3,0.2,0.7,0.3,1.1,0.4c0.5,0,1-0.3,1-0.9c0,0,0-0.1,0-0.1c0-0.5-0.2-0.9-0.9-1.3
			c-0.9-0.6-1.4-1.2-1.4-1.9c0-1,0.8-1.9,1.8-1.9c0,0,0.1,0,0.1,0c0.4,0,0.8,0.1,1.2,0.3l-0.3,0.8c-0.3-0.2-0.6-0.3-0.9-0.3
			c-0.5,0-0.9,0.3-0.9,0.8c0,0,0,0.1,0,0.1c0,0.5,0.2,0.7,0.8,1.2c0.8,0.4,1.3,1.2,1.4,2.1c0.1,1-0.7,1.9-1.8,2c-0.1,0-0.2,0-0.2,0
			c-0.5,0-0.9-0.1-1.3-0.4L91.5,59.1z"/>
		<path class="st0" d="M97.8,59.1c0.3,0.2,0.7,0.3,1.1,0.4c0.5,0,1-0.3,1-0.9c0,0,0-0.1,0-0.1c0-0.5-0.2-0.9-0.9-1.3
			c-0.9-0.6-1.4-1.2-1.4-1.9c0-1,0.8-1.8,1.8-1.9c0,0,0.1,0,0.1,0c0.4,0,0.8,0.1,1.2,0.3l-0.3,0.8c-0.3-0.2-0.6-0.3-0.9-0.3
			c-0.5,0-0.9,0.3-0.9,0.8c0,0,0,0.1,0,0.1c0,0.5,0.2,0.7,0.8,1.2c0.8,0.4,1.3,1.2,1.4,2.1c0.1,1-0.7,1.9-1.8,2c-0.1,0-0.2,0-0.2,0
			c-0.5,0-0.9-0.1-1.3-0.4L97.8,59.1z"/>
		<path class="st0" d="M106.1,56.8c0,2.6-1.2,3.5-2.2,3.5c-1.2,0-2.2-1.1-2.2-3.5s1.1-3.5,2.3-3.5S106.1,54.5,106.1,56.8z
			 M102.8,56.8c0,1.1,0.2,2.7,1.2,2.7s1.1-1.6,1.1-2.7s-0.2-2.6-1.2-2.6S102.8,55.8,102.8,56.8z"/>
		<path class="st0" d="M107.3,60.2c0-0.4,0-1.2,0-1.6v-8.1h1.1v3.7l0,0c0.2-0.6,0.8-0.9,1.4-0.9c1.1,0,1.9,1.2,1.9,3.4
			c0,2.5-1,3.6-2.1,3.6c-0.6,0-1.2-0.4-1.3-1l0,0l-0.1,0.9H107.3z M108.4,57.8c0,0.1,0,0.3,0,0.4c0.2,1,0.7,1.2,1,1.2
			c0.9,0,1.2-1.2,1.2-2.6s-0.3-2.6-1.2-2.6c-0.5,0-0.9,0.6-1,1.2c0,0.2,0,0.3,0,0.5L108.4,57.8z"/>
		<path class="st0" d="M112.9,55.2c0-0.6,0-1.2-0.1-1.8h1l0.1,1.1l0,0c0.2-0.6,0.8-1.1,1.4-1.2h0.2v1.1h-0.2
			c-0.7,0.1-1.3,0.7-1.3,1.4c0,0.2,0,0.4,0,0.6v3.8h-1.1L112.9,55.2z"/>
		<path class="st0" d="M117,56.9c0,2.1,0.8,2.5,1.6,2.5c0.4,0,0.8-0.1,1.1-0.3l0.2,0.8c-0.5,0.2-1,0.3-1.5,0.3
			c-1.6,0-2.5-1.3-2.5-3.4s0.9-3.6,2.3-3.6s1.9,1.5,1.9,3c0,0.3,0,0.5,0,0.6L117,56.9z M119.1,56.1c0-1.4-0.5-2-1-2
			c-0.7,0-1.1,1-1.1,2H119.1z"/>
		<path class="st0" d="M123.5,50.5h1.1v9.7h-1.1V50.5z"/>
		<path class="st0" d="M128.8,60.2l-0.1-0.7l0,0c-0.3,0.5-0.8,0.8-1.4,0.8c-1-0.1-1.7-0.9-1.6-1.8c0,0,0-0.1,0-0.1
			c0-1.7,1.4-2.4,2.9-2.5v-0.2c0-0.9-0.2-1.5-1.1-1.5c-0.4,0-0.8,0.1-1.1,0.3l-0.2-0.8c0.5-0.3,1-0.4,1.6-0.4c1.4,0,1.9,0.9,1.9,2.4
			v2.9c0,0.5,0,1,0.1,1.5H128.8z M128.7,56.7c-0.6,0-1.9,0.1-1.9,1.6c0,0.9,0.4,1.2,0.8,1.2s0.9-0.3,1-1c0-0.1,0-0.3,0-0.4
			L128.7,56.7z"/>
		<path class="st0" d="M137.5,50.5v8.1c0,0.5,0,1.2,0.1,1.6h-0.9l-0.1-0.8l0,0c-0.2,0.6-0.8,1-1.4,1c-1.1,0-2-1.2-2-3.5
			c0-2.4,1-3.5,2-3.5c0.5,0,1,0.3,1.2,0.8l0,0v-3.7H137.5z M136.5,56c0-0.1,0-0.3,0-0.4c-0.1-0.7-0.5-1.3-1-1.3
			c-0.9,0-1.2,1.2-1.2,2.6s0.4,2.6,1.1,2.6c0.3,0,0.8-0.2,1-1.2c0-0.1,0-0.3,0-0.5L136.5,56z"/>
		<path class="st0" d="M140.2,51.7c0,0.4-0.3,0.6-0.6,0.6c-0.4,0-0.6-0.3-0.6-0.6c0,0,0,0,0,0c0-0.4,0.2-0.7,0.6-0.7c0,0,0,0,0.1,0
			C139.9,51,140.2,51.2,140.2,51.7C140.2,51.6,140.2,51.6,140.2,51.7z M139,60.2v-6.8h1.1v6.8H139z"/>
		<path class="st0" d="M141.6,55.2c0-0.6,0-1.2,0-1.8h1l0.1,1.1l0,0c0.2-0.6,0.7-1.1,1.3-1.2h0.2v1.1H144c-0.7,0.1-1.3,0.7-1.3,1.4
			c0,0.2,0,0.4,0,0.6v3.8h-1.1V55.2z"/>
		<path class="st0" d="M145.6,56.9c0,2.1,0.8,2.5,1.6,2.5c0.4,0,0.8-0.1,1.1-0.3l0.2,0.8c-0.5,0.2-1,0.3-1.5,0.3
			c-1.6,0-2.5-1.3-2.5-3.4s0.9-3.6,2.3-3.6s1.9,1.5,1.9,3c0,0.2,0,0.4,0,0.6L145.6,56.9z M147.8,56.1c0-1.4-0.5-2-1-2
			c-0.7,0-1.1,1-1.1,2H147.8z"/>
		<path class="st0" d="M153.3,60c-0.4,0.2-0.7,0.3-1.1,0.2c-1.5,0-2.5-1.2-2.5-3.4c0-1.9,1-3.5,2.7-3.5c0.3,0,0.7,0.1,1,0.2
			l-0.2,0.9c-0.2-0.1-0.5-0.2-0.8-0.2c-1.1,0-1.6,1.3-1.6,2.6c0,1.6,0.6,2.5,1.6,2.5c0.3,0,0.5-0.1,0.8-0.2L153.3,60z"/>
		<path class="st0" d="M157.4,60c-0.3,0.2-0.7,0.3-1.1,0.2c-1.5,0-2.5-1.2-2.5-3.4c0-1.9,1-3.5,2.7-3.5c0.3,0,0.7,0.1,0.9,0.2
			l-0.2,0.9c-0.2-0.1-0.5-0.2-0.8-0.2c-1.1,0-1.6,1.3-1.6,2.6c0,1.6,0.6,2.5,1.6,2.5c0.3,0,0.5-0.1,0.8-0.2L157.4,60z"/>
		<path class="st0" d="M159.5,51.7c0,0.4-0.2,0.7-0.6,0.7s-0.7-0.2-0.7-0.6c0-0.1,0-0.1,0-0.2c0-0.4,0.2-0.7,0.6-0.7
			s0.7,0.2,0.7,0.6C159.5,51.6,159.5,51.6,159.5,51.7z M158.3,60.2v-6.8h1.1v6.8H158.3z"/>
		<path class="st0" d="M165.1,56.8c0,2.6-1.2,3.5-2.3,3.5c-1.2,0-2.2-1.1-2.2-3.5s1.1-3.5,2.3-3.5S165.1,54.5,165.1,56.8z
			 M161.7,56.8c0,1.1,0.2,2.7,1.2,2.7s1.1-1.6,1.1-2.7s-0.2-2.6-1.1-2.6S161.7,55.8,161.7,56.8z M164.5,50.7l-1.5,1.9h-0.7l1.1-1.9
			H164.5z"/>
		<path class="st0" d="M166.3,55.2c0-0.8,0-1.2-0.1-1.8h0.9l0.1,0.8l0,0c0.3-0.6,0.9-0.9,1.6-0.9c0.9,0,1.6,0.7,1.6,2.3v4.6h-1.1
			v-4.4c0-0.8-0.2-1.6-1-1.6c-0.4,0-0.9,0.4-1,1.1c0,0.2-0.1,0.4-0.1,0.6v4.3h-1.1L166.3,55.2z"/>
		<path class="st0" d="M4.7,67.3v8.1c0,0.5,0,1.2,0.1,1.6H3.8l-0.1-0.8l0,0c-0.2,0.6-0.8,1-1.4,1c-1.1,0-2-1.2-2-3.5
			c0-2.4,1-3.5,2-3.5c0.5,0,1,0.3,1.2,0.8l0,0v-3.7H4.7z M3.6,72.8c0-0.1,0-0.3,0-0.4c-0.1-0.7-0.5-1.3-1-1.3
			c-0.9,0-1.2,1.2-1.2,2.6s0.4,2.6,1.1,2.6c0.3,0,0.8-0.2,1-1.2c0-0.1,0-0.3,0-0.4L3.6,72.8z"/>
		<path class="st0" d="M6.9,73.7c0,2.1,0.8,2.5,1.6,2.5c0.4,0,0.8-0.1,1.1-0.2l0.2,0.8c-0.5,0.2-1,0.3-1.5,0.3
			c-1.6,0-2.5-1.3-2.5-3.4s0.9-3.6,2.3-3.6s1.9,1.5,1.9,3c0,0.3,0,0.4,0,0.6L6.9,73.7z M9.1,72.9c0-1.4-0.5-2-1-2
			c-0.7,0-1.1,1-1.1,2H9.1z"/>
		<path class="st0" d="M11.2,67.3h1.1V77h-1.1V67.3z"/>
		<path class="st0" d="M16.1,72c0-0.8,0-1.2-0.1-1.8h1v0.8l0,0c0.3-0.6,0.9-0.9,1.5-0.9c0.6,0,1.2,0.4,1.4,1l0,0
			c0.2-0.3,0.4-0.6,0.7-0.8c0.3-0.2,0.6-0.3,0.9-0.3c0.9,0,1.6,0.7,1.6,2.4V77h-1v-4.2c0-0.9-0.1-1.7-1-1.7c-0.5,0-0.8,0.4-1,1
			c0,0.2-0.1,0.4,0,0.6V77h-1.1v-4.4c0-0.8-0.1-1.5-0.9-1.5c-0.4,0-0.9,0.4-1,1.1c0,0.2,0,0.4,0,0.6V77h-1.1V72z"/>
		<path class="st0" d="M27.5,77l-0.1-0.7l0,0c-0.3,0.5-0.8,0.8-1.4,0.8c-1-0.1-1.7-0.9-1.6-1.8c0,0,0-0.1,0-0.1
			c0-1.7,1.4-2.4,2.9-2.4v-0.2c0-0.9-0.2-1.5-1.1-1.5c-0.4,0-0.8,0.1-1.1,0.3l-0.2-0.8c0.5-0.3,1-0.4,1.6-0.4c1.4,0,1.9,0.9,1.9,2.4
			v2.9c0,0.5,0,1,0,1.5H27.5z M27.3,73.5c-0.5,0-1.9,0.1-1.9,1.6c0,0.9,0.5,1.2,0.8,1.2s0.9-0.3,1-1c0-0.1,0-0.3,0-0.4L27.3,73.5z"
			/>
		<path class="st0" d="M31.1,68.4v1.8h1.3v0.8h-1.3v4c0,0.9,0.3,1.1,0.7,1.1c0.1,0,0.3,0,0.4,0l0,0.8c-0.3,0.1-0.5,0.1-0.8,0.1
			c-0.4,0-0.8-0.1-1.1-0.4c-0.3-0.5-0.5-1.1-0.4-1.7v-3.9h-0.8v-0.8H30v-1.5L31.1,68.4z"/>
		<path class="st0" d="M34,73.7c0,2.1,0.8,2.5,1.6,2.5c0.4,0,0.8-0.1,1.1-0.2l0.2,0.8c-0.5,0.2-1,0.3-1.5,0.3
			c-1.6,0-2.5-1.3-2.5-3.4s0.9-3.6,2.3-3.6s1.9,1.5,1.9,3c0,0.2,0,0.4,0,0.6L34,73.7z M36.1,72.9c0-1.4-0.5-2-1-2
			c-0.7,0-1.1,1-1.1,2H36.1z"/>
		<path class="st0" d="M38.3,72c0-0.6,0-1.2,0-1.8h1v1.1l0,0c0.2-0.6,0.8-1.1,1.4-1.2h0.2v1.1h-0.2c-0.7,0.1-1.3,0.7-1.3,1.4
			c0,0.2,0,0.4,0,0.6V77h-1.1V72z"/>
		<path class="st0" d="M42.9,68.5c0,0.4-0.2,0.7-0.6,0.7c-0.4,0-0.7-0.2-0.7-0.6c0-0.1,0-0.1,0-0.2c0-0.4,0.2-0.7,0.6-0.7
			c0.4,0,0.7,0.2,0.7,0.6C42.9,68.4,42.9,68.4,42.9,68.5z M41.8,77v-6.8h1.1V77H41.8z"/>
		<path class="st0" d="M47,77l-0.1-0.7l0,0c-0.3,0.5-0.8,0.8-1.4,0.8c-1-0.1-1.7-0.9-1.6-1.8c0,0,0-0.1,0-0.1c0-1.7,1.3-2.4,2.9-2.4
			v-0.2c0-0.9-0.2-1.5-1.1-1.5c-0.4,0-0.8,0.1-1.1,0.3l-0.2-0.8c0.5-0.3,1-0.4,1.6-0.4c1.4,0,1.9,0.9,1.9,2.4v2.9c0,0.5,0,1,0.1,1.5
			H47z M46.8,73.5c-0.5,0-1.9,0.1-1.9,1.6c0,0.9,0.5,1.2,0.8,1.2s0.9-0.3,1-1c0-0.1,0-0.3,0-0.4L46.8,73.5z"/>
		<path class="st0" d="M49.4,67.3h1.1V77h-1.1V67.3z"/>
		<path class="st0" d="M51.4,78.8c0.4-1.1,0.6-2.2,0.8-3.3l1.2-0.1c-0.3,1.1-0.7,2.2-1.3,3.3L51.4,78.8z"/>
		<path class="st0" d="M57.6,73.7c0,2.1,0.8,2.5,1.6,2.5c0.4,0,0.8-0.1,1.1-0.2l0.2,0.8c-0.5,0.2-1,0.3-1.5,0.3
			c-1.6,0-2.5-1.3-2.5-3.4s0.9-3.6,2.3-3.6s1.9,1.5,1.9,3c0,0.3,0,0.4,0,0.6L57.6,73.7z M59.7,72.9c0-1.4-0.5-2-1-2
			c-0.7,0-1.1,1-1.1,2H59.7z"/>
		<path class="st0" d="M61.9,72c0-0.8,0-1.2,0-1.8h0.9l0,0.8l0,0c0.3-0.6,0.9-0.9,1.5-0.9c0.9,0,1.6,0.7,1.6,2.3V77H65v-4.4
			c0-0.8-0.2-1.6-0.9-1.6c-0.5,0-0.9,0.4-1,1.1c0,0.2,0,0.4,0,0.6V77h-1.1V72z"/>
		<path class="st0" d="M70,77v-6h-0.9v-0.8H70v-0.4c0-0.7,0.2-1.4,0.6-2c0.4-0.4,0.9-0.6,1.4-0.6c0.3,0,0.6,0,0.8,0.2l-0.2,0.8
			c-0.2-0.1-0.4-0.1-0.7-0.1c-0.8,0-1,0.8-1,1.7v0.4h1.2V71h-1.2v6L70,77z"/>
		<path class="st0" d="M77,75.2c0,0.8,0,1.3,0,1.8h-0.9L76,76.3l0,0c-0.3,0.5-0.9,0.8-1.4,0.8c-1.2,0-1.7-0.9-1.7-2.6v-4.3H74v4.1
			c0,1.1,0.2,1.8,0.9,1.8c0.5,0,0.9-0.4,1-0.9c0-0.2,0-0.4,0-0.6v-4.5H77V75.2z"/>
		<path class="st0" d="M78.6,72c0-0.8,0-1.2-0.1-1.8h0.9v0.8l0,0c0.3-0.6,0.9-0.9,1.6-0.9c0.9,0,1.6,0.7,1.6,2.3V77h-1v-4.4
			c0-0.8-0.2-1.6-0.9-1.6c-0.4,0-0.9,0.4-1,1.1c0,0.2,0,0.4,0,0.6V77h-1.1V72z"/>
		<path class="st0" d="M87.5,76.8c-0.3,0.2-0.7,0.3-1.1,0.2c-1.5,0-2.5-1.2-2.5-3.4c0-1.9,1-3.5,2.7-3.5c0.3,0,0.7,0.1,1,0.2
			l-0.2,0.9c-0.2-0.1-0.5-0.2-0.8-0.2c-1.1,0-1.6,1.3-1.6,2.6c0,1.6,0.6,2.5,1.6,2.5c0.3,0,0.5-0.1,0.8-0.2L87.5,76.8z"/>
		<path class="st0" d="M89.6,68.5c0,0.4-0.2,0.7-0.6,0.7c-0.4,0-0.7-0.2-0.7-0.6c0-0.1,0-0.1,0-0.2c0-0.4,0.2-0.7,0.6-0.7
			c0.4,0,0.7,0.2,0.7,0.6C89.6,68.4,89.6,68.4,89.6,68.5z M88.4,77v-6.8h1.1V77H88.4z"/>
		<path class="st0" d="M95.2,73.6c0,2.6-1.2,3.5-2.3,3.5c-1.2,0-2.2-1.1-2.2-3.5s1.1-3.5,2.3-3.5S95.2,71.2,95.2,73.6z M91.8,73.6
			c0,1.1,0.2,2.7,1.2,2.7s1.1-1.6,1.1-2.7S93.9,71,93,71S91.8,72.6,91.8,73.6z M94.6,67.5l-1.5,1.9h-0.7l1.1-1.9H94.6z"/>
		<path class="st0" d="M96.4,72c0-0.8,0-1.2-0.1-1.8h1v0.8l0,0c0.3-0.6,0.9-0.9,1.6-0.9c0.9,0,1.6,0.7,1.6,2.3V77h-1v-4.4
			c0-0.8-0.2-1.6-1-1.6c-0.4,0-0.9,0.4-1,1.1c0,0.2-0.1,0.4-0.1,0.6V77h-1V72z"/>
		<path class="st0" d="M108.3,67.3v8.1c0,0.5,0,1.2,0.1,1.6h-0.9l-0.1-0.8l0,0c-0.2,0.6-0.8,1-1.4,1c-1.1,0-2-1.2-2-3.5
			c0-2.4,1-3.5,2-3.5c0.5,0,1,0.3,1.2,0.8l0,0v-3.7H108.3z M107.3,72.8c0-0.1,0-0.3,0-0.4c-0.1-0.7-0.5-1.3-1-1.3
			c-0.9,0-1.2,1.2-1.2,2.6s0.4,2.6,1.1,2.6c0.3,0,0.8-0.2,1-1.2c0-0.1,0-0.3,0-0.4L107.3,72.8z"/>
		<path class="st0" d="M110.6,73.7c0,2.1,0.8,2.5,1.6,2.5c0.4,0,0.8-0.1,1.1-0.3l0.2,0.8c-0.5,0.2-1,0.3-1.5,0.3
			c-1.6,0-2.5-1.3-2.5-3.4s0.9-3.6,2.3-3.6s1.9,1.5,1.9,3c0,0.3,0,0.4,0,0.6L110.6,73.7z M112.7,72.9c0-1.4-0.5-2-1-2
			c-0.7,0-1.1,1-1.1,2H112.7z"/>
		<path class="st0" d="M117.1,67.3h1.1V77h-1.1V67.3z"/>
		<path class="st0" d="M122.5,77l-0.1-0.7l0,0c-0.3,0.5-0.8,0.8-1.4,0.8c-1-0.1-1.7-0.9-1.6-1.8c0,0,0-0.1,0-0.1
			c0-1.7,1.4-2.4,2.9-2.4v-0.2c0-0.9-0.2-1.5-1.1-1.5c-0.4,0-0.8,0.1-1.1,0.3l-0.2-0.8c0.5-0.3,1-0.4,1.6-0.4c1.4,0,1.9,0.9,1.9,2.4
			v2.9c0,0.5,0,1,0.1,1.5H122.5z M122.3,73.5c-0.6,0-1.9,0.1-1.9,1.6c0,0.9,0.4,1.2,0.8,1.2s0.9-0.3,1-1c0-0.1,0-0.3,0-0.4
			L122.3,73.5z"/>
		<path class="st0" d="M127.1,67.3h1.1V77h-1.1V67.3z"/>
		<path class="st0" d="M130.5,73.7c0,2.1,0.8,2.5,1.6,2.5c0.4,0,0.8-0.1,1.1-0.3l0.2,0.8c-0.5,0.2-1,0.3-1.5,0.3
			c-1.6,0-2.5-1.3-2.5-3.4s0.9-3.6,2.3-3.6s1.9,1.5,1.9,3c0,0.3,0,0.4,0,0.6L130.5,73.7z M132.7,72.9c0-1.4-0.5-2-1-2
			c-0.7,0-1.1,1-1.1,2H132.7z"/>
		<path class="st0" d="M135.4,70.2l0.9,3.9c0.1,0.5,0.2,1,0.3,1.4l0,0c0.1-0.4,0.2-0.9,0.3-1.4l0.8-3.9h1.1l-1.1,4.3
			c-0.3,1.6-0.8,3.1-1.7,4.4c-0.3,0.4-0.7,0.8-1.2,1l-0.4-0.9c0.4-0.2,0.7-0.5,1-0.8c0.3-0.3,0.5-0.7,0.6-1.1c0-0.1,0.1-0.2,0.1-0.3
			c0-0.1,0-0.2,0-0.2l-1.7-6.2L135.4,70.2z"/>
		<path class="st0" d="M138.5,78.8c0.4-1.1,0.6-2.2,0.8-3.3l1.2-0.1c-0.3,1.1-0.7,2.2-1.3,3.3L138.5,78.8z"/>
		<path class="st0" d="M3.3,93.8l-0.1-0.7l0,0c-0.3,0.5-0.8,0.8-1.4,0.8c-1,0-1.7-0.9-1.6-1.8c0,0,0-0.1,0-0.1
			c0-1.7,1.3-2.4,2.9-2.4v-0.2c0-0.9-0.2-1.5-1.1-1.5c-0.4,0-0.8,0.1-1.1,0.3l-0.2-0.8c0.5-0.3,1-0.4,1.6-0.4c1.3,0,1.9,0.9,1.9,2.4
			v2.9c0,0.5,0,1,0.1,1.5L3.3,93.8z M3.1,90.3c-0.5,0-1.9,0.1-1.9,1.6c0,0.9,0.4,1.2,0.8,1.2s0.9-0.3,1-1c0-0.1,0-0.3,0-0.4
			L3.1,90.3z"/>
		<path class="st0" d="M7.9,84.1H9v9.7H7.9V84.1z"/>
		<path class="st0" d="M13.2,93.8l-0.1-0.7l0,0c-0.3,0.5-0.8,0.8-1.4,0.8c-1,0-1.7-0.9-1.6-1.8c0,0,0-0.1,0-0.1
			c0-1.7,1.4-2.4,2.9-2.4v-0.2c0-0.9-0.2-1.5-1.1-1.5c-0.4,0-0.8,0.1-1.1,0.3l-0.2-0.8c0.5-0.3,1-0.4,1.6-0.4c1.4,0,1.9,0.9,1.9,2.4
			v2.9c0,0.5,0,1,0.1,1.5L13.2,93.8z M13.1,90.3c-0.6,0-1.9,0.1-1.9,1.6c0,0.9,0.4,1.2,0.8,1.2s0.9-0.3,1-1c0-0.1,0-0.3,0-0.4
			L13.1,90.3z"/>
		<path class="st0" d="M17.8,88.8c0-0.8,0-1.2,0-1.8h0.9l0.1,0.8l0,0c0.3-0.6,0.9-0.9,1.5-0.9c0.6,0,1.2,0.4,1.4,1l0,0
			c0.2-0.3,0.4-0.6,0.7-0.8c0.3-0.2,0.6-0.3,0.9-0.3c0.9,0,1.6,0.7,1.6,2.4v4.5h-1v-4.2c0-0.9-0.1-1.7-1-1.7c-0.5,0-0.8,0.4-1,1
			c0,0.2,0,0.4,0,0.6v4.4h-1.1v-4.4c0-0.7-0.1-1.5-0.9-1.5c-0.4,0-0.9,0.4-1,1.1c0,0.2,0,0.4,0,0.6v4.3h-1.1V88.8z"/>
		<path class="st0" d="M30.7,90.4c0,2.6-1.2,3.5-2.2,3.5c-1.2,0-2.2-1.1-2.2-3.5s1.1-3.5,2.3-3.5S30.7,88.1,30.7,90.4z M27.3,90.4
			c0,1.1,0.2,2.7,1.2,2.7s1.1-1.6,1.1-2.7s-0.2-2.6-1.1-2.6S27.3,89.4,27.3,90.4z"/>
		<path class="st0" d="M31.9,84.1H33v9.7h-1.1V84.1z"/>
		<path class="st0" d="M35.7,85.3c0,0.4-0.3,0.6-0.6,0.6c-0.4,0-0.6-0.3-0.6-0.6c0,0,0,0,0,0c0-0.4,0.2-0.7,0.6-0.7c0,0,0,0,0,0
			C35.4,84.6,35.7,84.8,35.7,85.3C35.7,85.2,35.7,85.2,35.7,85.3z M34.6,93.8V87h1.1v6.8L34.6,93.8z"/>
		<path class="st0" d="M37.9,90.5c0,2.1,0.8,2.5,1.6,2.5c0.4,0,0.8-0.1,1.1-0.2l0.2,0.8c-0.5,0.2-1,0.3-1.5,0.3
			c-1.6,0-2.5-1.3-2.5-3.4s0.9-3.6,2.3-3.6s1.9,1.5,1.9,3c0,0.3,0,0.4,0,0.6L37.9,90.5z M40,89.7c0-1.4-0.5-2-1-2
			c-0.7,0-1.1,1-1.1,2H40z"/>
		<path class="st0" d="M42.2,88.8c0-0.8,0-1.2-0.1-1.8h0.9l0.1,0.8l0,0c0.3-0.6,0.9-0.9,1.6-0.9c0.9,0,1.6,0.7,1.6,2.3v4.6h-1.1
			v-4.4c0-0.8-0.2-1.6-0.9-1.6c-0.5,0-0.9,0.4-1,1.1c0,0.2-0.1,0.4,0,0.6v4.3h-1.1V88.8z"/>
		<path class="st0" d="M52,84.1v8.1c0,0.5,0,1.2,0,1.6h-1L51,93l0,0c-0.2,0.6-0.8,1-1.4,1c-1.1,0-2-1.2-2-3.5c0-2.4,1-3.5,2-3.5
			c0.5,0,1,0.3,1.2,0.8l0,0v-3.7H52z M50.9,89.6c0-0.1,0-0.3,0-0.4c-0.1-0.7-0.5-1.3-1-1.3c-0.9,0-1.2,1.2-1.2,2.6S49,93,49.8,93
			c0.3,0,0.8-0.2,1-1.2c0-0.1,0-0.3,0-0.4L50.9,89.6z"/>
		<path class="st0" d="M56.2,93.8l-0.1-0.7l0,0c-0.3,0.5-0.8,0.8-1.3,0.8c-1,0-1.7-0.8-1.7-1.8c0,0,0-0.1,0-0.1
			c0-1.7,1.4-2.4,2.9-2.4v-0.2c0-0.9-0.2-1.5-1.1-1.5c-0.4,0-0.8,0.1-1.1,0.3l-0.2-0.8c0.5-0.3,1-0.4,1.6-0.4c1.3,0,1.9,0.9,1.9,2.4
			v2.9c0,0.5,0,1,0.1,1.5L56.2,93.8z M56,90.3c-0.5,0-1.9,0.1-1.9,1.6c0,0.9,0.5,1.2,0.8,1.2s0.9-0.3,1-1c0-0.1,0-0.3,0-0.4L56,90.3
			z"/>
		<path class="st0" d="M58.1,95.6c0.4-1.1,0.6-2.2,0.8-3.3l1.2-0.1c-0.3,1.1-0.7,2.2-1.3,3.3L58.1,95.6z"/>
		<path class="st0" d="M66.2,93.8l-0.1-0.7l0,0c-0.3,0.5-0.8,0.8-1.4,0.8c-1,0-1.7-0.9-1.6-1.8c0,0,0-0.1,0-0.1
			c0-1.7,1.4-2.4,2.9-2.4v-0.2c0-0.9-0.2-1.5-1.1-1.5c-0.4,0-0.8,0.1-1.1,0.3l-0.2-0.8c0.5-0.3,1-0.4,1.6-0.4c1.3,0,1.9,0.9,1.9,2.4
			v2.9c0,0.5,0,1,0.1,1.5L66.2,93.8z M66,90.3c-0.6,0-1.9,0.1-1.9,1.6c0,0.9,0.4,1.2,0.8,1.2s0.9-0.3,1-1c0-0.1,0-0.3,0-0.4L66,90.3
			z"/>
		<path class="st0" d="M68.6,84.1h1.1v9.7h-1.1V84.1z"/>
		<path class="st0" d="M73.3,92.7c0.3,0.2,0.7,0.3,1.1,0.4c0.5,0,1-0.3,1-0.9c0,0,0-0.1,0-0.1c0-0.5-0.2-0.9-0.9-1.3
			c-0.9-0.6-1.4-1.2-1.4-1.9c0-1,0.8-1.8,1.8-1.9c0,0,0.1,0,0.1,0c0.4,0,0.8,0.1,1.2,0.3l-0.3,0.8c-0.3-0.2-0.6-0.3-0.9-0.3
			c-0.5,0-0.8,0.3-0.9,0.8c0,0,0,0,0,0.1c0,0.4,0.2,0.7,0.8,1.2c0.8,0.4,1.3,1.2,1.4,2.1c0.1,1-0.7,1.9-1.8,2c-0.1,0-0.2,0-0.2,0
			c-0.5,0-1-0.1-1.4-0.4L73.3,92.7z"/>
		<path class="st0" d="M78.8,85.2V87h1.3v0.8h-1.3v4c0,0.9,0.3,1.1,0.7,1.1c0.2,0,0.3,0.1,0.5,0.1l0.1,0.8c-0.3,0.1-0.5,0.1-0.8,0.1
			c-0.4,0-0.8-0.1-1.1-0.4c-0.3-0.5-0.5-1.1-0.4-1.7v-4h-0.8V87h0.8v-1.5L78.8,85.2z"/>
		<path class="st0" d="M85.1,90.4c0,2.6-1.2,3.5-2.2,3.5c-1.2,0-2.2-1.1-2.2-3.5s1.1-3.5,2.3-3.5S85.1,88.1,85.1,90.4z M81.7,90.4
			c0,1.1,0.2,2.7,1.2,2.7s1.1-1.6,1.1-2.7s-0.2-2.6-1.2-2.6S81.7,89.4,81.7,90.4z"/>
		<path class="st0" d="M89.6,93.6c-0.3,0.2-0.7,0.3-1.1,0.2c-1.5,0-2.5-1.2-2.5-3.4c0-1.9,1-3.5,2.7-3.5c0.3,0,0.7,0.1,1,0.2
			L89.5,88c-0.2-0.1-0.5-0.2-0.8-0.2c-1.1,0-1.6,1.3-1.6,2.6c0,1.6,0.6,2.5,1.6,2.5c0.3,0,0.5-0.1,0.8-0.2L89.6,93.6z"/>
		<path class="st0" d="M91.6,90.2L91.6,90.2c0.1-0.3,0.2-0.5,0.4-0.8l1.4-2.4h1.2l-1.8,2.8l2,3.9h-1.3L92,90.6l-0.4,0.6v2.6h-1.1
			v-9.7h1.1V90.2z"/>
		<path class="st0" d="M95.4,89.1c0-1,0-1.6-0.1-2.1h1v0.9l0,0c0.2-0.6,0.8-1,1.4-1c1.2,0,2,1.2,2,3.5c0,2.5-1,3.5-2.1,3.5
			c-0.5,0-1-0.3-1.2-0.8l0,0v3.4h-1.1V89.1z M96.5,91.3c0,0.2,0,0.4,0.1,0.6c0.2,1,0.7,1.1,1,1.1c0.9,0,1.2-1.2,1.2-2.6
			s-0.3-2.6-1.2-2.6c-0.5,0-0.9,0.6-1,1.2c0,0.2,0,0.3,0,0.5L96.5,91.3z"/>
		<path class="st0" d="M102.2,85.3c0,0.4-0.3,0.6-0.6,0.6c-0.4,0-0.6-0.3-0.6-0.6c0,0,0,0,0,0c0-0.4,0.2-0.7,0.6-0.7c0,0,0,0,0,0
			C101.9,84.6,102.2,84.8,102.2,85.3C102.2,85.2,102.2,85.2,102.2,85.3z M101,93.8V87h1.1v6.8L101,93.8z"/>
		<path class="st0" d="M103.6,84.1h1.1v9.7h-1.1V84.1z"/>
		<path class="st0" d="M107,90.5c0,2.1,0.8,2.5,1.6,2.5c0.4,0,0.8-0.1,1.1-0.2l0.2,0.8c-0.5,0.2-1,0.3-1.5,0.3
			c-1.6,0-2.5-1.3-2.5-3.4s0.9-3.6,2.3-3.6s1.9,1.5,1.9,3c0,0.2,0,0.4,0,0.6L107,90.5z M109.1,89.7c0-1.4-0.5-2-1-2
			c-0.7,0-1.1,1-1.1,2H109.1z"/>
		<path class="st0" d="M117.7,90.4c0,2.6-1.2,3.5-2.3,3.5c-1.2,0-2.2-1.1-2.2-3.5s1.1-3.5,2.3-3.5S117.7,88.1,117.7,90.4z
			 M114.3,90.4c0,1.1,0.2,2.7,1.2,2.7s1.1-1.6,1.1-2.7s-0.2-2.6-1.1-2.6S114.3,89.4,114.3,90.4z"/>
		<path class="st0" d="M123.8,93.8l-0.1-0.7l0,0c-0.3,0.5-0.8,0.8-1.4,0.8c-1,0-1.7-0.8-1.7-1.8c0,0,0-0.1,0-0.1
			c0-1.7,1.4-2.4,2.9-2.4v-0.2c0-0.9-0.2-1.5-1.1-1.5c-0.4,0-0.8,0.1-1.1,0.3l-0.2-0.8c0.5-0.3,1-0.4,1.6-0.4c1.4,0,1.9,0.9,1.9,2.4
			v2.9c0,0.5,0,1,0.1,1.5L123.8,93.8z M123.6,90.3c-0.6,0-1.9,0.1-1.9,1.6c0,0.9,0.4,1.2,0.8,1.2s0.9-0.3,1-1c0-0.1,0-0.3,0-0.4
			L123.6,90.3z"/>
		<path class="st0" d="M126.2,84.1h1.1v9.7h-1.1V84.1z"/>
		<path class="st0" d="M131,93.8c0-0.4,0.1-1.2,0.1-1.6v-8.1h1.1v3.7l0,0c0.2-0.6,0.8-0.9,1.4-0.9c1.1,0,1.9,1.2,1.9,3.4
			c0,2.4-1,3.6-2.1,3.6c-0.6,0-1.2-0.4-1.3-1h0l-0.1,0.9H131z M132.1,91.4c0,0.1,0,0.3,0,0.4c0.2,1,0.7,1.2,1,1.2
			c0.9,0,1.2-1.2,1.2-2.6s-0.3-2.6-1.2-2.6c-0.5,0-0.9,0.6-1,1.2c0,0.2,0,0.3,0,0.5L132.1,91.4z"/>
		<path class="st0" d="M140.8,90.4c0,2.6-1.2,3.5-2.2,3.5c-1.2,0-2.2-1.1-2.2-3.5s1.1-3.5,2.3-3.5S140.8,88.1,140.8,90.4z
			 M137.5,90.4c0,1.1,0.2,2.7,1.2,2.7s1.1-1.6,1.1-2.7s-0.2-2.6-1.1-2.6S137.5,89.4,137.5,90.4z"/>
		<path class="st0" d="M143.4,85.2V87h1.3v0.8h-1.3v4c0,0.9,0.3,1.1,0.7,1.1c0.1,0,0.3,0,0.4,0v0.8c-0.3,0.1-0.5,0.1-0.8,0.1
			c-0.4,0-0.8-0.1-1.1-0.4c-0.3-0.5-0.5-1.1-0.4-1.7v-3.9h-0.8V87h0.8v-1.5L143.4,85.2z"/>
		<path class="st0" d="M148.3,93.8l-0.1-0.7l0,0c-0.3,0.5-0.8,0.8-1.4,0.8c-1,0-1.7-0.8-1.7-1.8c0,0,0-0.1,0-0.1
			c0-1.7,1.4-2.4,2.9-2.4v-0.2c0-0.9-0.2-1.5-1.1-1.5c-0.4,0-0.8,0.1-1.1,0.3l-0.2-0.8c0.5-0.3,1-0.4,1.6-0.4c1.4,0,1.9,0.9,1.9,2.4
			v2.9c0,0.5,0,1,0.1,1.5L148.3,93.8z M148.1,90.3c-0.6,0-1.9,0.1-1.9,1.6c0,0.9,0.4,1.2,0.8,1.2s0.9-0.3,1-1c0-0.1,0-0.3,0-0.4
			L148.1,90.3z"/>
		<path class="st0" d="M154.8,84.1v8.1c0,0.5,0,1.2,0.1,1.6h-0.9l-0.1-0.8h-0.1c-0.2,0.6-0.8,1-1.4,1c-1.1,0-2-1.2-2-3.5
			c0-2.4,1-3.5,2-3.5c0.5,0,1,0.3,1.2,0.8l0,0v-3.7H154.8z M153.7,89.6c0-0.1,0-0.3,0-0.4c-0.1-0.7-0.5-1.3-1-1.3
			c-0.9,0-1.2,1.2-1.2,2.6s0.4,2.6,1.1,2.6c0.3,0,0.8-0.2,1-1.2c0-0.1,0-0.3,0-0.4L153.7,89.6z"/>
		<path class="st0" d="M157.1,90.5c0,2.1,0.8,2.5,1.6,2.5c0.4,0,0.8-0.1,1.1-0.2l0.2,0.8c-0.5,0.2-1,0.3-1.5,0.3
			c-1.6,0-2.5-1.3-2.5-3.4s0.9-3.6,2.3-3.6s1.9,1.5,1.9,3c0,0.3,0,0.4,0,0.6L157.1,90.5z M159.2,89.7c0-1.4-0.5-2-1-2
			c-0.7,0-1.1,1-1.1,2H159.2z"/>
		<path class="st0" d="M161.4,88.8c0-0.6,0-1.2-0.1-1.8h1l0.1,1.1l0,0c0.2-0.6,0.8-1.1,1.4-1.2h0.2V88h-0.2
			c-0.7,0.1-1.3,0.7-1.3,1.4c0,0.2,0,0.4,0,0.6v3.8h-1.1L161.4,88.8z"/>
		<path class="st0" d="M168.8,90.4c0,2.6-1.2,3.5-2.2,3.5c-1.2,0-2.2-1.1-2.2-3.5s1.1-3.5,2.3-3.5S168.8,88.1,168.8,90.4z
			 M165.4,90.4c0,1.1,0.2,2.7,1.2,2.7s1.1-1.6,1.1-2.7s-0.2-2.6-1.1-2.6S165.4,89.4,165.4,90.4L165.4,90.4z"/>
		<path class="st0" d="M169.5,93.1c0-0.4,0.3-0.8,0.7-0.8c0,0,0,0,0,0c0.4,0,0.7,0.3,0.7,0.7c0,0,0,0.1,0,0.1
			c0.1,0.4-0.2,0.7-0.6,0.8c0,0-0.1,0-0.1,0C169.8,93.9,169.5,93.6,169.5,93.1C169.5,93.2,169.5,93.1,169.5,93.1z"/>
	</g>
</g>
</svg>
