<svg xmlns="http://www.w3.org/2000/svg" viewBox="0 0 163.63 100.01"><defs><style>.cls-1{fill:#1d1d1b;}</style></defs><title>Asset 39Belt2 ing2</title><g id="Layer_2" data-name="Layer 2"><g id="Layer_7" data-name="Layer 7"><path class="cls-1" d="M6.18,7.4c0,3.76-1.29,5.21-2.92,5.21S.48,10.84.48,7.46s1.2-5.14,3-5.14S6.18,4.18,6.18,7.4Zm-4.51.07c0,2.07.4,4.14,1.68,4.14S5,9.41,5,7.43s-.35-4.1-1.65-4.1S1.67,5.42,1.67,7.47Z" transform="translate(-0.14 -2.17)"/><path class="cls-1" d="M7.54,7.14c0-.61,0-1.33-.06-1.86h1l.05,1.13h0a1.75,1.75,0,0,1,1.51-1.25h.25V6.34h-.24a1.56,1.56,0,0,0-1.39,1.5,4.33,4.33,0,0,0,0,.66v4H7.54Z" transform="translate(-0.14 -2.17)"/><path class="cls-1" d="M11.86,9c0,2.21.87,2.68,1.7,2.68a2.63,2.63,0,0,0,1.2-.27l.19.83a3.44,3.44,0,0,1-1.6.35c-1.72,0-2.62-1.41-2.62-3.62s1-3.8,2.43-3.8,2.07,1.55,2.07,3.18c0,.28,0,.47,0,.65Zm2.26-.85c0-1.45-.52-2.09-1.07-2.09-.76,0-1.13,1.1-1.18,2.09Z" transform="translate(-0.14 -2.17)"/><path class="cls-1" d="M23.16,2.17v8.6c0,.48,0,1.3.06,1.72h-1l-.07-.9H22.1a1.66,1.66,0,0,1-1.51,1c-1.22,0-2.1-1.32-2.1-3.7,0-2.56,1.07-3.75,2.18-3.75A1.39,1.39,0,0,1,22,6h0V2.17ZM22,8a3.93,3.93,0,0,0,0-.48c-.07-.75-.51-1.4-1.07-1.4-1,0-1.28,1.33-1.28,2.77s.39,2.74,1.22,2.74c.35,0,.84-.19,1.1-1.23A1.73,1.73,0,0,0,22,9.94Z" transform="translate(-0.14 -2.17)"/><path class="cls-1" d="M25.57,9c0,2.21.88,2.68,1.71,2.68a2.63,2.63,0,0,0,1.2-.27l.19.83a3.47,3.47,0,0,1-1.6.35c-1.73,0-2.62-1.41-2.62-3.62s1-3.8,2.43-3.8S29,6.71,29,8.34a5.67,5.67,0,0,1,0,.65Zm2.27-.85c0-1.45-.52-2.09-1.07-2.09-.76,0-1.13,1.1-1.18,2.09Z" transform="translate(-0.14 -2.17)"/><path class="cls-1" d="M30.17,7.53c0-1.11,0-1.75-.06-2.25h1l.05.91h0a1.67,1.67,0,0,1,1.53-1c1.26,0,2.09,1.33,2.09,3.71,0,2.68-1.11,3.74-2.24,3.74a1.37,1.37,0,0,1-1.26-.83h0v3.58H30.17Zm1.14,2.31a2.77,2.77,0,0,0,.06.6c.22,1,.74,1.21,1.05,1.21,1,0,1.26-1.31,1.26-2.76s-.36-2.75-1.27-2.75c-.52,0-1,.65-1.06,1.31a3.24,3.24,0,0,0,0,.55Z" transform="translate(-0.14 -2.17)"/><path class="cls-1" d="M40.57,8.88c0,2.79-1.3,3.73-2.4,3.73-1.29,0-2.35-1.18-2.35-3.71S37,5.16,38.25,5.16,40.57,6.37,40.57,8.88ZM37,8.88c0,1.2.21,2.82,1.24,2.82s1.2-1.69,1.2-2.82-.21-2.8-1.22-2.8S37,7.78,37,8.88Z" transform="translate(-0.14 -2.17)"/><path class="cls-1" d="M41.66,11.3a2.22,2.22,0,0,0,1.17.38,1,1,0,0,0,1.06-1.06c0-.54-.2-.92-.92-1.41C42,8.61,41.51,8,41.51,7.16a1.94,1.94,0,0,1,2-2,2.34,2.34,0,0,1,1.28.37l-.3.87a1.66,1.66,0,0,0-1-.33.89.89,0,0,0-.93.92c0,.48.19.76.9,1.25A2.64,2.64,0,0,1,45,10.44a2,2,0,0,1-2.17,2.14,2.5,2.5,0,0,1-1.43-.41Z" transform="translate(-0.14 -2.17)"/><path class="cls-1" d="M47.42,3.41a.69.69,0,1,1-1.37,0,.69.69,0,0,1,.68-.75A.67.67,0,0,1,47.42,3.41Zm-1.25,9.08V5.28h1.14v7.21Z" transform="translate(-0.14 -2.17)"/><path class="cls-1" d="M50.32,3.36V5.28h1.39v.87H50.32v4.29c0,.94.34,1.19.76,1.19a2,2,0,0,0,.46-.05l.05.89a2.36,2.36,0,0,1-.85.11,1.43,1.43,0,0,1-1.13-.43,2.58,2.58,0,0,1-.43-1.81V6.15H48.3V5.28h.88V3.69Z" transform="translate(-0.14 -2.17)"/><path class="cls-1" d="M56.2,8.63h0c.13-.29.26-.56.38-.81l1.44-2.54h1.24l-1.91,3,2.08,4.18H58.18l-1.57-3.4-.41.67v2.73H55.06V2.17H56.2Z" transform="translate(-0.14 -2.17)"/><path class="cls-1" d="M60.29,7.14c0-.85,0-1.28-.06-1.86h1l.06.86h0a1.82,1.82,0,0,1,1.65-1c1,0,1.75.73,1.75,2.48v4.85H63.58V7.84c0-.86-.17-1.71-1-1.71-.48,0-.93.4-1.08,1.17a3.06,3.06,0,0,0-.06.65v4.54H60.29Z" transform="translate(-0.14 -2.17)"/><path class="cls-1" d="M70.77,8.88c0,2.79-1.3,3.73-2.4,3.73-1.3,0-2.35-1.18-2.35-3.71s1.18-3.74,2.42-3.74S70.77,6.37,70.77,8.88Zm-3.6,0c0,1.2.22,2.82,1.25,2.82S69.61,10,69.61,8.88s-.2-2.8-1.22-2.8S67.17,7.78,67.17,8.88Z" transform="translate(-0.14 -2.17)"/><path class="cls-1" d="M72.54,5.28l.69,3.52c.15.78.3,1.56.39,2.31h0c.12-.75.3-1.58.46-2.28L75,5.28h.89l.79,3.45c.18.81.34,1.57.46,2.38h.05c.09-.76.23-1.51.4-2.34l.68-3.49h1.15l-1.82,7.21h-.94L75.79,9a17.55,17.55,0,0,1-.4-2.17h0c-.12.86-.27,1.53-.43,2.22l-.86,3.45h-1L71.34,5.28Z" transform="translate(-0.14 -2.17)"/><path class="cls-1" d="M80.4,2.17h1.14V12.49H80.4Z" transform="translate(-0.14 -2.17)"/><path class="cls-1" d="M84.06,9c0,2.21.88,2.68,1.71,2.68A2.58,2.58,0,0,0,87,11.4l.19.83a3.42,3.42,0,0,1-1.59.35c-1.73,0-2.63-1.41-2.63-3.62s1-3.8,2.44-3.8,2.06,1.55,2.06,3.18c0,.28,0,.47,0,.65Zm2.27-.85c0-1.45-.53-2.09-1.07-2.09-.76,0-1.14,1.1-1.19,2.09Z" transform="translate(-0.14 -2.17)"/><path class="cls-1" d="M93,2.17v8.6c0,.48,0,1.3.06,1.72h-1l-.08-.9H92a1.67,1.67,0,0,1-1.51,1c-1.22,0-2.1-1.32-2.1-3.7,0-2.56,1.07-3.75,2.18-3.75A1.39,1.39,0,0,1,91.85,6h0V2.17ZM91.88,8a3.93,3.93,0,0,0,0-.48c-.07-.75-.52-1.4-1.07-1.4-1,0-1.28,1.33-1.28,2.77s.39,2.74,1.21,2.74c.36,0,.85-.19,1.11-1.23a1.73,1.73,0,0,0,0-.48Z" transform="translate(-0.14 -2.17)"/><path class="cls-1" d="M99.05,5.28C99,5.77,99,6.42,99,7.53v4c0,1.9-.24,2.63-.71,3.15a2.53,2.53,0,0,1-1.92.77,3.68,3.68,0,0,1-1.6-.35l.27-.91a3,3,0,0,0,1.35.32c.91,0,1.47-.57,1.47-2.21V11.6h0a1.44,1.44,0,0,1-1.38.88c-1.28,0-2.12-1.44-2.12-3.57,0-2.66,1.21-3.75,2.28-3.75a1.46,1.46,0,0,1,1.34.93h0L98,5.28ZM97.84,7.76a1.73,1.73,0,0,0-.06-.52c-.12-.49-.39-1.1-1-1.1-.83,0-1.28,1.12-1.28,2.72,0,1.85.58,2.68,1.28,2.68.35,0,.8-.16,1-1a2.53,2.53,0,0,0,.07-.65Z" transform="translate(-0.14 -2.17)"/><path class="cls-1" d="M101.39,9c0,2.21.88,2.68,1.71,2.68a2.58,2.58,0,0,0,1.19-.27l.19.83a3.42,3.42,0,0,1-1.59.35c-1.73,0-2.63-1.41-2.63-3.62s1-3.8,2.44-3.8,2.06,1.55,2.06,3.18c0,.28,0,.47,0,.65Zm2.27-.85c0-1.45-.53-2.09-1.07-2.09-.76,0-1.14,1.1-1.19,2.09Z" transform="translate(-0.14 -2.17)"/><path class="cls-1" d="M111.2,12.49l-.08-.76h0a1.62,1.62,0,0,1-1.45.88,1.83,1.83,0,0,1-1.71-2.06c0-1.8,1.45-2.6,3.08-2.61V7.71c0-1-.24-1.65-1.15-1.65a2.16,2.16,0,0,0-1.2.38l-.24-.81a3.12,3.12,0,0,1,1.68-.47c1.45,0,2.07.94,2.07,2.57v3.13a11.94,11.94,0,0,0,.08,1.63ZM111,8.76c-.59,0-2,.11-2,1.68,0,.94.48,1.27.89,1.27s.93-.37,1.06-1.07a2.06,2.06,0,0,0,0-.42Z" transform="translate(-0.14 -2.17)"/><path class="cls-1" d="M113.78,7.14c0-.85,0-1.28-.06-1.86h1l.06.86h0a1.82,1.82,0,0,1,1.65-1c1,0,1.75.73,1.75,2.48v4.85h-1.15V7.84c0-.86-.16-1.71-1-1.71-.48,0-.94.4-1.08,1.17a3.06,3.06,0,0,0-.06.65v4.54h-1.14Z" transform="translate(-0.14 -2.17)"/><path class="cls-1" d="M124.17,2.17v8.6c0,.48,0,1.3.06,1.72h-1l-.08-.9h0a1.67,1.67,0,0,1-1.51,1c-1.22,0-2.11-1.32-2.11-3.7,0-2.56,1.08-3.75,2.18-3.75A1.38,1.38,0,0,1,123,6h0V2.17ZM123,8a3.93,3.93,0,0,0,0-.48c-.06-.75-.51-1.4-1.07-1.4-1,0-1.28,1.33-1.28,2.77s.39,2.74,1.22,2.74c.35,0,.85-.19,1.11-1.23a2.27,2.27,0,0,0,0-.48Z" transform="translate(-0.14 -2.17)"/><path class="cls-1" d="M.8,25.05c0-.85,0-1.28-.05-1.86h1l.06.89h0a1.78,1.78,0,0,1,1.62-1A1.51,1.51,0,0,1,5,24.17H5a2.22,2.22,0,0,1,.7-.82,1.8,1.8,0,0,1,1-.28c1,0,1.74.71,1.74,2.55v4.79H7.31V25.89c0-.95-.14-1.86-1-1.86-.48,0-.89.41-1,1.08a3.34,3.34,0,0,0,0,.66v4.64H4.06V25.67c0-.79-.14-1.64-1-1.64-.48,0-.94.41-1.08,1.18a3.82,3.82,0,0,0,0,.61v4.59H.8Z" transform="translate(-0.14 -2.17)"/><path class="cls-1" d="M12.92,30.41l-.08-.77h0a1.63,1.63,0,0,1-1.45.89,1.84,1.84,0,0,1-1.71-2.07c0-1.8,1.45-2.6,3.08-2.61v-.23c0-1-.25-1.64-1.15-1.64a2.13,2.13,0,0,0-1.2.37l-.25-.81a3.28,3.28,0,0,1,1.69-.47c1.45,0,2.07.95,2.07,2.57v3.13A12.24,12.24,0,0,0,14,30.41Zm-.17-3.74c-.59,0-2,.12-2,1.69,0,.93.48,1.27.89,1.27s.93-.38,1.06-1.08a2.06,2.06,0,0,0,0-.42Z" transform="translate(-0.14 -2.17)"/><path class="cls-1" d="M19,30.23a2.43,2.43,0,0,1-1.19.27c-1.57,0-2.64-1.28-2.64-3.66,0-2.07,1.05-3.76,2.85-3.76a2.2,2.2,0,0,1,1,.23l-.23.94a1.76,1.76,0,0,0-.82-.2c-1.15,0-1.67,1.37-1.67,2.79,0,1.69.65,2.7,1.7,2.7a1.78,1.78,0,0,0,.83-.2Z" transform="translate(-0.14 -2.17)"/><path class="cls-1" d="M20,20.08h1.15V24h0a1.93,1.93,0,0,1,.61-.63,1.72,1.72,0,0,1,.95-.26c.92,0,1.69.72,1.69,2.55v4.79H23.29V25.75c0-.89-.2-1.71-1-1.71-.53,0-.94.39-1.12,1.15a3.19,3.19,0,0,0,0,.54v4.68H20Z" transform="translate(-0.14 -2.17)"/><path class="cls-1" d="M27.29,21.32a.66.66,0,0,1-.7.74.68.68,0,0,1-.66-.74.69.69,0,0,1,.68-.75A.67.67,0,0,1,27.29,21.32Zm-1.24,9.09V23.19h1.14v7.22Z" transform="translate(-0.14 -2.17)"/><path class="cls-1" d="M28.79,25.05c0-.85,0-1.28-.06-1.86h1l.06.87h0a1.84,1.84,0,0,1,1.66-1c1,0,1.75.74,1.75,2.49v4.85H32.08V25.76c0-.87-.16-1.72-1-1.72-.49,0-.94.4-1.08,1.17a3.06,3.06,0,0,0-.06.65v4.55H28.79Z" transform="translate(-0.14 -2.17)"/><path class="cls-1" d="M35.65,26.9c0,2.21.88,2.68,1.71,2.68a2.58,2.58,0,0,0,1.19-.27l.19.84a3.55,3.55,0,0,1-1.59.35c-1.73,0-2.63-1.42-2.63-3.63s1-3.8,2.44-3.8S39,24.62,39,26.25c0,.28,0,.48,0,.65Zm2.27-.85c0-1.44-.53-2.08-1.07-2.08-.76,0-1.14,1.09-1.19,2.08Z" transform="translate(-0.14 -2.17)"/><path class="cls-1" d="M42.6,20.08h1.15V30.41H42.6Z" transform="translate(-0.14 -2.17)"/><path class="cls-1" d="M46.26,26.9c0,2.21.88,2.68,1.71,2.68a2.63,2.63,0,0,0,1.2-.27l.19.84a3.6,3.6,0,0,1-1.6.35c-1.73,0-2.63-1.42-2.63-3.63s1-3.8,2.44-3.8,2.07,1.55,2.07,3.18a5.55,5.55,0,0,1,0,.65Zm2.27-.85c0-1.44-.52-2.08-1.07-2.08-.76,0-1.13,1.09-1.19,2.08Z" transform="translate(-0.14 -2.17)"/><path class="cls-1" d="M53.73,30.41l-.08-.77h0a1.63,1.63,0,0,1-1.45.89,1.84,1.84,0,0,1-1.71-2.07c0-1.8,1.45-2.6,3.08-2.61v-.23c0-1-.24-1.64-1.15-1.64a2.13,2.13,0,0,0-1.2.37l-.24-.81a3.21,3.21,0,0,1,1.68-.47c1.45,0,2.07.95,2.07,2.57v3.13a12.17,12.17,0,0,0,.08,1.64Zm-.17-3.74c-.59,0-2,.12-2,1.69,0,.93.48,1.27.89,1.27s.93-.38,1.06-1.08a2.06,2.06,0,0,0,0-.42Z" transform="translate(-0.14 -2.17)"/><path class="cls-1" d="M56.3,25.05c0-.61,0-1.32-.06-1.86h1l.06,1.13h0a1.73,1.73,0,0,1,1.51-1.25h.24v1.18h-.24a1.57,1.57,0,0,0-1.39,1.5,4.33,4.33,0,0,0,0,.66v4H56.3Z" transform="translate(-0.14 -2.17)"/><path class="cls-1" d="M60,25.05c0-.85,0-1.28-.06-1.86h1l.06.87h0a1.83,1.83,0,0,1,1.65-1c1,0,1.75.74,1.75,2.49v4.85H63.26V25.76c0-.87-.16-1.72-1-1.72-.48,0-.94.4-1.08,1.17a3.06,3.06,0,0,0-.06.65v4.55H60Z" transform="translate(-0.14 -2.17)"/><path class="cls-1" d="M67.27,21.32a.68.68,0,0,1-.71.74.66.66,0,0,1-.65-.74.68.68,0,1,1,1.36,0ZM66,30.41V23.19h1.15v7.22Z" transform="translate(-0.14 -2.17)"/><path class="cls-1" d="M68.77,25.05c0-.85,0-1.28-.06-1.86h1l.06.87h0a1.83,1.83,0,0,1,1.65-1c1,0,1.75.74,1.75,2.49v4.85H72.06V25.76c0-.87-.17-1.72-1-1.72-.48,0-.93.4-1.08,1.17a3.06,3.06,0,0,0-.06.65v4.55H68.77Z" transform="translate(-0.14 -2.17)"/><path class="cls-1" d="M79.24,23.19c0,.5-.07,1.14-.07,2.25v4c0,1.9-.24,2.62-.71,3.14a2.53,2.53,0,0,1-1.92.77A3.46,3.46,0,0,1,75,33l.26-.91a3,3,0,0,0,1.35.32c.91,0,1.47-.57,1.47-2.21v-.73h0a1.44,1.44,0,0,1-1.37.88c-1.28,0-2.13-1.44-2.13-3.56,0-2.67,1.21-3.76,2.28-3.76a1.47,1.47,0,0,1,1.34.93h0l.06-.81ZM78,25.68a1.76,1.76,0,0,0-.06-.53c-.12-.49-.38-1.1-1-1.1-.83,0-1.28,1.12-1.28,2.72,0,1.85.58,2.68,1.28,2.68.35,0,.8-.16,1-1a2.53,2.53,0,0,0,.07-.65Z" transform="translate(-0.14 -2.17)"/><path class="cls-1" d="M86,30.41l-.08-.77h0a1.61,1.61,0,0,1-1.44.89,1.84,1.84,0,0,1-1.71-2.07c0-1.8,1.44-2.6,3.08-2.61v-.23c0-1-.25-1.64-1.16-1.64a2.18,2.18,0,0,0-1.2.37l-.24-.81a3.22,3.22,0,0,1,1.69-.47c1.44,0,2.06.95,2.06,2.57v3.13A12.17,12.17,0,0,0,87,30.41Zm-.17-3.74c-.59,0-2,.12-2,1.69,0,.93.47,1.27.88,1.27s.93-.38,1.07-1.08a2,2,0,0,0,0-.42Z" transform="translate(-0.14 -2.17)"/><path class="cls-1" d="M88.55,20.08h1.14V30.41H88.55Z" transform="translate(-0.14 -2.17)"/><path class="cls-1" d="M95.82,23.19c0,.5-.06,1.14-.06,2.25v4c0,1.9-.24,2.62-.72,3.14a2.51,2.51,0,0,1-1.92.77A3.46,3.46,0,0,1,91.53,33l.27-.91a3,3,0,0,0,1.34.32c.91,0,1.48-.57,1.48-2.21v-.73h0a1.45,1.45,0,0,1-1.38.88c-1.28,0-2.12-1.44-2.12-3.56,0-2.67,1.2-3.76,2.27-3.76a1.47,1.47,0,0,1,1.35.93h0l.06-.81Zm-1.2,2.49a2.15,2.15,0,0,0-.06-.53c-.13-.49-.39-1.1-1-1.1-.83,0-1.28,1.12-1.28,2.72,0,1.85.58,2.68,1.27,2.68.36,0,.8-.16,1-1a2.18,2.18,0,0,0,.08-.65Z" transform="translate(-0.14 -2.17)"/><path class="cls-1" d="M101.79,26.79c0,2.79-1.3,3.74-2.4,3.74-1.3,0-2.35-1.18-2.35-3.72s1.18-3.74,2.42-3.74S101.79,24.28,101.79,26.79Zm-3.6,0c0,1.2.22,2.82,1.25,2.82s1.19-1.69,1.19-2.82-.2-2.8-1.22-2.8S98.19,25.69,98.19,26.79Z" transform="translate(-0.14 -2.17)"/><path class="cls-1" d="M103.06,25.05c0-.61,0-1.32-.06-1.86h1l0,1.13h0a1.75,1.75,0,0,1,1.51-1.25h.25v1.18h-.24a1.56,1.56,0,0,0-1.39,1.5,4.33,4.33,0,0,0,0,.66v4h-1.15Z" transform="translate(-0.14 -2.17)"/><path class="cls-1" d="M108,21.32a.68.68,0,1,1-1.36,0,.69.69,0,0,1,.67-.75A.68.68,0,0,1,108,21.32Zm-1.25,9.09V23.19h1.15v7.22Z" transform="translate(-0.14 -2.17)"/><path class="cls-1" d="M110.9,21.27v1.92h1.38v.87H110.9v4.29c0,.94.34,1.19.75,1.19a2.07,2.07,0,0,0,.46,0l.06.88a2.42,2.42,0,0,1-.86.12,1.46,1.46,0,0,1-1.13-.44,2.58,2.58,0,0,1-.43-1.81V24.06h-.88v-.87h.88V21.6Z" transform="translate(-0.14 -2.17)"/><path class="cls-1" d="M113.3,20.08h1.14V24h0a2.16,2.16,0,0,1,.61-.63,1.73,1.73,0,0,1,1-.26c.92,0,1.69.72,1.69,2.55v4.79h-1.14V25.75c0-.89-.2-1.71-1-1.71-.53,0-.94.39-1.12,1.15a3.19,3.19,0,0,0,0,.54v4.68H113.3Z" transform="translate(-0.14 -2.17)"/><path class="cls-1" d="M119.34,25.05c0-.85,0-1.28-.06-1.86h1l.06.89h0a1.78,1.78,0,0,1,1.62-1,1.5,1.5,0,0,1,1.51,1.1h0a2.24,2.24,0,0,1,.71-.82,1.8,1.8,0,0,1,1-.28c1,0,1.74.71,1.74,2.55v4.79h-1.14V25.89c0-.95-.14-1.86-1-1.86-.48,0-.89.41-1.06,1.08a3.39,3.39,0,0,0,0,.66v4.64H122.6V25.67c0-.79-.14-1.64-1-1.64-.47,0-.93.41-1.07,1.18a3.76,3.76,0,0,0,0,.61v4.59h-1.14Z" transform="translate(-0.14 -2.17)"/><path class="cls-1" d="M128.4,29.21a2.25,2.25,0,0,0,1.17.38,1,1,0,0,0,1.07-1.05c0-.55-.21-.93-.93-1.41-.94-.61-1.46-1.23-1.46-2.06a2,2,0,0,1,2-2,2.4,2.4,0,0,1,1.28.37l-.3.87a1.66,1.66,0,0,0-1-.33.9.9,0,0,0-.94.92c0,.49.19.76.9,1.25a2.65,2.65,0,0,1,1.49,2.2,2,2,0,0,1-2.17,2.15,2.5,2.5,0,0,1-1.43-.42Z" transform="translate(-0.14 -2.17)"/><path class="cls-1" d="M138.78,30.23a2.5,2.5,0,0,1-1.2.27c-1.57,0-2.64-1.28-2.64-3.66,0-2.07,1.05-3.76,2.86-3.76a2.18,2.18,0,0,1,1,.23l-.23.94a1.76,1.76,0,0,0-.82-.2c-1.15,0-1.67,1.37-1.67,2.79,0,1.69.65,2.7,1.7,2.7a1.76,1.76,0,0,0,.83-.2Z" transform="translate(-0.14 -2.17)"/><path class="cls-1" d="M142.67,30.41l-.08-.77h0a1.63,1.63,0,0,1-1.45.89,1.84,1.84,0,0,1-1.71-2.07c0-1.8,1.45-2.6,3.08-2.61v-.23c0-1-.25-1.64-1.16-1.64a2.12,2.12,0,0,0-1.19.37l-.25-.81a3.25,3.25,0,0,1,1.69-.47c1.44,0,2.06.95,2.06,2.57v3.13a12.17,12.17,0,0,0,.08,1.64Zm-.18-3.74c-.58,0-2,.12-2,1.69,0,.93.48,1.27.89,1.27s.92-.38,1.06-1.08a2,2,0,0,0,0-.42Z" transform="translate(-0.14 -2.17)"/><path class="cls-1" d="M145.24,25.05c0-.85,0-1.28-.06-1.86h1l.05.87h0a1.84,1.84,0,0,1,1.66-1c1,0,1.74.74,1.74,2.49v4.85h-1.14V25.76c0-.87-.17-1.72-1-1.72-.49,0-.94.4-1.09,1.17a3.12,3.12,0,0,0-.05.65v4.55h-1.15Z" transform="translate(-0.14 -2.17)"/><path class="cls-1" d="M153.56,30.41c0-.41.06-1.25.06-1.73v-8.6h1.14v4h0a1.61,1.61,0,0,1,1.52-1c1.13,0,2,1.29,2,3.65,0,2.61-1.08,3.81-2.19,3.81a1.49,1.49,0,0,1-1.43-1.07h0l-.08.95Zm1.2-2.55a1.59,1.59,0,0,0,.05.45c.26,1.06.76,1.25,1.08,1.25.92,0,1.25-1.25,1.25-2.78s-.35-2.73-1.28-2.73c-.53,0-1,.67-1.06,1.29a2.81,2.81,0,0,0,0,.5Z" transform="translate(-0.14 -2.17)"/><path class="cls-1" d="M160.4,26.9c0,2.21.88,2.68,1.7,2.68a2.6,2.6,0,0,0,1.2-.27l.19.84a3.55,3.55,0,0,1-1.59.35c-1.73,0-2.63-1.42-2.63-3.63s1-3.8,2.43-3.8,2.07,1.55,2.07,3.18c0,.28,0,.48,0,.65Zm2.27-.85c0-1.44-.53-2.08-1.07-2.08-.76,0-1.14,1.09-1.19,2.08Z" transform="translate(-0.14 -2.17)"/><path class="cls-1" d="M.61,47.12a2.22,2.22,0,0,0,1.17.38,1,1,0,0,0,1.06-1c0-.54-.2-.93-.92-1.41C1,44.43.46,43.81.46,43a1.94,1.94,0,0,1,2-2,2.43,2.43,0,0,1,1.28.37l-.31.87a1.6,1.6,0,0,0-1-.32.89.89,0,0,0-.93.92c0,.48.18.76.9,1.24a2.67,2.67,0,0,1,1.49,2.21,2,2,0,0,1-2.18,2.14A2.41,2.41,0,0,1,.33,48Z" transform="translate(-0.14 -2.17)"/><path class="cls-1" d="M5.93,44.81c0,2.22.88,2.68,1.71,2.68a2.58,2.58,0,0,0,1.19-.27l.19.84a3.42,3.42,0,0,1-1.59.35C5.7,48.41,4.8,47,4.8,44.79S5.8,41,7.24,41,9.3,42.54,9.3,44.17c0,.28,0,.47,0,.64ZM8.2,44c0-1.45-.53-2.09-1.07-2.09C6.37,41.88,6,43,5.94,44Z" transform="translate(-0.14 -2.17)"/><path class="cls-1" d="M13.39,48.32l-.07-.76h0a1.64,1.64,0,0,1-1.45.88,1.83,1.83,0,0,1-1.71-2.06c0-1.81,1.44-2.6,3.08-2.62v-.23c0-1-.25-1.64-1.16-1.64a2.12,2.12,0,0,0-1.19.37l-.25-.8A3.15,3.15,0,0,1,12.29,41c1.44,0,2.06,1,2.06,2.58v3.13a12.11,12.11,0,0,0,.08,1.63Zm-.17-3.74c-.59,0-2,.12-2,1.69,0,.94.48,1.27.89,1.27s.92-.37,1.06-1.08a1.93,1.93,0,0,0,0-.41Z" transform="translate(-0.14 -2.17)"/><path class="cls-1" d="M16,43c0-.85,0-1.29-.06-1.87h1L17,42h0a1.79,1.79,0,0,1,1.62-1,1.5,1.5,0,0,1,1.51,1.11h0a2.26,2.26,0,0,1,.71-.83,1.8,1.8,0,0,1,1-.28c1,0,1.74.71,1.74,2.56v4.78H22.48V43.8c0-.94-.14-1.85-1-1.85-.48,0-.9.4-1.06,1.08a3.24,3.24,0,0,0-.05.65v4.64H19.22V43.58c0-.79-.14-1.63-1-1.63-.47,0-.94.4-1.07,1.17a4,4,0,0,0-.05.61v4.59H16Z" transform="translate(-0.14 -2.17)"/><path class="cls-1" d="M25.23,38h1.14V48.32H25.23Z" transform="translate(-0.14 -2.17)"/><path class="cls-1" d="M28.89,44.81c0,2.22.88,2.68,1.7,2.68a2.6,2.6,0,0,0,1.2-.27l.19.84a3.44,3.44,0,0,1-1.6.35c-1.72,0-2.62-1.41-2.62-3.62s1-3.81,2.43-3.81,2.07,1.56,2.07,3.19c0,.28,0,.47,0,.64ZM31.16,44c0-1.45-.53-2.09-1.07-2.09C29.33,41.88,29,43,28.9,44Z" transform="translate(-0.14 -2.17)"/><path class="cls-1" d="M33.3,47.12a2.22,2.22,0,0,0,1.17.38,1,1,0,0,0,1.06-1c0-.54-.2-.93-.92-1.41-.94-.61-1.46-1.23-1.46-2.06a1.94,1.94,0,0,1,2-2,2.43,2.43,0,0,1,1.28.37l-.3.87a1.66,1.66,0,0,0-1-.32.89.89,0,0,0-.93.92c0,.48.19.76.9,1.24a2.67,2.67,0,0,1,1.49,2.21,2,2,0,0,1-2.17,2.14A2.42,2.42,0,0,1,33,48Z" transform="translate(-0.14 -2.17)"/><path class="cls-1" d="M37.61,47.12a2.25,2.25,0,0,0,1.17.38,1,1,0,0,0,1.07-1c0-.54-.21-.93-.93-1.41-.94-.61-1.46-1.23-1.46-2.06a2,2,0,0,1,2-2,2.4,2.4,0,0,1,1.28.37l-.3.87a1.63,1.63,0,0,0-1-.32.89.89,0,0,0-.94.92c0,.48.19.76.9,1.24a2.66,2.66,0,0,1,1.5,2.21,2,2,0,0,1-2.18,2.14A2.42,2.42,0,0,1,37.33,48Z" transform="translate(-0.14 -2.17)"/><path class="cls-1" d="M42.12,38h1.15V48.32H42.12Z" transform="translate(-0.14 -2.17)"/><path class="cls-1" d="M45.54,41.1l1,4.15c.13.56.2,1,.3,1.49h0c.07-.41.2-1,.3-1.48L48,41.1h1.14L48,45.74a13.46,13.46,0,0,1-1.79,4.66,3.83,3.83,0,0,1-1.3,1.09l-.43-1a3.48,3.48,0,0,0,1-.9,4.36,4.36,0,0,0,.64-1.22,1.09,1.09,0,0,0,.09-.36.84.84,0,0,0,0-.27L44.33,41.1Z" transform="translate(-0.14 -2.17)"/><path class="cls-1" d="M56,48.14a2.43,2.43,0,0,1-1.19.27c-1.58,0-2.65-1.27-2.65-3.66,0-2.07,1-3.76,2.86-3.76a2.33,2.33,0,0,1,1,.23l-.23.94A1.76,1.76,0,0,0,55,42c-1.16,0-1.67,1.38-1.67,2.79,0,1.69.65,2.7,1.7,2.7a1.78,1.78,0,0,0,.83-.19Z" transform="translate(-0.14 -2.17)"/><path class="cls-1" d="M61.3,44.7c0,2.8-1.3,3.74-2.4,3.74-1.29,0-2.35-1.18-2.35-3.72S57.73,41,59,41,61.3,42.19,61.3,44.7Zm-3.59,0c0,1.19.21,2.81,1.25,2.81s1.19-1.68,1.19-2.81S60,41.9,58.93,41.9,57.71,43.6,57.71,44.71Z" transform="translate(-0.14 -2.17)"/><path class="cls-1" d="M62.59,43c0-.85,0-1.29-.06-1.87h1l.06.87h0a1.83,1.83,0,0,1,1.65-1c1,0,1.75.74,1.75,2.49v4.85H65.88V43.67c0-.86-.17-1.72-1-1.72-.48,0-.94.4-1.08,1.18a3,3,0,0,0-.06.64v4.55H62.59Z" transform="translate(-0.14 -2.17)"/><path class="cls-1" d="M68.63,43c0-.85,0-1.29-.06-1.87h1l0,.87h0a1.84,1.84,0,0,1,1.66-1c1,0,1.75.74,1.75,2.49v4.85H71.92V43.67c0-.86-.16-1.72-1-1.72-.49,0-.94.4-1.08,1.18a3,3,0,0,0-.06.64v4.55H68.63Z" transform="translate(-0.14 -2.17)"/><path class="cls-1" d="M75.49,44.81c0,2.22.88,2.68,1.71,2.68a2.58,2.58,0,0,0,1.19-.27l.19.84a3.42,3.42,0,0,1-1.59.35c-1.73,0-2.63-1.41-2.63-3.62S75.36,41,76.8,41s2.06,1.56,2.06,3.19c0,.28,0,.47,0,.64ZM77.76,44c0-1.45-.53-2.09-1.07-2.09-.76,0-1.14,1.09-1.19,2.09Z" transform="translate(-0.14 -2.17)"/><path class="cls-1" d="M83.62,48.14a2.47,2.47,0,0,1-1.2.27c-1.57,0-2.64-1.27-2.64-3.66,0-2.07,1-3.76,2.86-3.76a2.28,2.28,0,0,1,1,.23l-.22.94a1.81,1.81,0,0,0-.83-.2c-1.15,0-1.66,1.38-1.66,2.79,0,1.69.64,2.7,1.69,2.7a1.82,1.82,0,0,0,.84-.19Z" transform="translate(-0.14 -2.17)"/><path class="cls-1" d="M86.24,39.18V41.1h1.38V42H86.24v4.3c0,.94.33,1.18.75,1.18a2.07,2.07,0,0,0,.46,0l0,.89a2.61,2.61,0,0,1-.85.11A1.43,1.43,0,0,1,85.52,48a2.58,2.58,0,0,1-.43-1.81V42h-.88V41.1h.88V39.52Z" transform="translate(-0.14 -2.17)"/><path class="cls-1" d="M89.33,44.81c0,2.22.88,2.68,1.7,2.68a2.6,2.6,0,0,0,1.2-.27l.19.84a3.42,3.42,0,0,1-1.59.35c-1.73,0-2.63-1.41-2.63-3.62S89.2,41,90.63,41s2.07,1.56,2.07,3.19c0,.28,0,.47,0,.64ZM91.6,44c0-1.45-.53-2.09-1.07-2.09-.76,0-1.14,1.09-1.19,2.09Z" transform="translate(-0.14 -2.17)"/><path class="cls-1" d="M98.28,38v8.6c0,.49,0,1.31.06,1.73h-1l-.08-.9h0a1.67,1.67,0,0,1-1.51,1c-1.22,0-2.1-1.32-2.1-3.7,0-2.56,1.07-3.76,2.18-3.76a1.4,1.4,0,0,1,1.32.86h0V38Zm-1.14,5.86c0-.16,0-.33,0-.48-.07-.75-.52-1.41-1.07-1.41-1,0-1.29,1.33-1.29,2.77s.4,2.75,1.22,2.75c.36,0,.85-.19,1.11-1.23a1.83,1.83,0,0,0,0-.48Z" transform="translate(-0.14 -2.17)"/><path class="cls-1" d="M99.15,50.2a21.85,21.85,0,0,0,.87-3.48l1.3-.15a18.84,18.84,0,0,1-1.38,3.53Z" transform="translate(-0.14 -2.17)"/><path class="cls-1" d="M104.94,43c0-.85,0-1.29-.06-1.87h1l0,.89h0a1.8,1.8,0,0,1,1.63-1,1.5,1.5,0,0,1,1.51,1.11h0a2.26,2.26,0,0,1,.71-.83,1.74,1.74,0,0,1,1-.28c1,0,1.74.71,1.74,2.56v4.78h-1.14V43.8c0-.94-.14-1.85-1-1.85-.48,0-.89.4-1.05,1.08a3.24,3.24,0,0,0,0,.65v4.64h-1.14V43.58c0-.79-.14-1.63-1-1.63-.48,0-.94.4-1.07,1.17a3,3,0,0,0,0,.61v4.59h-1.14Z" transform="translate(-0.14 -2.17)"/><path class="cls-1" d="M117.05,48.32l-.08-.76h0a1.64,1.64,0,0,1-1.45.88,1.83,1.83,0,0,1-1.71-2.06c0-1.81,1.45-2.6,3.08-2.62v-.23c0-1-.24-1.64-1.15-1.64a2.13,2.13,0,0,0-1.2.37l-.24-.8a3.11,3.11,0,0,1,1.68-.48c1.45,0,2.07,1,2.07,2.58v3.13a12.11,12.11,0,0,0,.08,1.63Zm-.17-3.74c-.59,0-2,.12-2,1.69,0,.94.48,1.27.89,1.27s.93-.37,1.06-1.08a2,2,0,0,0,0-.41Z" transform="translate(-0.14 -2.17)"/><path class="cls-1" d="M120.75,44.46h0l.38-.82,1.43-2.54h1.24l-1.9,3L124,48.32h-1.28l-1.57-3.4-.42.67v2.73h-1.13V38h1.13Z" transform="translate(-0.14 -2.17)"/><path class="cls-1" d="M126.1,39.23a.68.68,0,0,1-.71.75.67.67,0,0,1-.65-.75.68.68,0,1,1,1.36,0Zm-1.25,9.09V41.1H126v7.22Z" transform="translate(-0.14 -2.17)"/><path class="cls-1" d="M127.6,43c0-.85,0-1.29-.06-1.87h1l.06.87h0a1.83,1.83,0,0,1,1.65-1c1,0,1.75.74,1.75,2.49v4.85h-1.15V43.67c0-.86-.16-1.72-1-1.72-.48,0-.94.4-1.08,1.18a3,3,0,0,0-.06.64v4.55H127.6Z" transform="translate(-0.14 -2.17)"/><path class="cls-1" d="M138.06,41.1c0,.5-.06,1.14-.06,2.25v4c0,1.9-.24,2.62-.72,3.15a2.5,2.5,0,0,1-1.92.77,3.52,3.52,0,0,1-1.59-.36l.27-.9a3.14,3.14,0,0,0,1.35.32c.91,0,1.47-.58,1.47-2.21v-.73h0a1.45,1.45,0,0,1-1.38.87c-1.28,0-2.12-1.44-2.12-3.56,0-2.66,1.2-3.76,2.27-3.76a1.47,1.47,0,0,1,1.35.93h0l.05-.81Zm-1.2,2.49a1.84,1.84,0,0,0-.06-.53c-.13-.49-.39-1.1-1-1.1-.83,0-1.28,1.12-1.28,2.72,0,1.85.58,2.69,1.28,2.69.35,0,.8-.16,1-1a2.44,2.44,0,0,0,.07-.65Z" transform="translate(-0.14 -2.17)"/><path class="cls-1" d="M.9,56.32a7,7,0,0,1,1.68-.19,3.11,3.11,0,0,1,2.22.7,2.26,2.26,0,0,1,.66,1.72,2.32,2.32,0,0,1-1.54,2.23v0a2.48,2.48,0,0,1,1.86,2.57,2.88,2.88,0,0,1-.72,2,3.43,3.43,0,0,1-2.66.91,8.15,8.15,0,0,1-1.5-.1ZM2,60.45h.53a1.73,1.73,0,0,0,1.74-1.78A1.47,1.47,0,0,0,2.66,57,2,2,0,0,0,2,57.1Zm0,4.88a3.93,3.93,0,0,0,.59,0,1.81,1.81,0,0,0,2-2,1.94,1.94,0,0,0-2-2.06H2Z" transform="translate(-0.14 -2.17)"/><path class="cls-1" d="M7.94,62.72c0,2.22.88,2.69,1.71,2.69a2.63,2.63,0,0,0,1.2-.27L11,66a3.47,3.47,0,0,1-1.6.35c-1.73,0-2.62-1.41-2.62-3.62s1-3.8,2.43-3.8,2.07,1.55,2.07,3.18c0,.28,0,.47,0,.64Zm2.27-.84c0-1.45-.52-2.09-1.07-2.09-.76,0-1.13,1.1-1.18,2.09Z" transform="translate(-0.14 -2.17)"/><path class="cls-1" d="M12.55,55.91H13.7V66.23H12.55Z" transform="translate(-0.14 -2.17)"/><path class="cls-1" d="M16.81,57.09V59H18.2v.87H16.81v4.29c0,.94.34,1.19.75,1.19a2,2,0,0,0,.47-.05l0,.89a2.61,2.61,0,0,1-.85.11,1.43,1.43,0,0,1-1.13-.43,2.58,2.58,0,0,1-.43-1.81V59.89h-.89V59h.89V57.43Z" transform="translate(-0.14 -2.17)"/><path class="cls-1" d="M19.08,64.91a3,3,0,0,0,1.44.4,1.58,1.58,0,0,0,1.68-1.7,2.56,2.56,0,0,0-1.33-2.09A3.75,3.75,0,0,1,19,58.73a2.54,2.54,0,0,1,2.67-2.64,2.76,2.76,0,0,1,1.4.36l-.27,1a2.14,2.14,0,0,0-1.2-.35,1.39,1.39,0,0,0-1.45,1.44c0,1,.52,1.4,1.47,2.07a3.44,3.44,0,0,1,1.75,2.9,2.69,2.69,0,0,1-2.82,2.82,3.24,3.24,0,0,1-1.69-.44Z" transform="translate(-0.14 -2.17)"/><path class="cls-1" d="M25.51,62.72c0,2.22.88,2.69,1.71,2.69a2.63,2.63,0,0,0,1.2-.27l.19.83a3.47,3.47,0,0,1-1.6.35c-1.73,0-2.62-1.41-2.62-3.62s1-3.8,2.43-3.8,2.07,1.55,2.07,3.18a5.36,5.36,0,0,1,0,.64Zm2.27-.84c0-1.45-.52-2.09-1.07-2.09-.76,0-1.13,1.1-1.19,2.09Z" transform="translate(-0.14 -2.17)"/><path class="cls-1" d="M30.12,60.88c0-.85,0-1.28-.06-1.86h1l.05.86h0a1.84,1.84,0,0,1,1.66-1c1,0,1.74.73,1.74,2.48v4.85H33.41V61.58c0-.86-.16-1.71-1-1.71-.49,0-.94.4-1.09,1.17a4,4,0,0,0-.05.65v4.54H30.12Z" transform="translate(-0.14 -2.17)"/><path class="cls-1" d="M36,65a2.25,2.25,0,0,0,1.17.37,1,1,0,0,0,1.07-1c0-.54-.21-.92-.93-1.41-.94-.61-1.46-1.23-1.46-2.05a1.94,1.94,0,0,1,2-2,2.32,2.32,0,0,1,1.28.37l-.3.87a1.59,1.59,0,0,0-1-.33.89.89,0,0,0-.94.92c0,.48.19.76.9,1.25a2.63,2.63,0,0,1,1.5,2.2,2,2,0,0,1-2.18,2.14,2.5,2.5,0,0,1-1.43-.41Z" transform="translate(-0.14 -2.17)"/><path class="cls-1" d="M41.29,62.72c0,2.22.88,2.69,1.71,2.69a2.55,2.55,0,0,0,1.19-.27l.19.83a3.39,3.39,0,0,1-1.59.35c-1.73,0-2.63-1.41-2.63-3.62s1-3.8,2.44-3.8,2.07,1.55,2.07,3.18a5.36,5.36,0,0,1,0,.64Zm2.27-.84c0-1.45-.52-2.09-1.07-2.09-.76,0-1.14,1.1-1.19,2.09Z" transform="translate(-0.14 -2.17)"/><path class="cls-1" d="M50.74,58.46A2.52,2.52,0,1,1,48.23,56,2.46,2.46,0,0,1,50.74,58.46Zm-4.4,0a1.89,1.89,0,0,0,1.91,1.95,1.87,1.87,0,0,0,1.86-1.94,1.89,1.89,0,1,0-3.77,0Zm1.5,1.28h-.56V57.29a5.37,5.37,0,0,1,.94-.07,1.48,1.48,0,0,1,.85.18.69.69,0,0,1,.23.54.62.62,0,0,1-.5.56v0a.73.73,0,0,1,.45.6,1.84,1.84,0,0,0,.17.61h-.61a2.11,2.11,0,0,1-.19-.59c0-.27-.2-.39-.51-.39h-.27Zm0-1.39h.27c.31,0,.56-.1.56-.35s-.16-.38-.52-.38a1.66,1.66,0,0,0-.31,0Z" transform="translate(-0.14 -2.17)"/><path class="cls-1" d="M55.91,57.09V59h1.38v.87H55.91v4.29c0,.94.33,1.19.75,1.19a2,2,0,0,0,.46-.05l.05.89a2.61,2.61,0,0,1-.85.11,1.46,1.46,0,0,1-1.13-.43,2.58,2.58,0,0,1-.43-1.81V59.89h-.88V59h.88V57.43Z" transform="translate(-0.14 -2.17)"/><path class="cls-1" d="M58.31,55.91h1.14v3.88h0a2,2,0,0,1,.61-.63,1.65,1.65,0,0,1,1-.26c.92,0,1.69.72,1.69,2.54v4.79H61.59V61.58c0-.89-.19-1.71-1-1.71-.53,0-.95.38-1.12,1.15a3,3,0,0,0,0,.54v4.67H58.31Z" transform="translate(-0.14 -2.17)"/><path class="cls-1" d="M65.16,62.72c0,2.22.88,2.69,1.71,2.69a2.55,2.55,0,0,0,1.19-.27l.19.83a3.39,3.39,0,0,1-1.59.35c-1.73,0-2.63-1.41-2.63-3.62s1-3.8,2.44-3.8,2.07,1.55,2.07,3.18a5.36,5.36,0,0,1,0,.64Zm2.27-.84c0-1.45-.52-2.09-1.07-2.09-.76,0-1.14,1.1-1.19,2.09Z" transform="translate(-0.14 -2.17)"/><path class="cls-1" d="M76.55,62.62c0,2.79-1.3,3.73-2.4,3.73-1.3,0-2.35-1.18-2.35-3.72S73,58.9,74.22,58.9,76.55,60.1,76.55,62.62Zm-3.6,0c0,1.2.22,2.82,1.25,2.82s1.19-1.69,1.19-2.82-.2-2.81-1.22-2.81S73,61.51,73,62.62Z" transform="translate(-0.14 -2.17)"/><path class="cls-1" d="M77.83,60.88c0-.85,0-1.28-.06-1.86h1l0,.86h0a1.82,1.82,0,0,1,1.66-1c1,0,1.74.73,1.74,2.48v4.85H81.12V61.58c0-.86-.17-1.71-1-1.71-.49,0-.94.4-1.09,1.17a3.12,3.12,0,0,0,0,.65v4.54H77.83Z" transform="translate(-0.14 -2.17)"/><path class="cls-1" d="M83.88,55.91H85V66.23H83.88Z" transform="translate(-0.14 -2.17)"/><path class="cls-1" d="M87.3,59l1,4.14c.13.56.2,1,.3,1.49h0c.08-.41.2-1,.31-1.48L89.75,59h1.13L89.7,63.65a13.19,13.19,0,0,1-1.79,4.66,3.55,3.55,0,0,1-1.3,1.09l-.42-1a3.66,3.66,0,0,0,1-.91,4.65,4.65,0,0,0,.65-1.21,1.07,1.07,0,0,0,.08-.37.75.75,0,0,0,0-.26L86.09,59Z" transform="translate(-0.14 -2.17)"/><path class="cls-1" d="M98.64,62.62c0,2.79-1.3,3.73-2.4,3.73-1.3,0-2.35-1.18-2.35-3.72s1.18-3.73,2.42-3.73S98.64,60.1,98.64,62.62Zm-3.59,0c0,1.2.21,2.82,1.24,2.82s1.19-1.69,1.19-2.82-.2-2.81-1.22-2.81S95.05,61.51,95.05,62.62Z" transform="translate(-0.14 -2.17)"/><path class="cls-1" d="M99.92,60.88c0-.85,0-1.28-.06-1.86h1l0,.86h0a1.84,1.84,0,0,1,1.66-1c1,0,1.75.73,1.75,2.48v4.85h-1.15V61.58c0-.86-.16-1.71-1-1.71-.49,0-.94.4-1.08,1.17a3.06,3.06,0,0,0-.06.65v4.54H99.92Z" transform="translate(-0.14 -2.17)"/><path class="cls-1" d="M108.88,61.89v.89h-3.27v-.89Z" transform="translate(-0.14 -2.17)"/><path class="cls-1" d="M110.06,66.23c0-.41.06-1.24.06-1.72v-8.6h1.14v4h0a1.63,1.63,0,0,1,1.53-1c1.13,0,2,1.28,2,3.65,0,2.61-1.08,3.8-2.2,3.8a1.49,1.49,0,0,1-1.43-1.06h0l-.08.94Zm1.2-2.54a1.9,1.9,0,0,0,0,.44c.27,1.07.76,1.26,1.08,1.26.92,0,1.25-1.25,1.25-2.78s-.34-2.73-1.27-2.73c-.53,0-1,.66-1.07,1.29a3.89,3.89,0,0,0,0,.49Z" transform="translate(-0.14 -2.17)"/><path class="cls-1" d="M116.9,62.72c0,2.22.88,2.69,1.71,2.69a2.55,2.55,0,0,0,1.19-.27L120,66a3.42,3.42,0,0,1-1.59.35c-1.73,0-2.63-1.41-2.63-3.62s1-3.8,2.44-3.8,2.06,1.55,2.06,3.18c0,.28,0,.47,0,.64Zm2.27-.84c0-1.45-.53-2.09-1.07-2.09-.76,0-1.14,1.1-1.19,2.09Z" transform="translate(-0.14 -2.17)"/><path class="cls-1" d="M121.51,55.91h1.14V66.23h-1.14Z" transform="translate(-0.14 -2.17)"/><path class="cls-1" d="M125.77,57.09V59h1.38v.87h-1.38v4.29c0,.94.33,1.19.75,1.19a2,2,0,0,0,.46-.05l.06.89a2.72,2.72,0,0,1-.86.11,1.46,1.46,0,0,1-1.13-.43,2.58,2.58,0,0,1-.43-1.81V59.89h-.88V59h.88V57.43Z" transform="translate(-0.14 -2.17)"/><path class="cls-1" d="M134.94,62.62c0,2.79-1.3,3.73-2.4,3.73-1.29,0-2.35-1.18-2.35-3.72s1.18-3.73,2.43-3.73S134.94,60.1,134.94,62.62Zm-3.59,0c0,1.2.21,2.82,1.25,2.82s1.19-1.69,1.19-2.82-.2-2.81-1.22-2.81S131.35,61.51,131.35,62.62Z" transform="translate(-0.14 -2.17)"/><path class="cls-1" d="M136.22,61.27c0-1.11,0-1.75-.06-2.25h1l.06.91h0a1.66,1.66,0,0,1,1.53-1c1.25,0,2.08,1.33,2.08,3.7,0,2.69-1.1,3.75-2.23,3.75a1.36,1.36,0,0,1-1.26-.83h0V69.1h-1.14Zm1.14,2.31a2.86,2.86,0,0,0,0,.6c.23,1,.74,1.21,1.06,1.21.95,0,1.26-1.31,1.26-2.76s-.36-2.75-1.28-2.75c-.52,0-1,.65-1,1.31a3.24,3.24,0,0,0,0,.55Z" transform="translate(-0.14 -2.17)"/><path class="cls-1" d="M143.59,57.09V59H145v.87h-1.39v4.29c0,.94.34,1.19.75,1.19a2.12,2.12,0,0,0,.47-.05l.05.89a2.65,2.65,0,0,1-.85.11,1.43,1.43,0,0,1-1.13-.43,2.58,2.58,0,0,1-.43-1.81V59.89h-.89V59h.89V57.43Z" transform="translate(-0.14 -2.17)"/><path class="cls-1" d="M147.24,57.15a.68.68,0,0,1-.71.74.66.66,0,0,1-.65-.74.68.68,0,1,1,1.36,0ZM146,66.23V59h1.14v7.21Z" transform="translate(-0.14 -2.17)"/><path class="cls-1" d="M153.17,62.62c0,2.79-1.3,3.73-2.4,3.73-1.3,0-2.35-1.18-2.35-3.72s1.18-3.73,2.42-3.73S153.17,60.1,153.17,62.62Zm-3.6,0c0,1.2.22,2.82,1.25,2.82S152,63.75,152,62.62s-.2-2.81-1.22-2.81S149.57,61.51,149.57,62.62Z" transform="translate(-0.14 -2.17)"/><path class="cls-1" d="M154.45,60.88c0-.85,0-1.28-.06-1.86h1l0,.86h0a1.84,1.84,0,0,1,1.66-1c1,0,1.74.73,1.74,2.48v4.85h-1.14V61.58c0-.86-.16-1.71-1-1.71-.49,0-.94.4-1.09,1.17a4,4,0,0,0-.05.65v4.54h-1.15Z" transform="translate(-0.14 -2.17)"/><path class="cls-1" d="M2.21,75v1.92H3.6v.87H2.21v4.29c0,.94.34,1.19.75,1.19a1.61,1.61,0,0,0,.47,0l0,.89a2.32,2.32,0,0,1-.85.12A1.44,1.44,0,0,1,1.5,83.8,2.58,2.58,0,0,1,1.07,82V77.8H.19v-.87h.88V75.34Z" transform="translate(-0.14 -2.17)"/><path class="cls-1" d="M4.61,73.82H5.76V77.7h0a1.93,1.93,0,0,1,.61-.63,1.64,1.64,0,0,1,.95-.26c.92,0,1.69.72,1.69,2.55v4.79H7.9V79.49c0-.89-.2-1.71-1-1.71-.53,0-.94.39-1.12,1.15a3.19,3.19,0,0,0,0,.54v4.68H4.61Z" transform="translate(-0.14 -2.17)"/><path class="cls-1" d="M13.51,84.15l-.07-.77h0a1.63,1.63,0,0,1-1.45.89,1.84,1.84,0,0,1-1.71-2.07c0-1.8,1.44-2.6,3.08-2.61v-.23c0-1-.25-1.65-1.16-1.65a2.13,2.13,0,0,0-1.19.38l-.25-.81a3.16,3.16,0,0,1,1.69-.47c1.44,0,2.06.94,2.06,2.57v3.13a12.17,12.17,0,0,0,.08,1.64Zm-.17-3.74c-.59,0-2,.12-2,1.68,0,.94.48,1.28.89,1.28s.92-.38,1.06-1.08a2,2,0,0,0,0-.42Z" transform="translate(-0.14 -2.17)"/><path class="cls-1" d="M17.36,75v1.92h1.39v.87H17.36v4.29c0,.94.34,1.19.76,1.19a1.58,1.58,0,0,0,.46,0l.05.89a2.32,2.32,0,0,1-.85.12,1.45,1.45,0,0,1-1.13-.44A2.58,2.58,0,0,1,16.22,82V77.8h-.88v-.87h.88V75.34Z" transform="translate(-0.14 -2.17)"/><path class="cls-1" d="M23.35,75.06a.66.66,0,0,1-.7.74.68.68,0,0,1-.66-.74.69.69,0,0,1,.68-.75A.67.67,0,0,1,23.35,75.06Zm-1.24,9.09V76.93h1.14v7.22Z" transform="translate(-0.14 -2.17)"/><path class="cls-1" d="M24.85,78.79c0-.85,0-1.28-.06-1.86h1l.06.87h0a1.83,1.83,0,0,1,1.66-1c1,0,1.75.74,1.75,2.49v4.85H28.14V79.5c0-.87-.16-1.72-1-1.72-.48,0-.94.4-1.08,1.17a3.06,3.06,0,0,0-.06.65v4.55H24.85Z" transform="translate(-0.14 -2.17)"/><path class="cls-1" d="M32.22,75v1.92H33.6v.87H32.22v4.29c0,.94.33,1.19.75,1.19a1.58,1.58,0,0,0,.46,0l.06.89a2.42,2.42,0,0,1-.86.12,1.46,1.46,0,0,1-1.13-.44A2.58,2.58,0,0,1,31.07,82V77.8h-.88v-.87h.88V75.34Z" transform="translate(-0.14 -2.17)"/><path class="cls-1" d="M35.31,80.64c0,2.21.88,2.68,1.7,2.68a2.6,2.6,0,0,0,1.2-.27l.19.84a3.55,3.55,0,0,1-1.59.35c-1.73,0-2.63-1.42-2.63-3.63s1-3.8,2.43-3.8,2.07,1.55,2.07,3.18c0,.28,0,.48,0,.65Zm2.27-.85c0-1.44-.53-2.08-1.07-2.08-.76,0-1.14,1.09-1.19,2.08Z" transform="translate(-0.14 -2.17)"/><path class="cls-1" d="M44.34,76.93c0,.5-.07,1.14-.07,2.25v4c0,1.91-.24,2.63-.71,3.15a2.53,2.53,0,0,1-1.92.77,3.6,3.6,0,0,1-1.59-.35l.27-.91a2.92,2.92,0,0,0,1.34.32c.91,0,1.47-.57,1.47-2.21v-.73h0a1.44,1.44,0,0,1-1.37.88c-1.28,0-2.13-1.44-2.13-3.57,0-2.66,1.21-3.75,2.28-3.75a1.47,1.47,0,0,1,1.34.93h0l.06-.81Zm-1.21,2.48a2.14,2.14,0,0,0-.05-.52c-.13-.49-.39-1.1-1-1.1-.83,0-1.28,1.12-1.28,2.72,0,1.85.59,2.68,1.28,2.68.36,0,.8-.16,1-1a2.15,2.15,0,0,0,.07-.65Z" transform="translate(-0.14 -2.17)"/><path class="cls-1" d="M45.83,78.79c0-.61,0-1.32-.06-1.86h1l.05,1.13h0a1.75,1.75,0,0,1,1.51-1.25h.25V78h-.24A1.56,1.56,0,0,0,47,79.49a4.33,4.33,0,0,0,0,.66v4H45.83Z" transform="translate(-0.14 -2.17)"/><path class="cls-1" d="M52.31,84.15l-.08-.77h0a1.61,1.61,0,0,1-1.44.89A1.84,1.84,0,0,1,49,82.2c0-1.8,1.44-2.6,3.08-2.61v-.23c0-1-.25-1.65-1.16-1.65a2.13,2.13,0,0,0-1.19.38l-.25-.81a3.16,3.16,0,0,1,1.69-.47c1.44,0,2.06.94,2.06,2.57v3.13a12.17,12.17,0,0,0,.08,1.64Zm-.17-3.74c-.59,0-2,.12-2,1.68,0,.94.47,1.28.88,1.28S52,83,52.11,82.29a2,2,0,0,0,0-.42Z" transform="translate(-0.14 -2.17)"/><path class="cls-1" d="M56.16,75v1.92h1.39v.87H56.16v4.29c0,.94.34,1.19.75,1.19a1.61,1.61,0,0,0,.47,0l0,.89a2.32,2.32,0,0,1-.85.12,1.44,1.44,0,0,1-1.13-.44A2.58,2.58,0,0,1,55,82V77.8h-.89v-.87H55V75.34Z" transform="translate(-0.14 -2.17)"/><path class="cls-1" d="M59.25,80.64c0,2.21.88,2.68,1.71,2.68a2.55,2.55,0,0,0,1.19-.27l.19.84a3.52,3.52,0,0,1-1.59.35c-1.73,0-2.63-1.42-2.63-3.63s1-3.8,2.44-3.8,2.07,1.55,2.07,3.18a5.55,5.55,0,0,1,0,.65Zm2.27-.85c0-1.44-.52-2.08-1.07-2.08-.76,0-1.14,1.09-1.19,2.08Z" transform="translate(-0.14 -2.17)"/><path class="cls-1" d="M63.66,83a2.28,2.28,0,0,0,1.17.38,1,1,0,0,0,1.07-1c0-.55-.2-.93-.93-1.41-.94-.61-1.46-1.23-1.46-2.06a1.94,1.94,0,0,1,2-2,2.44,2.44,0,0,1,1.29.37l-.31.87a1.63,1.63,0,0,0-1-.33.9.9,0,0,0-.94.92c0,.49.19.76.9,1.25a2.66,2.66,0,0,1,1.5,2.2,2,2,0,0,1-2.18,2.15,2.52,2.52,0,0,1-1.43-.42Z" transform="translate(-0.14 -2.17)"/><path class="cls-1" d="M71.1,76.93l.7,3.53c.14.77.3,1.56.39,2.3h0c.12-.74.3-1.58.46-2.27l.83-3.56h.89l.79,3.46c.18.8.34,1.56.46,2.37h0c.09-.76.23-1.51.4-2.33l.68-3.5H78l-1.82,7.22h-.94l-.83-3.5a18.09,18.09,0,0,1-.4-2.18h0c-.12.86-.27,1.53-.43,2.22l-.86,3.46h-1l-1.76-7.22Z" transform="translate(-0.14 -2.17)"/><path class="cls-1" d="M80.21,75.06a.66.66,0,0,1-.7.74.68.68,0,0,1-.66-.74.69.69,0,0,1,.68-.75A.67.67,0,0,1,80.21,75.06ZM79,84.15V76.93h1.14v7.22Z" transform="translate(-0.14 -2.17)"/><path class="cls-1" d="M83.12,75v1.92h1.39v.87H83.12v4.29c0,.94.34,1.19.75,1.19a1.61,1.61,0,0,0,.47,0l0,.89a2.36,2.36,0,0,1-.85.12,1.44,1.44,0,0,1-1.13-.44A2.58,2.58,0,0,1,82,82V77.8h-.89v-.87H82V75.34Z" transform="translate(-0.14 -2.17)"/><path class="cls-1" d="M85.52,73.82h1.14V77.7h0a2.16,2.16,0,0,1,.61-.63,1.7,1.7,0,0,1,1-.26c.92,0,1.69.72,1.69,2.55v4.79H88.81V79.49c0-.89-.2-1.71-1-1.71-.53,0-.94.39-1.12,1.15a3.19,3.19,0,0,0,0,.54v4.68H85.52Z" transform="translate(-0.14 -2.17)"/><path class="cls-1" d="M95.32,75v1.92H96.7v.87H95.32v4.29c0,.94.33,1.19.75,1.19a1.58,1.58,0,0,0,.46,0l.06.89a2.42,2.42,0,0,1-.86.12,1.46,1.46,0,0,1-1.13-.44A2.58,2.58,0,0,1,94.17,82V77.8h-.88v-.87h.88V75.34Z" transform="translate(-0.14 -2.17)"/><path class="cls-1" d="M97.72,73.82h1.14V77.7h0a2.16,2.16,0,0,1,.61-.63,1.65,1.65,0,0,1,1-.26c.92,0,1.69.72,1.69,2.55v4.79H101V79.49c0-.89-.19-1.71-1-1.71-.53,0-.94.39-1.12,1.15a3.19,3.19,0,0,0,0,.54v4.68H97.72Z" transform="translate(-0.14 -2.17)"/><path class="cls-1" d="M104.57,80.64c0,2.21.88,2.68,1.71,2.68a2.55,2.55,0,0,0,1.19-.27l.2.84a3.6,3.6,0,0,1-1.6.35c-1.73,0-2.63-1.42-2.63-3.63s1-3.8,2.44-3.8S108,78.36,108,80a5.55,5.55,0,0,1,0,.65Zm2.27-.85c0-1.44-.52-2.08-1.07-2.08-.76,0-1.14,1.09-1.19,2.08Z" transform="translate(-0.14 -2.17)"/><path class="cls-1" d="M112.34,80.64c0,2.21.87,2.68,1.7,2.68a2.63,2.63,0,0,0,1.2-.27l.19.84a3.56,3.56,0,0,1-1.6.35c-1.73,0-2.62-1.42-2.62-3.63s1-3.8,2.43-3.8,2.07,1.55,2.07,3.18c0,.28,0,.48,0,.65Zm2.26-.85c0-1.44-.52-2.08-1.07-2.08-.76,0-1.13,1.09-1.18,2.08Z" transform="translate(-0.14 -2.17)"/><path class="cls-1" d="M117.49,76.93l.66,1.55c.18.41.32.83.48,1.26h0c.16-.45.33-.88.48-1.26l.65-1.55H121l-1.72,3.56,1.7,3.66h-1.24L119,82.51c-.16-.38-.3-.75-.48-1.23h0c-.14.43-.31.83-.47,1.24l-.67,1.63H116.2l1.72-3.63-1.67-3.59Z" transform="translate(-0.14 -2.17)"/><path class="cls-1" d="M123.55,75v1.92h1.38v.87h-1.38v4.29c0,.94.33,1.19.75,1.19a1.58,1.58,0,0,0,.46,0l0,.89a2.32,2.32,0,0,1-.85.12,1.45,1.45,0,0,1-1.13-.44A2.58,2.58,0,0,1,122.4,82V77.8h-.88v-.87h.88V75.34Z" transform="translate(-0.14 -2.17)"/><path class="cls-1" d="M125.93,78.79c0-.61,0-1.32-.05-1.86h1l.06,1.13h0a1.73,1.73,0,0,1,1.51-1.25h.24V78h-.24a1.57,1.57,0,0,0-1.39,1.5,4.33,4.33,0,0,0,0,.66v4h-1.15Z" transform="translate(-0.14 -2.17)"/><path class="cls-1" d="M132.42,84.15l-.08-.77h0a1.63,1.63,0,0,1-1.45.89,1.84,1.84,0,0,1-1.71-2.07c0-1.8,1.45-2.6,3.08-2.61v-.23c0-1-.25-1.65-1.16-1.65a2.13,2.13,0,0,0-1.19.38l-.25-.81a3.16,3.16,0,0,1,1.69-.47c1.44,0,2.06.94,2.06,2.57v3.13a12.17,12.17,0,0,0,.08,1.64Zm-.18-3.74c-.58,0-2,.12-2,1.68,0,.94.48,1.28.89,1.28s.92-.38,1.06-1.08a2,2,0,0,0,0-.42Z" transform="translate(-0.14 -2.17)"/><path class="cls-1" d="M138.51,84a2.43,2.43,0,0,1-1.19.27c-1.58,0-2.65-1.28-2.65-3.66,0-2.08,1.05-3.76,2.86-3.76a2.2,2.2,0,0,1,1,.23l-.23.94a1.76,1.76,0,0,0-.82-.2c-1.16,0-1.67,1.37-1.67,2.79,0,1.69.65,2.7,1.7,2.7a1.78,1.78,0,0,0,.83-.2Z" transform="translate(-0.14 -2.17)"/><path class="cls-1" d="M141.13,75v1.92h1.39v.87h-1.39v4.29c0,.94.34,1.19.75,1.19a1.65,1.65,0,0,0,.47,0l.05.89a2.36,2.36,0,0,1-.85.12,1.44,1.44,0,0,1-1.13-.44A2.58,2.58,0,0,1,140,82V77.8h-.89v-.87H140V75.34Z" transform="translate(-0.14 -2.17)"/><path class="cls-1" d="M144.78,75.06a.68.68,0,0,1-.71.74.66.66,0,0,1-.65-.74.68.68,0,1,1,1.36,0Zm-1.25,9.09V76.93h1.14v7.22Z" transform="translate(-0.14 -2.17)"/><path class="cls-1" d="M150.71,80.53c0,2.79-1.3,3.74-2.4,3.74-1.3,0-2.35-1.19-2.35-3.72s1.18-3.74,2.42-3.74S150.71,78,150.71,80.53Zm-3.6,0c0,1.2.22,2.82,1.25,2.82s1.19-1.69,1.19-2.82-.2-2.8-1.22-2.8S147.11,79.43,147.11,80.53Z" transform="translate(-0.14 -2.17)"/><path class="cls-1" d="M152,78.79c0-.85,0-1.28-.06-1.86h1l.05.87h0a1.83,1.83,0,0,1,1.66-1c1,0,1.74.74,1.74,2.49v4.85h-1.14V79.5c0-.87-.16-1.72-1-1.72-.49,0-.94.4-1.09,1.17a4,4,0,0,0-.05.65v4.55H152Z" transform="translate(-0.14 -2.17)"/><path class="cls-1" d="M1.05,102.06V95.71H.14v-.87h.91V94.4a3.19,3.19,0,0,1,.64-2.17,1.94,1.94,0,0,1,1.44-.62,2.18,2.18,0,0,1,.91.18l-.2.9a1.55,1.55,0,0,0-.63-.12c-.82,0-1,.88-1,1.81v.46H3.51v.87H2.19v6.35Z" transform="translate(-0.14 -2.17)"/><path class="cls-1" d="M7.07,102.06,7,101.3H7a1.64,1.64,0,0,1-1.45.88,1.84,1.84,0,0,1-1.71-2.07c0-1.8,1.45-2.59,3.08-2.61v-.23c0-1-.25-1.64-1.16-1.64A2.12,2.12,0,0,0,4.52,96l-.25-.81A3.25,3.25,0,0,1,6,94.72c1.45,0,2.06,1,2.06,2.57v3.14a12.11,12.11,0,0,0,.08,1.63Zm-.18-3.74c-.58,0-2,.12-2,1.69,0,.94.48,1.27.89,1.27s.92-.38,1.06-1.08a1.93,1.93,0,0,0,0-.41Z" transform="translate(-0.14 -2.17)"/><path class="cls-1" d="M13.16,101.88a2.43,2.43,0,0,1-1.19.27c-1.58,0-2.65-1.27-2.65-3.66,0-2.07,1.06-3.76,2.86-3.76a2.33,2.33,0,0,1,1,.23L13,95.9a1.76,1.76,0,0,0-.82-.2c-1.15,0-1.67,1.38-1.67,2.79,0,1.69.65,2.7,1.7,2.7A1.67,1.67,0,0,0,13,101Z" transform="translate(-0.14 -2.17)"/><path class="cls-1" d="M14.87,98.55c0,2.22.88,2.68,1.71,2.68a2.55,2.55,0,0,0,1.19-.27l.19.84a3.42,3.42,0,0,1-1.59.35c-1.73,0-2.63-1.42-2.63-3.62s1-3.81,2.44-3.81,2.06,1.56,2.06,3.18c0,.29,0,.48,0,.65Zm2.27-.84c0-1.45-.53-2.09-1.07-2.09-.76,0-1.14,1.09-1.19,2.09Z" transform="translate(-0.14 -2.17)"/><path class="cls-1" d="M21.82,96.71c0-.85,0-1.29-.06-1.87h1l.06.89h0a1.79,1.79,0,0,1,1.62-1A1.5,1.5,0,0,1,26,95.82h0a2.41,2.41,0,0,1,.71-.82,1.8,1.8,0,0,1,1-.28c1,0,1.74.71,1.74,2.55v4.79H28.33V97.54c0-.94-.14-1.86-1-1.86-.48,0-.9.41-1.06,1.09a3.24,3.24,0,0,0-.05.65v4.64H25.08V97.32c0-.79-.15-1.64-1-1.64-.47,0-.94.41-1.07,1.18a3.86,3.86,0,0,0-.05.61v4.59H21.82Z" transform="translate(-0.14 -2.17)"/><path class="cls-1" d="M31.89,98.55c0,2.22.88,2.68,1.7,2.68a2.6,2.6,0,0,0,1.2-.27l.19.84a3.42,3.42,0,0,1-1.59.35c-1.73,0-2.63-1.42-2.63-3.62s1-3.81,2.43-3.81,2.07,1.56,2.07,3.18c0,.29,0,.48,0,.65Zm2.27-.84c0-1.45-.53-2.09-1.07-2.09-.76,0-1.14,1.09-1.19,2.09Z" transform="translate(-0.14 -2.17)"/><path class="cls-1" d="M39.35,102.06l-.07-.76h0a1.64,1.64,0,0,1-1.45.88c-1,0-1.71-.81-1.71-2.07,0-1.8,1.44-2.59,3.08-2.61v-.23c0-1-.25-1.64-1.16-1.64a2.12,2.12,0,0,0-1.19.37l-.25-.81a3.25,3.25,0,0,1,1.69-.47c1.44,0,2.06,1,2.06,2.57v3.14a12.11,12.11,0,0,0,.08,1.63Zm-.17-3.74c-.59,0-2,.12-2,1.69,0,.94.47,1.27.89,1.27s.92-.38,1.06-1.08a1.93,1.93,0,0,0,0-.41Z" transform="translate(-0.14 -2.17)"/><path class="cls-1" d="M41.73,100.86a2.25,2.25,0,0,0,1.17.38,1,1,0,0,0,1.07-1c0-.54-.2-.93-.93-1.41-.94-.61-1.46-1.23-1.46-2.06a2,2,0,0,1,2-2,2.47,2.47,0,0,1,1.29.37l-.31.87a1.63,1.63,0,0,0-1-.32.89.89,0,0,0-.94.92c0,.48.19.75.9,1.24a2.66,2.66,0,0,1,1.5,2.21,2,2,0,0,1-2.18,2.14,2.5,2.5,0,0,1-1.43-.42Z" transform="translate(-0.14 -2.17)"/><path class="cls-1" d="M50.57,100.09c0,.8,0,1.43.06,2h-1l-.08-.76h0a1.88,1.88,0,0,1-1.55.88c-1.26,0-1.76-1-1.76-2.78V94.84h1.15v4.4c0,1.13.18,2,1,2a1.13,1.13,0,0,0,1-1,3.2,3.2,0,0,0,.06-.65V94.84h1.14Z" transform="translate(-0.14 -2.17)"/><path class="cls-1" d="M52.17,96.71c0-.61,0-1.33-.05-1.87h1L53.2,96h0a1.74,1.74,0,0,1,1.51-1.25l.24,0v1.17h-.24a1.57,1.57,0,0,0-1.39,1.5,4.41,4.41,0,0,0,0,.66v4H52.17Z" transform="translate(-0.14 -2.17)"/><path class="cls-1" d="M56.49,98.55c0,2.22.88,2.68,1.71,2.68a2.58,2.58,0,0,0,1.19-.27l.19.84a3.42,3.42,0,0,1-1.59.35c-1.73,0-2.63-1.42-2.63-3.62s1-3.81,2.44-3.81,2.06,1.56,2.06,3.18c0,.29,0,.48,0,.65Zm2.27-.84c0-1.45-.53-2.09-1.07-2.09-.76,0-1.14,1.09-1.19,2.09Z" transform="translate(-0.14 -2.17)"/><path class="cls-1" d="M61.1,96.71c0-.85,0-1.29-.06-1.87h1l.05.89h0a1.8,1.8,0,0,1,1.63-1,1.5,1.5,0,0,1,1.51,1.1h0A2.31,2.31,0,0,1,66,95a1.76,1.76,0,0,1,1-.28c1,0,1.74.71,1.74,2.55v4.79H67.6V97.54c0-.94-.14-1.86-1-1.86-.48,0-.89.41-1,1.09a3.24,3.24,0,0,0-.05.65v4.64H64.35V97.32c0-.79-.14-1.64-1-1.64-.48,0-.94.41-1.07,1.18a3,3,0,0,0,0,.61v4.59H61.1Z" transform="translate(-0.14 -2.17)"/><path class="cls-1" d="M71.16,98.55c0,2.22.88,2.68,1.71,2.68a2.55,2.55,0,0,0,1.19-.27l.19.84a3.39,3.39,0,0,1-1.59.35c-1.73,0-2.63-1.42-2.63-3.62s1-3.81,2.44-3.81,2.07,1.56,2.07,3.18a5.43,5.43,0,0,1,0,.65Zm2.27-.84c0-1.45-.52-2.09-1.07-2.09-.76,0-1.14,1.09-1.19,2.09Z" transform="translate(-0.14 -2.17)"/><path class="cls-1" d="M75.77,96.71c0-.85,0-1.29-.06-1.87h1l.06.87h0a1.83,1.83,0,0,1,1.66-1c1,0,1.74.74,1.74,2.49v4.85H79.06V97.41c0-.86-.17-1.72-1-1.72-.48,0-.93.4-1.08,1.18a3,3,0,0,0,0,.64v4.55H75.77Z" transform="translate(-0.14 -2.17)"/><path class="cls-1" d="M83.13,92.92v1.92h1.39v.87H83.13V100c0,.94.34,1.18.76,1.18a2.07,2.07,0,0,0,.46,0l.05.89a2.61,2.61,0,0,1-.85.11,1.42,1.42,0,0,1-1.13-.44A2.58,2.58,0,0,1,82,99.9V95.71h-.88v-.87H82V93.25Z" transform="translate(-0.14 -2.17)"/><path class="cls-1" d="M85.34,100.86a2.21,2.21,0,0,0,1.16.38,1,1,0,0,0,1.07-1c0-.54-.2-.93-.92-1.41-1-.61-1.46-1.23-1.46-2.06a1.94,1.94,0,0,1,2-2,2.44,2.44,0,0,1,1.29.37l-.31.87a1.6,1.6,0,0,0-1-.32.89.89,0,0,0-.93.92c0,.48.18.75.9,1.24A2.67,2.67,0,0,1,88.66,100a2,2,0,0,1-2.18,2.14,2.49,2.49,0,0,1-1.42-.42Z" transform="translate(-0.14 -2.17)"/><path class="cls-1" d="M89.59,101.32a.81.81,0,0,1,.76-.88c.45,0,.75.34.75.88a.75.75,0,0,1-.76.86A.77.77,0,0,1,89.59,101.32Z" transform="translate(-0.14 -2.17)"/></g></g></svg>