<svg xmlns="http://www.w3.org/2000/svg" viewBox="0 0 209.22 75.37"><defs><style>.cls-1{fill:#e84e1b;}.cls-2,.cls-3,.cls-4,.cls-5,.cls-6,.cls-7,.cls-8,.cls-9{fill:none;stroke:#e84e1b;}.cls-12,.cls-2,.cls-3,.cls-4,.cls-5,.cls-6,.cls-7,.cls-8,.cls-9{stroke-miterlimit:10;}.cls-2{stroke-width:0.63px;opacity:0.2;}.cls-3{stroke-width:0.81px;opacity:0.31;}.cls-4{stroke-width:0.99px;opacity:0.43;}.cls-5{stroke-width:1.17px;opacity:0.54;}.cls-6{stroke-width:1.36px;opacity:0.66;}.cls-7{stroke-width:1.54px;opacity:0.77;}.cls-8{stroke-width:1.72px;opacity:0.89;}.cls-9{stroke-width:1.9px;}.cls-10{fill:#1d1d1b;}.cls-11,.cls-12{fill:#fff;}.cls-12{stroke:#000;}</style></defs><title>Asset 49NUEVO CLIC</title><g id="Layer_2" data-name="Layer 2"><g id="Layer_9" data-name="Layer 9"><circle class="cls-1" cx="163.25" cy="33.88" r="8.87"/><circle class="cls-2" cx="163.25" cy="33.88" r="33.56"/><circle class="cls-3" cx="163.25" cy="33.88" r="30.75"/><circle class="cls-4" cx="163.25" cy="33.88" r="27.94"/><circle class="cls-5" cx="163.25" cy="33.88" r="25.13"/><circle class="cls-6" cx="163.25" cy="33.88" r="22.32"/><circle class="cls-7" cx="163.25" cy="33.88" r="19.51"/><circle class="cls-8" cx="163.25" cy="33.88" r="16.7"/><circle class="cls-9" cx="163.25" cy="33.88" r="13.89"/><path class="cls-10" d="M10.75,29.94c-.1-2-.21-4.31-.15-6.07h-.1c-.33,1.73-.75,3.58-1.23,5.39l-1.9,7.26H6.24l-1.82-7c-.51-2-1-3.89-1.27-5.68H3.08c0,1.83-.09,4-.19,6.2L2.6,36.62H1l.93-15.5H3.85l1.81,7.09c.52,2,.91,3.56,1.24,5.33H7c.3-1.77.64-3.25,1.14-5.33l1.76-7.09h2l.89,15.5H11.08Z" transform="translate(-1)"/><path class="cls-10" d="M19.46,36.62l-.12-1.18h-.06a2.5,2.5,0,0,1-2.23,1.36c-1.48,0-2.63-1.25-2.63-3.18,0-2.78,2.22-4,4.74-4v-.35c0-1.5-.38-2.53-1.78-2.53a3.34,3.34,0,0,0-1.84.57L15.16,26a4.82,4.82,0,0,1,2.6-.73c2.23,0,3.18,1.46,3.18,4V34.1a20.09,20.09,0,0,0,.12,2.52Zm-.26-5.76c-.91,0-3.06.18-3.06,2.6,0,1.44.74,2,1.37,2s1.43-.58,1.64-1.67a3.41,3.41,0,0,0,.05-.63Z" transform="translate(-1)"/><path class="cls-10" d="M25.17,30.66h0c.21-.44.4-.86.6-1.25L28,25.5h1.91L27,30.17l3.2,6.45h-2l-2.42-5.25-.64,1v4.21H23.42V20.71h1.75Z" transform="translate(-1)"/><path class="cls-10" d="M32.48,31.21c0,3.42,1.35,4.13,2.63,4.13A4,4,0,0,0,37,34.93l.29,1.29a5.33,5.33,0,0,1-2.45.54c-2.67,0-4.05-2.18-4.05-5.59,0-3.6,1.53-5.86,3.75-5.86s3.18,2.4,3.18,4.9c0,.44,0,.74,0,1ZM36,29.91c0-2.23-.81-3.22-1.65-3.22-1.17,0-1.75,1.69-1.83,3.22Z" transform="translate(-1)"/><path class="cls-10" d="M50.09,36.35a5,5,0,0,1-2.22.41c-3,0-5.19-2.44-5.19-7.7,0-6.11,3-8.08,5.48-8.08a4,4,0,0,1,1.93.38l-.39,1.51a3.26,3.26,0,0,0-1.56-.33c-1.65,0-3.6,1.62-3.6,6.34s1.74,6.3,3.65,6.3a3.88,3.88,0,0,0,1.62-.33Z" transform="translate(-1)"/><path class="cls-10" d="M51.7,20.71h1.76V36.62H51.7Z" transform="translate(-1)"/><path class="cls-10" d="M58,22.61a1.05,1.05,0,1,1-2.1,0,1.05,1.05,0,0,1,1-1.15A1,1,0,0,1,58,22.61Zm-1.92,14V25.5h1.76V36.62Z" transform="translate(-1)"/><path class="cls-10" d="M65.75,36.34a3.83,3.83,0,0,1-1.85.42c-2.42,0-4.07-2-4.07-5.64,0-3.2,1.62-5.79,4.4-5.79a3.54,3.54,0,0,1,1.57.35l-.35,1.45a2.8,2.8,0,0,0-1.27-.31c-1.77,0-2.57,2.12-2.57,4.3,0,2.6,1,4.16,2.62,4.16a2.77,2.77,0,0,0,1.28-.3Z" transform="translate(-1)"/><path class="cls-10" d="M69,30.66h0c.21-.44.4-.86.6-1.25l2.21-3.91h1.91l-2.94,4.67L74,36.62h-2l-2.42-5.25-.63,1v4.21H67.25V20.71H69Z" transform="translate(-1)"/><path class="cls-10" d="M81.19,22.54v3h2.13v1.34H81.19v6.61c0,1.45.52,1.83,1.15,1.83a3,3,0,0,0,.72-.07l.08,1.37a3.7,3.7,0,0,1-1.31.18,2.21,2.21,0,0,1-1.75-.68c-.44-.5-.66-1.25-.66-2.79V26.84H78.06V25.5h1.36V23.05Z" transform="translate(-1)"/><path class="cls-10" d="M91.53,31c0,4.31-2,5.76-3.7,5.76-2,0-3.62-1.82-3.62-5.73S86,25.31,88,25.31,91.53,27.17,91.53,31Zm-5.54,0c0,1.84.33,4.34,1.92,4.34s1.84-2.6,1.84-4.34-.31-4.32-1.88-4.32S86,29.35,86,31.05Z" transform="translate(-1)"/><path class="cls-10" d="M96.81,34.77a3.49,3.49,0,0,0,1.8.59,1.52,1.52,0,0,0,1.65-1.62c0-.84-.32-1.43-1.43-2.18-1.45-.93-2.25-1.89-2.25-3.17a3,3,0,0,1,3.08-3.08,3.72,3.72,0,0,1,2,.57l-.47,1.34a2.55,2.55,0,0,0-1.48-.5,1.37,1.37,0,0,0-1.44,1.42c0,.74.28,1.17,1.38,1.92,1.29.83,2.3,1.84,2.3,3.39a3.1,3.1,0,0,1-3.35,3.31,3.82,3.82,0,0,1-2.2-.65Z" transform="translate(-1)"/><path class="cls-10" d="M105,31.21c0,3.42,1.36,4.13,2.63,4.13a4,4,0,0,0,1.84-.41l.3,1.29a5.35,5.35,0,0,1-2.46.54c-2.66,0-4-2.18-4-5.59,0-3.6,1.54-5.86,3.75-5.86s3.19,2.4,3.19,4.9c0,.44,0,.74,0,1Zm3.5-1.3c0-2.23-.81-3.22-1.65-3.22-1.17,0-1.75,1.69-1.83,3.22Z" transform="translate(-1)"/><path class="cls-10" d="M113.36,31.21c0,3.42,1.35,4.13,2.63,4.13a4,4,0,0,0,1.84-.41l.29,1.29a5.28,5.28,0,0,1-2.45.54c-2.67,0-4-2.18-4-5.59,0-3.6,1.54-5.86,3.75-5.86s3.19,2.4,3.19,4.9c0,.44,0,.74,0,1Zm3.5-1.3c0-2.23-.82-3.22-1.65-3.22-1.17,0-1.75,1.69-1.83,3.22Z" transform="translate(-1)"/><path class="cls-10" d="M1.24,48.37c0-1.31-.06-2-.09-2.87H2.7l.09,1.37h0a2.76,2.76,0,0,1,2.51-1.56A2.33,2.33,0,0,1,7.67,47h0A3.45,3.45,0,0,1,8.8,45.74a2.79,2.79,0,0,1,1.54-.43c1.51,0,2.68,1.1,2.68,3.93v7.38H11.26v-7c0-1.45-.21-2.86-1.55-2.86-.74,0-1.38.63-1.63,1.67a5.17,5.17,0,0,0-.07,1v7.16H6.25v-7.3c0-1.22-.22-2.53-1.53-2.53-.73,0-1.44.63-1.65,1.81a5.65,5.65,0,0,0-.07.95v7.07H1.24Z" transform="translate(-1)"/><path class="cls-10" d="M22.33,51c0,4.31-2,5.76-3.7,5.76-2,0-3.62-1.82-3.62-5.73s1.82-5.76,3.74-5.76S22.33,47.17,22.33,51Zm-5.54,0c0,1.84.33,4.34,1.92,4.34s1.84-2.6,1.84-4.34-.31-4.32-1.88-4.32S16.79,49.35,16.79,51.05Z" transform="translate(-1)"/><path class="cls-10" d="M24.29,48.37c0-.94-.06-2-.09-2.87h1.58l.09,1.74h.05a2.69,2.69,0,0,1,2.33-1.93l.38,0v1.81h-.37a2.4,2.4,0,0,0-2.14,2.31,6.28,6.28,0,0,0-.07,1v6.16H24.29Z" transform="translate(-1)"/><path class="cls-10" d="M30.94,51.21c0,3.42,1.35,4.13,2.63,4.13a4,4,0,0,0,1.84-.41l.29,1.29a5.35,5.35,0,0,1-2.46.54c-2.66,0-4-2.18-4-5.59,0-3.6,1.53-5.86,3.75-5.86s3.18,2.4,3.18,4.9c0,.44,0,.74,0,1Zm3.49-1.3c0-2.23-.81-3.22-1.65-3.22-1.17,0-1.75,1.69-1.83,3.22Z" transform="translate(-1)"/><path class="cls-10" d="M43.57,42.61a1,1,0,0,1-1.09,1.15,1,1,0,0,1-1-1.15,1.05,1.05,0,1,1,2.1,0Zm-1.92,14V45.5h1.76V56.62Z" transform="translate(-1)"/><path class="cls-10" d="M45.88,48.37c0-1.31-.06-2-.09-2.87h1.54l.09,1.33h0A2.81,2.81,0,0,1,50,45.31c1.54,0,2.7,1.14,2.7,3.83v7.48H50.94V49.45c0-1.33-.25-2.64-1.54-2.64-.75,0-1.45.61-1.67,1.81a4.71,4.71,0,0,0-.09,1v7H45.88Z" transform="translate(-1)"/><path class="cls-10" d="M55.57,56.62V46.84H54.16V45.5h1.41v-.69a4.93,4.93,0,0,1,1-3.34,3,3,0,0,1,2.22-.95,3.36,3.36,0,0,1,1.4.27l-.3,1.39a2.43,2.43,0,0,0-1-.18c-1.28,0-1.58,1.35-1.58,2.79v.71h2v1.34h-2v9.78Z" transform="translate(-1)"/><path class="cls-10" d="M67.2,51c0,4.31-2,5.76-3.7,5.76-2,0-3.62-1.82-3.62-5.73s1.82-5.76,3.74-5.76S67.2,47.17,67.2,51Zm-5.54,0c0,1.84.33,4.34,1.92,4.34s1.84-2.6,1.84-4.34-.32-4.32-1.88-4.32S61.66,49.35,61.66,51.05Z" transform="translate(-1)"/><path class="cls-10" d="M69.16,48.37c0-.94-.06-2-.09-2.87h1.58l.08,1.74h.06a2.69,2.69,0,0,1,2.33-1.93l.38,0v1.81h-.37A2.4,2.4,0,0,0,71,49.44a6.28,6.28,0,0,0-.07,1v6.16H69.16Z" transform="translate(-1)"/><path class="cls-10" d="M74.83,48.37c0-1.31-.06-2-.09-2.87h1.55l.09,1.37h.05a2.73,2.73,0,0,1,2.5-1.56A2.33,2.33,0,0,1,81.26,47h0a3.57,3.57,0,0,1,1.1-1.27,2.75,2.75,0,0,1,1.54-.43c1.5,0,2.67,1.1,2.67,3.93v7.38H84.85v-7c0-1.45-.21-2.86-1.55-2.86-.74,0-1.38.63-1.62,1.67a4.46,4.46,0,0,0-.08,1v7.16H79.84v-7.3c0-1.22-.21-2.53-1.53-2.53-.73,0-1.44.63-1.65,1.81a5.65,5.65,0,0,0-.07.95v7.07H74.83Z" transform="translate(-1)"/><path class="cls-10" d="M93.49,56.62l-.12-1.18h-.06a2.5,2.5,0,0,1-2.23,1.36c-1.49,0-2.64-1.25-2.64-3.18,0-2.78,2.23-4,4.75-4v-.35c0-1.5-.38-2.53-1.78-2.53a3.34,3.34,0,0,0-1.84.57L89.19,46a4.82,4.82,0,0,1,2.6-.73c2.23,0,3.18,1.46,3.18,4V54.1a18.36,18.36,0,0,0,.12,2.52Zm-.26-5.76c-.91,0-3.06.18-3.06,2.6,0,1.44.74,2,1.37,2s1.43-.58,1.64-1.67a3.41,3.41,0,0,0,0-.63Z" transform="translate(-1)"/><path class="cls-10" d="M99.42,42.54v3h2.14v1.34H99.42v6.61c0,1.45.52,1.83,1.16,1.83a3,3,0,0,0,.72-.07l.08,1.37a3.76,3.76,0,0,1-1.32.18,2.19,2.19,0,0,1-1.74-.68c-.44-.5-.66-1.25-.66-2.79V46.84H96.3V45.5h1.36V43.05Z" transform="translate(-1)"/><path class="cls-10" d="M105,42.61a1.05,1.05,0,1,1-2.1,0,1.05,1.05,0,0,1,1-1.15A1,1,0,0,1,105,42.61Zm-1.92,14V45.5h1.76V56.62Z" transform="translate(-1)"/><path class="cls-10" d="M114.18,51c0,4.31-2,5.76-3.7,5.76-2,0-3.62-1.82-3.62-5.73s1.82-5.76,3.74-5.76S114.18,47.17,114.18,51Zm-5.54,0c0,1.84.33,4.34,1.93,4.34s1.83-2.6,1.83-4.34-.31-4.32-1.88-4.32S108.64,49.35,108.64,51.05Z" transform="translate(-1)"/><path class="cls-10" d="M116.16,48.37c0-1.31-.06-2-.09-2.87h1.54l.09,1.33h0a2.81,2.81,0,0,1,2.55-1.52c1.53,0,2.69,1.14,2.69,3.83v7.48h-1.76V49.45c0-1.33-.26-2.64-1.55-2.64-.75,0-1.45.61-1.67,1.81a4.71,4.71,0,0,0-.09,1v7h-1.76Z" transform="translate(-1)"/><path d="M187.07,48.72a.67.67,0,0,0,.48-.2.68.68,0,0,0,0-1,9.85,9.85,0,0,1,0-13.92,9.84,9.84,0,0,1,14.88,12.81.68.68,0,1,0,1.09.81,11.2,11.2,0,0,0-16.93-14.58,11.21,11.21,0,0,0,0,15.85.69.69,0,0,0,.48.2Z" transform="translate(-1)"/><path d="M203.64,48.13h-2.15a2.13,2.13,0,0,0-2-1.46h-2V40.1c0-.61-.21-2.62-2.94-2.62-1.82,0-2.77,1-2.82,2.93-.07,3.34-.07,12-.06,15.53-.82-.71-1.85-1.61-2.31-2a2.47,2.47,0,0,0-3.44-.18c-1.43,1.17-.74,3-.19,3.76l7.77,12.2a.7.7,0,0,0,.58.32h12.24a.7.7,0,0,0,.65-.46c.11-.33,2.74-8,3.14-10.85a34.62,34.62,0,0,0,0-4.74c0-.7,0-1.34,0-1.84,0-1.81-1.73-2.4-2.69-2.46h-1.67a2.11,2.11,0,0,0-.55-.95,2.3,2.3,0,0,0-1.57-.58Zm2.25,4.26V51.05h1.5c.05,0,1.37.1,1.37,1.1,0,.51,0,1.17,0,1.88a32.73,32.73,0,0,1,0,4.49,90.5,90.5,0,0,1-2.91,10.11H194.41l-7.72-11.9s-.9-1.28-.08-1.94a1.17,1.17,0,0,1,1.69.13c.84.75,3.52,3,3.52,3a.71.71,0,0,0,.75.1.68.68,0,0,0,.4-.62c0-.12,0-12.77.06-17,0-.91.15-1.6,1.48-1.6,1.1,0,1.61.4,1.61,1.26V51a.69.69,0,1,0,1.38,0V48h2a.78.78,0,0,1,.83.8V51a.69.69,0,0,0,1.38,0V49.44h1.87a1,1,0,0,1,.65.23,1,1,0,0,1,.25.78v1.94a.68.68,0,0,0,.69.68.7.7,0,0,0,.7-.68Z" transform="translate(-1)"/><path class="cls-11" d="M205.89,52.39V51.05h1.5c.05,0,1.37.1,1.37,1.1,0,.51,0,1.17,0,1.88a32.73,32.73,0,0,1,0,4.49,90.5,90.5,0,0,1-2.91,10.11H194.41l-7.72-11.9s-.9-1.28-.08-1.94a1.17,1.17,0,0,1,1.69.13c.84.75,3.52,3,3.52,3a.71.71,0,0,0,.75.1.68.68,0,0,0,.4-.62c0-.12,0-12.77.06-17,0-.91.15-1.6,1.48-1.6,1.1,0,1.61.4,1.61,1.26V51a.69.69,0,1,0,1.38,0V48h2a.78.78,0,0,1,.83.8V51a.69.69,0,0,0,1.38,0V49.44h1.87a1,1,0,0,1,.65.23,1,1,0,0,1,.25.78v1.94a.68.68,0,0,0,.69.68.7.7,0,0,0,.7-.68Z" transform="translate(-1)"/><rect class="cls-12" x="193" y="68.87" width="13" height="6"/></g></g></svg>