<svg xmlns="http://www.w3.org/2000/svg" viewBox="0 0 1225.79 159.81"><defs><style>.cls-1{fill:#1d1d1b;}</style></defs><title>Asset 33tituloing</title><g id="Layer_2" data-name="Layer 2"><g id="Layer_7" data-name="Layer 7"><path class="cls-1" d="M3.54,9.27H13.8V39H28.56v8.6h-25Z" transform="translate(-0.67 -8.64)"/><path class="cls-1" d="M57.59,32.14H43.82V39.2H59.21v8.39H33.56V9.27H58.42v8.38H43.82v6.19H57.59Z" transform="translate(-0.67 -8.64)"/><path class="cls-1" d="M75,38.7l-2.16,8.89H62.2L73.31,9.27H87L98.41,47.59H87.33L84.88,38.7Zm8.5-7.57-1.78-6.9c-.58-2.16-1.31-5.28-1.91-7.54h-.11C79.11,19,78.54,22.1,78,24.28l-1.65,6.85Z" transform="translate(-0.67 -8.64)"/><path class="cls-1" d="M103.32,9.79A84.64,84.64,0,0,1,115.7,9c5.87,0,10.07.81,13,3,2.46,1.88,3.78,4.61,3.78,8.36a10.22,10.22,0,0,1-6.57,9.27v.2c2.55,1.09,3.93,3.54,4.91,6.86,1.15,3.9,2.41,9.47,3.15,11H123.44a48,48,0,0,1-2.68-8.83c-1-4.59-2.45-5.54-5.62-5.54h-1.66V47.59H103.32Zm10.16,16.06h2.67c3.87,0,6.1-1.89,6.1-4.76s-1.89-4.5-5.3-4.53a16.34,16.34,0,0,0-3.47.23Z" transform="translate(-0.67 -8.64)"/><path class="cls-1" d="M138.39,47.59V9.27H150.5L156.59,21a115.58,115.58,0,0,1,6,13.43h.16A144.31,144.31,0,0,1,162,18.32v-9h9.38V47.59H160.54L154,34.85A151.62,151.62,0,0,1,147.59,21h-.2c.26,5.17.39,10.94.39,17.17v9.41Z" transform="translate(-0.67 -8.64)"/><path class="cls-1" d="M199.77,38.7l-2.16,8.89H187L198.1,9.27h13.68l11.43,38.32H212.12l-2.45-8.89Zm8.5-7.57-1.78-6.9c-.58-2.16-1.31-5.28-1.9-7.54h-.12c-.57,2.26-1.14,5.41-1.69,7.59l-1.65,6.85Z" transform="translate(-0.67 -8.64)"/><path class="cls-1" d="M228.11,9.79A82.47,82.47,0,0,1,240.22,9c5.41,0,8.7.38,11.68,1.87a8.55,8.55,0,0,1,5.16,7.89c0,3.23-1.76,6.37-6.21,8.05v.14c4.69,1.27,7.5,4.75,7.5,9.3a10.21,10.21,0,0,1-4.29,8.35C251.18,46.73,246.42,48,238.2,48a69,69,0,0,1-10.09-.62ZM238.27,24h2.06c4.34,0,6.44-1.53,6.44-4,0-2.24-1.71-3.66-5.15-3.66a19,19,0,0,0-3.35.22Zm0,16.36a21.88,21.88,0,0,0,3,.11c3.41,0,6.32-1.36,6.32-4.73s-3-4.49-6.82-4.49h-2.46Z" transform="translate(-0.67 -8.64)"/><path class="cls-1" d="M300,28c0,12.33-7.4,20.17-19.23,20.17s-18.4-8.91-18.4-19.56c0-11.15,7.3-20,19-20C293.75,8.64,300,17.78,300,28Zm-26.77.43c0,7.21,3.14,11.61,8,11.61s7.87-4.8,7.87-11.71c0-6.59-2.95-11.6-7.93-11.6S273.24,21.42,273.24,28.47Z" transform="translate(-0.67 -8.64)"/><path class="cls-1" d="M315.68,9.27V31c0,5.79,2,9.06,6.07,9.06s6.07-3,6.07-9.06V9.27h10.26V30.4c0,11.84-5.89,17.81-16.66,17.81-10.48,0-16-5.75-16-18V9.27Z" transform="translate(-0.67 -8.64)"/><path class="cls-1" d="M352.54,17.88h-9.76V9.27h30v8.61h-9.95V47.59H352.54Z" transform="translate(-0.67 -8.64)"/><path class="cls-1" d="M421.18,33.87c-.13-4.35-.23-9.46-.21-15.46h-.16c-1.18,5.1-2.8,10.81-4,15L413,46.79h-8l-3.21-13.32c-1-4.12-2.16-9.79-3.06-15.06h-.11c-.22,5.4-.41,11.11-.58,15.46l-.59,13.72H388l2.36-38.32h13.81l2.54,10.32c1,4.26,2.18,9.33,3,14h.2c1.07-4.68,2.34-10.09,3.47-14.13l2.87-10.23h13.5l1.92,38.32h-10Z" transform="translate(-0.67 -8.64)"/><path class="cls-1" d="M448.21,9.27V47.59H438V9.27Z" transform="translate(-0.67 -8.64)"/><path class="cls-1" d="M455.29,47.59V9.27H467.4L473.49,21a115.58,115.58,0,0,1,6,13.43h.15a146.83,146.83,0,0,1-.76-16.13v-9h9.38V47.59H477.44l-6.5-12.74A151.62,151.62,0,0,1,464.49,21h-.2c.25,5.17.38,10.94.38,17.17v9.41Z" transform="translate(-0.67 -8.64)"/><path class="cls-1" d="M519.41,32.14H505.64V39.2H521v8.39H495.37V9.27h24.86v8.38H505.64v6.19h13.77Z" transform="translate(-0.67 -8.64)"/><path class="cls-1" d="M527.44,37.38a23.47,23.47,0,0,0,9.93,2.38c3.51,0,5.25-1.23,5.25-3.16s-1.72-2.91-6.06-4.39c-6.45-2.29-10.76-5.86-10.76-11.56,0-6.78,5.72-12,15.4-12a25,25,0,0,1,10.36,2l-2.15,8.2A20.3,20.3,0,0,0,541.08,17c-3.12,0-4.84,1.16-4.84,2.83,0,1.95,2,2.73,6.86,4.54,6.91,2.53,10,6.22,10,11.55,0,6.63-5.14,12.25-16.33,12.25a27.35,27.35,0,0,1-11.27-2.33Z" transform="translate(-0.67 -8.64)"/><path class="cls-1" d="M582.69,32.14H568.91V39.2h15.4v8.39H558.65V9.27h24.86v8.38h-14.6v6.19h13.78Z" transform="translate(-0.67 -8.64)"/><path class="cls-1" d="M590,47.59V9.27h12.11L608.23,21a115.58,115.58,0,0,1,6,13.43h.16a144.31,144.31,0,0,1-.77-16.13v-9H623V47.59H612.18l-6.5-12.74A151.62,151.62,0,0,1,599.23,21H599c.26,5.17.38,10.94.38,17.17v9.41Z" transform="translate(-0.67 -8.64)"/><path class="cls-1" d="M630.8,37.38a23.43,23.43,0,0,0,9.93,2.38c3.51,0,5.25-1.23,5.25-3.16s-1.72-2.91-6.06-4.39c-6.45-2.29-10.76-5.86-10.76-11.56,0-6.78,5.72-12,15.39-12a25.06,25.06,0,0,1,10.37,2l-2.15,8.2A20.3,20.3,0,0,0,644.44,17c-3.13,0-4.85,1.16-4.85,2.83,0,1.95,2,2.73,6.87,4.54,6.91,2.53,10,6.22,10,11.55,0,6.63-5.14,12.25-16.33,12.25a27.31,27.31,0,0,1-11.27-2.33Z" transform="translate(-0.67 -8.64)"/><path class="cls-1" d="M686,32.14H672.27V39.2h15.39v8.39H662V9.27h24.86v8.38h-14.6v6.19H686Z" transform="translate(-0.67 -8.64)"/><path class="cls-1" d="M704.65,9.79A81.67,81.67,0,0,1,716.83,9c7.35,0,11.95,1.19,15.76,3.81,4.22,2.91,6.94,7.69,6.94,14.72,0,7.81-3,12.88-6.7,15.79-4.2,3.27-10.49,4.72-18,4.72a69.39,69.39,0,0,1-10.2-.62ZM714.9,39.93a13.33,13.33,0,0,0,2.17.11c6.65.08,11.57-3.57,11.57-12.21,0-7.49-4.46-11-10.62-11a14,14,0,0,0-3.12.26Z" transform="translate(-0.67 -8.64)"/><path class="cls-1" d="M755.28,9.27V47.59H745V9.27Z" transform="translate(-0.67 -8.64)"/><path class="cls-1" d="M795.56,45.8A46.21,46.21,0,0,1,782.32,48c-7.52,0-12.67-1.88-16.11-5.17A18.52,18.52,0,0,1,760.75,29c0-13.32,10-20.09,22.38-20.09,5.18,0,9.12.93,11.12,1.88L792.19,19a21.94,21.94,0,0,0-9.11-1.62c-6.33,0-11.56,3.31-11.56,11.1,0,7.14,4.64,11.29,10.92,11.29a11.53,11.53,0,0,0,3.22-.33V32.8h-5.13v-8h15Z" transform="translate(-0.67 -8.64)"/><path class="cls-1" d="M812.24,9.27V47.59H802V9.27Z" transform="translate(-0.67 -8.64)"/><path class="cls-1" d="M826.75,17.88H817V9.27h30v8.61H837V47.59H826.75Z" transform="translate(-0.67 -8.64)"/><path class="cls-1" d="M857.72,38.7l-2.16,8.89H845L856.06,9.27h13.67l11.43,38.32H870.08l-2.45-8.89Zm8.5-7.57-1.77-6.9c-.59-2.16-1.31-5.28-1.91-7.54h-.11c-.57,2.26-1.14,5.41-1.69,7.59l-1.65,6.85Z" transform="translate(-0.67 -8.64)"/><path class="cls-1" d="M886.06,9.27h10.27V39h14.75v8.6h-25Z" transform="translate(-0.67 -8.64)"/><path class="cls-1" d="M928,37.38A23.48,23.48,0,0,0,938,39.76c3.51,0,5.24-1.23,5.24-3.16s-1.72-2.91-6.05-4.39c-6.46-2.29-10.76-5.86-10.76-11.56,0-6.78,5.71-12,15.39-12a25,25,0,0,1,10.36,2L950,18.83A20.34,20.34,0,0,0,941.67,17c-3.13,0-4.85,1.16-4.85,2.83,0,1.95,2,2.73,6.87,4.54,6.9,2.53,10,6.22,10,11.55,0,6.63-5.15,12.25-16.33,12.25a27.31,27.31,0,0,1-11.27-2.33Z" transform="translate(-0.67 -8.64)"/><path class="cls-1" d="M995.27,28c0,12.33-7.41,20.17-19.23,20.17s-18.41-8.91-18.41-19.56c0-11.15,7.3-20,19-20C989,8.64,995.27,17.78,995.27,28Zm-26.78.43c0,7.21,3.14,11.61,8,11.61s7.88-4.8,7.88-11.71c0-6.59-3-11.6-7.93-11.6S968.49,21.42,968.49,28.47Z" transform="translate(-0.67 -8.64)"/><path class="cls-1" d="M1000.74,9.27H1011V39h14.75v8.6h-25Z" transform="translate(-0.67 -8.64)"/><path class="cls-1" d="M1039.36,9.27V31c0,5.79,2,9.06,6.06,9.06s6.07-3,6.07-9.06V9.27h10.27V30.4c0,11.84-5.89,17.81-16.66,17.81-10.48,0-16-5.75-16-18V9.27Z" transform="translate(-0.67 -8.64)"/><path class="cls-1" d="M1076.22,17.88h-9.76V9.27h30v8.61h-10V47.59h-10.27Z" transform="translate(-0.67 -8.64)"/><path class="cls-1" d="M1111.46,9.27V47.59H1101.2V9.27Z" transform="translate(-0.67 -8.64)"/><path class="cls-1" d="M1154.57,28c0,12.33-7.41,20.17-19.23,20.17s-18.41-8.91-18.41-19.56c0-11.15,7.31-20,19-20C1148.3,8.64,1154.57,17.78,1154.57,28Zm-26.78.43c0,7.21,3.14,11.61,8,11.61s7.88-4.8,7.88-11.71c0-6.59-3-11.6-7.93-11.6S1127.79,21.42,1127.79,28.47Z" transform="translate(-0.67 -8.64)"/><path class="cls-1" d="M1160,47.59V9.27h12.11L1178.23,21a115.59,115.59,0,0,1,6,13.43h.15a144.31,144.31,0,0,1-.77-16.13v-9H1193V47.59h-10.84l-6.49-12.74A151.62,151.62,0,0,1,1169.24,21h-.2c.25,5.17.38,10.94.38,17.17v9.41Z" transform="translate(-0.67 -8.64)"/><path class="cls-1" d="M1200.8,37.38a23.48,23.48,0,0,0,9.94,2.38c3.51,0,5.24-1.23,5.24-3.16s-1.72-2.91-6-4.39c-6.45-2.29-10.76-5.86-10.76-11.56,0-6.78,5.71-12,15.39-12a25,25,0,0,1,10.36,2l-2.14,8.2a20.3,20.3,0,0,0-8.33-1.82c-3.13,0-4.85,1.16-4.85,2.83,0,1.95,2,2.73,6.87,4.54,6.91,2.53,10,6.22,10,11.55,0,6.63-5.15,12.25-16.33,12.25a27.31,27.31,0,0,1-11.27-2.33Z" transform="translate(-0.67 -8.64)"/><path class="cls-1" d="M3.83,101.54V83.12H.67V77.63H3.83v-.9c0-2.87.88-6,3-8a9.72,9.72,0,0,1,6.62-2.38,14.38,14.38,0,0,1,3.94.5l-.3,5.7a8.27,8.27,0,0,0-2.4-.34c-2.44,0-3.47,1.92-3.47,4.23v1.21H16v5.49H11.27v18.42Z" transform="translate(-0.67 -8.64)"/><path class="cls-1" d="M42.72,89.35c0,8.74-6.19,12.73-12.6,12.73-6.95,0-12.34-4.6-12.34-12.32S22.87,77.1,30.55,77.1C37.86,77.1,42.72,82.13,42.72,89.35Zm-17.28.24c0,4.08,1.72,7.18,4.89,7.18,2.9,0,4.73-2.9,4.73-7.21,0-3.53-1.36-7.15-4.73-7.15C26.79,82.41,25.44,86.05,25.44,89.59Z" transform="translate(-0.67 -8.64)"/><path class="cls-1" d="M47.32,85.52c0-3.51-.06-5.83-.19-7.89h6.38l.27,4.43H54a7,7,0,0,1,6.45-5,6.44,6.44,0,0,1,1.59.14v7A8.73,8.73,0,0,0,60,84c-2.73,0-4.6,1.45-5.1,3.77a9.17,9.17,0,0,0-.13,1.66v12.09H47.32Z" transform="translate(-0.67 -8.64)"/><path class="cls-1" d="M103.84,89c-.15-4-.3-8.74-.28-13.56h-.14c-1,4.21-2.43,8.89-3.67,12.78l-4,12.83H89.94L86.39,88.28c-1.06-3.88-2.16-8.55-3-12.89h-.1c-.17,4.48-.35,9.56-.55,13.66l-.61,12.49H75.27l2.11-32.92H87.3l3.21,11c1,3.78,2.06,7.92,2.79,11.77h.16c.9-3.81,2-8.15,3.13-11.82l3.5-10.95h9.74l1.76,32.92h-7.23Z" transform="translate(-0.67 -8.64)"/><path class="cls-1" d="M125,71a3.69,3.69,0,0,1-4,3.71A3.72,3.72,0,1,1,125,71Zm-7.66,30.54V77.63h7.45v23.91Z" transform="translate(-0.67 -8.64)"/><path class="cls-1" d="M130.76,85.27c0-3-.1-5.49-.2-7.64H137l.34,3.32h.16a8.63,8.63,0,0,1,7.38-3.85c4.89,0,8.56,3.25,8.56,10.29v14.15H146V88.29c0-3.08-1.1-5.19-3.78-5.19a4,4,0,0,0-3.77,2.81,5.34,5.34,0,0,0-.26,1.84v13.79h-7.44Z" transform="translate(-0.67 -8.64)"/><path class="cls-1" d="M165.11,92c.22,3.08,3.27,4.55,6.74,4.55a19.74,19.74,0,0,0,6.57-1l1,5a23.19,23.19,0,0,1-8.66,1.51c-8.1,0-12.75-4.71-12.75-12.16,0-6.08,3.79-12.79,12-12.79,7.75,0,10.67,6,10.67,11.94a14.45,14.45,0,0,1-.26,2.94Zm8.72-5.09c0-1.79-.78-4.85-4.16-4.85-3.14,0-4.42,2.87-4.62,4.85Z" transform="translate(-0.67 -8.64)"/><path class="cls-1" d="M197.91,86.23v5H185.13v-5Z" transform="translate(-0.67 -8.64)"/><path class="cls-1" d="M210.66,70.82v6.81H216v5.49h-5.35v8.66c0,2.88.71,4.21,2.93,4.21a9.84,9.84,0,0,0,2.21-.22l.06,5.65a16,16,0,0,1-4.82.63,7.77,7.77,0,0,1-5.6-2.07c-1.38-1.42-2.05-3.69-2.05-7.08V83.12h-3.18V77.63h3.18V72.5Z" transform="translate(-0.67 -8.64)"/><path class="cls-1" d="M243.63,89.35c0,8.74-6.19,12.73-12.6,12.73-6.95,0-12.34-4.6-12.34-12.32s5.09-12.66,12.77-12.66C238.77,77.1,243.63,82.13,243.63,89.35Zm-17.28.24c0,4.08,1.72,7.18,4.89,7.18,2.89,0,4.73-2.9,4.73-7.21,0-3.53-1.36-7.15-4.73-7.15C227.7,82.41,226.35,86.05,226.35,89.59Z" transform="translate(-0.67 -8.64)"/><path class="cls-1" d="M260.29,86.23v5H247.51v-5Z" transform="translate(-0.67 -8.64)"/><path class="cls-1" d="M292.83,89c-.15-4-.3-8.74-.28-13.56h-.13c-1.05,4.21-2.44,8.89-3.68,12.78l-4,12.83h-5.78l-3.55-12.72c-1.06-3.88-2.16-8.55-3-12.89h-.1c-.17,4.48-.35,9.56-.55,13.66l-.61,12.49h-6.89l2.11-32.92h9.92l3.21,11c1,3.78,2.06,7.92,2.79,11.77h.16c.9-3.81,2-8.15,3.13-11.82l3.5-10.95h9.74l1.76,32.92h-7.23Z" transform="translate(-0.67 -8.64)"/><path class="cls-1" d="M314,71a3.69,3.69,0,0,1-4,3.71A3.72,3.72,0,1,1,314,71Zm-7.66,30.54V77.63h7.45v23.91Z" transform="translate(-0.67 -8.64)"/><path class="cls-1" d="M319.75,66.86h7.44v34.68h-7.44Z" transform="translate(-0.67 -8.64)"/><path class="cls-1" d="M333.18,66.86h7.44v34.68h-7.44Z" transform="translate(-0.67 -8.64)"/><path class="cls-1" d="M386.85,84.75c0,10.8-6.51,17.33-16.14,17.33s-15.5-7.39-15.5-16.77c0-9.85,6.33-17.23,16-17.23C381.33,68.08,386.85,75.64,386.85,84.75Zm-23.78.42c0,6.44,3,11,8,11S379,91.41,379,85c0-5.93-2.81-11-7.93-11S363.07,78.76,363.07,85.17Z" transform="translate(-0.67 -8.64)"/><path class="cls-1" d="M391.7,85.67c0-3.14-.1-5.79-.2-8H398L398.3,81h.1a9.24,9.24,0,0,1,8-3.88c5.23,0,9.93,4.55,9.93,12.18,0,8.71-5.55,12.8-10.87,12.8-2.85,0-5.14-1.15-6.19-2.73h-.1v11.86H391.7Zm7.43,5.64a6.85,6.85,0,0,0,.15,1.55,4.49,4.49,0,0,0,4.34,3.52c3.21,0,5.13-2.7,5.13-6.76,0-3.8-1.7-6.7-5-6.7a4.65,4.65,0,0,0-4.44,3.76,5.25,5.25,0,0,0-.17,1.32Z" transform="translate(-0.67 -8.64)"/><path class="cls-1" d="M429.2,70.82v6.81h5.35v5.49H429.2v8.66c0,2.88.71,4.21,2.93,4.21a9.84,9.84,0,0,0,2.21-.22l.06,5.65a15.93,15.93,0,0,1-4.82.63A7.77,7.77,0,0,1,424,100c-1.38-1.42-2.05-3.69-2.05-7.08V83.12h-3.18V77.63h3.18V72.5Z" transform="translate(-0.67 -8.64)"/><path class="cls-1" d="M446.49,71a3.69,3.69,0,0,1-4,3.71,3.72,3.72,0,1,1,4-3.71Zm-7.65,30.54V77.63h7.44v23.91Z" transform="translate(-0.67 -8.64)"/><path class="cls-1" d="M452.22,85.27c0-3-.09-5.49-.2-7.64h6.29l.31,3.24h.16A8.28,8.28,0,0,1,466,77.1a6.74,6.74,0,0,1,6.55,4.1h.09a10.08,10.08,0,0,1,3.11-2.92,8.48,8.48,0,0,1,4.54-1.18c4.56,0,8,3.23,8,10.37v14.07h-7.23v-13c0-3.46-1.11-5.48-3.51-5.48a3.63,3.63,0,0,0-3.42,2.6,6.15,6.15,0,0,0-.27,1.88v14h-7.23V88.14c0-3-1.08-5.06-3.45-5.06a3.8,3.8,0,0,0-3.48,2.67,5.45,5.45,0,0,0-.28,1.89v13.9h-7.23Z" transform="translate(-0.67 -8.64)"/><path class="cls-1" d="M501.88,71a3.68,3.68,0,0,1-4,3.71,3.72,3.72,0,1,1,4-3.71Zm-7.65,30.54V77.63h7.44v23.91Z" transform="translate(-0.67 -8.64)"/><path class="cls-1" d="M505.71,97.28l7.53-9.42c1.36-1.59,2.43-2.79,3.78-4.22v-.11H506.54v-5.9H526.1v4.48l-7.21,9c-1.3,1.54-2.54,3-3.9,4.38v.11h11.48v5.89H505.71Z" transform="translate(-0.67 -8.64)"/><path class="cls-1" d="M544.12,101.54l-.43-2.37h-.16a8.59,8.59,0,0,1-6.83,2.91c-4.87,0-7.73-3.5-7.73-7.31,0-6.23,5.57-9.19,14-9.17v-.31c0-1.27-.68-3.08-4.38-3.08A13.68,13.68,0,0,0,532,84l-1.37-4.76A19.34,19.34,0,0,1,540,77.1c8,0,10.48,4.7,10.48,10.32v8.33a34.53,34.53,0,0,0,.38,5.79Zm-.9-11.3c-3.91,0-6.93.92-6.93,3.76a2.68,2.68,0,0,0,3,2.87,4.07,4.07,0,0,0,3.85-2.75,4.81,4.81,0,0,0,.13-1.27Z" transform="translate(-0.67 -8.64)"/><path class="cls-1" d="M564.21,70.82v6.81h5.35v5.49h-5.35v8.66c0,2.88.72,4.21,2.93,4.21a9.84,9.84,0,0,0,2.21-.22l.06,5.65a15.91,15.91,0,0,1-4.81.63A7.75,7.75,0,0,1,559,100c-1.38-1.42-2.06-3.69-2.06-7.08V83.12h-3.17V77.63h3.17V72.5Z" transform="translate(-0.67 -8.64)"/><path class="cls-1" d="M581.5,71a3.68,3.68,0,0,1-4,3.71,3.72,3.72,0,1,1,4-3.71Zm-7.65,30.54V77.63h7.44v23.91Z" transform="translate(-0.67 -8.64)"/><path class="cls-1" d="M610.81,89.35c0,8.74-6.19,12.73-12.6,12.73-7,0-12.34-4.6-12.34-12.32S591,77.1,598.64,77.1C606,77.1,610.81,82.13,610.81,89.35Zm-17.28.24c0,4.08,1.72,7.18,4.89,7.18,2.9,0,4.73-2.9,4.73-7.21,0-3.53-1.36-7.15-4.72-7.15C594.88,82.41,593.53,86.05,593.53,89.59Z" transform="translate(-0.67 -8.64)"/><path class="cls-1" d="M615.42,85.27c0-3-.09-5.49-.2-7.64h6.45L622,81h.16a8.65,8.65,0,0,1,7.39-3.85c4.88,0,8.55,3.25,8.55,10.29v14.15h-7.44V88.29c0-3.08-1.1-5.19-3.78-5.19a4,4,0,0,0-3.77,2.81,5.34,5.34,0,0,0-.26,1.84v13.79h-7.44Z" transform="translate(-0.67 -8.64)"/><path class="cls-1" d="M14.52,129.44c0,5.14-3.14,7.89-7,7.89-4,0-6.75-3.08-6.75-7.61,0-4.76,2.94-7.88,7-7.88S14.52,125,14.52,129.44Zm-11.66.23c0,3.21,1.74,6.09,4.8,6.09s4.81-2.83,4.81-6.24c0-3-1.56-6.1-4.78-6.1S2.86,126.39,2.86,129.67Z" transform="translate(-0.67 -8.64)"/><path class="cls-1" d="M26,134.14c0,1.13,0,2.1.09,3H24.39l-.1-1.76h-.06a4,4,0,0,1-3.56,2c-1.69,0-3.71-.94-3.71-4.71v-6.3h1.95v6c0,2,.64,3.45,2.41,3.45a2.86,2.86,0,0,0,2.59-1.8,3,3,0,0,0,.17-1v-6.6h2Z" transform="translate(-0.67 -8.64)"/><path class="cls-1" d="M29.29,129.68c0-1.28,0-2.36-.09-3.36h1.72l.07,2.11h.07a3.26,3.26,0,0,1,3-2.35,2.31,2.31,0,0,1,.54,0V128a3.22,3.22,0,0,0-.66,0,2.73,2.73,0,0,0-2.62,2.5,4.5,4.5,0,0,0-.08.92v5.75H29.29Z" transform="translate(-0.67 -8.64)"/><path class="cls-1" d="M41.28,129.68c0-1.28,0-2.36-.09-3.36h1.72l.08,2.11h.06a3.27,3.27,0,0,1,3-2.35,2.39,2.39,0,0,1,.55,0V128a3.33,3.33,0,0,0-.67,0,2.74,2.74,0,0,0-2.62,2.5,5.34,5.34,0,0,0-.08.92v5.75H41.28Z" transform="translate(-0.67 -8.64)"/><path class="cls-1" d="M49.44,132.06a3.44,3.44,0,0,0,3.68,3.74,7.23,7.23,0,0,0,3-.55l.35,1.39a8.76,8.76,0,0,1-3.59.68c-3.31,0-5.3-2.2-5.3-5.43s1.92-5.81,5.06-5.81c3.52,0,4.43,3.08,4.43,5.06a5.23,5.23,0,0,1-.06.92Zm5.73-1.41c0-1.23-.51-3.17-2.7-3.17-2,0-2.85,1.81-3,3.17Z" transform="translate(-0.67 -8.64)"/><path class="cls-1" d="M60.25,126.32l2.11,6c.36,1,.64,1.89.88,2.78h.06c.24-.89.55-1.79.9-2.78l2.11-6h2l-4.23,10.77H62.25l-4.1-10.77Z" transform="translate(-0.67 -8.64)"/><path class="cls-1" d="M79.72,131.6c0,4-2.77,5.73-5.35,5.73-2.92,0-5.18-2.12-5.18-5.54,0-3.61,2.37-5.71,5.35-5.71S79.72,128.32,79.72,131.6Zm-8.54.13c0,2.36,1.36,4.14,3.27,4.14s3.28-1.76,3.28-4.2c0-1.82-.92-4.13-3.25-4.13S71.18,129.69,71.18,131.73Z" transform="translate(-0.67 -8.64)"/><path class="cls-1" d="M82.19,121.28h2v15.81h-2Z" transform="translate(-0.67 -8.64)"/><path class="cls-1" d="M96.45,134.14c0,1.13,0,2.1.09,3H94.81l-.11-1.76h0a4,4,0,0,1-3.57,2c-1.68,0-3.7-.94-3.7-4.71v-6.3h1.94v6c0,2,.64,3.45,2.41,3.45a2.85,2.85,0,0,0,2.59-1.8,3,3,0,0,0,.18-1v-6.6h2Z" transform="translate(-0.67 -8.64)"/><path class="cls-1" d="M102.06,123.22v3.1h2.81v1.49h-2.81v5.8c0,1.34.38,2.1,1.48,2.1a4.23,4.23,0,0,0,1.13-.14l.09,1.48a5,5,0,0,1-1.75.27,2.71,2.71,0,0,1-2.11-.83,4.11,4.11,0,0,1-.76-2.81v-5.87H98.47v-1.49h1.67v-2.59Z" transform="translate(-0.67 -8.64)"/><path class="cls-1" d="M109.26,123.28a1.22,1.22,0,1,1-1.21-1.22A1.17,1.17,0,0,1,109.26,123.28Zm-2.19,13.81V126.32h2v10.77Z" transform="translate(-0.67 -8.64)"/><path class="cls-1" d="M122,131.6c0,4-2.77,5.73-5.36,5.73-2.92,0-5.17-2.12-5.17-5.54,0-3.61,2.37-5.71,5.34-5.71S122,128.32,122,131.6Zm-8.54.13c0,2.36,1.35,4.14,3.26,4.14s3.28-1.76,3.28-4.2c0-1.82-.91-4.13-3.24-4.13S113.49,129.69,113.49,131.73Z" transform="translate(-0.67 -8.64)"/><path class="cls-1" d="M124.5,129.23c0-1.12,0-2-.09-2.91h1.73l.11,1.77h0a4,4,0,0,1,3.56-2c1.48,0,3.8.89,3.8,4.59v6.42h-1.95v-6.21c0-1.74-.66-3.2-2.49-3.2a2.82,2.82,0,0,0-2.64,2,3.12,3.12,0,0,0-.13.91v6.49h-2Z" transform="translate(-0.67 -8.64)"/><path class="cls-1" d="M142.82,137.09l-.17-1.36h-.06a4,4,0,0,1-3.3,1.6,3.06,3.06,0,0,1-3.28-3.09c0-2.6,2.31-4,6.47-4V130a2.22,2.22,0,0,0-2.45-2.48,5.28,5.28,0,0,0-2.81.8l-.44-1.3a6.8,6.8,0,0,1,3.55-.94c3.29,0,4.09,2.25,4.09,4.4v4a15.73,15.73,0,0,0,.17,2.58Zm-.3-5.5c-2.12,0-4.55.34-4.55,2.42a1.73,1.73,0,0,0,1.83,1.87,2.68,2.68,0,0,0,2.62-1.8,2,2,0,0,0,.1-.62Z" transform="translate(-0.67 -8.64)"/><path class="cls-1" d="M147.57,129.68c0-1.28,0-2.36-.09-3.36h1.72l.08,2.11h.06a3.28,3.28,0,0,1,3-2.35,2.34,2.34,0,0,1,.55,0V128a3.33,3.33,0,0,0-.67,0,2.74,2.74,0,0,0-2.62,2.5,5.34,5.34,0,0,0-.08.92v5.75h-2Z" transform="translate(-0.67 -8.64)"/><path class="cls-1" d="M156.12,126.32l2.35,6.37c.25.71.52,1.55.69,2.19h.06c.19-.63.43-1.46.69-2.24l2.13-6.32h2.07L161.17,134c-1.4,3.7-2.36,5.59-3.69,6.75a5.33,5.33,0,0,1-2.4,1.26l-.49-1.63a5.4,5.4,0,0,0,1.72-1,6.44,6.44,0,0,0,1.64-2.18,1.34,1.34,0,0,0,.15-.48,1.41,1.41,0,0,0-.14-.5l-4-9.93Z" transform="translate(-0.67 -8.64)"/><path class="cls-1" d="M173,123.22v3.1h2.81v1.49H173v5.8c0,1.34.39,2.1,1.48,2.1a4.31,4.31,0,0,0,1.14-.14l.09,1.48a5,5,0,0,1-1.75.27,2.73,2.73,0,0,1-2.12-.83,4.11,4.11,0,0,1-.76-2.81v-5.87h-1.66v-1.49H171v-2.59Z" transform="translate(-0.67 -8.64)"/><path class="cls-1" d="M178.94,132.06a3.44,3.44,0,0,0,3.68,3.74,7.28,7.28,0,0,0,3-.55l.34,1.39a8.76,8.76,0,0,1-3.59.68c-3.31,0-5.3-2.2-5.3-5.43s1.92-5.81,5.07-5.81c3.51,0,4.43,3.08,4.43,5.06a5,5,0,0,1-.07.92Zm5.73-1.41c0-1.23-.5-3.17-2.7-3.17-2,0-2.85,1.81-3,3.17Z" transform="translate(-0.67 -8.64)"/><path class="cls-1" d="M196.67,136.7a7.45,7.45,0,0,1-3.09.62,5.13,5.13,0,0,1-5.37-5.5,5.48,5.48,0,0,1,5.78-5.74,6.28,6.28,0,0,1,2.72.57l-.43,1.51a4.7,4.7,0,0,0-2.29-.52c-2.46,0-3.8,1.84-3.8,4.08a3.7,3.7,0,0,0,3.75,4,5.67,5.67,0,0,0,2.4-.52Z" transform="translate(-0.67 -8.64)"/><path class="cls-1" d="M199,121.28h1.95V128H201a3.86,3.86,0,0,1,1.4-1.38,3.94,3.94,0,0,1,2-.54c1.45,0,3.75.88,3.75,4.6v6.41h-2v-6.2c0-1.74-.65-3.2-2.49-3.2a2.86,2.86,0,0,0-2.64,2,2.65,2.65,0,0,0-.13.93v6.51H199Z" transform="translate(-0.67 -8.64)"/><path class="cls-1" d="M211.32,129.23c0-1.12,0-2-.09-2.91H213l.1,1.77h.06a4,4,0,0,1,3.56-2c1.48,0,3.79.89,3.79,4.59v6.42h-1.94v-6.21c0-1.74-.66-3.2-2.49-3.2a2.82,2.82,0,0,0-2.64,2,3.11,3.11,0,0,0-.14.91v6.49h-1.94Z" transform="translate(-0.67 -8.64)"/><path class="cls-1" d="M233.41,131.6c0,4-2.76,5.73-5.35,5.73-2.92,0-5.18-2.12-5.18-5.54,0-3.61,2.37-5.71,5.35-5.71S233.41,128.32,233.41,131.6Zm-8.53.13c0,2.36,1.35,4.14,3.26,4.14s3.28-1.76,3.28-4.2c0-1.82-.92-4.13-3.25-4.13S224.88,129.69,224.88,131.73Z" transform="translate(-0.67 -8.64)"/><path class="cls-1" d="M235.89,121.28h1.94v15.81h-1.94Z" transform="translate(-0.67 -8.64)"/><path class="cls-1" d="M250.88,131.6c0,4-2.76,5.73-5.35,5.73-2.92,0-5.18-2.12-5.18-5.54,0-3.61,2.37-5.71,5.35-5.71S250.88,128.32,250.88,131.6Zm-8.53.13c0,2.36,1.35,4.14,3.26,4.14s3.28-1.76,3.28-4.2c0-1.82-.92-4.13-3.25-4.13S242.35,129.69,242.35,131.73Z" transform="translate(-0.67 -8.64)"/><path class="cls-1" d="M262.67,126.32c-.06.76-.09,1.64-.09,3v6.25c0,2.49-.51,4-1.54,4.93a5.78,5.78,0,0,1-3.92,1.29,7,7,0,0,1-3.6-.88l.49-1.51a6.07,6.07,0,0,0,3.17.86c2,0,3.47-1,3.47-3.77v-1.2h0a3.83,3.83,0,0,1-3.42,1.81c-2.69,0-4.6-2.28-4.6-5.26,0-3.66,2.38-5.71,4.87-5.71a3.56,3.56,0,0,1,3.35,1.85h.05l.08-1.61Zm-2,4.24a3,3,0,0,0-.11-.88,2.82,2.82,0,0,0-2.75-2.08c-1.86,0-3.2,1.58-3.2,4.08,0,2.11,1.08,3.88,3.18,3.88a2.87,2.87,0,0,0,2.73-2,3.63,3.63,0,0,0,.15-1Z" transform="translate(-0.67 -8.64)"/><path class="cls-1" d="M266.53,126.32l2.35,6.37c.25.71.51,1.55.69,2.19h.05c.2-.63.44-1.46.69-2.24l2.13-6.32h2.08L271.57,134c-1.39,3.7-2.35,5.59-3.68,6.75a5.38,5.38,0,0,1-2.4,1.26l-.49-1.63a5.26,5.26,0,0,0,1.71-1,6.19,6.19,0,0,0,1.64-2.18,1.16,1.16,0,0,0,.15-.48,1.34,1.34,0,0,0-.13-.5l-4-9.93Z" transform="translate(-0.67 -8.64)"/><path class="cls-1" d="M274.17,139.84a33.33,33.33,0,0,0,1.34-5.34l2.17-.22a27.06,27.06,0,0,1-2.13,5.41Z" transform="translate(-0.67 -8.64)"/><path class="cls-1" d="M293.76,134.14c0,1.13,0,2.1.09,3h-1.73l-.11-1.76H292a4,4,0,0,1-3.56,2c-1.69,0-3.71-.94-3.71-4.71v-6.3h1.95v6c0,2,.64,3.45,2.4,3.45a2.85,2.85,0,0,0,2.59-1.8,2.79,2.79,0,0,0,.18-1v-6.6h1.95Z" transform="translate(-0.67 -8.64)"/><path class="cls-1" d="M297,129.23c0-1.12,0-2-.09-2.91h1.73l.11,1.77h.05a4,4,0,0,1,3.56-2c1.48,0,3.8.89,3.8,4.59v6.42h-1.95v-6.21c0-1.74-.66-3.2-2.49-3.2a2.83,2.83,0,0,0-2.64,2,3.12,3.12,0,0,0-.13.91v6.49h-2Z" transform="translate(-0.67 -8.64)"/><path class="cls-1" d="M311.56,123.28a1.19,1.19,0,0,1-1.25,1.22,1.17,1.17,0,0,1-1.18-1.22,1.19,1.19,0,0,1,1.22-1.22A1.17,1.17,0,0,1,311.56,123.28Zm-2.19,13.81V126.32h1.95v10.77Z" transform="translate(-0.67 -8.64)"/><path class="cls-1" d="M321.93,135.43h-.06a3.83,3.83,0,0,1-3.51,1.9c-2.52,0-4.56-2.17-4.56-5.45,0-4,2.6-5.8,4.87-5.8a3.55,3.55,0,0,1,3.32,1.86h0l.07-1.62H324c0,.9-.09,1.84-.09,3V141.5h-1.94Zm0-4.76a3.59,3.59,0,0,0-.09-.81,2.9,2.9,0,0,0-2.82-2.23c-2,0-3.25,1.72-3.25,4.13,0,2.16,1,4,3.19,4a2.93,2.93,0,0,0,2.81-2.13,3.25,3.25,0,0,0,.16-.94Z" transform="translate(-0.67 -8.64)"/><path class="cls-1" d="M336.11,134.14c0,1.13,0,2.1.09,3h-1.73l-.1-1.76h-.06a4,4,0,0,1-3.56,2c-1.69,0-3.71-.94-3.71-4.71v-6.3H329v6c0,2,.64,3.45,2.4,3.45a2.84,2.84,0,0,0,2.59-1.8,2.79,2.79,0,0,0,.18-1v-6.6h1.95Z" transform="translate(-0.67 -8.64)"/><path class="cls-1" d="M340.47,132.06a3.43,3.43,0,0,0,3.68,3.74,7.23,7.23,0,0,0,3-.55l.35,1.39a8.82,8.82,0,0,1-3.6.68c-3.3,0-5.29-2.2-5.29-5.43s1.92-5.81,5.06-5.81c3.52,0,4.43,3.08,4.43,5.06a5.23,5.23,0,0,1-.06.92Zm5.73-1.41c0-1.23-.51-3.17-2.7-3.17-2,0-2.85,1.81-3,3.17Z" transform="translate(-0.67 -8.64)"/><path class="cls-1" d="M357.43,123.28a1.19,1.19,0,0,1-1.25,1.22,1.17,1.17,0,0,1-1.18-1.22,1.19,1.19,0,0,1,1.22-1.22A1.17,1.17,0,0,1,357.43,123.28Zm-2.19,13.81V126.32h1.95v10.77Z" transform="translate(-0.67 -8.64)"/><path class="cls-1" d="M360.45,129.23c0-1.12,0-2-.09-2.91h1.73l.11,1.77h.05a4,4,0,0,1,3.56-2c1.48,0,3.79.89,3.79,4.59v6.42h-1.94v-6.21c0-1.74-.66-3.2-2.49-3.2a2.82,2.82,0,0,0-2.64,2,3.11,3.11,0,0,0-.14.91v6.49h-1.94Z" transform="translate(-0.67 -8.64)"/><path class="cls-1" d="M379.87,123.22v3.1h2.81v1.49h-2.81v5.8c0,1.34.38,2.1,1.48,2.1a4.29,4.29,0,0,0,1.13-.14l.09,1.48a5,5,0,0,1-1.75.27,2.7,2.7,0,0,1-2.11-.83,4.11,4.11,0,0,1-.76-2.81v-5.87h-1.67v-1.49H378v-2.59Z" transform="translate(-0.67 -8.64)"/><path class="cls-1" d="M384.88,121.28h1.95V128h.05a3.86,3.86,0,0,1,1.4-1.38,3.94,3.94,0,0,1,2-.54c1.45,0,3.75.88,3.75,4.6v6.41h-2v-6.2c0-1.74-.65-3.2-2.49-3.2a2.86,2.86,0,0,0-2.64,2,2.65,2.65,0,0,0-.13.93v6.51h-1.95Z" transform="translate(-0.67 -8.64)"/><path class="cls-1" d="M398.33,132.06A3.44,3.44,0,0,0,402,135.8a7.28,7.28,0,0,0,3-.55l.34,1.39a8.76,8.76,0,0,1-3.59.68c-3.31,0-5.3-2.2-5.3-5.43s1.92-5.81,5.07-5.81c3.51,0,4.43,3.08,4.43,5.06a5,5,0,0,1-.07.92Zm5.73-1.41c0-1.23-.5-3.17-2.7-3.17-2,0-2.85,1.81-3,3.17Z" transform="translate(-0.67 -8.64)"/><path class="cls-1" d="M413.87,126.32l1.44,5.47c.31,1.2.59,2.32.8,3.43h.06c.24-1.08.59-2.25,1-3.42l1.76-5.48h1.65l1.67,5.39c.39,1.27.71,2.41,1,3.51h.06c.19-1.09.48-2.22.83-3.5l1.54-5.4h1.93L424,137.09h-1.78L420.63,132a32,32,0,0,1-1-3.55h0a31.33,31.33,0,0,1-1,3.57l-1.73,5.12h-1.79l-3.24-10.77Z" transform="translate(-0.67 -8.64)"/><path class="cls-1" d="M439,131.6c0,4-2.76,5.73-5.35,5.73-2.92,0-5.18-2.12-5.18-5.54,0-3.61,2.37-5.71,5.35-5.71S439,128.32,439,131.6Zm-8.53.13c0,2.36,1.35,4.14,3.26,4.14s3.28-1.76,3.28-4.2c0-1.82-.92-4.13-3.24-4.13S430.47,129.69,430.47,131.73Z" transform="translate(-0.67 -8.64)"/><path class="cls-1" d="M441.47,129.68c0-1.28,0-2.36-.09-3.36h1.72l.07,2.11h.08a3.25,3.25,0,0,1,3-2.35,2.34,2.34,0,0,1,.55,0V128a3.33,3.33,0,0,0-.67,0,2.74,2.74,0,0,0-2.62,2.5,5.34,5.34,0,0,0-.08.92v5.75h-1.95Z" transform="translate(-0.67 -8.64)"/><path class="cls-1" d="M448.84,121.28h2v15.81h-2Z" transform="translate(-0.67 -8.64)"/><path class="cls-1" d="M463.39,121.28v13c0,1,0,2,.09,2.78h-1.74l-.1-1.86h-.06a3.93,3.93,0,0,1-3.65,2.1c-2.61,0-4.62-2.2-4.62-5.47,0-3.6,2.22-5.78,4.84-5.78a3.6,3.6,0,0,1,3.25,1.63h0v-6.43Zm-1.95,9.42a3.89,3.89,0,0,0-.08-.83,2.9,2.9,0,0,0-2.84-2.26c-2,0-3.24,1.78-3.24,4.15,0,2.18,1.09,4,3.2,4a3,3,0,0,0,2.86-2.35,3.17,3.17,0,0,0,.1-.84Z" transform="translate(-0.67 -8.64)"/><path class="cls-1" d="M465.16,139.84a33.33,33.33,0,0,0,1.34-5.34l2.18-.22a28.32,28.32,0,0,1-2.13,5.41Z" transform="translate(-0.67 -8.64)"/><path class="cls-1" d="M483.43,136.7a7.5,7.5,0,0,1-3.09.62,5.13,5.13,0,0,1-5.38-5.5,5.49,5.49,0,0,1,5.79-5.74,6.35,6.35,0,0,1,2.72.57l-.43,1.51a4.73,4.73,0,0,0-2.29-.52c-2.46,0-3.81,1.84-3.8,4.08a3.7,3.7,0,0,0,3.75,4,5.71,5.71,0,0,0,2.4-.52Z" transform="translate(-0.67 -8.64)"/><path class="cls-1" d="M495.33,131.6c0,4-2.76,5.73-5.35,5.73-2.92,0-5.18-2.12-5.18-5.54,0-3.61,2.37-5.71,5.35-5.71S495.33,128.32,495.33,131.6Zm-8.54.13c0,2.36,1.36,4.14,3.27,4.14s3.28-1.76,3.28-4.2c0-1.82-.92-4.13-3.25-4.13S486.79,129.69,486.79,131.73Z" transform="translate(-0.67 -8.64)"/><path class="cls-1" d="M497.8,129.23c0-1.12,0-2-.09-2.91h1.74l.1,1.77h.06a4,4,0,0,1,3.56-2c1.48,0,3.79.89,3.79,4.59v6.42H505v-6.21c0-1.74-.65-3.2-2.48-3.2a2.82,2.82,0,0,0-2.64,2,3.11,3.11,0,0,0-.14.91v6.49H497.8Z" transform="translate(-0.67 -8.64)"/><path class="cls-1" d="M509.88,135.09a5.32,5.32,0,0,0,2.59.77c1.43,0,2.1-.7,2.1-1.6s-.57-1.44-2-2c-2-.71-2.87-1.77-2.87-3.06,0-1.73,1.41-3.15,3.73-3.15a5.2,5.2,0,0,1,2.64.66l-.49,1.42a4.21,4.21,0,0,0-2.21-.63c-1.16,0-1.78.67-1.78,1.48s.63,1.29,2,1.83c1.86.69,2.82,1.63,2.83,3.24,0,1.91-1.49,3.24-4,3.24a6.11,6.11,0,0,1-3-.75Z" transform="translate(-0.67 -8.64)"/><path class="cls-1" d="M521.16,123.28a1.19,1.19,0,0,1-1.25,1.22,1.17,1.17,0,0,1-1.18-1.22,1.19,1.19,0,0,1,1.22-1.22A1.17,1.17,0,0,1,521.16,123.28ZM519,137.09V126.32h1.95v10.77Z" transform="translate(-0.67 -8.64)"/><path class="cls-1" d="M523.9,135.09a5.32,5.32,0,0,0,2.59.77c1.43,0,2.1-.7,2.1-1.6s-.57-1.44-2-2c-2-.71-2.87-1.77-2.87-3.06,0-1.73,1.41-3.15,3.73-3.15a5.2,5.2,0,0,1,2.64.66l-.49,1.42a4.21,4.21,0,0,0-2.21-.63c-1.15,0-1.78.67-1.78,1.48s.63,1.29,2,1.83c1.86.69,2.82,1.63,2.83,3.24,0,1.91-1.49,3.24-4,3.24a6.11,6.11,0,0,1-3-.75Z" transform="translate(-0.67 -8.64)"/><path class="cls-1" d="M535.34,123.22v3.1h2.81v1.49h-2.81v5.8c0,1.34.39,2.1,1.48,2.1a4.31,4.31,0,0,0,1.14-.14l.08,1.48a4.91,4.91,0,0,1-1.75.27,2.72,2.72,0,0,1-2.11-.83,4.11,4.11,0,0,1-.76-2.81v-5.87h-1.67v-1.49h1.67v-2.59Z" transform="translate(-0.67 -8.64)"/><path class="cls-1" d="M540.08,135.09a5.32,5.32,0,0,0,2.59.77c1.43,0,2.1-.7,2.1-1.6s-.57-1.44-2-2c-1.95-.71-2.87-1.77-2.87-3.06,0-1.73,1.41-3.15,3.73-3.15a5.2,5.2,0,0,1,2.64.66l-.49,1.42a4.21,4.21,0,0,0-2.21-.63c-1.15,0-1.78.67-1.78,1.48s.63,1.29,2,1.83c1.86.69,2.82,1.63,2.83,3.24,0,1.91-1.49,3.24-4,3.24a6.11,6.11,0,0,1-3-.75Z" transform="translate(-0.67 -8.64)"/><path class="cls-1" d="M563.63,131.6c0,4-2.76,5.73-5.35,5.73-2.92,0-5.18-2.12-5.18-5.54,0-3.61,2.37-5.71,5.35-5.71S563.63,128.32,563.63,131.6Zm-8.53.13c0,2.36,1.35,4.14,3.26,4.14s3.28-1.76,3.28-4.2c0-1.82-.92-4.13-3.25-4.13S555.1,129.69,555.1,131.73Z" transform="translate(-0.67 -8.64)"/><path class="cls-1" d="M566.3,137.09v-9.28h-1.51v-1.49h1.51v-.52a5.12,5.12,0,0,1,1.25-3.77,3.74,3.74,0,0,1,2.62-1,4.39,4.39,0,0,1,1.67.31l-.26,1.51a3,3,0,0,0-1.26-.25c-1.65,0-2.09,1.47-2.09,3.13v.58h2.6v1.49h-2.59v9.28Z" transform="translate(-0.67 -8.64)"/><path class="cls-1" d="M583.29,137.09l-.17-1.36h-.06a4,4,0,0,1-3.29,1.6,3.07,3.07,0,0,1-3.29-3.09c0-2.6,2.31-4,6.47-4V130a2.22,2.22,0,0,0-2.45-2.48,5.31,5.31,0,0,0-2.81.8l-.44-1.3a6.8,6.8,0,0,1,3.55-.94c3.29,0,4.09,2.25,4.09,4.4v4a16.92,16.92,0,0,0,.17,2.58Zm-.3-5.5c-2.12,0-4.55.34-4.55,2.42a1.73,1.73,0,0,0,1.83,1.87,2.68,2.68,0,0,0,2.62-1.8,2,2,0,0,0,.1-.62Z" transform="translate(-0.67 -8.64)"/><path class="cls-1" d="M600.44,136.7a7.45,7.45,0,0,1-3.09.62,5.13,5.13,0,0,1-5.37-5.5,5.49,5.49,0,0,1,5.79-5.74,6.35,6.35,0,0,1,2.72.57l-.44,1.51a4.7,4.7,0,0,0-2.29-.52c-2.45,0-3.8,1.84-3.8,4.08a3.7,3.7,0,0,0,3.75,4,5.67,5.67,0,0,0,2.4-.52Z" transform="translate(-0.67 -8.64)"/><path class="cls-1" d="M612.35,131.6c0,4-2.77,5.73-5.36,5.73-2.92,0-5.17-2.12-5.17-5.54,0-3.61,2.37-5.71,5.35-5.71S612.35,128.32,612.35,131.6Zm-8.54.13c0,2.36,1.36,4.14,3.27,4.14s3.28-1.76,3.28-4.2c0-1.82-.92-4.13-3.25-4.13S603.81,129.69,603.81,131.73Z" transform="translate(-0.67 -8.64)"/><path class="cls-1" d="M614.82,129.23c0-1.12,0-2-.09-2.91h1.7l.11,1.74h.05a3.71,3.71,0,0,1,3.4-2,3.16,3.16,0,0,1,3,2.16h.05a4.38,4.38,0,0,1,1.21-1.41,3.69,3.69,0,0,1,2.37-.75c1.44,0,3.56.92,3.56,4.67v6.34H628.3V131c0-2.09-.77-3.32-2.34-3.32a2.57,2.57,0,0,0-2.33,1.76,3.35,3.35,0,0,0-.16,1v6.67h-1.91v-6.46c0-1.72-.76-2.95-2.24-2.95a2.71,2.71,0,0,0-2.44,1.95,3,3,0,0,0-.15,1v6.49h-1.91Z" transform="translate(-0.67 -8.64)"/><path class="cls-1" d="M633.38,129.83c0-1.37,0-2.49-.09-3.51H635l.11,1.84h0a4.18,4.18,0,0,1,3.82-2.08c2.61,0,4.57,2.19,4.57,5.46,0,3.88-2.37,5.79-4.89,5.79a3.75,3.75,0,0,1-3.32-1.69h0v5.86h-2Zm2,2.88a3.42,3.42,0,0,0,.08.79,3,3,0,0,0,2.93,2.3c2.07,0,3.27-1.7,3.27-4.17,0-2.15-1.12-4-3.2-4a3.12,3.12,0,0,0-3,2.42,3.6,3.6,0,0,0-.12.79Z" transform="translate(-0.67 -8.64)"/><path class="cls-1" d="M646.05,121.28H648v15.81h-1.94Z" transform="translate(-0.67 -8.64)"/><path class="cls-1" d="M652.39,132.06a3.44,3.44,0,0,0,3.69,3.74,7.23,7.23,0,0,0,3-.55l.34,1.39a8.72,8.72,0,0,1-3.59.68c-3.31,0-5.3-2.2-5.3-5.43s1.93-5.81,5.07-5.81c3.51,0,4.43,3.08,4.43,5.06a4.27,4.27,0,0,1-.07.92Zm5.73-1.41c0-1.23-.5-3.17-2.7-3.17-2,0-2.85,1.81-3,3.17Z" transform="translate(-0.67 -8.64)"/><path class="cls-1" d="M664.8,123.22v3.1h2.81v1.49H664.8v5.8c0,1.34.38,2.1,1.48,2.1a4.23,4.23,0,0,0,1.13-.14l.09,1.48a5,5,0,0,1-1.75.27,2.7,2.7,0,0,1-2.11-.83,4.11,4.11,0,0,1-.76-2.81v-5.87h-1.67v-1.49h1.67v-2.59Z" transform="translate(-0.67 -8.64)"/><path class="cls-1" d="M670.78,132.06a3.43,3.43,0,0,0,3.68,3.74,7.23,7.23,0,0,0,3-.55l.35,1.39a8.82,8.82,0,0,1-3.6.68c-3.31,0-5.29-2.2-5.29-5.43s1.92-5.81,5.06-5.81c3.51,0,4.43,3.08,4.43,5.06a5.23,5.23,0,0,1-.06.92Zm5.73-1.41c0-1.23-.51-3.17-2.7-3.17-2,0-2.85,1.81-3,3.17Z" transform="translate(-0.67 -8.64)"/><path class="cls-1" d="M685.55,121.28h2V128h0a4,4,0,0,1,3.41-1.92c1.45,0,3.76.88,3.76,4.6v6.41h-2v-6.2c0-1.74-.66-3.2-2.49-3.2a2.85,2.85,0,0,0-2.64,2,2.65,2.65,0,0,0-.13.93v6.51h-2Z" transform="translate(-0.67 -8.64)"/><path class="cls-1" d="M703.87,137.09l-.17-1.36h-.06a4,4,0,0,1-3.3,1.6,3.07,3.07,0,0,1-3.29-3.09c0-2.6,2.32-4,6.48-4V130a2.22,2.22,0,0,0-2.46-2.48,5.24,5.24,0,0,0-2.8.8l-.44-1.3a6.8,6.8,0,0,1,3.55-.94c3.29,0,4.09,2.25,4.09,4.4v4a17,17,0,0,0,.16,2.58Zm-.31-5.5c-2.11,0-4.54.34-4.54,2.42a1.72,1.72,0,0,0,1.83,1.87,2.69,2.69,0,0,0,2.62-1.8,2,2,0,0,0,.09-.62Z" transform="translate(-0.67 -8.64)"/><path class="cls-1" d="M708.62,129.68c0-1.28,0-2.36-.09-3.36h1.72l.07,2.11h.07a3.27,3.27,0,0,1,3-2.35,2.39,2.39,0,0,1,.55,0V128a3.33,3.33,0,0,0-.67,0,2.74,2.74,0,0,0-2.62,2.5,5.34,5.34,0,0,0-.08.92v5.75h-2Z" transform="translate(-0.67 -8.64)"/><path class="cls-1" d="M725,121.28v13c0,1,0,2,.09,2.78h-1.74l-.1-1.86h-.05a3.94,3.94,0,0,1-3.65,2.1c-2.61,0-4.62-2.2-4.62-5.47,0-3.6,2.21-5.78,4.83-5.78a3.58,3.58,0,0,1,3.25,1.63h0v-6.43ZM723,130.7a3.91,3.91,0,0,0-.09-.83,2.89,2.89,0,0,0-2.83-2.26c-2,0-3.24,1.78-3.24,4.15,0,2.18,1.09,4,3.2,4a3,3,0,0,0,2.86-2.35,3.17,3.17,0,0,0,.1-.84Z" transform="translate(-0.67 -8.64)"/><path class="cls-1" d="M729,126.32l1.44,5.47c.31,1.2.59,2.32.81,3.43h0c.24-1.08.59-2.25,1-3.42l1.76-5.48h1.65l1.67,5.39c.39,1.27.71,2.41,1,3.51h.05c.19-1.09.48-2.22.83-3.5l1.54-5.4h1.93l-3.48,10.77H737.4L735.76,132a34.3,34.3,0,0,1-1-3.55h0a31.33,31.33,0,0,1-1,3.57L732,137.09h-1.79L727,126.32Z" transform="translate(-0.67 -8.64)"/><path class="cls-1" d="M750.49,137.09l-.17-1.36h-.06a4,4,0,0,1-3.29,1.6,3.07,3.07,0,0,1-3.29-3.09c0-2.6,2.31-4,6.47-4V130a2.22,2.22,0,0,0-2.45-2.48,5.31,5.31,0,0,0-2.81.8l-.44-1.3a6.8,6.8,0,0,1,3.55-.94c3.29,0,4.1,2.25,4.1,4.4v4a17,17,0,0,0,.16,2.58Zm-.3-5.5c-2.12,0-4.55.34-4.55,2.42a1.73,1.73,0,0,0,1.83,1.87,2.71,2.71,0,0,0,2.63-1.8,2.32,2.32,0,0,0,.09-.62Z" transform="translate(-0.67 -8.64)"/><path class="cls-1" d="M755.25,129.68c0-1.28,0-2.36-.09-3.36h1.72l.07,2.11H757a3.26,3.26,0,0,1,3-2.35,2.31,2.31,0,0,1,.54,0V128a3.22,3.22,0,0,0-.66,0,2.73,2.73,0,0,0-2.62,2.5,4.5,4.5,0,0,0-.08.92v5.75h-2Z" transform="translate(-0.67 -8.64)"/><path class="cls-1" d="M763.4,132.06a3.44,3.44,0,0,0,3.69,3.74,7.26,7.26,0,0,0,3-.55l.34,1.39a8.72,8.72,0,0,1-3.59.68c-3.31,0-5.3-2.2-5.3-5.43s1.92-5.81,5.07-5.81c3.51,0,4.43,3.08,4.43,5.06a4.27,4.27,0,0,1-.07.92Zm5.73-1.41c0-1.23-.5-3.17-2.7-3.17-2,0-2.85,1.81-3,3.17Z" transform="translate(-0.67 -8.64)"/><path class="cls-1" d="M777.9,135.09a5.32,5.32,0,0,0,2.59.77c1.43,0,2.09-.7,2.09-1.6s-.57-1.44-2-2c-1.94-.71-2.86-1.77-2.86-3.06,0-1.73,1.41-3.15,3.73-3.15a5.13,5.13,0,0,1,2.63.66l-.48,1.42a4.28,4.28,0,0,0-2.21-.63c-1.16,0-1.79.67-1.79,1.48s.64,1.29,2,1.83c1.85.69,2.82,1.63,2.82,3.24,0,1.91-1.48,3.24-4,3.24a6.11,6.11,0,0,1-3-.75Z" transform="translate(-0.67 -8.64)"/><path class="cls-1" d="M787.69,126.32l2.36,6.37c.25.71.51,1.55.69,2.19h0c.2-.63.43-1.46.69-2.24l2.13-6.32h2.08l-3,7.67c-1.39,3.7-2.35,5.59-3.68,6.75a5.35,5.35,0,0,1-2.41,1.26l-.48-1.63a5.26,5.26,0,0,0,1.71-1,6.19,6.19,0,0,0,1.64-2.18,1.16,1.16,0,0,0,.15-.48,1.34,1.34,0,0,0-.13-.5l-4-9.93Z" transform="translate(-0.67 -8.64)"/><path class="cls-1" d="M797.06,135.09a5.32,5.32,0,0,0,2.59.77c1.43,0,2.1-.7,2.1-1.6s-.57-1.44-2-2c-2-.71-2.87-1.77-2.87-3.06,0-1.73,1.41-3.15,3.73-3.15a5.2,5.2,0,0,1,2.64.66l-.49,1.42a4.24,4.24,0,0,0-2.21-.63c-1.16,0-1.78.67-1.78,1.48s.63,1.29,2,1.83c1.86.69,2.82,1.63,2.83,3.24,0,1.91-1.49,3.24-4,3.24a6.11,6.11,0,0,1-3-.75Z" transform="translate(-0.67 -8.64)"/><path class="cls-1" d="M808.5,123.22v3.1h2.81v1.49H808.5v5.8c0,1.34.38,2.1,1.48,2.1a4.17,4.17,0,0,0,1.13-.14l.09,1.48a5,5,0,0,1-1.75.27,2.71,2.71,0,0,1-2.11-.83,4.11,4.11,0,0,1-.76-2.81v-5.87h-1.67v-1.49h1.67v-2.59Z" transform="translate(-0.67 -8.64)"/><path class="cls-1" d="M814.48,132.06a3.44,3.44,0,0,0,3.68,3.74,7.23,7.23,0,0,0,3-.55l.35,1.39a8.78,8.78,0,0,1-3.6.68c-3.3,0-5.29-2.2-5.29-5.43s1.92-5.81,5.06-5.81c3.52,0,4.43,3.08,4.43,5.06a5.23,5.23,0,0,1-.06.92Zm5.73-1.41c0-1.23-.51-3.17-2.7-3.17-2,0-2.85,1.81-3,3.17Z" transform="translate(-0.67 -8.64)"/><path class="cls-1" d="M824.53,129.23c0-1.12,0-2-.09-2.91h1.7l.11,1.74h0a3.71,3.71,0,0,1,3.4-2,3.16,3.16,0,0,1,3,2.16h0a4.38,4.38,0,0,1,1.21-1.41,3.69,3.69,0,0,1,2.37-.75c1.44,0,3.56.92,3.56,4.67v6.34H838V131c0-2.09-.77-3.32-2.34-3.32a2.57,2.57,0,0,0-2.33,1.76,3.35,3.35,0,0,0-.16,1v6.67h-1.91v-6.46c0-1.72-.76-2.95-2.24-2.95a2.71,2.71,0,0,0-2.44,1.95,3,3,0,0,0-.15,1v6.49h-1.91Z" transform="translate(-0.67 -8.64)"/><path class="cls-1" d="M7.6,163.79l-.17-1.35H7.37a4,4,0,0,1-3.3,1.6A3.06,3.06,0,0,1,.79,161c0-2.61,2.31-4,6.46-4v-.23a2.21,2.21,0,0,0-2.45-2.48A5.24,5.24,0,0,0,2,155l-.45-1.3a6.77,6.77,0,0,1,3.56-.95c3.29,0,4.09,2.25,4.09,4.41v4a16.78,16.78,0,0,0,.16,2.57Zm-.31-5.49c-2.12-.05-4.54.33-4.54,2.41a1.72,1.72,0,0,0,1.83,1.88,2.68,2.68,0,0,0,2.62-1.8,2,2,0,0,0,.09-.62Z" transform="translate(-0.67 -8.64)"/><path class="cls-1" d="M12.36,155.94c0-1.13,0-2-.09-2.91H14l.11,1.77h.05a4,4,0,0,1,3.56-2c1.48,0,3.79.89,3.79,4.59v6.42H19.57v-6.2c0-1.74-.66-3.2-2.49-3.2a2.81,2.81,0,0,0-2.64,2,3.11,3.11,0,0,0-.14.91v6.48H12.36Z" transform="translate(-0.67 -8.64)"/><path class="cls-1" d="M34,148v13c0,1,0,2,.09,2.77H32.35l-.1-1.86h0A3.94,3.94,0,0,1,28.54,164c-2.6,0-4.62-2.21-4.62-5.47,0-3.6,2.22-5.79,4.84-5.79A3.6,3.6,0,0,1,32,154.42h0V148Zm-2,9.42a4,4,0,0,0-.08-.84,2.89,2.89,0,0,0-2.83-2.25c-2,0-3.24,1.78-3.24,4.14,0,2.19,1.08,4,3.2,4A3,3,0,0,0,32,160.12a3.23,3.23,0,0,0,.09-.84Z" transform="translate(-0.67 -8.64)"/><path class="cls-1" d="M41.7,161.8a5.32,5.32,0,0,0,2.59.77c1.43,0,2.1-.7,2.1-1.61s-.57-1.43-2-2c-2-.7-2.87-1.76-2.86-3.05,0-1.73,1.4-3.16,3.72-3.16a5.17,5.17,0,0,1,2.64.67l-.49,1.42a4.21,4.21,0,0,0-2.21-.63c-1.15,0-1.78.66-1.78,1.47s.63,1.29,2,1.84c1.86.69,2.82,1.63,2.83,3.24,0,1.9-1.49,3.24-4,3.24a6.15,6.15,0,0,1-3-.75Z" transform="translate(-0.67 -8.64)"/><path class="cls-1" d="M60.54,158.31c0,4-2.77,5.73-5.36,5.73-2.92,0-5.17-2.13-5.17-5.55,0-3.6,2.37-5.71,5.34-5.71S60.54,155,60.54,158.31Zm-8.54.12c0,2.37,1.35,4.14,3.26,4.14s3.28-1.75,3.28-4.19c0-1.83-.92-4.13-3.24-4.13S52,156.39,52,158.43Z" transform="translate(-0.67 -8.64)"/><path class="cls-1" d="M63.2,163.79v-9.28H61.7V153h1.5v-.52a5.16,5.16,0,0,1,1.25-3.77,3.75,3.75,0,0,1,2.62-1,4.18,4.18,0,0,1,1.67.32l-.26,1.5a3,3,0,0,0-1.26-.24c-1.65,0-2.08,1.46-2.08,3.13V153h2.6v1.48H65.15v9.28Z" transform="translate(-0.67 -8.64)"/><path class="cls-1" d="M72.1,149.93V153h2.82v1.48H72.1v5.8c0,1.35.39,2.1,1.48,2.1a3.93,3.93,0,0,0,1.14-.14l.09,1.49a5,5,0,0,1-1.75.27,2.77,2.77,0,0,1-2.12-.83,4.11,4.11,0,0,1-.76-2.81v-5.88H68.52V153h1.66v-2.6Z" transform="translate(-0.67 -8.64)"/><path class="cls-1" d="M78.08,153l1.45,5.46c.31,1.2.58,2.33.8,3.44h0c.24-1.09.6-2.26,1-3.42L83.11,153h1.64l1.68,5.38c.38,1.28.7,2.42.95,3.52h.05c.2-1.09.49-2.23.84-3.5l1.54-5.4h1.93l-3.48,10.76H86.48l-1.64-5.13a35,35,0,0,1-1-3.55h0a31.17,31.17,0,0,1-1,3.56l-1.73,5.12H79.34L76.09,153Z" transform="translate(-0.67 -8.64)"/><path class="cls-1" d="M99.58,163.79l-.17-1.35h-.06a4,4,0,0,1-3.3,1.6A3.07,3.07,0,0,1,92.76,161c0-2.61,2.32-4,6.47-4v-.23a2.21,2.21,0,0,0-2.45-2.48,5.24,5.24,0,0,0-2.8.8l-.45-1.3a6.77,6.77,0,0,1,3.56-.95c3.29,0,4.09,2.25,4.09,4.41v4a16.78,16.78,0,0,0,.16,2.57Zm-.31-5.49c-2.12-.05-4.54.33-4.54,2.41a1.72,1.72,0,0,0,1.83,1.88,2.69,2.69,0,0,0,2.62-1.8,2,2,0,0,0,.09-.62Z" transform="translate(-0.67 -8.64)"/><path class="cls-1" d="M104.33,156.38c0-1.27,0-2.35-.09-3.35H106l.07,2.11h.07a3.28,3.28,0,0,1,3-2.36,2.38,2.38,0,0,1,.55.06v1.84a3.26,3.26,0,0,0-.67-.06,2.73,2.73,0,0,0-2.62,2.51,5.14,5.14,0,0,0-.08.91v5.75h-2Z" transform="translate(-0.67 -8.64)"/><path class="cls-1" d="M112.49,158.77a3.43,3.43,0,0,0,3.68,3.73,7.23,7.23,0,0,0,3-.55l.35,1.39a8.62,8.62,0,0,1-3.6.69c-3.3,0-5.29-2.2-5.29-5.44s1.92-5.81,5.06-5.81c3.51,0,4.43,3.09,4.43,5.07a5.3,5.3,0,0,1-.06.92Zm5.73-1.41c0-1.24-.51-3.17-2.7-3.17-2,0-2.85,1.8-3,3.17Z" transform="translate(-0.67 -8.64)"/><path class="cls-1" d="M129.61,149.93V153h2.81v1.48h-2.81v5.8c0,1.35.38,2.1,1.48,2.1a3.8,3.8,0,0,0,1.13-.14l.09,1.49a5,5,0,0,1-1.75.27,2.74,2.74,0,0,1-2.11-.83,4.11,4.11,0,0,1-.76-2.81v-5.88H126V153h1.67v-2.6Z" transform="translate(-0.67 -8.64)"/><path class="cls-1" d="M134.62,148h1.95v6.72h.05a3.81,3.81,0,0,1,1.41-1.38,3.91,3.91,0,0,1,2-.55c1.45,0,3.75.89,3.75,4.6v6.41h-1.95V157.6c0-1.74-.65-3.2-2.48-3.2a2.86,2.86,0,0,0-2.65,1.95,2.74,2.74,0,0,0-.13.94v6.5h-1.95Z" transform="translate(-0.67 -8.64)"/><path class="cls-1" d="M153,163.79l-.18-1.35h-.06a4,4,0,0,1-3.29,1.6,3.07,3.07,0,0,1-3.29-3.09c0-2.61,2.31-4,6.47-4v-.23a2.21,2.21,0,0,0-2.45-2.48,5.24,5.24,0,0,0-2.8.8l-.45-1.3a6.74,6.74,0,0,1,3.56-.95c3.29,0,4.09,2.25,4.09,4.41v4a16.78,16.78,0,0,0,.16,2.57Zm-.31-5.49c-2.12-.05-4.54.33-4.54,2.41a1.72,1.72,0,0,0,1.82,1.88,2.7,2.7,0,0,0,2.63-1.8,2,2,0,0,0,.09-.62Z" transform="translate(-0.67 -8.64)"/><path class="cls-1" d="M160,149.93V153h2.82v1.48H160v5.8c0,1.35.39,2.1,1.49,2.1a3.9,3.9,0,0,0,1.13-.14l.09,1.49a5,5,0,0,1-1.75.27,2.73,2.73,0,0,1-2.11-.83,4.11,4.11,0,0,1-.76-2.81v-5.88h-1.67V153h1.67v-2.6Z" transform="translate(-0.67 -8.64)"/><path class="cls-1" d="M169.7,155.94c0-1.13,0-2-.09-2.91h1.7l.1,1.73h.06a3.72,3.72,0,0,1,3.4-2,3.16,3.16,0,0,1,3,2.16h0a4.34,4.34,0,0,1,1.21-1.4,3.66,3.66,0,0,1,2.37-.76c1.44,0,3.55.93,3.55,4.68v6.33h-1.91v-6.08c0-2.09-.77-3.32-2.33-3.32a2.53,2.53,0,0,0-2.33,1.76,3,3,0,0,0-.16,1v6.66h-1.91v-6.46c0-1.71-.76-2.94-2.24-2.94a2.7,2.7,0,0,0-2.44,2,3,3,0,0,0-.15,1v6.49H169.7Z" transform="translate(-0.67 -8.64)"/><path class="cls-1" d="M189.36,158.77A3.43,3.43,0,0,0,193,162.5a7.23,7.23,0,0,0,3-.55l.35,1.39a8.62,8.62,0,0,1-3.6.69c-3.31,0-5.3-2.2-5.3-5.44s1.93-5.81,5.07-5.81c3.51,0,4.43,3.09,4.43,5.07a5.3,5.3,0,0,1-.06.92Zm5.73-1.41c0-1.24-.51-3.17-2.71-3.17-2,0-2.84,1.8-3,3.17Z" transform="translate(-0.67 -8.64)"/><path class="cls-1" d="M205.38,163.79l-.17-1.35h-.06a4,4,0,0,1-3.3,1.6,3.07,3.07,0,0,1-3.29-3.09c0-2.61,2.32-4,6.48-4v-.23a2.22,2.22,0,0,0-2.46-2.48,5.24,5.24,0,0,0-2.8.8l-.45-1.3a6.77,6.77,0,0,1,3.56-.95c3.29,0,4.09,2.25,4.09,4.41v4a16.78,16.78,0,0,0,.16,2.57Zm-.31-5.49c-2.11-.05-4.54.33-4.54,2.41a1.72,1.72,0,0,0,1.83,1.88,2.69,2.69,0,0,0,2.62-1.8,2,2,0,0,0,.09-.62Z" transform="translate(-0.67 -8.64)"/><path class="cls-1" d="M209.86,161.8a5.32,5.32,0,0,0,2.59.77c1.43,0,2.1-.7,2.1-1.61s-.57-1.43-2-2c-1.94-.7-2.86-1.76-2.86-3.05,0-1.73,1.41-3.16,3.73-3.16a5.19,5.19,0,0,1,2.64.67l-.49,1.42a4.24,4.24,0,0,0-2.21-.63c-1.16,0-1.78.66-1.78,1.47s.63,1.29,2,1.84c1.86.69,2.82,1.63,2.83,3.24,0,1.9-1.49,3.24-4,3.24a6.22,6.22,0,0,1-3-.75Z" transform="translate(-0.67 -8.64)"/><path class="cls-1" d="M228,160.85c0,1.13,0,2.09.09,2.94h-1.73l-.1-1.76h-.06a4,4,0,0,1-3.56,2c-1.69,0-3.71-.94-3.71-4.72V153h2V159c0,2.05.64,3.44,2.4,3.44a2.86,2.86,0,0,0,2.6-1.79,3,3,0,0,0,.17-1V153H228Z" transform="translate(-0.67 -8.64)"/><path class="cls-1" d="M231.21,156.38c0-1.27,0-2.35-.09-3.35h1.71l.08,2.11H233a3.27,3.27,0,0,1,3-2.36,2.29,2.29,0,0,1,.54.06v1.84a3.23,3.23,0,0,0-.66-.06,2.73,2.73,0,0,0-2.62,2.51,4.34,4.34,0,0,0-.08.91v5.75h-1.95Z" transform="translate(-0.67 -8.64)"/><path class="cls-1" d="M239.36,158.77a3.44,3.44,0,0,0,3.69,3.73,7.26,7.26,0,0,0,3-.55l.34,1.39a8.53,8.53,0,0,1-3.59.69c-3.31,0-5.3-2.2-5.3-5.44s1.92-5.81,5.07-5.81c3.51,0,4.43,3.09,4.43,5.07a4.33,4.33,0,0,1-.07.92Zm5.73-1.41c0-1.24-.5-3.17-2.7-3.17-2,0-2.85,1.8-3,3.17Z" transform="translate(-0.67 -8.64)"/><path class="cls-1" d="M260.1,163.79l-.17-1.35h-.06a4,4,0,0,1-3.29,1.6,3.07,3.07,0,0,1-3.29-3.09c0-2.61,2.31-4,6.47-4v-.23a2.22,2.22,0,0,0-2.45-2.48,5.31,5.31,0,0,0-2.81.8l-.44-1.3a6.71,6.71,0,0,1,3.55-.95c3.29,0,4.1,2.25,4.1,4.41v4a16.78,16.78,0,0,0,.16,2.57Zm-.3-5.49c-2.12-.05-4.55.33-4.55,2.41a1.73,1.73,0,0,0,1.83,1.88,2.71,2.71,0,0,0,2.63-1.8,2.32,2.32,0,0,0,.09-.62Z" transform="translate(-0.67 -8.64)"/><path class="cls-1" d="M264.86,155.94c0-1.13,0-2-.09-2.91h1.73l.11,1.77h.06a4,4,0,0,1,3.55-2c1.48,0,3.8.89,3.8,4.59v6.42h-1.95v-6.2c0-1.74-.65-3.2-2.49-3.2a2.82,2.82,0,0,0-2.64,2,3.12,3.12,0,0,0-.13.91v6.48h-1.95Z" transform="translate(-0.67 -8.64)"/><path class="cls-1" d="M286.5,148v13c0,1,0,2,.09,2.77h-1.74l-.1-1.86h-.05a3.93,3.93,0,0,1-3.65,2.11c-2.61,0-4.62-2.21-4.62-5.47,0-3.6,2.21-5.79,4.84-5.79a3.58,3.58,0,0,1,3.24,1.64h.05V148Zm-1.94,9.42a4,4,0,0,0-.08-.84,2.9,2.9,0,0,0-2.84-2.25c-2,0-3.24,1.78-3.24,4.14,0,2.19,1.09,4,3.2,4a3,3,0,0,0,2.86-2.35,3.22,3.22,0,0,0,.1-.84Z" transform="translate(-0.67 -8.64)"/><path class="cls-1" d="M294.48,156.38c0-1.27,0-2.35-.09-3.35h1.72l.07,2.11h.07a3.27,3.27,0,0,1,3-2.36,2.29,2.29,0,0,1,.54.06v1.84a3.16,3.16,0,0,0-.66-.06,2.73,2.73,0,0,0-2.62,2.51,5.14,5.14,0,0,0-.08.91v5.75h-1.95Z" transform="translate(-0.67 -8.64)"/><path class="cls-1" d="M302.63,158.77a3.44,3.44,0,0,0,3.69,3.73,7.23,7.23,0,0,0,3-.55l.34,1.39a8.53,8.53,0,0,1-3.59.69c-3.31,0-5.3-2.2-5.3-5.44s1.93-5.81,5.07-5.81c3.51,0,4.43,3.09,4.43,5.07a4.33,4.33,0,0,1-.07.92Zm5.73-1.41c0-1.24-.5-3.17-2.7-3.17-2,0-2.85,1.8-3,3.17Z" transform="translate(-0.67 -8.64)"/><path class="cls-1" d="M312.68,156.54c0-1.38,0-2.5-.09-3.51h1.75l.11,1.83h.05a4.2,4.2,0,0,1,3.82-2.08c2.6,0,4.57,2.2,4.57,5.47,0,3.88-2.38,5.79-4.9,5.79a3.77,3.77,0,0,1-3.32-1.7h0v5.86h-1.95Zm1.95,2.87a4.09,4.09,0,0,0,.08.8,3,3,0,0,0,2.93,2.3c2.08,0,3.28-1.71,3.28-4.18,0-2.14-1.13-4-3.2-4a3.1,3.1,0,0,0-3,2.42,3,3,0,0,0-.13.79Z" transform="translate(-0.67 -8.64)"/><path class="cls-1" d="M335.12,158.31c0,4-2.77,5.73-5.36,5.73-2.92,0-5.17-2.13-5.17-5.55,0-3.6,2.37-5.71,5.34-5.71S335.12,155,335.12,158.31Zm-8.54.12c0,2.37,1.35,4.14,3.26,4.14s3.28-1.75,3.28-4.19c0-1.83-.91-4.13-3.24-4.13S326.58,156.39,326.58,158.43Z" transform="translate(-0.67 -8.64)"/><path class="cls-1" d="M337.59,156.38c0-1.27,0-2.35-.09-3.35h1.71l.08,2.11h.07a3.27,3.27,0,0,1,3-2.36,2.29,2.29,0,0,1,.54.06v1.84a3.26,3.26,0,0,0-.67-.06,2.74,2.74,0,0,0-2.62,2.51,5.17,5.17,0,0,0-.07.91v5.75h-2Z" transform="translate(-0.67 -8.64)"/><path class="cls-1" d="M347.75,149.93V153h2.82v1.48h-2.82v5.8c0,1.35.39,2.1,1.48,2.1a3.93,3.93,0,0,0,1.14-.14l.09,1.49a5,5,0,0,1-1.75.27,2.77,2.77,0,0,1-2.12-.83,4.11,4.11,0,0,1-.76-2.81v-5.88h-1.66V153h1.66v-2.6Z" transform="translate(-0.67 -8.64)"/><path class="cls-1" d="M367.23,158.31c0,4-2.77,5.73-5.35,5.73-2.92,0-5.18-2.13-5.18-5.55,0-3.6,2.37-5.71,5.35-5.71S367.23,155,367.23,158.31Zm-8.54.12c0,2.37,1.36,4.14,3.27,4.14s3.28-1.75,3.28-4.19c0-1.83-.92-4.13-3.25-4.13S358.69,156.39,358.69,158.43Z" transform="translate(-0.67 -8.64)"/><path class="cls-1" d="M369.7,156.38c0-1.27,0-2.35-.09-3.35h1.72l.07,2.11h.07a3.27,3.27,0,0,1,3-2.36,2.29,2.29,0,0,1,.54.06v1.84a3.16,3.16,0,0,0-.66-.06,2.73,2.73,0,0,0-2.62,2.51,5.14,5.14,0,0,0-.08.91v5.75H369.7Z" transform="translate(-0.67 -8.64)"/><path class="cls-1" d="M377.86,158.77a3.43,3.43,0,0,0,3.68,3.73,7.23,7.23,0,0,0,3-.55l.35,1.39a8.62,8.62,0,0,1-3.6.69c-3.31,0-5.3-2.2-5.3-5.44s1.93-5.81,5.07-5.81c3.51,0,4.43,3.09,4.43,5.07a5.3,5.3,0,0,1-.06.92Zm5.73-1.41c0-1.24-.51-3.17-2.71-3.17-2,0-2.84,1.8-3,3.17Z" transform="translate(-0.67 -8.64)"/><path class="cls-1" d="M401.92,153c-.06.76-.09,1.63-.09,2.95v6.25c0,2.49-.51,4-1.54,4.93a5.78,5.78,0,0,1-3.92,1.29,7,7,0,0,1-3.6-.89l.49-1.5a6.16,6.16,0,0,0,3.17.86c2,0,3.47-1,3.47-3.78v-1.2h0a3.82,3.82,0,0,1-3.43,1.82c-2.68,0-4.59-2.28-4.59-5.27,0-3.65,2.38-5.71,4.87-5.71a3.59,3.59,0,0,1,3.35,1.86h.05l.08-1.61Zm-2,4.23a3,3,0,0,0-.11-.87A2.84,2.84,0,0,0,397,154.3c-1.87,0-3.21,1.58-3.21,4.09,0,2.1,1.09,3.87,3.19,3.87a2.86,2.86,0,0,0,2.73-2,3.65,3.65,0,0,0,.15-1.05Z" transform="translate(-0.67 -8.64)"/><path class="cls-1" d="M404.93,156.38c0-1.27,0-2.35-.09-3.35h1.72l.07,2.11h.07a3.27,3.27,0,0,1,3-2.36,2.23,2.23,0,0,1,.54.06v1.84a3.16,3.16,0,0,0-.66-.06,2.73,2.73,0,0,0-2.62,2.51,5.14,5.14,0,0,0-.08.91v5.75h-1.95Z" transform="translate(-0.67 -8.64)"/><path class="cls-1" d="M418.07,163.79l-.17-1.35h-.06a4,4,0,0,1-3.3,1.6,3.06,3.06,0,0,1-3.28-3.09c0-2.61,2.31-4,6.47-4v-.23a2.22,2.22,0,0,0-2.45-2.48,5.28,5.28,0,0,0-2.81.8l-.44-1.3a6.71,6.71,0,0,1,3.55-.95c3.29,0,4.09,2.25,4.09,4.41v4a15.53,15.53,0,0,0,.17,2.57Zm-.3-5.49c-2.12-.05-4.55.33-4.55,2.41a1.73,1.73,0,0,0,1.83,1.88,2.68,2.68,0,0,0,2.62-1.8,2,2,0,0,0,.1-.62Z" transform="translate(-0.67 -8.64)"/><path class="cls-1" d="M432.12,148v13c0,1,0,2,.09,2.77h-1.74l-.1-1.86h-.05a3.94,3.94,0,0,1-3.66,2.11c-2.61,0-4.62-2.21-4.62-5.47,0-3.6,2.22-5.79,4.84-5.79a3.6,3.6,0,0,1,3.25,1.64h0V148Zm-1.95,9.42a4,4,0,0,0-.08-.84,2.89,2.89,0,0,0-2.84-2.25c-2,0-3.24,1.78-3.24,4.14,0,2.19,1.09,4,3.2,4a3,3,0,0,0,2.87-2.35,3.23,3.23,0,0,0,.09-.84Z" transform="translate(-0.67 -8.64)"/><path class="cls-1" d="M436.48,158.77a3.43,3.43,0,0,0,3.68,3.73,7.23,7.23,0,0,0,3-.55l.34,1.39a8.53,8.53,0,0,1-3.59.69c-3.31,0-5.3-2.2-5.3-5.44s1.93-5.81,5.07-5.81c3.51,0,4.43,3.09,4.43,5.07a5.3,5.3,0,0,1-.06.92Zm5.73-1.41c0-1.24-.51-3.17-2.71-3.17-2,0-2.84,1.8-3,3.17Z" transform="translate(-0.67 -8.64)"/><path class="cls-1" d="M457.22,163.79l-.18-1.35H457a4,4,0,0,1-3.3,1.6A3.07,3.07,0,0,1,450.4,161c0-2.61,2.31-4,6.47-4v-.23a2.21,2.21,0,0,0-2.45-2.48,5.24,5.24,0,0,0-2.8.8l-.45-1.3a6.74,6.74,0,0,1,3.56-.95c3.29,0,4.09,2.25,4.09,4.41v4a16.78,16.78,0,0,0,.16,2.57Zm-.31-5.49c-2.12-.05-4.54.33-4.54,2.41a1.72,1.72,0,0,0,1.83,1.88,2.69,2.69,0,0,0,2.62-1.8,2,2,0,0,0,.09-.62Z" transform="translate(-0.67 -8.64)"/><path class="cls-1" d="M462,155.94c0-1.13,0-2-.09-2.91h1.74l.1,1.77h.06a4,4,0,0,1,3.56-2c1.48,0,3.79.89,3.79,4.59v6.42h-1.95v-6.2c0-1.74-.65-3.2-2.48-3.2a2.81,2.81,0,0,0-2.64,2,3.11,3.11,0,0,0-.14.91v6.48H462Z" transform="translate(-0.67 -8.64)"/><path class="cls-1" d="M483.62,148v13c0,1,0,2,.09,2.77H482l-.1-1.86h-.06a3.92,3.92,0,0,1-3.65,2.11c-2.61,0-4.62-2.21-4.62-5.47,0-3.6,2.22-5.79,4.84-5.79a3.6,3.6,0,0,1,3.25,1.64h0V148Zm-1.95,9.42a4,4,0,0,0-.08-.84,2.89,2.89,0,0,0-2.84-2.25c-2,0-3.24,1.78-3.24,4.14,0,2.19,1.09,4,3.2,4a3,3,0,0,0,2.87-2.35,3.73,3.73,0,0,0,.09-.84Z" transform="translate(-0.67 -8.64)"/><path class="cls-1" d="M499.27,163.41a7.45,7.45,0,0,1-3.09.62,5.13,5.13,0,0,1-5.37-5.5,5.48,5.48,0,0,1,5.79-5.74,6.35,6.35,0,0,1,2.72.57l-.44,1.5a4.83,4.83,0,0,0-2.29-.51c-2.45,0-3.8,1.84-3.8,4.07a3.7,3.7,0,0,0,3.75,4,5.85,5.85,0,0,0,2.4-.51Z" transform="translate(-0.67 -8.64)"/><path class="cls-1" d="M501.57,148h1.94v6.72h.05a3.81,3.81,0,0,1,1.41-1.38,3.91,3.91,0,0,1,2-.55c1.45,0,3.75.89,3.75,4.6v6.41h-1.94V157.6c0-1.74-.66-3.2-2.49-3.2a2.85,2.85,0,0,0-2.64,1.95,2.51,2.51,0,0,0-.14.94v6.5h-1.94Z" transform="translate(-0.67 -8.64)"/><path class="cls-1" d="M519.89,163.79l-.18-1.35h-.05a4,4,0,0,1-3.3,1.6,3.07,3.07,0,0,1-3.29-3.09c0-2.61,2.31-4,6.47-4v-.23a2.21,2.21,0,0,0-2.45-2.48,5.24,5.24,0,0,0-2.8.8l-.45-1.3a6.77,6.77,0,0,1,3.56-.95c3.29,0,4.09,2.25,4.09,4.41v4a16.78,16.78,0,0,0,.16,2.57Zm-.31-5.49c-2.12-.05-4.54.33-4.54,2.41a1.72,1.72,0,0,0,1.83,1.88,2.69,2.69,0,0,0,2.62-1.8,2,2,0,0,0,.09-.62Z" transform="translate(-0.67 -8.64)"/><path class="cls-1" d="M524.64,156.38c0-1.27,0-2.35-.09-3.35h1.72l.07,2.11h.07a3.27,3.27,0,0,1,3-2.36,2.23,2.23,0,0,1,.54.06v1.84a3.16,3.16,0,0,0-.66-.06,2.73,2.73,0,0,0-2.62,2.51,5.14,5.14,0,0,0-.08.91v5.75h-2Z" transform="translate(-0.67 -8.64)"/><path class="cls-1" d="M537.78,163.79l-.17-1.35h-.06a4,4,0,0,1-3.3,1.6A3.06,3.06,0,0,1,531,161c0-2.61,2.31-4,6.47-4v-.23a2.22,2.22,0,0,0-2.45-2.48,5.28,5.28,0,0,0-2.81.8l-.44-1.3a6.71,6.71,0,0,1,3.55-.95c3.29,0,4.09,2.25,4.09,4.41v4a15.53,15.53,0,0,0,.17,2.57Zm-.3-5.49c-2.12-.05-4.55.33-4.55,2.41a1.73,1.73,0,0,0,1.83,1.88,2.68,2.68,0,0,0,2.62-1.8,2,2,0,0,0,.1-.62Z" transform="translate(-0.67 -8.64)"/><path class="cls-1" d="M550.21,163.41a7.44,7.44,0,0,1-3.08.62,5.13,5.13,0,0,1-5.38-5.5,5.49,5.49,0,0,1,5.79-5.74,6.35,6.35,0,0,1,2.72.57l-.44,1.5a4.83,4.83,0,0,0-2.29-.51,4.06,4.06,0,0,0,0,8.1,5.83,5.83,0,0,0,2.39-.51Z" transform="translate(-0.67 -8.64)"/><path class="cls-1" d="M555.15,149.93V153H558v1.48h-2.81v5.8c0,1.35.38,2.1,1.48,2.1a3.9,3.9,0,0,0,1.13-.14l.09,1.49a5,5,0,0,1-1.75.27,2.73,2.73,0,0,1-2.11-.83,4.11,4.11,0,0,1-.76-2.81v-5.88h-1.67V153h1.67v-2.6Z" transform="translate(-0.67 -8.64)"/><path class="cls-1" d="M561.13,158.77a3.43,3.43,0,0,0,3.68,3.73,7.23,7.23,0,0,0,3-.55l.34,1.39a8.53,8.53,0,0,1-3.59.69c-3.31,0-5.29-2.2-5.29-5.44s1.92-5.81,5.06-5.81c3.51,0,4.43,3.09,4.43,5.07a5.3,5.3,0,0,1-.06.92Zm5.73-1.41c0-1.24-.51-3.17-2.7-3.17-2,0-2.85,1.8-3,3.17Z" transform="translate(-0.67 -8.64)"/><path class="cls-1" d="M571.18,156.38c0-1.27,0-2.35-.09-3.35h1.71l.08,2.11H573a3.27,3.27,0,0,1,3-2.36,2.29,2.29,0,0,1,.54.06v1.84a3.26,3.26,0,0,0-.67-.06,2.74,2.74,0,0,0-2.62,2.51,5.14,5.14,0,0,0-.08.91v5.75h-1.94Z" transform="translate(-0.67 -8.64)"/><path class="cls-1" d="M580.73,150a1.21,1.21,0,1,1-2.42,0,1.21,1.21,0,1,1,2.42,0Zm-2.18,13.8V153h1.94v10.76Z" transform="translate(-0.67 -8.64)"/><path class="cls-1" d="M583.48,161.8a5.32,5.32,0,0,0,2.59.77c1.43,0,2.09-.7,2.09-1.61s-.57-1.43-2-2c-1.94-.7-2.86-1.76-2.86-3.05,0-1.73,1.41-3.16,3.73-3.16a5.13,5.13,0,0,1,2.63.67l-.48,1.42a4.28,4.28,0,0,0-2.21-.63c-1.16,0-1.79.66-1.79,1.47s.64,1.29,2.05,1.84c1.85.69,2.82,1.63,2.82,3.24,0,1.9-1.48,3.24-4,3.24a6.22,6.22,0,0,1-3-.75Z" transform="translate(-0.67 -8.64)"/><path class="cls-1" d="M594.92,149.93V153h2.81v1.48h-2.81v5.8c0,1.35.38,2.1,1.48,2.1a3.9,3.9,0,0,0,1.13-.14l.09,1.49a5,5,0,0,1-1.75.27,2.73,2.73,0,0,1-2.11-.83,4.11,4.11,0,0,1-.76-2.81v-5.88h-1.67V153H593v-2.6Z" transform="translate(-0.67 -8.64)"/><path class="cls-1" d="M602.12,150a1.22,1.22,0,1,1-1.21-1.22A1.18,1.18,0,0,1,602.12,150Zm-2.19,13.8V153h2v10.76Z" transform="translate(-0.67 -8.64)"/><path class="cls-1" d="M612.82,163.41a7.5,7.5,0,0,1-3.09.62,5.13,5.13,0,0,1-5.37-5.5,5.48,5.48,0,0,1,5.78-5.74,6.35,6.35,0,0,1,2.72.57l-.43,1.5a4.87,4.87,0,0,0-2.29-.51,3.73,3.73,0,0,0-3.8,4.07,3.69,3.69,0,0,0,3.75,4,5.89,5.89,0,0,0,2.4-.51Z" transform="translate(-0.67 -8.64)"/><path class="cls-1" d="M614.83,161.8a5.32,5.32,0,0,0,2.6.77c1.43,0,2.09-.7,2.09-1.61s-.57-1.43-2-2c-1.94-.7-2.87-1.76-2.86-3.05,0-1.73,1.41-3.16,3.72-3.16a5.17,5.17,0,0,1,2.64.67l-.49,1.42a4.2,4.2,0,0,0-2.2-.63c-1.16,0-1.79.66-1.79,1.47s.63,1.29,2.05,1.84c1.85.69,2.82,1.63,2.82,3.24,0,1.9-1.48,3.24-4,3.24a6.21,6.21,0,0,1-3-.75Z" transform="translate(-0.67 -8.64)"/><path class="cls-1" d="M630.83,150a1.22,1.22,0,1,1-1.21-1.22A1.17,1.17,0,0,1,630.83,150Zm-2.19,13.8V153h2v10.76Z" transform="translate(-0.67 -8.64)"/><path class="cls-1" d="M633.85,155.94c0-1.13,0-2-.09-2.91h1.73l.11,1.77h0a4,4,0,0,1,3.56-2c1.48,0,3.8.89,3.8,4.59v6.42h-2v-6.2c0-1.74-.66-3.2-2.49-3.2a2.82,2.82,0,0,0-2.64,2,3.12,3.12,0,0,0-.13.91v6.48h-1.95Z" transform="translate(-0.67 -8.64)"/><path class="cls-1" d="M650.92,156.38c0-1.27,0-2.35-.09-3.35h1.71l.08,2.11h.07a3.27,3.27,0,0,1,3-2.36,2.32,2.32,0,0,1,.55.06v1.84a3.26,3.26,0,0,0-.67-.06,2.74,2.74,0,0,0-2.62,2.51,5.14,5.14,0,0,0-.08.91v5.75h-1.94Z" transform="translate(-0.67 -8.64)"/><path class="cls-1" d="M659.07,158.77a3.43,3.43,0,0,0,3.68,3.73,7.28,7.28,0,0,0,3-.55l.34,1.39a8.56,8.56,0,0,1-3.59.69c-3.31,0-5.3-2.2-5.3-5.44s1.92-5.81,5.07-5.81c3.51,0,4.43,3.09,4.43,5.07a5.12,5.12,0,0,1-.07.92Zm5.73-1.41c0-1.24-.5-3.17-2.7-3.17-2,0-2.85,1.8-3,3.17Z" transform="translate(-0.67 -8.64)"/><path class="cls-1" d="M675.09,163.79l-.17-1.35h-.06a4,4,0,0,1-3.29,1.6,3.07,3.07,0,0,1-3.29-3.09c0-2.61,2.31-4,6.47-4v-.23a2.22,2.22,0,0,0-2.45-2.48,5.31,5.31,0,0,0-2.81.8l-.44-1.3a6.71,6.71,0,0,1,3.55-.95c3.29,0,4.1,2.25,4.1,4.41v4a16.78,16.78,0,0,0,.16,2.57Zm-.3-5.49c-2.12-.05-4.55.33-4.55,2.41a1.73,1.73,0,0,0,1.83,1.88,2.71,2.71,0,0,0,2.63-1.8,2.32,2.32,0,0,0,.09-.62Z" transform="translate(-0.67 -8.64)"/><path class="cls-1" d="M679.85,148h1.95v15.8h-1.95Z" transform="translate(-0.67 -8.64)"/><path class="cls-1" d="M692.17,149.93V153H695v1.48h-2.81v5.8c0,1.35.39,2.1,1.48,2.1a3.93,3.93,0,0,0,1.14-.14l.09,1.49a5,5,0,0,1-1.75.27,2.77,2.77,0,0,1-2.12-.83,4.11,4.11,0,0,1-.76-2.81v-5.88h-1.67V153h1.67v-2.6Z" transform="translate(-0.67 -8.64)"/><path class="cls-1" d="M699.38,150a1.18,1.18,0,0,1-1.25,1.21A1.16,1.16,0,0,1,697,150a1.19,1.19,0,0,1,1.22-1.22A1.17,1.17,0,0,1,699.38,150Zm-2.19,13.8V153h1.95v10.76Z" transform="translate(-0.67 -8.64)"/><path class="cls-1" d="M702.4,155.94c0-1.13,0-2-.09-2.91H704l.1,1.73h.06a3.71,3.71,0,0,1,3.39-2,3.17,3.17,0,0,1,3,2.16h0a4.36,4.36,0,0,1,1.22-1.4,3.66,3.66,0,0,1,2.37-.76c1.44,0,3.55.93,3.55,4.68v6.33h-1.91v-6.08c0-2.09-.77-3.32-2.34-3.32a2.55,2.55,0,0,0-2.33,1.76,3.3,3.3,0,0,0-.16,1v6.66h-1.91v-6.46c0-1.71-.75-2.94-2.23-2.94a2.72,2.72,0,0,0-2.45,2,3.32,3.32,0,0,0-.14,1v6.49H702.4Z" transform="translate(-0.67 -8.64)"/><path class="cls-1" d="M722.05,158.77a3.44,3.44,0,0,0,3.69,3.73,7.26,7.26,0,0,0,3-.55l.34,1.39a8.53,8.53,0,0,1-3.59.69c-3.31,0-5.3-2.2-5.3-5.44s1.92-5.81,5.07-5.81c3.51,0,4.43,3.09,4.43,5.07a5.12,5.12,0,0,1-.07.92Zm5.73-1.41c0-1.24-.5-3.17-2.7-3.17-2,0-2.85,1.8-3,3.17Z" transform="translate(-0.67 -8.64)"/><path class="cls-1" d="M731.37,162.64a1.32,1.32,0,0,1,1.33-1.41,1.41,1.41,0,1,1-1.33,1.41Z" transform="translate(-0.67 -8.64)"/></g></g></svg>