<svg xmlns="http://www.w3.org/2000/svg" viewBox="0 0 177.46 82.1"><defs><style>.cls-1{fill:#1d1d1b;}</style></defs><title>Asset 35shovel ing1</title><g id="Layer_2" data-name="Layer 2"><g id="Layer_7" data-name="Layer 7"><path class="cls-1" d="M6.18,7.4c0,3.76-1.29,5.21-2.92,5.21S.47,10.83.47,7.46s1.21-5.14,3-5.14S6.18,4.18,6.18,7.4Zm-4.51.06c0,2.08.4,4.14,1.68,4.14S5,9.41,5,7.43,4.64,3.32,3.33,3.32,1.67,5.42,1.67,7.46Z" transform="translate(-0.19 -2.17)"/><path class="cls-1" d="M11.91,10.53c0,.79,0,1.43.06,2H11l-.08-.75h0a1.9,1.9,0,0,1-1.55.87c-1.26,0-1.76-1-1.76-2.77V5.28H8.7V9.67c0,1.13.18,2,1,2a1.13,1.13,0,0,0,1-1,3.16,3.16,0,0,0,.06-.64V5.28h1.14Z" transform="translate(-0.19 -2.17)"/><path class="cls-1" d="M13.51,7.14c0-.61,0-1.33-.06-1.86h1l0,1.12h0a1.75,1.75,0,0,1,1.51-1.24h.25V6.34h-.24A1.57,1.57,0,0,0,14.7,7.84a4.28,4.28,0,0,0,0,.65v4H13.51Z" transform="translate(-0.19 -2.17)"/><path class="cls-1" d="M19.43,11.17a3.12,3.12,0,0,0,1.45.4,1.58,1.58,0,0,0,1.68-1.7,2.59,2.59,0,0,0-1.33-2.09A3.75,3.75,0,0,1,19.33,5,2.54,2.54,0,0,1,22,2.35a2.77,2.77,0,0,1,1.41.36l-.28,1a2.11,2.11,0,0,0-1.2-.35,1.4,1.4,0,0,0-1.45,1.44c0,1,.53,1.4,1.48,2.07a3.46,3.46,0,0,1,1.75,2.9,2.69,2.69,0,0,1-2.82,2.82,3.21,3.21,0,0,1-1.69-.44Z" transform="translate(-0.19 -2.17)"/><path class="cls-1" d="M25,2.17h1.15V6.05h0a1.84,1.84,0,0,1,.61-.63,1.64,1.64,0,0,1,.95-.26c.92,0,1.69.72,1.69,2.54v4.79H28.29V7.84c0-.89-.2-1.71-1-1.71-.53,0-.94.38-1.12,1.15a3,3,0,0,0,0,.54v4.67H25Z" transform="translate(-0.19 -2.17)"/><path class="cls-1" d="M35.48,8.88c0,2.79-1.3,3.73-2.4,3.73-1.3,0-2.35-1.18-2.35-3.72s1.18-3.73,2.42-3.73S35.48,6.37,35.48,8.88Zm-3.6,0c0,1.2.22,2.82,1.25,2.82S34.32,10,34.32,8.88s-.2-2.81-1.22-2.81S31.88,7.78,31.88,8.88Z" transform="translate(-0.19 -2.17)"/><path class="cls-1" d="M37.24,5.28l.91,4.05c.11.49.23,1.13.32,1.76h0c.08-.6.2-1.21.31-1.76l.88-4h1.14L39,12.49h-1L36.05,5.28Z" transform="translate(-0.19 -2.17)"/><path class="cls-1" d="M42.46,9c0,2.22.87,2.69,1.7,2.69a2.63,2.63,0,0,0,1.2-.27l.19.83a3.44,3.44,0,0,1-1.6.35c-1.73,0-2.62-1.41-2.62-3.62s1-3.8,2.43-3.8,2.07,1.55,2.07,3.18c0,.28,0,.47,0,.64Zm2.26-.84c0-1.45-.52-2.09-1.07-2.09-.76,0-1.13,1.1-1.18,2.09Z" transform="translate(-0.19 -2.17)"/><path class="cls-1" d="M47.06,2.17h1.15V12.49H47.06Z" transform="translate(-0.19 -2.17)"/><path class="cls-1" d="M49.78,11.17a3.08,3.08,0,0,0,1.44.4,1.58,1.58,0,0,0,1.68-1.7,2.56,2.56,0,0,0-1.33-2.09A3.74,3.74,0,0,1,49.68,5a2.53,2.53,0,0,1,2.66-2.64,2.8,2.8,0,0,1,1.41.36l-.28,1a2.14,2.14,0,0,0-1.2-.35,1.4,1.4,0,0,0-1.45,1.44c0,1,.52,1.4,1.48,2.07A3.45,3.45,0,0,1,54,9.76a2.68,2.68,0,0,1-2.81,2.82,3.28,3.28,0,0,1-1.7-.44Z" transform="translate(-0.19 -2.17)"/><path class="cls-1" d="M56.22,9c0,2.22.88,2.69,1.7,2.69a2.6,2.6,0,0,0,1.2-.27l.19.83a3.42,3.42,0,0,1-1.59.35c-1.73,0-2.63-1.41-2.63-3.62s1-3.8,2.44-3.8,2.06,1.55,2.06,3.18c0,.28,0,.47,0,.64Zm2.27-.84c0-1.45-.53-2.09-1.07-2.09-.76,0-1.14,1.1-1.19,2.09Z" transform="translate(-0.19 -2.17)"/><path class="cls-1" d="M60.83,7.14c0-.85,0-1.28-.06-1.86h1l.06.86h0a1.82,1.82,0,0,1,1.65-1c1,0,1.75.73,1.75,2.48v4.85H64.11V7.84c0-.86-.16-1.71-1-1.71-.48,0-.94.4-1.08,1.17A3.06,3.06,0,0,0,62,8v4.54H60.83Z" transform="translate(-0.19 -2.17)"/><path class="cls-1" d="M66.67,11.3a2.28,2.28,0,0,0,1.17.37,1,1,0,0,0,1.07-1.05c0-.54-.2-.92-.92-1.41C67,8.61,66.52,8,66.52,7.16a1.94,1.94,0,0,1,2-2,2.35,2.35,0,0,1,1.29.37l-.31.87a1.63,1.63,0,0,0-1-.33.88.88,0,0,0-.93.92c0,.48.18.76.89,1.25a2.63,2.63,0,0,1,1.5,2.2,2,2,0,0,1-2.18,2.14,2.52,2.52,0,0,1-1.43-.41Z" transform="translate(-0.19 -2.17)"/><path class="cls-1" d="M72,9c0,2.22.88,2.69,1.7,2.69a2.6,2.6,0,0,0,1.2-.27l.19.83a3.44,3.44,0,0,1-1.6.35c-1.72,0-2.62-1.41-2.62-3.62s1-3.8,2.43-3.8,2.07,1.55,2.07,3.18c0,.28,0,.47,0,.64Zm2.26-.84c0-1.45-.52-2.09-1.07-2.09-.76,0-1.13,1.1-1.18,2.09Z" transform="translate(-0.19 -2.17)"/><path class="cls-1" d="M81.44,4.72a2.52,2.52,0,1,1-2.51-2.45A2.46,2.46,0,0,1,81.44,4.72Zm-4.4,0a1.89,1.89,0,0,0,1.91,2,1.87,1.87,0,0,0,1.86-1.94,1.89,1.89,0,1,0-3.77,0ZM78.55,6H78V3.55a5.46,5.46,0,0,1,.94-.07,1.48,1.48,0,0,1,.85.18A.69.69,0,0,1,80,4.2a.63.63,0,0,1-.51.56v0a.73.73,0,0,1,.45.6,1.75,1.75,0,0,0,.18.61h-.61a2,2,0,0,1-.2-.59c0-.27-.19-.39-.51-.39h-.26Zm0-1.39h.27c.31,0,.57-.1.57-.35s-.17-.38-.53-.38a1.66,1.66,0,0,0-.31,0Z" transform="translate(-0.19 -2.17)"/><path class="cls-1" d="M85,11.3a2.28,2.28,0,0,0,1.17.37,1,1,0,0,0,1.07-1.05c0-.54-.2-.92-.92-1.41-.95-.6-1.47-1.23-1.47-2.05a1.94,1.94,0,0,1,2-2,2.35,2.35,0,0,1,1.29.37l-.31.87a1.63,1.63,0,0,0-1-.33.89.89,0,0,0-.93.92c0,.48.18.76.89,1.25a2.63,2.63,0,0,1,1.5,2.2,2,2,0,0,1-2.18,2.14,2.52,2.52,0,0,1-1.43-.41Z" transform="translate(-0.19 -2.17)"/><path class="cls-1" d="M90.11,5.28l1,4.14c.13.56.2,1,.3,1.49h0c.08-.41.2-.95.31-1.48l.85-4.15H93.7L92.52,9.91a13.19,13.19,0,0,1-1.79,4.66,3.72,3.72,0,0,1-1.3,1.1l-.43-1a3.68,3.68,0,0,0,1-.91,4.65,4.65,0,0,0,.65-1.21,1.07,1.07,0,0,0,.08-.37.82.82,0,0,0,0-.26L88.9,5.28Z" transform="translate(-0.19 -2.17)"/><path class="cls-1" d="M94.45,11.3a2.28,2.28,0,0,0,1.17.37,1,1,0,0,0,1.07-1.05c0-.54-.2-.92-.93-1.41C94.82,8.61,94.3,8,94.3,7.16a1.94,1.94,0,0,1,2-2,2.35,2.35,0,0,1,1.29.37l-.31.87a1.63,1.63,0,0,0-1-.33.89.89,0,0,0-.94.92c0,.48.19.76.9,1.25a2.63,2.63,0,0,1,1.5,2.2,2,2,0,0,1-2.18,2.14,2.52,2.52,0,0,1-1.43-.41Z" transform="translate(-0.19 -2.17)"/><path class="cls-1" d="M100.37,3.35V5.28h1.39v.87h-1.39v4.29c0,.94.34,1.19.75,1.19a2,2,0,0,0,.47-.05l0,.89a2.61,2.61,0,0,1-.85.11,1.43,1.43,0,0,1-1.13-.43,2.58,2.58,0,0,1-.43-1.81V6.15h-.88V5.28h.88V3.69Z" transform="translate(-0.19 -2.17)"/><path class="cls-1" d="M103.46,9c0,2.22.88,2.69,1.71,2.69a2.55,2.55,0,0,0,1.19-.27l.19.83a3.39,3.39,0,0,1-1.59.35c-1.73,0-2.63-1.41-2.63-3.62s1-3.8,2.44-3.8,2.06,1.55,2.06,3.18a5.74,5.74,0,0,1,0,.64Zm2.27-.84c0-1.45-.53-2.09-1.07-2.09-.76,0-1.14,1.1-1.19,2.09Z" transform="translate(-0.19 -2.17)"/><path class="cls-1" d="M108.07,7.14c0-.85,0-1.28-.06-1.86h1l.06.88h0a1.78,1.78,0,0,1,1.62-1,1.5,1.5,0,0,1,1.51,1.1h0a2.26,2.26,0,0,1,.71-.83,1.87,1.87,0,0,1,1-.27c1,0,1.73.71,1.73,2.55v4.78h-1.14V8c0-.94-.13-1.85-1-1.85-.48,0-.9.4-1.06,1.08a3.3,3.3,0,0,0-.05.65v4.64h-1.14V7.76c0-.8-.14-1.64-1-1.64-.47,0-.94.4-1.07,1.17a3.05,3.05,0,0,0-.05.62v4.58h-1.14Z" transform="translate(-0.19 -2.17)"/><path class="cls-1" d="M119.66,7.53c0-1.11,0-1.75-.06-2.25h1l.06.91h0a1.66,1.66,0,0,1,1.53-1c1.25,0,2.09,1.33,2.09,3.7,0,2.69-1.11,3.75-2.24,3.75a1.36,1.36,0,0,1-1.26-.83h0v3.58h-1.14Zm1.14,2.31a2.31,2.31,0,0,0,.06.6c.22,1,.73,1.21,1,1.21,1,0,1.26-1.31,1.26-2.76s-.36-2.75-1.27-2.75c-.53,0-1,.65-1.06,1.31a3.24,3.24,0,0,0,0,.55Z" transform="translate(-0.19 -2.17)"/><path class="cls-1" d="M125.62,7.14c0-.61-.05-1.33-.07-1.86h1l.06,1.12h0a1.73,1.73,0,0,1,1.51-1.24h.24V6.34h-.24a1.58,1.58,0,0,0-1.39,1.51,4.28,4.28,0,0,0,0,.65v4h-1.14Z" transform="translate(-0.19 -2.17)"/><path class="cls-1" d="M133.55,8.88c0,2.79-1.3,3.73-2.4,3.73-1.29,0-2.35-1.18-2.35-3.72s1.18-3.73,2.43-3.73S133.55,6.37,133.55,8.88Zm-3.59,0c0,1.2.21,2.82,1.24,2.82s1.19-1.69,1.19-2.82-.2-2.81-1.22-2.81S130,7.78,130,8.88Z" transform="translate(-0.19 -2.17)"/><path class="cls-1" d="M135.31,5.28l.91,4.05c.11.49.23,1.13.32,1.76h0c.08-.6.2-1.21.31-1.76l.88-4h1.15L137,12.49h-1l-1.89-7.21Z" transform="translate(-0.19 -2.17)"/><path class="cls-1" d="M141.16,3.41a.68.68,0,0,1-.71.74.66.66,0,0,1-.65-.74.68.68,0,1,1,1.36,0Zm-1.25,9.08V5.28h1.14v7.21Z" transform="translate(-0.19 -2.17)"/><path class="cls-1" d="M147,2.17v8.6c0,.48,0,1.3.06,1.72h-1l-.08-.9H146a1.67,1.67,0,0,1-1.51,1c-1.22,0-2.1-1.32-2.1-3.7,0-2.56,1.07-3.75,2.18-3.75a1.39,1.39,0,0,1,1.32.85h0V2.17ZM145.87,8a3.93,3.93,0,0,0,0-.48c-.07-.75-.52-1.4-1.07-1.4-1,0-1.28,1.33-1.28,2.77s.39,2.74,1.21,2.74c.36,0,.85-.19,1.11-1.23a1.73,1.73,0,0,0,.05-.48Z" transform="translate(-0.19 -2.17)"/><path class="cls-1" d="M149.42,9c0,2.22.88,2.69,1.71,2.69a2.63,2.63,0,0,0,1.2-.27l.19.83a3.47,3.47,0,0,1-1.6.35c-1.73,0-2.63-1.41-2.63-3.62s1-3.8,2.44-3.8,2.07,1.55,2.07,3.18a5.36,5.36,0,0,1,0,.64Zm2.27-.84c0-1.45-.52-2.09-1.07-2.09-.76,0-1.13,1.1-1.19,2.09Z" transform="translate(-0.19 -2.17)"/><path class="cls-1" d="M153.83,11.3a2.28,2.28,0,0,0,1.17.37,1,1,0,0,0,1.07-1.05c0-.54-.2-.92-.93-1.41-.94-.6-1.46-1.23-1.46-2.05a1.94,1.94,0,0,1,2-2,2.35,2.35,0,0,1,1.29.37l-.31.87a1.63,1.63,0,0,0-1-.33.88.88,0,0,0-.93.92c0,.48.18.76.89,1.25a2.63,2.63,0,0,1,1.5,2.2A2,2,0,0,1,155,12.58a2.52,2.52,0,0,1-1.43-.41Z" transform="translate(-0.19 -2.17)"/><path class="cls-1" d="M1.38,23.19l.92,4c.1.49.22,1.14.32,1.76h0c.07-.6.2-1.21.3-1.76l.89-4H5L3.1,30.41h-1L.19,23.19Z" transform="translate(-0.19 -2.17)"/><path class="cls-1" d="M8.71,30.41l-.08-.77h0a1.63,1.63,0,0,1-1.45.89,1.84,1.84,0,0,1-1.71-2.07c0-1.8,1.45-2.6,3.08-2.61v-.23c0-1-.25-1.65-1.16-1.65a2.13,2.13,0,0,0-1.19.38l-.25-.81a3.18,3.18,0,0,1,1.69-.47c1.45,0,2.07.94,2.07,2.57v3.13a12.24,12.24,0,0,0,.07,1.64Zm-.17-3.74c-.59,0-2,.12-2,1.68,0,.94.48,1.28.89,1.28s.93-.38,1.06-1.08a2.06,2.06,0,0,0,0-.42Z" transform="translate(-0.19 -2.17)"/><path class="cls-1" d="M11.28,20.08h1.15V30.41H11.28Z" transform="translate(-0.19 -2.17)"/><path class="cls-1" d="M18.46,28.44c0,.8,0,1.43.06,2h-1l-.08-.76h0a1.88,1.88,0,0,1-1.55.88c-1.26,0-1.75-1-1.75-2.78V23.19h1.14v4.39c0,1.13.18,2,1,2a1.12,1.12,0,0,0,1-1,3.16,3.16,0,0,0,.06-.64V23.19h1.14Z" transform="translate(-0.19 -2.17)"/><path class="cls-1" d="M22.93,30.41l-.08-.77h0a1.61,1.61,0,0,1-1.44.89,1.84,1.84,0,0,1-1.71-2.07c0-1.8,1.44-2.6,3.08-2.61v-.23c0-1-.25-1.65-1.16-1.65a2.13,2.13,0,0,0-1.19.38l-.25-.81a3.16,3.16,0,0,1,1.69-.47c1.44,0,2.06.94,2.06,2.57v3.13A12.17,12.17,0,0,0,24,30.41Zm-.17-3.74c-.59,0-2,.12-2,1.68,0,.94.47,1.28.88,1.28s.93-.38,1.07-1.08a2,2,0,0,0,0-.42Z" transform="translate(-0.19 -2.17)"/><path class="cls-1" d="M25.44,30.41c0-.42.06-1.25.06-1.73v-8.6h1.14v4h0a1.6,1.6,0,0,1,1.52-1c1.13,0,2,1.29,2,3.65,0,2.61-1.08,3.81-2.19,3.81a1.49,1.49,0,0,1-1.43-1.07H26.5l-.08.95Zm1.2-2.55a1.59,1.59,0,0,0,.05.45c.26,1.06.75,1.25,1.07,1.25.93,0,1.25-1.25,1.25-2.78s-.34-2.73-1.27-2.73c-.53,0-1,.66-1.06,1.29a2.74,2.74,0,0,0,0,.5Z" transform="translate(-0.19 -2.17)"/><path class="cls-1" d="M31.46,20.08h1.15V30.41H31.46Z" transform="translate(-0.19 -2.17)"/><path class="cls-1" d="M35.13,26.9c0,2.21.87,2.68,1.7,2.68a2.6,2.6,0,0,0,1.2-.27l.19.84a3.56,3.56,0,0,1-1.6.35C34.9,30.5,34,29.08,34,26.87s1-3.8,2.43-3.8,2.07,1.55,2.07,3.18c0,.28,0,.48,0,.65Zm2.27-.85c0-1.44-.53-2.09-1.08-2.09-.76,0-1.13,1.1-1.18,2.09Z" transform="translate(-0.19 -2.17)"/><path class="cls-1" d="M44.94,30.41l-.08-.77h0a1.63,1.63,0,0,1-1.45.89,1.84,1.84,0,0,1-1.71-2.07c0-1.8,1.45-2.6,3.08-2.61v-.23c0-1-.25-1.65-1.16-1.65a2.13,2.13,0,0,0-1.19.38l-.25-.81a3.16,3.16,0,0,1,1.69-.47c1.45,0,2.06.94,2.06,2.57v3.13A12.17,12.17,0,0,0,46,30.41Zm-.18-3.74c-.58,0-2,.12-2,1.68,0,.94.48,1.28.89,1.28s.92-.38,1.06-1.08a2,2,0,0,0,0-.42Z" transform="translate(-0.19 -2.17)"/><path class="cls-1" d="M47.51,25.05c0-.85,0-1.28-.06-1.86h1l0,.87h0a1.83,1.83,0,0,1,1.66-1c1,0,1.74.74,1.74,2.49v4.85H50.8V25.76c0-.87-.17-1.72-1-1.72-.49,0-.94.4-1.09,1.17a3.12,3.12,0,0,0-.05.65v4.55H47.51Z" transform="translate(-0.19 -2.17)"/><path class="cls-1" d="M57.91,20.08v8.6c0,.48,0,1.31.06,1.73H57l-.07-.91h-.06a1.68,1.68,0,0,1-1.51,1c-1.22,0-2.1-1.32-2.1-3.71,0-2.55,1.07-3.75,2.18-3.75a1.39,1.39,0,0,1,1.32.85h0V20.08Zm-1.14,5.85a3.7,3.7,0,0,0,0-.47c-.07-.76-.51-1.41-1.07-1.41-1,0-1.28,1.33-1.28,2.77s.39,2.74,1.21,2.74c.36,0,.85-.18,1.11-1.22a1.82,1.82,0,0,0,.05-.48Z" transform="translate(-0.19 -2.17)"/><path class="cls-1" d="M61.86,20.08H63V24h0a2.16,2.16,0,0,1,.61-.63,1.65,1.65,0,0,1,1-.26c.92,0,1.69.72,1.69,2.55v4.79H65.15V25.75c0-.89-.2-1.71-1-1.71-.53,0-.94.39-1.12,1.15a3.19,3.19,0,0,0,0,.54v4.68H61.86Z" transform="translate(-0.19 -2.17)"/><path class="cls-1" d="M69.15,21.32a.68.68,0,0,1-.71.74.66.66,0,0,1-.65-.74.68.68,0,1,1,1.36,0ZM67.9,30.41V23.19h1.15v7.22Z" transform="translate(-0.19 -2.17)"/><path class="cls-1" d="M75.07,23.19c0,.5-.06,1.14-.06,2.25v4c0,1.91-.24,2.63-.72,3.15a2.51,2.51,0,0,1-1.92.77A3.46,3.46,0,0,1,70.78,33l.27-.91a3,3,0,0,0,1.34.32c.91,0,1.48-.57,1.48-2.21v-.73h0a1.45,1.45,0,0,1-1.38.88c-1.28,0-2.12-1.44-2.12-3.56,0-2.67,1.2-3.76,2.27-3.76A1.47,1.47,0,0,1,74,24h0l.06-.81Zm-1.2,2.48a2.12,2.12,0,0,0-.06-.52c-.13-.49-.39-1.1-1-1.1-.83,0-1.28,1.12-1.28,2.72,0,1.85.58,2.68,1.27,2.68.36,0,.8-.16,1-1a2.18,2.18,0,0,0,.08-.65Z" transform="translate(-0.19 -2.17)"/><path class="cls-1" d="M76.61,20.08h1.14V24h0a2.16,2.16,0,0,1,.61-.63,1.65,1.65,0,0,1,1-.26c.91,0,1.69.72,1.69,2.55v4.79H79.89V25.75c0-.89-.2-1.71-1-1.71-.54,0-1,.39-1.12,1.15a3.19,3.19,0,0,0,0,.54v4.68H76.61Z" transform="translate(-0.19 -2.17)"/><path class="cls-1" d="M83.46,26.9c0,2.21.88,2.68,1.71,2.68a2.55,2.55,0,0,0,1.19-.27l.19.84A3.52,3.52,0,0,1,85,30.5c-1.73,0-2.63-1.42-2.63-3.63s1-3.8,2.44-3.8,2.06,1.55,2.06,3.18c0,.28,0,.48,0,.65Zm2.27-.85c0-1.44-.53-2.09-1.07-2.09-.76,0-1.14,1.1-1.19,2.09Z" transform="translate(-0.19 -2.17)"/><path class="cls-1" d="M88.06,25.05c0-.61,0-1.32-.06-1.86h1l.06,1.13h0a1.74,1.74,0,0,1,1.51-1.25h.24v1.18h-.23a1.55,1.55,0,0,0-1.39,1.5,4.23,4.23,0,0,0,0,.66v4H88.06Z" transform="translate(-0.19 -2.17)"/><path class="cls-1" d="M94.1,25.05c0-.61,0-1.32-.06-1.86h1l.06,1.13h0a1.73,1.73,0,0,1,1.51-1.25h.24v1.18h-.24a1.57,1.57,0,0,0-1.39,1.5,4.33,4.33,0,0,0,0,.66v4H94.1Z" transform="translate(-0.19 -2.17)"/><path class="cls-1" d="M98.42,26.9c0,2.21.88,2.68,1.7,2.68a2.6,2.6,0,0,0,1.2-.27l.19.84a3.55,3.55,0,0,1-1.59.35c-1.73,0-2.63-1.42-2.63-3.63s1-3.8,2.43-3.8,2.07,1.55,2.07,3.18c0,.28,0,.48,0,.65Zm2.27-.85c0-1.44-.53-2.09-1.07-2.09-.76,0-1.14,1.1-1.19,2.09Z" transform="translate(-0.19 -2.17)"/><path class="cls-1" d="M102.83,29.21a2.22,2.22,0,0,0,1.17.38,1,1,0,0,0,1.06-1.05c0-.55-.2-.93-.92-1.42-.94-.6-1.46-1.22-1.46-2.05a1.94,1.94,0,0,1,2-2,2.43,2.43,0,0,1,1.28.37l-.31.87a1.61,1.61,0,0,0-1-.33.89.89,0,0,0-.93.92c0,.49.18.76.9,1.25a2.67,2.67,0,0,1,1.49,2.2A2,2,0,0,1,104,30.5a2.5,2.5,0,0,1-1.43-.42Z" transform="translate(-0.19 -2.17)"/><path class="cls-1" d="M111.77,26.79c0,2.79-1.3,3.74-2.4,3.74-1.29,0-2.35-1.18-2.35-3.72s1.18-3.74,2.43-3.74S111.77,24.28,111.77,26.79Zm-3.59,0c0,1.2.21,2.82,1.25,2.82s1.19-1.69,1.19-2.82-.21-2.8-1.22-2.8S108.18,25.69,108.18,26.79Z" transform="translate(-0.19 -2.17)"/><path class="cls-1" d="M113.06,20.08h1.14V30.41h-1.14Z" transform="translate(-0.19 -2.17)"/><path class="cls-1" d="M120.24,28.44c0,.8,0,1.43.06,2h-1l-.07-.76h0a1.9,1.9,0,0,1-1.55.88c-1.26,0-1.76-1-1.76-2.78V23.19H117v4.39c0,1.13.19,2,1,2a1.11,1.11,0,0,0,1-1,2.58,2.58,0,0,0,.06-.64V23.19h1.15Z" transform="translate(-0.19 -2.17)"/><path class="cls-1" d="M123.26,21.27v1.92h1.38v.87h-1.38v4.29c0,.94.33,1.19.75,1.19a2.07,2.07,0,0,0,.46,0l0,.88a2.32,2.32,0,0,1-.85.12,1.46,1.46,0,0,1-1.13-.44,2.58,2.58,0,0,1-.43-1.81V24.06h-.88v-.87h.88V21.6Z" transform="translate(-0.19 -2.17)"/><path class="cls-1" d="M126.9,21.32a.68.68,0,1,1-1.36,0,.68.68,0,0,1,.68-.75A.67.67,0,0,1,126.9,21.32Zm-1.24,9.09V23.19h1.14v7.22Z" transform="translate(-0.19 -2.17)"/><path class="cls-1" d="M132.83,26.79c0,2.79-1.29,3.74-2.4,3.74-1.29,0-2.35-1.18-2.35-3.72s1.18-3.74,2.43-3.74S132.83,24.28,132.83,26.79Zm-3.59,0c0,1.2.22,2.82,1.25,2.82s1.19-1.69,1.19-2.82-.2-2.8-1.22-2.8S129.24,25.69,129.24,26.79Z" transform="translate(-0.19 -2.17)"/><path class="cls-1" d="M134.12,25.05c0-.85,0-1.28-.06-1.86h1l.06.87h0a1.81,1.81,0,0,1,1.65-1c1,0,1.75.74,1.75,2.49v4.85h-1.14V25.76c0-.87-.17-1.72-1-1.72-.48,0-.94.4-1.08,1.17a3.06,3.06,0,0,0-.06.65v4.55h-1.14Z" transform="translate(-0.19 -2.17)"/><path class="cls-1" d="M146.86,20.08v8.6c0,.48,0,1.31.06,1.73h-1l-.07-.91h-.06a1.67,1.67,0,0,1-1.51,1c-1.22,0-2.1-1.32-2.1-3.71,0-2.55,1.07-3.75,2.18-3.75a1.39,1.39,0,0,1,1.32.85h0V20.08Zm-1.14,5.85a3.7,3.7,0,0,0,0-.47c-.07-.76-.51-1.41-1.07-1.41-1,0-1.28,1.33-1.28,2.77s.39,2.74,1.22,2.74c.35,0,.84-.18,1.1-1.22a1.82,1.82,0,0,0,.05-.48Z" transform="translate(-0.19 -2.17)"/><path class="cls-1" d="M151.32,30.41l-.08-.77h0a1.62,1.62,0,0,1-1.44.89A1.84,1.84,0,0,1,148,28.46c0-1.8,1.45-2.6,3.09-2.61v-.23c0-1-.25-1.65-1.16-1.65a2.19,2.19,0,0,0-1.2.38l-.24-.81a3.13,3.13,0,0,1,1.69-.47c1.44,0,2.06.94,2.06,2.57v3.13a12.17,12.17,0,0,0,.08,1.64Zm-.17-3.74c-.59,0-2,.12-2,1.68,0,.94.47,1.28.88,1.28s.93-.38,1.07-1.08a3.07,3.07,0,0,0,0-.42Z" transform="translate(-0.19 -2.17)"/><path class="cls-1" d="M155.17,21.27v1.92h1.39v.87h-1.39v4.29c0,.94.34,1.19.75,1.19a2.11,2.11,0,0,0,.47,0l.05.88a2.32,2.32,0,0,1-.85.12,1.44,1.44,0,0,1-1.13-.44,2.58,2.58,0,0,1-.43-1.81V24.06h-.89v-.87H154V21.6Z" transform="translate(-0.19 -2.17)"/><path class="cls-1" d="M160.43,30.41l-.08-.77h0a1.63,1.63,0,0,1-1.45.89,1.84,1.84,0,0,1-1.71-2.07c0-1.8,1.45-2.6,3.08-2.61v-.23c0-1-.24-1.65-1.15-1.65a2.14,2.14,0,0,0-1.2.38l-.25-.81a3.18,3.18,0,0,1,1.69-.47c1.45,0,2.07.94,2.07,2.57v3.13a14.17,14.17,0,0,0,.07,1.64Zm-.18-3.74c-.58,0-2,.12-2,1.68,0,.94.48,1.28.89,1.28s.93-.38,1.06-1.08a2,2,0,0,0,0-.42Z" transform="translate(-0.19 -2.17)"/><path class="cls-1" d="M2.21,39.18V41.1H3.6V42H2.21v4.3c0,.94.34,1.18.75,1.18a2.11,2.11,0,0,0,.47,0l0,.89a2.61,2.61,0,0,1-.85.11A1.4,1.4,0,0,1,1.5,48a2.58,2.58,0,0,1-.43-1.81V42H.19V41.1h.88V39.52Z" transform="translate(-0.19 -2.17)"/><path class="cls-1" d="M4.61,38H5.75v3.89h0a2,2,0,0,1,.61-.64A1.72,1.72,0,0,1,7.35,41C8.27,41,9,41.71,9,43.53v4.79H7.9V43.66c0-.88-.2-1.71-1-1.71-.53,0-.94.39-1.12,1.15a3.19,3.19,0,0,0,0,.54v4.68H4.61Z" transform="translate(-0.19 -2.17)"/><path class="cls-1" d="M13.51,48.32l-.07-.76h0a1.62,1.62,0,0,1-1.44.88,1.83,1.83,0,0,1-1.71-2.06c0-1.81,1.44-2.6,3.08-2.62v-.23c0-1-.25-1.64-1.16-1.64a2.12,2.12,0,0,0-1.19.37l-.25-.8A3.15,3.15,0,0,1,12.41,41c1.44,0,2.06,1,2.06,2.57v3.14a12.11,12.11,0,0,0,.08,1.63Zm-.17-3.74c-.59,0-2,.12-2,1.69,0,.94.47,1.27.89,1.27s.92-.38,1.06-1.08a1.93,1.93,0,0,0,0-.41Z" transform="translate(-0.19 -2.17)"/><path class="cls-1" d="M16.09,43c0-.85,0-1.29-.06-1.87h1l.06.87h0a1.83,1.83,0,0,1,1.65-1c1,0,1.75.74,1.75,2.49v4.85H19.38V43.67c0-.86-.17-1.72-1-1.72-.48,0-.93.4-1.08,1.18a3,3,0,0,0-.06.64v4.55H16.09Z" transform="translate(-0.19 -2.17)"/><path class="cls-1" d="M25.89,39.18V41.1h1.38V42H25.89v4.3c0,.94.33,1.18.75,1.18a2.07,2.07,0,0,0,.46,0l0,.89a2.61,2.61,0,0,1-.85.11A1.43,1.43,0,0,1,25.17,48a2.58,2.58,0,0,1-.43-1.81V42h-.88V41.1h.88V39.52Z" transform="translate(-0.19 -2.17)"/><path class="cls-1" d="M28.29,38h1.14v3.89h0a2.2,2.2,0,0,1,.61-.64A1.73,1.73,0,0,1,31,41c.91,0,1.69.73,1.69,2.55v4.79H31.57V43.66c0-.88-.2-1.71-1-1.71-.54,0-1,.39-1.12,1.15a3.19,3.19,0,0,0-.05.54v4.68H28.29Z" transform="translate(-0.19 -2.17)"/><path class="cls-1" d="M35.14,44.81c0,2.22.88,2.68,1.71,2.68A2.55,2.55,0,0,0,38,47.22l.19.84a3.42,3.42,0,0,1-1.59.35C34.91,48.41,34,47,34,44.79S35,41,36.45,41s2.06,1.56,2.06,3.18c0,.29,0,.48,0,.65ZM37.41,44c0-1.44-.53-2.08-1.07-2.08-.76,0-1.14,1.09-1.19,2.08Z" transform="translate(-0.19 -2.17)"/><path class="cls-1" d="M42.09,43c0-.85,0-1.29-.06-1.87h1l.06.89h0a1.79,1.79,0,0,1,1.62-1,1.5,1.5,0,0,1,1.51,1.1h0a2.41,2.41,0,0,1,.71-.82A1.8,1.8,0,0,1,48,41c1,0,1.74.71,1.74,2.55v4.79H48.6V43.8c0-.94-.14-1.86-1-1.86-.48,0-.89.41-1.06,1.09a3.24,3.24,0,0,0-.05.65v4.64H45.34V43.58c0-.79-.14-1.64-1-1.64-.47,0-.93.41-1.07,1.18a3.86,3.86,0,0,0-.05.61v4.59H42.09Z" transform="translate(-0.19 -2.17)"/><path class="cls-1" d="M52.59,39.23a.67.67,0,0,1-.7.75.68.68,0,0,1-.66-.75.69.69,0,0,1,.68-.75A.67.67,0,0,1,52.59,39.23Zm-1.24,9.09V41.1h1.14v7.22Z" transform="translate(-0.19 -2.17)"/><path class="cls-1" d="M54.09,43c0-.85,0-1.29-.06-1.87h1l.05.87h0a1.84,1.84,0,0,1,1.66-1c1,0,1.75.74,1.75,2.49v4.85H57.38V43.67c0-.86-.16-1.72-1-1.72-.49,0-.94.4-1.09,1.18a3.87,3.87,0,0,0,0,.64v4.55H54.09Z" transform="translate(-0.19 -2.17)"/><path class="cls-1" d="M61,44.81c0,2.22.88,2.68,1.71,2.68a2.55,2.55,0,0,0,1.19-.27l.19.84a3.42,3.42,0,0,1-1.59.35c-1.73,0-2.63-1.42-2.63-3.62s1-3.81,2.44-3.81,2.06,1.56,2.06,3.18c0,.29,0,.48,0,.65ZM63.22,44c0-1.44-.53-2.08-1.07-2.08C61.39,41.88,61,43,61,44Z" transform="translate(-0.19 -2.17)"/><path class="cls-1" d="M67.89,43.35c0-1.11,0-1.74-.06-2.25h1l0,.92h0a1.67,1.67,0,0,1,1.53-1c1.26,0,2.09,1.33,2.09,3.71,0,2.68-1.11,3.75-2.24,3.75a1.38,1.38,0,0,1-1.26-.83h0v3.58H67.89ZM69,45.67a2.31,2.31,0,0,0,.06.6c.22,1,.74,1.21,1,1.21,1,0,1.26-1.31,1.26-2.76S71,42,70.13,42c-.52,0-1,.66-1.06,1.31a3.31,3.31,0,0,0,0,.55Z" transform="translate(-0.19 -2.17)"/><path class="cls-1" d="M73.85,43c0-.61,0-1.33-.06-1.87h1l.06,1.13h0A1.74,1.74,0,0,1,76.42,41l.24,0v1.17h-.23a1.57,1.57,0,0,0-1.4,1.5,4.5,4.5,0,0,0,0,.66v4H73.85Z" transform="translate(-0.19 -2.17)"/><path class="cls-1" d="M81.78,44.7c0,2.8-1.29,3.74-2.4,3.74-1.29,0-2.35-1.18-2.35-3.72S78.21,41,79.46,41,81.78,42.19,81.78,44.7Zm-3.59,0c0,1.19.21,2.81,1.25,2.81s1.19-1.69,1.19-2.81-.21-2.81-1.22-2.81S78.19,43.6,78.19,44.71Z" transform="translate(-0.19 -2.17)"/><path class="cls-1" d="M87.42,38v8.6c0,.49,0,1.31.06,1.73h-1l-.07-.91h-.06a1.65,1.65,0,0,1-1.51,1c-1.22,0-2.1-1.32-2.1-3.7,0-2.56,1.07-3.76,2.18-3.76a1.4,1.4,0,0,1,1.32.86h0V38Zm-1.14,5.85a3.7,3.7,0,0,0,0-.47c-.07-.75-.51-1.41-1.07-1.41-1,0-1.28,1.33-1.28,2.77s.39,2.75,1.21,2.75c.36,0,.85-.19,1.11-1.23a1.82,1.82,0,0,0,0-.48Z" transform="translate(-0.19 -2.17)"/><path class="cls-1" d="M93.35,46.35c0,.8,0,1.43.06,2h-1l-.08-.76h0a1.88,1.88,0,0,1-1.55.88c-1.26,0-1.75-1-1.75-2.78V41.1h1.14v4.4c0,1.13.18,2,1,2a1.13,1.13,0,0,0,1-1,3.16,3.16,0,0,0,.06-.64V41.1h1.14Z" transform="translate(-0.19 -2.17)"/><path class="cls-1" d="M98.49,48.14a2.5,2.5,0,0,1-1.2.27c-1.57,0-2.64-1.27-2.64-3.66,0-2.07,1-3.76,2.85-3.76a2.33,2.33,0,0,1,1,.23l-.23.94a1.76,1.76,0,0,0-.82-.2c-1.15,0-1.67,1.38-1.67,2.79,0,1.69.65,2.7,1.7,2.7a1.65,1.65,0,0,0,.83-.2Z" transform="translate(-0.19 -2.17)"/><path class="cls-1" d="M101.1,39.18V41.1h1.39V42H101.1v4.3c0,.94.34,1.18.76,1.18a2.07,2.07,0,0,0,.46,0l.05.89a2.61,2.61,0,0,1-.85.11,1.4,1.4,0,0,1-1.13-.44,2.58,2.58,0,0,1-.43-1.81V42h-.88V41.1H100V39.52Z" transform="translate(-0.19 -2.17)"/><path class="cls-1" d="M104.75,39.23A.68.68,0,0,1,104,40a.67.67,0,0,1-.65-.75.68.68,0,1,1,1.36,0Zm-1.25,9.09V41.1h1.15v7.22Z" transform="translate(-0.19 -2.17)"/><path class="cls-1" d="M110.68,44.7c0,2.8-1.3,3.74-2.4,3.74-1.29,0-2.35-1.18-2.35-3.72S107.11,41,108.36,41,110.68,42.19,110.68,44.7Zm-3.59,0c0,1.19.21,2.81,1.24,2.81s1.2-1.69,1.2-2.81-.21-2.81-1.23-2.81S107.09,43.6,107.09,44.71Z" transform="translate(-0.19 -2.17)"/><path class="cls-1" d="M112,43c0-.85,0-1.29-.06-1.87h1L113,42h0a1.83,1.83,0,0,1,1.65-1c1,0,1.75.74,1.75,2.49v4.85h-1.15V43.67c0-.86-.16-1.72-1-1.72-.48,0-.94.4-1.08,1.18a3,3,0,0,0-.06.64v4.55H112Z" transform="translate(-0.19 -2.17)"/><path class="cls-1" d="M120.29,48.32c0-.41.06-1.24.06-1.73V38h1.14v4h0A1.63,1.63,0,0,1,123,41c1.13,0,2,1.29,2,3.65,0,2.62-1.08,3.81-2.19,3.81a1.51,1.51,0,0,1-1.44-1.07h0l-.08,1Zm1.2-2.55a2,2,0,0,0,0,.45c.27,1.07.76,1.26,1.08,1.26.92,0,1.25-1.26,1.25-2.79S123.52,42,122.59,42c-.53,0-1,.67-1.07,1.29a4.19,4.19,0,0,0,0,.5Z" transform="translate(-0.19 -2.17)"/><path class="cls-1" d="M126.31,38h1.15V48.32h-1.15Z" transform="translate(-0.19 -2.17)"/><path class="cls-1" d="M133.59,44.7c0,2.8-1.29,3.74-2.4,3.74-1.29,0-2.35-1.18-2.35-3.72S130,41,131.27,41,133.59,42.19,133.59,44.7Zm-3.59,0c0,1.19.22,2.81,1.25,2.81s1.19-1.69,1.19-2.81-.2-2.81-1.22-2.81S130,43.6,130,44.71Z" transform="translate(-0.19 -2.17)"/><path class="cls-1" d="M138.4,48.14a2.46,2.46,0,0,1-1.19.27c-1.58,0-2.65-1.27-2.65-3.66,0-2.07,1.05-3.76,2.86-3.76a2.33,2.33,0,0,1,1,.23l-.23.94a1.76,1.76,0,0,0-.82-.2c-1.16,0-1.67,1.38-1.67,2.79,0,1.69.65,2.7,1.7,2.7a1.67,1.67,0,0,0,.83-.2Z" transform="translate(-0.19 -2.17)"/><path class="cls-1" d="M140.52,44.46h0c.13-.29.26-.57.39-.82l1.43-2.54h1.24l-1.91,3,2.08,4.19H142.5l-1.57-3.4-.41.67v2.73h-1.14V38h1.14Z" transform="translate(-0.19 -2.17)"/><path class="cls-1" d="M147,43c0-.85,0-1.29-.06-1.87h1L148,42h0a1.8,1.8,0,0,1,1.62-1,1.51,1.51,0,0,1,1.52,1.1h0a2.31,2.31,0,0,1,.71-.82,1.74,1.74,0,0,1,1-.28c1,0,1.74.71,1.74,2.55v4.79h-1.14V43.8c0-.94-.14-1.86-1-1.86-.48,0-.89.41-1,1.09a3.24,3.24,0,0,0-.05.65v4.64h-1.14V43.58c0-.79-.14-1.64-1-1.64-.48,0-.94.41-1.08,1.18a3.91,3.91,0,0,0,0,.61v4.59H147Z" transform="translate(-0.19 -2.17)"/><path class="cls-1" d="M160.7,44.7c0,2.8-1.29,3.74-2.4,3.74-1.29,0-2.35-1.18-2.35-3.72S157.13,41,158.38,41,160.7,42.19,160.7,44.7Zm-3.59,0c0,1.19.21,2.81,1.25,2.81s1.19-1.69,1.19-2.81-.21-2.81-1.22-2.81S157.11,43.6,157.11,44.71Z" transform="translate(-0.19 -2.17)"/><path class="cls-1" d="M166.34,38v8.6c0,.49,0,1.31.06,1.73h-1l-.07-.91h-.05a1.68,1.68,0,0,1-1.52,1c-1.22,0-2.1-1.32-2.1-3.7,0-2.56,1.07-3.76,2.18-3.76a1.4,1.4,0,0,1,1.32.86h0V38Zm-1.14,5.85a3.7,3.7,0,0,0,0-.47c-.07-.75-.51-1.41-1.07-1.41-1,0-1.28,1.33-1.28,2.77s.39,2.75,1.21,2.75c.36,0,.85-.19,1.11-1.23a1.82,1.82,0,0,0,0-.48Z" transform="translate(-0.19 -2.17)"/><path class="cls-1" d="M168.75,44.81c0,2.22.88,2.68,1.71,2.68a2.63,2.63,0,0,0,1.2-.27l.19.84a3.44,3.44,0,0,1-1.6.35c-1.73,0-2.62-1.42-2.62-3.62s1-3.81,2.43-3.81,2.07,1.56,2.07,3.18a5.43,5.43,0,0,1,0,.65ZM171,44c0-1.44-.52-2.08-1.07-2.08-.76,0-1.13,1.09-1.19,2.08Z" transform="translate(-0.19 -2.17)"/><path class="cls-1" d="M173.36,38h1.15V48.32h-1.15Z" transform="translate(-0.19 -2.17)"/><path class="cls-1" d="M175.48,50.2a21.86,21.86,0,0,0,.86-3.48l1.3-.15a18.89,18.89,0,0,1-1.37,3.53Z" transform="translate(-0.19 -2.17)"/><path class="cls-1" d="M.73,66.23c0-.41.06-1.24.06-1.72v-8.6H1.93v4H2a1.62,1.62,0,0,1,1.53-1c1.13,0,2,1.28,2,3.65,0,2.61-1.07,3.8-2.19,3.8a1.49,1.49,0,0,1-1.43-1.06H1.79l-.08.94Zm1.2-2.54a1.9,1.9,0,0,0,.05.44c.27,1.07.76,1.26,1.08,1.26.92,0,1.25-1.25,1.25-2.78S4,59.88,3,59.88c-.54,0-1,.66-1.07,1.29a3.89,3.89,0,0,0,0,.49Z" transform="translate(-0.19 -2.17)"/><path class="cls-1" d="M7.25,59l1,4.14c.13.56.2,1,.3,1.49h0c.08-.41.2-1,.31-1.48L9.7,59h1.14L9.66,63.65a13.46,13.46,0,0,1-1.79,4.66,3.55,3.55,0,0,1-1.3,1.09l-.43-1a3.68,3.68,0,0,0,1-.91,4.54,4.54,0,0,0,.65-1.22,1,1,0,0,0,.08-.36.84.84,0,0,0,0-.27L6,59Z" transform="translate(-0.19 -2.17)"/><path class="cls-1" d="M14.16,60.88c0-.85,0-1.28-.06-1.86h1l.06.88h0a1.79,1.79,0,0,1,1.62-1A1.49,1.49,0,0,1,18.33,60h0a2.24,2.24,0,0,1,.7-.83,1.87,1.87,0,0,1,1-.27c1,0,1.74.71,1.74,2.55v4.78H20.67V61.71c0-.94-.14-1.85-1-1.85-.48,0-.89.4-1.05,1.08a3.24,3.24,0,0,0-.05.65v4.64H17.42V61.5c0-.8-.14-1.64-1-1.64-.47,0-.93.4-1.07,1.17a4,4,0,0,0,0,.62v4.58H14.16Z" transform="translate(-0.19 -2.17)"/><path class="cls-1" d="M24.23,62.72c0,2.22.88,2.69,1.71,2.69a2.46,2.46,0,0,0,1.19-.28l.19.84a3.42,3.42,0,0,1-1.59.35c-1.73,0-2.63-1.41-2.63-3.62s1-3.8,2.44-3.8,2.06,1.55,2.06,3.18c0,.28,0,.47,0,.64Zm2.27-.84c0-1.45-.53-2.09-1.07-2.09-.76,0-1.14,1.1-1.19,2.09Z" transform="translate(-0.19 -2.17)"/><path class="cls-1" d="M31.69,66.23l-.07-.76h0a1.62,1.62,0,0,1-1.45.88,1.83,1.83,0,0,1-1.71-2.06c0-1.8,1.45-2.6,3.08-2.62v-.22c0-1-.25-1.65-1.16-1.65a2.12,2.12,0,0,0-1.19.37l-.25-.8a3.16,3.16,0,0,1,1.69-.47c1.45,0,2.06.94,2.06,2.57V64.6a12,12,0,0,0,.08,1.63Zm-.17-3.73c-.59,0-2,.11-2,1.68,0,.94.48,1.27.89,1.27s.92-.37,1.06-1.08a1.89,1.89,0,0,0,0-.41Z" transform="translate(-0.19 -2.17)"/><path class="cls-1" d="M34.07,65a2.28,2.28,0,0,0,1.17.37,1,1,0,0,0,1.07-1c0-.54-.2-.92-.93-1.41-.94-.61-1.46-1.23-1.46-2.05a1.94,1.94,0,0,1,2-2,2.35,2.35,0,0,1,1.29.37l-.31.86a1.63,1.63,0,0,0-1-.32.89.89,0,0,0-.94.92c0,.48.19.76.9,1.24a2.66,2.66,0,0,1,1.5,2.21,2,2,0,0,1-2.18,2.14,2.45,2.45,0,0,1-1.43-.42Z" transform="translate(-0.19 -2.17)"/><path class="cls-1" d="M42.92,64.27c0,.79,0,1.43,0,2H42l-.08-.75h0a1.89,1.89,0,0,1-1.54.87c-1.26,0-1.76-1-1.76-2.77V59H39.7v4.39c0,1.13.18,2,1,2a1.13,1.13,0,0,0,1-1,3.16,3.16,0,0,0,.06-.64V59h1.15Z" transform="translate(-0.19 -2.17)"/><path class="cls-1" d="M44.52,60.88c0-.61,0-1.33-.06-1.86h1l.06,1.12h0a1.73,1.73,0,0,1,1.51-1.24h.24v1.17h-.24a1.58,1.58,0,0,0-1.39,1.51,4.28,4.28,0,0,0,0,.65v4H44.52Z" transform="translate(-0.19 -2.17)"/><path class="cls-1" d="M49.44,57.14a.67.67,0,0,1-.7.75.68.68,0,0,1-.66-.75.69.69,0,0,1,.68-.75A.67.67,0,0,1,49.44,57.14ZM48.2,66.23V59h1.14v7.21Z" transform="translate(-0.19 -2.17)"/><path class="cls-1" d="M50.94,60.88c0-.85,0-1.28-.06-1.86h1l.06.86h0a1.81,1.81,0,0,1,1.65-1c1,0,1.75.73,1.75,2.48v4.85H54.23V61.58c0-.86-.16-1.71-1-1.71-.48,0-.94.4-1.08,1.17a3,3,0,0,0-.06.64v4.55H50.94Z" transform="translate(-0.19 -2.17)"/><path class="cls-1" d="M61.41,59c0,.49-.06,1.14-.06,2.25v4c0,1.9-.24,2.63-.72,3.15a2.5,2.5,0,0,1-1.92.77,3.46,3.46,0,0,1-1.59-.36l.27-.9a3,3,0,0,0,1.34.32c.91,0,1.48-.57,1.48-2.21v-.73h0a1.46,1.46,0,0,1-1.38.87c-1.28,0-2.12-1.43-2.12-3.56,0-2.66,1.2-3.75,2.27-3.75a1.46,1.46,0,0,1,1.35.93h0l.05-.81Zm-1.2,2.48a2.26,2.26,0,0,0-.06-.53c-.13-.49-.39-1.09-1-1.09-.83,0-1.28,1.12-1.28,2.72,0,1.84.58,2.68,1.27,2.68.36,0,.81-.16,1-1a2.21,2.21,0,0,0,.08-.66Z" transform="translate(-0.19 -2.17)"/><path class="cls-1" d="M69.71,59c0,.49-.06,1.14-.06,2.25v4c0,1.9-.24,2.63-.72,3.15a2.5,2.5,0,0,1-1.92.77,3.46,3.46,0,0,1-1.59-.36l.27-.9a3,3,0,0,0,1.34.32c.91,0,1.48-.57,1.48-2.21v-.73h0a1.46,1.46,0,0,1-1.38.87c-1.28,0-2.12-1.43-2.12-3.56,0-2.66,1.2-3.75,2.27-3.75a1.46,1.46,0,0,1,1.35.93h0l.06-.81Zm-1.2,2.48a2.26,2.26,0,0,0-.06-.53c-.13-.49-.39-1.09-1-1.09-.83,0-1.28,1.12-1.28,2.72,0,1.84.58,2.68,1.27,2.68.36,0,.81-.16,1-1a2.21,2.21,0,0,0,.08-.66Z" transform="translate(-0.19 -2.17)"/><path class="cls-1" d="M71.21,60.88c0-.61,0-1.33-.06-1.86h1l.06,1.12h0a1.73,1.73,0,0,1,1.51-1.24H74v1.17h-.24a1.58,1.58,0,0,0-1.39,1.51,4.28,4.28,0,0,0,0,.65v4H71.21Z" transform="translate(-0.19 -2.17)"/><path class="cls-1" d="M77.69,66.23l-.08-.76h0a1.62,1.62,0,0,1-1.45.88,1.83,1.83,0,0,1-1.71-2.06c0-1.8,1.45-2.6,3.08-2.62v-.22c0-1-.25-1.65-1.16-1.65a2.12,2.12,0,0,0-1.19.37l-.25-.8a3.16,3.16,0,0,1,1.69-.47c1.45,0,2.06.94,2.06,2.57V64.6a12,12,0,0,0,.08,1.63Zm-.18-3.73c-.58,0-2,.11-2,1.68,0,.94.48,1.27.89,1.27s.92-.37,1.06-1.08a1.89,1.89,0,0,0,0-.41Z" transform="translate(-0.19 -2.17)"/><path class="cls-1" d="M84.61,55.91v8.6c0,.48,0,1.3.06,1.72h-1l-.08-.9h0a1.67,1.67,0,0,1-1.51,1c-1.22,0-2.11-1.32-2.11-3.7,0-2.56,1.08-3.75,2.18-3.75a1.38,1.38,0,0,1,1.32.85h0V55.91Zm-1.14,5.85a3.93,3.93,0,0,0,0-.48c-.06-.75-.51-1.4-1.07-1.4-.95,0-1.28,1.33-1.28,2.77s.39,2.74,1.22,2.74c.35,0,.85-.19,1.11-1.23a2.27,2.27,0,0,0,0-.48Z" transform="translate(-0.19 -2.17)"/><path class="cls-1" d="M87,62.72c0,2.22.88,2.69,1.71,2.69a2.46,2.46,0,0,0,1.19-.28l.19.84a3.42,3.42,0,0,1-1.59.35c-1.73,0-2.63-1.41-2.63-3.62s1-3.8,2.43-3.8,2.07,1.55,2.07,3.18c0,.28,0,.47,0,.64Zm2.27-.84c0-1.45-.53-2.09-1.07-2.09-.76,0-1.14,1.1-1.19,2.09Z" transform="translate(-0.19 -2.17)"/><path class="cls-1" d="M93.91,66.23c0-.41.06-1.24.06-1.72v-8.6h1.14v4h0a1.59,1.59,0,0,1,1.52-1c1.13,0,2,1.28,2,3.65,0,2.61-1.08,3.8-2.19,3.8A1.49,1.49,0,0,1,95,65.29h0l-.08.94Zm1.2-2.54a1.48,1.48,0,0,0,0,.44c.26,1.07.76,1.26,1.07,1.26.93,0,1.25-1.25,1.25-2.78s-.34-2.73-1.27-2.73c-.53,0-1,.66-1.06,1.29a2.63,2.63,0,0,0,0,.49Z" transform="translate(-0.19 -2.17)"/><path class="cls-1" d="M104.27,64.27c0,.79,0,1.43.06,2h-1l-.08-.75h0a1.89,1.89,0,0,1-1.54.87c-1.26,0-1.76-1-1.76-2.77V59h1.14v4.39c0,1.13.19,2,1,2a1.13,1.13,0,0,0,1-1,3.16,3.16,0,0,0,.06-.64V59h1.15Z" transform="translate(-0.19 -2.17)"/><path class="cls-1" d="M109.4,66.05a2.47,2.47,0,0,1-1.2.27c-1.57,0-2.64-1.27-2.64-3.66,0-2.07,1-3.75,2.86-3.75a2.18,2.18,0,0,1,1,.23l-.22.93a2,2,0,0,0-.83-.2c-1.15,0-1.66,1.38-1.66,2.8,0,1.68.64,2.7,1.69,2.7a1.83,1.83,0,0,0,.84-.2Z" transform="translate(-0.19 -2.17)"/><path class="cls-1" d="M111.51,62.37h0c.14-.29.26-.56.39-.81L113.36,59h1.24l-1.9,3,2.08,4.18H113.5l-1.57-3.4-.42.67v2.73h-1.13V55.91h1.13Z" transform="translate(-0.19 -2.17)"/><path class="cls-1" d="M116.25,62.72c0,2.22.88,2.69,1.71,2.69a2.5,2.5,0,0,0,1.2-.28l.19.84a3.44,3.44,0,0,1-1.6.35c-1.73,0-2.62-1.41-2.62-3.62s1-3.8,2.43-3.8,2.07,1.55,2.07,3.18c0,.28,0,.47,0,.64Zm2.27-.84c0-1.45-.52-2.09-1.07-2.09-.76,0-1.13,1.1-1.18,2.09Z" transform="translate(-0.19 -2.17)"/><path class="cls-1" d="M122.27,57.09V59h1.39v.87h-1.39v4.29c0,.94.34,1.19.75,1.19a2,2,0,0,0,.47-.05l.05.89a2.65,2.65,0,0,1-.85.11,1.43,1.43,0,0,1-1.13-.43,2.62,2.62,0,0,1-.43-1.82V59.89h-.89V59h.89V57.43Z" transform="translate(-0.19 -2.17)"/><path class="cls-1" d="M126.94,66.23c0-.41.06-1.24.06-1.72v-8.6h1.14v4h0a1.61,1.61,0,0,1,1.53-1c1.13,0,2,1.28,2,3.65,0,2.61-1.08,3.8-2.19,3.8a1.49,1.49,0,0,1-1.43-1.06H128l-.08.94Zm1.2-2.54a1.9,1.9,0,0,0,.05.44c.27,1.07.76,1.26,1.08,1.26.92,0,1.25-1.25,1.25-2.78s-.34-2.73-1.27-2.73c-.54,0-1,.66-1.07,1.29a3.89,3.89,0,0,0,0,.49Z" transform="translate(-0.19 -2.17)"/><path class="cls-1" d="M133.46,59l1,4.14c.13.56.2,1,.3,1.49h0c.07-.41.2-1,.31-1.48l.85-4.15h1.14l-1.18,4.63a13.46,13.46,0,0,1-1.79,4.66,3.55,3.55,0,0,1-1.3,1.09l-.43-1a3.68,3.68,0,0,0,1-.91A4.54,4.54,0,0,0,134,66.3a1,1,0,0,0,.08-.36.84.84,0,0,0,0-.27L132.25,59Z" transform="translate(-0.19 -2.17)"/><path class="cls-1" d="M140.3,66.23c0-.41.06-1.24.06-1.72v-8.6h1.14v4h0a1.61,1.61,0,0,1,1.53-1c1.13,0,2,1.28,2,3.65,0,2.61-1.07,3.8-2.19,3.8a1.49,1.49,0,0,1-1.43-1.06h0l-.08.94Zm1.2-2.54a1.9,1.9,0,0,0,.05.44c.27,1.07.76,1.26,1.08,1.26.92,0,1.25-1.25,1.25-2.78s-.34-2.73-1.27-2.73c-.54,0-1,.66-1.07,1.29a3.89,3.89,0,0,0,0,.49Z" transform="translate(-0.19 -2.17)"/><path class="cls-1" d="M150.66,64.27c0,.79,0,1.43.06,2h-1l-.07-.75h0a1.9,1.9,0,0,1-1.55.87c-1.26,0-1.76-1-1.76-2.77V59h1.15v4.39c0,1.13.18,2,1,2a1.12,1.12,0,0,0,1-1,2.58,2.58,0,0,0,.06-.64V59h1.15Z" transform="translate(-0.19 -2.17)"/><path class="cls-1" d="M155.79,66.05a2.43,2.43,0,0,1-1.19.27c-1.58,0-2.65-1.27-2.65-3.66,0-2.07,1.05-3.75,2.86-3.75a2.2,2.2,0,0,1,1,.23l-.23.93a1.9,1.9,0,0,0-.82-.2c-1.16,0-1.67,1.38-1.67,2.8,0,1.68.65,2.7,1.7,2.7a1.78,1.78,0,0,0,.83-.2Z" transform="translate(-0.19 -2.17)"/><path class="cls-1" d="M157.91,62.37h0q.19-.43.39-.81L159.76,59H161l-1.91,3,2.08,4.18h-1.28l-1.57-3.4-.41.67v2.73h-1.14V55.91h1.14Z" transform="translate(-0.19 -2.17)"/><path class="cls-1" d="M162.65,62.72c0,2.22.88,2.69,1.71,2.69a2.46,2.46,0,0,0,1.19-.28l.19.84a3.42,3.42,0,0,1-1.59.35c-1.73,0-2.63-1.41-2.63-3.62s1-3.8,2.44-3.8S166,60.45,166,62.08c0,.28,0,.47,0,.64Zm2.27-.84c0-1.45-.53-2.09-1.07-2.09-.76,0-1.14,1.1-1.19,2.09Z" transform="translate(-0.19 -2.17)"/><path class="cls-1" d="M168.66,57.09V59h1.39v.87h-1.39v4.29c0,.94.34,1.19.76,1.19a2,2,0,0,0,.46-.05l.05.89a2.61,2.61,0,0,1-.85.11,1.43,1.43,0,0,1-1.13-.43,2.62,2.62,0,0,1-.43-1.82V59.89h-.88V59h.88V57.43Z" transform="translate(-0.19 -2.17)"/><path class="cls-1" d="M170.33,68.11a21.86,21.86,0,0,0,.86-3.48l1.3-.14A19,19,0,0,1,171.12,68Z" transform="translate(-0.19 -2.17)"/><path class="cls-1" d="M.79,78.79c0-.61,0-1.32-.06-1.86h1l.06,1.13h0a1.75,1.75,0,0,1,1.52-1.25h.24V78H3.37A1.56,1.56,0,0,0,2,79.49a4.33,4.33,0,0,0,0,.66v4H.79Z" transform="translate(-0.19 -2.17)"/><path class="cls-1" d="M7.27,84.15l-.07-.77h0a1.64,1.64,0,0,1-1.45.89A1.84,1.84,0,0,1,4,82.2c0-1.8,1.44-2.6,3.08-2.61v-.23c0-1-.25-1.65-1.16-1.65a2.13,2.13,0,0,0-1.19.38l-.25-.81a3.16,3.16,0,0,1,1.69-.47c1.44,0,2.06.94,2.06,2.57v3.13a12.17,12.17,0,0,0,.08,1.64ZM7.1,80.41c-.59,0-2,.12-2,1.68,0,.94.48,1.28.89,1.28s.92-.38,1.06-1.08a2,2,0,0,0,0-.42Z" transform="translate(-0.19 -2.17)"/><path class="cls-1" d="M11.12,75v1.92h1.39v.87H11.12v4.29c0,.94.34,1.19.76,1.19a2,2,0,0,0,.46,0l.05.89a2.32,2.32,0,0,1-.85.12,1.44,1.44,0,0,1-1.13-.44A2.58,2.58,0,0,1,10,82V77.8H9.1v-.87H10V75.34Z" transform="translate(-0.19 -2.17)"/><path class="cls-1" d="M13.52,73.82h1.15V77.7h0a1.93,1.93,0,0,1,.61-.63,1.64,1.64,0,0,1,1-.26c.92,0,1.69.72,1.69,2.55v4.79H16.81V79.49c0-.89-.2-1.71-1-1.71-.53,0-.94.39-1.12,1.15a3.19,3.19,0,0,0,0,.54v4.68H13.52Z" transform="translate(-0.19 -2.17)"/><path class="cls-1" d="M20.38,80.64c0,2.21.88,2.68,1.7,2.68a2.6,2.6,0,0,0,1.2-.27l.19.84a3.55,3.55,0,0,1-1.59.35c-1.73,0-2.63-1.42-2.63-3.63s1-3.8,2.43-3.8,2.07,1.55,2.07,3.18c0,.28,0,.47,0,.65Zm2.27-.85c0-1.45-.53-2.08-1.07-2.08-.76,0-1.14,1.09-1.19,2.08Z" transform="translate(-0.19 -2.17)"/><path class="cls-1" d="M25,78.79c0-.61,0-1.32-.06-1.86h1L26,78.06h0a1.73,1.73,0,0,1,1.51-1.25h.24V78h-.24a1.57,1.57,0,0,0-1.39,1.5,4.33,4.33,0,0,0,0,.66v4H25Z" transform="translate(-0.19 -2.17)"/><path class="cls-1" d="M32.44,75v1.92h1.38v.87H32.44v4.29c0,.94.34,1.19.75,1.19a2.19,2.19,0,0,0,.47,0l.05.89a2.42,2.42,0,0,1-.86.12,1.46,1.46,0,0,1-1.13-.44A2.58,2.58,0,0,1,31.29,82V77.8h-.88v-.87h.88V75.34Z" transform="translate(-0.19 -2.17)"/><path class="cls-1" d="M34.84,73.82H36V77.7h0a2.16,2.16,0,0,1,.61-.63,1.65,1.65,0,0,1,1-.26c.92,0,1.69.72,1.69,2.55v4.79H38.13V79.49c0-.89-.2-1.71-1-1.71-.53,0-.94.39-1.12,1.15a3.19,3.19,0,0,0-.05.54v4.68H34.84Z" transform="translate(-0.19 -2.17)"/><path class="cls-1" d="M43.74,84.15l-.08-.77h0a1.62,1.62,0,0,1-1.44.89,1.84,1.84,0,0,1-1.72-2.07c0-1.8,1.45-2.6,3.09-2.61v-.23c0-1-.25-1.65-1.16-1.65a2.16,2.16,0,0,0-1.2.38L41,77.28a3.12,3.12,0,0,1,1.68-.47c1.45,0,2.07.94,2.07,2.57v3.13a12.17,12.17,0,0,0,.08,1.64Zm-.17-3.74c-.59,0-2,.12-2,1.68,0,.94.48,1.28.89,1.28s.93-.38,1.06-1.08a2.06,2.06,0,0,0,0-.42Z" transform="translate(-0.19 -2.17)"/><path class="cls-1" d="M46.32,78.79c0-.85,0-1.28-.06-1.86h1l.06.87h0a1.81,1.81,0,0,1,1.65-1c1,0,1.75.74,1.75,2.48v4.86H49.6V79.49c0-.86-.16-1.71-1-1.71-.48,0-.94.4-1.08,1.17a3.06,3.06,0,0,0-.06.65v4.55H46.32Z" transform="translate(-0.19 -2.17)"/><path class="cls-1" d="M54.64,84.15c0-.42.06-1.25.06-1.73v-8.6h1.13v4h0a1.6,1.6,0,0,1,1.52-1c1.13,0,2,1.29,2,3.65,0,2.61-1.08,3.81-2.2,3.81a1.5,1.5,0,0,1-1.43-1.07h-.05l-.08,1Zm1.19-2.55a1.9,1.9,0,0,0,.05.44c.27,1.07.76,1.26,1.08,1.26.92,0,1.25-1.25,1.25-2.78s-.34-2.73-1.27-2.73c-.53,0-1,.67-1.07,1.29a4,4,0,0,0,0,.49Z" transform="translate(-0.19 -2.17)"/><path class="cls-1" d="M60.66,73.82h1.15V84.15H60.66Z" transform="translate(-0.19 -2.17)"/><path class="cls-1" d="M68,80.53c0,2.79-1.3,3.74-2.41,3.74-1.29,0-2.34-1.19-2.34-3.72s1.18-3.74,2.42-3.74S68,78,68,80.53Zm-3.6,0c0,1.2.22,2.82,1.25,2.82s1.19-1.69,1.19-2.82-.2-2.8-1.22-2.8S64.35,79.43,64.35,80.53Z" transform="translate(-0.19 -2.17)"/><path class="cls-1" d="M72.75,84a2.43,2.43,0,0,1-1.19.27c-1.58,0-2.65-1.28-2.65-3.67,0-2.07,1-3.75,2.86-3.75a2.2,2.2,0,0,1,1,.23l-.23.93a1.92,1.92,0,0,0-.82-.19c-1.16,0-1.67,1.37-1.67,2.79,0,1.69.65,2.7,1.7,2.7a1.78,1.78,0,0,0,.83-.2Z" transform="translate(-0.19 -2.17)"/><path class="cls-1" d="M74.87,80.28h0q.19-.44.39-.81l1.43-2.54H78l-1.91,3,2.08,4.19H76.85l-1.57-3.41-.41.68v2.73H73.73V73.82h1.14Z" transform="translate(-0.19 -2.17)"/><path class="cls-1" d="M81.17,83a2.22,2.22,0,0,0,1.17.38,1,1,0,0,0,1.06-1c0-.55-.2-.93-.92-1.41-.94-.61-1.46-1.24-1.46-2.06a1.94,1.94,0,0,1,2-2,2.43,2.43,0,0,1,1.28.37l-.3.87a1.66,1.66,0,0,0-1-.33.89.89,0,0,0-.93.92c0,.49.19.76.9,1.25a2.67,2.67,0,0,1,1.49,2.2,2,2,0,0,1-2.17,2.15,2.5,2.5,0,0,1-1.43-.42Z" transform="translate(-0.19 -2.17)"/><path class="cls-1" d="M89.2,84a2.46,2.46,0,0,1-1.19.27c-1.58,0-2.65-1.28-2.65-3.67,0-2.07,1-3.75,2.86-3.75a2.2,2.2,0,0,1,1,.23L89,78a1.92,1.92,0,0,0-.82-.19c-1.16,0-1.67,1.37-1.67,2.79,0,1.69.65,2.7,1.69,2.7a1.8,1.8,0,0,0,.84-.2Z" transform="translate(-0.19 -2.17)"/><path class="cls-1" d="M93.09,84.15,93,83.38h0a1.63,1.63,0,0,1-1.45.89,1.84,1.84,0,0,1-1.71-2.07c0-1.8,1.45-2.6,3.08-2.61v-.23c0-1-.24-1.65-1.15-1.65a2.14,2.14,0,0,0-1.2.38l-.24-.81A3.12,3.12,0,0,1,92,76.81c1.45,0,2.07.94,2.07,2.57v3.13a12.17,12.17,0,0,0,.08,1.64Zm-.17-3.74c-.59,0-2,.12-2,1.68,0,.94.48,1.28.89,1.28s.93-.38,1.06-1.08a2.06,2.06,0,0,0,0-.42Z" transform="translate(-0.19 -2.17)"/><path class="cls-1" d="M95.67,73.82h1.14V84.15H95.67Z" transform="translate(-0.19 -2.17)"/><path class="cls-1" d="M99.33,80.64c0,2.21.88,2.68,1.7,2.68a2.6,2.6,0,0,0,1.2-.27l.19.84a3.55,3.55,0,0,1-1.59.35c-1.73,0-2.63-1.42-2.63-3.63s1-3.8,2.43-3.8,2.07,1.55,2.07,3.18c0,.28,0,.47,0,.65Zm2.27-.85c0-1.45-.53-2.08-1.08-2.08-.75,0-1.13,1.09-1.18,2.08Z" transform="translate(-0.19 -2.17)"/><path class="cls-1" d="M103.72,83.4a.8.8,0,0,1,.76-.87.88.88,0,0,1,0,1.74A.78.78,0,0,1,103.72,83.4Z" transform="translate(-0.19 -2.17)"/></g></g></svg>