<svg xmlns="http://www.w3.org/2000/svg" viewBox="0 0 335.11 109.37"><defs><style>.cls-1{fill:#1d1d1b;}.cls-2{fill:#f29100;}</style></defs><title>Asset 18</title><g id="Layer_2" data-name="Layer 2"><g id="Layer_7" data-name="Layer 7"><path class="cls-1" d="M45.92,19.27a7,7,0,0,0,3.23.83c2,0,3.14-1.19,3.14-2.89s-1-2.63-2.73-3.81c-2.3-1.47-3.92-3.54-3.92-5.79,0-3.26,2.21-5.82,6.09-5.82a6.29,6.29,0,0,1,3.11.75l-.61,2.83a4.71,4.71,0,0,0-2.57-.71,2.53,2.53,0,0,0-2.77,2.52c0,1.62.84,2.35,3,3.72,2.64,1.71,3.69,3.73,3.69,6,0,3.72-2.68,6.1-6.4,6.1a7.94,7.94,0,0,1-3.77-.87Z"/><path class="cls-1" d="M58,1.41h3.3V9.34h.06a4.41,4.41,0,0,1,1.29-1.29,3.79,3.79,0,0,1,2-.55c2.38,0,3.7,2,3.7,5.79v9.5H65V13.4c0-1.63-.33-3.12-1.73-3.12-.87,0-1.57.58-1.9,1.86a6.38,6.38,0,0,0-.13,1.13v9.52H58Z"/><path class="cls-1" d="M81.57,15.23c0,6.07-3.12,7.8-5.41,7.8C73,23,70.8,20.37,70.8,15.3c0-5.43,2.67-7.8,5.48-7.8C79.43,7.5,81.57,10.28,81.57,15.23Zm-7.48,0c0,2.53.43,5.24,2.18,5.24s2-3,2-5.24-.38-5.2-2.08-5.2S74.09,13.07,74.09,15.25Z"/><path class="cls-1" d="M86,7.75l1.49,7.49c.22,1.19.44,2.54.64,4h.08c.17-1.4.4-2.67.61-4l1.47-7.49h3.25l-4,15h-3l-4-15Z"/><path class="cls-1" d="M97.54,16.15c0,3.36,1.59,4.28,3.35,4.28a6.84,6.84,0,0,0,2.69-.54l.47,2.38a9.59,9.59,0,0,1-3.76.7c-3.88,0-6-2.81-6-7.46,0-5,2.39-8,5.6-8s4.75,2.86,4.75,6.89a11.87,11.87,0,0,1-.09,1.76Zm4.09-2.34c0-2.42-.77-3.85-1.94-3.85-1.43,0-2.07,2.08-2.14,3.85Z"/><path class="cls-1" d="M107.08,1.41h3.3V22.79h-3.3Z"/><path class="cls-1" d="M113.39,19.27a7,7,0,0,0,3.23.83c2,0,3.14-1.19,3.14-2.89s-1-2.63-2.73-3.81c-2.3-1.47-3.92-3.54-3.92-5.79,0-3.26,2.21-5.82,6.1-5.82a6.35,6.35,0,0,1,3.11.75l-.62,2.83a4.68,4.68,0,0,0-2.57-.71,2.52,2.52,0,0,0-2.76,2.52c0,1.62.83,2.35,2.95,3.72,2.65,1.71,3.7,3.73,3.7,6,0,3.72-2.68,6.1-6.4,6.1a8,8,0,0,1-3.78-.87Z"/><path class="cls-1" d="M128.14,16.15c0,3.36,1.59,4.28,3.35,4.28a6.86,6.86,0,0,0,2.7-.54l.46,2.38a9.59,9.59,0,0,1-3.76.7c-3.88,0-6-2.81-6-7.46,0-5,2.39-8,5.6-8s4.75,2.86,4.75,6.89a14,14,0,0,1-.08,1.76Zm4.09-2.34c0-2.42-.77-3.85-1.94-3.85-1.43,0-2.07,2.08-2.14,3.85Z"/><path class="cls-1" d="M137.68,12c0-1.7-.07-2.91-.12-4.24h2.86l.16,1.77h.07a4.06,4.06,0,0,1,3.55-2c2.51,0,3.84,1.95,3.84,5.44v9.85h-3.3V13.25c0-1.5-.31-3-1.75-3-.82,0-1.55.63-1.84,1.84a5,5,0,0,0-.17,1.37v9.3h-3.3Z"/><path class="cls-1" d="M150.83,19.67a5.29,5.29,0,0,0,2.6.79,1.66,1.66,0,0,0,1.89-1.72c0-.94-.44-1.56-1.83-2.44-2.24-1.33-3.05-2.77-3.05-4.3A4.39,4.39,0,0,1,155,7.5a5.91,5.91,0,0,1,2.88.74l-.67,2.43a3.84,3.84,0,0,0-2.06-.64,1.55,1.55,0,0,0-1.7,1.57c0,.81.37,1.28,1.81,2.2,2,1.2,3.07,2.68,3.07,4.55,0,3.06-2.14,4.62-5,4.62a5.92,5.92,0,0,1-3.22-.86Z"/><path class="cls-1" d="M163.22,16.15c0,3.36,1.59,4.28,3.35,4.28a6.86,6.86,0,0,0,2.7-.54l.46,2.38A9.59,9.59,0,0,1,166,23c-3.88,0-6-2.81-6-7.46,0-5,2.39-8,5.6-8s4.75,2.86,4.75,6.89a14,14,0,0,1-.08,1.76Zm4.09-2.34c0-2.42-.77-3.85-1.94-3.85-1.43,0-2.07,2.08-2.14,3.85Z"/><path class="cls-1" d="M182.91,6.7a5.2,5.2,0,1,1-5.18-5.07A5.08,5.08,0,0,1,182.91,6.7Zm-9.11,0a3.92,3.92,0,0,0,4,4,3.88,3.88,0,0,0,3.86-4,3.91,3.91,0,1,0-7.82,0Zm3.12,2.65h-1.17V4.29a9.59,9.59,0,0,1,1.95-.16,3.23,3.23,0,0,1,1.76.37A1.44,1.44,0,0,1,180,5.62a1.3,1.3,0,0,1-1,1.17v.06a1.53,1.53,0,0,1,.93,1.24,3.53,3.53,0,0,0,.37,1.26h-1.27a4.31,4.31,0,0,1-.4-1.23c-.09-.56-.4-.81-1.05-.81h-.56Zm0-2.87h.56c.65,0,1.17-.22,1.17-.74S178.34,5,177.6,5A2.94,2.94,0,0,0,177,5Z"/><path class="cls-1" d="M47,44.77V33.31h1.23l2.1,5.37c.48,1.23,1.07,2.75,1.47,4h0c-.1-1.8-.16-3.28-.16-5.26v-4.1h1.18V44.77H51.64l-2.18-5.51a38.8,38.8,0,0,1-1.36-3.89h0c.1,1.53.13,3,.13,5.43v4Z"/><path class="cls-1" d="M59.71,42.53c0,.9,0,1.62.06,2.24H58.63l-.09-.86h0a2.16,2.16,0,0,1-1.77,1c-1.43,0-2-1.12-2-3.16V36.55h1.31v5c0,1.29.2,2.25,1.1,2.25a1.27,1.27,0,0,0,1.18-1.1A3.29,3.29,0,0,0,58.4,42V36.55h1.31Z"/><path class="cls-1" d="M62.46,40.77c0,2.52,1,3,1.95,3a3,3,0,0,0,1.36-.3l.22.95a3.94,3.94,0,0,1-1.82.4c-2,0-3-1.61-3-4.13s1.13-4.33,2.77-4.33,2.36,1.77,2.36,3.62c0,.32,0,.54,0,.74Zm2.59-1c0-1.65-.6-2.38-1.22-2.38-.87,0-1.3,1.25-1.36,2.38Z"/><path class="cls-1" d="M67.49,43.4a2.5,2.5,0,0,0,1.33.43A1.11,1.11,0,0,0,70,42.64c0-.62-.23-1.06-1-1.61-1.08-.69-1.66-1.4-1.66-2.34a2.21,2.21,0,0,1,2.27-2.28,2.69,2.69,0,0,1,1.46.42l-.34,1a1.86,1.86,0,0,0-1.1-.37,1,1,0,0,0-1.06,1c0,.55.21.86,1,1.42a3,3,0,0,1,1.7,2.51,2.3,2.3,0,0,1-2.48,2.44,2.78,2.78,0,0,1-1.62-.48Z"/><path class="cls-1" d="M74.23,34.36v2.19H75.8v1H74.23v4.89c0,1.07.38,1.35.85,1.35a2.65,2.65,0,0,0,.53-.05l.06,1a3,3,0,0,1-1,.13,1.63,1.63,0,0,1-1.29-.5,2.93,2.93,0,0,1-.49-2.06V37.54h-1v-1h1V34.74Z"/><path class="cls-1" d="M77,38.67c0-.7,0-1.51-.07-2.12h1.17l.06,1.28h0a2,2,0,0,1,1.72-1.42h.27v1.34h-.27a1.79,1.79,0,0,0-1.58,1.71,5.54,5.54,0,0,0,0,.75v4.56H77Z"/><path class="cls-1" d="M84.33,44.77l-.09-.87h0a1.84,1.84,0,0,1-1.64,1,2.08,2.08,0,0,1-2-2.35c0-2,1.64-3,3.51-3v-.26c0-1.11-.29-1.87-1.32-1.87a2.36,2.36,0,0,0-1.36.43L81.15,37a3.57,3.57,0,0,1,1.92-.54c1.65,0,2.35,1.08,2.35,2.93v3.57a13.72,13.72,0,0,0,.09,1.86Zm-.2-4.26c-.67,0-2.26.13-2.26,1.92,0,1.07.55,1.45,1,1.45s1.06-.43,1.21-1.23a1.91,1.91,0,0,0,0-.47Z"/><path class="cls-1" d="M89.7,43.4a2.56,2.56,0,0,0,1.34.43,1.11,1.11,0,0,0,1.21-1.19c0-.62-.23-1.06-1-1.61-1.08-.69-1.67-1.4-1.67-2.34a2.22,2.22,0,0,1,2.28-2.28,2.72,2.72,0,0,1,1.46.42l-.35,1a1.81,1.81,0,0,0-1.09-.37,1,1,0,0,0-1.06,1c0,.55.21.86,1,1.42a3,3,0,0,1,1.7,2.51A2.3,2.3,0,0,1,91,44.87a2.78,2.78,0,0,1-1.62-.48Z"/><path class="cls-1" d="M99.89,40.65c0,3.18-1.48,4.25-2.73,4.25-1.48,0-2.68-1.34-2.68-4.23s1.35-4.26,2.76-4.26S99.89,37.79,99.89,40.65Zm-4.09,0c0,1.36.24,3.21,1.42,3.21s1.35-1.92,1.35-3.21-.23-3.2-1.39-3.2S95.8,39.39,95.8,40.65Z"/><path class="cls-1" d="M101.35,33h1.31V44.77h-1.31Z"/><path class="cls-1" d="M109.53,42.53c0,.9,0,1.62.07,2.24h-1.14l-.09-.86h0a2.14,2.14,0,0,1-1.76,1c-1.43,0-2-1.12-2-3.16V36.55h1.3v5c0,1.29.21,2.25,1.11,2.25a1.28,1.28,0,0,0,1.18-1.1,3.29,3.29,0,0,0,.07-.73V36.55h1.3Z"/><path class="cls-1" d="M115.38,44.56a2.81,2.81,0,0,1-1.36.31c-1.8,0-3-1.45-3-4.17,0-2.36,1.2-4.28,3.26-4.28a2.62,2.62,0,0,1,1.16.26l-.26,1.07a2.05,2.05,0,0,0-.94-.23c-1.31,0-1.9,1.57-1.9,3.18,0,1.92.74,3.08,1.93,3.08a2,2,0,0,0,1-.23Z"/><path class="cls-1" d="M117.92,34.41a.77.77,0,0,1-.8.85.76.76,0,0,1-.75-.85.78.78,0,1,1,1.55,0ZM116.5,44.77V36.55h1.3v8.22Z"/><path class="cls-1" d="M124.68,40.65c0,3.18-1.48,4.25-2.74,4.25-1.47,0-2.67-1.34-2.67-4.23s1.34-4.26,2.76-4.26S124.68,37.79,124.68,40.65Zm-4.1,0c0,1.36.25,3.21,1.42,3.21s1.36-1.92,1.36-3.21-.23-3.2-1.39-3.2S120.58,39.39,120.58,40.65Zm3.4-7.47-1.78,2.3h-.87l1.31-2.3Z"/><path class="cls-1" d="M126.14,38.67c0-1,0-1.47-.07-2.12h1.14l.07,1h0a2.1,2.1,0,0,1,1.89-1.12c1.13,0,2,.84,2,2.83v5.53h-1.31v-5.3c0-1-.18-2-1.14-2-.55,0-1.07.46-1.23,1.34a3.15,3.15,0,0,0-.07.74v5.18h-1.3Z"/><path class="cls-1" d="M140.65,33v9.8c0,.55,0,1.49.06,2h-1.12l-.08-1h-.06a1.91,1.91,0,0,1-1.72,1.17c-1.4,0-2.4-1.5-2.4-4.22,0-2.91,1.22-4.27,2.48-4.27a1.58,1.58,0,0,1,1.5,1h0V33Zm-1.3,6.67a4.87,4.87,0,0,0,0-.54c-.08-.86-.59-1.6-1.22-1.6-1.09,0-1.46,1.51-1.46,3.15s.45,3.13,1.39,3.13c.4,0,1-.22,1.26-1.4a2.34,2.34,0,0,0,0-.55Z"/><path class="cls-1" d="M143.89,34.41a.76.76,0,0,1-.8.85.77.77,0,0,1-.75-.85.79.79,0,0,1,.77-.85A.77.77,0,0,1,143.89,34.41Zm-1.41,10.36V36.55h1.3v8.22Z"/><path class="cls-1" d="M145.38,43.4a2.5,2.5,0,0,0,1.33.43,1.12,1.12,0,0,0,1.22-1.19c0-.62-.24-1.06-1.06-1.61-1.07-.69-1.66-1.4-1.66-2.34a2.22,2.22,0,0,1,2.27-2.28,2.73,2.73,0,0,1,1.47.42l-.35,1a1.84,1.84,0,0,0-1.1-.37,1,1,0,0,0-1.06,1c0,.55.21.86,1,1.42a3,3,0,0,1,1.7,2.51,2.29,2.29,0,0,1-2.48,2.44,2.78,2.78,0,0,1-1.62-.48Z"/><path class="cls-1" d="M152.12,34.36v2.19h1.58v1h-1.58v4.89c0,1.07.38,1.35.86,1.35a2.62,2.62,0,0,0,.52-.05l.06,1a3,3,0,0,1-1,.13,1.6,1.6,0,0,1-1.28-.5,2.88,2.88,0,0,1-.49-2.06V37.54h-1v-1h1V34.74Z"/><path class="cls-1" d="M156.27,34.41a.78.78,0,1,1-1.55,0,.78.78,0,0,1,.77-.85A.77.77,0,0,1,156.27,34.41Zm-1.42,10.36V36.55h1.3v8.22Z"/><path class="cls-1" d="M158,38.67c0-1,0-1.47-.07-2.12h1.14l.07,1h0A2.1,2.1,0,0,1,161,36.41c1.13,0,2,.84,2,2.83v5.53h-1.31v-5.3c0-1-.18-2-1.14-2-.55,0-1.07.46-1.23,1.34a3.15,3.15,0,0,0-.07.74v5.18H158Z"/><path class="cls-1" d="M166.36,34.36v2.19h1.58v1h-1.58v4.89c0,1.07.39,1.35.86,1.35a2.65,2.65,0,0,0,.53-.05l.06,1a3,3,0,0,1-1,.13,1.63,1.63,0,0,1-1.29-.5,2.93,2.93,0,0,1-.49-2.06V37.54h-1v-1h1V34.74Z"/><path class="cls-1" d="M170.52,34.41a.77.77,0,0,1-.81.85.76.76,0,0,1-.74-.85.78.78,0,1,1,1.55,0ZM169.1,44.77V36.55h1.3v8.22Z"/><path class="cls-1" d="M172.88,36.55l1,4.61c.12.56.26,1.29.37,2h0c.09-.68.23-1.37.35-2l1-4.61H177l-2.15,8.22h-1.16l-2.15-8.22Z"/><path class="cls-1" d="M181.22,44.77l-.08-.87h0a1.85,1.85,0,0,1-1.65,1,2.08,2.08,0,0,1-1.95-2.35c0-2,1.65-3,3.51-3v-.26c0-1.11-.28-1.87-1.32-1.87a2.39,2.39,0,0,0-1.36.43L178,37a3.61,3.61,0,0,1,1.93-.54c1.64,0,2.35,1.08,2.35,2.93v3.57a13.72,13.72,0,0,0,.09,1.86ZM181,40.51c-.67,0-2.26.13-2.26,1.92,0,1.07.54,1.45,1,1.45s1.06-.43,1.21-1.23a2.56,2.56,0,0,0,0-.47Z"/><path class="cls-1" d="M187.75,40.77c0,2.52,1,3,1.94,3a3,3,0,0,0,1.37-.3l.21.95a3.9,3.9,0,0,1-1.81.4c-2,0-3-1.61-3-4.13s1.13-4.33,2.77-4.33,2.35,1.77,2.35,3.62c0,.32,0,.54,0,.74Zm2.58-1c0-1.65-.59-2.38-1.22-2.38-.86,0-1.29,1.25-1.35,2.38Z"/><path class="cls-1" d="M192.77,43.4a2.5,2.5,0,0,0,1.33.43,1.12,1.12,0,0,0,1.22-1.19c0-.62-.23-1.06-1-1.61-1.08-.69-1.67-1.4-1.67-2.34a2.22,2.22,0,0,1,2.28-2.28,2.72,2.72,0,0,1,1.46.42l-.35,1a1.83,1.83,0,0,0-1.09-.37,1,1,0,0,0-1.07,1c0,.55.22.86,1,1.42a3,3,0,0,1,1.7,2.51,2.3,2.3,0,0,1-2.48,2.44,2.84,2.84,0,0,1-1.63-.48Z"/><path class="cls-1" d="M200.43,43.25a3.36,3.36,0,0,0,1.64.47A1.8,1.8,0,0,0,204,41.77a2.92,2.92,0,0,0-1.51-2.38c-.9-.63-2.16-1.69-2.16-3.18a2.88,2.88,0,0,1,3-3,3.06,3.06,0,0,1,1.6.42l-.31,1.12a2.36,2.36,0,0,0-1.36-.39A1.59,1.59,0,0,0,201.61,36c0,1.13.6,1.58,1.69,2.35a4,4,0,0,1,2,3.3,3.07,3.07,0,0,1-3.21,3.22,3.84,3.84,0,0,1-1.94-.5Z"/><path class="cls-1" d="M206.77,33h1.3v4.42h0a2.83,2.83,0,0,1,.7-.72,2,2,0,0,1,1.09-.29c1.05,0,1.93.82,1.93,2.9v5.46h-1.31V39.46c0-1-.22-2-1.11-2-.61,0-1.07.44-1.27,1.31a3.11,3.11,0,0,0-.06.62v5.33h-1.3Z"/><path class="cls-1" d="M218.7,40.65c0,3.18-1.48,4.25-2.74,4.25-1.47,0-2.67-1.34-2.67-4.23s1.35-4.26,2.76-4.26S218.7,37.79,218.7,40.65Zm-4.09,0c0,1.36.24,3.21,1.42,3.21s1.35-1.92,1.35-3.21-.23-3.2-1.39-3.2S214.61,39.39,214.61,40.65Z"/><path class="cls-1" d="M220.7,36.55l1,4.61c.12.56.26,1.29.37,2h0c.09-.68.23-1.37.35-2l1-4.61h1.3l-2.15,8.22H221.5l-2.15-8.22Z"/><path class="cls-1" d="M226.65,40.77c0,2.52,1,3,1.94,3a3,3,0,0,0,1.36-.3l.22.95a3.94,3.94,0,0,1-1.82.4c-2,0-3-1.61-3-4.13s1.13-4.33,2.77-4.33,2.36,1.77,2.36,3.62a7.26,7.26,0,0,1,0,.74Zm2.58-1c0-1.65-.6-2.38-1.22-2.38-.87,0-1.29,1.25-1.35,2.38Z"/><path class="cls-1" d="M231.89,33h1.31V44.77h-1.31Z"/><path class="cls-1" d="M235,43.25a3.36,3.36,0,0,0,1.64.47,1.81,1.81,0,0,0,1.92-1.95A2.94,2.94,0,0,0,237,39.39c-.9-.63-2.16-1.69-2.16-3.18a2.88,2.88,0,0,1,3-3,3.13,3.13,0,0,1,1.61.42l-.32,1.12a2.36,2.36,0,0,0-1.36-.39A1.59,1.59,0,0,0,236.17,36c0,1.13.6,1.58,1.69,2.35a3.94,3.94,0,0,1,2,3.3,3.07,3.07,0,0,1-3.21,3.22,3.77,3.77,0,0,1-1.93-.5Z"/><path class="cls-1" d="M242.32,40.77c0,2.52,1,3,1.94,3a3,3,0,0,0,1.36-.3l.22.95a3.94,3.94,0,0,1-1.82.4c-2,0-3-1.61-3-4.13s1.14-4.33,2.78-4.33,2.35,1.77,2.35,3.62c0,.32,0,.54,0,.74Zm2.58-1c0-1.65-.6-2.38-1.22-2.38-.86,0-1.29,1.25-1.35,2.38Z"/><path class="cls-1" d="M247.57,38.67c0-1,0-1.47-.07-2.12h1.14l.07,1h0a2.08,2.08,0,0,1,1.88-1.12c1.14,0,2,.84,2,2.83v5.53h-1.31v-5.3c0-1-.19-2-1.14-2-.55,0-1.07.46-1.24,1.34a3.88,3.88,0,0,0-.06.74v5.18h-1.3Z"/><path class="cls-1" d="M254.23,43.4a2.5,2.5,0,0,0,1.33.43,1.11,1.11,0,0,0,1.21-1.19c0-.62-.23-1.06-1-1.61-1.08-.69-1.66-1.4-1.66-2.34a2.21,2.21,0,0,1,2.27-2.28,2.69,2.69,0,0,1,1.46.42l-.34,1a1.84,1.84,0,0,0-1.1-.37,1,1,0,0,0-1.06,1c0,.55.21.86,1,1.42a3,3,0,0,1,1.7,2.51,2.29,2.29,0,0,1-2.48,2.44,2.78,2.78,0,0,1-1.62-.48Z"/><path class="cls-1" d="M260.29,40.77c0,2.52,1,3,1.94,3a3,3,0,0,0,1.36-.3l.22.95a3.94,3.94,0,0,1-1.82.4c-2,0-3-1.61-3-4.13s1.14-4.33,2.78-4.33,2.35,1.77,2.35,3.62a7.26,7.26,0,0,1,0,.74Zm2.58-1c0-1.65-.6-2.38-1.22-2.38-.86,0-1.29,1.25-1.35,2.38Z"/><path class="cls-1" d="M271,35.91a2.86,2.86,0,1,1-2.85-2.79A2.8,2.8,0,0,1,271,35.91Zm-5,0a2.17,2.17,0,0,0,2.18,2.23,2.14,2.14,0,0,0,2.12-2.21,2.15,2.15,0,1,0-4.3,0Zm1.72,1.46h-.65V34.58a5.83,5.83,0,0,1,1.07-.08,1.72,1.72,0,0,1,1,.2.79.79,0,0,1,.27.62.71.71,0,0,1-.58.64v0a.79.79,0,0,1,.51.67,2.11,2.11,0,0,0,.21.7h-.7a2.79,2.79,0,0,1-.22-.68c-.05-.3-.22-.44-.58-.44h-.3Zm0-1.58h.31c.36,0,.65-.12.65-.41s-.19-.42-.6-.42a2.28,2.28,0,0,0-.36,0Z"/><path class="cls-1" d="M272,46.9A25.35,25.35,0,0,0,273,43l1.48-.17a20.74,20.74,0,0,1-1.56,4Z"/><path class="cls-1" d="M283.56,42.53c0,.9,0,1.62.06,2.24h-1.14l-.09-.86h0a2.16,2.16,0,0,1-1.76,1c-1.44,0-2-1.12-2-3.16V36.55h1.31v5c0,1.29.21,2.25,1.1,2.25a1.27,1.27,0,0,0,1.18-1.1,3.29,3.29,0,0,0,.07-.73V36.55h1.31Z"/><path class="cls-1" d="M285.39,38.67c0-1,0-1.47-.07-2.12h1.15l.06,1h0a2.07,2.07,0,0,1,1.88-1.12c1.14,0,2,.84,2,2.83v5.53h-1.3v-5.3c0-1-.19-2-1.15-2-.55,0-1.07.46-1.23,1.34a3.79,3.79,0,0,0-.07.74v5.18h-1.3Z"/><path class="cls-1" d="M294.72,43.4a2.5,2.5,0,0,0,1.33.43,1.12,1.12,0,0,0,1.22-1.19c0-.62-.23-1.06-1.06-1.61-1.07-.69-1.66-1.4-1.66-2.34a2.22,2.22,0,0,1,2.27-2.28,2.73,2.73,0,0,1,1.47.42l-.35,1a1.84,1.84,0,0,0-1.1-.37,1,1,0,0,0-1.06,1c0,.55.21.86,1,1.42a3,3,0,0,1,1.71,2.51A2.3,2.3,0,0,1,296,44.87a2.84,2.84,0,0,1-1.63-.48Z"/><path class="cls-1" d="M301.28,34.41a.77.77,0,0,1-.81.85.76.76,0,0,1-.74-.85.78.78,0,1,1,1.55,0Zm-1.42,10.36V36.55h1.3v8.22Z"/><path class="cls-1" d="M302.76,43.4a2.5,2.5,0,0,0,1.33.43,1.12,1.12,0,0,0,1.22-1.19c0-.62-.23-1.06-1.06-1.61-1.07-.69-1.66-1.4-1.66-2.34a2.22,2.22,0,0,1,2.27-2.28,2.73,2.73,0,0,1,1.47.42l-.35,1a1.83,1.83,0,0,0-1.09-.37,1,1,0,0,0-1.07,1c0,.55.21.86,1,1.42a3,3,0,0,1,1.71,2.51,2.3,2.3,0,0,1-2.48,2.44,2.84,2.84,0,0,1-1.63-.48Z"/><path class="cls-1" d="M309.5,34.36v2.19h1.58v1H309.5v4.89c0,1.07.39,1.35.86,1.35a2.65,2.65,0,0,0,.53-.05l.06,1a3,3,0,0,1-1,.13,1.62,1.62,0,0,1-1.28-.5,2.93,2.93,0,0,1-.49-2.06V37.54h-1v-1h1V34.74Z"/><path class="cls-1" d="M313,40.77c0,2.52,1,3,1.94,3a3,3,0,0,0,1.37-.3l.21.95a3.93,3.93,0,0,1-1.81.4c-2,0-3-1.61-3-4.13s1.13-4.33,2.77-4.33,2.35,1.77,2.35,3.62c0,.32,0,.54,0,.74Zm2.58-1c0-1.65-.6-2.38-1.22-2.38-.86,0-1.29,1.25-1.35,2.38Z"/><path class="cls-1" d="M318.27,38.67c0-1,0-1.47-.07-2.12h1.15l.06,1h0a2,2,0,0,1,1.85-1.15A1.71,1.71,0,0,1,323,37.66h0a2.81,2.81,0,0,1,.81-.94,2.07,2.07,0,0,1,1.14-.31c1.11,0,2,.81,2,2.91v5.45h-1.29V39.62c0-1.08-.16-2.12-1.15-2.12-.55,0-1,.46-1.2,1.24a3.36,3.36,0,0,0-.06.74v5.29H322v-5.4c0-.9-.16-1.87-1.13-1.87-.54,0-1.07.47-1.22,1.34a3.84,3.84,0,0,0-.05.7v5.23h-1.3Z"/><path class="cls-1" d="M332.06,44.77,332,43.9h0a1.86,1.86,0,0,1-1.65,1,2.08,2.08,0,0,1-1.95-2.35c0-2,1.65-3,3.51-3v-.26c0-1.11-.28-1.87-1.32-1.87a2.39,2.39,0,0,0-1.36.43l-.28-.92a3.57,3.57,0,0,1,1.92-.54c1.65,0,2.35,1.08,2.35,2.93v3.57a13.72,13.72,0,0,0,.09,1.86Zm-.19-4.26c-.67,0-2.26.13-2.26,1.92,0,1.07.54,1.45,1,1.45s1.05-.43,1.21-1.23a2.56,2.56,0,0,0,0-.47Z"/><path class="cls-1" d="M46.89,59.07c0-.7,0-1.51-.07-2.12H48l.07,1.28h0a2,2,0,0,1,1.72-1.42,1.14,1.14,0,0,1,.28,0v1.33h-.27a1.8,1.8,0,0,0-1.59,1.71,5.66,5.66,0,0,0,0,.75v4.56H46.89Z"/><path class="cls-1" d="M55.93,61.05c0,3.18-1.48,4.25-2.74,4.25-1.47,0-2.67-1.34-2.67-4.23s1.34-4.26,2.76-4.26S55.93,58.19,55.93,61.05Zm-4.09,0c0,1.36.24,3.21,1.42,3.21s1.35-1.92,1.35-3.21-.23-3.2-1.39-3.2S51.84,59.79,51.84,61.05Z"/><path class="cls-1" d="M57.31,65.17c0-.47.07-1.42.07-2V53.4h1.3v4.51h0a1.84,1.84,0,0,1,1.74-1.1c1.28,0,2.25,1.47,2.25,4.16,0,3-1.23,4.33-2.49,4.33a1.71,1.71,0,0,1-1.64-1.21h0l-.09,1.08Zm1.37-2.91a2,2,0,0,0,0,.51C59,64,59.6,64.21,60,64.21c1,0,1.42-1.43,1.42-3.17s-.39-3.11-1.44-3.11c-.61,0-1.11.75-1.22,1.47a3.43,3.43,0,0,0,0,.56Z"/><path class="cls-1" d="M69.11,62.93c0,.9,0,1.62.06,2.24H68l-.09-.86h0a2.16,2.16,0,0,1-1.76,1c-1.44,0-2-1.12-2-3.16V57h1.31v5c0,1.29.21,2.25,1.1,2.25a1.27,1.27,0,0,0,1.18-1.1,3.35,3.35,0,0,0,.07-.73V57h1.31Z"/><path class="cls-1" d="M70.72,63.8a2.5,2.5,0,0,0,1.33.43A1.11,1.11,0,0,0,73.26,63c0-.62-.23-1.06-1.05-1.61-1.08-.69-1.66-1.4-1.66-2.34a2.21,2.21,0,0,1,2.27-2.28,2.69,2.69,0,0,1,1.46.42l-.34,1a1.86,1.86,0,0,0-1.1-.37,1,1,0,0,0-1.06,1c0,.55.21.86,1,1.42a3,3,0,0,1,1.7,2.51A2.3,2.3,0,0,1,72,65.27a2.78,2.78,0,0,1-1.62-.48Z"/><path class="cls-1" d="M77.46,54.76V57H79v1H77.46v4.89c0,1.07.38,1.35.85,1.35a2.65,2.65,0,0,0,.53-.05l.06,1a3,3,0,0,1-1,.13,1.63,1.63,0,0,1-1.29-.5,2.93,2.93,0,0,1-.49-2.06V57.94h-1V57h1V55.14Z"/><path class="cls-1" d="M85.1,61.05c0,3.18-1.48,4.25-2.73,4.25-1.48,0-2.68-1.34-2.68-4.23s1.35-4.26,2.76-4.26S85.1,58.19,85.1,61.05Zm-4.09,0c0,1.36.24,3.21,1.42,3.21s1.35-1.92,1.35-3.21-.23-3.2-1.39-3.2S81,59.79,81,61.05Z"/><path class="cls-1" d="M90.65,54.81a.78.78,0,1,1-1.55,0,.78.78,0,0,1,.77-.85A.77.77,0,0,1,90.65,54.81ZM89.23,65.17V57h1.31v8.22Z"/><path class="cls-1" d="M92.36,59.07c0-1,0-1.46-.07-2.12h1.15l.06,1h0a2.1,2.1,0,0,1,1.89-1.12c1.14,0,2,.84,2,2.83v5.53h-1.3v-5.3c0-1-.19-2-1.15-2-.55,0-1.07.46-1.23,1.34a3.15,3.15,0,0,0-.07.74v5.18h-1.3Z"/><path class="cls-1" d="M99,63.8a2.5,2.5,0,0,0,1.33.43A1.12,1.12,0,0,0,101.57,63c0-.62-.23-1.06-1.06-1.61-1.07-.69-1.66-1.4-1.66-2.34a2.22,2.22,0,0,1,2.27-2.28,2.73,2.73,0,0,1,1.47.42l-.35,1a1.84,1.84,0,0,0-1.1-.37,1,1,0,0,0-1.06,1c0,.55.21.86,1,1.42a3,3,0,0,1,1.71,2.51,2.3,2.3,0,0,1-2.48,2.44,2.84,2.84,0,0,1-1.63-.48Z"/><path class="cls-1" d="M105.76,54.76V57h1.58v1h-1.58v4.89c0,1.07.38,1.35.86,1.35a2.65,2.65,0,0,0,.53-.05l.06,1a3,3,0,0,1-1,.13,1.62,1.62,0,0,1-1.28-.5,2.93,2.93,0,0,1-.49-2.06V57.94h-1V57h1V55.14Z"/><path class="cls-1" d="M111.75,65.17l-.09-.87h0a1.84,1.84,0,0,1-1.64,1A2.08,2.08,0,0,1,108,63c0-2.05,1.64-3,3.51-3v-.26c0-1.11-.29-1.87-1.32-1.87a2.36,2.36,0,0,0-1.36.43l-.28-.92a3.57,3.57,0,0,1,1.92-.54c1.64,0,2.35,1.07,2.35,2.93V63.3a13.79,13.79,0,0,0,.09,1.87Zm-.2-4.26c-.67,0-2.26.13-2.26,1.92,0,1.07.54,1.45,1,1.45s1.06-.43,1.21-1.23a1.91,1.91,0,0,0,0-.47Z"/><path class="cls-1" d="M114.68,53.4H116V65.17h-1.3Z"/><path class="cls-1" d="M121.18,65.17l-.09-.87h0a1.86,1.86,0,0,1-1.65,1,2.08,2.08,0,0,1-2-2.35c0-2.05,1.65-3,3.51-3v-.26c0-1.11-.28-1.87-1.32-1.87a2.39,2.39,0,0,0-1.36.43l-.28-.92a3.57,3.57,0,0,1,1.92-.54c1.65,0,2.35,1.07,2.35,2.93V63.3a13.79,13.79,0,0,0,.09,1.87ZM121,60.91c-.67,0-2.26.13-2.26,1.92,0,1.07.54,1.45,1,1.45s1.05-.43,1.21-1.23a2.56,2.56,0,0,0,0-.47Z"/><path class="cls-1" d="M129.07,53.4v9.8c0,.55,0,1.49.07,2H128l-.09-1h-.06a1.89,1.89,0,0,1-1.72,1.17c-1.39,0-2.4-1.5-2.4-4.22,0-2.91,1.22-4.27,2.48-4.27a1.6,1.6,0,0,1,1.51,1h0V53.4Zm-1.3,6.67a4.87,4.87,0,0,0,0-.54c-.07-.86-.58-1.6-1.22-1.6-1.09,0-1.46,1.51-1.46,3.15s.45,3.13,1.39,3.13c.4,0,1-.22,1.26-1.4a2.34,2.34,0,0,0,0-.55Z"/><path class="cls-1" d="M136,61.05c0,3.18-1.48,4.25-2.74,4.25-1.47,0-2.67-1.34-2.67-4.23s1.34-4.26,2.76-4.26S136,58.19,136,61.05Zm-4.1,0c0,1.36.25,3.21,1.42,3.21s1.36-1.92,1.36-3.21-.23-3.2-1.39-3.2S131.85,59.79,131.85,61.05Z"/><path class="cls-1" d="M141,61.17c0,2.52,1,3,1.95,3a3,3,0,0,0,1.36-.3l.21,1a3.9,3.9,0,0,1-1.81.4c-2,0-3-1.61-3-4.13s1.13-4.33,2.77-4.33,2.35,1.77,2.35,3.62c0,.32,0,.54,0,.74Zm2.59-1c0-1.65-.6-2.38-1.22-2.38-.87,0-1.3,1.25-1.36,2.38Z"/><path class="cls-1" d="M146.25,59.07c0-1-.05-1.46-.07-2.12h1.14l.07,1h0a2.1,2.1,0,0,1,1.89-1.12c1.13,0,2,.84,2,2.83v5.53H150v-5.3c0-1-.18-2-1.14-2-.55,0-1.07.46-1.23,1.34a3.15,3.15,0,0,0-.07.74v5.18h-1.3Z"/><path class="cls-1" d="M156.73,61.17c0,2.52,1,3,1.94,3a3,3,0,0,0,1.36-.3l.22,1a3.94,3.94,0,0,1-1.82.4c-2,0-3-1.61-3-4.13s1.14-4.33,2.77-4.33,2.36,1.77,2.36,3.62a7.26,7.26,0,0,1,0,.74Zm2.58-1c0-1.65-.6-2.38-1.22-2.38-.87,0-1.29,1.25-1.35,2.38Z"/><path class="cls-1" d="M165.63,64.31h0a1.75,1.75,0,0,1-1.59,1c-1.31,0-2.37-1.45-2.37-4.15,0-2.9,1.22-4.34,2.59-4.34a1.64,1.64,0,0,1,1.53,1.09h0l.07-1H167c0,.56-.07,1.3-.07,2.56v8.92h-1.3Zm0-4.3a5.07,5.07,0,0,0,0-.55c-.1-.85-.62-1.53-1.2-1.53-1.07,0-1.47,1.43-1.47,3.15s.43,3.13,1.45,3.13c.39,0,.91-.24,1.19-1.37a3.2,3.2,0,0,0,.06-.7Z"/><path class="cls-1" d="M173.69,62.93c0,.9,0,1.62.07,2.24h-1.15l-.09-.86h0a2.16,2.16,0,0,1-1.76,1c-1.44,0-2-1.12-2-3.16V57H170v5c0,1.29.21,2.25,1.1,2.25a1.27,1.27,0,0,0,1.18-1.1,3.35,3.35,0,0,0,.07-.73V57h1.31Z"/><path class="cls-1" d="M176.94,54.81a.78.78,0,1,1-1.55,0,.78.78,0,0,1,.77-.85A.77.77,0,0,1,176.94,54.81Zm-1.42,10.36V57h1.31v8.22Z"/><path class="cls-1" d="M178.64,59.51c0-1.27,0-2-.07-2.56h1.17l.06,1h0a1.89,1.89,0,0,1,1.74-1.18C183,56.81,184,58.33,184,61c0,3.06-1.26,4.27-2.54,4.27a1.56,1.56,0,0,1-1.44-1h0v4.08h-1.3Zm1.3,2.64a3,3,0,0,0,.06.68c.26,1.17.84,1.38,1.2,1.38,1.09,0,1.44-1.49,1.44-3.15s-.41-3.13-1.45-3.13c-.6,0-1.13.74-1.21,1.49a4.21,4.21,0,0,0,0,.62Z"/><path class="cls-1" d="M190.48,61.05c0,3.18-1.48,4.25-2.73,4.25-1.48,0-2.68-1.34-2.68-4.23s1.35-4.26,2.76-4.26S190.48,58.19,190.48,61.05Zm-4.09,0c0,1.36.24,3.21,1.42,3.21s1.35-1.92,1.35-3.21-.23-3.2-1.39-3.2S186.39,59.79,186.39,61.05Z"/><path class="cls-1" d="M191.72,63.8a2.5,2.5,0,0,0,1.33.43A1.12,1.12,0,0,0,194.27,63c0-.62-.24-1.06-1.06-1.61-1.07-.69-1.66-1.4-1.66-2.34a2.22,2.22,0,0,1,2.27-2.28,2.73,2.73,0,0,1,1.47.42l-.35,1a1.84,1.84,0,0,0-1.1-.37,1,1,0,0,0-1.06,1c0,.55.21.86,1,1.42a3,3,0,0,1,1.7,2.51A2.29,2.29,0,0,1,193,65.27a2.84,2.84,0,0,1-1.63-.48Z"/><path class="cls-1" d="M204.48,53.4v9.8c0,.55,0,1.49.07,2h-1.12l-.09-1h-.06a1.89,1.89,0,0,1-1.72,1.17c-1.39,0-2.4-1.5-2.4-4.22,0-2.91,1.22-4.27,2.48-4.27a1.6,1.6,0,0,1,1.51,1h0V53.4Zm-1.3,6.67a4.87,4.87,0,0,0,0-.54c-.08-.86-.58-1.6-1.22-1.6-1.09,0-1.46,1.51-1.46,3.15s.45,3.13,1.39,3.13c.4,0,1-.22,1.26-1.4a2.34,2.34,0,0,0,.05-.55Z"/><path class="cls-1" d="M207.23,61.17c0,2.52,1,3,2,3a3,3,0,0,0,1.36-.3l.21,1a3.9,3.9,0,0,1-1.81.4c-2,0-3-1.61-3-4.13s1.13-4.33,2.77-4.33,2.35,1.77,2.35,3.62c0,.32,0,.54,0,.74Zm2.59-1c0-1.65-.6-2.38-1.22-2.38-.87,0-1.3,1.25-1.36,2.38Z"/><path class="cls-1" d="M218.74,61.17c0,2.52,1,3,1.94,3a3,3,0,0,0,1.37-.3l.21,1a3.93,3.93,0,0,1-1.81.4c-2,0-3-1.61-3-4.13s1.14-4.33,2.78-4.33,2.35,1.77,2.35,3.62c0,.32,0,.54,0,.74Zm2.58-1c0-1.65-.6-2.38-1.22-2.38-.86,0-1.29,1.25-1.35,2.38Z"/><path class="cls-1" d="M224.6,57l.76,1.76c.2.47.37.95.55,1.44h0c.18-.52.37-1,.54-1.44l.74-1.76h1.35l-2,4,1.94,4.17h-1.42l-.79-1.86c-.18-.44-.33-.86-.54-1.41h0c-.17.49-.36.94-.55,1.41l-.76,1.86h-1.33l2-4.13L223.2,57Z"/><path class="cls-1" d="M231.51,54.76V57h1.57v1h-1.57v4.89c0,1.07.38,1.35.85,1.35a2.65,2.65,0,0,0,.53-.05l.06,1a3,3,0,0,1-1,.13,1.63,1.63,0,0,1-1.29-.5,2.93,2.93,0,0,1-.49-2.06V57.94h-1V57h1V55.14Z"/><path class="cls-1" d="M234.23,59.07c0-.7,0-1.51-.07-2.12h1.17l.06,1.28h0a2,2,0,0,1,1.73-1.42,1.1,1.1,0,0,1,.27,0v1.33h-.27a1.78,1.78,0,0,0-1.58,1.71,5.54,5.54,0,0,0-.05.75v4.56h-1.3Z"/><path class="cls-1" d="M241.61,65.17l-.09-.87h-.05a1.84,1.84,0,0,1-1.64,1,2.08,2.08,0,0,1-2-2.35c0-2.05,1.64-3,3.51-3v-.26c0-1.11-.29-1.87-1.32-1.87a2.36,2.36,0,0,0-1.36.43l-.28-.92a3.57,3.57,0,0,1,1.92-.54c1.64,0,2.35,1.07,2.35,2.93V63.3a13.79,13.79,0,0,0,.09,1.87Zm-.2-4.26c-.67,0-2.26.13-2.26,1.92,0,1.07.55,1.45,1,1.45s1.06-.43,1.21-1.23a1.91,1.91,0,0,0,0-.47Z"/><path class="cls-1" d="M248.55,65a2.81,2.81,0,0,1-1.36.31c-1.79,0-3-1.45-3-4.17,0-2.36,1.2-4.28,3.25-4.28a2.58,2.58,0,0,1,1.16.26l-.26,1.07a2,2,0,0,0-.93-.23c-1.32,0-1.9,1.57-1.9,3.18,0,1.92.73,3.08,1.93,3.08a2.05,2.05,0,0,0,.95-.23Z"/><path class="cls-1" d="M253.58,65a2.78,2.78,0,0,1-1.36.31c-1.79,0-3-1.45-3-4.17,0-2.36,1.2-4.28,3.26-4.28a2.57,2.57,0,0,1,1.15.26l-.26,1.07a2,2,0,0,0-.93-.23c-1.32,0-1.9,1.57-1.9,3.18,0,1.92.74,3.08,1.93,3.08a2,2,0,0,0,.95-.23Z"/><path class="cls-1" d="M256.13,54.81a.77.77,0,0,1-.81.85.76.76,0,0,1-.74-.85.78.78,0,1,1,1.55,0Zm-1.42,10.36V57H256v8.22Z"/><path class="cls-1" d="M262.88,61.05c0,3.18-1.47,4.25-2.73,4.25-1.48,0-2.68-1.34-2.68-4.23s1.35-4.26,2.77-4.26S262.88,58.19,262.88,61.05Zm-4.09,0c0,1.36.24,3.21,1.42,3.21s1.36-1.92,1.36-3.21-.23-3.2-1.39-3.2S258.79,59.79,258.79,61.05Zm3.4-7.47-1.78,2.3h-.87l1.3-2.3Z"/><path class="cls-1" d="M264.35,59.07c0-1-.05-1.46-.07-2.12h1.14l.07,1h0a2.08,2.08,0,0,1,1.88-1.12c1.14,0,2,.84,2,2.83v5.53h-1.3v-5.3c0-1-.19-2-1.14-2-.55,0-1.07.46-1.24,1.34a3.88,3.88,0,0,0-.06.74v5.18h-1.3Z"/><path class="cls-1" d="M273.9,59.07c0-1,0-1.46-.07-2.12H275l.06,1h0a2,2,0,0,1,1.85-1.15,1.71,1.71,0,0,1,1.72,1.25h0a2.81,2.81,0,0,1,.81-.94,2.07,2.07,0,0,1,1.14-.31c1.11,0,2,.81,2,2.9v5.46h-1.3V60c0-1.08-.16-2.12-1.15-2.12-.55,0-1,.46-1.2,1.24a3.36,3.36,0,0,0-.06.74v5.29h-1.3v-5.4c0-.9-.16-1.87-1.13-1.87-.54,0-1.07.47-1.22,1.34a3.84,3.84,0,0,0-.05.7v5.23h-1.3Z"/><path class="cls-1" d="M285.86,54.81a.77.77,0,0,1-.8.85.76.76,0,0,1-.75-.85.78.78,0,1,1,1.55,0Zm-1.42,10.36V57h1.3v8.22Z"/><path class="cls-1" d="M287.57,59.07c0-1-.05-1.46-.07-2.12h1.14l.07,1h0a2.08,2.08,0,0,1,1.88-1.12c1.14,0,2,.84,2,2.83v5.53h-1.31v-5.3c0-1-.19-2-1.14-2-.55,0-1.07.46-1.24,1.34a3.88,3.88,0,0,0-.06.74v5.18h-1.3Z"/><path class="cls-1" d="M295.37,61.17c0,2.52,1,3,1.95,3a3,3,0,0,0,1.36-.3l.22,1a3.94,3.94,0,0,1-1.82.4c-2,0-3-1.61-3-4.13s1.13-4.33,2.77-4.33,2.36,1.77,2.36,3.62a7.26,7.26,0,0,1,0,.74Zm2.59-1c0-1.65-.6-2.38-1.22-2.38-.87,0-1.29,1.25-1.35,2.38Z"/><path class="cls-1" d="M300.61,59.07c0-.7-.05-1.51-.07-2.12h1.17l.06,1.28h.05a2,2,0,0,1,1.72-1.42,1.19,1.19,0,0,1,.28,0v1.33h-.27A1.8,1.8,0,0,0,302,59.86a5.54,5.54,0,0,0,0,.75v4.56h-1.3Z"/><path class="cls-1" d="M308,65.17l-.09-.87h0a1.87,1.87,0,0,1-1.65,1A2.08,2.08,0,0,1,304.26,63c0-2.05,1.65-3,3.51-3v-.26c0-1.11-.28-1.87-1.32-1.87a2.39,2.39,0,0,0-1.36.43l-.28-.92a3.57,3.57,0,0,1,1.92-.54c1.65,0,2.35,1.07,2.35,2.93V63.3a13.79,13.79,0,0,0,.09,1.87Zm-.2-4.26c-.67,0-2.25.13-2.25,1.92,0,1.07.54,1.45,1,1.45s1.05-.43,1.21-1.23a2.53,2.53,0,0,0,0-.47Z"/><path class="cls-1" d="M313.58,59.51c0-1.27,0-2-.07-2.56h1.17l.07,1h0a1.9,1.9,0,0,1,1.74-1.18c1.43,0,2.38,1.52,2.38,4.22,0,3.06-1.26,4.27-2.55,4.27a1.56,1.56,0,0,1-1.44-1h0v4.08h-1.3Zm1.3,2.64a3,3,0,0,0,.06.68c.26,1.17.85,1.38,1.2,1.38,1.09,0,1.44-1.49,1.44-3.15s-.41-3.13-1.45-3.13c-.59,0-1.12.74-1.2,1.49a3.18,3.18,0,0,0-.05.62Z"/><path class="cls-1" d="M323.63,65.17l-.09-.87h0a1.87,1.87,0,0,1-1.65,1,2.08,2.08,0,0,1-2-2.35c0-2.05,1.65-3,3.51-3v-.26c0-1.11-.28-1.87-1.32-1.87a2.36,2.36,0,0,0-1.36.43l-.28-.92a3.57,3.57,0,0,1,1.92-.54c1.65,0,2.35,1.07,2.35,2.93V63.3a13.79,13.79,0,0,0,.09,1.87Zm-.2-4.26c-.67,0-2.26.13-2.26,1.92,0,1.07.55,1.45,1,1.45s1.05-.43,1.21-1.23a2.53,2.53,0,0,0,0-.47Z"/><path class="cls-1" d="M326.55,59.07c0-.7,0-1.51-.07-2.12h1.17l.07,1.28h0a2,2,0,0,1,1.72-1.42,1.14,1.14,0,0,1,.28,0v1.33h-.27a1.8,1.8,0,0,0-1.59,1.71,5.66,5.66,0,0,0,0,.75v4.56h-1.31Z"/><path class="cls-1" d="M333.93,65.17l-.09-.87h0a1.86,1.86,0,0,1-1.65,1A2.08,2.08,0,0,1,330.2,63c0-2.05,1.65-3,3.51-3v-.26c0-1.11-.28-1.87-1.32-1.87a2.39,2.39,0,0,0-1.36.43l-.28-.92a3.57,3.57,0,0,1,1.92-.54c1.65,0,2.35,1.07,2.35,2.93V63.3a13.79,13.79,0,0,0,.09,1.87Zm-.19-4.26c-.67,0-2.26.13-2.26,1.92,0,1.07.54,1.45,1,1.45s1.05-.43,1.21-1.23a2.56,2.56,0,0,0,0-.47Z"/><path class="cls-1" d="M47.83,81.57c0,2.52,1,3.05,1.94,3.05a3,3,0,0,0,1.36-.3l.22,1a3.94,3.94,0,0,1-1.82.4c-2,0-3-1.61-3-4.13,0-2.67,1.14-4.33,2.77-4.33s2.36,1.77,2.36,3.62a7.26,7.26,0,0,1,0,.74Zm2.58-1c0-1.65-.6-2.38-1.22-2.38-.86,0-1.29,1.25-1.35,2.38Z"/><path class="cls-1" d="M52.85,84.2a2.5,2.5,0,0,0,1.33.43,1.12,1.12,0,0,0,1.22-1.19c0-.62-.23-1.06-1.06-1.61-1.07-.69-1.66-1.4-1.66-2.34A2.22,2.22,0,0,1,55,77.21a2.73,2.73,0,0,1,1.47.42l-.35,1a1.84,1.84,0,0,0-1.1-.37,1,1,0,0,0-1.06,1c0,.55.21.86,1,1.42a3,3,0,0,1,1.71,2.51,2.3,2.3,0,0,1-2.48,2.44,2.84,2.84,0,0,1-1.63-.48Z"/><path class="cls-1" d="M62,85.36a2.81,2.81,0,0,1-1.36.31c-1.8,0-3-1.45-3-4.17,0-2.36,1.19-4.28,3.25-4.28a2.62,2.62,0,0,1,1.16.26l-.26,1.07a2.05,2.05,0,0,0-.94-.23c-1.31,0-1.9,1.57-1.9,3.18,0,1.92.74,3.08,1.93,3.08a2,2,0,0,0,1-.23Z"/><path class="cls-1" d="M66.43,85.57l-.09-.87h0a1.85,1.85,0,0,1-1.65,1,2.08,2.08,0,0,1-2-2.35c0-2,1.65-3,3.51-3v-.26c0-1.11-.28-1.87-1.31-1.87a2.34,2.34,0,0,0-1.36.43l-.29-.92a3.64,3.64,0,0,1,1.93-.54c1.64,0,2.35,1.08,2.35,2.93V83.7a13.79,13.79,0,0,0,.09,1.87Zm-.2-4.26c-.67,0-2.26.13-2.26,1.92,0,1.07.54,1.45,1,1.45s1.06-.43,1.21-1.23a2.63,2.63,0,0,0,0-.47Z"/><path class="cls-1" d="M69.36,79.47c0-1,0-1.47-.07-2.12h1.15l.06,1h0a2.1,2.1,0,0,1,1.89-1.12c1.14,0,2,.84,2,2.83v5.53H73.1v-5.3c0-1-.18-2-1.14-2-.55,0-1.07.46-1.23,1.34a3.15,3.15,0,0,0-.07.74v5.18h-1.3Z"/><path class="cls-1" d="M77.17,81.57c0,2.52,1,3.05,1.94,3.05a3,3,0,0,0,1.36-.3l.22,1a3.94,3.94,0,0,1-1.82.4c-2,0-3-1.61-3-4.13,0-2.67,1.14-4.33,2.78-4.33S81,79,81,80.83a7.26,7.26,0,0,1,0,.74Zm2.58-1c0-1.65-.6-2.38-1.22-2.38-.86,0-1.29,1.25-1.35,2.38Z"/><path class="cls-1" d="M85.67,85.57l-.09-.87h0a1.87,1.87,0,0,1-1.65,1,2.08,2.08,0,0,1-2-2.35c0-2,1.65-3,3.51-3v-.26c0-1.11-.28-1.87-1.32-1.87a2.36,2.36,0,0,0-1.36.43l-.28-.92a3.57,3.57,0,0,1,1.92-.54c1.65,0,2.35,1.08,2.35,2.93V83.7a13.79,13.79,0,0,0,.09,1.87Zm-.2-4.26c-.67,0-2.26.13-2.26,1.92,0,1.07.55,1.45,1,1.45s1.06-.43,1.21-1.23a2,2,0,0,0,0-.47Z"/><path class="cls-1" d="M88.59,79.47c0-.7,0-1.51-.07-2.12h1.17l.07,1.28h0a2,2,0,0,1,1.72-1.42h.28v1.34h-.27a1.8,1.8,0,0,0-1.59,1.71,5.54,5.54,0,0,0,0,.75v4.56h-1.3Z"/><path class="cls-1" d="M96.17,77.35l1.09,4.72c.15.64.23,1.18.34,1.7h0c.09-.47.23-1.09.35-1.69l1-4.73h1.29l-1.34,5.27a15.14,15.14,0,0,1-2,5.31,4.2,4.2,0,0,1-1.48,1.25l-.48-1.11a4.05,4.05,0,0,0,1.16-1,4.8,4.8,0,0,0,.74-1.38,1.19,1.19,0,0,0,.1-.41.81.81,0,0,0,0-.31l-2.07-7.58Z"/><path class="cls-1" d="M104,79.47c0-1-.05-1.47-.07-2.12h1.15l.06,1h0a2,2,0,0,1,1.85-1.15,1.71,1.71,0,0,1,1.72,1.25h0a2.81,2.81,0,0,1,.81-.94,2.07,2.07,0,0,1,1.14-.31c1.11,0,2,.81,2,2.91v5.45h-1.3V80.42c0-1.08-.16-2.12-1.15-2.12-.55,0-1,.46-1.2,1.24a3.36,3.36,0,0,0-.06.74v5.29h-1.3v-5.4c0-.9-.16-1.87-1.13-1.87-.54,0-1.07.47-1.22,1.34a3.84,3.84,0,0,0,0,.7v5.23H104Z"/><path class="cls-1" d="M115.5,81.57c0,2.52,1,3.05,2,3.05a3,3,0,0,0,1.36-.3l.21,1a3.9,3.9,0,0,1-1.81.4c-2,0-3-1.61-3-4.13,0-2.67,1.13-4.33,2.77-4.33s2.35,1.77,2.35,3.62c0,.32,0,.54,0,.74Zm2.59-1c0-1.65-.6-2.38-1.22-2.38-.87,0-1.3,1.25-1.36,2.38Z"/><path class="cls-1" d="M125.7,73.8v9.8c0,.55,0,1.49.07,2h-1.12l-.09-1h0a1.91,1.91,0,0,1-1.73,1.17c-1.39,0-2.39-1.5-2.39-4.22,0-2.91,1.22-4.27,2.48-4.27a1.58,1.58,0,0,1,1.5,1h0V73.8Zm-1.3,6.67a4.87,4.87,0,0,0,0-.54c-.07-.86-.58-1.6-1.22-1.6-1.08,0-1.46,1.51-1.46,3.15s.45,3.13,1.39,3.13c.41,0,1-.22,1.27-1.4a3.09,3.09,0,0,0,0-.55Z"/><path class="cls-1" d="M129,75.21a.78.78,0,1,1-1.55,0,.79.79,0,0,1,.77-.85A.77.77,0,0,1,129,75.21Zm-1.42,10.36V77.35h1.31v8.22Z"/><path class="cls-1" d="M130.65,79.47c0-.7-.05-1.51-.07-2.12h1.17l.06,1.28h.05a2,2,0,0,1,1.72-1.42h.27v1.34h-.26A1.79,1.79,0,0,0,132,80.26,5.54,5.54,0,0,0,132,81v4.56h-1.3Z"/><path class="cls-1" d="M137.55,73.8h1.3V85.57h-1.3Z"/><path class="cls-1" d="M144.05,85.57,144,84.7h-.05a1.84,1.84,0,0,1-1.64,1,2.09,2.09,0,0,1-2-2.35c0-2,1.65-3,3.52-3v-.26c0-1.11-.29-1.87-1.32-1.87a2.36,2.36,0,0,0-1.36.43l-.28-.92a3.57,3.57,0,0,1,1.92-.54c1.64,0,2.35,1.08,2.35,2.93V83.7a13.79,13.79,0,0,0,.09,1.87Zm-.2-4.26c-.67,0-2.26.13-2.26,1.92,0,1.07.54,1.45,1,1.45s1.06-.43,1.21-1.23a2,2,0,0,0,0-.47Z"/><path class="cls-1" d="M149.65,73.8H151V85.57h-1.3Z"/><path class="cls-1" d="M153.82,81.57c0,2.52,1,3.05,1.94,3.05a3,3,0,0,0,1.37-.3l.21,1a3.93,3.93,0,0,1-1.81.4c-2,0-3-1.61-3-4.13,0-2.67,1.14-4.33,2.78-4.33s2.35,1.77,2.35,3.62c0,.32,0,.54,0,.74Zm2.58-1c0-1.65-.6-2.38-1.22-2.38-.86,0-1.29,1.25-1.35,2.38Z"/><path class="cls-1" d="M159.7,77.35l1.09,4.72c.15.64.23,1.18.34,1.7h0c.09-.47.23-1.09.35-1.69l1-4.73h1.29l-1.34,5.27a15.14,15.14,0,0,1-2,5.31,4.2,4.2,0,0,1-1.48,1.25l-.49-1.11a4,4,0,0,0,1.17-1,5.06,5.06,0,0,0,.74-1.38,1.13,1.13,0,0,0,.09-.41,1.06,1.06,0,0,0,0-.31l-2.07-7.58Z"/><path class="cls-1" d="M168.25,77.35l1.09,4.72c.15.64.23,1.18.34,1.7h0c.09-.47.23-1.09.35-1.69l1-4.73h1.29L171,82.62a15.14,15.14,0,0,1-2,5.31,4.2,4.2,0,0,1-1.48,1.25L167,88.07a4,4,0,0,0,1.17-1,4.8,4.8,0,0,0,.74-1.38,1.19,1.19,0,0,0,.1-.41,1.06,1.06,0,0,0-.05-.31l-2.07-7.58Z"/><path class="cls-1" d="M176.12,73.8h1.3V85.57h-1.3Z"/><path class="cls-1" d="M182.62,85.57l-.09-.87h0a1.87,1.87,0,0,1-1.65,1,2.08,2.08,0,0,1-2-2.35c0-2,1.65-3,3.51-3v-.26c0-1.11-.28-1.87-1.32-1.87a2.36,2.36,0,0,0-1.36.43l-.28-.92a3.57,3.57,0,0,1,1.92-.54c1.65,0,2.35,1.08,2.35,2.93V83.7a13.79,13.79,0,0,0,.09,1.87Zm-.2-4.26c-.67,0-2.26.13-2.26,1.92,0,1.07.55,1.45,1,1.45s1.06-.43,1.21-1.23a2,2,0,0,0,0-.47Z"/><path class="cls-1" d="M185.33,84.2a2.5,2.5,0,0,0,1.33.43,1.11,1.11,0,0,0,1.21-1.19c0-.62-.23-1.06-1.05-1.61-1.07-.69-1.66-1.4-1.66-2.34a2.22,2.22,0,0,1,2.27-2.28,2.73,2.73,0,0,1,1.47.42l-.35,1a1.84,1.84,0,0,0-1.1-.37,1,1,0,0,0-1.06,1c0,.55.21.86,1,1.42a3,3,0,0,1,1.7,2.51,2.29,2.29,0,0,1-2.48,2.44,2.78,2.78,0,0,1-1.62-.48Z"/><path class="cls-1" d="M197.15,85.36a2.86,2.86,0,0,1-1.37.31c-1.79,0-3-1.45-3-4.17,0-2.36,1.2-4.28,3.26-4.28a2.54,2.54,0,0,1,1.15.26l-.25,1.07a2.05,2.05,0,0,0-.94-.23c-1.31,0-1.9,1.57-1.9,3.18,0,1.92.74,3.08,1.93,3.08a2,2,0,0,0,.95-.23Z"/><path class="cls-1" d="M201.57,85.57l-.08-.87h-.05a1.86,1.86,0,0,1-1.65,1,2.08,2.08,0,0,1-1.95-2.35c0-2,1.65-3,3.51-3v-.26c0-1.11-.28-1.87-1.32-1.87a2.39,2.39,0,0,0-1.36.43l-.28-.92a3.6,3.6,0,0,1,1.92-.54c1.65,0,2.36,1.08,2.36,2.93V83.7a15.73,15.73,0,0,0,.08,1.87Zm-.19-4.26c-.67,0-2.26.13-2.26,1.92,0,1.07.54,1.45,1,1.45s1.06-.43,1.21-1.23a2.63,2.63,0,0,0,0-.47Z"/><path class="cls-1" d="M204.5,79.47c0-.7-.05-1.51-.07-2.12h1.16l.07,1.28h0a2,2,0,0,1,1.73-1.42h.27v1.34h-.27a1.78,1.78,0,0,0-1.58,1.71,4.28,4.28,0,0,0,0,.75v4.56h-1.3Z"/><path class="cls-1" d="M211.88,85.57l-.09-.87h0a1.85,1.85,0,0,1-1.65,1,2.08,2.08,0,0,1-2-2.35c0-2,1.65-3,3.51-3v-.26c0-1.11-.28-1.87-1.31-1.87a2.4,2.4,0,0,0-1.37.43l-.28-.92a3.61,3.61,0,0,1,1.93-.54c1.64,0,2.35,1.08,2.35,2.93V83.7a13.79,13.79,0,0,0,.09,1.87Zm-.2-4.26c-.67,0-2.26.13-2.26,1.92,0,1.07.54,1.45,1,1.45s1.06-.43,1.21-1.23a2.63,2.63,0,0,0,0-.47Z"/><path class="cls-1" d="M218.82,85.36a2.81,2.81,0,0,1-1.36.31c-1.79,0-3-1.45-3-4.17,0-2.36,1.19-4.28,3.25-4.28a2.62,2.62,0,0,1,1.16.26l-.26,1.07a2,2,0,0,0-.94-.23c-1.31,0-1.9,1.57-1.9,3.18,0,1.92.74,3.08,1.94,3.08a2,2,0,0,0,.94-.23Z"/><path class="cls-1" d="M221.8,75.16v2.19h1.58v1H221.8v4.89c0,1.07.39,1.35.86,1.35a2.65,2.65,0,0,0,.53,0l.06,1a3,3,0,0,1-1,.13,1.62,1.62,0,0,1-1.28-.5,2.93,2.93,0,0,1-.49-2.06V78.34h-1v-1h1V75.54Z"/><path class="cls-1" d="M225.32,81.57c0,2.52,1,3.05,1.94,3.05a3,3,0,0,0,1.37-.3l.21,1a3.93,3.93,0,0,1-1.81.4c-2,0-3-1.61-3-4.13,0-2.67,1.13-4.33,2.77-4.33s2.35,1.77,2.35,3.62c0,.32,0,.54,0,.74Zm2.58-1c0-1.65-.6-2.38-1.22-2.38-.86,0-1.29,1.25-1.35,2.38Z"/><path class="cls-1" d="M230.56,79.47c0-.7-.05-1.51-.07-2.12h1.17l.06,1.28h0a2,2,0,0,1,1.73-1.42h.27v1.34h-.27a1.78,1.78,0,0,0-1.58,1.71,4.28,4.28,0,0,0,0,.75v4.56h-1.3Z"/><path class="cls-1" d="M237.38,74l-1.78,2.3h-.87L236,74Zm-2.63,11.59V77.35h1.3v8.22Z"/><path class="cls-1" d="M237.65,84.2a2.5,2.5,0,0,0,1.33.43,1.12,1.12,0,0,0,1.22-1.19c0-.62-.23-1.06-1-1.61-1.08-.69-1.67-1.4-1.67-2.34a2.22,2.22,0,0,1,2.28-2.28,2.72,2.72,0,0,1,1.46.42l-.35,1a1.83,1.83,0,0,0-1.09-.37,1,1,0,0,0-1.07,1c0,.55.21.86,1,1.42a3,3,0,0,1,1.7,2.51A2.3,2.3,0,0,1,239,85.67a2.84,2.84,0,0,1-1.63-.48Z"/><path class="cls-1" d="M244.39,75.16v2.19H246v1h-1.58v4.89c0,1.07.39,1.35.86,1.35a2.65,2.65,0,0,0,.53,0l.06,1a3,3,0,0,1-1,.13,1.63,1.63,0,0,1-1.29-.5,2.93,2.93,0,0,1-.49-2.06V78.34h-1v-1h1V75.54Z"/><path class="cls-1" d="M248.54,75.21a.76.76,0,0,1-.8.85.77.77,0,0,1-.75-.85.79.79,0,0,1,.77-.85A.77.77,0,0,1,248.54,75.21Zm-1.41,10.36V77.35h1.3v8.22Z"/><path class="cls-1" d="M254.26,85.36a2.78,2.78,0,0,1-1.36.31c-1.79,0-3-1.45-3-4.17,0-2.36,1.2-4.28,3.26-4.28a2.57,2.57,0,0,1,1.15.26L254,78.55a2,2,0,0,0-.93-.23c-1.32,0-1.9,1.57-1.9,3.18,0,1.92.74,3.08,1.93,3.08a2,2,0,0,0,1-.23Z"/><path class="cls-1" d="M258.69,85.57l-.09-.87h0a1.86,1.86,0,0,1-1.65,1,2.08,2.08,0,0,1-2-2.35c0-2,1.65-3,3.51-3v-.26c0-1.11-.28-1.87-1.32-1.87a2.39,2.39,0,0,0-1.36.43l-.28-.92a3.57,3.57,0,0,1,1.92-.54c1.65,0,2.35,1.08,2.35,2.93V83.7a13.79,13.79,0,0,0,.09,1.87Zm-.19-4.26c-.67,0-2.26.13-2.26,1.92,0,1.07.54,1.45,1,1.45s1.05-.43,1.21-1.23a2.63,2.63,0,0,0,0-.47Z"/><path class="cls-1" d="M261.4,84.2a2.5,2.5,0,0,0,1.33.43A1.12,1.12,0,0,0,264,83.44c0-.62-.23-1.06-1.06-1.61-1.07-.69-1.66-1.4-1.66-2.34a2.22,2.22,0,0,1,2.28-2.28,2.72,2.72,0,0,1,1.46.42l-.35,1a1.83,1.83,0,0,0-1.09-.37,1,1,0,0,0-1.07,1c0,.55.21.86,1,1.42a3,3,0,0,1,1.7,2.51,2.3,2.3,0,0,1-2.48,2.44,2.84,2.84,0,0,1-1.63-.48Z"/><path class="cls-1" d="M274.16,73.8v9.8c0,.55,0,1.49.07,2h-1.12l-.09-1H273a1.89,1.89,0,0,1-1.72,1.17c-1.39,0-2.39-1.5-2.39-4.22,0-2.91,1.22-4.27,2.48-4.27a1.6,1.6,0,0,1,1.5,1h0V73.8Zm-1.3,6.67a4.87,4.87,0,0,0,0-.54c-.07-.86-.58-1.6-1.22-1.6-1.08,0-1.46,1.51-1.46,3.15s.45,3.13,1.39,3.13c.4,0,1-.22,1.26-1.4a2.34,2.34,0,0,0,.05-.55Z"/><path class="cls-1" d="M276.91,81.57c0,2.52,1,3.05,1.95,3.05a3,3,0,0,0,1.36-.3l.22,1a3.94,3.94,0,0,1-1.82.4c-2,0-3-1.61-3-4.13,0-2.67,1.13-4.33,2.77-4.33s2.35,1.77,2.35,3.62c0,.32,0,.54,0,.74Zm2.59-1c0-1.65-.6-2.38-1.22-2.38-.87,0-1.3,1.25-1.36,2.38Z"/><path class="cls-1" d="M282.16,73.8h1.3V85.57h-1.3Z"/><path class="cls-1" d="M288.08,79.47c0-1-.05-1.47-.07-2.12h1.15l.06,1h0a2,2,0,0,1,1.85-1.15,1.71,1.71,0,0,1,1.72,1.25h0a2.81,2.81,0,0,1,.81-.94,2.07,2.07,0,0,1,1.14-.31c1.11,0,2,.81,2,2.91v5.45h-1.29V80.42c0-1.08-.16-2.12-1.15-2.12-.55,0-1,.46-1.2,1.24a3.36,3.36,0,0,0-.06.74v5.29h-1.3v-5.4c0-.9-.16-1.87-1.13-1.87-.54,0-1.07.47-1.22,1.34a3.84,3.84,0,0,0-.05.7v5.23h-1.3Z"/><path class="cls-1" d="M301.87,85.57l-.09-.87h0a1.87,1.87,0,0,1-1.65,1,2.08,2.08,0,0,1-1.95-2.35c0-2,1.65-3,3.51-3v-.26c0-1.11-.28-1.87-1.32-1.87a2.39,2.39,0,0,0-1.36.43l-.28-.92a3.57,3.57,0,0,1,1.92-.54c1.65,0,2.35,1.08,2.35,2.93V83.7a13.79,13.79,0,0,0,.09,1.87Zm-.19-4.26c-.67,0-2.26.13-2.26,1.92,0,1.07.54,1.45,1,1.45s1.05-.43,1.21-1.23a2.63,2.63,0,0,0,0-.47Z"/><path class="cls-1" d="M306.26,75.16v2.19h1.57v1h-1.57v4.89c0,1.07.38,1.35.85,1.35a2.65,2.65,0,0,0,.53,0l.06,1a3,3,0,0,1-1,.13,1.63,1.63,0,0,1-1.29-.5,2.93,2.93,0,0,1-.49-2.06V78.34h-1v-1h1V75.54Z"/><path class="cls-1" d="M309.77,81.57c0,2.52,1,3.05,2,3.05a3,3,0,0,0,1.36-.3l.22,1a3.94,3.94,0,0,1-1.82.4c-2,0-3-1.61-3-4.13,0-2.67,1.13-4.33,2.77-4.33s2.36,1.77,2.36,3.62a7.26,7.26,0,0,1,0,.74Zm2.59-1c0-1.65-.6-2.38-1.22-2.38-.87,0-1.29,1.25-1.35,2.38Z"/><path class="cls-1" d="M315,79.47c0-.7-.05-1.51-.07-2.12h1.17l.06,1.28h.05a2,2,0,0,1,1.72-1.42h.28v1.34H318a1.8,1.8,0,0,0-1.59,1.71,5.54,5.54,0,0,0-.05.75v4.56H315Z"/><path class="cls-1" d="M320.62,75.21a.76.76,0,0,1-.8.85.77.77,0,0,1-.75-.85.79.79,0,0,1,.77-.85A.77.77,0,0,1,320.62,75.21ZM319.2,85.57V77.35h1.31v8.22Z"/><path class="cls-1" d="M325.59,85.57l-.09-.87h-.05a1.85,1.85,0,0,1-1.65,1,2.08,2.08,0,0,1-1.95-2.35c0-2,1.65-3,3.52-3v-.26c0-1.11-.29-1.87-1.32-1.87a2.36,2.36,0,0,0-1.36.43l-.28-.92a3.57,3.57,0,0,1,1.92-.54c1.64,0,2.35,1.08,2.35,2.93V83.7a13.79,13.79,0,0,0,.09,1.87Zm-.2-4.26c-.67,0-2.26.13-2.26,1.92,0,1.07.54,1.45,1,1.45s1.06-.43,1.21-1.23a2,2,0,0,0,0-.47Z"/><path class="cls-1" d="M328.52,73.8h1.3V85.57h-1.3Z"/><path class="cls-1" d="M47.83,102c0,2.52,1,3,1.94,3a3,3,0,0,0,1.36-.3l.22,1a3.94,3.94,0,0,1-1.82.4c-2,0-3-1.61-3-4.13s1.14-4.33,2.77-4.33,2.36,1.77,2.36,3.62a7.26,7.26,0,0,1,0,.74Zm2.58-1c0-1.65-.6-2.38-1.22-2.38-.86,0-1.29,1.25-1.35,2.38Z"/><path class="cls-1" d="M53.07,99.87c0-1,0-1.46-.06-2.12h1.14l.06,1h0a2.08,2.08,0,0,1,1.88-1.12c1.14,0,2,.84,2,2.83V106h-1.3v-5.3c0-1-.19-2-1.14-2-.55,0-1.07.46-1.24,1.34a3.88,3.88,0,0,0-.06.74V106H53.07Z"/><path class="cls-1" d="M66.64,105.76a2.81,2.81,0,0,1-1.36.31c-1.79,0-3-1.45-3-4.17,0-2.36,1.19-4.28,3.25-4.28a2.62,2.62,0,0,1,1.16.26L66.42,99a2.05,2.05,0,0,0-.94-.23c-1.31,0-1.9,1.57-1.9,3.18,0,1.92.74,3.08,1.94,3.08a2,2,0,0,0,.94-.23Z"/><path class="cls-1" d="M71.07,106,71,105.1h0a1.84,1.84,0,0,1-1.64,1,2.08,2.08,0,0,1-2-2.35c0-2,1.64-3,3.51-3v-.26c0-1.11-.29-1.87-1.32-1.87a2.36,2.36,0,0,0-1.36.43l-.28-.92a3.57,3.57,0,0,1,1.92-.54c1.64,0,2.35,1.08,2.35,2.93v3.57a13.72,13.72,0,0,0,.09,1.86Zm-.2-4.26c-.67,0-2.26.13-2.26,1.92,0,1.07.55,1.45,1,1.45s1.06-.43,1.21-1.23a1.91,1.91,0,0,0,0-.47Z"/><path class="cls-1" d="M79,94.2V104c0,.55,0,1.49.07,2H77.9l-.09-1h0A1.91,1.91,0,0,1,76,106.1c-1.39,0-2.39-1.5-2.39-4.22,0-2.91,1.22-4.27,2.48-4.27a1.58,1.58,0,0,1,1.5,1h0V94.2Zm-1.29,6.67a3.26,3.26,0,0,0,0-.54c-.07-.86-.58-1.6-1.21-1.6-1.09,0-1.46,1.51-1.46,3.15S75.4,105,76.34,105c.41,0,1-.22,1.27-1.4a2.34,2.34,0,0,0,0-.55Z"/><path class="cls-1" d="M84,106,84,105.1h0a1.84,1.84,0,0,1-1.64,1,2.08,2.08,0,0,1-2-2.35c0-2,1.64-3,3.51-3v-.26c0-1.11-.29-1.87-1.32-1.87a2.36,2.36,0,0,0-1.36.43l-.28-.92a3.57,3.57,0,0,1,1.92-.54c1.65,0,2.35,1.08,2.35,2.93v3.57a13.72,13.72,0,0,0,.09,1.86Zm-.2-4.26c-.67,0-2.26.13-2.26,1.92,0,1.07.55,1.45,1,1.45s1.06-.43,1.21-1.23a1.91,1.91,0,0,0,0-.47Z"/><path class="cls-1" d="M89.56,106c0-.47.07-1.42.07-2V94.2h1.3v4.51h0a1.83,1.83,0,0,1,1.73-1.1c1.29,0,2.26,1.47,2.26,4.16,0,3-1.23,4.33-2.5,4.33a1.71,1.71,0,0,1-1.63-1.21h-.06L90.68,106Zm1.37-2.91a2,2,0,0,0,0,.51c.3,1.22.86,1.44,1.23,1.44,1.05,0,1.42-1.43,1.42-3.17s-.39-3.11-1.45-3.11c-.6,0-1.1.75-1.21,1.47a3.43,3.43,0,0,0,0,.56Z"/><path class="cls-1" d="M99.68,106l-.09-.87h0a1.84,1.84,0,0,1-1.64,1,2.08,2.08,0,0,1-2-2.35c0-2,1.64-3,3.51-3v-.26c0-1.11-.29-1.87-1.32-1.87a2.36,2.36,0,0,0-1.36.43l-.28-.92a3.57,3.57,0,0,1,1.92-.54c1.65,0,2.35,1.08,2.35,2.93v3.57a13.72,13.72,0,0,0,.09,1.86Zm-.2-4.26c-.67,0-2.26.13-2.26,1.92,0,1.07.55,1.45,1,1.45s1.06-.43,1.21-1.23a1.91,1.91,0,0,0,0-.47Z"/><path class="cls-1" d="M102.61,94.2h1.3V106h-1.3Z"/><path class="cls-1" d="M110.81,94.2V104c0,.55,0,1.49.07,2h-1.12l-.09-1h-.06a1.89,1.89,0,0,1-1.72,1.17c-1.39,0-2.39-1.5-2.39-4.22,0-2.91,1.22-4.27,2.48-4.27a1.59,1.59,0,0,1,1.5,1h0V94.2Zm-1.3,6.67a4.87,4.87,0,0,0,0-.54c-.07-.86-.58-1.6-1.22-1.6-1.08,0-1.46,1.51-1.46,3.15s.45,3.13,1.39,3.13c.41,0,1-.22,1.26-1.4a2.34,2.34,0,0,0,.05-.55Z"/><path class="cls-1" d="M113.56,102c0,2.52,1,3,2,3a3,3,0,0,0,1.36-.3l.22,1a3.94,3.94,0,0,1-1.82.4c-2,0-3-1.61-3-4.13s1.13-4.33,2.77-4.33,2.36,1.77,2.36,3.62a7.26,7.26,0,0,1,0,.74Zm2.59-1c0-1.65-.6-2.38-1.22-2.38-.87,0-1.29,1.25-1.35,2.38Z"/><path class="cls-1" d="M126.43,94.2V104c0,.55,0,1.49.07,2h-1.12l-.09-1h-.05a1.91,1.91,0,0,1-1.73,1.17c-1.39,0-2.39-1.5-2.39-4.22,0-2.91,1.22-4.27,2.48-4.27a1.58,1.58,0,0,1,1.5,1h0V94.2Zm-1.29,6.67a3.26,3.26,0,0,0,0-.54c-.07-.86-.58-1.6-1.21-1.6-1.09,0-1.46,1.51-1.46,3.15s.44,3.13,1.38,3.13c.41,0,1-.22,1.27-1.4a2.34,2.34,0,0,0,0-.55Z"/><path class="cls-1" d="M129.19,102c0,2.52,1,3,1.94,3a3,3,0,0,0,1.36-.3l.22,1a3.94,3.94,0,0,1-1.82.4c-2,0-3-1.61-3-4.13s1.14-4.33,2.77-4.33,2.36,1.77,2.36,3.62a7.26,7.26,0,0,1,0,.74Zm2.58-1c0-1.65-.6-2.38-1.22-2.38-.86,0-1.29,1.25-1.35,2.38Z"/><path class="cls-1" d="M137.1,94.2h1.31V106H137.1Z"/><path class="cls-1" d="M143.6,106l-.08-.87h-.05a1.85,1.85,0,0,1-1.65,1,2.08,2.08,0,0,1-1.95-2.35c0-2,1.65-3,3.51-3v-.26c0-1.11-.28-1.87-1.32-1.87a2.39,2.39,0,0,0-1.36.43l-.28-.92a3.61,3.61,0,0,1,1.93-.54c1.64,0,2.35,1.08,2.35,2.93v3.57a13.72,13.72,0,0,0,.09,1.86Zm-.19-4.26c-.67,0-2.26.13-2.26,1.92,0,1.07.54,1.45,1,1.45s1.06-.43,1.21-1.23a2.56,2.56,0,0,0,0-.47Z"/><path class="cls-1" d="M146.31,104.6a2.5,2.5,0,0,0,1.33.43,1.12,1.12,0,0,0,1.22-1.19c0-.62-.23-1.06-1.05-1.61-1.08-.69-1.67-1.4-1.67-2.34a2.22,2.22,0,0,1,2.28-2.28,2.72,2.72,0,0,1,1.46.42l-.35,1a1.83,1.83,0,0,0-1.09-.37,1,1,0,0,0-1.07,1c0,.55.22.86,1,1.42a3,3,0,0,1,1.7,2.51,2.3,2.3,0,0,1-2.48,2.44,2.84,2.84,0,0,1-1.63-.48Z"/><path class="cls-1" d="M154.11,100.31c0-1.27-.05-2-.07-2.56h1.17l.06,1h0a1.88,1.88,0,0,1,1.74-1.18c1.43,0,2.37,1.51,2.37,4.22,0,3.06-1.26,4.27-2.54,4.27a1.56,1.56,0,0,1-1.44-.95h0v4.08h-1.3Zm1.3,2.64a2.92,2.92,0,0,0,.06.68c.26,1.17.84,1.38,1.2,1.38,1.09,0,1.44-1.49,1.44-3.15s-.41-3.13-1.45-3.13c-.6,0-1.13.74-1.21,1.49a4.21,4.21,0,0,0,0,.62Z"/><path class="cls-1" d="M164.16,106l-.09-.87h0a1.84,1.84,0,0,1-1.64,1,2.08,2.08,0,0,1-1.95-2.35c0-2,1.64-3,3.51-3v-.26c0-1.11-.29-1.87-1.32-1.87a2.36,2.36,0,0,0-1.36.43l-.28-.92a3.57,3.57,0,0,1,1.92-.54c1.64,0,2.35,1.08,2.35,2.93v3.57a13.72,13.72,0,0,0,.09,1.86Zm-.2-4.26c-.67,0-2.26.13-2.26,1.92,0,1.07.54,1.45,1,1.45s1.06-.43,1.21-1.23a1.91,1.91,0,0,0,0-.47Z"/><path class="cls-1" d="M167.09,94.2h1.3V106h-1.3Z"/><path class="cls-1" d="M173.59,106l-.09-.87h0a1.86,1.86,0,0,1-1.65,1,2.08,2.08,0,0,1-1.95-2.35c0-2,1.65-3,3.51-3v-.26c0-1.11-.28-1.87-1.32-1.87a2.39,2.39,0,0,0-1.36.43l-.28-.92a3.57,3.57,0,0,1,1.92-.54c1.65,0,2.35,1.08,2.35,2.93v3.57a13.72,13.72,0,0,0,.09,1.86Zm-.19-4.26c-.67,0-2.26.13-2.26,1.92,0,1.07.54,1.45,1,1.45s1-.43,1.21-1.23a2.56,2.56,0,0,0,0-.47Z"/><path class="cls-1" d="M176.3,104.6a2.5,2.5,0,0,0,1.33.43,1.12,1.12,0,0,0,1.22-1.19c0-.62-.23-1.06-1.06-1.61-1.07-.69-1.66-1.4-1.66-2.34a2.22,2.22,0,0,1,2.28-2.28,2.72,2.72,0,0,1,1.46.42l-.35,1a1.83,1.83,0,0,0-1.09-.37,1,1,0,0,0-1.07,1c0,.55.21.86,1,1.42a3,3,0,0,1,1.7,2.51,2.3,2.3,0,0,1-2.48,2.44,2.84,2.84,0,0,1-1.63-.48Z"/><path class="cls-1" d="M189.16,101.85c0,3.18-1.48,4.25-2.74,4.25-1.47,0-2.67-1.34-2.67-4.23s1.34-4.26,2.76-4.26S189.16,99,189.16,101.85Zm-4.1,0c0,1.36.25,3.21,1.42,3.21s1.36-1.92,1.36-3.21-.23-3.19-1.39-3.19S185.06,100.59,185.06,101.85Z"/><path class="cls-1" d="M197.3,105.76a2.81,2.81,0,0,1-1.36.31c-1.8,0-3-1.45-3-4.17,0-2.36,1.19-4.28,3.25-4.28a2.62,2.62,0,0,1,1.16.26L197.08,99a2.05,2.05,0,0,0-.94-.23c-1.31,0-1.9,1.57-1.9,3.18,0,1.92.74,3.08,1.93,3.08a2,2,0,0,0,1-.23Z"/><path class="cls-1" d="M201.73,106l-.09-.87h0a1.85,1.85,0,0,1-1.65,1,2.08,2.08,0,0,1-1.95-2.35c0-2,1.65-3,3.51-3v-.26c0-1.11-.28-1.87-1.31-1.87a2.34,2.34,0,0,0-1.36.43l-.29-.92a3.61,3.61,0,0,1,1.93-.54c1.64,0,2.35,1.08,2.35,2.93v3.57a13.72,13.72,0,0,0,.09,1.86Zm-.2-4.26c-.67,0-2.26.13-2.26,1.92,0,1.07.54,1.45,1,1.45s1.06-.43,1.21-1.23a2.56,2.56,0,0,0,0-.47Z"/><path class="cls-1" d="M204.65,99.87c0-.7-.05-1.51-.07-2.12h1.17l.06,1.28h.05a2,2,0,0,1,1.72-1.42h.27V99h-.27a1.79,1.79,0,0,0-1.58,1.71,5.54,5.54,0,0,0-.05.75V106h-1.3Z"/><path class="cls-1" d="M213.67,97.75c0,.56-.07,1.29-.07,2.56v4.59c0,2.17-.27,3-.81,3.59a2.86,2.86,0,0,1-2.19.88,3.94,3.94,0,0,1-1.81-.41l.3-1a3.42,3.42,0,0,0,1.53.37c1,0,1.68-.66,1.68-2.52V105h0a1.66,1.66,0,0,1-1.57,1c-1.46,0-2.42-1.64-2.42-4.06,0-3,1.37-4.28,2.59-4.28a1.67,1.67,0,0,1,1.53,1.06h0l.06-.92Zm-1.37,2.83a2.26,2.26,0,0,0-.06-.6c-.15-.56-.45-1.25-1.19-1.25-1,0-1.46,1.27-1.46,3.09,0,2.11.66,3.06,1.46,3.06.4,0,.91-.18,1.17-1.18a2.79,2.79,0,0,0,.08-.74Z"/><path class="cls-1" d="M218.67,106l-.08-.87h-.05a1.86,1.86,0,0,1-1.65,1,2.08,2.08,0,0,1-1.95-2.35c0-2,1.65-3,3.51-3v-.26c0-1.11-.28-1.87-1.32-1.87a2.39,2.39,0,0,0-1.36.43l-.28-.92a3.61,3.61,0,0,1,1.93-.54c1.64,0,2.35,1.08,2.35,2.93v3.57a13.72,13.72,0,0,0,.09,1.86Zm-.19-4.26c-.67,0-2.26.13-2.26,1.92,0,1.07.54,1.45,1,1.45s1.06-.43,1.21-1.23a2.56,2.56,0,0,0,0-.47Z"/><path class="cls-1" d="M226.56,94.2V104c0,.55.05,1.49.07,2h-1.12l-.09-1h-.06a1.89,1.89,0,0,1-1.72,1.17c-1.39,0-2.39-1.5-2.39-4.22,0-2.91,1.22-4.27,2.48-4.27a1.59,1.59,0,0,1,1.5,1h0V94.2Zm-1.3,6.67a4.87,4.87,0,0,0,0-.54c-.07-.86-.58-1.6-1.22-1.6-1.08,0-1.46,1.51-1.46,3.15S223,105,224,105c.41,0,1-.22,1.26-1.4a2.34,2.34,0,0,0,0-.55Z"/><path class="cls-1" d="M233.44,101.85c0,3.18-1.48,4.25-2.74,4.25-1.47,0-2.67-1.34-2.67-4.23s1.34-4.26,2.76-4.26S233.44,99,233.44,101.85Zm-4.09,0c0,1.36.24,3.21,1.42,3.21s1.35-1.92,1.35-3.21-.23-3.19-1.39-3.19S229.35,100.59,229.35,101.85Z"/><path class="cls-1" d="M234.89,99.87c0-.7,0-1.51-.07-2.12H236l.06,1.28h0a2,2,0,0,1,1.72-1.42h.28V99h-.27a1.8,1.8,0,0,0-1.59,1.71,5.54,5.54,0,0,0-.05.75V106h-1.3Z"/><path class="cls-1" d="M239.8,102c0,2.52,1,3,1.95,3a3,3,0,0,0,1.36-.3l.22,1a4,4,0,0,1-1.82.4c-2,0-3-1.61-3-4.13s1.13-4.33,2.77-4.33,2.35,1.77,2.35,3.62c0,.32,0,.54,0,.74Zm2.59-1c0-1.65-.6-2.38-1.22-2.38-.87,0-1.3,1.25-1.36,2.38Z"/><path class="cls-1" d="M244.82,104.6a2.56,2.56,0,0,0,1.34.43,1.11,1.11,0,0,0,1.21-1.19c0-.62-.23-1.06-1.05-1.61-1.08-.69-1.67-1.4-1.67-2.34a2.22,2.22,0,0,1,2.28-2.28,2.69,2.69,0,0,1,1.46.42l-.34,1a1.86,1.86,0,0,0-1.1-.37,1,1,0,0,0-1.06,1c0,.55.21.86,1,1.42a3,3,0,0,1,1.7,2.51,2.3,2.3,0,0,1-2.48,2.44,2.78,2.78,0,0,1-1.62-.48Z"/><path class="cls-1" d="M252.91,106V98.74h-1v-1h1v-.51a3.65,3.65,0,0,1,.73-2.47,2.18,2.18,0,0,1,1.64-.7,2.32,2.32,0,0,1,1,.2l-.22,1a1.73,1.73,0,0,0-.71-.14c-.95,0-1.17,1-1.17,2.06v.53h1.51v1h-1.51V106Z"/><path class="cls-1" d="M256.5,99.87c0-.7-.05-1.51-.07-2.12h1.17l.06,1.28h0a2,2,0,0,1,1.73-1.42h.27V99h-.27a1.78,1.78,0,0,0-1.58,1.71,5.54,5.54,0,0,0-.05.75V106h-1.3Z"/><path class="cls-1" d="M265.53,101.85c0,3.18-1.47,4.25-2.73,4.25-1.47,0-2.68-1.34-2.68-4.23s1.35-4.26,2.77-4.26S265.53,99,265.53,101.85Zm-4.09,0c0,1.36.25,3.21,1.42,3.21s1.36-1.92,1.36-3.21-.23-3.19-1.39-3.19S261.44,100.59,261.44,101.85Z"/><path class="cls-1" d="M267,99.87c0-1-.05-1.46-.07-2.12h1.14l.07,1h0a2.08,2.08,0,0,1,1.88-1.12c1.14,0,2,.84,2,2.83V106h-1.31v-5.3c0-1-.19-2-1.14-2-.55,0-1.07.46-1.23,1.34a3.15,3.15,0,0,0-.07.74V106H267Z"/><path class="cls-1" d="M275.38,95.56v2.19H277v1h-1.58v4.89c0,1.07.39,1.35.86,1.35a2.65,2.65,0,0,0,.53,0l.06,1a3,3,0,0,1-1,.13,1.63,1.63,0,0,1-1.29-.5,2.93,2.93,0,0,1-.49-2.06V98.74h-1v-1h1V95.94Z"/><path class="cls-1" d="M281.37,106l-.09-.87h0a1.84,1.84,0,0,1-1.64,1,2.08,2.08,0,0,1-1.95-2.35c0-2,1.64-3,3.51-3v-.26c0-1.11-.28-1.87-1.32-1.87a2.36,2.36,0,0,0-1.36.43l-.28-.92a3.57,3.57,0,0,1,1.92-.54c1.65,0,2.35,1.08,2.35,2.93v3.57a13.72,13.72,0,0,0,.09,1.86Zm-.2-4.26c-.67,0-2.26.13-2.26,1.92,0,1.07.55,1.45,1,1.45s1.06-.43,1.21-1.23a1.91,1.91,0,0,0,0-.47Z"/><path class="cls-1" d="M284.3,94.2h1.31V106H284.3Z"/><path class="cls-1" d="M288.47,102c0,2.52,1,3,1.95,3a3,3,0,0,0,1.36-.3l.21,1a3.9,3.9,0,0,1-1.81.4c-2,0-3-1.61-3-4.13s1.13-4.33,2.77-4.33,2.35,1.77,2.35,3.62c0,.32,0,.54,0,.74Zm2.59-1c0-1.65-.6-2.38-1.22-2.38-.87,0-1.3,1.25-1.36,2.38Z"/><path class="cls-1" d="M293.49,104.6a2.56,2.56,0,0,0,1.34.43,1.11,1.11,0,0,0,1.21-1.19c0-.62-.23-1.06-1.05-1.61-1.08-.69-1.67-1.4-1.67-2.34a2.22,2.22,0,0,1,2.28-2.28,2.72,2.72,0,0,1,1.46.42l-.34,1a1.86,1.86,0,0,0-1.1-.37,1,1,0,0,0-1.06,1c0,.55.21.86,1,1.42a3,3,0,0,1,1.7,2.51,2.3,2.3,0,0,1-2.48,2.44,2.78,2.78,0,0,1-1.62-.48Z"/><path class="cls-1" d="M298.34,105.12a.92.92,0,0,1,.86-1c.52,0,.86.39.86,1a.86.86,0,0,1-.86,1A.89.89,0,0,1,298.34,105.12Z"/><rect class="cls-2" width="14.22" height="12.96"/><rect class="cls-2" x="15.27" width="14.22" height="12.96"/><rect class="cls-2" x="15.27" y="14.32" width="14.22" height="12.96"/></g></g></svg>