<svg xmlns="http://www.w3.org/2000/svg" viewBox="0 0 26.92 45.97"><defs><style>.cls-1,.cls-2{fill:#fff;}.cls-2{stroke:#000;stroke-miterlimit:10;}</style></defs><title>Asset 56mano sola</title><g id="Layer_2" data-name="Layer 2"><g id="Layer_9" data-name="Layer 9"><path d="M3.76,19.32a.68.68,0,0,0,.48-1.16A9.84,9.84,0,1,1,19.12,17a.69.69,0,1,0,1.1.82A11.21,11.21,0,0,0,3.28,3.27a11.21,11.21,0,0,0,0,15.85.71.71,0,0,0,.48.2Z"/><path d="M20.33,18.73H18.18a2.15,2.15,0,0,0-2-1.46h-2V10.7c0-.61-.21-2.62-2.94-2.62-1.82,0-2.77,1-2.81,2.93-.08,3.35-.07,12-.07,15.53-.81-.7-1.84-1.6-2.3-2a2.47,2.47,0,0,0-3.44-.19c-1.44,1.17-.74,3-.19,3.76l7.77,12.2a.67.67,0,0,0,.57.32H23a.68.68,0,0,0,.64-.46c.11-.33,2.74-8,3.14-10.85a33.09,33.09,0,0,0,.05-4.74c0-.69,0-1.34,0-1.83,0-1.81-1.74-2.41-2.69-2.47H22.45a2,2,0,0,0-.55-.94,2.26,2.26,0,0,0-1.57-.59ZM22.58,23V21.65h1.5c.06,0,1.37.1,1.37,1.09,0,.51,0,1.17,0,1.88a34.6,34.6,0,0,1,0,4.49,92.63,92.63,0,0,1-2.92,10.11H11.11L3.39,27.33c0-.06-.9-1.29-.09-1.94A1.15,1.15,0,0,1,5,25.51c.84.76,3.53,3,3.53,3a.69.69,0,0,0,.74.11.68.68,0,0,0,.4-.62c0-.13,0-12.78.06-17,0-.91.15-1.6,1.48-1.6,1.1,0,1.61.4,1.61,1.26V21.56a.69.69,0,0,0,.86.66.7.7,0,0,0,.53-.68V18.59h2a.78.78,0,0,1,.82.8V21.6a.69.69,0,0,0,1.38,0V20H20.3a1,1,0,0,1,.65.23,1.07,1.07,0,0,1,.25.78V23a.69.69,0,0,0,1.38,0Z"/><path class="cls-1" d="M22.58,23V21.65h1.5c.06,0,1.37.1,1.37,1.09,0,.51,0,1.17,0,1.88a34.6,34.6,0,0,1,0,4.49,92.63,92.63,0,0,1-2.92,10.11H11.11L3.39,27.33c0-.06-.9-1.29-.09-1.94A1.15,1.15,0,0,1,5,25.51c.84.76,3.53,3,3.53,3a.69.69,0,0,0,.74.11.68.68,0,0,0,.4-.62c0-.13,0-12.78.06-17,0-.91.15-1.6,1.48-1.6,1.1,0,1.61.4,1.61,1.26V21.56a.69.69,0,0,0,.86.66.7.7,0,0,0,.53-.68V18.59h2a.78.78,0,0,1,.82.8V21.6a.69.69,0,0,0,1.38,0V20H20.3a1,1,0,0,1,.65.23,1.07,1.07,0,0,1,.25.78V23a.69.69,0,0,0,1.38,0Z"/><rect class="cls-2" x="10.69" y="39.47" width="13" height="6"/></g></g></svg>