<svg xmlns="http://www.w3.org/2000/svg" viewBox="0 0 142.66 135.84"><defs><style>.cls-1{fill:#1d1d1b;}</style></defs><title>Asset 50NUEVOCONECTAR</title><g id="Layer_2" data-name="Layer 2"><g id="Layer_7" data-name="Layer 7"><path class="cls-1" d="M4.57,7.72H2.05V11.5H4.92v1H.9v-10H4.73v1H2.05V6.74H4.57Z" transform="translate(-0.19 -2.17)"/><path class="cls-1" d="M6,2.17H7.11V12.49H6Z" transform="translate(-0.19 -2.17)"/><path class="cls-1" d="M14.69,12.32a2.64,2.64,0,0,1-1.2.26c-1.57,0-2.64-1.27-2.64-3.66,0-2.07,1.05-3.75,2.85-3.75a2.2,2.2,0,0,1,1,.23l-.23.93a1.92,1.92,0,0,0-.82-.19C12.52,6.14,12,7.51,12,8.93c0,1.68.65,2.7,1.7,2.7a1.76,1.76,0,0,0,.83-.2Z" transform="translate(-0.19 -2.17)"/><path class="cls-1" d="M20,8.88c0,2.79-1.29,3.73-2.4,3.73-1.29,0-2.35-1.18-2.35-3.71s1.19-3.74,2.43-3.74S20,6.37,20,8.88Zm-3.59,0c0,1.2.22,2.82,1.25,2.82S18.86,10,18.86,8.88s-.2-2.8-1.22-2.8S16.42,7.78,16.42,8.88Z" transform="translate(-0.19 -2.17)"/><path class="cls-1" d="M21.3,7.14c0-.85,0-1.28-.06-1.86h1l.06.86h0a1.82,1.82,0,0,1,1.65-1c1,0,1.75.73,1.75,2.48v4.85H24.59V7.84c0-.86-.17-1.71-1-1.71-.48,0-.93.4-1.08,1.17a3.06,3.06,0,0,0-.06.65v4.54H21.3Z" transform="translate(-0.19 -2.17)"/><path class="cls-1" d="M31.78,8.88c0,2.79-1.3,3.73-2.4,3.73-1.3,0-2.35-1.18-2.35-3.71s1.18-3.74,2.42-3.74S31.78,6.37,31.78,8.88Zm-3.6,0c0,1.2.22,2.82,1.25,2.82S30.62,10,30.62,8.88s-.2-2.8-1.22-2.8S28.18,7.78,28.18,8.88Z" transform="translate(-0.19 -2.17)"/><path class="cls-1" d="M36.58,12.32a2.56,2.56,0,0,1-1.19.26c-1.58,0-2.65-1.27-2.65-3.66,0-2.07,1.06-3.75,2.86-3.75a2.2,2.2,0,0,1,1,.23l-.23.93a1.92,1.92,0,0,0-.82-.19c-1.15,0-1.67,1.37-1.67,2.79,0,1.68.65,2.7,1.7,2.7a1.78,1.78,0,0,0,.83-.2Z" transform="translate(-0.19 -2.17)"/><path class="cls-1" d="M38.82,3.41a.68.68,0,0,1-.71.74.66.66,0,0,1-.65-.74.68.68,0,1,1,1.36,0Zm-1.25,9.08V5.28h1.14v7.21Z" transform="translate(-0.19 -2.17)"/><path class="cls-1" d="M40.32,7.14c0-.85,0-1.28-.06-1.86h1l.06.89h0a1.78,1.78,0,0,1,1.62-1,1.51,1.51,0,0,1,1.52,1.1h0a2.26,2.26,0,0,1,.71-.83,1.81,1.81,0,0,1,1-.27c1,0,1.74.71,1.74,2.55v4.78H46.82V8c0-.94-.14-1.85-1-1.85-.48,0-.89.4-1.05,1.08a3.3,3.3,0,0,0,0,.65v4.64H43.57V7.76c0-.8-.14-1.64-1-1.64-.48,0-.94.4-1.08,1.17a4,4,0,0,0,0,.62v4.58H40.32Z" transform="translate(-0.19 -2.17)"/><path class="cls-1" d="M50.82,3.41a.68.68,0,0,1-.71.74.66.66,0,0,1-.65-.74.68.68,0,1,1,1.36,0Zm-1.25,9.08V5.28h1.14v7.21Z" transform="translate(-0.19 -2.17)"/><path class="cls-1" d="M53.13,9c0,2.21.88,2.68,1.7,2.68A2.6,2.6,0,0,0,56,11.4l.19.83a3.42,3.42,0,0,1-1.59.35C52.9,12.58,52,11.17,52,9s1-3.8,2.43-3.8S56.5,6.71,56.5,8.34c0,.28,0,.47,0,.65Zm2.27-.85c0-1.45-.53-2.09-1.07-2.09-.76,0-1.14,1.1-1.19,2.09Z" transform="translate(-0.19 -2.17)"/><path class="cls-1" d="M57.74,7.14c0-.85,0-1.28-.06-1.86h1l.06.86h0a1.82,1.82,0,0,1,1.65-1c1,0,1.75.73,1.75,2.48v4.85H61V7.84c0-.86-.16-1.71-1-1.71-.48,0-.94.4-1.08,1.17a3.06,3.06,0,0,0-.06.65v4.54H57.74Z" transform="translate(-0.19 -2.17)"/><path class="cls-1" d="M65.1,3.36V5.28h1.38v.87H65.1v4.29c0,.94.34,1.19.75,1.19a2.12,2.12,0,0,0,.47-.05l.05.89a2.46,2.46,0,0,1-.86.11,1.46,1.46,0,0,1-1.13-.43A2.59,2.59,0,0,1,64,10.34V6.15h-.89V5.28H64V3.69Z" transform="translate(-0.19 -2.17)"/><path class="cls-1" d="M71.81,8.88c0,2.79-1.3,3.73-2.4,3.73-1.29,0-2.35-1.18-2.35-3.71s1.18-3.74,2.43-3.74S71.81,6.37,71.81,8.88Zm-3.59,0c0,1.2.21,2.82,1.24,2.82s1.2-1.69,1.2-2.82-.21-2.8-1.22-2.8S68.22,7.78,68.22,8.88Z" transform="translate(-0.19 -2.17)"/><path class="cls-1" d="M79.79,2.17v8.6c0,.48,0,1.3.06,1.72h-1l-.08-.9h-.05a1.67,1.67,0,0,1-1.52,1c-1.22,0-2.1-1.32-2.1-3.7,0-2.56,1.07-3.75,2.18-3.75A1.39,1.39,0,0,1,78.62,6h0V2.17ZM78.65,8a3.93,3.93,0,0,0,0-.48c-.06-.75-.51-1.4-1.07-1.4-1,0-1.28,1.33-1.28,2.77s.39,2.74,1.22,2.74c.35,0,.84-.19,1.11-1.23a2.27,2.27,0,0,0,0-.48Z" transform="translate(-0.19 -2.17)"/><path class="cls-1" d="M82.21,9c0,2.21.88,2.68,1.7,2.68a2.6,2.6,0,0,0,1.2-.27l.19.83a3.44,3.44,0,0,1-1.6.35c-1.72,0-2.62-1.41-2.62-3.62s1-3.8,2.43-3.8,2.07,1.55,2.07,3.18c0,.28,0,.47,0,.65Zm2.26-.85c0-1.45-.52-2.09-1.07-2.09-.76,0-1.13,1.1-1.18,2.09Z" transform="translate(-0.19 -2.17)"/><path class="cls-1" d="M86.81,2.17H88V12.49H86.81Z" transform="translate(-0.19 -2.17)"/><path class="cls-1" d="M92.61,5.28l1,4.14c.14.57.21,1,.3,1.49h0c.08-.41.2-.95.31-1.48l.86-4.15h1.13L95,9.91a13.11,13.11,0,0,1-1.8,4.66,3.72,3.72,0,0,1-1.3,1.1l-.42-1a3.38,3.38,0,0,0,1-.91,4.37,4.37,0,0,0,.65-1.21,1.07,1.07,0,0,0,.08-.36.83.83,0,0,0,0-.27L91.4,5.28Z" transform="translate(-0.19 -2.17)"/><path class="cls-1" d="M99.9,12.49l-.08-.76h0a1.62,1.62,0,0,1-1.45.88,1.83,1.83,0,0,1-1.71-2.06c0-1.8,1.45-2.6,3.08-2.61V7.71c0-1-.24-1.65-1.15-1.65a2.14,2.14,0,0,0-1.2.38l-.25-.81a3.18,3.18,0,0,1,1.69-.47c1.45,0,2.07.94,2.07,2.57v3.13a13.9,13.9,0,0,0,.07,1.63Zm-.17-3.73c-.59,0-2,.11-2,1.68,0,.94.48,1.27.89,1.27s.93-.37,1.06-1.07a2.06,2.06,0,0,0,0-.42Z" transform="translate(-0.19 -2.17)"/><path class="cls-1" d="M106,12.32a2.64,2.64,0,0,1-1.2.26c-1.57,0-2.64-1.27-2.64-3.66,0-2.07,1-3.75,2.85-3.75a2.2,2.2,0,0,1,1,.23l-.23.93a1.92,1.92,0,0,0-.82-.19c-1.15,0-1.67,1.37-1.67,2.79,0,1.68.65,2.7,1.7,2.7a1.76,1.76,0,0,0,.83-.2Z" transform="translate(-0.19 -2.17)"/><path class="cls-1" d="M108.23,3.41a.68.68,0,0,1-.71.74.66.66,0,0,1-.65-.74.68.68,0,1,1,1.36,0ZM107,12.49V5.28h1.15v7.21Z" transform="translate(-0.19 -2.17)"/><path class="cls-1" d="M109.73,7.14c0-.85,0-1.28-.06-1.86h1l0,.89h0a1.79,1.79,0,0,1,1.63-1,1.5,1.5,0,0,1,1.51,1.1h0a2.26,2.26,0,0,1,.71-.83,1.85,1.85,0,0,1,1-.27c1,0,1.73.71,1.73,2.55v4.78h-1.14V8c0-.94-.14-1.85-1-1.85-.49,0-.9.4-1.06,1.08a3.3,3.3,0,0,0,0,.65v4.64H113V7.76c0-.8-.14-1.64-1-1.64-.48,0-.94.4-1.07,1.17a3.05,3.05,0,0,0,0,.62v4.58h-1.14Z" transform="translate(-0.19 -2.17)"/><path class="cls-1" d="M120.23,3.41a.68.68,0,0,1-.71.74.66.66,0,0,1-.65-.74.68.68,0,1,1,1.36,0ZM119,12.49V5.28h1.15v7.21Z" transform="translate(-0.19 -2.17)"/><path class="cls-1" d="M122.54,9c0,2.21.88,2.68,1.71,2.68a2.55,2.55,0,0,0,1.19-.27l.19.83a3.42,3.42,0,0,1-1.59.35c-1.73,0-2.63-1.41-2.63-3.62s1-3.8,2.44-3.8,2.06,1.55,2.06,3.18c0,.28,0,.47,0,.65Zm2.27-.85c0-1.45-.53-2.09-1.07-2.09-.76,0-1.14,1.1-1.19,2.09Z" transform="translate(-0.19 -2.17)"/><path class="cls-1" d="M127.15,7.14c0-.85,0-1.28-.06-1.86h1l.06.86h0a1.82,1.82,0,0,1,1.65-1c1,0,1.75.73,1.75,2.48v4.85h-1.14V7.84c0-.86-.17-1.71-1-1.71-.48,0-.94.4-1.08,1.17a3.06,3.06,0,0,0-.06.65v4.54h-1.14Z" transform="translate(-0.19 -2.17)"/><path class="cls-1" d="M134.51,3.36V5.28h1.39v.87h-1.39v4.29c0,.94.34,1.19.75,1.19a2,2,0,0,0,.47-.05l.05.89a2.36,2.36,0,0,1-.85.11,1.43,1.43,0,0,1-1.13-.43,2.58,2.58,0,0,1-.43-1.81V6.15h-.89V5.28h.89V3.69Z" transform="translate(-0.19 -2.17)"/><path class="cls-1" d="M141.22,8.88c0,2.79-1.29,3.73-2.4,3.73-1.29,0-2.35-1.18-2.35-3.71s1.18-3.74,2.43-3.74S141.22,6.37,141.22,8.88Zm-3.59,0c0,1.2.21,2.82,1.25,2.82s1.19-1.69,1.19-2.82-.2-2.8-1.22-2.8S137.63,7.78,137.63,8.88Z" transform="translate(-0.19 -2.17)"/><path class="cls-1" d="M1.4,23.19l1,4.15c.13.56.2,1,.3,1.49h0c.07-.41.2-1,.31-1.48l.85-4.16H5L3.81,27.82A13.3,13.3,0,0,1,2,32.48a3.81,3.81,0,0,1-1.3,1.1l-.43-1a3.63,3.63,0,0,0,1-.9A4.86,4.86,0,0,0,2,30.48a1.07,1.07,0,0,0,.08-.36.84.84,0,0,0,0-.27L.19,23.19Z" transform="translate(-0.19 -2.17)"/><path class="cls-1" d="M8.31,20.08H9.46V30.41H8.31Z" transform="translate(-0.19 -2.17)"/><path class="cls-1" d="M15.6,26.79c0,2.79-1.3,3.74-2.4,3.74-1.3,0-2.35-1.18-2.35-3.72s1.18-3.74,2.42-3.74S15.6,24.28,15.6,26.79Zm-3.6,0c0,1.2.22,2.82,1.25,2.82s1.19-1.69,1.19-2.82-.2-2.8-1.22-2.8S12,25.69,12,26.79Z" transform="translate(-0.19 -2.17)"/><path class="cls-1" d="M16.68,29.21a2.28,2.28,0,0,0,1.17.38,1,1,0,0,0,1.07-1.05c0-.55-.2-.93-.92-1.41-.95-.61-1.47-1.23-1.47-2.06a2,2,0,0,1,2-2,2.44,2.44,0,0,1,1.29.37l-.31.87a1.63,1.63,0,0,0-1-.33.89.89,0,0,0-.93.92c0,.49.18.76.89,1.25a2.66,2.66,0,0,1,1.5,2.2,2,2,0,0,1-2.18,2.15,2.52,2.52,0,0,1-1.43-.42Z" transform="translate(-0.19 -2.17)"/><path class="cls-1" d="M26.4,30.41l-.08-.77h0a1.63,1.63,0,0,1-1.45.89,1.84,1.84,0,0,1-1.71-2.07c0-1.8,1.45-2.6,3.08-2.61v-.23C26.2,24.64,26,24,25,24a2.12,2.12,0,0,0-1.19.37l-.25-.81a3.25,3.25,0,0,1,1.69-.47c1.45,0,2.06.95,2.06,2.57v3.13a12.17,12.17,0,0,0,.08,1.64Zm-.18-3.74c-.58,0-2,.12-2,1.69,0,.93.48,1.27.89,1.27s.92-.38,1.06-1.08a2,2,0,0,0,0-.42Z" transform="translate(-0.19 -2.17)"/><path class="cls-1" d="M29,20.08h1.15V30.41H29Z" transform="translate(-0.19 -2.17)"/><path class="cls-1" d="M36.24,23.19c0,.5-.06,1.14-.06,2.25v4c0,1.9-.24,2.62-.72,3.14a2.49,2.49,0,0,1-1.91.77A3.54,3.54,0,0,1,32,33l.27-.91a3,3,0,0,0,1.35.32c.91,0,1.47-.57,1.47-2.21v-.73h0a1.44,1.44,0,0,1-1.38.88c-1.28,0-2.12-1.44-2.12-3.56,0-2.67,1.2-3.76,2.28-3.76a1.47,1.47,0,0,1,1.34.93h0l.05-.81ZM35,25.68a1.76,1.76,0,0,0-.06-.53c-.12-.49-.39-1.1-1-1.1-.83,0-1.28,1.12-1.28,2.72,0,1.85.58,2.68,1.28,2.68.35,0,.8-.16,1-1a2.53,2.53,0,0,0,.07-.65Z" transform="translate(-0.19 -2.17)"/><path class="cls-1" d="M42.21,26.79c0,2.79-1.3,3.74-2.4,3.74-1.29,0-2.35-1.18-2.35-3.72s1.18-3.74,2.43-3.74S42.21,24.28,42.21,26.79Zm-3.59,0c0,1.2.21,2.82,1.24,2.82s1.19-1.69,1.19-2.82-.2-2.8-1.21-2.8S38.62,25.69,38.62,26.79Z" transform="translate(-0.19 -2.17)"/><path class="cls-1" d="M43.49,25.05c0-.61,0-1.32-.06-1.86h1l.06,1.13h0a1.73,1.73,0,0,1,1.51-1.25h.24v1.18h-.24a1.57,1.57,0,0,0-1.39,1.5,4.33,4.33,0,0,0,0,.66v4H43.49Z" transform="translate(-0.19 -2.17)"/><path class="cls-1" d="M48.41,21.32a.66.66,0,0,1-.7.74.68.68,0,0,1-.66-.74.69.69,0,0,1,.68-.75A.67.67,0,0,1,48.41,21.32Zm-1.24,9.09V23.19h1.14v7.22Z" transform="translate(-0.19 -2.17)"/><path class="cls-1" d="M51.32,21.27v1.92h1.39v.87H51.32v4.29c0,.94.34,1.19.75,1.19a2.11,2.11,0,0,0,.47,0l.05.88a2.36,2.36,0,0,1-.85.12,1.44,1.44,0,0,1-1.13-.44,2.58,2.58,0,0,1-.43-1.81V24.06h-.89v-.87h.89V21.6Z" transform="translate(-0.19 -2.17)"/><path class="cls-1" d="M53.72,25.05c0-.85,0-1.28-.06-1.86h1l.06.89h0a1.76,1.76,0,0,1,1.62-1,1.5,1.5,0,0,1,1.51,1.1h0a2.15,2.15,0,0,1,.71-.82,1.77,1.77,0,0,1,1-.28c1,0,1.73.71,1.73,2.55v4.79H60.22V25.89c0-.95-.13-1.86-1-1.86-.48,0-.9.41-1.06,1.08a3.34,3.34,0,0,0,0,.66v4.64H57V25.67c0-.79-.14-1.64-1-1.64-.47,0-.94.41-1.07,1.18a2.9,2.9,0,0,0,0,.61v4.59H53.72Z" transform="translate(-0.19 -2.17)"/><path class="cls-1" d="M67.41,26.79c0,2.79-1.3,3.74-2.4,3.74-1.3,0-2.35-1.18-2.35-3.72s1.18-3.74,2.42-3.74S67.41,24.28,67.41,26.79Zm-3.6,0c0,1.2.22,2.82,1.25,2.82s1.19-1.69,1.19-2.82S66.05,24,65,24,63.81,25.69,63.81,26.79Z" transform="translate(-0.19 -2.17)"/><path class="cls-1" d="M68.49,29.21a2.28,2.28,0,0,0,1.17.38,1,1,0,0,0,1.07-1.05c0-.55-.2-.93-.92-1.41-1-.61-1.47-1.23-1.47-2.06a2,2,0,0,1,2-2,2.44,2.44,0,0,1,1.29.37l-.31.87a1.63,1.63,0,0,0-1-.33.89.89,0,0,0-.93.92c0,.49.18.76.89,1.25a2.66,2.66,0,0,1,1.5,2.2,2,2,0,0,1-2.18,2.15,2.52,2.52,0,0,1-1.43-.42Z" transform="translate(-0.19 -2.17)"/><path class="cls-1" d="M79.7,20.08v8.6c0,.48,0,1.31.06,1.73h-1l-.07-.91h0a1.68,1.68,0,0,1-1.52,1c-1.22,0-2.1-1.32-2.1-3.71,0-2.55,1.07-3.75,2.18-3.75a1.39,1.39,0,0,1,1.32.85h0V20.08Zm-1.14,5.85a3.7,3.7,0,0,0,0-.47c-.07-.76-.51-1.41-1.07-1.41-1,0-1.28,1.33-1.28,2.77s.39,2.74,1.22,2.74c.35,0,.84-.18,1.1-1.22a1.82,1.82,0,0,0,0-.48Z" transform="translate(-0.19 -2.17)"/><path class="cls-1" d="M82.12,26.9c0,2.21.87,2.68,1.7,2.68a2.63,2.63,0,0,0,1.2-.27l.19.84a3.56,3.56,0,0,1-1.6.35c-1.73,0-2.62-1.42-2.62-3.63s1-3.8,2.43-3.8,2.07,1.55,2.07,3.18c0,.28,0,.48,0,.65Zm2.26-.85c0-1.44-.52-2.08-1.07-2.08-.76,0-1.13,1.09-1.18,2.08Z" transform="translate(-0.19 -2.17)"/><path class="cls-1" d="M89.07,25.05c0-.85,0-1.28-.06-1.86h1l0,.89h0a1.79,1.79,0,0,1,1.63-1,1.5,1.5,0,0,1,1.51,1.1h0a2.15,2.15,0,0,1,.71-.82,1.77,1.77,0,0,1,1-.28c1,0,1.73.71,1.73,2.55v4.79H95.57V25.89c0-.95-.14-1.86-1-1.86-.49,0-.9.41-1.06,1.08a3.34,3.34,0,0,0-.05.66v4.64H92.32V25.67c0-.79-.14-1.64-1-1.64-.48,0-.94.41-1.07,1.18a2.9,2.9,0,0,0-.05.61v4.59H89.07Z" transform="translate(-0.19 -2.17)"/><path class="cls-1" d="M101.18,30.41l-.08-.77h0a1.62,1.62,0,0,1-1.44.89,1.84,1.84,0,0,1-1.72-2.07c0-1.8,1.45-2.6,3.09-2.61v-.23c0-1-.25-1.64-1.16-1.64a2.16,2.16,0,0,0-1.2.37l-.24-.81a3.21,3.21,0,0,1,1.68-.47c1.45,0,2.07.95,2.07,2.57v3.13a12.17,12.17,0,0,0,.08,1.64ZM101,26.67c-.59,0-2,.12-2,1.69,0,.93.48,1.27.89,1.27s.93-.38,1.06-1.08a2.06,2.06,0,0,0,0-.42Z" transform="translate(-0.19 -2.17)"/><path class="cls-1" d="M107.28,30.23a2.47,2.47,0,0,1-1.2.27c-1.57,0-2.64-1.28-2.64-3.66,0-2.07,1-3.76,2.86-3.76a2.18,2.18,0,0,1,1,.23l-.22.94a1.85,1.85,0,0,0-.83-.2c-1.15,0-1.67,1.37-1.67,2.79,0,1.69.65,2.7,1.7,2.7a1.76,1.76,0,0,0,.83-.2Z" transform="translate(-0.19 -2.17)"/><path class="cls-1" d="M108.26,20.08h1.15V24h0a2.16,2.16,0,0,1,.61-.63,1.73,1.73,0,0,1,1-.26c.91,0,1.69.72,1.69,2.55v4.79h-1.15V25.75c0-.89-.2-1.71-1-1.71-.54,0-1,.39-1.12,1.15a3.19,3.19,0,0,0,0,.54v4.68h-1.15Z" transform="translate(-0.19 -2.17)"/><path class="cls-1" d="M115.56,21.32a.68.68,0,0,1-.71.74.66.66,0,0,1-.65-.74.68.68,0,1,1,1.36,0Zm-1.25,9.09V23.19h1.14v7.22Z" transform="translate(-0.19 -2.17)"/><path class="cls-1" d="M117.06,25.05c0-.85,0-1.28-.06-1.86h1l.06.87h0a1.83,1.83,0,0,1,1.65-1c1,0,1.75.74,1.75,2.49v4.85h-1.15V25.76c0-.87-.16-1.72-1-1.72-.48,0-.94.4-1.08,1.17a3.06,3.06,0,0,0-.06.65v4.55h-1.14Z" transform="translate(-0.19 -2.17)"/><path class="cls-1" d="M123.91,26.9c0,2.21.88,2.68,1.71,2.68a2.55,2.55,0,0,0,1.19-.27l.19.84a3.52,3.52,0,0,1-1.59.35c-1.73,0-2.63-1.42-2.63-3.63s1-3.8,2.44-3.8,2.07,1.55,2.07,3.18a5.55,5.55,0,0,1,0,.65Zm2.27-.85c0-1.44-.52-2.08-1.07-2.08-.76,0-1.14,1.09-1.19,2.08Z" transform="translate(-0.19 -2.17)"/><path class="cls-1" d="M.8,38H2V48.32H.8Z" transform="translate(-0.19 -2.17)"/><path class="cls-1" d="M4.47,44.81c0,2.22.87,2.68,1.7,2.68a2.6,2.6,0,0,0,1.2-.27l.19.84a3.44,3.44,0,0,1-1.6.35c-1.72,0-2.62-1.41-2.62-3.62S4.33,41,5.77,41s2.07,1.56,2.07,3.19c0,.28,0,.47,0,.64ZM6.73,44c0-1.45-.52-2.09-1.07-2.09C4.9,41.88,4.53,43,4.48,44Z" transform="translate(-0.19 -2.17)"/><path class="cls-1" d="M11.93,48.32l-.08-.76h0a1.62,1.62,0,0,1-1.44.88,1.83,1.83,0,0,1-1.71-2.06c0-1.81,1.44-2.6,3.08-2.62v-.23c0-1-.25-1.64-1.16-1.64a2.12,2.12,0,0,0-1.19.37l-.25-.8A3.12,3.12,0,0,1,10.83,41c1.44,0,2.06,1,2.06,2.58v3.13A12.11,12.11,0,0,0,13,48.32Zm-.17-3.74c-.59,0-2,.12-2,1.69,0,.94.47,1.27.88,1.27s.93-.37,1.07-1.08a2.93,2.93,0,0,0,0-.41Z" transform="translate(-0.19 -2.17)"/><path class="cls-1" d="M14.5,43c0-.61,0-1.33-.06-1.87h1l.06,1.13h0A1.75,1.75,0,0,1,17.07,41l.24,0v1.17h-.23a1.57,1.57,0,0,0-1.4,1.51,6.12,6.12,0,0,0,0,.65v4H14.5Z" transform="translate(-0.19 -2.17)"/><path class="cls-1" d="M18.18,43c0-.85,0-1.29-.06-1.87h1l.06.87h0a1.83,1.83,0,0,1,1.65-1c1,0,1.75.74,1.75,2.49v4.85H21.47V43.67c0-.86-.17-1.72-1-1.72-.48,0-.93.4-1.08,1.18a3,3,0,0,0-.06.64v4.55H18.18Z" transform="translate(-0.19 -2.17)"/><path class="cls-1" d="M25.47,39.23a.68.68,0,0,1-.7.75.75.75,0,0,1,0-1.5A.68.68,0,0,1,25.47,39.23Zm-1.24,9.09V41.1h1.14v7.22Z" transform="translate(-0.19 -2.17)"/><path class="cls-1" d="M27,43c0-.85,0-1.29-.06-1.87h1L28,42h0a1.84,1.84,0,0,1,1.66-1c1,0,1.74.74,1.74,2.49v4.85H30.26V43.67c0-.86-.17-1.72-1-1.72-.49,0-.94.4-1.09,1.18a3,3,0,0,0-.05.64v4.55H27Z" transform="translate(-0.19 -2.17)"/><path class="cls-1" d="M37.44,41.1c0,.5-.06,1.14-.06,2.25v4c0,1.9-.24,2.62-.72,3.15a2.53,2.53,0,0,1-1.92.77A3.46,3.46,0,0,1,33.15,51l.27-.9a3.09,3.09,0,0,0,1.34.32c.91,0,1.48-.58,1.48-2.21v-.73h0a1.47,1.47,0,0,1-1.38.87c-1.28,0-2.12-1.44-2.12-3.56,0-2.66,1.2-3.76,2.27-3.76a1.47,1.47,0,0,1,1.34.93h0l.06-.81Zm-1.2,2.49a2.26,2.26,0,0,0-.06-.53c-.13-.49-.39-1.1-1-1.1-.82,0-1.27,1.12-1.27,2.72,0,1.85.58,2.69,1.27,2.69.36,0,.8-.16,1-1a2.11,2.11,0,0,0,.08-.65Z" transform="translate(-0.19 -2.17)"/><path class="cls-1" d="M41.12,47.12a2.25,2.25,0,0,0,1.17.38,1,1,0,0,0,1.07-1c0-.54-.21-.93-.93-1.41C41.49,44.43,41,43.81,41,43a2,2,0,0,1,2-2,2.4,2.4,0,0,1,1.28.37l-.3.87a1.65,1.65,0,0,0-1-.32.89.89,0,0,0-.94.92c0,.48.19.76.9,1.24a2.65,2.65,0,0,1,1.49,2.21,2,2,0,0,1-2.17,2.14A2.42,2.42,0,0,1,40.84,48Z" transform="translate(-0.19 -2.17)"/><path class="cls-1" d="M46.44,44.81c0,2.22.88,2.68,1.71,2.68a2.55,2.55,0,0,0,1.19-.27l.19.84a3.39,3.39,0,0,1-1.59.35c-1.73,0-2.63-1.41-2.63-3.62s1-3.81,2.44-3.81,2.06,1.56,2.06,3.19a5.74,5.74,0,0,1,0,.64ZM48.71,44c0-1.45-.53-2.09-1.07-2.09-.76,0-1.14,1.09-1.19,2.09Z" transform="translate(-0.19 -2.17)"/><path class="cls-1" d="M53.38,43.35c0-1.11,0-1.74-.06-2.25h1l.06.92h0A1.66,1.66,0,0,1,56,41c1.26,0,2.09,1.33,2.09,3.71,0,2.68-1.11,3.75-2.23,3.75a1.39,1.39,0,0,1-1.27-.83h0v3.58H53.38Zm1.14,2.32a2.84,2.84,0,0,0,.06.6c.22,1,.74,1.21,1.05,1.21,1,0,1.26-1.31,1.26-2.76S56.53,42,55.62,42c-.52,0-1,.66-1,1.31a2.5,2.5,0,0,0,0,.55Z" transform="translate(-0.19 -2.17)"/><path class="cls-1" d="M63.68,46.35c0,.8,0,1.43.06,2h-1l-.08-.75h0a1.9,1.9,0,0,1-1.55.87c-1.26,0-1.76-1-1.76-2.78V41.1h1.15v4.4c0,1.13.18,2,1,2a1.12,1.12,0,0,0,1-1,2.56,2.56,0,0,0,.07-.64V41.1h1.14Z" transform="translate(-0.19 -2.17)"/><path class="cls-1" d="M66.1,44.81c0,2.22.88,2.68,1.71,2.68A2.55,2.55,0,0,0,69,47.22l.19.84a3.39,3.39,0,0,1-1.59.35C65.87,48.41,65,47,65,44.79S66,41,67.41,41s2.06,1.56,2.06,3.19a5.74,5.74,0,0,1,0,.64ZM68.37,44c0-1.45-.53-2.09-1.07-2.09-.76,0-1.14,1.09-1.19,2.09Z" transform="translate(-0.19 -2.17)"/><path class="cls-1" d="M75.06,38v8.6c0,.49,0,1.31.06,1.73h-1l-.08-.9h0a1.67,1.67,0,0,1-1.51,1c-1.23,0-2.11-1.32-2.11-3.7,0-2.56,1.07-3.76,2.18-3.76a1.4,1.4,0,0,1,1.32.86h0V38Zm-1.14,5.86a3.77,3.77,0,0,0,0-.48c-.06-.75-.51-1.41-1.07-1.41-1,0-1.28,1.33-1.28,2.77s.39,2.75,1.22,2.75c.35,0,.85-.19,1.11-1.23a2.39,2.39,0,0,0,0-.48Z" transform="translate(-0.19 -2.17)"/><path class="cls-1" d="M77.48,44.81c0,2.22.88,2.68,1.7,2.68a2.6,2.6,0,0,0,1.2-.27l.19.84a3.44,3.44,0,0,1-1.6.35c-1.72,0-2.62-1.41-2.62-3.62s1-3.81,2.43-3.81,2.07,1.56,2.07,3.19c0,.28,0,.47,0,.64ZM79.75,44c0-1.45-.53-2.09-1.08-2.09-.75,0-1.13,1.09-1.18,2.09Z" transform="translate(-0.19 -2.17)"/><path class="cls-1" d="M82.09,43c0-.85,0-1.29-.06-1.87h1l.06.87h0a1.83,1.83,0,0,1,1.65-1c1,0,1.75.74,1.75,2.49v4.85H85.37V43.67c0-.86-.16-1.72-1-1.72-.48,0-.94.4-1.08,1.18a3,3,0,0,0-.06.64v4.55H82.09Z" transform="translate(-0.19 -2.17)"/><path class="cls-1" d="M94,48.14a2.5,2.5,0,0,1-1.2.27c-1.57,0-2.64-1.27-2.64-3.66,0-2.07,1-3.76,2.85-3.76a2.33,2.33,0,0,1,1,.23l-.23.94A1.76,1.76,0,0,0,93,42c-1.15,0-1.67,1.38-1.67,2.79,0,1.69.65,2.7,1.7,2.7a1.75,1.75,0,0,0,.83-.19Z" transform="translate(-0.19 -2.17)"/><path class="cls-1" d="M99.33,44.7c0,2.8-1.3,3.74-2.41,3.74-1.29,0-2.34-1.18-2.34-3.72S95.76,41,97,41,99.33,42.19,99.33,44.7Zm-3.6,0c0,1.19.22,2.81,1.25,2.81s1.19-1.68,1.19-2.81S98,41.9,97,41.9,95.73,43.6,95.73,44.71Z" transform="translate(-0.19 -2.17)"/><path class="cls-1" d="M100.61,43c0-.85,0-1.29-.06-1.87h1l.06.87h0a1.83,1.83,0,0,1,1.66-1c1,0,1.74.74,1.74,2.49v4.85H103.9V43.67c0-.86-.17-1.72-1-1.72-.48,0-.93.4-1.08,1.18a3,3,0,0,0-.06.64v4.55h-1.14Z" transform="translate(-0.19 -2.17)"/><path class="cls-1" d="M107.47,44.81c0,2.22.88,2.68,1.7,2.68a2.6,2.6,0,0,0,1.2-.27l.19.84a3.44,3.44,0,0,1-1.6.35c-1.72,0-2.62-1.41-2.62-3.62s1-3.81,2.43-3.81,2.07,1.56,2.07,3.19c0,.28,0,.47,0,.64Zm2.27-.84c0-1.45-.53-2.09-1.07-2.09-.76,0-1.14,1.09-1.19,2.09Z" transform="translate(-0.19 -2.17)"/><path class="cls-1" d="M115.6,48.14a2.5,2.5,0,0,1-1.2.27c-1.57,0-2.64-1.27-2.64-3.66,0-2.07,1-3.76,2.86-3.76a2.32,2.32,0,0,1,1,.23l-.23.94a1.76,1.76,0,0,0-.82-.2c-1.15,0-1.67,1.38-1.67,2.79,0,1.69.65,2.7,1.7,2.7a1.75,1.75,0,0,0,.83-.19Z" transform="translate(-0.19 -2.17)"/><path class="cls-1" d="M118.21,39.18V41.1h1.39V42h-1.39v4.3c0,.94.34,1.18.76,1.18a2.07,2.07,0,0,0,.46,0l0,.89a2.61,2.61,0,0,1-.85.11A1.4,1.4,0,0,1,117.5,48a2.58,2.58,0,0,1-.43-1.81V42h-.88V41.1h.88V39.52Z" transform="translate(-0.19 -2.17)"/><path class="cls-1" d="M123.47,48.32l-.08-.76h0a1.62,1.62,0,0,1-1.44.88,1.83,1.83,0,0,1-1.72-2.06c0-1.81,1.45-2.6,3.09-2.62v-.23c0-1-.25-1.64-1.16-1.64a2.16,2.16,0,0,0-1.2.37l-.24-.8a3.12,3.12,0,0,1,1.69-.48c1.44,0,2.06,1,2.06,2.58v3.13a12.11,12.11,0,0,0,.08,1.63Zm-.17-3.74c-.59,0-2,.12-2,1.69,0,.94.48,1.27.89,1.27s.93-.37,1.06-1.08a2,2,0,0,0,0-.41Z" transform="translate(-0.19 -2.17)"/><path class="cls-1" d="M126,43c0-.61,0-1.33-.06-1.87h1l.06,1.13h0A1.74,1.74,0,0,1,128.61,41l.24,0v1.17h-.23a1.57,1.57,0,0,0-1.4,1.51,4.28,4.28,0,0,0,0,.65v4H126Z" transform="translate(-0.19 -2.17)"/><path class="cls-1" d="M.61,65a2.22,2.22,0,0,0,1.17.37,1,1,0,0,0,1.06-1c0-.54-.2-.92-.92-1.41C1,62.34.46,61.72.46,60.9a1.94,1.94,0,0,1,2-2,2.34,2.34,0,0,1,1.28.37l-.31.87a1.55,1.55,0,0,0-1-.33.89.89,0,0,0-.93.92c0,.48.18.76.9,1.25a2.64,2.64,0,0,1,1.49,2.2,2,2,0,0,1-2.18,2.14,2.49,2.49,0,0,1-1.42-.41Z" transform="translate(-0.19 -2.17)"/><path class="cls-1" d="M6.36,57.15a.66.66,0,0,1-.7.74A.68.68,0,0,1,5,57.15a.69.69,0,0,1,.68-.75A.67.67,0,0,1,6.36,57.15ZM5.12,66.23V59H6.26v7.21Z" transform="translate(-0.19 -2.17)"/><path class="cls-1" d="M7.86,60.88c0-.85,0-1.28-.06-1.86h1l.06.86h0a1.82,1.82,0,0,1,1.65-1c1,0,1.75.73,1.75,2.48v4.85H11.15V61.58c0-.86-.16-1.71-1-1.71-.48,0-.94.4-1.08,1.17a3.06,3.06,0,0,0-.06.65v4.54H7.86Z" transform="translate(-0.19 -2.17)"/><path class="cls-1" d="M16.24,61.27c0-1.11,0-1.75-.06-2.25h1l.06.91h0a1.65,1.65,0,0,1,1.52-1c1.26,0,2.09,1.33,2.09,3.7,0,2.69-1.11,3.75-2.23,3.75a1.37,1.37,0,0,1-1.27-.83h0V69.1H16.24Zm1.14,2.31a2.84,2.84,0,0,0,.06.6c.22,1,.74,1.21,1,1.21,1,0,1.26-1.31,1.26-2.76s-.36-2.75-1.27-2.75c-.52,0-1,.65-1.05,1.31a2.45,2.45,0,0,0-.05.55Z" transform="translate(-0.19 -2.17)"/><path class="cls-1" d="M22.2,60.88c0-.61,0-1.33-.06-1.86h1l0,1.12h0a1.74,1.74,0,0,1,1.51-1.24H25v1.17h-.23a1.56,1.56,0,0,0-1.39,1.51,4.19,4.19,0,0,0-.05.65v4H22.2Z" transform="translate(-0.19 -2.17)"/><path class="cls-1" d="M30.14,62.62c0,2.79-1.3,3.73-2.41,3.73-1.29,0-2.34-1.18-2.34-3.72s1.18-3.73,2.42-3.73S30.14,60.1,30.14,62.62Zm-3.6,0c0,1.2.22,2.82,1.25,2.82S29,63.75,29,62.62s-.2-2.81-1.22-2.81S26.54,61.51,26.54,62.62Z" transform="translate(-0.19 -2.17)"/><path class="cls-1" d="M31.35,66.23c0-.41.06-1.24.06-1.72v-8.6h1.14v4h0a1.61,1.61,0,0,1,1.52-1c1.13,0,2,1.28,2,3.65,0,2.61-1.08,3.8-2.19,3.8a1.49,1.49,0,0,1-1.43-1.06h-.05l-.08.94Zm1.2-2.54a1.48,1.48,0,0,0,.05.44c.26,1.07.76,1.26,1.07,1.26.93,0,1.25-1.25,1.25-2.78s-.34-2.73-1.27-2.73c-.53,0-1,.66-1.06,1.29a2.63,2.63,0,0,0,0,.49Z" transform="translate(-0.19 -2.17)"/><path class="cls-1" d="M37.38,55.91h1.14V66.23H37.38Z" transform="translate(-0.19 -2.17)"/><path class="cls-1" d="M41,62.72c0,2.22.88,2.69,1.7,2.69a2.6,2.6,0,0,0,1.2-.27l.19.83a3.42,3.42,0,0,1-1.59.35c-1.73,0-2.63-1.41-2.63-3.62s1-3.8,2.43-3.8,2.07,1.55,2.07,3.18c0,.28,0,.47,0,.64Zm2.27-.84c0-1.45-.53-2.09-1.07-2.09-.76,0-1.14,1.1-1.19,2.09Z" transform="translate(-0.19 -2.17)"/><path class="cls-1" d="M45.65,60.88c0-.85,0-1.28-.06-1.86h1l.06.88h0a1.79,1.79,0,0,1,1.62-1A1.51,1.51,0,0,1,49.82,60h0a2.26,2.26,0,0,1,.71-.83,1.81,1.81,0,0,1,1-.27c1,0,1.74.71,1.74,2.55v4.78H52.15V61.71c0-.94-.14-1.85-1-1.85-.48,0-.89.4-1,1.08a3.24,3.24,0,0,0-.05.65v4.64H48.9V61.5c0-.8-.14-1.64-1-1.64-.48,0-.94.4-1.08,1.17a4,4,0,0,0,0,.62v4.58H45.65Z" transform="translate(-0.19 -2.17)"/><path class="cls-1" d="M57.76,66.23l-.08-.76h0a1.62,1.62,0,0,1-1.45.88,1.83,1.83,0,0,1-1.71-2.06c0-1.8,1.45-2.6,3.08-2.62v-.22c0-1-.24-1.65-1.15-1.65a2.06,2.06,0,0,0-1.2.38L55,59.37a3.18,3.18,0,0,1,1.69-.47c1.45,0,2.07.94,2.07,2.57V64.6a12,12,0,0,0,.08,1.63Zm-.17-3.73c-.59,0-2,.11-2,1.68,0,.94.48,1.27.89,1.27s.93-.37,1.06-1.08a1.9,1.9,0,0,0,0-.41Z" transform="translate(-0.19 -2.17)"/><path class="cls-1" d="M60.14,65a2.21,2.21,0,0,0,1.16.37,1,1,0,0,0,1.07-1c0-.54-.2-.92-.92-1.41-1-.61-1.46-1.23-1.46-2.05a1.94,1.94,0,0,1,2-2,2.35,2.35,0,0,1,1.29.37l-.31.87a1.57,1.57,0,0,0-1-.33.89.89,0,0,0-.93.92c0,.48.18.76.9,1.25a2.64,2.64,0,0,1,1.49,2.2,2,2,0,0,1-2.18,2.14,2.49,2.49,0,0,1-1.42-.41Z" transform="translate(-0.19 -2.17)"/><path class="cls-1" d="M63.91,68.11a21,21,0,0,0,.86-3.47l1.31-.15A19,19,0,0,1,64.7,68Z" transform="translate(-0.19 -2.17)"/><path class="cls-1" d="M69.69,55.91h1.15V66.23H69.69Z" transform="translate(-0.19 -2.17)"/><path class="cls-1" d="M77,62.62c0,2.79-1.3,3.73-2.4,3.73-1.3,0-2.35-1.18-2.35-3.72s1.18-3.73,2.42-3.73S77,60.1,77,62.62Zm-3.6,0c0,1.2.22,2.82,1.25,2.82s1.19-1.69,1.19-2.82-.2-2.81-1.22-2.81S73.38,61.51,73.38,62.62Z" transform="translate(-0.19 -2.17)"/><path class="cls-1" d="M83.82,65.48h0a1.52,1.52,0,0,1-1.39.87c-1.16,0-2.09-1.27-2.09-3.65,0-2.54,1.07-3.8,2.28-3.8a1.43,1.43,0,0,1,1.34,1h0L84,59h1c0,.49-.06,1.14-.06,2.25V69.1H83.82Zm0-3.77a3.75,3.75,0,0,0,0-.48c-.09-.75-.54-1.35-1.05-1.35-.94,0-1.29,1.26-1.29,2.77s.37,2.74,1.26,2.74c.35,0,.81-.21,1.05-1.2a2.43,2.43,0,0,0,.06-.61Z" transform="translate(-0.19 -2.17)"/><path class="cls-1" d="M90.89,64.27c0,.79,0,1.43.06,2H90l-.08-.75h0a1.9,1.9,0,0,1-1.55.87c-1.26,0-1.76-1-1.76-2.77V59h1.15v4.39c0,1.13.18,2,1,2a1.11,1.11,0,0,0,1-1,2.56,2.56,0,0,0,.07-.64V59h1.14Z" transform="translate(-0.19 -2.17)"/><path class="cls-1" d="M93.31,62.72c0,2.22.88,2.69,1.71,2.69a2.55,2.55,0,0,0,1.19-.27l.2.83a3.47,3.47,0,0,1-1.6.35c-1.73,0-2.63-1.41-2.63-3.62s1-3.8,2.44-3.8,2.07,1.55,2.07,3.18a5.36,5.36,0,0,1,0,.64Zm2.27-.84c0-1.45-.52-2.09-1.07-2.09-.76,0-1.13,1.1-1.19,2.09Z" transform="translate(-0.19 -2.17)"/><path class="cls-1" d="M103.79,66.06a2.64,2.64,0,0,1-1.2.26c-1.57,0-2.64-1.27-2.64-3.66,0-2.07,1-3.75,2.85-3.75a2.2,2.2,0,0,1,1,.23l-.23.93a1.9,1.9,0,0,0-.82-.2c-1.15,0-1.67,1.38-1.67,2.8,0,1.68.65,2.7,1.7,2.7a1.76,1.76,0,0,0,.83-.2Z" transform="translate(-0.19 -2.17)"/><path class="cls-1" d="M109.12,62.62c0,2.79-1.3,3.73-2.41,3.73-1.29,0-2.34-1.18-2.34-3.72s1.18-3.73,2.42-3.73S109.12,60.1,109.12,62.62Zm-3.6,0c0,1.2.22,2.82,1.25,2.82S108,63.75,108,62.62s-.2-2.81-1.22-2.81S105.52,61.51,105.52,62.62Z" transform="translate(-0.19 -2.17)"/><path class="cls-1" d="M110.4,60.88c0-.85,0-1.28-.06-1.86h1l.06.86h0a1.82,1.82,0,0,1,1.65-1c1,0,1.75.73,1.75,2.48v4.85h-1.14V61.58c0-.86-.17-1.71-1-1.71-.48,0-.93.4-1.08,1.17a3.06,3.06,0,0,0-.06.65v4.54H110.4Z" transform="translate(-0.19 -2.17)"/><path class="cls-1" d="M116.89,59l.91,4c.11.49.23,1.13.32,1.76h0c.08-.6.2-1.21.31-1.76l.89-4h1.14l-1.89,7.21h-1L115.7,59Z" transform="translate(-0.19 -2.17)"/><path class="cls-1" d="M122.74,57.15a.68.68,0,0,1-.71.74.66.66,0,0,1-.65-.74.68.68,0,1,1,1.36,0Zm-1.25,9.08V59h1.15v7.21Z" transform="translate(-0.19 -2.17)"/><path class="cls-1" d="M125.05,62.72c0,2.22.88,2.69,1.7,2.69a2.6,2.6,0,0,0,1.2-.27l.19.83a3.42,3.42,0,0,1-1.59.35c-1.73,0-2.63-1.41-2.63-3.62s1-3.8,2.43-3.8,2.07,1.55,2.07,3.18c0,.28,0,.47,0,.64Zm2.27-.84c0-1.45-.53-2.09-1.07-2.09-.76,0-1.14,1.1-1.19,2.09Z" transform="translate(-0.19 -2.17)"/><path class="cls-1" d="M129.65,60.88c0-.61,0-1.33-.06-1.86h1l.06,1.12h0a1.73,1.73,0,0,1,1.51-1.24h.24v1.17h-.24a1.58,1.58,0,0,0-1.39,1.51,4.28,4.28,0,0,0,0,.65v4h-1.14Z" transform="translate(-0.19 -2.17)"/><path class="cls-1" d="M135.12,57.09V59h1.39v.87h-1.39v4.29c0,.94.34,1.19.76,1.19a2,2,0,0,0,.46-.05l0,.89a2.61,2.61,0,0,1-.85.11,1.43,1.43,0,0,1-1.13-.43,2.58,2.58,0,0,1-.43-1.81V59.89h-.88V59H134V57.43Z" transform="translate(-0.19 -2.17)"/><path class="cls-1" d="M138.21,62.72c0,2.22.88,2.69,1.71,2.69a2.63,2.63,0,0,0,1.2-.27l.19.83a3.47,3.47,0,0,1-1.6.35c-1.73,0-2.62-1.41-2.62-3.62s1-3.8,2.43-3.8,2.07,1.55,2.07,3.18a5.36,5.36,0,0,1,0,.64Zm2.27-.84c0-1.45-.52-2.09-1.07-2.09-.76,0-1.13,1.1-1.19,2.09Z" transform="translate(-0.19 -2.17)"/><path class="cls-1" d="M3.66,84.15l-.08-.77h0a1.61,1.61,0,0,1-1.44.89A1.84,1.84,0,0,1,.39,82.2c0-1.8,1.44-2.6,3.08-2.61v-.23c0-1-.25-1.65-1.16-1.65a2.13,2.13,0,0,0-1.19.38l-.25-.81a3.16,3.16,0,0,1,1.69-.47c1.44,0,2.06.94,2.06,2.57v3.13a12.17,12.17,0,0,0,.08,1.64Zm-.17-3.74c-.59,0-2,.12-2,1.68,0,.94.47,1.28.88,1.28s.93-.38,1.07-1.08a2,2,0,0,0,0-.42Z" transform="translate(-0.19 -2.17)"/><path class="cls-1" d="M8.68,74.24a6.45,6.45,0,0,1,1.68-.2,3.15,3.15,0,0,1,2.22.7,2.3,2.3,0,0,1,.66,1.72,2.32,2.32,0,0,1-1.55,2.23v0a2.47,2.47,0,0,1,1.86,2.57,2.86,2.86,0,0,1-.71,2,3.39,3.39,0,0,1-2.66.91,9.51,9.51,0,0,1-1.5-.09Zm1.14,4.12h.53a1.72,1.72,0,0,0,1.74-1.77,1.48,1.48,0,0,0-1.66-1.65,2.32,2.32,0,0,0-.61.07Zm0,4.88a2.82,2.82,0,0,0,.58.05,1.82,1.82,0,0,0,2-2,1.94,1.94,0,0,0-2-2.05h-.5Z" transform="translate(-0.19 -2.17)"/><path class="cls-1" d="M15.72,80.64c0,2.21.88,2.68,1.71,2.68a2.55,2.55,0,0,0,1.19-.27l.19.84a3.52,3.52,0,0,1-1.59.35c-1.73,0-2.63-1.42-2.63-3.63s1-3.8,2.44-3.8,2.06,1.55,2.06,3.18a5.94,5.94,0,0,1,0,.65ZM18,79.79c0-1.44-.53-2.08-1.07-2.08-.76,0-1.14,1.09-1.19,2.08Z" transform="translate(-0.19 -2.17)"/><path class="cls-1" d="M20.33,73.82h1.14V84.15H20.33Z" transform="translate(-0.19 -2.17)"/><path class="cls-1" d="M24.59,75v1.92H26v.87H24.59v4.29c0,.94.34,1.19.75,1.19a1.58,1.58,0,0,0,.46,0l.06.89a2.42,2.42,0,0,1-.86.12,1.46,1.46,0,0,1-1.13-.44A2.58,2.58,0,0,1,23.44,82V77.8h-.88v-.87h.88V75.34Z" transform="translate(-0.19 -2.17)"/><path class="cls-1" d="M26.85,82.82a3,3,0,0,0,1.45.41A1.58,1.58,0,0,0,30,81.52a2.59,2.59,0,0,0-1.33-2.09,3.73,3.73,0,0,1-1.9-2.79A2.54,2.54,0,0,1,29.41,74a2.66,2.66,0,0,1,1.41.37l-.28,1a2.12,2.12,0,0,0-1.2-.34,1.39,1.39,0,0,0-1.45,1.44c0,1,.53,1.39,1.48,2.06a3.48,3.48,0,0,1,1.75,2.9,2.7,2.7,0,0,1-2.82,2.83,3.3,3.3,0,0,1-1.69-.44Z" transform="translate(-0.19 -2.17)"/><path class="cls-1" d="M33.29,80.64c0,2.21.88,2.68,1.71,2.68a2.55,2.55,0,0,0,1.19-.27l.19.84a3.52,3.52,0,0,1-1.59.35c-1.73,0-2.63-1.42-2.63-3.63s1-3.8,2.44-3.8,2.06,1.55,2.06,3.18a5.94,5.94,0,0,1,0,.65Zm2.27-.85c0-1.44-.53-2.08-1.07-2.08-.76,0-1.14,1.09-1.19,2.08Z" transform="translate(-0.19 -2.17)"/><path class="cls-1" d="M37.9,78.79c0-.85,0-1.28-.06-1.86h1l.06.87h0a1.81,1.81,0,0,1,1.65-1c1,0,1.75.74,1.75,2.49v4.85H41.19V79.5c0-.87-.17-1.72-1-1.72-.48,0-.93.4-1.08,1.17a3.06,3.06,0,0,0-.06.65v4.55H37.9Z" transform="translate(-0.19 -2.17)"/><path class="cls-1" d="M43.75,83a2.22,2.22,0,0,0,1.17.38,1,1,0,0,0,1.06-1c0-.55-.2-.93-.92-1.41-.94-.61-1.46-1.23-1.46-2.06a1.94,1.94,0,0,1,2-2,2.43,2.43,0,0,1,1.28.37l-.3.87a1.66,1.66,0,0,0-1-.33.89.89,0,0,0-.93.92c0,.49.19.76.9,1.25a2.67,2.67,0,0,1,1.49,2.2,2,2,0,0,1-2.17,2.15,2.5,2.5,0,0,1-1.43-.42Z" transform="translate(-0.19 -2.17)"/><path class="cls-1" d="M49.07,80.64c0,2.21.88,2.68,1.71,2.68A2.58,2.58,0,0,0,52,83.05l.19.84a3.55,3.55,0,0,1-1.59.35c-1.73,0-2.63-1.42-2.63-3.63s1-3.8,2.44-3.8,2.06,1.55,2.06,3.18c0,.28,0,.48,0,.65Zm2.27-.85c0-1.44-.53-2.08-1.07-2.08-.76,0-1.14,1.09-1.19,2.08Z" transform="translate(-0.19 -2.17)"/><path class="cls-1" d="M58.51,76.37A2.45,2.45,0,0,1,56,78.85a2.47,2.47,0,1,1,0-4.93A2.45,2.45,0,0,1,58.51,76.37Zm-4.4,0a1.9,1.9,0,0,0,1.91,2,2,2,0,0,0,0-3.91A1.9,1.9,0,0,0,54.11,76.37Zm1.51,1.28h-.57V75.21a4.55,4.55,0,0,1,.94-.08,1.54,1.54,0,0,1,.85.18.67.67,0,0,1,.24.54.63.63,0,0,1-.5.57v0A.71.71,0,0,1,57,77a1.82,1.82,0,0,0,.18.61h-.61a2,2,0,0,1-.19-.59c0-.27-.2-.39-.51-.39h-.27Zm0-1.38h.27c.32,0,.57-.11.57-.36s-.16-.37-.52-.37a1.17,1.17,0,0,0-.32,0Z" transform="translate(-0.19 -2.17)"/><path class="cls-1" d="M63.09,80.64c0,2.21.88,2.68,1.7,2.68a2.6,2.6,0,0,0,1.2-.27l.19.84a3.55,3.55,0,0,1-1.59.35c-1.73,0-2.63-1.42-2.63-3.63s1-3.8,2.43-3.8,2.07,1.55,2.07,3.18c0,.28,0,.48,0,.65Zm2.27-.85c0-1.44-.53-2.08-1.07-2.08-.76,0-1.14,1.09-1.19,2.08Z" transform="translate(-0.19 -2.17)"/><path class="cls-1" d="M67.7,78.79c0-.85,0-1.28-.06-1.86h1l.06.87h0a1.81,1.81,0,0,1,1.65-1c1,0,1.75.74,1.75,2.49v4.85H71V79.5c0-.87-.16-1.72-1-1.72-.48,0-.94.4-1.08,1.17a3.06,3.06,0,0,0-.06.65v4.55H67.7Z" transform="translate(-0.19 -2.17)"/><path class="cls-1" d="M76.09,73.82h1.14V84.15H76.09Z" transform="translate(-0.19 -2.17)"/><path class="cls-1" d="M81.79,84.15l-.08-.77h0a1.61,1.61,0,0,1-1.44.89,1.84,1.84,0,0,1-1.71-2.07c0-1.8,1.44-2.6,3.08-2.61v-.23c0-1-.25-1.65-1.16-1.65a2.13,2.13,0,0,0-1.19.38L79,77.28a3.16,3.16,0,0,1,1.69-.47c1.44,0,2.06.94,2.06,2.57v3.13a12.17,12.17,0,0,0,.08,1.64Zm-.17-3.74c-.59,0-2,.12-2,1.68,0,.94.47,1.28.88,1.28s.93-.38,1.07-1.08a2,2,0,0,0,0-.42Z" transform="translate(-0.19 -2.17)"/><path class="cls-1" d="M91,82.18c0,.8,0,1.43.06,2h-1L90,83.39h0a1.88,1.88,0,0,1-1.55.88c-1.26,0-1.76-1-1.76-2.78V76.93h1.15v4.39c0,1.14.18,2,1,2a1.13,1.13,0,0,0,1-1,3.16,3.16,0,0,0,.06-.64V76.93H91Zm-.3-8.2-1.56,2h-.76l1.14-2Z" transform="translate(-0.19 -2.17)"/><path class="cls-1" d="M92.65,78.79c0-.85,0-1.28-.06-1.86h1l.06.87h0a1.81,1.81,0,0,1,1.65-1c1,0,1.75.74,1.75,2.49v4.85H95.94V79.5c0-.87-.16-1.72-1-1.72-.48,0-.94.4-1.08,1.17a3.06,3.06,0,0,0-.06.65v4.55H92.65Z" transform="translate(-0.19 -2.17)"/><path class="cls-1" d="M100,75.06a.68.68,0,0,1-.71.74.66.66,0,0,1-.65-.74.68.68,0,1,1,1.36,0ZM98.7,84.15V76.93h1.14v7.22Z" transform="translate(-0.19 -2.17)"/><path class="cls-1" d="M105,84a2.47,2.47,0,0,1-1.2.27c-1.57,0-2.64-1.28-2.64-3.66,0-2.08,1.05-3.76,2.86-3.76a2.18,2.18,0,0,1,1,.23l-.22.94a1.81,1.81,0,0,0-.83-.2c-1.15,0-1.66,1.37-1.66,2.79,0,1.69.64,2.7,1.69,2.7a1.76,1.76,0,0,0,.83-.2Z" transform="translate(-0.19 -2.17)"/><path class="cls-1" d="M108.86,84.15l-.08-.77h0a1.63,1.63,0,0,1-1.45.89,1.84,1.84,0,0,1-1.71-2.07c0-1.8,1.45-2.6,3.08-2.61v-.23c0-1-.25-1.65-1.16-1.65a2.13,2.13,0,0,0-1.19.38l-.25-.81a3.18,3.18,0,0,1,1.69-.47c1.45,0,2.07.94,2.07,2.57v3.13a12.24,12.24,0,0,0,.07,1.64Zm-.18-3.74c-.58,0-2,.12-2,1.68,0,.94.48,1.28.89,1.28s.93-.38,1.06-1.08a2,2,0,0,0,0-.42Z" transform="translate(-0.19 -2.17)"/><path class="cls-1" d="M118.21,80.53c0,2.79-1.3,3.74-2.4,3.74-1.3,0-2.35-1.19-2.35-3.72s1.18-3.74,2.42-3.74S118.21,78,118.21,80.53Zm-3.59,0c0,1.2.21,2.82,1.24,2.82s1.19-1.69,1.19-2.82-.2-2.8-1.22-2.8S114.62,79.43,114.62,80.53Z" transform="translate(-0.19 -2.17)"/><path class="cls-1" d="M119.48,79.18c0-1.11,0-1.75-.06-2.25h1l0,.91h0a1.65,1.65,0,0,1,1.52-1c1.26,0,2.09,1.33,2.09,3.71,0,2.68-1.11,3.75-2.23,3.75a1.38,1.38,0,0,1-1.27-.84h0V87h-1.14Zm1.14,2.32a2.68,2.68,0,0,0,.06.59c.22,1,.74,1.21,1,1.21,1,0,1.26-1.3,1.26-2.76s-.36-2.75-1.27-2.75c-.52,0-1,.65-1,1.31a2.5,2.5,0,0,0,0,.55Z" transform="translate(-0.19 -2.17)"/><path class="cls-1" d="M129,84a2.46,2.46,0,0,1-1.19.27c-1.58,0-2.65-1.28-2.65-3.66,0-2.08,1.05-3.76,2.86-3.76a2.12,2.12,0,0,1,1,.23l-.22.94a1.76,1.76,0,0,0-.82-.2c-1.16,0-1.67,1.37-1.67,2.79,0,1.69.65,2.7,1.69,2.7a1.8,1.8,0,0,0,.84-.2Z" transform="translate(-0.19 -2.17)"/><path class="cls-1" d="M131.2,75.06a.66.66,0,0,1-.7.74.68.68,0,0,1-.66-.74.69.69,0,0,1,.68-.75A.67.67,0,0,1,131.2,75.06ZM130,84.15V76.93h1.14v7.22Z" transform="translate(-0.19 -2.17)"/><path class="cls-1" d="M137.14,80.53c0,2.79-1.3,3.74-2.41,3.74-1.29,0-2.34-1.19-2.34-3.72s1.18-3.74,2.42-3.74S137.14,78,137.14,80.53Zm-3.6,0c0,1.2.22,2.82,1.25,2.82S136,81.66,136,80.53s-.2-2.8-1.22-2.8S133.54,79.43,133.54,80.53Zm3-6.55L135,76h-.76l1.15-2Z" transform="translate(-0.19 -2.17)"/><path class="cls-1" d="M138.42,78.79c0-.85,0-1.28-.06-1.86h1l.06.87h0a1.81,1.81,0,0,1,1.65-1c1,0,1.75.74,1.75,2.49v4.85h-1.14V79.5c0-.87-.17-1.72-1-1.72-.48,0-.93.4-1.08,1.17a3.06,3.06,0,0,0-.06.65v4.55h-1.14Z" transform="translate(-0.19 -2.17)"/><path class="cls-1" d="M1.62,98.55c0,2.22.87,2.68,1.7,2.68a2.63,2.63,0,0,0,1.2-.27l.19.84a3.44,3.44,0,0,1-1.6.35c-1.73,0-2.62-1.42-2.62-3.62s1-3.81,2.43-3.81S5,96.28,5,97.9c0,.29,0,.48,0,.65Zm2.26-.84c0-1.45-.52-2.09-1.07-2.09-.76,0-1.13,1.09-1.18,2.09Z" transform="translate(-0.19 -2.17)"/><path class="cls-1" d="M6.22,96.71c0-.85,0-1.29-.06-1.87h1l.06.87h0a1.84,1.84,0,0,1,1.66-1c1,0,1.75.74,1.75,2.49v4.85H9.51V97.41c0-.86-.16-1.72-1-1.72-.48,0-.94.4-1.08,1.18a2.9,2.9,0,0,0-.06.64v4.55H6.22Z" transform="translate(-0.19 -2.17)"/><path class="cls-1" d="M18.13,101.88a2.43,2.43,0,0,1-1.19.27c-1.57,0-2.64-1.27-2.64-3.66,0-2.07,1-3.76,2.85-3.76a2.33,2.33,0,0,1,1,.23l-.23.94a1.76,1.76,0,0,0-.82-.2c-1.15,0-1.67,1.38-1.67,2.79,0,1.69.65,2.7,1.7,2.7A1.67,1.67,0,0,0,18,101Z" transform="translate(-0.19 -2.17)"/><path class="cls-1" d="M23.46,98.44c0,2.8-1.29,3.74-2.4,3.74-1.29,0-2.35-1.18-2.35-3.72s1.18-3.74,2.43-3.74S23.46,95.93,23.46,98.44Zm-3.59,0c0,1.19.22,2.81,1.25,2.81s1.19-1.69,1.19-2.81-.2-2.81-1.22-2.81S19.87,97.34,19.87,98.45Z" transform="translate(-0.19 -2.17)"/><path class="cls-1" d="M24.74,96.71c0-.61,0-1.33-.06-1.87h1L25.76,96h0a1.75,1.75,0,0,1,1.51-1.25l.24,0v1.17h-.23a1.57,1.57,0,0,0-1.4,1.5,6.32,6.32,0,0,0,0,.66v4H24.74Z" transform="translate(-0.19 -2.17)"/><path class="cls-1" d="M28.41,96.71c0-.61,0-1.33-.06-1.87h1L29.43,96h0A1.76,1.76,0,0,1,31,94.72l.25,0v1.17H31a1.55,1.55,0,0,0-1.39,1.5,4.41,4.41,0,0,0,0,.66v4H28.41Z" transform="translate(-0.19 -2.17)"/><path class="cls-1" d="M32.72,98.55c0,2.22.88,2.68,1.71,2.68a2.63,2.63,0,0,0,1.2-.27l.19.84a3.44,3.44,0,0,1-1.6.35c-1.73,0-2.62-1.42-2.62-3.62s1-3.81,2.43-3.81,2.07,1.56,2.07,3.18c0,.29,0,.48,0,.65ZM35,97.71c0-1.45-.52-2.09-1.07-2.09-.76,0-1.13,1.09-1.18,2.09Z" transform="translate(-0.19 -2.17)"/><path class="cls-1" d="M40.19,102.06l-.08-.76h0a1.63,1.63,0,0,1-1.44.88,1.84,1.84,0,0,1-1.72-2.07c0-1.8,1.45-2.59,3.09-2.61v-.23c0-1-.25-1.64-1.16-1.64a2.16,2.16,0,0,0-1.2.37l-.24-.81a3.22,3.22,0,0,1,1.69-.47c1.44,0,2.06,1,2.06,2.57v3.14a12.11,12.11,0,0,0,.08,1.63ZM40,98.32c-.59,0-2,.12-2,1.69,0,.94.48,1.27.89,1.27s.93-.38,1.06-1.08a2,2,0,0,0,0-.41Z" transform="translate(-0.19 -2.17)"/><path class="cls-1" d="M48.32,101.31h0a1.52,1.52,0,0,1-1.38.87c-1.16,0-2.09-1.27-2.09-3.65,0-2.55,1.07-3.81,2.27-3.81a1.46,1.46,0,0,1,1.35,1h0l0-.85h1c0,.5-.06,1.15-.06,2.25v7.83H48.32Zm0-3.78a2.58,2.58,0,0,0,0-.48c-.08-.75-.54-1.35-1-1.35C46.3,95.7,46,97,46,98.48s.38,2.74,1.27,2.74c.35,0,.8-.21,1.05-1.2a2.56,2.56,0,0,0,0-.62Z" transform="translate(-0.19 -2.17)"/><path class="cls-1" d="M55.4,100.09c0,.8,0,1.43.06,2h-1l-.08-.76h0a1.88,1.88,0,0,1-1.54.88c-1.26,0-1.76-1-1.76-2.78V94.84h1.14v4.4c0,1.13.19,2,1,2a1.12,1.12,0,0,0,1-1,3.2,3.2,0,0,0,.06-.65V94.84H55.4Z" transform="translate(-0.19 -2.17)"/><path class="cls-1" d="M57.82,98.55c0,2.22.88,2.68,1.71,2.68a2.58,2.58,0,0,0,1.19-.27l.19.84a3.42,3.42,0,0,1-1.59.35c-1.73,0-2.63-1.42-2.63-3.62s1-3.81,2.44-3.81,2.06,1.56,2.06,3.18c0,.29,0,.48,0,.65Zm2.27-.84c0-1.45-.53-2.09-1.07-2.09-.76,0-1.14,1.09-1.19,2.09Z" transform="translate(-0.19 -2.17)"/><path class="cls-1" d="M64.57,100.86a2.28,2.28,0,0,0,1.17.38,1,1,0,0,0,1.07-1c0-.54-.2-.93-.93-1.41-.94-.61-1.46-1.23-1.46-2.06a2,2,0,0,1,2-2,2.44,2.44,0,0,1,1.29.37L67.4,96a1.63,1.63,0,0,0-1-.32.89.89,0,0,0-.94.92c0,.48.19.75.9,1.24A2.66,2.66,0,0,1,67.9,100a2,2,0,0,1-2.18,2.14,2.52,2.52,0,0,1-1.43-.42Z" transform="translate(-0.19 -2.17)"/><path class="cls-1" d="M69.89,98.55c0,2.22.88,2.68,1.71,2.68a2.63,2.63,0,0,0,1.2-.27l.19.84a3.44,3.44,0,0,1-1.6.35c-1.73,0-2.62-1.42-2.62-3.62s1-3.81,2.43-3.81,2.07,1.56,2.07,3.18c0,.29,0,.48,0,.65Zm2.27-.84c0-1.45-.52-2.09-1.07-2.09-.76,0-1.13,1.09-1.18,2.09Z" transform="translate(-0.19 -2.17)"/><path class="cls-1" d="M78.09,93a.67.67,0,0,1-.7.75.68.68,0,0,1-.66-.75.69.69,0,0,1,.68-.75A.67.67,0,0,1,78.09,93Zm-1.24,9.09V94.84H78v7.22Z" transform="translate(-0.19 -2.17)"/><path class="cls-1" d="M79.59,96.71c0-.85,0-1.29-.06-1.87h1l0,.87h0a1.84,1.84,0,0,1,1.66-1c1,0,1.75.74,1.75,2.49v4.85H82.88V97.41c0-.86-.16-1.72-1-1.72-.49,0-.94.4-1.08,1.18a2.9,2.9,0,0,0-.06.64v4.55H79.59Z" transform="translate(-0.19 -2.17)"/><path class="cls-1" d="M87,92.92v1.92h1.38v.87H87V100c0,.94.33,1.18.75,1.18a2.07,2.07,0,0,0,.46,0l0,.89a2.61,2.61,0,0,1-.85.11,1.43,1.43,0,0,1-1.13-.44,2.58,2.58,0,0,1-.43-1.81V95.71h-.88v-.87h.88V93.25Z" transform="translate(-0.19 -2.17)"/><path class="cls-1" d="M90.05,98.55c0,2.22.88,2.68,1.7,2.68A2.6,2.6,0,0,0,93,101l.19.84a3.42,3.42,0,0,1-1.59.35c-1.73,0-2.63-1.42-2.63-3.62s1-3.81,2.43-3.81,2.07,1.56,2.07,3.18c0,.29,0,.48,0,.65Zm2.27-.84c0-1.45-.53-2.09-1.07-2.09-.76,0-1.14,1.09-1.19,2.09Z" transform="translate(-0.19 -2.17)"/><path class="cls-1" d="M99.08,94.84c0,.5-.07,1.14-.07,2.25v4c0,1.9-.24,2.62-.71,3.15a2.52,2.52,0,0,1-1.92.76,3.46,3.46,0,0,1-1.59-.35l.26-.9a3.16,3.16,0,0,0,1.35.31c.91,0,1.47-.57,1.47-2.2v-.73h0a1.44,1.44,0,0,1-1.37.87c-1.28,0-2.13-1.44-2.13-3.56,0-2.66,1.21-3.76,2.28-3.76a1.47,1.47,0,0,1,1.34.93h0l.06-.81Zm-1.21,2.49a2.22,2.22,0,0,0-.05-.53c-.13-.49-.39-1.1-1-1.1-.83,0-1.28,1.12-1.28,2.72,0,1.85.58,2.69,1.28,2.69.36,0,.8-.16,1-1a2.49,2.49,0,0,0,.07-.65Z" transform="translate(-0.19 -2.17)"/><path class="cls-1" d="M100.57,96.71c0-.61,0-1.33-.06-1.87h1l0,1.13h0a1.76,1.76,0,0,1,1.51-1.25l.25,0v1.17h-.24a1.56,1.56,0,0,0-1.39,1.5,4.41,4.41,0,0,0,0,.66v4h-1.15Z" transform="translate(-0.19 -2.17)"/><path class="cls-1" d="M107.05,102.06l-.08-.76h0a1.62,1.62,0,0,1-1.44.88c-1,0-1.71-.81-1.71-2.07,0-1.8,1.44-2.59,3.08-2.61v-.23c0-1-.25-1.64-1.16-1.64a2.18,2.18,0,0,0-1.2.37l-.24-.81a3.22,3.22,0,0,1,1.69-.47c1.44,0,2.06,1,2.06,2.57v3.14a12.11,12.11,0,0,0,.08,1.63Zm-.17-3.74c-.59,0-2,.12-2,1.69,0,.94.47,1.27.88,1.27s.93-.38,1.07-1.08a1.93,1.93,0,0,0,0-.41Z" transform="translate(-0.19 -2.17)"/><path class="cls-1" d="M115.49,101.88a2.43,2.43,0,0,1-1.19.27c-1.58,0-2.65-1.27-2.65-3.66,0-2.07,1.06-3.76,2.86-3.76a2.33,2.33,0,0,1,1,.23l-.23.94a1.76,1.76,0,0,0-.82-.2c-1.15,0-1.67,1.38-1.67,2.79,0,1.69.65,2.7,1.7,2.7a1.67,1.67,0,0,0,.83-.2Z" transform="translate(-0.19 -2.17)"/><path class="cls-1" d="M120.82,98.44c0,2.8-1.3,3.74-2.4,3.74-1.29,0-2.35-1.18-2.35-3.72s1.18-3.74,2.43-3.74S120.82,95.93,120.82,98.44Zm-3.59,0c0,1.19.21,2.81,1.25,2.81s1.19-1.69,1.19-2.81-.21-2.81-1.22-2.81S117.23,97.34,117.23,98.45Z" transform="translate(-0.19 -2.17)"/><path class="cls-1" d="M122.11,96.71c0-.85,0-1.29-.06-1.87h1l.06.87h0a1.83,1.83,0,0,1,1.65-1c1,0,1.75.74,1.75,2.49v4.85h-1.15V97.41c0-.86-.16-1.72-1-1.72-.48,0-.94.4-1.08,1.18a2.9,2.9,0,0,0-.06.64v4.55h-1.14Z" transform="translate(-0.19 -2.17)"/><path class="cls-1" d="M.8,109.65H2V120H.8Z" transform="translate(-0.19 -2.17)"/><path class="cls-1" d="M6.51,120l-.08-.76h0a1.6,1.6,0,0,1-1.44.88A1.83,1.83,0,0,1,3.24,118c0-1.8,1.44-2.6,3.08-2.62v-.22c0-1-.25-1.65-1.16-1.65a2.12,2.12,0,0,0-1.19.37l-.25-.8a3.16,3.16,0,0,1,1.69-.47c1.44,0,2.06.94,2.06,2.57v3.13A12,12,0,0,0,7.55,120Zm-.17-3.74c-.59,0-2,.12-2,1.69,0,.94.47,1.27.88,1.27s.93-.37,1.07-1.08a1.89,1.89,0,0,0,0-.41Z" transform="translate(-0.19 -2.17)"/><path class="cls-1" d="M8.89,118.78a2.35,2.35,0,0,0,1.17.37,1,1,0,0,0,1.07-1.05c0-.54-.21-.92-.93-1.41-.94-.61-1.46-1.23-1.46-2a1.94,1.94,0,0,1,2-2A2.32,2.32,0,0,1,12,113l-.3.86a1.63,1.63,0,0,0-1-.32.89.89,0,0,0-.94.92c0,.48.19.76.9,1.24a2.66,2.66,0,0,1,1.5,2.21A2,2,0,0,1,10,120.06a2.42,2.42,0,0,1-1.43-.42Z" transform="translate(-0.19 -2.17)"/><path class="cls-1" d="M15.75,114.62c0-.85,0-1.29-.06-1.86h1l.05.88h0a1.79,1.79,0,0,1,1.63-1,1.5,1.5,0,0,1,1.51,1.1h0a2.26,2.26,0,0,1,.71-.83,1.81,1.81,0,0,1,1-.27c1,0,1.74.71,1.74,2.55V120H22.25v-4.52c0-.94-.14-1.85-1-1.85-.48,0-.89.4-1,1.08a3.24,3.24,0,0,0-.05.65V120H19v-4.73c0-.8-.14-1.64-1-1.64-.48,0-.94.4-1.08,1.17a4,4,0,0,0,0,.62V120H15.75Z" transform="translate(-0.19 -2.17)"/><path class="cls-1" d="M25.81,116.46c0,2.22.88,2.69,1.71,2.69a2.55,2.55,0,0,0,1.19-.27l.19.83a3.39,3.39,0,0,1-1.59.35c-1.73,0-2.63-1.41-2.63-3.62s1-3.8,2.44-3.8,2.06,1.55,2.06,3.18a5.74,5.74,0,0,1,0,.64Zm2.27-.84c0-1.45-.53-2.09-1.07-2.09-.76,0-1.14,1.1-1.19,2.09Z" transform="translate(-0.19 -2.17)"/><path class="cls-1" d="M34.77,109.65v8.6c0,.48,0,1.3.06,1.72h-1l-.08-.9h-.05a1.67,1.67,0,0,1-1.51,1c-1.23,0-2.11-1.32-2.11-3.7,0-2.56,1.07-3.75,2.18-3.75a1.39,1.39,0,0,1,1.32.85h0v-3.84Zm-1.14,5.85a3.93,3.93,0,0,0,0-.48c-.06-.75-.51-1.4-1.07-1.4-.95,0-1.28,1.33-1.28,2.77s.39,2.74,1.22,2.74c.35,0,.85-.19,1.11-1.23a2.27,2.27,0,0,0,0-.48Z" transform="translate(-0.19 -2.17)"/><path class="cls-1" d="M37.62,110.88a.67.67,0,0,1-.7.75.68.68,0,0,1-.66-.75.69.69,0,0,1,.68-.75A.68.68,0,0,1,37.62,110.88ZM36.38,120v-7.21h1.14V120Z" transform="translate(-0.19 -2.17)"/><path class="cls-1" d="M42.64,119.79a2.43,2.43,0,0,1-1.19.27c-1.57,0-2.65-1.27-2.65-3.66,0-2.07,1.06-3.75,2.86-3.75a2.2,2.2,0,0,1,1,.23l-.23.93a1.9,1.9,0,0,0-.82-.2c-1.15,0-1.67,1.38-1.67,2.8,0,1.68.65,2.69,1.7,2.69a1.78,1.78,0,0,0,.83-.19Z" transform="translate(-0.19 -2.17)"/><path class="cls-1" d="M44.88,110.88a.68.68,0,0,1-.71.75.67.67,0,0,1-.65-.75.68.68,0,1,1,1.36,0ZM43.63,120v-7.21h1.14V120Z" transform="translate(-0.19 -2.17)"/><path class="cls-1" d="M50.81,116.35c0,2.8-1.3,3.74-2.4,3.74-1.3,0-2.35-1.18-2.35-3.72s1.18-3.73,2.42-3.73S50.81,113.84,50.81,116.35Zm-3.6,0c0,1.2.22,2.81,1.25,2.81s1.19-1.68,1.19-2.81-.2-2.81-1.22-2.81S47.21,115.25,47.21,116.36Z" transform="translate(-0.19 -2.17)"/><path class="cls-1" d="M52.09,114.62c0-.85,0-1.29-.06-1.86h1l.05.86h0a1.84,1.84,0,0,1,1.66-1c1,0,1.75.73,1.75,2.48V120H55.38v-4.65c0-.86-.16-1.71-1-1.71-.49,0-.94.4-1.08,1.17a3,3,0,0,0-.06.64V120H52.09Z" transform="translate(-0.19 -2.17)"/><path class="cls-1" d="M59,116.46c0,2.22.88,2.69,1.71,2.69a2.55,2.55,0,0,0,1.19-.27l.19.83a3.42,3.42,0,0,1-1.59.35c-1.73,0-2.63-1.41-2.63-3.62s1-3.8,2.44-3.8,2.06,1.55,2.06,3.18c0,.28,0,.47,0,.64Zm2.27-.84c0-1.45-.53-2.09-1.07-2.09-.76,0-1.14,1.1-1.19,2.09Z" transform="translate(-0.19 -2.17)"/><path class="cls-1" d="M63.36,118.78a2.35,2.35,0,0,0,1.17.37,1,1,0,0,0,1.07-1.05c0-.54-.21-.92-.93-1.41-.94-.61-1.46-1.23-1.46-2a1.94,1.94,0,0,1,2-2,2.32,2.32,0,0,1,1.28.37l-.3.86a1.65,1.65,0,0,0-1-.32.89.89,0,0,0-.94.92c0,.48.19.76.9,1.24a2.65,2.65,0,0,1,1.49,2.21,2,2,0,0,1-2.17,2.14,2.42,2.42,0,0,1-1.43-.42Z" transform="translate(-0.19 -2.17)"/><path class="cls-1" d="M71,116.46c0,2.22.87,2.69,1.7,2.69a2.63,2.63,0,0,0,1.2-.27l.19.83a3.44,3.44,0,0,1-1.6.35c-1.72,0-2.62-1.41-2.62-3.62s1-3.8,2.43-3.8,2.07,1.55,2.07,3.18c0,.28,0,.47,0,.64Zm2.26-.84c0-1.45-.52-2.09-1.07-2.09-.76,0-1.13,1.1-1.18,2.09Z" transform="translate(-0.19 -2.17)"/><path class="cls-1" d="M75.63,114.62c0-.85,0-1.29-.06-1.86h1l.06.86h0a1.81,1.81,0,0,1,1.65-1c1,0,1.75.73,1.75,2.48V120H78.92v-4.65c0-.86-.16-1.71-1-1.71-.48,0-.94.4-1.08,1.17a3,3,0,0,0-.06.64V120H75.63Z" transform="translate(-0.19 -2.17)"/><path class="cls-1" d="M84.83,116.46c0,2.22.88,2.69,1.71,2.69a2.63,2.63,0,0,0,1.2-.27l.19.83a3.47,3.47,0,0,1-1.6.35c-1.73,0-2.62-1.41-2.62-3.62s1-3.8,2.43-3.8,2.07,1.55,2.07,3.18a5.36,5.36,0,0,1,0,.64Zm2.27-.84c0-1.45-.52-2.09-1.07-2.09-.76,0-1.13,1.1-1.19,2.09Z" transform="translate(-0.19 -2.17)"/><path class="cls-1" d="M89.44,109.65h1.15V120H89.44Z" transform="translate(-0.19 -2.17)"/><path class="cls-1" d="M94.88,120v-6.34H94v-.87h.91v-.45a3.21,3.21,0,0,1,.64-2.17,1.92,1.92,0,0,1,1.44-.61,2.16,2.16,0,0,1,.91.17l-.2.9a1.73,1.73,0,0,0-.62-.12c-.83,0-1,.88-1,1.81v.47h1.33v.87H96V120Z" transform="translate(-0.19 -2.17)"/><path class="cls-1" d="M98,114.62c0-.61,0-1.33-.06-1.86h1l0,1.12h0a1.74,1.74,0,0,1,1.51-1.24h.24v1.17h-.23a1.56,1.56,0,0,0-1.39,1.51,4.19,4.19,0,0,0,0,.65v4H98Z" transform="translate(-0.19 -2.17)"/><path class="cls-1" d="M102.34,116.46c0,2.22.88,2.69,1.71,2.69a2.63,2.63,0,0,0,1.2-.27l.19.83a3.47,3.47,0,0,1-1.6.35c-1.73,0-2.62-1.41-2.62-3.62s1-3.8,2.43-3.8,2.07,1.55,2.07,3.18a5.36,5.36,0,0,1,0,.64Zm2.27-.84c0-1.45-.52-2.09-1.07-2.09-.76,0-1.13,1.1-1.19,2.09Z" transform="translate(-0.19 -2.17)"/><path class="cls-1" d="M107,114.62c0-.85,0-1.29-.06-1.86h1l0,.86h0a1.84,1.84,0,0,1,1.66-1c1,0,1.74.73,1.74,2.48V120h-1.14v-4.65c0-.86-.16-1.71-1-1.71-.49,0-.94.4-1.09,1.17a4,4,0,0,0-.05.64V120H107Z" transform="translate(-0.19 -2.17)"/><path class="cls-1" d="M114.32,110.83v1.93h1.38v.87h-1.38v4.29c0,.94.33,1.19.75,1.19a2,2,0,0,0,.46,0l0,.89a2.61,2.61,0,0,1-.85.11,1.46,1.46,0,0,1-1.13-.43,2.62,2.62,0,0,1-.43-1.82v-4.18h-.88v-.87h.88v-1.59Z" transform="translate(-0.19 -2.17)"/><path class="cls-1" d="M117.41,116.46c0,2.22.88,2.69,1.7,2.69a2.6,2.6,0,0,0,1.2-.27l.19.83a3.44,3.44,0,0,1-1.6.35c-1.72,0-2.62-1.41-2.62-3.62s1-3.8,2.43-3.8,2.07,1.55,2.07,3.18c0,.28,0,.47,0,.64Zm2.26-.84c0-1.45-.52-2.09-1.07-2.09-.76,0-1.13,1.1-1.18,2.09Z" transform="translate(-0.19 -2.17)"/><path class="cls-1" d="M5.15,127.56v8.6c0,.48,0,1.3.06,1.73h-1L4.15,137H4.1a1.67,1.67,0,0,1-1.51,1c-1.22,0-2.1-1.32-2.1-3.7,0-2.56,1.07-3.75,2.18-3.75A1.37,1.37,0,0,1,4,131.4H4v-3.84ZM4,133.41a3.93,3.93,0,0,0,0-.48c-.06-.75-.51-1.4-1.07-1.4-.95,0-1.28,1.33-1.28,2.77S2,137,2.86,137c.36,0,.85-.19,1.11-1.23a2.23,2.23,0,0,0,0-.47Z" transform="translate(-0.19 -2.17)"/><path class="cls-1" d="M7.57,134.38c0,2.21.88,2.68,1.71,2.68a2.55,2.55,0,0,0,1.19-.27l.19.84a3.52,3.52,0,0,1-1.59.35c-1.73,0-2.63-1.42-2.63-3.63s1-3.8,2.44-3.8,2.06,1.55,2.06,3.18a5.94,5.94,0,0,1,0,.65Zm2.27-.85c0-1.45-.53-2.09-1.07-2.09-.76,0-1.14,1.1-1.19,2.09Z" transform="translate(-0.19 -2.17)"/><path class="cls-1" d="M15.33,134.38c0,2.21.88,2.68,1.71,2.68a2.63,2.63,0,0,0,1.2-.27l.19.84a3.6,3.6,0,0,1-1.6.35c-1.73,0-2.62-1.42-2.62-3.63s1-3.8,2.43-3.8,2.07,1.55,2.07,3.18a5.55,5.55,0,0,1,0,.65Zm2.27-.85c0-1.45-.52-2.09-1.07-2.09-.76,0-1.13,1.1-1.19,2.09Z" transform="translate(-0.19 -2.17)"/><path class="cls-1" d="M20.48,130.67l.67,1.55c.18.41.32.83.48,1.26h0c.16-.46.33-.88.48-1.26l.65-1.55H24l-1.72,3.56,1.7,3.66H22.71L22,136.25c-.16-.38-.3-.75-.48-1.23h0c-.14.43-.31.83-.47,1.24l-.67,1.63H19.2l1.72-3.63-1.67-3.59Z" transform="translate(-0.19 -2.17)"/><path class="cls-1" d="M26.54,128.75v1.92h1.39v.87H26.54v4.29c0,.94.34,1.19.76,1.19a2,2,0,0,0,.46-.05l0,.89A2.32,2.32,0,0,1,27,138a1.44,1.44,0,0,1-1.13-.44,2.58,2.58,0,0,1-.43-1.81v-4.19h-.88v-.87h.88v-1.59Z" transform="translate(-0.19 -2.17)"/><path class="cls-1" d="M28.93,132.53c0-.61,0-1.32-.06-1.86h1L30,131.8h0a1.75,1.75,0,0,1,1.52-1.25h.24v1.18h-.24a1.56,1.56,0,0,0-1.39,1.5,4.33,4.33,0,0,0,0,.66v4H28.93Z" transform="translate(-0.19 -2.17)"/><path class="cls-1" d="M35.41,137.89l-.07-.77h0a1.62,1.62,0,0,1-1.45.88,1.83,1.83,0,0,1-1.71-2.06c0-1.8,1.44-2.6,3.08-2.61v-.23c0-1-.25-1.65-1.16-1.65a2.13,2.13,0,0,0-1.19.38l-.25-.81a3.16,3.16,0,0,1,1.69-.47c1.44,0,2.06.94,2.06,2.57v3.13a12.17,12.17,0,0,0,.08,1.64Zm-.17-3.74c-.59,0-2,.11-2,1.68,0,.94.48,1.28.89,1.28s.92-.38,1.06-1.08a2,2,0,0,0,0-.42Z" transform="translate(-0.19 -2.17)"/><path class="cls-1" d="M41.51,137.71a2.43,2.43,0,0,1-1.19.27c-1.58,0-2.65-1.28-2.65-3.67,0-2.07,1-3.75,2.86-3.75a2.2,2.2,0,0,1,1,.23l-.23.93a1.92,1.92,0,0,0-.82-.19c-1.16,0-1.67,1.37-1.67,2.79,0,1.68.65,2.7,1.7,2.7a1.78,1.78,0,0,0,.83-.2Z" transform="translate(-0.19 -2.17)"/><path class="cls-1" d="M45.93,137.71a2.47,2.47,0,0,1-1.2.27c-1.57,0-2.64-1.28-2.64-3.67,0-2.07,1-3.75,2.86-3.75a2.15,2.15,0,0,1,1,.23l-.22.93a2,2,0,0,0-.82-.19c-1.16,0-1.67,1.37-1.67,2.79,0,1.68.64,2.7,1.69,2.7a1.83,1.83,0,0,0,.84-.2Z" transform="translate(-0.19 -2.17)"/><path class="cls-1" d="M48.16,128.8a.67.67,0,0,1-.7.74.75.75,0,1,1,.7-.74Zm-1.24,9.09v-7.22h1.14v7.22Z" transform="translate(-0.19 -2.17)"/><path class="cls-1" d="M54.09,134.27c0,2.79-1.29,3.73-2.4,3.73-1.29,0-2.35-1.18-2.35-3.71s1.19-3.74,2.43-3.74S54.09,131.76,54.09,134.27Zm-3.59,0c0,1.2.22,2.82,1.25,2.82s1.19-1.69,1.19-2.82-.2-2.8-1.22-2.8S50.5,133.17,50.5,134.27Zm3-6.55-1.56,2h-.76l1.14-2Z" transform="translate(-0.19 -2.17)"/><path class="cls-1" d="M55.38,132.53c0-.85,0-1.28-.06-1.86h1l.06.87h0a1.81,1.81,0,0,1,1.65-1c1,0,1.75.74,1.75,2.48v4.86H58.67v-4.66c0-.86-.17-1.71-1-1.71-.48,0-.93.4-1.08,1.17a3.06,3.06,0,0,0-.06.65v4.55H55.38Z" transform="translate(-0.19 -2.17)"/><path class="cls-1" d="M61.36,137.14a.8.8,0,0,1,.76-.87.77.77,0,0,1,.75.87.75.75,0,0,1-.76.86A.77.77,0,0,1,61.36,137.14Z" transform="translate(-0.19 -2.17)"/></g></g></svg>