<svg xmlns="http://www.w3.org/2000/svg" viewBox="0 0 195.04 79.69"><defs><style>.cls-1{fill:#1d1d1b;}</style></defs><title>Asset 36shovel ing2</title><g id="Layer_2" data-name="Layer 2"><g id="Layer_7" data-name="Layer 7"><path class="cls-1" d="M2,8.89l-.62,2.83H.3L2.46,2.28h1.2l2.09,9.44H4.69L4.07,8.89Zm2-.87-.5-2.4C3.29,5,3.16,4.17,3.05,3.47H3c-.11.71-.25,1.52-.38,2.16L2.12,8Z" transform="translate(-0.17 -1.91)"/><path class="cls-1" d="M10,11.55a2.32,2.32,0,0,1-1.12.25c-1.48,0-2.48-1.19-2.48-3.43,0-1.95,1-3.53,2.68-3.53a2.08,2.08,0,0,1,.95.22l-.21.88a1.61,1.61,0,0,0-.77-.19C8,5.75,7.49,7,7.49,8.37c0,1.58.61,2.53,1.59,2.53a1.73,1.73,0,0,0,.79-.18Z" transform="translate(-0.17 -1.91)"/><path class="cls-1" d="M14.15,11.55A2.29,2.29,0,0,1,13,11.8c-1.48,0-2.48-1.19-2.48-3.43,0-1.95,1-3.53,2.68-3.53a2.09,2.09,0,0,1,1,.22L14,5.94a1.58,1.58,0,0,0-.77-.19c-1.08,0-1.56,1.29-1.56,2.62,0,1.58.6,2.53,1.59,2.53a1.69,1.69,0,0,0,.78-.18Z" transform="translate(-0.17 -1.91)"/><path class="cls-1" d="M15.75,8.42c0,2.08.83,2.52,1.61,2.52a2.47,2.47,0,0,0,1.12-.25l.18.78a3.19,3.19,0,0,1-1.5.33c-1.62,0-2.47-1.33-2.47-3.4S15.63,4.83,17,4.83s1.94,1.46,1.94,3c0,.26,0,.44,0,.6Zm2.13-.79c0-1.36-.49-2-1-2-.71,0-1.07,1-1.12,2Z" transform="translate(-0.17 -1.91)"/><path class="cls-1" d="M19.89,10.6A2.2,2.2,0,0,0,21,11a.92.92,0,0,0,1-1c0-.51-.19-.87-.87-1.32-.89-.57-1.37-1.16-1.37-1.93a1.83,1.83,0,0,1,1.87-1.88,2.29,2.29,0,0,1,1.21.35L22.54,6a1.56,1.56,0,0,0-.9-.3.83.83,0,0,0-.88.86c0,.46.18.71.85,1.17A2.51,2.51,0,0,1,23,9.79a1.89,1.89,0,0,1-2,2,2.29,2.29,0,0,1-1.34-.39Z" transform="translate(-0.17 -1.91)"/><path class="cls-1" d="M23.93,10.6A2.24,2.24,0,0,0,25,11a.92.92,0,0,0,1-1c0-.51-.19-.87-.86-1.32-.89-.57-1.38-1.16-1.38-1.93a1.83,1.83,0,0,1,1.88-1.88,2.29,2.29,0,0,1,1.21.35L26.59,6a1.62,1.62,0,0,0-.9-.3.83.83,0,0,0-.88.86c0,.46.17.71.84,1.17a2.49,2.49,0,0,1,1.4,2.07,1.89,1.89,0,0,1-2,2,2.33,2.33,0,0,1-1.34-.39Z" transform="translate(-0.17 -1.91)"/><path class="cls-1" d="M31.69,3.14v1.8H33v.82h-1.3v4c0,.88.31,1.12.7,1.12a1.9,1.9,0,0,0,.44-.05l.05.84a2.44,2.44,0,0,1-.8.1A1.35,1.35,0,0,1,31,11.39a2.44,2.44,0,0,1-.4-1.7V5.76h-.83V4.94h.83V3.45Z" transform="translate(-0.17 -1.91)"/><path class="cls-1" d="M38,8.32c0,2.63-1.22,3.51-2.25,3.51-1.22,0-2.21-1.11-2.21-3.49s1.11-3.51,2.28-3.51S38,6,38,8.32Zm-3.37,0c0,1.12.2,2.64,1.17,2.64S36.9,9.39,36.9,8.33s-.19-2.64-1.15-2.64S34.61,7.29,34.61,8.33Z" transform="translate(-0.17 -1.91)"/><path class="cls-1" d="M41.38,2h1.08V5.67h0a2.08,2.08,0,0,1,.58-.6,1.62,1.62,0,0,1,.9-.24c.86,0,1.58.68,1.58,2.39v4.5H44.47V7.35c0-.83-.19-1.61-.92-1.61-.5,0-.88.36-1,1.08a2.85,2.85,0,0,0,0,.51v4.39H41.38Z" transform="translate(-0.17 -1.91)"/><path class="cls-1" d="M48.22,3.19a.64.64,0,1,1-1.28,0,.65.65,0,0,1,.64-.71A.63.63,0,0,1,48.22,3.19Zm-1.17,8.53V4.94h1.08v6.78Z" transform="translate(-0.17 -1.91)"/><path class="cls-1" d="M53.78,4.94c0,.47-.06,1.07-.06,2.12v3.78c0,1.79-.23,2.47-.67,3a2.37,2.37,0,0,1-1.81.72,3.35,3.35,0,0,1-1.49-.33l.25-.85a2.8,2.8,0,0,0,1.26.3c.86,0,1.39-.54,1.39-2.07v-.69h0a1.35,1.35,0,0,1-1.29.82c-1.2,0-2-1.35-2-3.34,0-2.5,1.13-3.53,2.14-3.53a1.38,1.38,0,0,1,1.26.88h0l.05-.77ZM52.65,7.28a2,2,0,0,0-.06-.5c-.12-.46-.36-1-1-1s-1.2,1-1.2,2.55c0,1.74.55,2.52,1.2,2.52.33,0,.75-.15,1-1a2.2,2.2,0,0,0,.07-.61Z" transform="translate(-0.17 -1.91)"/><path class="cls-1" d="M55.21,2h1.08V5.67h0a1.93,1.93,0,0,1,.57-.6,1.62,1.62,0,0,1,.9-.24c.86,0,1.58.68,1.58,2.39v4.5H58.3V7.35c0-.83-.19-1.61-.92-1.61-.5,0-.88.36-1.05,1.08a2.85,2.85,0,0,0,0,.51v4.39H55.21Z" transform="translate(-0.17 -1.91)"/><path class="cls-1" d="M61.64,8.42c0,2.08.83,2.52,1.61,2.52a2.47,2.47,0,0,0,1.12-.25l.18.78a3.19,3.19,0,0,1-1.5.33c-1.62,0-2.46-1.33-2.46-3.4s.93-3.57,2.28-3.57,1.94,1.46,1.94,3c0,.26,0,.44,0,.6Zm2.13-.79c0-1.36-.49-2-1-2-.72,0-1.07,1-1.12,2Z" transform="translate(-0.17 -1.91)"/><path class="cls-1" d="M66,6.69c0-.57,0-1.24-.06-1.75h1l0,1.06h0a1.65,1.65,0,0,1,1.42-1.17h.23V6h-.22a1.47,1.47,0,0,0-1.31,1.41A3.82,3.82,0,0,0,67,8v3.76H66Z" transform="translate(-0.17 -1.91)"/><path class="cls-1" d="M71.63,6.69c0-.57,0-1.24-.06-1.75h1l0,1.06h0A1.65,1.65,0,0,1,74,4.83h.23V6H74a1.47,1.47,0,0,0-1.3,1.41,3.82,3.82,0,0,0,0,.61v3.76H71.63Z" transform="translate(-0.17 -1.91)"/><path class="cls-1" d="M75.67,8.42c0,2.08.83,2.52,1.6,2.52a2.49,2.49,0,0,0,1.13-.25l.17.78a3.12,3.12,0,0,1-1.49.33c-1.63,0-2.47-1.33-2.47-3.4s.94-3.57,2.29-3.57,1.94,1.46,1.94,3c0,.26,0,.44,0,.6Zm2.13-.79c0-1.36-.49-2-1-2-.71,0-1.06,1-1.11,2Z" transform="translate(-0.17 -1.91)"/><path class="cls-1" d="M79.81,10.6A2.2,2.2,0,0,0,80.9,11a.92.92,0,0,0,1-1c0-.51-.2-.87-.87-1.32-.89-.57-1.37-1.16-1.37-1.93a1.83,1.83,0,0,1,1.87-1.88,2.29,2.29,0,0,1,1.21.35L82.46,6a1.59,1.59,0,0,0-.9-.3.83.83,0,0,0-.88.86c0,.46.18.71.84,1.17a2.5,2.5,0,0,1,1.41,2.07,1.89,1.89,0,0,1-2.05,2,2.33,2.33,0,0,1-1.34-.39Z" transform="translate(-0.17 -1.91)"/><path class="cls-1" d="M88.2,8.32c0,2.63-1.22,3.51-2.26,3.51-1.21,0-2.2-1.11-2.2-3.49S84.85,4.83,86,4.83,88.2,6,88.2,8.32Zm-3.37,0C84.83,9.45,85,11,86,11s1.11-1.58,1.11-2.64S86.92,5.69,86,5.69,84.83,7.29,84.83,8.33Z" transform="translate(-0.17 -1.91)"/><path class="cls-1" d="M89.4,2h1.07v9.69H89.4Z" transform="translate(-0.17 -1.91)"/><path class="cls-1" d="M96.14,9.87c0,.75,0,1.34,0,1.85h-.94L95.18,11h0a1.78,1.78,0,0,1-1.45.82c-1.18,0-1.65-.92-1.65-2.61V4.94h1.07V9.07c0,1.06.17,1.85.91,1.85a1.06,1.06,0,0,0,1-.9,2.9,2.9,0,0,0,0-.61V4.94h1.08Z" transform="translate(-0.17 -1.91)"/><path class="cls-1" d="M99,3.14v1.8h1.3v.82H99v4c0,.88.31,1.12.7,1.12a1.84,1.84,0,0,0,.44-.05l0,.84a2.44,2.44,0,0,1-.8.1,1.31,1.31,0,0,1-1.06-.41,2.38,2.38,0,0,1-.41-1.7V5.76h-.83V4.94h.83V3.45Z" transform="translate(-0.17 -1.91)"/><path class="cls-1" d="M102.38,3.19a.64.64,0,1,1-1.27,0,.64.64,0,1,1,1.27,0Zm-1.16,8.53V4.94h1.07v6.78Z" transform="translate(-0.17 -1.91)"/><path class="cls-1" d="M108,8.32c0,2.63-1.22,3.51-2.25,3.51-1.22,0-2.21-1.11-2.21-3.49s1.11-3.51,2.28-3.51S108,6,108,8.32Zm-3.37,0c0,1.12.2,2.64,1.17,2.64s1.12-1.58,1.12-2.64-.19-2.64-1.15-2.64S104.58,7.29,104.58,8.33Z" transform="translate(-0.17 -1.91)"/><path class="cls-1" d="M109.15,6.69c0-.79,0-1.2-.05-1.75H110l0,.82h0a1.71,1.71,0,0,1,1.55-.93c.94,0,1.64.69,1.64,2.34v4.55h-1.07V7.35c0-.81-.16-1.61-.94-1.61-.46,0-.88.38-1,1.1a2.78,2.78,0,0,0,0,.61v4.27h-1.08Z" transform="translate(-0.17 -1.91)"/><path class="cls-1" d="M118.19,3.19a.64.64,0,1,1-1.28,0,.65.65,0,0,1,.64-.71A.63.63,0,0,1,118.19,3.19ZM117,11.72V4.94h1.07v6.78Z" transform="translate(-0.17 -1.91)"/><path class="cls-1" d="M119.6,6.69c0-.79,0-1.2-.06-1.75h.94l.06.82h0a1.72,1.72,0,0,1,1.56-.93c.93,0,1.64.69,1.64,2.34v4.55h-1.08V7.35c0-.81-.15-1.61-.94-1.61-.45,0-.88.38-1,1.1a3.58,3.58,0,0,0,0,.61v4.27H119.6Z" transform="translate(-0.17 -1.91)"/><path class="cls-1" d="M125.49,11.72v-6h-.85V4.94h.85V4.53a3,3,0,0,1,.6-2,1.83,1.83,0,0,1,1.36-.58,1.9,1.9,0,0,1,.85.17l-.18.85a1.41,1.41,0,0,0-.59-.12c-.78,0-1,.82-1,1.7v.43h1.24v.82h-1.24v6Z" transform="translate(-0.17 -1.91)"/><path class="cls-1" d="M132.58,8.32c0,2.63-1.22,3.51-2.26,3.51-1.21,0-2.2-1.11-2.2-3.49s1.11-3.51,2.27-3.51S132.58,6,132.58,8.32Zm-3.38,0c0,1.12.21,2.64,1.17,2.64s1.12-1.58,1.12-2.64-.19-2.64-1.14-2.64S129.2,7.29,129.2,8.33Z" transform="translate(-0.17 -1.91)"/><path class="cls-1" d="M133.77,6.69c0-.57,0-1.24-.06-1.75h1L134.73,6h0a1.65,1.65,0,0,1,1.42-1.17h.23V6h-.22a1.47,1.47,0,0,0-1.31,1.41,5.51,5.51,0,0,0,0,.61v3.76h-1.07Z" transform="translate(-0.17 -1.91)"/><path class="cls-1" d="M137.22,6.69c0-.79,0-1.2-.05-1.75h.94l.06.84h0a1.69,1.69,0,0,1,1.53-1,1.42,1.42,0,0,1,1.42,1h0a2.06,2.06,0,0,1,.66-.78,1.75,1.75,0,0,1,.94-.26c.92,0,1.63.67,1.63,2.4v4.49h-1.07V7.47c0-.88-.13-1.74-1-1.74-.45,0-.84.38-1,1a2.9,2.9,0,0,0,0,.61v4.36h-1.07V7.27c0-.74-.13-1.54-.93-1.54-.44,0-.88.38-1,1.11a2.57,2.57,0,0,0-.05.57v4.31h-1.07Z" transform="translate(-0.17 -1.91)"/><path class="cls-1" d="M148.58,11.72l-.07-.72h0a1.53,1.53,0,0,1-1.35.83,1.72,1.72,0,0,1-1.61-1.94c0-1.69,1.36-2.44,2.89-2.45V7.22c0-.91-.23-1.54-1.09-1.54a2.06,2.06,0,0,0-1.12.35L146,5.28a3,3,0,0,1,1.59-.45c1.35,0,1.93.89,1.93,2.42v2.93a10.7,10.7,0,0,0,.08,1.54Zm-.16-3.51c-.55,0-1.86.11-1.86,1.58,0,.88.45,1.2.83,1.2s.87-.36,1-1a1.71,1.71,0,0,0,0-.39Z" transform="translate(-0.17 -1.91)"/><path class="cls-1" d="M152.19,3.14v1.8h1.3v.82h-1.3v4c0,.88.32,1.12.71,1.12a1.9,1.9,0,0,0,.44-.05l0,.84a2.36,2.36,0,0,1-.8.1,1.34,1.34,0,0,1-1.06-.41,2.44,2.44,0,0,1-.4-1.7V5.76h-.83V4.94h.83V3.45Z" transform="translate(-0.17 -1.91)"/><path class="cls-1" d="M155.61,3.19a.63.63,0,0,1-.66.7.64.64,0,0,1-.62-.7.65.65,0,0,1,.64-.71A.63.63,0,0,1,155.61,3.19Zm-1.17,8.53V4.94h1.08v6.78Z" transform="translate(-0.17 -1.91)"/><path class="cls-1" d="M161.18,8.32c0,2.63-1.22,3.51-2.26,3.51-1.21,0-2.2-1.11-2.2-3.49s1.11-3.51,2.28-3.51S161.18,6,161.18,8.32Zm-3.38,0C157.8,9.45,158,11,159,11s1.11-1.58,1.11-2.64S159.9,5.69,159,5.69,157.8,7.29,157.8,8.33Z" transform="translate(-0.17 -1.91)"/><path class="cls-1" d="M162.38,6.69c0-.79,0-1.2-.06-1.75h1l0,.82h0a1.71,1.71,0,0,1,1.55-.93c.94,0,1.64.69,1.64,2.34v4.55h-1.07V7.35c0-.81-.16-1.61-.95-1.61-.45,0-.88.38-1,1.1a2.74,2.74,0,0,0-.06.61v4.27h-1.07Z" transform="translate(-0.17 -1.91)"/><path class="cls-1" d="M171.42,3.19a.64.64,0,1,1-1.28,0,.64.64,0,0,1,.63-.71A.64.64,0,0,1,171.42,3.19Zm-1.17,8.53V4.94h1.07v6.78Z" transform="translate(-0.17 -1.91)"/><path class="cls-1" d="M172.82,6.69c0-.79,0-1.2,0-1.75h.94l0,.82h0a1.71,1.71,0,0,1,1.55-.93c.94,0,1.64.69,1.64,2.34v4.55h-1.07V7.35c0-.81-.16-1.61-.94-1.61-.46,0-.88.38-1,1.1a2.78,2.78,0,0,0,0,.61v4.27h-1.08Z" transform="translate(-0.17 -1.91)"/><path class="cls-1" d="M180.68,6.69c0-.57,0-1.24-.05-1.75h1l0,1.06h0a1.64,1.64,0,0,1,1.42-1.17h.22V6h-.22a1.48,1.48,0,0,0-1.31,1.41,5.51,5.51,0,0,0,0,.61v3.76h-1.07Z" transform="translate(-0.17 -1.91)"/><path class="cls-1" d="M184.73,8.42c0,2.08.82,2.52,1.6,2.52a2.41,2.41,0,0,0,1.12-.25l.18.78a3.19,3.19,0,0,1-1.5.33c-1.62,0-2.46-1.33-2.46-3.4s.93-3.57,2.28-3.57,1.94,1.46,1.94,3c0,.26,0,.44,0,.6Zm2.13-.79c0-1.36-.5-2-1-2-.71,0-1.06,1-1.11,2Z" transform="translate(-0.17 -1.91)"/><path class="cls-1" d="M191.73,11.72l-.07-.72h0a1.53,1.53,0,0,1-1.36.83,1.72,1.72,0,0,1-1.6-1.94c0-1.69,1.35-2.44,2.89-2.45V7.22c0-.91-.23-1.54-1.09-1.54a2,2,0,0,0-1.12.35l-.23-.75a2.91,2.91,0,0,1,1.58-.45c1.36,0,1.94.89,1.94,2.42v2.93a12.46,12.46,0,0,0,.07,1.54Zm-.16-3.51c-.55,0-1.86.11-1.86,1.58,0,.88.44,1.2.83,1.2s.87-.36,1-1a2.56,2.56,0,0,0,0-.39Z" transform="translate(-0.17 -1.91)"/><path class="cls-1" d="M194.14,2h1.08v9.69h-1.08Z" transform="translate(-0.17 -1.91)"/><path class="cls-1" d="M2.08,19.94v1.8h1.3v.82H2.08v4c0,.88.31,1.12.7,1.12a1.9,1.9,0,0,0,.44-.05l0,.84a2.44,2.44,0,0,1-.8.1,1.31,1.31,0,0,1-1.06-.41A2.38,2.38,0,0,1,1,26.49V22.56H.17v-.82H1V20.25Z" transform="translate(-0.17 -1.91)"/><path class="cls-1" d="M5.49,20a.64.64,0,1,1-1.27,0,.64.64,0,1,1,1.27,0ZM4.32,28.52V21.74H5.4v6.78Z" transform="translate(-0.17 -1.91)"/><path class="cls-1" d="M6.9,23.49c0-.79,0-1.2-.06-1.75h1l0,.84h0a1.69,1.69,0,0,1,1.53-.95,1.42,1.42,0,0,1,1.42,1h0a2.17,2.17,0,0,1,.67-.78,1.75,1.75,0,0,1,.94-.26c.91,0,1.63.67,1.63,2.4v4.49H13V24.27c0-.88-.12-1.74-.94-1.74-.45,0-.84.38-1,1a2.9,2.9,0,0,0-.05.61v4.36H10V24.07c0-.74-.13-1.54-.93-1.54-.44,0-.88.38-1,1.11a3.4,3.4,0,0,0,0,.57v4.31H6.9Z" transform="translate(-0.17 -1.91)"/><path class="cls-1" d="M16.34,25.22c0,2.08.83,2.52,1.6,2.52a2.41,2.41,0,0,0,1.12-.25l.18.78a3.12,3.12,0,0,1-1.49.33c-1.63,0-2.47-1.33-2.47-3.4s.94-3.57,2.29-3.57,1.94,1.46,1.94,3c0,.26,0,.44,0,.6Zm2.13-.79c0-1.36-.49-2-1-2-.71,0-1.06,1-1.11,2Z" transform="translate(-0.17 -1.91)"/><path class="cls-1" d="M20,30.28A20.72,20.72,0,0,0,20.82,27L22,26.88a17,17,0,0,1-1.29,3.31Z" transform="translate(-0.17 -1.91)"/><path class="cls-1" d="M28.12,28.52,28,27.8h0a1.53,1.53,0,0,1-1.36.83A1.72,1.72,0,0,1,25,26.69c0-1.69,1.36-2.44,2.89-2.45V24c0-.91-.23-1.54-1.08-1.54a2,2,0,0,0-1.12.35l-.23-.75a2.88,2.88,0,0,1,1.58-.45c1.36,0,1.94.89,1.94,2.41V27a12.46,12.46,0,0,0,.07,1.54ZM28,25c-.56,0-1.87.11-1.87,1.58,0,.88.45,1.2.84,1.2s.87-.36,1-1a1.72,1.72,0,0,0,0-.39Z" transform="translate(-0.17 -1.91)"/><path class="cls-1" d="M31.73,19.94v1.8H33v.82h-1.3v4c0,.88.31,1.12.7,1.12a1.78,1.78,0,0,0,.44-.05l.05.84a2.4,2.4,0,0,1-.8.1,1.31,1.31,0,0,1-1.06-.41,2.38,2.38,0,0,1-.41-1.7V22.56h-.82v-.82h.82V20.25Z" transform="translate(-0.17 -1.91)"/><path class="cls-1" d="M38.86,28.52l-.08-.72h0a1.52,1.52,0,0,1-1.35.83,1.72,1.72,0,0,1-1.61-1.94c0-1.69,1.36-2.44,2.89-2.45V24c0-.91-.23-1.54-1.08-1.54a2.1,2.1,0,0,0-1.13.35l-.23-.75a3,3,0,0,1,1.59-.45c1.35,0,1.94.89,1.94,2.41V27a10.77,10.77,0,0,0,.07,1.54ZM38.69,25c-.55,0-1.86.11-1.86,1.58,0,.88.45,1.2.84,1.2s.87-.36,1-1a1.71,1.71,0,0,0,0-.39Z" transform="translate(-0.17 -1.91)"/><path class="cls-1" d="M43.28,27.4a2.2,2.2,0,0,0,1.1.35.92.92,0,0,0,1-1c0-.51-.19-.87-.87-1.32-.88-.57-1.37-1.16-1.37-1.93A1.83,1.83,0,0,1,45,21.63a2.25,2.25,0,0,1,1.2.35l-.28.81a1.62,1.62,0,0,0-.91-.3.83.83,0,0,0-.87.86c0,.46.17.71.84,1.17a2.51,2.51,0,0,1,1.4,2.07,1.89,1.89,0,0,1-2,2A2.29,2.29,0,0,1,43,28.21Z" transform="translate(-0.17 -1.91)"/><path class="cls-1" d="M48.83,19.94v1.8h1.3v.82h-1.3v4c0,.88.32,1.12.71,1.12a1.9,1.9,0,0,0,.44-.05l.05.84a2.46,2.46,0,0,1-.81.1,1.34,1.34,0,0,1-1.06-.41,2.44,2.44,0,0,1-.4-1.7V22.56h-.83v-.82h.83V20.25Z" transform="translate(-0.17 -1.91)"/><path class="cls-1" d="M53.76,28.52l-.07-.72h0a1.52,1.52,0,0,1-1.35.83,1.72,1.72,0,0,1-1.61-1.94c0-1.69,1.36-2.44,2.89-2.45V24c0-.91-.23-1.54-1.08-1.54a2,2,0,0,0-1.12.35l-.24-.75a3,3,0,0,1,1.59-.45c1.35,0,1.94.89,1.94,2.41V27a10.77,10.77,0,0,0,.07,1.54ZM53.6,25c-.55,0-1.86.11-1.86,1.58,0,.88.45,1.2.83,1.2s.88-.36,1-1a1.71,1.71,0,0,0,0-.39Z" transform="translate(-0.17 -1.91)"/><path class="cls-1" d="M60.33,21.74c0,.47-.06,1.07-.06,2.12v3.78c0,1.79-.23,2.47-.67,3a2.36,2.36,0,0,1-1.8.72A3.4,3.4,0,0,1,56.3,31l.25-.85a2.81,2.81,0,0,0,1.27.3c.85,0,1.38-.54,1.38-2.07v-.69h0a1.35,1.35,0,0,1-1.29.82c-1.2,0-2-1.35-2-3.34,0-2.5,1.13-3.53,2.13-3.53a1.37,1.37,0,0,1,1.26.87h0l0-.76ZM59.2,24.08a1.6,1.6,0,0,0-.06-.5c-.11-.46-.36-1-1-1-.78,0-1.2,1.05-1.2,2.55,0,1.74.54,2.52,1.19,2.52.34,0,.76-.15,1-1A2.2,2.2,0,0,0,59.2,26Z" transform="translate(-0.17 -1.91)"/><path class="cls-1" d="M62.53,25.22c0,2.08.82,2.52,1.6,2.52a2.44,2.44,0,0,0,1.12-.25l.18.78a3.19,3.19,0,0,1-1.5.33c-1.62,0-2.46-1.33-2.46-3.4s.93-3.57,2.28-3.57,1.94,1.46,1.94,3c0,.26,0,.44,0,.6Zm2.13-.79c0-1.36-.5-2-1-2-.71,0-1.06,1-1.11,2Z" transform="translate(-0.17 -1.91)"/><path class="cls-1" d="M69,23.86c0-1.05,0-1.64-.06-2.12h1l0,.86h0a1.58,1.58,0,0,1,1.44-1c1.17,0,2,1.25,2,3.48,0,2.52-1,3.52-2.1,3.52a1.29,1.29,0,0,1-1.19-.78h0v3.36H69ZM70.11,26a2.48,2.48,0,0,0,0,.56c.21,1,.69,1.14,1,1.14.89,0,1.18-1.23,1.18-2.59s-.34-2.59-1.19-2.59c-.49,0-.93.61-1,1.23a3,3,0,0,0,0,.52Z" transform="translate(-0.17 -1.91)"/><path class="cls-1" d="M74.62,23.49c0-.57,0-1.24-.05-1.75h1l0,1.06h0A1.64,1.64,0,0,1,77,21.63h.22v1.11H77a1.48,1.48,0,0,0-1.31,1.41,5.66,5.66,0,0,0,0,.61v3.76H74.62Z" transform="translate(-0.17 -1.91)"/><path class="cls-1" d="M79.24,20A.64.64,0,1,1,78,20a.64.64,0,1,1,1.27,0Zm-1.17,8.53V21.74h1.08v6.78Z" transform="translate(-0.17 -1.91)"/><path class="cls-1" d="M84.81,25.12c0,2.63-1.22,3.51-2.25,3.51-1.22,0-2.21-1.11-2.21-3.49s1.11-3.51,2.28-3.51S84.81,22.77,84.81,25.12Zm-3.37,0c0,1.12.2,2.64,1.17,2.64s1.11-1.58,1.11-2.64-.18-2.64-1.14-2.64S81.44,24.09,81.44,25.13Z" transform="translate(-0.17 -1.91)"/><path class="cls-1" d="M86,23.49c0-.57,0-1.24,0-1.75h1l0,1.06h0a1.64,1.64,0,0,1,1.42-1.17h.22v1.11h-.22a1.47,1.47,0,0,0-1.3,1.41,3.82,3.82,0,0,0,0,.61v3.76H86Z" transform="translate(-0.17 -1.91)"/><path class="cls-1" d="M93,19.94v1.8h1.3v.82H93v4c0,.88.32,1.12.71,1.12a1.75,1.75,0,0,0,.43-.05l0,.84a2.36,2.36,0,0,1-.8.1,1.32,1.32,0,0,1-1.06-.41,2.44,2.44,0,0,1-.4-1.7V22.56H91.1v-.82h.83V20.25Z" transform="translate(-0.17 -1.91)"/><path class="cls-1" d="M99.3,25.12c0,2.63-1.22,3.51-2.26,3.51-1.21,0-2.2-1.11-2.2-3.49s1.11-3.51,2.28-3.51S99.3,22.77,99.3,25.12Zm-3.37,0c0,1.12.2,2.64,1.17,2.64s1.11-1.58,1.11-2.64-.18-2.64-1.14-2.64S95.93,24.09,95.93,25.13Z" transform="translate(-0.17 -1.91)"/><path class="cls-1" d="M104,19.94v1.8h1.3v.82H104v4c0,.88.32,1.12.71,1.12a1.75,1.75,0,0,0,.43-.05l0,.84a2.36,2.36,0,0,1-.8.1,1.32,1.32,0,0,1-1.06-.41,2.44,2.44,0,0,1-.4-1.7V22.56h-.83v-.82H103V20.25Z" transform="translate(-0.17 -1.91)"/><path class="cls-1" d="M106.27,18.83h1.07v3.64h0a2.18,2.18,0,0,1,.57-.6,1.65,1.65,0,0,1,.9-.24c.86,0,1.59.68,1.59,2.39v4.5h-1.08V24.15c0-.83-.18-1.61-.91-1.61-.5,0-.89.36-1,1.08a2.84,2.84,0,0,0,0,.51v4.39h-1.07Z" transform="translate(-0.17 -1.91)"/><path class="cls-1" d="M112.7,25.22c0,2.08.82,2.52,1.6,2.52a2.41,2.41,0,0,0,1.12-.25l.18.78a3.15,3.15,0,0,1-1.49.33c-1.63,0-2.47-1.33-2.47-3.4s.94-3.57,2.29-3.57,1.94,1.46,1.94,3a4.75,4.75,0,0,1,0,.6Zm2.13-.79c0-1.36-.49-2-1-2-.71,0-1.06,1-1.11,2Z" transform="translate(-0.17 -1.91)"/><path class="cls-1" d="M119.22,23.49c0-.79,0-1.2-.06-1.75h1l0,.84h0a1.67,1.67,0,0,1,1.52-.95,1.41,1.41,0,0,1,1.42,1h0a2.17,2.17,0,0,1,.67-.78,1.71,1.71,0,0,1,.93-.26c.92,0,1.63.67,1.63,2.4v4.49h-1.07V24.27c0-.88-.13-1.74-.94-1.74-.45,0-.84.38-1,1a2.9,2.9,0,0,0,0,.61v4.36h-1.07V24.07c0-.74-.13-1.54-.93-1.54-.45,0-.88.38-1,1.11a3.4,3.4,0,0,0,0,.57v4.31h-1.07Z" transform="translate(-0.17 -1.91)"/><path class="cls-1" d="M129.07,20a.64.64,0,1,1-1.28,0,.65.65,0,0,1,.63-.71A.64.64,0,0,1,129.07,20Zm-1.17,8.53V21.74H129v6.78Z" transform="translate(-0.17 -1.91)"/><path class="cls-1" d="M130.47,23.49c0-.79,0-1.2-.05-1.75h.94l0,.82h0a1.71,1.71,0,0,1,1.55-.93c.94,0,1.64.69,1.64,2.33v4.56h-1.07V24.15c0-.81-.15-1.61-.94-1.61-.45,0-.88.38-1,1.1a3.58,3.58,0,0,0,0,.61v4.27h-1.08Z" transform="translate(-0.17 -1.91)"/><path class="cls-1" d="M137.31,20A.64.64,0,1,1,136,20a.64.64,0,1,1,1.27,0Zm-1.17,8.53V21.74h1.08v6.78Z" transform="translate(-0.17 -1.91)"/><path class="cls-1" d="M138.72,23.49c0-.79,0-1.2-.06-1.75h1l0,.82h0a1.71,1.71,0,0,1,1.55-.93c.94,0,1.64.69,1.64,2.33v4.56h-1.07V24.15c0-.81-.16-1.61-.95-1.61-.45,0-.88.38-1,1.1a2.74,2.74,0,0,0-.06.61v4.27h-1.07Z" transform="translate(-0.17 -1.91)"/><path class="cls-1" d="M148.54,21.74c0,.47-.06,1.07-.06,2.12v3.78c0,1.79-.23,2.47-.67,3a2.36,2.36,0,0,1-1.8.72,3.4,3.4,0,0,1-1.5-.33l.25-.85a2.81,2.81,0,0,0,1.27.3c.85,0,1.38-.54,1.38-2.07v-.69h0a1.35,1.35,0,0,1-1.29.82c-1.2,0-2-1.35-2-3.34,0-2.5,1.13-3.53,2.13-3.53a1.37,1.37,0,0,1,1.26.87h0l0-.76Zm-1.13,2.34a2,2,0,0,0,0-.5c-.12-.46-.37-1-1-1-.78,0-1.2,1.05-1.2,2.55,0,1.74.54,2.52,1.19,2.52.34,0,.76-.15,1-1a2.2,2.2,0,0,0,.07-.61Z" transform="translate(-0.17 -1.91)"/><path class="cls-1" d="M152.16,23.86c0-1.05,0-1.64,0-2.12h1l.05.86h0a1.56,1.56,0,0,1,1.43-1c1.18,0,2,1.25,2,3.48,0,2.52-1,3.52-2.09,3.52a1.29,1.29,0,0,1-1.19-.78h0v3.36h-1.07ZM153.23,26a2.47,2.47,0,0,0,.06.56c.21,1,.69,1.14,1,1.14.89,0,1.18-1.23,1.18-2.59s-.34-2.59-1.2-2.59c-.49,0-.92.61-1,1.23a3,3,0,0,0,0,.52Z" transform="translate(-0.17 -1.91)"/><path class="cls-1" d="M157.75,23.49c0-.57,0-1.24-.06-1.75h1l.05,1.06h0a1.62,1.62,0,0,1,1.41-1.17h.23v1.11h-.22a1.47,1.47,0,0,0-1.31,1.41,5.51,5.51,0,0,0,0,.61v3.76h-1.07Z" transform="translate(-0.17 -1.91)"/><path class="cls-1" d="M165.2,25.12c0,2.63-1.22,3.51-2.26,3.51-1.21,0-2.2-1.11-2.2-3.49s1.11-3.51,2.27-3.51S165.2,22.77,165.2,25.12Zm-3.38,0c0,1.12.2,2.64,1.17,2.64s1.12-1.58,1.12-2.64-.19-2.64-1.15-2.64S161.82,24.09,161.82,25.13Z" transform="translate(-0.17 -1.91)"/><path class="cls-1" d="M169.7,28.35a2.29,2.29,0,0,1-1.12.25c-1.48,0-2.48-1.19-2.48-3.43,0-2,1-3.53,2.68-3.53a2,2,0,0,1,.95.22l-.21.88a1.58,1.58,0,0,0-.77-.19c-1.08,0-1.57,1.29-1.57,2.62,0,1.58.61,2.53,1.6,2.53a1.69,1.69,0,0,0,.78-.18Z" transform="translate(-0.17 -1.91)"/><path class="cls-1" d="M171.3,25.22c0,2.08.83,2.52,1.6,2.52a2.49,2.49,0,0,0,1.13-.25l.17.78a3.12,3.12,0,0,1-1.49.33c-1.62,0-2.47-1.33-2.47-3.4s.94-3.57,2.29-3.57,1.94,1.46,1.94,3c0,.26,0,.44,0,.6Zm2.13-.79c0-1.36-.49-2-1-2-.72,0-1.07,1-1.12,2Z" transform="translate(-0.17 -1.91)"/><path class="cls-1" d="M175.44,27.4a2.2,2.2,0,0,0,1.09.35.92.92,0,0,0,1-1c0-.51-.19-.87-.87-1.32-.89-.57-1.37-1.16-1.37-1.93a1.83,1.83,0,0,1,1.87-1.88,2.29,2.29,0,0,1,1.21.35l-.29.81a1.56,1.56,0,0,0-.9-.3.83.83,0,0,0-.88.86c0,.46.18.71.85,1.17a2.51,2.51,0,0,1,1.4,2.07,1.89,1.89,0,0,1-2.05,2,2.33,2.33,0,0,1-1.34-.39Z" transform="translate(-0.17 -1.91)"/><path class="cls-1" d="M179.48,27.4a2.2,2.2,0,0,0,1.1.35.92.92,0,0,0,1-1c0-.51-.19-.87-.87-1.32-.88-.57-1.37-1.16-1.37-1.93a1.83,1.83,0,0,1,1.88-1.88,2.22,2.22,0,0,1,1.2.35l-.28.81a1.62,1.62,0,0,0-.91-.3.83.83,0,0,0-.87.86c0,.46.17.71.84,1.17a2.51,2.51,0,0,1,1.4,2.07,1.89,1.89,0,0,1-2,2,2.31,2.31,0,0,1-1.34-.39Z" transform="translate(-0.17 -1.91)"/><path class="cls-1" d="M183,30.28a19.67,19.67,0,0,0,.81-3.26l1.22-.14a17.65,17.65,0,0,1-1.28,3.31Z" transform="translate(-0.17 -1.91)"/><path class="cls-1" d="M3.44,45.32l-.08-.72h0A1.55,1.55,0,0,1,2,45.43,1.72,1.72,0,0,1,.36,43.49c0-1.69,1.36-2.44,2.89-2.45v-.22c0-.91-.23-1.54-1.08-1.54a2,2,0,0,0-1.12.35l-.24-.75a3,3,0,0,1,1.59-.45c1.36,0,1.94.89,1.94,2.41v2.94a10.77,10.77,0,0,0,.07,1.54Zm-.16-3.51c-.56,0-1.87.11-1.87,1.58,0,.88.45,1.2.84,1.2s.87-.36,1-1a1.72,1.72,0,0,0,0-.39Z" transform="translate(-0.17 -1.91)"/><path class="cls-1" d="M5.85,35.62H6.92v9.7H5.85Z" transform="translate(-0.17 -1.91)"/><path class="cls-1" d="M8.52,35.62H9.6v9.7H8.52Z" transform="translate(-0.17 -1.91)"/><path class="cls-1" d="M15.36,41.92c0,2.62-1.22,3.51-2.26,3.51-1.21,0-2.2-1.11-2.2-3.49s1.11-3.51,2.28-3.51S15.36,39.57,15.36,41.92Zm-3.37,0c0,1.12.2,2.64,1.17,2.64s1.11-1.58,1.11-2.64-.19-2.64-1.14-2.64S12,40.89,12,41.93Z" transform="translate(-0.17 -1.91)"/><path class="cls-1" d="M17,38.54l.65,3.31c.14.73.29,1.47.37,2.17h0c.11-.7.28-1.49.43-2.14l.78-3.34h.83l.74,3.25c.17.75.32,1.47.44,2.23h.05c.08-.72.21-1.42.37-2.19l.64-3.29h1.08l-1.71,6.78h-.88L20.07,42a17.72,17.72,0,0,1-.38-2h0a18.37,18.37,0,0,1-.4,2.08l-.8,3.25h-.92l-1.65-6.78Z" transform="translate(-0.17 -1.91)"/><path class="cls-1" d="M24.17,44.2a2.2,2.2,0,0,0,1.1.35.93.93,0,0,0,1-1c0-.51-.19-.87-.87-1.32-.88-.57-1.37-1.16-1.37-1.93a1.83,1.83,0,0,1,1.88-1.88,2.25,2.25,0,0,1,1.2.35l-.28.81a1.62,1.62,0,0,0-.91-.3.83.83,0,0,0-.87.86c0,.46.17.71.84,1.17a2.51,2.51,0,0,1,1.4,2.07,1.89,1.89,0,0,1-2,2A2.29,2.29,0,0,1,23.91,45Z" transform="translate(-0.17 -1.91)"/><path class="cls-1" d="M31.77,36.79a.63.63,0,0,1-.66.7.64.64,0,0,1-.62-.7.65.65,0,0,1,.64-.71A.63.63,0,0,1,31.77,36.79ZM30.6,45.32V38.54h1.08v6.78Z" transform="translate(-0.17 -1.91)"/><path class="cls-1" d="M33.18,40.29c0-.79,0-1.2-.06-1.75h.94l.06.82h0a1.7,1.7,0,0,1,1.55-.93c.93,0,1.64.69,1.64,2.33v4.56H36.26V41c0-.81-.15-1.61-.94-1.61-.45,0-.88.38-1,1.1a3.58,3.58,0,0,0,0,.61v4.27H33.18Z" transform="translate(-0.17 -1.91)"/><path class="cls-1" d="M39.07,45.32v-6h-.85v-.82h.85v-.41a3,3,0,0,1,.6-2A1.83,1.83,0,0,1,41,35.51a1.9,1.9,0,0,1,.85.17l-.18.85a1.41,1.41,0,0,0-.59-.12c-.78,0-1,.82-1,1.7v.43h1.24v.82H40.15v6Z" transform="translate(-0.17 -1.91)"/><path class="cls-1" d="M46.16,41.92c0,2.62-1.22,3.51-2.26,3.51-1.21,0-2.2-1.11-2.2-3.49s1.11-3.51,2.28-3.51S46.16,39.57,46.16,41.92Zm-3.37,0c0,1.12.2,2.64,1.17,2.64s1.11-1.58,1.11-2.64-.19-2.64-1.14-2.64S42.79,40.89,42.79,41.93Z" transform="translate(-0.17 -1.91)"/><path class="cls-1" d="M47.35,40.29c0-.57,0-1.24-.06-1.75h1l.05,1.06h0a1.62,1.62,0,0,1,1.41-1.17H50v1.1h-.22A1.47,1.47,0,0,0,48.46,41a5.35,5.35,0,0,0,0,.61v3.76H47.35Z" transform="translate(-0.17 -1.91)"/><path class="cls-1" d="M50.8,40.29c0-.79,0-1.2,0-1.75h.94l.06.84h0a1.69,1.69,0,0,1,1.53-1,1.42,1.42,0,0,1,1.42,1h0a2.06,2.06,0,0,1,.66-.78,1.75,1.75,0,0,1,.94-.26c.92,0,1.63.67,1.63,2.4v4.49H56.91V41.07c0-.88-.13-1.74-.95-1.74-.45,0-.84.38-1,1a2.93,2.93,0,0,0,0,.61v4.36H53.86V40.87c0-.74-.14-1.54-.94-1.54-.44,0-.88.38-1,1.11a3.36,3.36,0,0,0-.05.57v4.31H50.8Z" transform="translate(-0.17 -1.91)"/><path class="cls-1" d="M60.24,42c0,2.08.83,2.52,1.61,2.52A2.47,2.47,0,0,0,63,44.29l.18.78a3.19,3.19,0,0,1-1.5.33c-1.62,0-2.47-1.33-2.47-3.4s.94-3.57,2.29-3.57,1.94,1.46,1.94,3c0,.26,0,.44,0,.6Zm2.13-.79c0-1.36-.49-2-1-2-.72,0-1.07,1-1.12,2Z" transform="translate(-0.17 -1.91)"/><path class="cls-1" d="M68.65,35.62V43.7c0,.45,0,1.22,0,1.62h-.92l-.07-.85h0a1.57,1.57,0,0,1-1.42,1c-1.15,0-2-1.24-2-3.47,0-2.41,1-3.53,2-3.53a1.31,1.31,0,0,1,1.24.8h0V35.62Zm-1.07,5.5a3.46,3.46,0,0,0,0-.45c-.06-.71-.48-1.32-1-1.32-.89,0-1.2,1.25-1.2,2.6s.37,2.58,1.15,2.58c.33,0,.79-.18,1-1.16a2,2,0,0,0,0-.45Z" transform="translate(-0.17 -1.91)"/><path class="cls-1" d="M76.43,35.62V43.7c0,.45,0,1.22.06,1.62h-.93l-.07-.85h0a1.56,1.56,0,0,1-1.42,1c-1.14,0-2-1.24-2-3.47,0-2.41,1-3.53,2-3.53a1.3,1.3,0,0,1,1.24.8h0V35.62Zm-1.07,5.5a3.46,3.46,0,0,0,0-.45c-.06-.71-.48-1.32-1-1.32-.9,0-1.2,1.25-1.2,2.6s.36,2.58,1.14,2.58c.33,0,.79-.18,1-1.16a2,2,0,0,0,0-.45Z" transform="translate(-0.17 -1.91)"/><path class="cls-1" d="M78.69,42c0,2.08.83,2.52,1.61,2.52a2.47,2.47,0,0,0,1.12-.25l.18.78a3.19,3.19,0,0,1-1.5.33c-1.62,0-2.46-1.33-2.46-3.4s.93-3.57,2.28-3.57,1.94,1.46,1.94,3c0,.26,0,.44,0,.6Zm2.13-.79c0-1.36-.49-2-1-2-.71,0-1.07,1-1.12,2Z" transform="translate(-0.17 -1.91)"/><path class="cls-1" d="M86.32,45.15a2.29,2.29,0,0,1-1.12.25c-1.48,0-2.48-1.19-2.48-3.43,0-1.95,1-3.53,2.68-3.53a2,2,0,0,1,.95.22l-.21.88a1.58,1.58,0,0,0-.77-.19c-1.08,0-1.57,1.29-1.57,2.62,0,1.58.61,2.53,1.6,2.53a1.69,1.69,0,0,0,.78-.18Z" transform="translate(-0.17 -1.91)"/><path class="cls-1" d="M88.41,36.79a.64.64,0,1,1-1.27,0,.64.64,0,1,1,1.27,0Zm-1.17,8.53V38.54h1.08v6.78Z" transform="translate(-0.17 -1.91)"/><path class="cls-1" d="M89.63,44.2a2.24,2.24,0,0,0,1.1.35.93.93,0,0,0,1-1c0-.51-.19-.87-.86-1.32-.89-.57-1.38-1.16-1.38-1.93a1.83,1.83,0,0,1,1.88-1.88,2.29,2.29,0,0,1,1.21.35l-.29.81a1.62,1.62,0,0,0-.9-.3.83.83,0,0,0-.88.86c0,.46.17.71.84,1.17a2.49,2.49,0,0,1,1.4,2.07,1.89,1.89,0,0,1-2,2A2.33,2.33,0,0,1,89.37,45Z" transform="translate(-0.17 -1.91)"/><path class="cls-1" d="M95,36.79a.64.64,0,0,1-.67.7.63.63,0,0,1-.61-.7.64.64,0,1,1,1.28,0Zm-1.17,8.53V38.54h1.07v6.78Z" transform="translate(-0.17 -1.91)"/><path class="cls-1" d="M100.6,41.92c0,2.62-1.22,3.51-2.25,3.51-1.22,0-2.21-1.11-2.21-3.49s1.11-3.51,2.28-3.51S100.6,39.57,100.6,41.92Zm-3.37,0c0,1.12.2,2.64,1.17,2.64s1.12-1.58,1.12-2.64-.19-2.64-1.15-2.64S97.23,40.89,97.23,41.93Z" transform="translate(-0.17 -1.91)"/><path class="cls-1" d="M101.8,40.29c0-.79,0-1.2,0-1.75h.94l0,.82h0a1.71,1.71,0,0,1,1.55-.93c.94,0,1.64.69,1.64,2.33v4.56h-1.07V41c0-.81-.16-1.61-.94-1.61-.46,0-.88.38-1,1.1a2.78,2.78,0,0,0-.05.61v4.27H101.8Z" transform="translate(-0.17 -1.91)"/><path class="cls-1" d="M107.29,44.2a2.2,2.2,0,0,0,1.09.35.93.93,0,0,0,1-1c0-.51-.19-.87-.87-1.32-.89-.57-1.37-1.16-1.37-1.93A1.83,1.83,0,0,1,109,38.43a2.29,2.29,0,0,1,1.21.35l-.29.81a1.59,1.59,0,0,0-.9-.3.83.83,0,0,0-.88.86c0,.46.18.71.85,1.17a2.51,2.51,0,0,1,1.4,2.07,1.89,1.89,0,0,1-2,2A2.28,2.28,0,0,1,107,45Z" transform="translate(-0.17 -1.91)"/><path class="cls-1" d="M116.4,45.32l-.07-.72h0a1.53,1.53,0,0,1-1.36.83,1.72,1.72,0,0,1-1.61-1.94c0-1.69,1.36-2.44,2.9-2.45v-.22c0-.91-.24-1.54-1.09-1.54a2,2,0,0,0-1.12.35l-.23-.75a2.88,2.88,0,0,1,1.58-.45c1.36,0,1.94.89,1.94,2.41v2.94a12.46,12.46,0,0,0,.07,1.54Zm-.16-3.51c-.55,0-1.86.11-1.86,1.58,0,.88.44,1.2.83,1.2s.87-.36,1-1a2.56,2.56,0,0,0,0-.39Z" transform="translate(-0.17 -1.91)"/><path class="cls-1" d="M118.75,45.32c0-.39,0-1.17,0-1.62V35.62h1.07v3.72h0a1.51,1.51,0,0,1,1.43-.91c1.06,0,1.86,1.21,1.86,3.43,0,2.45-1,3.57-2.06,3.57a1.4,1.4,0,0,1-1.34-1h-.05l-.07.89Zm1.12-2.39a1.79,1.79,0,0,0,0,.42c.25,1,.71,1.18,1,1.18.87,0,1.17-1.18,1.17-2.62s-.32-2.56-1.19-2.56c-.5,0-.91.63-1,1.21a3.73,3.73,0,0,0,0,.47Z" transform="translate(-0.17 -1.91)"/><path class="cls-1" d="M128.56,41.92c0,2.62-1.22,3.51-2.26,3.51-1.21,0-2.2-1.11-2.2-3.49s1.11-3.51,2.28-3.51S128.56,39.57,128.56,41.92Zm-3.37,0c0,1.12.2,2.64,1.17,2.64s1.11-1.58,1.11-2.64-.18-2.64-1.14-2.64S125.19,40.89,125.19,41.93Z" transform="translate(-0.17 -1.91)"/><path class="cls-1" d="M133.83,43.47c0,.75,0,1.34,0,1.85h-.94l-.07-.71h0a1.8,1.8,0,0,1-1.46.82c-1.18,0-1.65-.92-1.65-2.61V38.54h1.08v4.13c0,1.06.17,1.85.91,1.85a1,1,0,0,0,1-.9,2.87,2.87,0,0,0,.06-.61V38.54h1.08Z" transform="translate(-0.17 -1.91)"/><path class="cls-1" d="M136.65,36.74v1.8H138v.82h-1.3v4c0,.88.32,1.11.71,1.11a1.8,1.8,0,0,0,.43,0l.05.84a2.36,2.36,0,0,1-.8.1A1.34,1.34,0,0,1,136,45a2.44,2.44,0,0,1-.4-1.7V39.36h-.83v-.82h.83V37.05Z" transform="translate(-0.17 -1.91)"/><path class="cls-1" d="M142.42,36.74v1.8h1.3v.82h-1.3v4c0,.88.32,1.11.71,1.11a1.8,1.8,0,0,0,.43,0l.05.84a2.36,2.36,0,0,1-.8.1,1.32,1.32,0,0,1-1.06-.41,2.44,2.44,0,0,1-.4-1.7V39.36h-.83v-.82h.83V37.05Z" transform="translate(-0.17 -1.91)"/><path class="cls-1" d="M144.67,35.62h1.07v3.65h0a2.08,2.08,0,0,1,.58-.6,1.6,1.6,0,0,1,.9-.24c.86,0,1.58.68,1.58,2.39v4.5h-1.07V41c0-.83-.19-1.61-.92-1.61-.5,0-.89.36-1.05,1.08a2.84,2.84,0,0,0,0,.51v4.39h-1.07Z" transform="translate(-0.17 -1.91)"/><path class="cls-1" d="M151.1,42c0,2.08.82,2.52,1.6,2.52a2.49,2.49,0,0,0,1.13-.25l.17.78a3.12,3.12,0,0,1-1.49.33c-1.63,0-2.47-1.33-2.47-3.4s.94-3.57,2.29-3.57,1.94,1.46,1.94,3c0,.26,0,.44,0,.6Zm2.13-.79c0-1.36-.49-2-1-2-.71,0-1.06,1-1.11,2Z" transform="translate(-0.17 -1.91)"/><path class="cls-1" d="M161.7,35.62V43.7c0,.45,0,1.22.06,1.62h-.92l-.08-.85h0a1.55,1.55,0,0,1-1.41,1c-1.15,0-2-1.24-2-3.47,0-2.41,1-3.53,2.05-3.53a1.29,1.29,0,0,1,1.23.8h0V35.62Zm-1.07,5.5a3.46,3.46,0,0,0,0-.45c-.06-.71-.48-1.32-1-1.32-.9,0-1.2,1.25-1.2,2.6s.37,2.58,1.14,2.58c.33,0,.8-.18,1-1.16a2,2,0,0,0,0-.45Z" transform="translate(-0.17 -1.91)"/><path class="cls-1" d="M164.38,36.79a.64.64,0,0,1-.67.7.63.63,0,0,1-.61-.7.64.64,0,1,1,1.28,0Zm-1.17,8.53V38.54h1.07v6.78Z" transform="translate(-0.17 -1.91)"/><path class="cls-1" d="M165.77,40.29c0-.57,0-1.24-.05-1.75h1l0,1.06h0a1.64,1.64,0,0,1,1.42-1.17h.22v1.1h-.22A1.48,1.48,0,0,0,166.88,41a5.53,5.53,0,0,0,0,.61v3.76h-1.08Z" transform="translate(-0.17 -1.91)"/><path class="cls-1" d="M169.82,42c0,2.08.82,2.52,1.6,2.52a2.41,2.41,0,0,0,1.12-.25l.18.78a3.19,3.19,0,0,1-1.5.33c-1.62,0-2.46-1.33-2.46-3.4s.93-3.57,2.28-3.57,1.94,1.46,1.94,3a5.08,5.08,0,0,1,0,.6Zm2.13-.79c0-1.36-.5-2-1-2-.71,0-1.06,1-1.11,2Z" transform="translate(-0.17 -1.91)"/><path class="cls-1" d="M177.44,45.15a2.29,2.29,0,0,1-1.12.25c-1.47,0-2.48-1.19-2.48-3.43,0-1.95,1-3.53,2.68-3.53a2.09,2.09,0,0,1,1,.22l-.22.88a1.58,1.58,0,0,0-.77-.19c-1.08,0-1.56,1.29-1.56,2.62,0,1.58.6,2.53,1.59,2.53a1.69,1.69,0,0,0,.78-.18Z" transform="translate(-0.17 -1.91)"/><path class="cls-1" d="M179.9,36.74v1.8h1.3v.82h-1.3v4c0,.88.31,1.11.7,1.11a1.83,1.83,0,0,0,.44,0l.05.84a2.4,2.4,0,0,1-.8.1,1.31,1.31,0,0,1-1.06-.41,2.38,2.38,0,0,1-.41-1.7V39.36H178v-.82h.82V37.05Z" transform="translate(-0.17 -1.91)"/><path class="cls-1" d="M183.32,36.79a.64.64,0,1,1-1.28,0,.64.64,0,0,1,.63-.71A.64.64,0,0,1,183.32,36.79Zm-1.17,8.53V38.54h1.07v6.78Z" transform="translate(-0.17 -1.91)"/><path class="cls-1" d="M188.88,41.92c0,2.62-1.21,3.51-2.25,3.51-1.21,0-2.21-1.11-2.21-3.49s1.11-3.51,2.28-3.51S188.88,39.57,188.88,41.92Zm-3.37,0c0,1.12.2,2.64,1.17,2.64s1.12-1.58,1.12-2.64-.19-2.64-1.15-2.64S185.51,40.89,185.51,41.93Z" transform="translate(-0.17 -1.91)"/><path class="cls-1" d="M190.09,40.29c0-.79,0-1.2-.06-1.75H191l.05.82h0a1.71,1.71,0,0,1,1.55-.93c.94,0,1.65.69,1.65,2.33v4.56h-1.08V41c0-.81-.15-1.61-.94-1.61-.45,0-.88.38-1,1.1a3.58,3.58,0,0,0-.05.61v4.27h-1.07Z" transform="translate(-0.17 -1.91)"/><path class="cls-1" d="M4.92,58.72c0,2.63-1.22,3.51-2.26,3.51-1.21,0-2.2-1.11-2.2-3.49s1.1-3.51,2.27-3.51S4.92,56.37,4.92,58.72Zm-3.38,0c0,1.12.2,2.64,1.17,2.64s1.12-1.58,1.12-2.64-.19-2.64-1.15-2.64S1.54,57.69,1.54,58.73Z" transform="translate(-0.17 -1.91)"/><path class="cls-1" d="M6.34,62.12v-6H5.49v-.82h.85v-.41a3,3,0,0,1,.6-2,1.83,1.83,0,0,1,1.36-.58,1.9,1.9,0,0,1,.85.17L9,53.33a1.41,1.41,0,0,0-.59-.12c-.78,0-1,.82-1,1.7v.43H8.66v.82H7.42v6Z" transform="translate(-0.17 -1.91)"/><path class="cls-1" d="M11.51,57.09c0-.79,0-1.2-.06-1.75h1l0,.84h0a1.67,1.67,0,0,1,1.52-1,1.41,1.41,0,0,1,1.42,1h0a2.15,2.15,0,0,1,.66-.78,1.75,1.75,0,0,1,.94-.26c.92,0,1.63.67,1.63,2.4v4.49H17.61V57.87c0-.88-.13-1.74-.94-1.74-.46,0-.84.38-1,1a3.82,3.82,0,0,0,0,.61v4.36H14.56V57.67c0-.74-.13-1.54-.93-1.54-.45,0-.88.38-1,1.11a3.4,3.4,0,0,0,0,.57v4.31H11.51Z" transform="translate(-0.17 -1.91)"/><path class="cls-1" d="M22.87,62.12l-.08-.72h0a1.53,1.53,0,0,1-1.36.83,1.72,1.72,0,0,1-1.61-1.94c0-1.69,1.36-2.44,2.9-2.45v-.22c0-.91-.24-1.54-1.09-1.54a2,2,0,0,0-1.12.35l-.23-.76a3,3,0,0,1,1.58-.44c1.36,0,1.94.89,1.94,2.41v2.94a12.46,12.46,0,0,0,.07,1.54Zm-.16-3.51c-.56,0-1.87.11-1.87,1.58,0,.88.45,1.2.84,1.2s.87-.36,1-1a1.69,1.69,0,0,0,0-.38Z" transform="translate(-0.17 -1.91)"/><path class="cls-1" d="M26.48,53.54v1.8h1.3v.82h-1.3v4c0,.88.31,1.11.7,1.11a1.83,1.83,0,0,0,.44,0l.05.84a2.4,2.4,0,0,1-.8.1,1.31,1.31,0,0,1-1.06-.41,2.38,2.38,0,0,1-.41-1.7V56.16h-.82v-.82h.82V53.85Z" transform="translate(-0.17 -1.91)"/><path class="cls-1" d="M29.38,58.82c0,2.08.82,2.52,1.6,2.52a2.44,2.44,0,0,0,1.12-.25l.18.79a3.32,3.32,0,0,1-1.5.32c-1.62,0-2.46-1.32-2.46-3.4s.93-3.57,2.28-3.57,1.94,1.46,1.94,3c0,.26,0,.44,0,.6ZM31.5,58c0-1.36-.49-2-1-2-.71,0-1.07,1-1.12,2Z" transform="translate(-0.17 -1.91)"/><path class="cls-1" d="M33.69,57.09c0-.57,0-1.24-.06-1.75h1l.06,1.06h0a1.65,1.65,0,0,1,1.42-1.17l.23,0v1.1h-.22a1.47,1.47,0,0,0-1.31,1.41,3.79,3.79,0,0,0,0,.62v3.75H33.69Z" transform="translate(-0.17 -1.91)"/><path class="cls-1" d="M38.31,53.59a.64.64,0,1,1-1.28,0,.65.65,0,0,1,.64-.71A.63.63,0,0,1,38.31,53.59Zm-1.17,8.53V55.34h1.07v6.78Z" transform="translate(-0.17 -1.91)"/><path class="cls-1" d="M42.4,62.12l-.07-.72h0a1.53,1.53,0,0,1-1.36.83,1.72,1.72,0,0,1-1.61-1.94c0-1.69,1.36-2.44,2.9-2.45v-.22c0-.91-.24-1.54-1.09-1.54a2,2,0,0,0-1.12.35l-.23-.76a3,3,0,0,1,1.58-.44c1.36,0,1.94.89,1.94,2.41v2.94a12.46,12.46,0,0,0,.07,1.54Zm-.16-3.51c-.56,0-1.87.11-1.87,1.58,0,.88.45,1.2.84,1.2s.87-.36,1-1a1.69,1.69,0,0,0,0-.38Z" transform="translate(-0.17 -1.91)"/><path class="cls-1" d="M44.81,52.42h1.08v9.7H44.81Z" transform="translate(-0.17 -1.91)"/><path class="cls-1" d="M46.79,63.88a19.67,19.67,0,0,0,.81-3.26l1.23-.14a18.32,18.32,0,0,1-1.29,3.31Z" transform="translate(-0.17 -1.91)"/><path class="cls-1" d="M56.3,52.42V60.5c0,.45,0,1.22.06,1.62h-.93l-.07-.85h0a1.57,1.57,0,0,1-1.42,1c-1.14,0-2-1.24-2-3.48,0-2.4,1-3.52,2-3.52a1.31,1.31,0,0,1,1.24.8h0V52.42Zm-1.07,5.5a3.46,3.46,0,0,0,0-.45c-.06-.7-.48-1.32-1-1.32-.9,0-1.21,1.25-1.21,2.6s.37,2.58,1.15,2.58c.33,0,.79-.18,1-1.16a2,2,0,0,0,0-.45Z" transform="translate(-0.17 -1.91)"/><path class="cls-1" d="M58.56,58.82c0,2.08.83,2.52,1.61,2.52a2.47,2.47,0,0,0,1.12-.25l.18.79a3.32,3.32,0,0,1-1.5.32c-1.62,0-2.47-1.32-2.47-3.4s.94-3.57,2.29-3.57,1.94,1.46,1.94,3c0,.26,0,.44,0,.6ZM60.69,58c0-1.36-.49-2-1-2-.71,0-1.07,1-1.12,2Z" transform="translate(-0.17 -1.91)"/><path class="cls-1" d="M62.88,57.46c0-1.05,0-1.64-.06-2.12h1l.06.86h0a1.58,1.58,0,0,1,1.44-1c1.17,0,2,1.25,2,3.48,0,2.52-1,3.52-2.1,3.52A1.29,1.29,0,0,1,64,61.45h0v3.36H62.88ZM64,59.63a2.48,2.48,0,0,0,0,.56c.21,1,.69,1.14,1,1.14.89,0,1.18-1.23,1.18-2.59s-.34-2.59-1.19-2.59c-.49,0-.93.61-1,1.23a2.24,2.24,0,0,0,0,.52Z" transform="translate(-0.17 -1.91)"/><path class="cls-1" d="M69.23,58.82c0,2.08.83,2.52,1.6,2.52A2.49,2.49,0,0,0,72,61.09l.17.79a3.25,3.25,0,0,1-1.49.32c-1.62,0-2.47-1.32-2.47-3.4s.94-3.57,2.29-3.57,1.94,1.46,1.94,3c0,.26,0,.44,0,.6ZM71.36,58c0-1.36-.49-2-1-2-.72,0-1.07,1-1.12,2Z" transform="translate(-0.17 -1.91)"/><path class="cls-1" d="M73.55,57.09c0-.79,0-1.2,0-1.75h.94l0,.82h0a1.71,1.71,0,0,1,1.55-.93c.94,0,1.64.69,1.64,2.33v4.56H76.64V57.75c0-.81-.16-1.61-.94-1.61-.46,0-.88.38-1,1.1a2.78,2.78,0,0,0-.05.61v4.27H73.55Z" transform="translate(-0.17 -1.91)"/><path class="cls-1" d="M83.31,52.42V60.5c0,.45,0,1.22,0,1.62h-.92l-.07-.85h-.05a1.58,1.58,0,0,1-1.42,1c-1.15,0-2-1.24-2-3.48,0-2.4,1-3.52,2-3.52a1.31,1.31,0,0,1,1.24.8h0V52.42Zm-1.07,5.5a3.46,3.46,0,0,0,0-.45c-.06-.7-.48-1.32-1-1.32-.89,0-1.2,1.25-1.2,2.6s.37,2.58,1.14,2.58c.34,0,.8-.18,1-1.16a1.51,1.51,0,0,0,0-.45Z" transform="translate(-0.17 -1.91)"/><path class="cls-1" d="M86,53.59a.64.64,0,1,1-1.28,0,.65.65,0,0,1,.64-.71A.63.63,0,0,1,86,53.59Zm-1.17,8.53V55.34h1.07v6.78Z" transform="translate(-0.17 -1.91)"/><path class="cls-1" d="M87.38,57.09c0-.79,0-1.2,0-1.75h.94l0,.82h0a1.72,1.72,0,0,1,1.56-.93c.93,0,1.64.69,1.64,2.33v4.56H90.47V57.75c0-.81-.15-1.61-.94-1.61-.45,0-.88.38-1,1.1a3.58,3.58,0,0,0-.05.61v4.27H87.38Z" transform="translate(-0.17 -1.91)"/><path class="cls-1" d="M97.21,55.34c0,.47-.06,1.07-.06,2.12v3.78c0,1.79-.23,2.47-.68,3a2.35,2.35,0,0,1-1.8.72,3.35,3.35,0,0,1-1.49-.33l.25-.85a2.8,2.8,0,0,0,1.26.3c.86,0,1.39-.54,1.39-2.07v-.69h0a1.37,1.37,0,0,1-1.3.82c-1.2,0-2-1.35-2-3.34,0-2.5,1.13-3.53,2.14-3.53a1.4,1.4,0,0,1,1.26.87h0l0-.76Zm-1.13,2.34a2,2,0,0,0-.06-.5c-.12-.46-.36-1-1-1-.78,0-1.2,1.05-1.2,2.56,0,1.73.55,2.51,1.2,2.51.33,0,.75-.15,1-1a2.2,2.2,0,0,0,.07-.61Z" transform="translate(-0.17 -1.91)"/><path class="cls-1" d="M105,58.72c0,2.63-1.22,3.51-2.26,3.51-1.21,0-2.2-1.11-2.2-3.49s1.11-3.51,2.28-3.51S105,56.37,105,58.72Zm-3.37,0c0,1.12.2,2.64,1.17,2.64s1.11-1.58,1.11-2.64-.19-2.64-1.14-2.64S101.63,57.69,101.63,58.73Z" transform="translate(-0.17 -1.91)"/><path class="cls-1" d="M106.2,57.09c0-.79,0-1.2-.06-1.75h1l0,.82h0a1.71,1.71,0,0,1,1.55-.93c.94,0,1.64.69,1.64,2.33v4.56h-1.07V57.75c0-.81-.16-1.61-1-1.61-.45,0-.88.38-1,1.1a2.74,2.74,0,0,0-.06.61v4.27H106.2Z" transform="translate(-0.17 -1.91)"/><path class="cls-1" d="M115.39,53.54v1.8h1.3v.82h-1.3v4c0,.88.32,1.11.7,1.11a1.83,1.83,0,0,0,.44,0l0,.84a2.4,2.4,0,0,1-.8.1,1.31,1.31,0,0,1-1.06-.41,2.43,2.43,0,0,1-.41-1.7V56.16h-.82v-.82h.82V53.85Z" transform="translate(-0.17 -1.91)"/><path class="cls-1" d="M117.64,52.42h1.07v3.65h0a2,2,0,0,1,.57-.6,1.65,1.65,0,0,1,.9-.24c.86,0,1.59.68,1.59,2.39v4.5h-1.08V57.75c0-.83-.18-1.61-.91-1.61-.5,0-.89.36-1,1.08a2.84,2.84,0,0,0-.05.51v4.39h-1.07Z" transform="translate(-0.17 -1.91)"/><path class="cls-1" d="M124.07,58.82c0,2.08.82,2.52,1.6,2.52a2.41,2.41,0,0,0,1.12-.25l.18.79a3.32,3.32,0,0,1-1.5.32c-1.62,0-2.46-1.32-2.46-3.4s.93-3.57,2.28-3.57,1.94,1.46,1.94,3a5.08,5.08,0,0,1,0,.6ZM126.2,58c0-1.36-.5-2-1-2-.71,0-1.06,1-1.11,2Z" transform="translate(-0.17 -1.91)"/><path class="cls-1" d="M134.74,55.34c0,.47-.06,1.07-.06,2.12v3.78c0,1.79-.23,2.47-.67,3a2.36,2.36,0,0,1-1.8.72,3.4,3.4,0,0,1-1.5-.33l.25-.85a2.8,2.8,0,0,0,1.26.3c.86,0,1.39-.54,1.39-2.07v-.69h0a1.35,1.35,0,0,1-1.29.82c-1.2,0-2-1.35-2-3.34,0-2.5,1.13-3.53,2.14-3.53a1.38,1.38,0,0,1,1.26.87h0l.05-.76Zm-1.13,2.34a1.6,1.6,0,0,0-.06-.5c-.12-.46-.36-1-1-1-.78,0-1.2,1.05-1.2,2.56,0,1.73.54,2.51,1.19,2.51.34,0,.75-.15,1-1a2.2,2.2,0,0,0,.07-.61Z" transform="translate(-0.17 -1.91)"/><path class="cls-1" d="M136.14,57.09c0-.57,0-1.24-.06-1.75h1l.05,1.06h0a1.65,1.65,0,0,1,1.42-1.17l.23,0v1.1h-.22a1.47,1.47,0,0,0-1.31,1.41,3.79,3.79,0,0,0,0,.62v3.75h-1.07Z" transform="translate(-0.17 -1.91)"/><path class="cls-1" d="M142.21,62.12l-.07-.72h0a1.52,1.52,0,0,1-1.35.83,1.72,1.72,0,0,1-1.61-1.94c0-1.69,1.36-2.44,2.89-2.45v-.22c0-.91-.23-1.54-1.08-1.54a2,2,0,0,0-1.12.35l-.24-.76a3,3,0,0,1,1.59-.44c1.35,0,1.94.89,1.94,2.41v2.94a10.77,10.77,0,0,0,.07,1.54Zm-.16-3.51c-.55,0-1.86.11-1.86,1.58,0,.88.45,1.2.83,1.2s.88-.36,1-1a1.67,1.67,0,0,0,0-.38Z" transform="translate(-0.17 -1.91)"/><path class="cls-1" d="M148.71,52.42V60.5c0,.45,0,1.22.06,1.62h-.93l-.07-.85h-.05a1.55,1.55,0,0,1-1.41,1c-1.15,0-2-1.24-2-3.48,0-2.4,1-3.52,2-3.52a1.29,1.29,0,0,1,1.23.8h0V52.42Zm-1.07,5.5a3.46,3.46,0,0,0,0-.45c-.06-.7-.48-1.32-1-1.32-.9,0-1.2,1.25-1.2,2.6s.37,2.58,1.14,2.58c.33,0,.8-.18,1-1.16a2,2,0,0,0,0-.45Z" transform="translate(-0.17 -1.91)"/><path class="cls-1" d="M151,58.82c0,2.08.82,2.52,1.6,2.52a2.44,2.44,0,0,0,1.12-.25l.18.79a3.32,3.32,0,0,1-1.5.32c-1.62,0-2.46-1.32-2.46-3.4s.93-3.57,2.28-3.57,1.94,1.46,1.94,3c0,.26,0,.44,0,.6Zm2.13-.79c0-1.36-.5-2-1-2-.71,0-1.06,1-1.11,2Z" transform="translate(-0.17 -1.91)"/><path class="cls-1" d="M154.65,63.88a20.72,20.72,0,0,0,.81-3.26l1.22-.14a17.6,17.6,0,0,1-1.29,3.31Z" transform="translate(-0.17 -1.91)"/><path class="cls-1" d="M161.39,53.54v1.8h1.3v.82h-1.3v4c0,.88.32,1.11.71,1.11a1.8,1.8,0,0,0,.43,0l.05.84a2.36,2.36,0,0,1-.8.1,1.34,1.34,0,0,1-1.06-.41,2.44,2.44,0,0,1-.4-1.7V56.16h-.83v-.82h.83V53.85Z" transform="translate(-0.17 -1.91)"/><path class="cls-1" d="M167.69,58.72c0,2.63-1.22,3.51-2.26,3.51-1.21,0-2.2-1.11-2.2-3.49s1.11-3.51,2.28-3.51S167.69,56.37,167.69,58.72Zm-3.37,0c0,1.12.2,2.64,1.17,2.64s1.11-1.58,1.11-2.64-.18-2.64-1.14-2.64S164.32,57.69,164.32,58.73Z" transform="translate(-0.17 -1.91)"/><path class="cls-1" d="M171.09,57.09c0-.79,0-1.2-.06-1.75H172l.05.84h0a1.68,1.68,0,0,1,1.53-1,1.4,1.4,0,0,1,1.41,1h0a2.17,2.17,0,0,1,.67-.78,1.71,1.71,0,0,1,.93-.26c.92,0,1.63.67,1.63,2.4v4.49h-1.07V57.87c0-.88-.13-1.74-.94-1.74-.45,0-.84.38-1,1a2.9,2.9,0,0,0,0,.61v4.36h-1.07V57.67c0-.74-.13-1.54-.93-1.54-.45,0-.88.38-1,1.11a3.4,3.4,0,0,0,0,.57v4.31h-1.07Z" transform="translate(-0.17 -1.91)"/><path class="cls-1" d="M180.94,53.59a.64.64,0,1,1-1.28,0,.65.65,0,0,1,.63-.71A.64.64,0,0,1,180.94,53.59Zm-1.17,8.53V55.34h1.07v6.78Z" transform="translate(-0.17 -1.91)"/><path class="cls-1" d="M182.34,52.42h1.08v9.7h-1.08Z" transform="translate(-0.17 -1.91)"/><path class="cls-1" d="M185,52.42h1.07v9.7H185Z" transform="translate(-0.17 -1.91)"/><path class="cls-1" d="M187,63.88a20.72,20.72,0,0,0,.81-3.26l1.22-.14a17,17,0,0,1-1.29,3.31Z" transform="translate(-0.17 -1.91)"/><path class="cls-1" d="M.57,77.79a2.11,2.11,0,0,0,1.1.36.93.93,0,0,0,1-1c0-.51-.19-.87-.87-1.32C.91,75.27.43,74.68.43,73.91A1.83,1.83,0,0,1,2.3,72a2.29,2.29,0,0,1,1.21.35l-.29.81a1.5,1.5,0,0,0-.9-.3.83.83,0,0,0-.88.86c0,.46.18.71.85,1.17A2.5,2.5,0,0,1,3.69,77a1.89,1.89,0,0,1-2,2,2.29,2.29,0,0,1-1.34-.39Z" transform="translate(-0.17 -1.91)"/><path class="cls-1" d="M6.12,70.34v1.8h1.3V73H6.12v4c0,.88.32,1.11.71,1.11a1.8,1.8,0,0,0,.43,0l0,.84a2.36,2.36,0,0,1-.8.1,1.32,1.32,0,0,1-1.06-.41,2.44,2.44,0,0,1-.4-1.7V73H4.22v-.82h.83V70.65Z" transform="translate(-0.17 -1.91)"/><path class="cls-1" d="M12.42,75.52c0,2.63-1.22,3.51-2.26,3.51C9,79,8,77.92,8,75.54S9.07,72,10.24,72,12.42,73.17,12.42,75.52Zm-3.37,0c0,1.12.2,2.64,1.17,2.64s1.11-1.58,1.11-2.64-.19-2.64-1.14-2.64S9.05,74.49,9.05,75.53Z" transform="translate(-0.17 -1.91)"/><path class="cls-1" d="M16.93,78.75A2.36,2.36,0,0,1,15.8,79c-1.47,0-2.48-1.19-2.48-3.43,0-1.95,1-3.53,2.68-3.53a2.09,2.09,0,0,1,1,.22l-.21.88A1.66,1.66,0,0,0,16,73c-1.08,0-1.56,1.29-1.56,2.62,0,1.58.61,2.53,1.59,2.53a1.69,1.69,0,0,0,.78-.18Z" transform="translate(-0.17 -1.91)"/><path class="cls-1" d="M18.91,75.29h0c.12-.27.24-.53.36-.76l1.34-2.39h1.17L20,75,22,78.92h-1.2l-1.47-3.2-.39.64v2.56H17.84v-9.7h1.07Z" transform="translate(-0.17 -1.91)"/><path class="cls-1" d="M22.74,74.25c0-1,0-1.63-.06-2.11h1l.06.86h0a1.56,1.56,0,0,1,1.43-1c1.18,0,2,1.25,2,3.48,0,2.52-1,3.52-2.1,3.52a1.28,1.28,0,0,1-1.18-.78h0v3.36H22.74Zm1.07,2.18a2.48,2.48,0,0,0,.05.56c.21,1,.69,1.14,1,1.14.9,0,1.18-1.23,1.18-2.59S25.7,73,24.84,73c-.49,0-.93.61-1,1.23a3,3,0,0,0,0,.52Z" transform="translate(-0.17 -1.91)"/><path class="cls-1" d="M29.5,70.39a.64.64,0,1,1-1.27,0,.64.64,0,1,1,1.27,0Zm-1.17,8.53V72.14h1.08v6.78Z" transform="translate(-0.17 -1.91)"/><path class="cls-1" d="M30.91,69.22H32v9.7H30.91Z" transform="translate(-0.17 -1.91)"/><path class="cls-1" d="M34.34,75.62c0,2.08.83,2.52,1.61,2.52a2.47,2.47,0,0,0,1.12-.25l.18.78a3.19,3.19,0,0,1-1.5.33c-1.62,0-2.46-1.33-2.46-3.4S34.22,72,35.57,72s1.94,1.46,1.94,3c0,.26,0,.44,0,.6Zm2.13-.79c0-1.36-.49-2-1-2-.71,0-1.07,1-1.12,2Z" transform="translate(-0.17 -1.91)"/><path class="cls-1" d="M45,75.52C45,78.15,43.81,79,42.77,79c-1.21,0-2.2-1.11-2.2-3.49S41.67,72,42.84,72,45,73.17,45,75.52Zm-3.37,0c0,1.12.2,2.64,1.17,2.64s1.12-1.58,1.12-2.64-.19-2.64-1.15-2.64S41.65,74.49,41.65,75.53Z" transform="translate(-0.17 -1.91)"/><path class="cls-1" d="M46.22,73.89c0-.57,0-1.24-.06-1.75h1l.05,1.06h0A1.65,1.65,0,0,1,48.63,72h.23v1.11h-.22a1.47,1.47,0,0,0-1.31,1.41,3.79,3.79,0,0,0,0,.62v3.75H46.22Z" transform="translate(-0.17 -1.91)"/><path class="cls-1" d="M51.89,69.22H53v9.7H51.89Z" transform="translate(-0.17 -1.91)"/><path class="cls-1" d="M57.25,78.92l-.07-.72h0a1.53,1.53,0,0,1-1.36.83,1.73,1.73,0,0,1-1.61-1.94c0-1.69,1.36-2.44,2.9-2.45v-.22c0-.91-.23-1.54-1.09-1.54a2,2,0,0,0-1.12.35l-.23-.76A3,3,0,0,1,56.21,72c1.36,0,1.94.89,1.94,2.41v2.94a12.46,12.46,0,0,0,.07,1.54Zm-.16-3.51c-.55,0-1.86.11-1.86,1.58,0,.88.44,1.2.83,1.2s.87-.36,1-1a1.67,1.67,0,0,0,0-.38Z" transform="translate(-0.17 -1.91)"/><path class="cls-1" d="M59.67,73.89c0-.79,0-1.2-.06-1.75h.94l.05.82h0A1.71,1.71,0,0,1,62.18,72c.94,0,1.65.69,1.65,2.33v4.56H62.75V74.55c0-.81-.15-1.61-.94-1.61-.45,0-.88.38-1,1.1a3.58,3.58,0,0,0,0,.61v4.27H59.67Z" transform="translate(-0.17 -1.91)"/><path class="cls-1" d="M69.42,69.22V77.3c0,.45,0,1.22,0,1.62h-.92l-.07-.85h0A1.57,1.57,0,0,1,67,79c-1.15,0-2-1.24-2-3.48,0-2.4,1-3.52,2-3.52a1.31,1.31,0,0,1,1.24.8h0V69.22Zm-1.07,5.5a3.46,3.46,0,0,0,0-.45c-.06-.7-.48-1.32-1-1.32-.89,0-1.2,1.25-1.2,2.6s.37,2.58,1.15,2.58c.33,0,.79-.18,1-1.16a2,2,0,0,0,0-.45Z" transform="translate(-0.17 -1.91)"/><path class="cls-1" d="M71.15,78.92V73h-.86v-.82h.86v-.45a2.33,2.33,0,0,1,2.47-2.58,2.64,2.64,0,0,1,1.32.33l-.24.84A2.6,2.6,0,0,0,73.59,70c-1.1,0-1.37.76-1.37,1.79v.34h3v6.78H74.19V73h-2v6Z" transform="translate(-0.17 -1.91)"/><path class="cls-1" d="M76.77,69.22h1.08v9.7H76.77Z" transform="translate(-0.17 -1.91)"/><path class="cls-1" d="M79.45,69.22h1.07v9.7H79.45Z" transform="translate(-0.17 -1.91)"/><path class="cls-1" d="M81.88,78.22a.75.75,0,0,1,.71-.82.73.73,0,0,1,.71.82.71.71,0,0,1-.71.81A.73.73,0,0,1,81.88,78.22Z" transform="translate(-0.17 -1.91)"/></g></g></svg>