<svg xmlns="http://www.w3.org/2000/svg" viewBox="0 0 362.36 184.62"><defs><style>.cls-1{fill:#1d1d1b;}.cls-2{fill:#868686;}</style></defs><title>Asset 16</title><g id="Layer_2" data-name="Layer 2"><g id="Layer_7" data-name="Layer 7"><path class="cls-1" d="M41.24,2.64a18.71,18.71,0,0,1,4.1-.4,7.24,7.24,0,0,1,5,1.46,4.75,4.75,0,0,1,1.48,3.69A4.84,4.84,0,0,1,48.69,12v.09a5,5,0,0,1,3.76,5.13,5.83,5.83,0,0,1-1.51,4.1c-1.21,1.34-3.24,2-6.24,2a23.57,23.57,0,0,1-3.46-.22ZM44.52,11h1a3.09,3.09,0,0,0,3-3.26c0-1.71-.8-3-2.85-3a4,4,0,0,0-1.16.13Zm0,9.62a5,5,0,0,0,1,.09A3.26,3.26,0,0,0,49,17.15a3.42,3.42,0,0,0-3.57-3.66h-.95Z"/><path class="cls-1" d="M57.7,16.52c0,3.36,1.6,4.27,3.35,4.27a7.05,7.05,0,0,0,2.7-.53l.47,2.37a9.61,9.61,0,0,1-3.77.7c-3.87,0-6-2.81-6-7.46,0-5,2.38-8,5.59-8s4.76,2.86,4.76,6.89a13.7,13.7,0,0,1-.09,1.76Zm4.09-2.35c0-2.41-.76-3.84-1.93-3.84-1.43,0-2.08,2.08-2.14,3.84Z"/><path class="cls-1" d="M67.25,1.78h3.3V23.15h-3.3Z"/><path class="cls-1" d="M77.67,4.09v4h2.92v2.39H77.67V18.3c0,1.84.72,2.31,1.54,2.31a5.3,5.3,0,0,0,1-.09l.07,2.56a7.41,7.41,0,0,1-2.16.25,3.6,3.6,0,0,1-2.66-.93c-.73-.74-1.1-1.83-1.1-4.07V10.51h-1.8V8.12h1.8V4.93Z"/><path class="cls-1" d="M82.39,19.63a7,7,0,0,0,3.23.83c2,0,3.14-1.19,3.14-2.89s-1-2.63-2.73-3.8c-2.3-1.48-3.92-3.55-3.92-5.8,0-3.26,2.21-5.82,6.1-5.82a6.46,6.46,0,0,1,3.11.75L90.7,5.73A4.68,4.68,0,0,0,88.13,5a2.53,2.53,0,0,0-2.76,2.53c0,1.61.83,2.34,2.95,3.71C91,13,92,15,92,17.23c0,3.72-2.68,6.1-6.41,6.1a8.07,8.07,0,0,1-3.77-.86Z"/><path class="cls-1" d="M97.14,16.52c0,3.36,1.59,4.27,3.35,4.27a7.05,7.05,0,0,0,2.7-.53l.46,2.37a9.59,9.59,0,0,1-3.76.7c-3.88,0-6-2.81-6-7.46,0-5,2.39-8,5.6-8s4.75,2.86,4.75,6.89a14.18,14.18,0,0,1-.08,1.76Zm4.09-2.35c0-2.41-.77-3.84-1.94-3.84-1.43,0-2.07,2.08-2.14,3.84Z"/><path class="cls-1" d="M106.68,12.35c0-1.7-.07-2.9-.12-4.23h2.86l.16,1.76h.07a4,4,0,0,1,3.55-2c2.51,0,3.84,1.94,3.84,5.43v9.85h-3.3V13.62c0-1.51-.31-3-1.75-3-.82,0-1.55.62-1.84,1.84a4.91,4.91,0,0,0-.17,1.36v9.3h-3.3Z"/><path class="cls-1" d="M119.83,20a5.4,5.4,0,0,0,2.6.79,1.66,1.66,0,0,0,1.89-1.72c0-.95-.44-1.56-1.83-2.44-2.24-1.34-3-2.78-3-4.31A4.38,4.38,0,0,1,124,7.87a5.91,5.91,0,0,1,2.88.73L126.25,11a3.75,3.75,0,0,0-2.06-.64,1.55,1.55,0,0,0-1.7,1.56c0,.82.37,1.29,1.81,2.2,2,1.2,3.07,2.68,3.07,4.56,0,3.05-2.14,4.61-5,4.61a5.84,5.84,0,0,1-3.22-.86Z"/><path class="cls-1" d="M132.22,16.52c0,3.36,1.59,4.27,3.35,4.27a7.05,7.05,0,0,0,2.7-.53l.46,2.37a9.52,9.52,0,0,1-3.76.7c-3.88,0-6-2.81-6-7.46,0-5,2.39-8,5.6-8s4.75,2.86,4.75,6.89a14.18,14.18,0,0,1-.08,1.76Zm4.09-2.35c0-2.41-.77-3.84-1.94-3.84-1.43,0-2.07,2.08-2.14,3.84Z"/><path class="cls-1" d="M151.91,7.06A5.2,5.2,0,1,1,146.73,2,5.09,5.09,0,0,1,151.91,7.06Zm-9.11,0a3.93,3.93,0,0,0,4,4.05,3.89,3.89,0,0,0,3.86-4,3.91,3.91,0,1,0-7.82,0Zm3.12,2.66h-1.17V4.65a10.53,10.53,0,0,1,1.95-.15,3.1,3.1,0,0,1,1.75.37A1.39,1.39,0,0,1,149,6a1.29,1.29,0,0,1-1,1.17v.06a1.53,1.53,0,0,1,.93,1.24,3.7,3.7,0,0,0,.37,1.27h-1.27a4.41,4.41,0,0,1-.4-1.24c-.09-.56-.4-.8-1.05-.8h-.56Zm0-2.88h.56c.65,0,1.17-.21,1.17-.74s-.34-.77-1.08-.77a2.94,2.94,0,0,0-.65.06Z"/><path class="cls-1" d="M42,33.92a8.23,8.23,0,0,1,2.1-.25,4,4,0,0,1,2.78.87,3.08,3.08,0,0,1-1.11,5v0a3.09,3.09,0,0,1,2.33,3.21,3.62,3.62,0,0,1-.9,2.49,4.26,4.26,0,0,1-3.33,1.14A10.8,10.8,0,0,1,42,46.26Zm1.43,5.15h.66a2.17,2.17,0,0,0,2.18-2.22,1.84,1.84,0,0,0-2.07-2.05,2.91,2.91,0,0,0-.77.08Zm0,6.1a3.32,3.32,0,0,0,.73.07,2.26,2.26,0,0,0,2.45-2.5A2.42,2.42,0,0,0,44,40.17h-.63Z"/><path class="cls-1" d="M50.76,41.92c0,2.77,1.1,3.35,2.14,3.35a3.18,3.18,0,0,0,1.49-.34l.24,1a4.36,4.36,0,0,1-2,.44c-2.16,0-3.29-1.77-3.29-4.53,0-2.93,1.25-4.76,3-4.76s2.58,1.95,2.58,4c0,.35,0,.59,0,.81Zm2.84-1.06c0-1.81-.66-2.61-1.34-2.61-.95,0-1.42,1.37-1.48,2.61Z"/><path class="cls-1" d="M56.53,33.39H58V46.31H56.53Z"/><path class="cls-1" d="M61.85,34.88v2.4h1.73v1.09H61.85v5.37c0,1.18.42,1.48.94,1.48a3.21,3.21,0,0,0,.58,0l.06,1.11a3.18,3.18,0,0,1-1.06.14A1.83,1.83,0,0,1,61,45.87a3.24,3.24,0,0,1-.53-2.26V38.37H59.31V37.28h1.11v-2Z"/><path class="cls-1" d="M64.68,44.65a3.76,3.76,0,0,0,1.8.51A2,2,0,0,0,68.58,43a3.2,3.2,0,0,0-1.66-2.61c-1-.69-2.37-1.87-2.37-3.49a3.17,3.17,0,0,1,3.33-3.3,3.37,3.37,0,0,1,1.76.46l-.35,1.23a2.62,2.62,0,0,0-1.5-.43A1.74,1.74,0,0,0,66,36.68c0,1.24.65,1.74,1.85,2.58A4.35,4.35,0,0,1,70,42.89a3.36,3.36,0,0,1-3.52,3.53,4.12,4.12,0,0,1-2.12-.55Z"/><path class="cls-1" d="M72.73,41.92c0,2.77,1.09,3.35,2.13,3.35a3.26,3.26,0,0,0,1.5-.34l.23,1a4.36,4.36,0,0,1-2,.44c-2.16,0-3.28-1.77-3.28-4.53,0-2.93,1.24-4.76,3-4.76s2.58,1.95,2.58,4c0,.35,0,.59,0,.81Zm2.83-1.06c0-1.81-.65-2.61-1.34-2.61-1,0-1.42,1.37-1.48,2.61Z"/><path class="cls-1" d="M78.49,39.61c0-1.06,0-1.6-.08-2.33h1.26l.07,1.09h0a2.27,2.27,0,0,1,2.06-1.24c1.25,0,2.19.92,2.19,3.11v6.07H82.6V40.49c0-1.08-.21-2.14-1.26-2.14-.6,0-1.17.5-1.35,1.46a3.81,3.81,0,0,0-.07.81v5.69H78.49Z"/><path class="cls-1" d="M85.79,44.81a2.87,2.87,0,0,0,1.47.47A1.23,1.23,0,0,0,88.59,44c0-.68-.25-1.16-1.16-1.77-1.18-.76-1.82-1.53-1.82-2.57a2.43,2.43,0,0,1,2.5-2.5,3,3,0,0,1,1.6.47l-.38,1.08a2,2,0,0,0-1.2-.41A1.12,1.12,0,0,0,87,39.43c0,.6.23.94,1.12,1.55A3.32,3.32,0,0,1,90,43.74a2.52,2.52,0,0,1-2.72,2.68,3.13,3.13,0,0,1-1.78-.52Z"/><path class="cls-1" d="M92.45,41.92c0,2.77,1.1,3.35,2.13,3.35a3.23,3.23,0,0,0,1.5-.34l.24,1a4.44,4.44,0,0,1-2,.44c-2.16,0-3.28-1.77-3.28-4.53,0-2.93,1.24-4.76,3-4.76s2.59,1.95,2.59,4c0,.35,0,.59,0,.81Zm2.84-1.06c0-1.81-.66-2.61-1.34-2.61-1,0-1.42,1.37-1.49,2.61Z"/><path class="cls-1" d="M104.26,36.58a3.15,3.15,0,1,1-3.14-3.06A3.08,3.08,0,0,1,104.26,36.58Zm-5.51,0A2.37,2.37,0,0,0,101.14,39a2.34,2.34,0,0,0,2.33-2.43,2.36,2.36,0,1,0-4.72,0Zm1.89,1.61h-.71V35.13A5.89,5.89,0,0,1,101.1,35a2,2,0,0,1,1.07.22.87.87,0,0,1,.3.67.79.79,0,0,1-.64.71v0a.88.88,0,0,1,.56.74,2.41,2.41,0,0,0,.22.77h-.76a2.59,2.59,0,0,1-.24-.75c-.06-.33-.25-.48-.64-.48h-.33Zm0-1.74H101c.39,0,.71-.13.71-.44s-.21-.47-.65-.47a1.52,1.52,0,0,0-.39,0Z"/><path class="cls-1" d="M108.71,44.81a2.84,2.84,0,0,0,1.46.47A1.23,1.23,0,0,0,111.51,44c0-.68-.26-1.16-1.16-1.77-1.18-.76-1.83-1.53-1.83-2.57a2.43,2.43,0,0,1,2.5-2.5,3,3,0,0,1,1.61.47l-.39,1.08a2,2,0,0,0-1.2-.41,1.12,1.12,0,0,0-1.17,1.16c0,.6.24.94,1.13,1.55a3.34,3.34,0,0,1,1.87,2.76,2.52,2.52,0,0,1-2.73,2.68,3.15,3.15,0,0,1-1.78-.52Z"/><path class="cls-1" d="M115.36,41.92c0,2.77,1.1,3.35,2.14,3.35a3.18,3.18,0,0,0,1.49-.34l.24,1a4.36,4.36,0,0,1-2,.44c-2.17,0-3.29-1.77-3.29-4.53,0-2.93,1.25-4.76,3-4.76s2.58,1.95,2.58,4c0,.35,0,.59,0,.81Zm2.84-1.06c0-1.81-.66-2.61-1.34-2.61-1,0-1.42,1.37-1.48,2.61Z"/><path class="cls-1" d="M129.47,43.85c0,1,.05,1.79.07,2.46h-1.26l-.09-1h0a2.35,2.35,0,0,1-1.93,1.1c-1.58,0-2.2-1.23-2.2-3.47V37.28h1.43v5.5c0,1.41.23,2.47,1.21,2.47A1.41,1.41,0,0,0,128,44a4,4,0,0,0,.07-.8v-6h1.44Z"/><path class="cls-1" d="M131.23,44.81a2.84,2.84,0,0,0,1.46.47A1.23,1.23,0,0,0,134,44c0-.68-.26-1.16-1.16-1.77-1.18-.76-1.83-1.53-1.83-2.57a2.43,2.43,0,0,1,2.5-2.5,3,3,0,0,1,1.61.47l-.38,1.08a2,2,0,0,0-1.21-.41,1.12,1.12,0,0,0-1.16,1.16c0,.6.23.94,1.12,1.55a3.34,3.34,0,0,1,1.87,2.76,2.52,2.52,0,0,1-2.72,2.68,3.16,3.16,0,0,1-1.79-.52Z"/><path class="cls-1" d="M140.44,46.31l-.09-1h0a2,2,0,0,1-1.81,1.11,2.29,2.29,0,0,1-2.14-2.58c0-2.26,1.81-3.26,3.85-3.27v-.29c0-1.22-.31-2.06-1.45-2.06a2.66,2.66,0,0,0-1.49.47l-.31-1a4,4,0,0,1,2.11-.59c1.81,0,2.58,1.18,2.58,3.22v3.91a16.46,16.46,0,0,0,.1,2.05Zm-.21-4.68c-.74,0-2.48.15-2.48,2.11,0,1.18.6,1.59,1.11,1.59s1.16-.47,1.33-1.35a3,3,0,0,0,0-.51Z"/><path class="cls-1" d="M146.35,44.81a2.8,2.8,0,0,0,1.46.47A1.23,1.23,0,0,0,149.14,44c0-.68-.25-1.16-1.15-1.77-1.18-.76-1.83-1.53-1.83-2.57a2.43,2.43,0,0,1,2.5-2.5,3,3,0,0,1,1.6.47l-.38,1.08a2,2,0,0,0-1.2-.41,1.12,1.12,0,0,0-1.17,1.16c0,.6.23.94,1.12,1.55a3.32,3.32,0,0,1,1.87,2.76,2.52,2.52,0,0,1-2.72,2.68A3.13,3.13,0,0,1,146,45.9Z"/><path class="cls-1" d="M153,41.92c0,2.77,1.1,3.35,2.13,3.35a3.23,3.23,0,0,0,1.5-.34l.24,1a4.44,4.44,0,0,1-2,.44c-2.16,0-3.28-1.77-3.28-4.53,0-2.93,1.24-4.76,3-4.76s2.59,1.95,2.59,4c0,.35,0,.59,0,.81Zm2.84-1.06c0-1.81-.66-2.61-1.34-2.61-.95,0-1.42,1.37-1.49,2.61Z"/><path class="cls-1" d="M163.16,46.08a3,3,0,0,1-1.49.34c-2,0-3.31-1.59-3.31-4.58,0-2.59,1.32-4.7,3.57-4.7a3,3,0,0,1,1.28.29l-.29,1.17a2.38,2.38,0,0,0-1-.24c-1.44,0-2.08,1.72-2.08,3.49,0,2.11.81,3.37,2.12,3.37a2.24,2.24,0,0,0,1-.24Z"/><path class="cls-1" d="M169.88,43.85c0,1,.05,1.79.08,2.46H168.7l-.1-1h0a2.37,2.37,0,0,1-1.94,1.1c-1.57,0-2.2-1.23-2.2-3.47V37.28h1.43v5.5c0,1.41.23,2.47,1.22,2.47A1.39,1.39,0,0,0,168.37,44a3.34,3.34,0,0,0,.08-.8v-6h1.43Z"/><path class="cls-1" d="M172.91,41.92c0,2.77,1.1,3.35,2.13,3.35a3.23,3.23,0,0,0,1.5-.34l.24,1a4.44,4.44,0,0,1-2,.44c-2.16,0-3.28-1.77-3.28-4.53,0-2.93,1.24-4.76,3-4.76s2.59,1.95,2.59,4c0,.35,0,.59,0,.81Zm2.84-1.06c0-1.81-.66-2.61-1.34-2.61-.95,0-1.42,1.37-1.49,2.61Z"/><path class="cls-1" d="M178.67,39.61c0-1.06,0-1.6-.08-2.33h1.26l.07,1.09h0A2.27,2.27,0,0,1,182,37.13c1.25,0,2.18.92,2.18,3.11v6.07h-1.43V40.49c0-1.08-.21-2.14-1.25-2.14-.61,0-1.18.5-1.36,1.46a3.81,3.81,0,0,0-.07.81v5.69h-1.43Z"/><path class="cls-1" d="M190.63,46.08a3.08,3.08,0,0,1-1.5.34c-2,0-3.3-1.59-3.3-4.58,0-2.59,1.31-4.7,3.57-4.7a2.87,2.87,0,0,1,1.27.29l-.28,1.17a2.38,2.38,0,0,0-1-.24c-1.44,0-2.09,1.72-2.09,3.49,0,2.11.81,3.37,2.13,3.37a2.3,2.3,0,0,0,1-.24Z"/><path class="cls-1" d="M193.42,34.94a.84.84,0,0,1-.88.93.83.83,0,0,1-.82-.93.85.85,0,1,1,1.7,0Zm-1.56,11.37v-9h1.43v9Z"/><path class="cls-1" d="M198.87,46.31l-.1-1h-.05a2,2,0,0,1-1.81,1.11,2.29,2.29,0,0,1-2.14-2.58c0-2.26,1.81-3.26,3.85-3.27v-.29c0-1.22-.31-2.06-1.44-2.06a2.67,2.67,0,0,0-1.5.47l-.31-1a4,4,0,0,1,2.11-.59c1.81,0,2.59,1.18,2.59,3.22v3.91a16.55,16.55,0,0,0,.09,2.05Zm-.22-4.68c-.73,0-2.48.15-2.48,2.11,0,1.18.6,1.59,1.11,1.59s1.16-.47,1.33-1.35a2.24,2.24,0,0,0,0-.51Z"/><path class="cls-1" d="M202.09,33.39h1.43V46.31h-1.43Z"/><path class="cls-1" d="M205.65,39.61c0-1.06-.05-1.6-.08-2.33h1.27l.07,1.11h0a2.25,2.25,0,0,1,2-1.26,1.87,1.87,0,0,1,1.89,1.38h0a2.77,2.77,0,0,1,.89-1,2.28,2.28,0,0,1,1.25-.35c1.22,0,2.17.89,2.17,3.19v6h-1.43V40.65c0-1.18-.17-2.32-1.26-2.32-.6,0-1.12.51-1.32,1.36a4,4,0,0,0-.06.81v5.81h-1.42V40.38c0-1-.18-2.05-1.24-2.05-.6,0-1.18.51-1.35,1.47a4.72,4.72,0,0,0-.06.77v5.74h-1.42Z"/><path class="cls-1" d="M218.23,41.92c0,2.77,1.1,3.35,2.13,3.35a3.2,3.2,0,0,0,1.5-.34l.24,1a4.4,4.4,0,0,1-2,.44c-2.16,0-3.28-1.77-3.28-4.53,0-2.93,1.25-4.76,3-4.76s2.59,1.95,2.59,4c0,.35,0,.59,0,.81Zm2.84-1.06c0-1.81-.66-2.61-1.34-2.61-.95,0-1.42,1.37-1.49,2.61Z"/><path class="cls-1" d="M224,39.61c0-1.06-.05-1.6-.07-2.33h1.25l.07,1.09h0a2.29,2.29,0,0,1,2.07-1.24c1.25,0,2.18.92,2.18,3.11v6.07H228.1V40.49c0-1.08-.2-2.14-1.25-2.14-.61,0-1.18.5-1.36,1.46a3.81,3.81,0,0,0-.07.81v5.69H224Z"/><path class="cls-1" d="M233.2,34.88v2.4h1.73v1.09H233.2v5.37c0,1.18.42,1.48.94,1.48a3.21,3.21,0,0,0,.58,0l.06,1.11a3.18,3.18,0,0,1-1.06.14,1.81,1.81,0,0,1-1.42-.55,3.23,3.23,0,0,1-.54-2.26V38.37h-1.1V37.28h1.1v-2Z"/><path class="cls-1" d="M237.06,41.92c0,2.77,1.1,3.35,2.13,3.35a3.23,3.23,0,0,0,1.5-.34l.23,1a4.36,4.36,0,0,1-2,.44c-2.16,0-3.28-1.77-3.28-4.53,0-2.93,1.24-4.76,3-4.76s2.59,1.95,2.59,4c0,.35,0,.59,0,.81Zm2.84-1.06c0-1.81-.66-2.61-1.34-2.61-.95,0-1.42,1.37-1.49,2.61Z"/><path class="cls-1" d="M250.15,46.08a3,3,0,0,1-1.49.34c-2,0-3.31-1.59-3.31-4.58,0-2.59,1.31-4.7,3.57-4.7a2.87,2.87,0,0,1,1.27.29l-.28,1.17a2.38,2.38,0,0,0-1-.24c-1.44,0-2.08,1.72-2.08,3.49,0,2.11.81,3.37,2.12,3.37a2.24,2.24,0,0,0,1-.24Z"/><path class="cls-1" d="M256.81,41.78c0,3.5-1.62,4.68-3,4.68-1.62,0-2.94-1.48-2.94-4.65s1.48-4.68,3-4.68S256.81,38.64,256.81,41.78Zm-4.49,0c0,1.49.27,3.52,1.56,3.52s1.49-2.11,1.49-3.52-.26-3.51-1.53-3.51S252.32,40.41,252.32,41.79Z"/><path class="cls-1" d="M258.42,39.61c0-1.06-.05-1.6-.08-2.33h1.26l.07,1.09h0a2.27,2.27,0,0,1,2.06-1.24c1.25,0,2.19.92,2.19,3.11v6.07h-1.43V40.49c0-1.08-.21-2.14-1.26-2.14-.6,0-1.17.5-1.35,1.46a3.81,3.81,0,0,0-.07.81v5.69h-1.43Z"/><path class="cls-1" d="M268.73,44.65a3.8,3.8,0,0,0,1.81.51,2,2,0,0,0,2.1-2.14A3.22,3.22,0,0,0,271,40.41c-1-.69-2.37-1.87-2.37-3.49a3.17,3.17,0,0,1,3.33-3.3,3.4,3.4,0,0,1,1.76.46l-.35,1.23a2.62,2.62,0,0,0-1.5-.43,1.74,1.74,0,0,0-1.82,1.8c0,1.24.66,1.74,1.85,2.58a4.34,4.34,0,0,1,2.19,3.63,3.37,3.37,0,0,1-3.52,3.53,4.09,4.09,0,0,1-2.12-.55Z"/><path class="cls-1" d="M275.7,33.39h1.43v4.86h0a2.64,2.64,0,0,1,.77-.79,2.1,2.1,0,0,1,1.2-.33c1.14,0,2.11.91,2.11,3.19v6h-1.43V40.49c0-1.11-.25-2.14-1.22-2.14-.67,0-1.18.48-1.4,1.43a3.74,3.74,0,0,0-.06.68v5.85H275.7Z"/><path class="cls-1" d="M288.79,41.78c0,3.5-1.62,4.68-3,4.68-1.62,0-2.93-1.48-2.93-4.65s1.47-4.68,3-4.68S288.79,38.64,288.79,41.78Zm-4.49,0c0,1.49.27,3.52,1.56,3.52s1.49-2.11,1.49-3.52-.25-3.51-1.53-3.51S284.3,40.41,284.3,41.79Z"/><path class="cls-1" d="M291,37.28l1.14,5.07c.13.61.28,1.42.4,2.2h.05c.1-.75.25-1.52.38-2.2l1.11-5.07h1.43l-2.36,9h-1.28l-2.36-9Z"/><path class="cls-1" d="M297.51,41.92c0,2.77,1.1,3.35,2.14,3.35a3.18,3.18,0,0,0,1.49-.34l.24,1a4.36,4.36,0,0,1-2,.44c-2.16,0-3.29-1.77-3.29-4.53,0-2.93,1.25-4.76,3-4.76s2.58,1.95,2.58,4c0,.35,0,.59,0,.81Zm2.84-1.06c0-1.81-.66-2.61-1.34-2.61-.95,0-1.42,1.37-1.48,2.61Z"/><path class="cls-1" d="M303.27,33.39h1.43V46.31h-1.43Z"/><path class="cls-1" d="M306.67,44.65a3.76,3.76,0,0,0,1.8.51,2,2,0,0,0,2.1-2.14,3.2,3.2,0,0,0-1.66-2.61c-1-.69-2.37-1.87-2.37-3.49a3.17,3.17,0,0,1,3.33-3.3,3.37,3.37,0,0,1,1.76.46l-.35,1.23a2.62,2.62,0,0,0-1.5-.43,1.74,1.74,0,0,0-1.81,1.8c0,1.24.65,1.74,1.85,2.58A4.35,4.35,0,0,1,312,42.89a3.36,3.36,0,0,1-3.52,3.53,4.12,4.12,0,0,1-2.12-.55Z"/><path class="cls-1" d="M314.72,41.92c0,2.77,1.1,3.35,2.13,3.35a3.26,3.26,0,0,0,1.5-.34l.23,1a4.36,4.36,0,0,1-2,.44c-2.16,0-3.28-1.77-3.28-4.53,0-2.93,1.24-4.76,3-4.76s2.58,1.95,2.58,4c0,.35,0,.59,0,.81Zm2.83-1.06c0-1.81-.65-2.61-1.34-2.61-.94,0-1.42,1.37-1.48,2.61Z"/><path class="cls-1" d="M320.48,39.61c0-1.06-.05-1.6-.08-2.33h1.26l.07,1.09h0a2.27,2.27,0,0,1,2.06-1.24c1.25,0,2.19.92,2.19,3.11v6.07h-1.43V40.49c0-1.08-.21-2.14-1.26-2.14-.6,0-1.17.5-1.35,1.46a3.81,3.81,0,0,0-.07.81v5.69h-1.43Z"/><path class="cls-1" d="M327.79,44.81a2.8,2.8,0,0,0,1.46.47A1.23,1.23,0,0,0,330.58,44c0-.68-.25-1.16-1.15-1.77-1.18-.76-1.83-1.53-1.83-2.57a2.43,2.43,0,0,1,2.5-2.5,3,3,0,0,1,1.6.47l-.38,1.08a2,2,0,0,0-1.2-.41A1.12,1.12,0,0,0,329,39.43c0,.6.23.94,1.12,1.55a3.32,3.32,0,0,1,1.87,2.76,2.52,2.52,0,0,1-2.72,2.68,3.13,3.13,0,0,1-1.78-.52Z"/><path class="cls-1" d="M334.44,41.92c0,2.77,1.1,3.35,2.13,3.35a3.23,3.23,0,0,0,1.5-.34l.24,1a4.44,4.44,0,0,1-2,.44c-2.16,0-3.28-1.77-3.28-4.53,0-2.93,1.24-4.76,3-4.76s2.59,1.95,2.59,4c0,.35,0,.59,0,.81Zm2.84-1.06c0-1.81-.66-2.61-1.34-2.61-.95,0-1.42,1.37-1.49,2.61Z"/><path class="cls-1" d="M346.25,36.58a3.15,3.15,0,1,1-3.14-3.06A3.07,3.07,0,0,1,346.25,36.58Zm-5.51,0A2.37,2.37,0,0,0,343.13,39a2.34,2.34,0,0,0,2.33-2.43,2.36,2.36,0,1,0-4.72,0Zm1.89,1.61h-.71V35.13a5.89,5.89,0,0,1,1.17-.09,2,2,0,0,1,1.07.22.84.84,0,0,1,.3.67.78.78,0,0,1-.64.71v0a.88.88,0,0,1,.56.74,2.31,2.31,0,0,0,.23.77h-.77a2.59,2.59,0,0,1-.24-.75c-.06-.33-.24-.48-.64-.48h-.33Zm0-1.74H343c.39,0,.71-.13.71-.44s-.2-.47-.65-.47a1.52,1.52,0,0,0-.39,0Z"/><path class="cls-1" d="M41.83,62.49c0-1.39,0-2.18-.08-2.82H43l.08,1.15h0a2.08,2.08,0,0,1,1.91-1.3c1.57,0,2.61,1.67,2.61,4.64,0,3.35-1.38,4.69-2.79,4.69a1.72,1.72,0,0,1-1.58-1h0v4.47H41.83Zm1.42,2.89a3.48,3.48,0,0,0,.07.75c.28,1.28.93,1.52,1.32,1.52,1.19,0,1.58-1.64,1.58-3.46s-.45-3.44-1.59-3.44c-.66,0-1.24.82-1.32,1.64a3.07,3.07,0,0,0-.06.68Z"/><path class="cls-1" d="M52.86,68.7l-.1-1h0a2,2,0,0,1-1.81,1.11,2.29,2.29,0,0,1-2.14-2.58C48.76,64,50.57,63,52.61,63v-.29c0-1.22-.31-2.05-1.44-2.05a2.66,2.66,0,0,0-1.5.46l-.31-1a4,4,0,0,1,2.12-.59c1.8,0,2.58,1.18,2.58,3.22v3.92a16.48,16.48,0,0,0,.09,2ZM52.64,64c-.73,0-2.48.15-2.48,2.11,0,1.18.6,1.59,1.11,1.59s1.16-.47,1.33-1.35a2.24,2.24,0,0,0,0-.51Z"/><path class="cls-1" d="M56.06,62c0-.76-.05-1.65-.07-2.33h1.28l.07,1.41h0a2.19,2.19,0,0,1,1.89-1.56l.3,0V61h-.29a2,2,0,0,0-1.74,1.88,5,5,0,0,0-.06.82v5H56.06Z"/><path class="cls-1" d="M64.16,68.7l-.09-1h0a2,2,0,0,1-1.81,1.11,2.29,2.29,0,0,1-2.14-2.58C60.07,64,61.88,63,63.92,63v-.29c0-1.22-.31-2.05-1.45-2.05a2.65,2.65,0,0,0-1.49.46l-.31-1a4,4,0,0,1,2.11-.59c1.81,0,2.58,1.18,2.58,3.22v3.92a14.67,14.67,0,0,0,.1,2ZM64,64c-.74,0-2.48.15-2.48,2.11,0,1.18.6,1.59,1.11,1.59s1.16-.47,1.33-1.35a3,3,0,0,0,0-.51Z"/><path class="cls-1" d="M75.86,64.17c0,3.5-1.63,4.68-3,4.68-1.61,0-2.93-1.48-2.93-4.65s1.47-4.68,3-4.68S75.86,61,75.86,64.17Zm-4.5,0c0,1.5.27,3.52,1.56,3.52s1.49-2.11,1.49-3.52-.25-3.51-1.53-3.51S71.36,62.8,71.36,64.18Z"/><path class="cls-1" d="M77.45,62.49c0-1.39,0-2.18-.08-2.82h1.28l.07,1.15h0a2.08,2.08,0,0,1,1.91-1.3c1.57,0,2.61,1.67,2.61,4.64,0,3.35-1.38,4.69-2.79,4.69a1.72,1.72,0,0,1-1.58-1h0v4.47H77.45Zm1.42,2.89a3.48,3.48,0,0,0,.07.75c.28,1.28.93,1.52,1.32,1.52,1.19,0,1.58-1.64,1.58-3.46s-.45-3.44-1.6-3.44c-.65,0-1.23.82-1.32,1.64a3.82,3.82,0,0,0,0,.68Z"/><path class="cls-1" d="M86.66,57.27v2.4H88.4v1.09H86.66v5.37c0,1.18.43,1.49,1,1.49a2.52,2.52,0,0,0,.58-.06l.06,1.11a3.25,3.25,0,0,1-1.07.14,1.78,1.78,0,0,1-1.41-.54A3.28,3.28,0,0,1,85.23,66V60.76h-1.1V59.67h1.1v-2Z"/><path class="cls-1" d="M91.22,57.33a.85.85,0,1,1-1.7,0,.85.85,0,0,1,.84-.93A.84.84,0,0,1,91.22,57.33ZM89.66,68.7v-9h1.43v9Z"/><path class="cls-1" d="M93.1,62c0-1.06,0-1.6-.08-2.33h1.26l.07,1.11h0a2.24,2.24,0,0,1,2-1.26,1.88,1.88,0,0,1,1.89,1.38h0a2.77,2.77,0,0,1,.89-1,2.27,2.27,0,0,1,1.24-.35c1.23,0,2.18.89,2.18,3.19v6h-1.43V63c0-1.17-.17-2.31-1.26-2.31-.6,0-1.12.5-1.32,1.35a4.11,4.11,0,0,0-.06.81V68.7H97.16V62.78c0-1-.17-2.05-1.24-2.05-.59,0-1.17.5-1.34,1.46a4.72,4.72,0,0,0-.06.77V68.7H93.1Z"/><path class="cls-1" d="M106.22,57.33a.84.84,0,0,1-.88.94.94.94,0,0,1,0-1.87A.84.84,0,0,1,106.22,57.33ZM104.66,68.7v-9h1.44v9Z"/><path class="cls-1" d="M107.4,67.82l2.85-5.59c.24-.45.52-.93.72-1.32v0h-3.23V59.67h4.83v.95l-2.83,5.5c-.25.46-.52.94-.73,1.35v0h3.55V68.7H107.4Z"/><path class="cls-1" d="M117.51,68.7l-.1-1h0a2,2,0,0,1-1.81,1.11,2.3,2.3,0,0,1-2.14-2.58c0-2.26,1.81-3.25,3.86-3.27v-.29c0-1.22-.31-2.05-1.45-2.05a2.63,2.63,0,0,0-1.49.46l-.31-1a4,4,0,0,1,2.11-.59c1.81,0,2.58,1.18,2.58,3.22v3.92a14.67,14.67,0,0,0,.1,2ZM117.3,64c-.74,0-2.48.15-2.48,2.11,0,1.18.59,1.59,1.1,1.59s1.16-.47,1.33-1.35a2.26,2.26,0,0,0,0-.51Z"/><path class="cls-1" d="M120.72,62c0-.76,0-1.65-.08-2.33h1.28l.07,1.41H122a2.19,2.19,0,0,1,1.89-1.56l.31,0V61h-.3a2,2,0,0,0-1.74,1.88,5.08,5.08,0,0,0,0,.82v5h-1.43Z"/><path class="cls-1" d="M129.3,64.31c0,2.77,1.1,3.35,2.13,3.35a3.37,3.37,0,0,0,1.5-.33l.24,1a4.31,4.31,0,0,1-2,.44c-2.16,0-3.28-1.77-3.28-4.53,0-2.93,1.24-4.76,3-4.76s2.59,1.95,2.59,4c0,.35,0,.6,0,.81Zm2.84-1.06c0-1.81-.66-2.61-1.34-2.61-1,0-1.42,1.37-1.49,2.61Z"/><path class="cls-1" d="M135.06,55.79h1.43V68.7h-1.43Z"/><path class="cls-1" d="M146,68.48a3.21,3.21,0,0,1-1.5.33c-2,0-3.3-1.59-3.3-4.58,0-2.59,1.31-4.69,3.57-4.69a2.77,2.77,0,0,1,1.27.29L145.72,61a2.26,2.26,0,0,0-1-.25c-1.44,0-2.09,1.72-2.09,3.49,0,2.11.81,3.37,2.12,3.37a2.24,2.24,0,0,0,1-.24Z"/><path class="cls-1" d="M152.62,64.17c0,3.5-1.62,4.68-3,4.68-1.62,0-2.94-1.48-2.94-4.65s1.48-4.68,3-4.68S152.62,61,152.62,64.17Zm-4.49,0c0,1.5.26,3.52,1.55,3.52s1.49-2.11,1.49-3.52-.25-3.51-1.52-3.51S148.13,62.8,148.13,64.18Z"/><path class="cls-1" d="M154.22,62c0-1.06-.05-1.6-.07-2.33h1.25l.08,1.09h0a2.29,2.29,0,0,1,2.07-1.24c1.25,0,2.19.93,2.19,3.11V68.7h-1.44V62.88c0-1.08-.2-2.14-1.25-2.14-.6,0-1.17.5-1.35,1.46a3.76,3.76,0,0,0-.08.81V68.7h-1.43Z"/><path class="cls-1" d="M163.43,57.27v2.4h1.73v1.09h-1.73v5.37c0,1.18.42,1.49.94,1.49a2.46,2.46,0,0,0,.58-.06l.06,1.11a3.18,3.18,0,0,1-1.06.14,1.82,1.82,0,0,1-1.42-.54A3.29,3.29,0,0,1,162,66V60.76h-1.11V59.67H162v-2Z"/><path class="cls-1" d="M166.41,62c0-.76,0-1.65-.07-2.33h1.28l.07,1.41h.05a2.19,2.19,0,0,1,1.89-1.56l.3,0V61h-.29a2,2,0,0,0-1.74,1.88,5,5,0,0,0-.06.82v5h-1.43Z"/><path class="cls-1" d="M176.33,64.17c0,3.5-1.62,4.68-3,4.68-1.62,0-2.94-1.48-2.94-4.65s1.48-4.68,3-4.68S176.33,61,176.33,64.17Zm-4.49,0c0,1.5.27,3.52,1.56,3.52s1.49-2.11,1.49-3.52-.25-3.51-1.53-3.51S171.84,62.8,171.84,64.18Z"/><path class="cls-1" d="M177.94,55.79h1.43V68.7h-1.43Z"/><path class="cls-1" d="M189.87,55.79V66.54c0,.6,0,1.63.07,2.16h-1.23l-.09-1.13h-.07a2.08,2.08,0,0,1-1.89,1.28c-1.52,0-2.63-1.65-2.63-4.63,0-3.2,1.34-4.7,2.73-4.7a1.75,1.75,0,0,1,1.65,1.07h0v-4.8Zm-1.43,7.31a5.82,5.82,0,0,0,0-.59c-.08-.94-.64-1.76-1.34-1.76-1.19,0-1.6,1.66-1.6,3.46s.49,3.44,1.52,3.44c.45,0,1.06-.24,1.39-1.54a2.74,2.74,0,0,0,.05-.6Z"/><path class="cls-1" d="M192.89,64.31c0,2.77,1.1,3.35,2.13,3.35a3.37,3.37,0,0,0,1.5-.33l.24,1a4.31,4.31,0,0,1-2,.44c-2.16,0-3.28-1.77-3.28-4.53,0-2.93,1.24-4.76,3-4.76s2.59,1.95,2.59,4c0,.35,0,.6,0,.81Zm2.84-1.06c0-1.81-.66-2.61-1.34-2.61-.95,0-1.42,1.37-1.49,2.61Z"/><path class="cls-1" d="M201.58,62c0-1.06-.05-1.6-.08-2.33h1.27l.07,1.11h0a2.25,2.25,0,0,1,2-1.26,1.87,1.87,0,0,1,1.89,1.38h0a2.77,2.77,0,0,1,.89-1,2.28,2.28,0,0,1,1.25-.35c1.22,0,2.17.89,2.17,3.19v6h-1.43V63c0-1.17-.17-2.31-1.26-2.31-.6,0-1.12.5-1.32,1.35a4.11,4.11,0,0,0-.06.81V68.7h-1.42V62.78c0-1-.18-2.05-1.24-2.05-.6,0-1.18.5-1.35,1.46A4.72,4.72,0,0,0,203,63V68.7h-1.42Z"/><path class="cls-1" d="M214.7,57.33a.84.84,0,0,1-.88.94.94.94,0,0,1,0-1.87A.84.84,0,0,1,214.7,57.33ZM213.15,68.7v-9h1.43v9Z"/><path class="cls-1" d="M216.58,62c0-1.06-.05-1.6-.07-2.33h1.25l.07,1.09h0a2.29,2.29,0,0,1,2.07-1.24c1.25,0,2.18.93,2.18,3.11V68.7h-1.43V62.88c0-1.08-.2-2.14-1.25-2.14-.61,0-1.18.5-1.36,1.46A3.81,3.81,0,0,0,218,63V68.7h-1.43Z"/><path class="cls-1" d="M225.15,64.31c0,2.77,1.1,3.35,2.13,3.35a3.33,3.33,0,0,0,1.5-.33l.24,1a4.28,4.28,0,0,1-2,.44c-2.16,0-3.28-1.77-3.28-4.53,0-2.93,1.25-4.76,3-4.76s2.59,1.95,2.59,4c0,.35,0,.6,0,.81ZM228,63.25c0-1.81-.66-2.61-1.34-2.61-1,0-1.42,1.37-1.49,2.61Z"/><path class="cls-1" d="M230.9,62c0-.76-.05-1.65-.08-2.33h1.28l.08,1.41h0a2.2,2.2,0,0,1,1.89-1.56l.31,0V61h-.3a2,2,0,0,0-1.74,1.88,6.56,6.56,0,0,0,0,.82v5H230.9Z"/><path class="cls-1" d="M239,68.7l-.1-1h-.05A2,2,0,0,1,237,68.85a2.29,2.29,0,0,1-2.14-2.58c0-2.26,1.81-3.25,3.85-3.27v-.29c0-1.22-.3-2.05-1.44-2.05a2.66,2.66,0,0,0-1.5.46l-.3-1a3.93,3.93,0,0,1,2.11-.59c1.8,0,2.58,1.18,2.58,3.22v3.92a16.48,16.48,0,0,0,.09,2ZM238.78,64c-.73,0-2.48.15-2.48,2.11,0,1.18.6,1.59,1.11,1.59s1.16-.47,1.33-1.35a2.24,2.24,0,0,0,0-.51Z"/><path class="cls-1" d="M242.22,55.79h1.43V68.7h-1.43Z"/><path class="cls-1" d="M246.79,64.31c0,2.77,1.1,3.35,2.14,3.35a3.32,3.32,0,0,0,1.49-.33l.24,1a4.24,4.24,0,0,1-2,.44c-2.16,0-3.29-1.77-3.29-4.53,0-2.93,1.25-4.76,3.05-4.76s2.58,1.95,2.58,4c0,.35,0,.6,0,.81Zm2.84-1.06c0-1.81-.66-2.61-1.34-2.61-.95,0-1.42,1.37-1.48,2.61Z"/><path class="cls-1" d="M252.31,67.2a2.84,2.84,0,0,0,1.46.47,1.23,1.23,0,0,0,1.33-1.31c0-.68-.25-1.16-1.15-1.76-1.18-.76-1.83-1.54-1.83-2.58a2.43,2.43,0,0,1,2.5-2.5,3,3,0,0,1,1.6.47l-.38,1.08a2,2,0,0,0-1.2-.4,1.11,1.11,0,0,0-1.17,1.15c0,.6.23.94,1.13,1.55a3.33,3.33,0,0,1,1.86,2.76,2.52,2.52,0,0,1-2.72,2.68,3.05,3.05,0,0,1-1.78-.52Z"/><path class="cls-1" d="M257,71a27.27,27.27,0,0,0,1.07-4.34l1.63-.19A23.07,23.07,0,0,1,258,70.92Z"/><path class="cls-1" d="M265.27,64.31c0,2.77,1.09,3.35,2.13,3.35a3.4,3.4,0,0,0,1.5-.33l.23,1a4.24,4.24,0,0,1-2,.44c-2.16,0-3.28-1.77-3.28-4.53,0-2.93,1.24-4.76,3-4.76s2.58,1.95,2.58,4c0,.35,0,.6,0,.81Zm2.83-1.06c0-1.81-.65-2.61-1.34-2.61-.94,0-1.42,1.37-1.48,2.61Z"/><path class="cls-1" d="M270.78,67.2a2.84,2.84,0,0,0,1.46.47,1.23,1.23,0,0,0,1.34-1.31c0-.68-.26-1.16-1.16-1.76-1.18-.76-1.83-1.54-1.83-2.58a2.44,2.44,0,0,1,2.5-2.5,3,3,0,0,1,1.61.47l-.39,1.08a2,2,0,0,0-1.2-.4A1.1,1.1,0,0,0,272,61.82c0,.6.23.94,1.12,1.55a3.34,3.34,0,0,1,1.87,2.76,2.52,2.52,0,0,1-2.73,2.68,3.08,3.08,0,0,1-1.78-.52Z"/><path class="cls-1" d="M278.18,57.27v2.4h1.73v1.09h-1.73v5.37c0,1.18.42,1.49.94,1.49a2.4,2.4,0,0,0,.58-.06l.07,1.11a3.29,3.29,0,0,1-1.07.14,1.78,1.78,0,0,1-1.41-.54,3.23,3.23,0,0,1-.54-2.27V60.76h-1.1V59.67h1.1v-2Z"/><path class="cls-1" d="M282,64.31c0,2.77,1.1,3.35,2.14,3.35a3.32,3.32,0,0,0,1.49-.33l.24,1a4.28,4.28,0,0,1-2,.44c-2.16,0-3.28-1.77-3.28-4.53,0-2.93,1.25-4.76,3.05-4.76s2.58,1.95,2.58,4c0,.35,0,.6,0,.81Zm2.84-1.06c0-1.81-.66-2.61-1.34-2.61-1,0-1.42,1.37-1.49,2.61Zm1-7.27-1.95,2.52h-1L284.4,56Z"/><path class="cls-1" d="M287.79,62c0-.76-.05-1.65-.08-2.33H289l.08,1.41h0A2.2,2.2,0,0,1,291,59.52l.31,0V61H291a2,2,0,0,0-1.74,1.88,6.56,6.56,0,0,0,0,.82v5h-1.43Z"/><path class="cls-1" d="M294,57.33a.85.85,0,0,1-.88.94.94.94,0,1,1,.88-.94ZM292.39,68.7v-9h1.43v9Z"/><path class="cls-1" d="M295.82,55.79h1.44V68.7h-1.44Z"/><path class="cls-1" d="M42.59,82.07l1.19,5.18c.17.7.26,1.29.38,1.86h0c.09-.51.25-1.19.38-1.85l1.07-5.19h1.42L45.6,87.86a16.51,16.51,0,0,1-2.24,5.83,5,5,0,0,1-1.62,1.37l-.54-1.23a4.5,4.5,0,0,0,1.28-1.13,5.38,5.38,0,0,0,.81-1.52,1.24,1.24,0,0,0,.11-.45,1,1,0,0,0,0-.34l-2.28-8.32Z"/><path class="cls-1" d="M52.24,86.7c0,2.77,1.1,3.35,2.13,3.35a3.24,3.24,0,0,0,1.5-.33l.24,1a4.31,4.31,0,0,1-2,.44c-2.16,0-3.28-1.77-3.28-4.53,0-2.92,1.24-4.76,3-4.76s2.59,2,2.59,4c0,.36,0,.6,0,.81Zm2.84-1.06c0-1.81-.66-2.61-1.34-2.61-1,0-1.42,1.37-1.49,2.61Z"/><path class="cls-1" d="M58,78.18h1.43V91.09H58Z"/><path class="cls-1" d="M64.48,84.88c0-1.39,0-2.18-.07-2.81h1.28l.07,1.14h0a2.09,2.09,0,0,1,1.91-1.3c1.57,0,2.62,1.67,2.62,4.64,0,3.36-1.39,4.69-2.8,4.69a1.71,1.71,0,0,1-1.58-1h0v4.47H64.48Zm1.43,2.9a2.91,2.91,0,0,0,.07.74c.28,1.29.92,1.52,1.31,1.52,1.2,0,1.58-1.64,1.58-3.46s-.45-3.44-1.59-3.44c-.66,0-1.24.82-1.32,1.64a3.82,3.82,0,0,0,0,.68Z"/><path class="cls-1" d="M71.92,84.39c0-.76,0-1.65-.07-2.32h1.28l.07,1.41h0a2.19,2.19,0,0,1,1.89-1.57l.3,0V83.4h-.29a2,2,0,0,0-1.74,1.88,5.08,5.08,0,0,0,0,.82v5H71.92Z"/><path class="cls-1" d="M81.85,86.57c0,3.49-1.63,4.67-3,4.67-1.61,0-2.93-1.48-2.93-4.65s1.47-4.68,3-4.68S81.85,83.43,81.85,86.57Zm-4.5,0c0,1.5.27,3.52,1.56,3.52S80.4,88,80.4,86.57s-.25-3.51-1.53-3.51S77.35,85.19,77.35,86.57Z"/><path class="cls-1" d="M87.85,90.87a3.16,3.16,0,0,1-1.49.33c-2,0-3.31-1.59-3.31-4.58,0-2.59,1.32-4.69,3.57-4.69a2.82,2.82,0,0,1,1.28.29l-.29,1.17a2.22,2.22,0,0,0-1-.25c-1.44,0-2.08,1.72-2.08,3.49,0,2.11.81,3.37,2.12,3.37a2.24,2.24,0,0,0,1-.24Z"/><path class="cls-1" d="M90,86.7c0,2.77,1.09,3.35,2.13,3.35a3.19,3.19,0,0,0,1.49-.33l.24,1a4.24,4.24,0,0,1-2,.44c-2.16,0-3.29-1.77-3.29-4.53,0-2.92,1.25-4.76,3.05-4.76s2.58,2,2.58,4c0,.36,0,.6,0,.81Zm2.83-1.06c0-1.81-.66-2.61-1.34-2.61-1,0-1.42,1.37-1.48,2.61Z"/><path class="cls-1" d="M95.5,89.59a2.84,2.84,0,0,0,1.46.48,1.23,1.23,0,0,0,1.33-1.32c0-.68-.25-1.16-1.15-1.76-1.18-.76-1.83-1.54-1.83-2.58a2.44,2.44,0,0,1,2.5-2.5,3,3,0,0,1,1.61.47L99,83.46a2.08,2.08,0,0,0-1.2-.4,1.11,1.11,0,0,0-1.17,1.15c0,.6.24,1,1.13,1.56a3.32,3.32,0,0,1,1.87,2.75,2.52,2.52,0,0,1-2.73,2.68,3.05,3.05,0,0,1-1.78-.52Z"/><path class="cls-1" d="M104.71,91.09l-.1-1h0a2,2,0,0,1-1.81,1.11,2.3,2.3,0,0,1-2.14-2.58c0-2.26,1.81-3.25,3.86-3.27V85.1c0-1.22-.31-2-1.45-2a2.71,2.71,0,0,0-1.49.46l-.31-1a4,4,0,0,1,2.11-.59c1.81,0,2.58,1.19,2.58,3.22v3.92a14.67,14.67,0,0,0,.1,2Zm-.21-4.68c-.74,0-2.48.15-2.48,2.11,0,1.18.59,1.59,1.1,1.59s1.16-.47,1.33-1.35a2.26,2.26,0,0,0,0-.51Z"/><path class="cls-1" d="M107.93,84.39c0-1.06-.05-1.6-.07-2.32h1.26l.07,1.1h0a2.23,2.23,0,0,1,2-1.26,1.89,1.89,0,0,1,1.89,1.38h0a2.86,2.86,0,0,1,.89-1,2.28,2.28,0,0,1,1.25-.35c1.22,0,2.17.89,2.17,3.2v6h-1.43V85.44c0-1.18-.17-2.32-1.26-2.32-.6,0-1.11.5-1.32,1.35a4.11,4.11,0,0,0-.06.81v5.81H112V85.17c0-1-.18-2-1.24-2-.6,0-1.18.5-1.34,1.46a3.82,3.82,0,0,0-.06.77v5.74h-1.43Z"/><path class="cls-1" d="M121.06,79.72a.85.85,0,0,1-.89.94.94.94,0,1,1,.89-.94ZM119.5,91.09v-9h1.43v9Z"/><path class="cls-1" d="M124,86.7c0,2.77,1.09,3.35,2.13,3.35a3.19,3.19,0,0,0,1.49-.33l.24,1a4.24,4.24,0,0,1-2,.44c-2.16,0-3.29-1.77-3.29-4.53,0-2.92,1.25-4.76,3-4.76s2.58,2,2.58,4c0,.36,0,.6,0,.81Zm2.83-1.06c0-1.81-.66-2.61-1.34-2.61-1,0-1.42,1.37-1.48,2.61Z"/><path class="cls-1" d="M129.71,84.39c0-1.06-.05-1.6-.08-2.32h1.26l.07,1.08h0a2.29,2.29,0,0,1,2.07-1.24c1.25,0,2.19.93,2.19,3.11v6.07h-1.43V85.27c0-1.07-.21-2.14-1.26-2.14-.6,0-1.17.5-1.35,1.47a3.72,3.72,0,0,0-.07.8v5.69h-1.43Z"/><path class="cls-1" d="M138.91,79.66v2.41h1.73v1.08h-1.73v5.37c0,1.18.42,1.49.94,1.49a2.4,2.4,0,0,0,.58-.06l.07,1.11a3.29,3.29,0,0,1-1.07.14,1.78,1.78,0,0,1-1.41-.54,3.23,3.23,0,0,1-.54-2.27V83.15h-1.1V82.07h1.1v-2Z"/><path class="cls-1" d="M147.3,86.57c0,3.49-1.62,4.67-3,4.67-1.62,0-2.94-1.48-2.94-4.65s1.48-4.68,3-4.68S147.3,83.43,147.3,86.57Zm-4.49,0c0,1.5.27,3.52,1.56,3.52s1.49-2.11,1.49-3.52-.26-3.51-1.53-3.51S142.81,85.19,142.81,86.57Z"/><path class="cls-1" d="M151.82,84.88c0-1.39,0-2.18-.07-2.81H153l.07,1.14h0a2.07,2.07,0,0,1,1.91-1.3c1.57,0,2.61,1.67,2.61,4.64,0,3.36-1.39,4.69-2.8,4.69a1.72,1.72,0,0,1-1.58-1h0v4.47h-1.43Zm1.43,2.9a2.91,2.91,0,0,0,.07.74c.28,1.29.92,1.52,1.32,1.52,1.19,0,1.57-1.64,1.57-3.46s-.45-3.44-1.59-3.44c-.65,0-1.23.82-1.32,1.64a3.82,3.82,0,0,0-.05.68Z"/><path class="cls-1" d="M164.82,86.57c0,3.49-1.62,4.67-3,4.67-1.62,0-2.94-1.48-2.94-4.65s1.48-4.68,3-4.68S164.82,83.43,164.82,86.57Zm-4.49,0c0,1.5.27,3.52,1.56,3.52s1.49-2.11,1.49-3.52-.26-3.51-1.53-3.51S160.33,85.19,160.33,86.57Z"/><path class="cls-1" d="M166.18,89.59a2.84,2.84,0,0,0,1.46.48A1.24,1.24,0,0,0,169,88.75c0-.68-.26-1.16-1.16-1.76-1.18-.76-1.83-1.54-1.83-2.58a2.44,2.44,0,0,1,2.5-2.5,3,3,0,0,1,1.61.47l-.39,1.08a2.08,2.08,0,0,0-1.2-.4,1.11,1.11,0,0,0-1.17,1.15c0,.6.24,1,1.13,1.56a3.32,3.32,0,0,1,1.87,2.75,2.52,2.52,0,0,1-2.73,2.68,3.05,3.05,0,0,1-1.78-.52Z"/><path class="cls-1" d="M173.58,79.66v2.41h1.73v1.08h-1.73v5.37c0,1.18.42,1.49.94,1.49a2.4,2.4,0,0,0,.58-.06l.06,1.11a3.18,3.18,0,0,1-1.06.14,1.78,1.78,0,0,1-1.41-.54,3.23,3.23,0,0,1-.54-2.27V83.15H171V82.07h1.11v-2Z"/><path class="cls-1" d="M177.44,86.7c0,2.77,1.1,3.35,2.13,3.35a3.21,3.21,0,0,0,1.5-.33l.24,1a4.28,4.28,0,0,1-2,.44c-2.16,0-3.28-1.77-3.28-4.53,0-2.92,1.25-4.76,3-4.76s2.59,2,2.59,4c0,.36,0,.6,0,.81Zm2.84-1.06c0-1.81-.66-2.61-1.34-2.61-.95,0-1.42,1.37-1.49,2.61Z"/><path class="cls-1" d="M183.19,84.39c0-.76-.05-1.65-.08-2.32h1.28l.08,1.41h0a2.2,2.2,0,0,1,1.89-1.57l.31,0V83.4h-.3a2,2,0,0,0-1.74,1.88,6.56,6.56,0,0,0,0,.82v5h-1.43Z"/><path class="cls-1" d="M189.35,79.72a.85.85,0,0,1-.88.94.94.94,0,1,1,.88-.94Zm-1.56,11.37v-9h1.43v9Z"/><path class="cls-1" d="M196.77,86.57c0,3.49-1.63,4.67-3,4.67-1.61,0-2.93-1.48-2.93-4.65s1.47-4.68,3-4.68S196.77,83.43,196.77,86.57Zm-4.5,0c0,1.5.27,3.52,1.56,3.52s1.49-2.11,1.49-3.52-.25-3.51-1.53-3.51S192.27,85.19,192.27,86.57Z"/><path class="cls-1" d="M198.36,84.39c0-.76-.05-1.65-.08-2.32h1.28l.08,1.41h0a2.2,2.2,0,0,1,1.89-1.57l.31,0V83.4h-.3a2,2,0,0,0-1.74,1.88,6.56,6.56,0,0,0-.05.82v5h-1.43Z"/><path class="cls-1" d="M201.31,93.44a27.67,27.67,0,0,0,1.08-4.35l1.63-.18a23.21,23.21,0,0,1-1.72,4.4Z"/><path class="cls-1" d="M212.11,91.09l-.1-1h0a2,2,0,0,1-1.8,1.11A2.3,2.3,0,0,1,208,88.66c0-2.26,1.81-3.25,3.86-3.27V85.1c0-1.22-.31-2-1.45-2a2.71,2.71,0,0,0-1.49.46l-.31-1a4,4,0,0,1,2.11-.59c1.81,0,2.58,1.19,2.58,3.22v3.92a14.67,14.67,0,0,0,.1,2Zm-.21-4.68c-.74,0-2.48.15-2.48,2.11,0,1.18.59,1.59,1.11,1.59s1.16-.47,1.32-1.35a2.26,2.26,0,0,0,.05-.51Z"/><path class="cls-1" d="M220,79.66v2.41h1.73v1.08H220v5.37c0,1.18.42,1.49.94,1.49a2.4,2.4,0,0,0,.58-.06l.07,1.11a3.29,3.29,0,0,1-1.07.14,1.78,1.78,0,0,1-1.41-.54,3.23,3.23,0,0,1-.54-2.27V83.15h-1.1V82.07h1.1v-2Z"/><path class="cls-1" d="M223,84.39c0-.76-.05-1.65-.07-2.32h1.28l.07,1.41h.05a2.19,2.19,0,0,1,1.89-1.57l.3,0V83.4h-.29a2,2,0,0,0-1.74,1.88,5.08,5.08,0,0,0-.05.82v5H223Z"/><path class="cls-1" d="M231.11,91.09l-.1-1h0a2,2,0,0,1-1.81,1.11A2.29,2.29,0,0,1,227,88.66c0-2.26,1.81-3.25,3.85-3.27V85.1c0-1.22-.31-2-1.44-2a2.74,2.74,0,0,0-1.5.46l-.31-1a4,4,0,0,1,2.11-.59c1.81,0,2.59,1.19,2.59,3.22v3.92a16.48,16.48,0,0,0,.09,2Zm-.22-4.68c-.73,0-2.48.15-2.48,2.11,0,1.18.6,1.59,1.11,1.59s1.16-.47,1.33-1.35a2.24,2.24,0,0,0,0-.51Z"/><path class="cls-1" d="M234.86,82.07,236,87.13c.14.61.29,1.42.4,2.2h0c.1-.75.25-1.51.38-2.2l1.11-5.06h1.43l-2.36,9h-1.27l-2.37-9Z"/><path class="cls-1" d="M241.38,86.7c0,2.77,1.1,3.35,2.14,3.35a3.19,3.19,0,0,0,1.49-.33l.24,1a4.24,4.24,0,0,1-2,.44c-2.16,0-3.29-1.77-3.29-4.53,0-2.92,1.25-4.76,3.05-4.76s2.58,2,2.58,4c0,.36,0,.6,0,.81Zm2.84-1.06c0-1.81-.66-2.61-1.34-2.61-.95,0-1.42,1.37-1.48,2.61Zm1-7.27-1.95,2.52h-1l1.44-2.52Z"/><path class="cls-1" d="M246.9,89.59a2.84,2.84,0,0,0,1.46.48,1.23,1.23,0,0,0,1.33-1.32c0-.68-.25-1.16-1.15-1.76-1.18-.76-1.83-1.54-1.83-2.58a2.44,2.44,0,0,1,2.5-2.5,3,3,0,0,1,1.61.47l-.39,1.08a2.08,2.08,0,0,0-1.2-.4,1.11,1.11,0,0,0-1.17,1.15c0,.6.23,1,1.13,1.56a3.3,3.3,0,0,1,1.86,2.75,2.52,2.52,0,0,1-2.72,2.68,3.05,3.05,0,0,1-1.78-.52Z"/><path class="cls-1" d="M260.91,78.18V88.93c0,.6,0,1.63.07,2.16h-1.23l-.1-1.13h-.06a2.09,2.09,0,0,1-1.89,1.28c-1.53,0-2.63-1.65-2.63-4.63,0-3.2,1.34-4.7,2.72-4.7A1.74,1.74,0,0,1,259.44,83h0v-4.8Zm-1.43,7.31a5.82,5.82,0,0,0,0-.59c-.08-.94-.64-1.76-1.34-1.76-1.19,0-1.6,1.67-1.6,3.47S257,90,258,90c.44,0,1.06-.24,1.39-1.54a2.74,2.74,0,0,0,.05-.6Z"/><path class="cls-1" d="M263.93,86.7c0,2.77,1.09,3.35,2.13,3.35a3.27,3.27,0,0,0,1.5-.33l.23,1a4.24,4.24,0,0,1-2,.44c-2.16,0-3.28-1.77-3.28-4.53,0-2.92,1.24-4.76,3-4.76s2.58,2,2.58,4c0,.36,0,.6,0,.81Zm2.83-1.06c0-1.81-.65-2.61-1.34-2.61-.95,0-1.42,1.37-1.48,2.61Z"/><path class="cls-1" d="M272.62,84.39c0-1.06-.05-1.6-.08-2.32h1.26l.07,1.1h0a2.24,2.24,0,0,1,2-1.26,1.89,1.89,0,0,1,1.89,1.38h0a2.77,2.77,0,0,1,.89-1,2.27,2.27,0,0,1,1.24-.35c1.23,0,2.17.89,2.17,3.2v6h-1.42V85.44c0-1.18-.17-2.32-1.26-2.32-.6,0-1.12.5-1.32,1.35a4.11,4.11,0,0,0-.06.81v5.81h-1.43V85.17c0-1-.17-2-1.24-2-.59,0-1.17.5-1.34,1.46a4.72,4.72,0,0,0-.06.77v5.74h-1.42Z"/><path class="cls-1" d="M285.2,86.7c0,2.77,1.1,3.35,2.13,3.35a3.27,3.27,0,0,0,1.5-.33l.23,1a4.24,4.24,0,0,1-2,.44c-2.16,0-3.28-1.77-3.28-4.53,0-2.92,1.24-4.76,3-4.76s2.58,2,2.58,4c0,.36,0,.6,0,.81ZM288,85.64c0-1.81-.65-2.61-1.33-2.61-.95,0-1.42,1.37-1.49,2.61Z"/><path class="cls-1" d="M296.4,78.18V88.93c0,.6.05,1.63.07,2.16h-1.23l-.1-1.13h-.06a2.09,2.09,0,0,1-1.89,1.28c-1.53,0-2.63-1.65-2.63-4.63,0-3.2,1.34-4.7,2.72-4.7A1.74,1.74,0,0,1,294.93,83h0v-4.8ZM295,85.49a5.82,5.82,0,0,0,0-.59c-.08-.94-.64-1.76-1.34-1.76-1.19,0-1.6,1.67-1.6,3.47S292.5,90,293.53,90c.44,0,1.06-.24,1.39-1.54a2.74,2.74,0,0,0,.05-.6Z"/><path class="cls-1" d="M300,79.72a.85.85,0,1,1-1.7,0,.85.85,0,0,1,.84-.93A.84.84,0,0,1,300,79.72ZM298.4,91.09v-9h1.43v9Z"/><path class="cls-1" d="M306.24,90.87a3.21,3.21,0,0,1-1.5.33c-2,0-3.3-1.59-3.3-4.58,0-2.59,1.31-4.69,3.57-4.69a2.74,2.74,0,0,1,1.27.29L306,83.39a2.22,2.22,0,0,0-1-.25c-1.44,0-2.08,1.72-2.08,3.49,0,2.11.81,3.37,2.12,3.37a2.27,2.27,0,0,0,1-.24Z"/><path class="cls-1" d="M309,79.72a.85.85,0,1,1-.86-.93A.85.85,0,0,1,309,79.72Zm-1.56,11.37v-9h1.43v9Z"/><path class="cls-1" d="M316.45,86.57c0,3.49-1.63,4.67-3,4.67-1.61,0-2.93-1.48-2.93-4.65s1.47-4.68,3-4.68S316.45,83.43,316.45,86.57Zm-4.5,0c0,1.5.27,3.52,1.56,3.52S315,88,315,86.57s-.25-3.51-1.52-3.51S312,85.19,312,86.57Z"/><path class="cls-1" d="M318.05,84.39c0-1.06-.05-1.6-.07-2.32h1.25l.07,1.08h0a2.29,2.29,0,0,1,2.07-1.24c1.25,0,2.18.93,2.18,3.11v6.07h-1.43V85.27c0-1.07-.2-2.14-1.25-2.14-.61,0-1.18.5-1.36,1.47a3.72,3.72,0,0,0-.07.8v5.69h-1.43Z"/><path class="cls-1" d="M326.62,86.7c0,2.77,1.1,3.35,2.14,3.35a3.19,3.19,0,0,0,1.49-.33l.24,1a4.28,4.28,0,0,1-2,.44c-2.16,0-3.28-1.77-3.28-4.53,0-2.92,1.25-4.76,3.05-4.76s2.58,2,2.58,4c0,.36,0,.6,0,.81Zm2.84-1.06c0-1.81-.66-2.61-1.34-2.61-.95,0-1.42,1.37-1.49,2.61Z"/><path class="cls-1" d="M332.13,89.59a2.84,2.84,0,0,0,1.46.48,1.23,1.23,0,0,0,1.34-1.32c0-.68-.25-1.16-1.16-1.76-1.18-.76-1.82-1.54-1.82-2.58a2.43,2.43,0,0,1,2.49-2.5,3,3,0,0,1,1.61.47l-.38,1.08a2.08,2.08,0,0,0-1.2-.4,1.11,1.11,0,0,0-1.17,1.15c0,.6.23,1,1.12,1.56a3.3,3.3,0,0,1,1.87,2.75,2.52,2.52,0,0,1-2.72,2.68,3.09,3.09,0,0,1-1.79-.52Z"/><path class="cls-1" d="M41.83,107.27c0-1.39,0-2.18-.08-2.81H43l.08,1.14h0a2.07,2.07,0,0,1,1.91-1.29c1.57,0,2.61,1.66,2.61,4.63,0,3.36-1.38,4.69-2.79,4.69a1.71,1.71,0,0,1-1.58-1h0v4.47H41.83Zm1.42,2.9a3.45,3.45,0,0,0,.07.74c.28,1.29.93,1.52,1.32,1.52,1.19,0,1.58-1.64,1.58-3.46s-.45-3.44-1.59-3.44c-.66,0-1.24.82-1.32,1.64a3.11,3.11,0,0,0-.06.69Z"/><path class="cls-1" d="M49.27,106.79c0-.77-.05-1.66-.07-2.33h1.28l.07,1.41h.05a2.17,2.17,0,0,1,1.89-1.56h.3v1.47H52.5a2,2,0,0,0-1.75,1.88,6.56,6.56,0,0,0,0,.82v5H49.27Z"/><path class="cls-1" d="M54.66,109.09c0,2.77,1.1,3.36,2.14,3.36a3.18,3.18,0,0,0,1.49-.34l.24,1a4.36,4.36,0,0,1-2,.43c-2.16,0-3.29-1.76-3.29-4.53,0-2.92,1.25-4.75,3-4.75s2.58,1.94,2.58,4c0,.36,0,.6,0,.81Zm2.84-1c0-1.81-.66-2.61-1.34-2.61-.95,0-1.42,1.37-1.48,2.61Z"/><path class="cls-1" d="M64.83,113.26a3.21,3.21,0,0,1-1.5.33c-2,0-3.3-1.59-3.3-4.57,0-2.6,1.31-4.7,3.57-4.7a2.77,2.77,0,0,1,1.27.29l-.28,1.17a2.22,2.22,0,0,0-1-.25c-1.44,0-2.09,1.72-2.09,3.49,0,2.11.81,3.38,2.12,3.38a2.32,2.32,0,0,0,1-.25Z"/><path class="cls-1" d="M67.62,102.12a.85.85,0,0,1-.88.93.84.84,0,0,1-.82-.93.85.85,0,1,1,1.7,0Zm-1.56,11.36v-9h1.43v9Z"/><path class="cls-1" d="M69.24,112a2.87,2.87,0,0,0,1.47.47A1.23,1.23,0,0,0,72,111.14c0-.68-.25-1.15-1.16-1.76-1.18-.76-1.82-1.54-1.82-2.57a2.43,2.43,0,0,1,2.5-2.5,3,3,0,0,1,1.6.46l-.38,1.09a2,2,0,0,0-1.2-.41,1.12,1.12,0,0,0-1.17,1.15c0,.6.23,1,1.12,1.56a3.3,3.3,0,0,1,1.87,2.75,2.52,2.52,0,0,1-2.72,2.68,3.05,3.05,0,0,1-1.78-.52Z"/><path class="cls-1" d="M78.46,113.48l-.1-1h0a2,2,0,0,1-1.81,1.1,2.29,2.29,0,0,1-2.14-2.58c0-2.26,1.81-3.25,3.85-3.27v-.28c0-1.23-.3-2.06-1.44-2.06a2.67,2.67,0,0,0-1.5.47l-.3-1a3.85,3.85,0,0,1,2.11-.59c1.8,0,2.58,1.18,2.58,3.21v3.92a16.48,16.48,0,0,0,.09,2Zm-.22-4.67c-.73,0-2.48.14-2.48,2.1,0,1.18.6,1.6,1.11,1.6S78,112,78.2,111.16a2.37,2.37,0,0,0,0-.52Z"/><path class="cls-1" d="M81.43,112a2.84,2.84,0,0,0,1.46.47,1.23,1.23,0,0,0,1.34-1.32c0-.68-.26-1.15-1.16-1.76-1.18-.76-1.83-1.54-1.83-2.57a2.43,2.43,0,0,1,2.5-2.5,3,3,0,0,1,1.61.46L85,105.86a2,2,0,0,0-1.2-.41,1.11,1.11,0,0,0-1.16,1.15c0,.6.23,1,1.12,1.56a3.32,3.32,0,0,1,1.87,2.75,2.52,2.52,0,0,1-2.73,2.68,3.08,3.08,0,0,1-1.78-.52Z"/><path class="cls-1" d="M90.75,104.46l1.19,5.18c.17.7.26,1.29.38,1.86h0c.1-.51.25-1.19.39-1.85l1.07-5.19h1.42l-1.47,5.79a16.71,16.71,0,0,1-2.24,5.83,4.74,4.74,0,0,1-1.63,1.37l-.53-1.22a4.55,4.55,0,0,0,1.28-1.14,5.51,5.51,0,0,0,.81-1.52,1.24,1.24,0,0,0,.11-.45,1.4,1.4,0,0,0,0-.34l-2.28-8.32Z"/><path class="cls-1" d="M104.8,111c0,1,0,1.79.07,2.46h-1.25l-.1-.94h0a2.35,2.35,0,0,1-1.93,1.09c-1.58,0-2.2-1.23-2.2-3.47v-5.7h1.43V110c0,1.42.23,2.47,1.21,2.47a1.4,1.4,0,0,0,1.3-1.2,3.42,3.42,0,0,0,.08-.81v-6h1.43Z"/><path class="cls-1" d="M106.72,113.48c0-.51.08-1.55.08-2.16V100.57h1.42v5h0a2,2,0,0,1,1.91-1.21c1.41,0,2.47,1.61,2.47,4.56,0,3.27-1.35,4.76-2.74,4.76a1.87,1.87,0,0,1-1.79-1.33H108l-.09,1.18Zm1.5-3.18a2.26,2.26,0,0,0,.06.55c.34,1.34,1,1.58,1.35,1.58,1.15,0,1.56-1.57,1.56-3.48s-.42-3.42-1.59-3.42c-.66,0-1.21.83-1.33,1.62a4.07,4.07,0,0,0,0,.61Z"/><path class="cls-1" d="M115.81,102.12a.84.84,0,0,1-.88.93.85.85,0,0,1-.82-.93.86.86,0,0,1,.85-.94A.84.84,0,0,1,115.81,102.12Zm-1.55,11.36v-9h1.43v9Z"/><path class="cls-1" d="M122.09,113.26a3.13,3.13,0,0,1-1.49.33c-2,0-3.31-1.59-3.31-4.57,0-2.6,1.32-4.7,3.57-4.7a2.82,2.82,0,0,1,1.28.29l-.29,1.17a2.22,2.22,0,0,0-1-.25c-1.44,0-2.08,1.72-2.08,3.49,0,2.11.81,3.38,2.12,3.38a2.25,2.25,0,0,0,1-.25Z"/><path class="cls-1" d="M127,113.48l-.09-1h0a2,2,0,0,1-1.81,1.1,2.29,2.29,0,0,1-2.14-2.58c0-2.26,1.8-3.25,3.85-3.27v-.28c0-1.23-.31-2.06-1.45-2.06a2.66,2.66,0,0,0-1.49.47l-.31-1a3.9,3.9,0,0,1,2.11-.59c1.81,0,2.58,1.18,2.58,3.21v3.92a14.67,14.67,0,0,0,.1,2Zm-.21-4.67c-.74,0-2.48.14-2.48,2.1,0,1.18.59,1.6,1.11,1.6s1.16-.47,1.33-1.35a3.2,3.2,0,0,0,0-.52Z"/><path class="cls-1" d="M134.58,113.26a3.21,3.21,0,0,1-1.5.33c-2,0-3.3-1.59-3.3-4.57,0-2.6,1.31-4.7,3.57-4.7a2.77,2.77,0,0,1,1.27.29l-.29,1.17a2.21,2.21,0,0,0-1-.25c-1.45,0-2.09,1.72-2.09,3.49,0,2.11.81,3.38,2.12,3.38a2.25,2.25,0,0,0,1-.25Z"/><path class="cls-1" d="M137.36,102.12a.84.84,0,0,1-.88.93.85.85,0,0,1-.82-.93.86.86,0,0,1,.85-.94A.84.84,0,0,1,137.36,102.12Zm-1.55,11.36v-9h1.43v9Z"/><path class="cls-1" d="M144.78,109c0,3.49-1.62,4.67-3,4.67-1.62,0-2.94-1.48-2.94-4.65s1.48-4.67,3-4.67S144.78,105.82,144.78,109Zm-4.49,0c0,1.5.27,3.52,1.56,3.52s1.49-2.11,1.49-3.52-.25-3.51-1.53-3.51S140.29,107.58,140.29,109Z"/><path class="cls-1" d="M146.39,106.79c0-1.07,0-1.61-.08-2.33h1.26l.07,1.08h0a2.26,2.26,0,0,1,2.06-1.23c1.25,0,2.19.92,2.19,3.1v6.07H150.5v-5.82c0-1.07-.21-2.14-1.26-2.14-.6,0-1.17.5-1.35,1.47a3.78,3.78,0,0,0-.07.8v5.69h-1.43Z"/><path class="cls-1" d="M155,109.09c0,2.77,1.1,3.36,2.13,3.36a3.26,3.26,0,0,0,1.5-.34l.23,1a4.36,4.36,0,0,1-2,.43c-2.16,0-3.28-1.76-3.28-4.53,0-2.92,1.24-4.75,3-4.75s2.58,1.94,2.58,4c0,.36,0,.6,0,.81Zm2.83-1c0-1.81-.65-2.61-1.34-2.61-.94,0-1.42,1.37-1.48,2.61Z"/><path class="cls-1" d="M160.47,112a2.84,2.84,0,0,0,1.46.47,1.23,1.23,0,0,0,1.34-1.32c0-.68-.26-1.15-1.16-1.76-1.18-.76-1.83-1.54-1.83-2.57a2.43,2.43,0,0,1,2.5-2.5,3,3,0,0,1,1.61.46l-.39,1.09a2,2,0,0,0-1.2-.41,1.11,1.11,0,0,0-1.16,1.15c0,.6.23,1,1.12,1.56a3.32,3.32,0,0,1,1.87,2.75,2.52,2.52,0,0,1-2.72,2.68,3.09,3.09,0,0,1-1.79-.52Z"/><path class="cls-1" d="M172.61,113.48l-.09-1h-.06a2,2,0,0,1-1.8,1.1,2.29,2.29,0,0,1-2.14-2.58c0-2.26,1.8-3.25,3.85-3.27v-.28c0-1.23-.31-2.06-1.45-2.06a2.66,2.66,0,0,0-1.49.47l-.31-1a3.9,3.9,0,0,1,2.11-.59c1.81,0,2.58,1.18,2.58,3.21v3.92a14.67,14.67,0,0,0,.1,2Zm-.21-4.67c-.74,0-2.48.14-2.48,2.1,0,1.18.59,1.6,1.11,1.6s1.16-.47,1.32-1.35a2.4,2.4,0,0,0,.05-.52Z"/><path class="cls-1" d="M181.27,100.57v10.75c0,.61,0,1.63.07,2.16h-1.23l-.09-1.13H180a2.08,2.08,0,0,1-1.89,1.28c-1.52,0-2.63-1.65-2.63-4.63,0-3.2,1.34-4.69,2.73-4.69a1.74,1.74,0,0,1,1.65,1.06h0v-4.8Zm-1.43,7.31c0-.18,0-.4,0-.59-.08-.94-.64-1.76-1.34-1.76-1.19,0-1.6,1.67-1.6,3.47s.49,3.43,1.52,3.43c.45,0,1.06-.24,1.39-1.54a2.74,2.74,0,0,0,.05-.6Z"/><path class="cls-1" d="M184.83,102.12a.84.84,0,0,1-.88.93.85.85,0,0,1-.82-.93.86.86,0,0,1,.85-.94A.84.84,0,0,1,184.83,102.12Zm-1.55,11.36v-9h1.43v9Z"/><path class="cls-1" d="M191.11,113.26a3.13,3.13,0,0,1-1.49.33c-2,0-3.31-1.59-3.31-4.57,0-2.6,1.32-4.7,3.58-4.7a2.8,2.8,0,0,1,1.27.29l-.29,1.17a2.21,2.21,0,0,0-1-.25c-1.45,0-2.09,1.72-2.09,3.49,0,2.11.81,3.38,2.12,3.38a2.25,2.25,0,0,0,1-.25Z"/><path class="cls-1" d="M193.9,102.12a.84.84,0,0,1-.88.93.85.85,0,0,1-.82-.93.86.86,0,0,1,.85-.94A.84.84,0,0,1,193.9,102.12Zm-1.55,11.36v-9h1.43v9Z"/><path class="cls-1" d="M201.32,109c0,3.49-1.62,4.67-3,4.67-1.62,0-2.94-1.48-2.94-4.65s1.48-4.67,3-4.67S201.32,105.82,201.32,109Zm-4.49,0c0,1.5.27,3.52,1.56,3.52s1.48-2.11,1.48-3.52-.25-3.51-1.52-3.51S196.83,107.58,196.83,109Z"/><path class="cls-1" d="M202.93,106.79c0-1.07-.06-1.61-.08-2.33h1.26l.07,1.08h0a2.28,2.28,0,0,1,2.07-1.23c1.25,0,2.19.92,2.19,3.1v6.07H207v-5.82c0-1.07-.21-2.14-1.26-2.14-.6,0-1.17.5-1.35,1.47a3.78,3.78,0,0,0-.07.8v5.69h-1.43Z"/><path class="cls-1" d="M214.05,113.48l-.09-1h-.05a2,2,0,0,1-1.81,1.1,2.29,2.29,0,0,1-2.14-2.58c0-2.26,1.81-3.25,3.85-3.27v-.28c0-1.23-.31-2.06-1.45-2.06a2.66,2.66,0,0,0-1.49.47l-.31-1a3.9,3.9,0,0,1,2.11-.59c1.81,0,2.58,1.18,2.58,3.21v3.92a16.39,16.39,0,0,0,.1,2Zm-.21-4.67c-.74,0-2.48.14-2.48,2.1,0,1.18.6,1.6,1.11,1.6s1.16-.47,1.33-1.35a3.2,3.2,0,0,0,0-.52Z"/><path class="cls-1" d="M217.27,100.57h1.43v12.91h-1.43Z"/><path class="cls-1" d="M221.85,109.09c0,2.77,1.1,3.36,2.14,3.36a3.18,3.18,0,0,0,1.49-.34l.24,1a4.41,4.41,0,0,1-2,.43c-2.16,0-3.28-1.76-3.28-4.53,0-2.92,1.25-4.75,3.05-4.75s2.58,1.94,2.58,4c0,.36,0,.6,0,.81Zm2.84-1c0-1.81-.66-2.61-1.34-2.61-.95,0-1.42,1.37-1.49,2.61Z"/><path class="cls-1" d="M227.36,112a2.84,2.84,0,0,0,1.46.47,1.23,1.23,0,0,0,1.34-1.32c0-.68-.25-1.15-1.16-1.76-1.18-.76-1.82-1.54-1.82-2.57a2.43,2.43,0,0,1,2.49-2.5,3,3,0,0,1,1.61.46l-.38,1.09a2,2,0,0,0-1.2-.41,1.12,1.12,0,0,0-1.17,1.15c0,.6.23,1,1.12,1.56a3.3,3.3,0,0,1,1.87,2.75,2.52,2.52,0,0,1-2.72,2.68,3.09,3.09,0,0,1-1.79-.52Z"/><path class="cls-1" d="M237,109.09c0,2.77,1.09,3.36,2.13,3.36a3.26,3.26,0,0,0,1.5-.34l.23,1a4.36,4.36,0,0,1-2,.43c-2.16,0-3.28-1.76-3.28-4.53,0-2.92,1.24-4.75,3-4.75s2.58,1.94,2.58,4c0,.36,0,.6,0,.81Zm2.83-1c0-1.81-.65-2.61-1.34-2.61-.95,0-1.42,1.37-1.48,2.61Z"/><path class="cls-1" d="M242.71,106.79c0-1.07-.05-1.61-.08-2.33h1.26l.07,1.08h0a2.26,2.26,0,0,1,2.06-1.23c1.25,0,2.19.92,2.19,3.1v6.07h-1.43v-5.82c0-1.07-.21-2.14-1.26-2.14-.6,0-1.17.5-1.35,1.47a3.78,3.78,0,0,0-.07.8v5.69h-1.43Z"/><path class="cls-1" d="M253.19,100.57h1.43v12.91h-1.43Z"/><path class="cls-1" d="M260.33,113.48l-.1-1h-.05a2,2,0,0,1-1.81,1.1,2.29,2.29,0,0,1-2.14-2.58c0-2.26,1.81-3.25,3.86-3.27v-.28c0-1.23-.31-2.06-1.45-2.06a2.67,2.67,0,0,0-1.5.47l-.3-1a3.85,3.85,0,0,1,2.11-.59c1.8,0,2.58,1.18,2.58,3.21v3.92a14.67,14.67,0,0,0,.1,2Zm-.22-4.67c-.73,0-2.48.14-2.48,2.1,0,1.18.6,1.6,1.11,1.6s1.16-.47,1.33-1.35a2.37,2.37,0,0,0,0-.52Z"/><path class="cls-1" d="M263.3,112a2.84,2.84,0,0,0,1.46.47,1.23,1.23,0,0,0,1.34-1.32c0-.68-.26-1.15-1.16-1.76-1.18-.76-1.83-1.54-1.83-2.57a2.43,2.43,0,0,1,2.5-2.5,3,3,0,0,1,1.61.46l-.38,1.09a2.07,2.07,0,0,0-1.21-.41,1.11,1.11,0,0,0-1.16,1.15c0,.6.23,1,1.12,1.56a3.32,3.32,0,0,1,1.87,2.75,2.52,2.52,0,0,1-2.72,2.68,3.09,3.09,0,0,1-1.79-.52Z"/><path class="cls-1" d="M276.27,113.26a3.13,3.13,0,0,1-1.49.33c-2,0-3.31-1.59-3.31-4.57,0-2.6,1.32-4.7,3.58-4.7a2.8,2.8,0,0,1,1.27.29l-.29,1.17a2.21,2.21,0,0,0-1-.25c-1.45,0-2.09,1.72-2.09,3.49,0,2.11.81,3.38,2.12,3.38a2.25,2.25,0,0,0,1-.25Z"/><path class="cls-1" d="M282.94,109c0,3.49-1.63,4.67-3,4.67-1.61,0-2.93-1.48-2.93-4.65s1.47-4.67,3-4.67S282.94,105.82,282.94,109Zm-4.5,0c0,1.5.27,3.52,1.56,3.52s1.49-2.11,1.49-3.52-.25-3.51-1.53-3.51S278.44,107.58,278.44,109Z"/><path class="cls-1" d="M284.53,106.79c0-.77,0-1.66-.08-2.33h1.28l.07,1.41h.05a2.17,2.17,0,0,1,1.89-1.56h.31v1.47h-.3a2,2,0,0,0-1.74,1.88,5.08,5.08,0,0,0-.05.82v5h-1.43Z"/><path class="cls-1" d="M289.12,106.79c0-.77-.05-1.66-.08-2.33h1.28l.07,1.41h.05a2.17,2.17,0,0,1,1.89-1.56h.31v1.47h-.3a2,2,0,0,0-1.74,1.88,5.08,5.08,0,0,0-.05.82v5h-1.43Z"/><path class="cls-1" d="M294.51,109.09c0,2.77,1.1,3.36,2.13,3.36a3.23,3.23,0,0,0,1.5-.34l.24,1a4.44,4.44,0,0,1-2,.43c-2.16,0-3.28-1.76-3.28-4.53,0-2.92,1.24-4.75,3-4.75s2.59,1.94,2.59,4c0,.36,0,.6,0,.81Zm2.84-1c0-1.81-.66-2.61-1.34-2.61-.95,0-1.42,1.37-1.49,2.61Z"/><path class="cls-1" d="M303.84,113.48l-.1-1h-.05a2,2,0,0,1-1.8,1.1,2.3,2.3,0,0,1-2.15-2.58c0-2.26,1.81-3.25,3.86-3.27v-.28c0-1.23-.31-2.06-1.45-2.06a2.64,2.64,0,0,0-1.49.47l-.31-1a3.9,3.9,0,0,1,2.11-.59c1.81,0,2.58,1.18,2.58,3.21v3.92a14.67,14.67,0,0,0,.1,2Zm-.21-4.67c-.74,0-2.48.14-2.48,2.1,0,1.18.59,1.6,1.11,1.6s1.16-.47,1.32-1.35a2.4,2.4,0,0,0,.05-.52Z"/><path class="cls-1" d="M306.81,112a2.84,2.84,0,0,0,1.46.47,1.23,1.23,0,0,0,1.34-1.32c0-.68-.25-1.15-1.16-1.76-1.18-.76-1.82-1.54-1.82-2.57a2.43,2.43,0,0,1,2.49-2.5,3,3,0,0,1,1.61.46l-.38,1.09a2,2,0,0,0-1.2-.41A1.12,1.12,0,0,0,308,106.6c0,.6.23,1,1.12,1.56a3.3,3.3,0,0,1,1.87,2.75,2.52,2.52,0,0,1-2.72,2.68,3.09,3.09,0,0,1-1.79-.52Z"/><path class="cls-1" d="M41.83,129.66c0-1.39,0-2.18-.08-2.81H43l.08,1.14h0a2.09,2.09,0,0,1,1.91-1.29c1.57,0,2.61,1.66,2.61,4.63,0,3.36-1.38,4.69-2.79,4.69a1.71,1.71,0,0,1-1.58-1h0v4.48H41.83Zm1.42,2.9a3.45,3.45,0,0,0,.07.74c.28,1.29.93,1.52,1.32,1.52,1.19,0,1.58-1.64,1.58-3.45s-.45-3.45-1.59-3.45c-.66,0-1.24.82-1.32,1.64a3.11,3.11,0,0,0-.06.69Z"/><path class="cls-1" d="M54.83,131.35c0,3.49-1.63,4.67-3,4.67-1.61,0-2.93-1.47-2.93-4.65s1.47-4.67,3-4.67S54.83,128.21,54.83,131.35Zm-4.5,0c0,1.5.27,3.52,1.56,3.52s1.49-2.11,1.49-3.52-.25-3.51-1.52-3.51S50.33,130,50.33,131.35Z"/><path class="cls-1" d="M56.18,134.38a2.84,2.84,0,0,0,1.46.47A1.23,1.23,0,0,0,59,133.53c0-.68-.25-1.15-1.16-1.76C56.64,131,56,130.23,56,129.2a2.43,2.43,0,0,1,2.49-2.5,3,3,0,0,1,1.61.46l-.38,1.09a2,2,0,0,0-1.2-.41A1.12,1.12,0,0,0,57.35,129c0,.6.23.95,1.12,1.56a3.3,3.3,0,0,1,1.87,2.75A2.52,2.52,0,0,1,57.62,136a3.09,3.09,0,0,1-1.79-.52Z"/><path class="cls-1" d="M63.58,124.44v2.41h1.74v1.09H63.58v5.36c0,1.18.43,1.49.94,1.49a2.4,2.4,0,0,0,.58-.06l.07,1.11a3,3,0,0,1-1.07.14,1.78,1.78,0,0,1-1.41-.54,3.26,3.26,0,0,1-.54-2.27v-5.23h-1.1v-1.09h1.1v-2Z"/><path class="cls-1" d="M67.45,131.48c0,2.77,1.09,3.36,2.13,3.36a3.18,3.18,0,0,0,1.49-.34l.24,1.05a4.36,4.36,0,0,1-2,.43c-2.16,0-3.29-1.76-3.29-4.53s1.25-4.75,3-4.75,2.58,1.94,2.58,4c0,.35,0,.59,0,.8Zm2.83-1c0-1.81-.66-2.61-1.34-2.61-1,0-1.42,1.37-1.48,2.61Z"/><path class="cls-1" d="M73.19,129.18c0-.77,0-1.66-.07-2.33H74.4l.07,1.41h0a2.17,2.17,0,0,1,1.89-1.56,1.32,1.32,0,0,1,.3,0v1.46h-.29a2,2,0,0,0-1.74,1.88,5.08,5.08,0,0,0-.06.82v5H73.19Z"/><path class="cls-1" d="M79.35,124.51a.84.84,0,0,1-.88.93.85.85,0,0,1-.82-.93.86.86,0,0,1,.85-.94A.84.84,0,0,1,79.35,124.51ZM77.8,135.87v-9h1.43v9Z"/><path class="cls-1" d="M86.77,131.35c0,3.49-1.62,4.67-3,4.67-1.62,0-2.94-1.47-2.94-4.65s1.48-4.67,3-4.67S86.77,128.21,86.77,131.35Zm-4.49,0c0,1.5.27,3.52,1.56,3.52s1.48-2.11,1.48-3.52-.25-3.51-1.52-3.51S82.28,130,82.28,131.35Z"/><path class="cls-1" d="M88.36,129.18c0-.77,0-1.66-.07-2.33h1.28l.07,1.41h0a2.17,2.17,0,0,1,1.89-1.56,1.32,1.32,0,0,1,.3,0v1.46h-.29a2,2,0,0,0-1.74,1.88,5.08,5.08,0,0,0-.06.82v5H88.36Z"/><path class="cls-1" d="M93.75,131.48c0,2.77,1.1,3.36,2.14,3.36a3.18,3.18,0,0,0,1.49-.34l.24,1.05a4.36,4.36,0,0,1-2,.43c-2.16,0-3.29-1.76-3.29-4.53s1.25-4.75,3-4.75,2.58,1.94,2.58,4c0,.35,0,.59,0,.8Zm2.84-1c0-1.81-.66-2.61-1.34-2.61-1,0-1.42,1.37-1.48,2.61Z"/><path class="cls-1" d="M99.27,134.38a2.84,2.84,0,0,0,1.46.47,1.23,1.23,0,0,0,1.33-1.32c0-.68-.25-1.15-1.15-1.76-1.18-.76-1.83-1.54-1.83-2.57a2.43,2.43,0,0,1,2.5-2.5,3,3,0,0,1,1.61.46l-.39,1.09a2,2,0,0,0-1.2-.41,1.12,1.12,0,0,0-1.17,1.15c0,.6.23.95,1.13,1.56a3.3,3.3,0,0,1,1.86,2.75A2.51,2.51,0,0,1,100.7,136a3.05,3.05,0,0,1-1.78-.52Z"/><path class="cls-1" d="M104.58,134.94a1,1,0,0,1,1-1.09,1,1,0,0,1,1,1.09,1,1,0,0,1-1,1.08A1,1,0,0,1,104.58,134.94Z"/><path class="cls-1" d="M111,134.21a3.73,3.73,0,0,0,1.81.51,2,2,0,0,0,2.1-2.13,3.24,3.24,0,0,0-1.66-2.62c-1-.69-2.37-1.86-2.37-3.49a3.17,3.17,0,0,1,3.33-3.3,3.37,3.37,0,0,1,1.76.46l-.35,1.23a2.7,2.7,0,0,0-1.5-.43,1.74,1.74,0,0,0-1.81,1.8c0,1.25.65,1.75,1.85,2.59a4.33,4.33,0,0,1,2.18,3.62,3.36,3.36,0,0,1-3.52,3.53,4.09,4.09,0,0,1-2.12-.55Z"/><path class="cls-1" d="M119.09,131.48c0,2.77,1.1,3.36,2.14,3.36a3.18,3.18,0,0,0,1.49-.34l.24,1.05a4.36,4.36,0,0,1-2,.43c-2.16,0-3.29-1.76-3.29-4.53s1.25-4.75,3-4.75,2.58,1.94,2.58,4c0,.35,0,.59,0,.8Zm2.84-1c0-1.81-.66-2.61-1.34-2.61-1,0-1.42,1.37-1.48,2.61Z"/><path class="cls-1" d="M131.36,135.87l-.1-1h0a2,2,0,0,1-1.81,1.1,2.29,2.29,0,0,1-2.14-2.58c0-2.25,1.81-3.25,3.85-3.27v-.28c0-1.23-.31-2.06-1.44-2.06a2.67,2.67,0,0,0-1.5.47l-.31-1a4,4,0,0,1,2.11-.59c1.81,0,2.59,1.18,2.59,3.21v3.92a16.48,16.48,0,0,0,.09,2Zm-.22-4.67c-.73,0-2.48.14-2.48,2.11,0,1.17.6,1.59,1.11,1.59s1.16-.47,1.33-1.35a2.32,2.32,0,0,0,0-.52Z"/><path class="cls-1" d="M140,123v10.75c0,.61.05,1.64.08,2.16h-1.23l-.1-1.13h-.06a2.09,2.09,0,0,1-1.89,1.28c-1.53,0-2.63-1.65-2.63-4.63,0-3.2,1.34-4.69,2.72-4.69a1.72,1.72,0,0,1,1.65,1.07h0V123Zm-1.42,7.32a4,4,0,0,0,0-.6c-.08-.94-.64-1.76-1.33-1.76-1.2,0-1.61,1.67-1.61,3.47s.5,3.43,1.53,3.43c.44,0,1.06-.24,1.38-1.54a2.22,2.22,0,0,0,.06-.6Z"/><path class="cls-1" d="M145.59,135.87l-.09-1h-.05a2,2,0,0,1-1.81,1.1,2.29,2.29,0,0,1-2.14-2.58c0-2.25,1.8-3.25,3.85-3.27v-.28c0-1.23-.31-2.06-1.45-2.06a2.66,2.66,0,0,0-1.49.47l-.31-1a4,4,0,0,1,2.11-.59c1.81,0,2.58,1.18,2.58,3.21v3.92a14.67,14.67,0,0,0,.1,2Zm-.21-4.67c-.74,0-2.48.14-2.48,2.11,0,1.17.59,1.59,1.11,1.59s1.16-.47,1.32-1.35a2.35,2.35,0,0,0,0-.52Z"/><path class="cls-1" d="M148.8,129.66c0-1.39-.05-2.18-.08-2.81H150l.07,1.14h0A2.1,2.1,0,0,1,152,126.7c1.57,0,2.61,1.66,2.61,4.63,0,3.36-1.38,4.69-2.79,4.69a1.71,1.71,0,0,1-1.58-1h0v4.48H148.8Zm1.42,2.9a2.9,2.9,0,0,0,.08.74c.27,1.29.92,1.52,1.31,1.52,1.19,0,1.58-1.64,1.58-3.45s-.45-3.45-1.59-3.45c-.66,0-1.24.82-1.32,1.64a3.85,3.85,0,0,0-.06.69Z"/><path class="cls-1" d="M158,124.44v2.41h1.73v1.09H158v5.36c0,1.18.42,1.49.94,1.49a2.46,2.46,0,0,0,.58-.06l.06,1.11a2.94,2.94,0,0,1-1.06.14,1.81,1.81,0,0,1-1.42-.54,3.26,3.26,0,0,1-.54-2.27v-5.23h-1.1v-1.09h1.1v-2Z"/><path class="cls-1" d="M164.59,135.87l-.1-1h-.05a2,2,0,0,1-1.81,1.1,2.29,2.29,0,0,1-2.14-2.58c0-2.25,1.81-3.25,3.85-3.27v-.28c0-1.23-.31-2.06-1.44-2.06a2.67,2.67,0,0,0-1.5.47l-.31-1a4,4,0,0,1,2.11-.59c1.81,0,2.59,1.18,2.59,3.21v3.92a16.48,16.48,0,0,0,.09,2Zm-.22-4.67c-.73,0-2.48.14-2.48,2.11,0,1.17.6,1.59,1.11,1.59s1.16-.47,1.33-1.35a2.32,2.32,0,0,0,0-.52Z"/><path class="cls-1" d="M171,135.87v-7.93H169.9v-1.09H171v-.56a4,4,0,0,1,.8-2.71,2.4,2.4,0,0,1,1.8-.77,2.61,2.61,0,0,1,1.14.22l-.25,1.13a1.81,1.81,0,0,0-.78-.15c-1,0-1.28,1.09-1.28,2.26v.58h1.65v1.09h-1.65v7.93Z"/><path class="cls-1" d="M178.56,135.87l-.09-1h-.06a2,2,0,0,1-1.8,1.1,2.29,2.29,0,0,1-2.14-2.58c0-2.25,1.8-3.25,3.85-3.27v-.28c0-1.23-.31-2.06-1.45-2.06a2.66,2.66,0,0,0-1.49.47l-.31-1a4,4,0,0,1,2.11-.59c1.81,0,2.58,1.18,2.58,3.21v3.92a14.67,14.67,0,0,0,.1,2Zm-.21-4.67c-.74,0-2.48.14-2.48,2.11,0,1.17.59,1.59,1.11,1.59s1.16-.47,1.32-1.35a2.35,2.35,0,0,0,0-.52Zm1.17-8-2,2.52h-.95l1.43-2.52Z"/><path class="cls-1" d="M186.19,135.65a3.21,3.21,0,0,1-1.5.33c-2,0-3.31-1.59-3.31-4.57,0-2.59,1.32-4.7,3.58-4.7a2.8,2.8,0,0,1,1.27.29l-.29,1.17a2.21,2.21,0,0,0-1-.25c-1.45,0-2.09,1.72-2.09,3.49,0,2.11.81,3.38,2.12,3.38a2.25,2.25,0,0,0,1-.25Z"/><path class="cls-1" d="M189,124.51a.84.84,0,0,1-.88.93.85.85,0,0,1-.82-.93.86.86,0,0,1,.85-.94A.84.84,0,0,1,189,124.51Zm-1.55,11.36v-9h1.43v9Z"/><path class="cls-1" d="M190.85,123h1.43v12.91h-1.43Z"/><path class="cls-1" d="M194.41,129.18c0-1.06,0-1.61-.07-2.33h1.26l.07,1.11h0a2.23,2.23,0,0,1,2-1.26,1.88,1.88,0,0,1,1.89,1.38h0a2.86,2.86,0,0,1,.88-1,2.3,2.3,0,0,1,1.25-.34c1.23,0,2.17.88,2.17,3.19v6h-1.42v-5.65c0-1.18-.17-2.32-1.26-2.32-.6,0-1.12.51-1.32,1.35a4.15,4.15,0,0,0-.06.82v5.8h-1.43V130c0-1-.17-2-1.24-2-.59,0-1.17.51-1.34,1.47a4.54,4.54,0,0,0-.06.77v5.73h-1.43Z"/><path class="cls-1" d="M207,131.48c0,2.77,1.1,3.36,2.14,3.36a3.18,3.18,0,0,0,1.49-.34l.24,1.05a4.36,4.36,0,0,1-2,.43c-2.16,0-3.29-1.76-3.29-4.53s1.25-4.75,3-4.75,2.58,1.94,2.58,4c0,.35,0,.59,0,.8Zm2.84-1c0-1.81-.66-2.61-1.34-2.61-1,0-1.42,1.37-1.48,2.61Z"/><path class="cls-1" d="M212.76,129.18c0-1.06-.06-1.61-.08-2.33h1.26l.07,1.08h0a2.28,2.28,0,0,1,2.07-1.23c1.25,0,2.19.92,2.19,3.11v6.06h-1.43v-5.81c0-1.08-.21-2.15-1.26-2.15-.6,0-1.17.5-1.35,1.47a3.78,3.78,0,0,0-.07.8v5.69h-1.43Z"/><path class="cls-1" d="M222,124.44v2.41h1.73v1.09H222v5.36c0,1.18.42,1.49.94,1.49a2.4,2.4,0,0,0,.58-.06l.07,1.11a3,3,0,0,1-1.07.14,1.78,1.78,0,0,1-1.41-.54,3.21,3.21,0,0,1-.54-2.27v-5.23h-1.1v-1.09h1.1v-2Z"/><path class="cls-1" d="M225.82,131.48c0,2.77,1.1,3.36,2.14,3.36a3.18,3.18,0,0,0,1.49-.34l.24,1.05a4.36,4.36,0,0,1-2,.43c-2.17,0-3.29-1.76-3.29-4.53s1.25-4.75,3.05-4.75,2.58,1.94,2.58,4c0,.35,0,.59,0,.8Zm2.84-1c0-1.81-.66-2.61-1.34-2.61-.95,0-1.42,1.37-1.48,2.61Z"/><path class="cls-1" d="M238.08,135.87l-.09-1h-.05a2,2,0,0,1-1.81,1.1,2.29,2.29,0,0,1-2.14-2.58c0-2.25,1.81-3.25,3.85-3.27v-.28c0-1.23-.31-2.06-1.45-2.06a2.66,2.66,0,0,0-1.49.47l-.31-1a4,4,0,0,1,2.11-.59c1.81,0,2.58,1.18,2.58,3.21v3.92a16.39,16.39,0,0,0,.1,2Zm-.21-4.67c-.74,0-2.48.14-2.48,2.11,0,1.17.6,1.59,1.11,1.59s1.16-.47,1.33-1.35a3.12,3.12,0,0,0,0-.52Z"/><path class="cls-1" d="M244.23,123h1.43v12.91h-1.43Z"/><path class="cls-1" d="M251.37,135.87l-.1-1h-.05a2,2,0,0,1-1.81,1.1,2.3,2.3,0,0,1-2.14-2.58c0-2.25,1.81-3.25,3.86-3.27v-.28c0-1.23-.31-2.06-1.45-2.06a2.61,2.61,0,0,0-1.49.47l-.31-1a4,4,0,0,1,2.11-.59c1.81,0,2.58,1.18,2.58,3.21v3.92a14.67,14.67,0,0,0,.1,2Zm-.21-4.67c-.74,0-2.49.14-2.49,2.11,0,1.17.6,1.59,1.11,1.59s1.16-.47,1.33-1.35a2.35,2.35,0,0,0,0-.52Z"/><path class="cls-1" d="M254.34,134.38a2.84,2.84,0,0,0,1.46.47,1.23,1.23,0,0,0,1.34-1.32c0-.68-.26-1.15-1.16-1.76-1.18-.76-1.82-1.54-1.82-2.57a2.43,2.43,0,0,1,2.49-2.5,3,3,0,0,1,1.61.46l-.38,1.09a2,2,0,0,0-1.21-.41,1.11,1.11,0,0,0-1.16,1.15c0,.6.23.95,1.12,1.56a3.32,3.32,0,0,1,1.87,2.75,2.52,2.52,0,0,1-2.72,2.68,3.09,3.09,0,0,1-1.79-.52Z"/><path class="cls-1" d="M267.32,135.65a3.21,3.21,0,0,1-1.5.33c-2,0-3.31-1.59-3.31-4.57,0-2.59,1.32-4.7,3.58-4.7a2.8,2.8,0,0,1,1.27.29l-.29,1.17a2.21,2.21,0,0,0-1-.25c-1.45,0-2.09,1.72-2.09,3.49,0,2.11.81,3.38,2.12,3.38a2.25,2.25,0,0,0,1-.25Z"/><path class="cls-1" d="M274,131.35c0,3.49-1.63,4.67-3,4.67-1.61,0-2.93-1.47-2.93-4.65s1.47-4.67,3-4.67S274,128.21,274,131.35Zm-4.5,0c0,1.5.27,3.52,1.56,3.52s1.49-2.11,1.49-3.52-.25-3.51-1.53-3.51S269.48,130,269.48,131.35Z"/><path class="cls-1" d="M275.57,129.18c0-.77-.05-1.66-.08-2.33h1.28l.08,1.41h0a2.19,2.19,0,0,1,1.89-1.56,1.42,1.42,0,0,1,.31,0v1.46h-.3a2,2,0,0,0-1.74,1.88,6.68,6.68,0,0,0-.05.82v5h-1.43Z"/><path class="cls-1" d="M280.16,129.18c0-.77-.05-1.66-.08-2.33h1.28l.08,1.41h0a2.19,2.19,0,0,1,1.89-1.56,1.42,1.42,0,0,1,.31,0v1.46h-.3a2,2,0,0,0-1.74,1.88,6.68,6.68,0,0,0-.05.82v5h-1.43Z"/><path class="cls-1" d="M285.55,131.48c0,2.77,1.1,3.36,2.13,3.36a3.23,3.23,0,0,0,1.5-.34l.24,1.05a4.44,4.44,0,0,1-2,.43c-2.16,0-3.28-1.76-3.28-4.53s1.24-4.75,3-4.75,2.59,1.94,2.59,4c0,.35,0,.59,0,.8Zm2.84-1c0-1.81-.66-2.61-1.34-2.61-.95,0-1.42,1.37-1.49,2.61Z"/><path class="cls-1" d="M294.88,135.87l-.09-1h-.05a2,2,0,0,1-1.81,1.1,2.29,2.29,0,0,1-2.14-2.58c0-2.25,1.8-3.25,3.85-3.27v-.28c0-1.23-.31-2.06-1.45-2.06a2.66,2.66,0,0,0-1.49.47l-.31-1a4,4,0,0,1,2.11-.59c1.81,0,2.58,1.18,2.58,3.21v3.92a14.67,14.67,0,0,0,.1,2Zm-.21-4.67c-.74,0-2.48.14-2.48,2.11,0,1.17.59,1.59,1.11,1.59s1.16-.47,1.32-1.35a2.35,2.35,0,0,0,.05-.52Z"/><path class="cls-1" d="M297.85,134.38a2.87,2.87,0,0,0,1.47.47,1.23,1.23,0,0,0,1.33-1.32c0-.68-.25-1.15-1.16-1.76-1.18-.76-1.82-1.54-1.82-2.57a2.43,2.43,0,0,1,2.49-2.5,3,3,0,0,1,1.61.46l-.38,1.09a2,2,0,0,0-1.2-.41A1.12,1.12,0,0,0,299,129c0,.6.23.95,1.12,1.56A3.3,3.3,0,0,1,302,133.3a2.52,2.52,0,0,1-2.72,2.68,3.11,3.11,0,0,1-1.79-.52Z"/><path class="cls-1" d="M307.44,131.48c0,2.77,1.1,3.36,2.13,3.36a3.23,3.23,0,0,0,1.5-.34l.23,1.05a4.36,4.36,0,0,1-2,.43c-2.16,0-3.28-1.76-3.28-4.53s1.24-4.75,3-4.75,2.59,1.94,2.59,4c0,.35,0,.59,0,.8Zm2.84-1c0-1.81-.66-2.61-1.34-2.61-.95,0-1.42,1.37-1.49,2.61Z"/><path class="cls-1" d="M313.87,126.85l.84,1.93c.22.53.4,1.05.6,1.58h0c.19-.57.41-1.09.6-1.58l.81-1.93h1.47l-2.15,4.45,2.13,4.57h-1.55l-.87-2c-.2-.47-.37-.94-.59-1.55h0c-.18.55-.39,1-.59,1.55l-.84,2h-1.46l2.14-4.53-2.08-4.49Z"/><path class="cls-1" d="M321,124.51a.85.85,0,0,1-.88.93.84.84,0,0,1-.82-.93.85.85,0,1,1,1.7,0Zm-1.56,11.36v-9h1.43v9Z"/><path class="cls-1" d="M322.6,134.38a2.84,2.84,0,0,0,1.46.47,1.23,1.23,0,0,0,1.33-1.32c0-.68-.25-1.15-1.15-1.76-1.18-.76-1.83-1.54-1.83-2.57a2.43,2.43,0,0,1,2.5-2.5,3,3,0,0,1,1.6.46l-.38,1.09a2,2,0,0,0-1.2-.41,1.12,1.12,0,0,0-1.17,1.15c0,.6.23.95,1.13,1.56a3.3,3.3,0,0,1,1.86,2.75A2.51,2.51,0,0,1,324,136a3.05,3.05,0,0,1-1.78-.52Z"/><path class="cls-1" d="M330,124.44v2.41h1.73v1.09H330v5.36c0,1.18.42,1.49.94,1.49a2.46,2.46,0,0,0,.58-.06l.06,1.11a2.94,2.94,0,0,1-1.06.14,1.82,1.82,0,0,1-1.42-.54,3.27,3.27,0,0,1-.53-2.27v-5.23h-1.11v-1.09h1.11v-2Z"/><path class="cls-1" d="M333.86,131.48c0,2.77,1.1,3.36,2.13,3.36a3.23,3.23,0,0,0,1.5-.34l.24,1.05a4.44,4.44,0,0,1-2,.43c-2.16,0-3.28-1.76-3.28-4.53s1.24-4.75,3-4.75,2.59,1.94,2.59,4c0,.35,0,.59,0,.8Zm2.84-1c0-1.81-.66-2.61-1.34-2.61-.95,0-1.42,1.37-1.49,2.61Z"/><path class="cls-1" d="M339.62,129.18c0-1.06-.05-1.61-.08-2.33h1.26l.07,1.08h0A2.26,2.26,0,0,1,343,126.7c1.25,0,2.18.92,2.18,3.11v6.06h-1.43v-5.81c0-1.08-.21-2.15-1.25-2.15-.61,0-1.18.5-1.36,1.47a3.78,3.78,0,0,0-.07.8v5.69h-1.43Z"/><path class="cls-1" d="M348.82,124.44v2.41h1.74v1.09h-1.74v5.36c0,1.18.43,1.49.94,1.49a2.4,2.4,0,0,0,.58-.06l.07,1.11a3,3,0,0,1-1.07.14,1.78,1.78,0,0,1-1.41-.54,3.26,3.26,0,0,1-.54-2.27v-5.23h-1.1v-1.09h1.1v-2Z"/><path class="cls-1" d="M352.69,131.48c0,2.77,1.09,3.36,2.13,3.36a3.26,3.26,0,0,0,1.5-.34l.23,1.05a4.36,4.36,0,0,1-2,.43c-2.16,0-3.28-1.76-3.28-4.53s1.24-4.75,3-4.75,2.58,1.94,2.58,4c0,.35,0,.59,0,.8Zm2.83-1c0-1.81-.66-2.61-1.34-2.61-.95,0-1.42,1.37-1.48,2.61Z"/><path class="cls-1" d="M358.2,134.38a2.84,2.84,0,0,0,1.46.47,1.23,1.23,0,0,0,1.33-1.32c0-.68-.25-1.15-1.15-1.76-1.18-.76-1.83-1.54-1.83-2.57a2.43,2.43,0,0,1,2.5-2.5,3,3,0,0,1,1.61.46l-.39,1.09a2,2,0,0,0-1.2-.41,1.12,1.12,0,0,0-1.17,1.15c0,.6.24.95,1.13,1.56a3.32,3.32,0,0,1,1.87,2.75,2.52,2.52,0,0,1-2.73,2.68,3.05,3.05,0,0,1-1.78-.52Z"/><path class="cls-1" d="M42.59,149.24l1.19,5.18c.17.71.26,1.3.38,1.87h0c.09-.52.25-1.2.38-1.85l1.07-5.2h1.42L45.6,155a16.51,16.51,0,0,1-2.24,5.83,4.83,4.83,0,0,1-1.62,1.37L41.2,161a4.66,4.66,0,0,0,1.28-1.13,5.43,5.43,0,0,0,.81-1.53,1.24,1.24,0,0,0,.11-.45,1,1,0,0,0,0-.33l-2.28-8.33Z"/><path class="cls-1" d="M52.24,153.88c0,2.77,1.1,3.35,2.13,3.35a3.23,3.23,0,0,0,1.5-.34l.24,1.05a4.44,4.44,0,0,1-2,.44c-2.16,0-3.28-1.77-3.28-4.54,0-2.92,1.24-4.75,3-4.75s2.59,1.94,2.59,4c0,.35,0,.59,0,.81Zm2.84-1.06c0-1.81-.66-2.61-1.34-2.61-1,0-1.42,1.37-1.49,2.61Z"/><path class="cls-1" d="M57.75,156.77a2.84,2.84,0,0,0,1.46.47,1.23,1.23,0,0,0,1.34-1.32c0-.67-.26-1.15-1.16-1.76-1.18-.76-1.82-1.54-1.82-2.57a2.43,2.43,0,0,1,2.49-2.5,3,3,0,0,1,1.61.46l-.38,1.09a2,2,0,0,0-1.21-.41,1.11,1.11,0,0,0-1.16,1.15c0,.61.23,1,1.12,1.56a3.33,3.33,0,0,1,1.87,2.76,2.52,2.52,0,0,1-2.72,2.68,3.09,3.09,0,0,1-1.79-.53Z"/><path class="cls-1" d="M70.73,158a3.08,3.08,0,0,1-1.5.34c-2,0-3.31-1.6-3.31-4.58,0-2.59,1.32-4.7,3.58-4.7a2.8,2.8,0,0,1,1.27.29l-.29,1.17a2.21,2.21,0,0,0-1-.25c-1.45,0-2.09,1.72-2.09,3.49,0,2.11.81,3.38,2.12,3.38a2.13,2.13,0,0,0,1-.25Z"/><path class="cls-1" d="M77.39,153.74c0,3.49-1.63,4.67-3,4.67-1.61,0-2.93-1.47-2.93-4.65s1.47-4.67,3-4.67S77.39,150.6,77.39,153.74Zm-4.5,0c0,1.49.27,3.52,1.56,3.52s1.49-2.11,1.49-3.52-.25-3.51-1.53-3.51S72.89,152.36,72.89,153.75Z"/><path class="cls-1" d="M79,151.57c0-1.06,0-1.61-.07-2.33h1.26l.07,1.11h0a2.23,2.23,0,0,1,2-1.26,1.88,1.88,0,0,1,1.89,1.38h0a3,3,0,0,1,.89-1,2.28,2.28,0,0,1,1.25-.34c1.22,0,2.17.89,2.17,3.19v6H87.12v-5.65c0-1.18-.17-2.32-1.26-2.32-.6,0-1.11.51-1.32,1.35a4.15,4.15,0,0,0-.06.82v5.8H83.06v-5.92c0-1-.18-2.05-1.24-2.05-.6,0-1.18.51-1.34,1.47a3.7,3.7,0,0,0-.06.77v5.73H79Z"/><path class="cls-1" d="M90.55,152.05c0-1.39,0-2.18-.08-2.81h1.28l.07,1.14h0a2.09,2.09,0,0,1,1.91-1.29c1.57,0,2.61,1.66,2.61,4.64,0,3.35-1.38,4.68-2.79,4.68a1.71,1.71,0,0,1-1.58-1h0v4.48H90.55ZM92,155a3.45,3.45,0,0,0,.07.74c.28,1.29.93,1.52,1.32,1.52,1.19,0,1.58-1.64,1.58-3.45s-.45-3.44-1.6-3.44c-.65,0-1.23.81-1.32,1.63a3.87,3.87,0,0,0,0,.69Z"/><path class="cls-1" d="M98,145.35h1.44v12.91H98Z"/><path class="cls-1" d="M102.58,153.88c0,2.77,1.1,3.35,2.14,3.35a3.18,3.18,0,0,0,1.49-.34l.24,1.05a4.4,4.4,0,0,1-2,.44c-2.16,0-3.28-1.77-3.28-4.54,0-2.92,1.25-4.75,3-4.75s2.58,1.94,2.58,4c0,.35,0,.59,0,.81Zm2.84-1.06c0-1.81-.66-2.61-1.34-2.61-1,0-1.42,1.37-1.49,2.61Z"/><path class="cls-1" d="M110.1,146.83v2.41h1.73v1.09H110.1v5.36c0,1.18.42,1.49.94,1.49a2.4,2.4,0,0,0,.58-.06l.07,1.11a3,3,0,0,1-1.07.15,1.79,1.79,0,0,1-1.41-.55,3.19,3.19,0,0,1-.54-2.27v-5.23h-1.1v-1.09h1.1v-2Z"/><path class="cls-1" d="M116.67,158.26l-.1-.95h0a2,2,0,0,1-1.8,1.1,2.29,2.29,0,0,1-2.15-2.58c0-2.25,1.81-3.25,3.86-3.27v-.28c0-1.22-.31-2.06-1.45-2.06a2.64,2.64,0,0,0-1.49.47l-.31-1a4,4,0,0,1,2.11-.59c1.81,0,2.58,1.18,2.58,3.21v3.92a14.67,14.67,0,0,0,.1,2Zm-.21-4.67c-.74,0-2.48.15-2.48,2.11,0,1.17.59,1.59,1.11,1.59s1.16-.47,1.32-1.35a2.35,2.35,0,0,0,0-.52Z"/><path class="cls-1" d="M119.89,151.57c0-1.06,0-1.61-.07-2.33h1.26l.07,1.11h0a2.23,2.23,0,0,1,2-1.26,1.88,1.88,0,0,1,1.89,1.38h0a3,3,0,0,1,.89-1,2.28,2.28,0,0,1,1.25-.34c1.22,0,2.17.89,2.17,3.19v6H128v-5.65c0-1.18-.17-2.32-1.25-2.32-.61,0-1.12.51-1.32,1.35a3.48,3.48,0,0,0-.07.82v5.8H124v-5.92c0-1-.18-2.05-1.24-2.05-.6,0-1.18.51-1.34,1.47a3.7,3.7,0,0,0-.06.77v5.73h-1.43Z"/><path class="cls-1" d="M132.47,153.88c0,2.77,1.1,3.35,2.14,3.35a3.18,3.18,0,0,0,1.49-.34l.24,1.05a4.36,4.36,0,0,1-2,.44c-2.17,0-3.29-1.77-3.29-4.54,0-2.92,1.25-4.75,3.05-4.75s2.58,1.94,2.58,4c0,.35,0,.59,0,.81Zm2.84-1.06c0-1.81-.66-2.61-1.34-2.61-.95,0-1.42,1.37-1.48,2.61Z"/><path class="cls-1" d="M138.23,151.57c0-1.06,0-1.61-.07-2.33h1.25l.08,1.08h0a2.28,2.28,0,0,1,2.07-1.23c1.25,0,2.19.92,2.19,3.11v6.06h-1.44v-5.81c0-1.08-.2-2.15-1.25-2.15-.6,0-1.17.5-1.35,1.47a3.76,3.76,0,0,0-.08.81v5.68h-1.43Z"/><path class="cls-1" d="M147.44,146.83v2.41h1.73v1.09h-1.73v5.36c0,1.18.42,1.49.94,1.49a2.46,2.46,0,0,0,.58-.06l.06,1.11a2.91,2.91,0,0,1-1.06.15,1.83,1.83,0,0,1-1.42-.55,3.25,3.25,0,0,1-.53-2.27v-5.23H144.9v-1.09H146v-2Z"/><path class="cls-1" d="M151.3,153.88c0,2.77,1.1,3.35,2.13,3.35a3.23,3.23,0,0,0,1.5-.34l.24,1.05a4.44,4.44,0,0,1-2,.44c-2.16,0-3.28-1.77-3.28-4.54,0-2.92,1.24-4.75,3-4.75s2.59,1.94,2.59,4c0,.35,0,.59,0,.81Zm2.84-1.06c0-1.81-.66-2.61-1.34-2.61-1,0-1.42,1.37-1.49,2.61Z"/><path class="cls-1" d="M161,153.88c0,2.77,1.1,3.35,2.14,3.35a3.18,3.18,0,0,0,1.49-.34l.24,1.05a4.36,4.36,0,0,1-2,.44c-2.17,0-3.29-1.77-3.29-4.54,0-2.92,1.25-4.75,3-4.75s2.58,1.94,2.58,4c0,.35,0,.59,0,.81Zm2.84-1.06c0-1.81-.66-2.61-1.34-2.61-.95,0-1.42,1.37-1.48,2.61Z"/><path class="cls-1" d="M166.52,156.77a2.8,2.8,0,0,0,1.46.47,1.23,1.23,0,0,0,1.33-1.32c0-.67-.25-1.15-1.15-1.76-1.18-.76-1.83-1.54-1.83-2.57a2.43,2.43,0,0,1,2.5-2.5,3,3,0,0,1,1.6.46l-.38,1.09a2,2,0,0,0-1.2-.41,1.12,1.12,0,0,0-1.17,1.15c0,.61.23,1,1.12,1.56a3.31,3.31,0,0,1,1.87,2.76,2.52,2.52,0,0,1-2.72,2.68,3.06,3.06,0,0,1-1.78-.53Z"/><path class="cls-1" d="M176.56,158a3.08,3.08,0,0,1-1.5.34c-2,0-3.3-1.6-3.3-4.58,0-2.59,1.31-4.7,3.57-4.7a2.74,2.74,0,0,1,1.27.29l-.28,1.17a2.22,2.22,0,0,0-1-.25c-1.44,0-2.09,1.72-2.09,3.49,0,2.11.81,3.38,2.13,3.38a2.16,2.16,0,0,0,1-.25Z"/><path class="cls-1" d="M181.42,158.26l-.1-.95h0a2,2,0,0,1-1.81,1.1c-1.21,0-2.14-1-2.14-2.58,0-2.25,1.81-3.25,3.86-3.27v-.28c0-1.22-.31-2.06-1.45-2.06a2.67,2.67,0,0,0-1.5.47l-.3-1a3.93,3.93,0,0,1,2.11-.59c1.8,0,2.58,1.18,2.58,3.21v3.92a14.67,14.67,0,0,0,.1,2Zm-.22-4.67c-.73,0-2.48.15-2.48,2.11,0,1.17.6,1.59,1.11,1.59s1.16-.47,1.33-1.35a2.32,2.32,0,0,0,0-.52Z"/><path class="cls-1" d="M184.64,145.35h1.43v12.91h-1.43Z"/><path class="cls-1" d="M191.77,158.26l-.09-.95h-.05a2,2,0,0,1-1.81,1.1c-1.21,0-2.14-1-2.14-2.58,0-2.25,1.81-3.25,3.85-3.27v-.28c0-1.22-.31-2.06-1.45-2.06a2.66,2.66,0,0,0-1.49.47l-.31-1a4,4,0,0,1,2.11-.59c1.81,0,2.58,1.18,2.58,3.21v3.92a16.39,16.39,0,0,0,.1,2Zm-.21-4.67c-.74,0-2.48.15-2.48,2.11,0,1.17.6,1.59,1.11,1.59s1.16-.47,1.33-1.35a3.12,3.12,0,0,0,0-.52Z"/><path class="cls-1" d="M194.91,158.26c0-.51.07-1.55.07-2.16V145.35h1.43v5h0a2,2,0,0,1,1.91-1.21c1.41,0,2.47,1.61,2.47,4.57,0,3.26-1.35,4.75-2.74,4.75a1.86,1.86,0,0,1-1.79-1.33h-.06l-.1,1.18Zm1.5-3.18a2,2,0,0,0,.06.56c.33,1.33.94,1.57,1.34,1.57,1.16,0,1.57-1.57,1.57-3.48s-.43-3.41-1.59-3.41c-.67,0-1.22.83-1.34,1.61a4.21,4.21,0,0,0,0,.62Z"/><path class="cls-1" d="M202.44,145.35h1.43v12.91h-1.43Z"/><path class="cls-1" d="M207,153.88c0,2.77,1.1,3.35,2.14,3.35a3.18,3.18,0,0,0,1.49-.34l.24,1.05a4.36,4.36,0,0,1-2,.44c-2.16,0-3.29-1.77-3.29-4.54,0-2.92,1.25-4.75,3.05-4.75s2.58,1.94,2.58,4c0,.35,0,.59,0,.81Zm2.84-1.06c0-1.81-.66-2.61-1.34-2.61-.95,0-1.42,1.37-1.48,2.61Z"/><path class="cls-1" d="M219.28,158.26l-.1-.95h-.05a2,2,0,0,1-1.81,1.1c-1.21,0-2.14-1-2.14-2.58,0-2.25,1.81-3.25,3.85-3.27v-.28c0-1.22-.31-2.06-1.44-2.06a2.67,2.67,0,0,0-1.5.47l-.31-1a4,4,0,0,1,2.12-.59c1.8,0,2.58,1.18,2.58,3.21v3.92a16.48,16.48,0,0,0,.09,2Zm-.22-4.67c-.73,0-2.48.15-2.48,2.11,0,1.17.6,1.59,1.11,1.59s1.16-.47,1.33-1.35a2.32,2.32,0,0,0,0-.52Z"/><path class="cls-1" d="M229.83,158a3.08,3.08,0,0,1-1.5.34c-2,0-3.3-1.6-3.3-4.58,0-2.59,1.31-4.7,3.57-4.7a2.74,2.74,0,0,1,1.27.29l-.28,1.17a2.22,2.22,0,0,0-1-.25c-1.44,0-2.08,1.72-2.08,3.49,0,2.11.8,3.38,2.12,3.38a2.16,2.16,0,0,0,1-.25Z"/><path class="cls-1" d="M236.55,155.8c0,1,0,1.79.07,2.46h-1.25l-.1-.94h0a2.39,2.39,0,0,1-1.94,1.09c-1.58,0-2.2-1.23-2.2-3.47v-5.7h1.43v5.49c0,1.42.23,2.48,1.22,2.48A1.4,1.4,0,0,0,235,156a3.37,3.37,0,0,0,.08-.81v-5.95h1.43Z"/><path class="cls-1" d="M242.14,158.26l-.1-.95h0a2,2,0,0,1-1.81,1.1c-1.21,0-2.14-1-2.14-2.58,0-2.25,1.81-3.25,3.85-3.27v-.28c0-1.22-.31-2.06-1.44-2.06a2.67,2.67,0,0,0-1.5.47l-.31-1a4,4,0,0,1,2.11-.59c1.81,0,2.58,1.18,2.58,3.21v3.92a16.39,16.39,0,0,0,.1,2Zm-.22-4.67c-.73,0-2.48.15-2.48,2.11,0,1.17.6,1.59,1.11,1.59s1.16-.47,1.33-1.35a3.12,3.12,0,0,0,0-.52Z"/><path class="cls-1" d="M245.36,145.35h1.43v12.91h-1.43Z"/><path class="cls-1" d="M252.94,157.33h-.07a1.91,1.91,0,0,1-1.73,1.08c-1.45,0-2.61-1.59-2.61-4.56,0-3.19,1.33-4.76,2.84-4.76a1.79,1.79,0,0,1,1.68,1.19h0l.07-1h1.28c0,.62-.08,1.43-.08,2.81v9.8h-1.42Zm0-4.72a4.17,4.17,0,0,0,0-.61c-.11-.94-.68-1.68-1.32-1.68-1.17,0-1.61,1.57-1.61,3.46s.47,3.43,1.59,3.43c.43,0,1-.26,1.3-1.5a2.8,2.8,0,0,0,.08-.77Z"/><path class="cls-1" d="M261.78,155.8c0,1,.05,1.79.07,2.46H260.6l-.1-.94h0a2.35,2.35,0,0,1-1.93,1.09c-1.58,0-2.2-1.23-2.2-3.47v-5.7h1.43v5.49c0,1.42.23,2.48,1.21,2.48a1.42,1.42,0,0,0,1.3-1.21,4,4,0,0,0,.08-.81v-5.95h1.43Z"/><path class="cls-1" d="M265.35,146.9a.85.85,0,0,1-.88.93.84.84,0,0,1-.82-.93.85.85,0,1,1,1.7,0Zm-1.56,11.36v-9h1.43v9Z"/><path class="cls-1" d="M268.24,153.88c0,2.77,1.09,3.35,2.13,3.35a3.26,3.26,0,0,0,1.5-.34l.23,1.05a4.36,4.36,0,0,1-2,.44c-2.16,0-3.28-1.77-3.28-4.54,0-2.92,1.24-4.75,3-4.75s2.58,1.94,2.58,4c0,.35,0,.59,0,.81Zm2.83-1.06c0-1.81-.65-2.61-1.34-2.61-1,0-1.42,1.37-1.48,2.61Z"/><path class="cls-1" d="M274,151.57c0-.76-.05-1.66-.07-2.33h1.28l.07,1.41h.05a2.17,2.17,0,0,1,1.89-1.56,1.32,1.32,0,0,1,.3,0v1.46h-.29a2,2,0,0,0-1.74,1.88,5.08,5.08,0,0,0-.06.82v5H274Z"/><path class="cls-1" d="M283.31,146.83v2.41H285v1.09h-1.73v5.36c0,1.18.43,1.49.94,1.49a2.4,2.4,0,0,0,.58-.06l.07,1.11a3,3,0,0,1-1.07.15,1.79,1.79,0,0,1-1.41-.55,3.24,3.24,0,0,1-.54-2.27v-5.23h-1.1v-1.09h1.1v-2Z"/><path class="cls-1" d="M289.88,158.26l-.09-.95h-.05a2,2,0,0,1-1.81,1.1c-1.21,0-2.14-1-2.14-2.58,0-2.25,1.81-3.25,3.85-3.27v-.28c0-1.22-.31-2.06-1.45-2.06a2.66,2.66,0,0,0-1.49.47l-.31-1a4,4,0,0,1,2.11-.59c1.81,0,2.58,1.18,2.58,3.21v3.92a14.67,14.67,0,0,0,.1,2Zm-.21-4.67c-.74,0-2.48.15-2.48,2.11,0,1.17.59,1.59,1.11,1.59s1.16-.47,1.33-1.35a3.12,3.12,0,0,0,0-.52Z"/><path class="cls-1" d="M293.1,151.57c0-1.06-.05-1.61-.07-2.33h1.26l.07,1.11h0a2.23,2.23,0,0,1,2-1.26,1.88,1.88,0,0,1,1.89,1.38h0a2.86,2.86,0,0,1,.88-1,2.3,2.3,0,0,1,1.25-.34c1.22,0,2.17.89,2.17,3.19v6h-1.42v-5.65c0-1.18-.17-2.32-1.26-2.32-.61,0-1.12.51-1.32,1.35a4.15,4.15,0,0,0-.06.82v5.8h-1.43v-5.92c0-1-.18-2.05-1.24-2.05-.59,0-1.17.51-1.34,1.47a4.54,4.54,0,0,0-.06.77v5.73H293.1Z"/><path class="cls-1" d="M308.24,158.26l-.09-.95h0a2,2,0,0,1-1.81,1.1c-1.21,0-2.14-1-2.14-2.58,0-2.25,1.81-3.25,3.85-3.27v-.28c0-1.22-.31-2.06-1.45-2.06a2.66,2.66,0,0,0-1.49.47l-.31-1a4,4,0,0,1,2.11-.59c1.81,0,2.58,1.18,2.58,3.21v3.92a14.67,14.67,0,0,0,.1,2Zm-.21-4.67c-.74,0-2.48.15-2.48,2.11,0,1.17.6,1.59,1.11,1.59s1.16-.47,1.33-1.35a3.12,3.12,0,0,0,0-.52Z"/><path class="cls-1" d="M311.46,151.57c0-1.06,0-1.61-.07-2.33h1.25l.08,1.08h0a2.28,2.28,0,0,1,2.07-1.23c1.25,0,2.19.92,2.19,3.11v6.06h-1.44v-5.81c0-1.08-.2-2.15-1.25-2.15-.6,0-1.17.5-1.35,1.47a3.76,3.76,0,0,0-.08.81v5.68h-1.43Zm.78-3.77c0-1,.39-1.76,1.15-1.76a1.74,1.74,0,0,1,.91.32,1.58,1.58,0,0,0,.74.32c.28,0,.44-.14.47-.68h.77c0,1-.37,1.68-1.18,1.68a1.84,1.84,0,0,1-.91-.32,1.66,1.66,0,0,0-.7-.32c-.28,0-.42.26-.46.76Z"/><path class="cls-1" d="M324.56,153.74c0,3.49-1.62,4.67-3,4.67-1.62,0-2.94-1.47-2.94-4.65s1.48-4.67,3-4.67S324.56,150.6,324.56,153.74Zm-4.49,0c0,1.49.27,3.52,1.56,3.52s1.49-2.11,1.49-3.52-.26-3.51-1.53-3.51S320.07,152.36,320.07,153.75Z"/><path class="cls-1" d="M47.28,167.74V178.5c0,.6,0,1.63.07,2.16H46.12L46,179.52H46a2.08,2.08,0,0,1-1.89,1.28c-1.52,0-2.63-1.65-2.63-4.63,0-3.19,1.34-4.69,2.73-4.69a1.75,1.75,0,0,1,1.65,1.07h0v-4.81Zm-1.43,7.32c0-.19,0-.4,0-.6-.08-.94-.64-1.75-1.34-1.75-1.19,0-1.6,1.66-1.6,3.46s.49,3.43,1.52,3.43c.45,0,1.06-.23,1.39-1.54a2.71,2.71,0,0,0,.05-.59Z"/><path class="cls-1" d="M50.3,176.27c0,2.77,1.1,3.35,2.13,3.35a3.23,3.23,0,0,0,1.5-.34l.23,1.05a4.36,4.36,0,0,1-2,.44c-2.16,0-3.28-1.77-3.28-4.53,0-2.93,1.24-4.76,3-4.76s2.59,1.94,2.59,4c0,.35,0,.59,0,.81Zm2.84-1.06c0-1.81-.66-2.61-1.34-2.61-.95,0-1.42,1.37-1.49,2.61Z"/><path class="cls-1" d="M63.39,180.43a3,3,0,0,1-1.49.34c-2,0-3.31-1.6-3.31-4.58,0-2.59,1.32-4.7,3.57-4.7a2.74,2.74,0,0,1,1.27.29L63.15,173a2.35,2.35,0,0,0-1-.25c-1.44,0-2.08,1.72-2.08,3.49,0,2.11.81,3.38,2.12,3.38a2.13,2.13,0,0,0,1-.25Z"/><path class="cls-1" d="M70.05,176.13c0,3.49-1.62,4.67-3,4.67-1.62,0-2.94-1.47-2.94-4.65s1.48-4.67,3-4.67S70.05,173,70.05,176.13Zm-4.49,0c0,1.49.27,3.52,1.56,3.52s1.49-2.11,1.49-3.52-.25-3.51-1.53-3.51S65.56,174.75,65.56,176.14Z"/><path class="cls-1" d="M71.64,174c0-.76,0-1.66-.07-2.33h1.28l.07,1.41h0a2.17,2.17,0,0,1,1.89-1.56l.3,0V173h-.29a2,2,0,0,0-1.74,1.88,5.08,5.08,0,0,0-.06.82v5H71.64Z"/><path class="cls-1" d="M76.23,174c0-.76,0-1.66-.07-2.33h1.28l.07,1.41h0a2.17,2.17,0,0,1,1.89-1.56l.3,0V173h-.29a2,2,0,0,0-1.74,1.88,5.08,5.08,0,0,0-.06.82v5H76.23Z"/><path class="cls-1" d="M81.63,176.27c0,2.77,1.09,3.35,2.13,3.35a3.26,3.26,0,0,0,1.5-.34l.23,1.05a4.36,4.36,0,0,1-2,.44c-2.16,0-3.28-1.77-3.28-4.53,0-2.93,1.24-4.76,3-4.76s2.58,1.94,2.58,4c0,.35,0,.59,0,.81Zm2.83-1.06c0-1.81-.65-2.61-1.34-2.61-1,0-1.42,1.37-1.48,2.61Z"/><path class="cls-1" d="M91,180.66l-.1-1h0A2,2,0,0,1,89,180.8c-1.21,0-2.14-1-2.14-2.58,0-2.25,1.81-3.25,3.86-3.27v-.28c0-1.22-.31-2.06-1.45-2.06a2.67,2.67,0,0,0-1.5.47l-.3-1a3.93,3.93,0,0,1,2.11-.59c1.8,0,2.58,1.18,2.58,3.22v3.91a14.9,14.9,0,0,0,.1,2ZM90.74,176c-.73,0-2.48.15-2.48,2.11,0,1.17.6,1.59,1.11,1.59s1.16-.47,1.33-1.35a2.28,2.28,0,0,0,0-.52Z"/><path class="cls-1" d="M93.5,183a27.54,27.54,0,0,0,1.08-4.34l1.62-.19a23.39,23.39,0,0,1-1.71,4.41Z"/><path class="cls-1" d="M101.47,171.63l1.2,5.19c.17.7.25,1.29.37,1.86h0c.1-.51.25-1.2.39-1.85l1.07-5.2H106l-1.47,5.79a16.71,16.71,0,0,1-2.24,5.83,4.62,4.62,0,0,1-1.63,1.37l-.53-1.22a4.5,4.5,0,0,0,1.28-1.13,5.7,5.7,0,0,0,.81-1.53,1.42,1.42,0,0,0,.1-.45,1.24,1.24,0,0,0,0-.33L100,171.63Z"/><path class="cls-1" d="M113.69,180.66l-.1-1h0a2,2,0,0,1-1.81,1.1c-1.21,0-2.14-1-2.14-2.58,0-2.25,1.81-3.25,3.85-3.27v-.28c0-1.22-.31-2.06-1.44-2.06a2.67,2.67,0,0,0-1.5.47l-.31-1a4,4,0,0,1,2.11-.59c1.81,0,2.59,1.18,2.59,3.22v3.91a16.73,16.73,0,0,0,.09,2Zm-.22-4.68c-.73,0-2.48.15-2.48,2.11,0,1.17.6,1.59,1.11,1.59s1.16-.47,1.33-1.35a2.28,2.28,0,0,0,0-.52Z"/><path class="cls-1" d="M124.24,180.43a3.08,3.08,0,0,1-1.5.34c-2,0-3.3-1.6-3.3-4.58,0-2.59,1.31-4.7,3.57-4.7a2.74,2.74,0,0,1,1.27.29L124,173a2.35,2.35,0,0,0-1-.25c-1.44,0-2.09,1.72-2.09,3.49,0,2.11.81,3.38,2.13,3.38a2.16,2.16,0,0,0,1-.25Z"/><path class="cls-1" d="M131,178.19c0,1,0,1.79.07,2.47h-1.25l-.1-.95h0a2.35,2.35,0,0,1-1.93,1.09c-1.58,0-2.2-1.22-2.2-3.47v-5.7h1.43v5.5c0,1.41.23,2.47,1.21,2.47a1.41,1.41,0,0,0,1.3-1.21,4,4,0,0,0,.08-.81v-6H131Z"/><path class="cls-1" d="M136.54,180.66l-.09-1h0a2,2,0,0,1-1.81,1.1c-1.21,0-2.14-1-2.14-2.58,0-2.25,1.81-3.25,3.85-3.27v-.28c0-1.22-.31-2.06-1.45-2.06a2.66,2.66,0,0,0-1.49.47l-.31-1a4,4,0,0,1,2.11-.59c1.81,0,2.58,1.18,2.58,3.22v3.91a14.9,14.9,0,0,0,.1,2Zm-.21-4.68c-.74,0-2.48.15-2.48,2.11,0,1.17.6,1.59,1.11,1.59s1.16-.47,1.33-1.35a3,3,0,0,0,0-.52Z"/><path class="cls-1" d="M139.76,167.74h1.43v12.92h-1.43Z"/><path class="cls-1" d="M147.34,179.72h-.06a1.91,1.91,0,0,1-1.73,1.08c-1.45,0-2.61-1.59-2.61-4.56,0-3.18,1.33-4.76,2.84-4.76a1.8,1.8,0,0,1,1.68,1.19l0,0,.07-1.06h1.28c0,.62-.08,1.44-.08,2.81v9.8h-1.43Zm0-4.72a3.94,3.94,0,0,0,0-.6c-.1-.94-.67-1.69-1.31-1.69-1.17,0-1.61,1.57-1.61,3.46s.47,3.43,1.58,3.43c.44,0,1-.26,1.31-1.49a3.38,3.38,0,0,0,.07-.78Z"/><path class="cls-1" d="M156.19,178.19c0,1,.05,1.79.07,2.47H155l-.09-.95h0a2.37,2.37,0,0,1-1.94,1.09c-1.57,0-2.19-1.22-2.19-3.47v-5.7h1.43v5.5c0,1.41.23,2.47,1.21,2.47a1.41,1.41,0,0,0,1.3-1.21,4,4,0,0,0,.07-.81v-6h1.44Z"/><path class="cls-1" d="M159.76,169.29a.86.86,0,1,1-1.71,0,.86.86,0,0,1,.85-.94A.85.85,0,0,1,159.76,169.29Zm-1.56,11.37v-9h1.43v9Z"/><path class="cls-1" d="M162.64,176.27c0,2.77,1.1,3.35,2.14,3.35a3.18,3.18,0,0,0,1.49-.34l.24,1.05a4.36,4.36,0,0,1-2,.44c-2.16,0-3.29-1.77-3.29-4.53,0-2.93,1.25-4.76,3.05-4.76s2.58,1.94,2.58,4c0,.35,0,.59,0,.81Zm2.84-1.06c0-1.81-.66-2.61-1.34-2.61-.95,0-1.42,1.37-1.48,2.61Z"/><path class="cls-1" d="M168.39,174c0-.76,0-1.66-.07-2.33h1.28l.07,1.41h.05a2.17,2.17,0,0,1,1.89-1.56l.3,0V173h-.29a2,2,0,0,0-1.75,1.88,6.68,6.68,0,0,0-.05.82v5h-1.43Z"/><path class="cls-1" d="M176.68,171.63l1.15,5.07c.13.61.28,1.41.4,2.19h.05c.1-.74.25-1.51.38-2.19l1.11-5.07h1.42l-2.36,9h-1.27l-2.36-9Z"/><path class="cls-1" d="M183.21,176.27c0,2.77,1.1,3.35,2.13,3.35a3.26,3.26,0,0,0,1.5-.34l.23,1.05a4.36,4.36,0,0,1-2,.44c-2.16,0-3.28-1.77-3.28-4.53,0-2.93,1.24-4.76,3-4.76s2.58,1.94,2.58,4c0,.35,0,.59,0,.81Zm2.83-1.06c0-1.81-.65-2.61-1.34-2.61-.94,0-1.42,1.37-1.48,2.61Z"/><path class="cls-1" d="M189,167.74h1.43v12.92H189Z"/><path class="cls-1" d="M198.07,176.13c0,3.49-1.62,4.67-3,4.67-1.62,0-2.94-1.47-2.94-4.65s1.48-4.67,3-4.67S198.07,173,198.07,176.13Zm-4.49,0c0,1.49.27,3.52,1.56,3.52s1.49-2.11,1.49-3.52-.25-3.51-1.53-3.51S193.58,174.75,193.58,176.14Z"/><path class="cls-1" d="M204.08,180.43a3,3,0,0,1-1.49.34c-2,0-3.31-1.6-3.31-4.58,0-2.59,1.31-4.7,3.57-4.7a2.74,2.74,0,0,1,1.27.29l-.28,1.17a2.35,2.35,0,0,0-1-.25c-1.44,0-2.08,1.72-2.08,3.49,0,2.11.81,3.38,2.12,3.38a2.13,2.13,0,0,0,1-.25Z"/><path class="cls-1" d="M206.87,169.29a.85.85,0,1,1-1.7,0,.85.85,0,1,1,1.7,0Zm-1.56,11.37v-9h1.43v9Z"/><path class="cls-1" d="M214.18,167.74V178.5c0,.6,0,1.63.08,2.16H213l-.1-1.14h-.06A2.09,2.09,0,0,1,211,180.8c-1.53,0-2.63-1.65-2.63-4.63,0-3.19,1.34-4.69,2.72-4.69a1.75,1.75,0,0,1,1.65,1.07h0v-4.81Zm-1.42,7.32a4.09,4.09,0,0,0,0-.6c-.08-.94-.64-1.75-1.33-1.75-1.2,0-1.61,1.66-1.61,3.46s.5,3.43,1.53,3.43c.44,0,1.06-.23,1.38-1.54a2.19,2.19,0,0,0,.06-.59Z"/><path class="cls-1" d="M219.76,180.66l-.09-1h0a2,2,0,0,1-1.81,1.1c-1.21,0-2.14-1-2.14-2.58,0-2.25,1.81-3.25,3.85-3.27v-.28c0-1.22-.31-2.06-1.45-2.06a2.66,2.66,0,0,0-1.49.47l-.31-1a4,4,0,0,1,2.11-.59c1.81,0,2.58,1.18,2.58,3.22v3.91a14.9,14.9,0,0,0,.1,2Zm-.21-4.68c-.74,0-2.48.15-2.48,2.11,0,1.17.59,1.59,1.11,1.59s1.16-.47,1.33-1.35a3,3,0,0,0,0-.52Z"/><path class="cls-1" d="M228.42,167.74V178.5c0,.6.05,1.63.08,2.16h-1.23l-.1-1.14h-.06a2.09,2.09,0,0,1-1.89,1.28c-1.53,0-2.63-1.65-2.63-4.63,0-3.19,1.34-4.69,2.72-4.69a1.75,1.75,0,0,1,1.65,1.07h0v-4.81ZM227,175.06a4.09,4.09,0,0,0,0-.6c-.08-.94-.64-1.75-1.34-1.75-1.19,0-1.6,1.66-1.6,3.46s.49,3.43,1.53,3.43c.44,0,1.05-.23,1.38-1.54a2.68,2.68,0,0,0,.06-.59Z"/><path class="cls-1" d="M238.9,176.13c0,3.49-1.62,4.67-3,4.67-1.62,0-2.94-1.47-2.94-4.65s1.48-4.67,3-4.67S238.9,173,238.9,176.13Zm-4.49,0c0,1.49.26,3.52,1.55,3.52s1.49-2.11,1.49-3.52-.25-3.51-1.52-3.51S234.41,174.75,234.41,176.14Z"/><path class="cls-1" d="M243.42,174c0-.76,0-1.66-.07-2.33h1.28l.07,1.41h.05a2.16,2.16,0,0,1,1.89-1.56l.3,0V173h-.3a2,2,0,0,0-1.74,1.88,6.68,6.68,0,0,0-.05.82v5h-1.43Z"/><path class="cls-1" d="M248.81,176.27c0,2.77,1.1,3.35,2.14,3.35a3.18,3.18,0,0,0,1.49-.34l.24,1.05a4.36,4.36,0,0,1-2,.44c-2.17,0-3.29-1.77-3.29-4.53,0-2.93,1.25-4.76,3-4.76s2.58,1.94,2.58,4c0,.35,0,.59,0,.81Zm2.84-1.06c0-1.81-.66-2.61-1.34-2.61-.95,0-1.42,1.37-1.48,2.61Z"/><path class="cls-1" d="M254.57,174c0-1.06,0-1.61-.07-2.33h1.25l.07,1.08h0a2.3,2.3,0,0,1,2.07-1.23c1.25,0,2.19.92,2.19,3.11v6.07h-1.44v-5.82c0-1.08-.2-2.15-1.25-2.15-.61,0-1.17.5-1.36,1.47a4.61,4.61,0,0,0-.07.81v5.69h-1.43Z"/><path class="cls-1" d="M267.57,167.74V178.5c0,.6.05,1.63.07,2.16h-1.23l-.09-1.14h-.07a2.08,2.08,0,0,1-1.89,1.28c-1.53,0-2.63-1.65-2.63-4.63,0-3.19,1.34-4.69,2.72-4.69a1.74,1.74,0,0,1,1.65,1.07h0v-4.81Zm-1.43,7.32c0-.19,0-.4,0-.6-.08-.94-.64-1.75-1.34-1.75-1.19,0-1.6,1.66-1.6,3.46s.49,3.43,1.52,3.43c.45,0,1.06-.23,1.39-1.54a2.71,2.71,0,0,0,.05-.59Z"/><path class="cls-1" d="M271.13,169.29a.84.84,0,0,1-.88.93.85.85,0,0,1-.82-.93.86.86,0,0,1,.85-.94A.84.84,0,0,1,271.13,169.29Zm-1.56,11.37v-9H271v9Z"/><path class="cls-1" d="M273,174c0-1.06-.05-1.61-.08-2.33h1.27l.07,1.11h0a2.24,2.24,0,0,1,2-1.26,1.87,1.87,0,0,1,1.89,1.38h0a2.88,2.88,0,0,1,.89-1,2.28,2.28,0,0,1,1.25-.34c1.22,0,2.17.89,2.17,3.19v6h-1.43V175c0-1.18-.17-2.32-1.26-2.32-.6,0-1.12.51-1.32,1.36a4,4,0,0,0-.06.81v5.81h-1.43v-5.93c0-1-.17-2-1.24-2-.59,0-1.17.51-1.34,1.47a4.63,4.63,0,0,0-.06.77v5.74H273Z"/><path class="cls-1" d="M286.13,169.29a.84.84,0,0,1-.88.93.85.85,0,0,1-.82-.93.86.86,0,0,1,.85-.94A.84.84,0,0,1,286.13,169.29Zm-1.55,11.37v-9H286v9Z"/><path class="cls-1" d="M289,176.27c0,2.77,1.1,3.35,2.14,3.35a3.18,3.18,0,0,0,1.49-.34l.24,1.05a4.36,4.36,0,0,1-2,.44c-2.16,0-3.29-1.77-3.29-4.53,0-2.93,1.25-4.76,3.05-4.76s2.58,1.94,2.58,4c0,.35,0,.59,0,.81Zm2.84-1.06c0-1.81-.66-2.61-1.34-2.61-.95,0-1.42,1.37-1.48,2.61Z"/><path class="cls-1" d="M294.78,174c0-1.06,0-1.61-.07-2.33H296l.08,1.08h0a2.3,2.3,0,0,1,2.07-1.23c1.25,0,2.19.92,2.19,3.11v6.07H298.9v-5.82c0-1.08-.21-2.15-1.26-2.15-.6,0-1.17.5-1.35,1.47a3.76,3.76,0,0,0-.08.81v5.69h-1.43Z"/><path class="cls-1" d="M304,169.23v2.4h1.73v1.09H304v5.37c0,1.17.42,1.48.94,1.48a2.46,2.46,0,0,0,.58-.06l.06,1.11a2.91,2.91,0,0,1-1.06.15,1.83,1.83,0,0,1-1.42-.55,3.24,3.24,0,0,1-.53-2.26v-5.24h-1.11v-1.09h1.11v-2Z"/><path class="cls-1" d="M312.38,176.13c0,3.49-1.62,4.67-3,4.67-1.62,0-2.94-1.47-2.94-4.65s1.48-4.67,3-4.67S312.38,173,312.38,176.13Zm-4.49,0c0,1.49.26,3.52,1.55,3.52s1.49-2.11,1.49-3.52-.25-3.51-1.52-3.51S307.89,174.75,307.89,176.14Z"/><path class="cls-1" d="M313.27,179.73a1,1,0,0,1,1-1.1,1,1,0,0,1,.94,1.1.94.94,0,0,1-1,1.07A1,1,0,0,1,313.27,179.73Z"/><rect class="cls-2" width="14.22" height="12.96"/><rect class="cls-2" x="15.27" width="14.22" height="12.96"/><rect class="cls-2" x="15.27" y="14.32" width="14.22" height="12.96"/></g></g></svg>