<svg xmlns="http://www.w3.org/2000/svg" viewBox="0 0 360.3 162.23"><defs><style>.cls-1{fill:#1d1d1b;}.cls-2{fill:#868686;}</style></defs><title>Asset 37Beltsense ing2</title><g id="Layer_2" data-name="Layer 2"><g id="Layer_7" data-name="Layer 7"><path class="cls-1" d="M41.24,5.34a18.71,18.71,0,0,1,4.1-.4,7.24,7.24,0,0,1,5,1.46,4.75,4.75,0,0,1,1.48,3.69,4.82,4.82,0,0,1-3.09,4.57v.1a5,5,0,0,1,3.76,5.12A5.84,5.84,0,0,1,50.94,24c-1.21,1.34-3.24,2-6.24,2a22.24,22.24,0,0,1-3.46-.22Zm3.28,8.38h1a3.09,3.09,0,0,0,3-3.26c0-1.71-.8-3-2.85-3a4,4,0,0,0-1.16.13Zm0,9.62a5,5,0,0,0,1,.09A3.26,3.26,0,0,0,49,19.85a3.42,3.42,0,0,0-3.57-3.66h-.95Z" transform="translate(0 -2.7)"/><path class="cls-1" d="M57.7,19.22c0,3.36,1.6,4.27,3.35,4.27a6.86,6.86,0,0,0,2.7-.54l.47,2.38a9.61,9.61,0,0,1-3.77.7c-3.87,0-6-2.81-6-7.46,0-5,2.38-8,5.59-8s4.76,2.85,4.76,6.88a13.77,13.77,0,0,1-.09,1.77Zm4.09-2.35c0-2.41-.76-3.85-1.93-3.85-1.43,0-2.08,2.09-2.14,3.85Z" transform="translate(0 -2.7)"/><path class="cls-1" d="M67.25,4.48h3.3V25.85h-3.3Z" transform="translate(0 -2.7)"/><path class="cls-1" d="M77.67,6.78v4h2.92V13.2H77.67V21c0,1.84.72,2.31,1.54,2.31a5.3,5.3,0,0,0,1-.09l.07,2.56a7.41,7.41,0,0,1-2.16.25,3.6,3.6,0,0,1-2.66-.93c-.73-.74-1.1-1.83-1.1-4.07V13.2h-1.8V10.81h1.8V7.63Z" transform="translate(0 -2.7)"/><path class="cls-1" d="M82.39,22.33a7,7,0,0,0,3.23.83c2,0,3.14-1.19,3.14-2.89s-1-2.63-2.73-3.81c-2.3-1.47-3.92-3.54-3.92-5.79,0-3.26,2.21-5.82,6.1-5.82a6.35,6.35,0,0,1,3.11.75L90.7,8.43a4.68,4.68,0,0,0-2.57-.71,2.52,2.52,0,0,0-2.76,2.52c0,1.62.83,2.35,2.95,3.72,2.65,1.71,3.7,3.73,3.7,6,0,3.72-2.68,6.1-6.41,6.1a7.94,7.94,0,0,1-3.77-.87Z" transform="translate(0 -2.7)"/><path class="cls-1" d="M97.14,19.22c0,3.36,1.59,4.27,3.35,4.27a6.86,6.86,0,0,0,2.7-.54l.46,2.38a9.59,9.59,0,0,1-3.76.7c-3.88,0-6-2.81-6-7.46,0-5,2.39-8,5.6-8s4.75,2.85,4.75,6.88a14.26,14.26,0,0,1-.08,1.77Zm4.09-2.35c0-2.41-.77-3.85-1.94-3.85-1.43,0-2.07,2.09-2.14,3.85Z" transform="translate(0 -2.7)"/><path class="cls-1" d="M106.68,15.05c0-1.7-.07-2.91-.12-4.24h2.86l.16,1.77h.07a4,4,0,0,1,3.55-2c2.51,0,3.84,1.94,3.84,5.43v9.85h-3.3V16.31c0-1.5-.31-3-1.75-3-.82,0-1.55.63-1.84,1.84a5,5,0,0,0-.17,1.37v9.3h-3.3Z" transform="translate(0 -2.7)"/><path class="cls-1" d="M119.83,22.73a5.29,5.29,0,0,0,2.59.79,1.66,1.66,0,0,0,1.9-1.72c0-.94-.44-1.56-1.83-2.44-2.24-1.33-3-2.77-3-4.3a4.38,4.38,0,0,1,4.6-4.49,5.94,5.94,0,0,1,2.88.73l-.67,2.43a3.84,3.84,0,0,0-2.06-.64,1.55,1.55,0,0,0-1.7,1.57c0,.82.37,1.28,1.81,2.2,2,1.2,3.07,2.68,3.07,4.56,0,3-2.14,4.61-5,4.61a5.92,5.92,0,0,1-3.22-.86Z" transform="translate(0 -2.7)"/><path class="cls-1" d="M132.22,19.22c0,3.36,1.59,4.27,3.35,4.27a6.86,6.86,0,0,0,2.7-.54l.46,2.38A9.59,9.59,0,0,1,135,26c-3.88,0-6-2.81-6-7.46,0-5,2.39-8,5.6-8s4.75,2.85,4.75,6.88a14.26,14.26,0,0,1-.08,1.77Zm4.09-2.35c0-2.41-.77-3.85-1.94-3.85-1.43,0-2.07,2.09-2.14,3.85Z" transform="translate(0 -2.7)"/><path class="cls-1" d="M151.91,9.76a5.2,5.2,0,1,1-5.18-5.07A5.08,5.08,0,0,1,151.91,9.76Zm-9.11,0a3.92,3.92,0,0,0,4,4,3.88,3.88,0,0,0,3.86-4,3.91,3.91,0,1,0-7.82,0Zm3.12,2.65h-1.17V7.35a9.59,9.59,0,0,1,1.95-.16,3.19,3.19,0,0,1,1.75.37,1.42,1.42,0,0,1,.5,1.12,1.29,1.29,0,0,1-1,1.17v.06a1.53,1.53,0,0,1,.93,1.24,3.53,3.53,0,0,0,.37,1.26h-1.27a4.31,4.31,0,0,1-.4-1.23c-.09-.56-.4-.8-1.05-.8h-.56Zm0-2.87h.56c.65,0,1.17-.21,1.17-.74S147.34,8,146.6,8a2.94,2.94,0,0,0-.65.06Z" transform="translate(0 -2.7)"/><path class="cls-1" d="M42,36.61a8.73,8.73,0,0,1,2.1-.24,3.94,3.94,0,0,1,2.78.87,3.08,3.08,0,0,1-1.11,4.95v.05a3.08,3.08,0,0,1,2.33,3.21,3.62,3.62,0,0,1-.9,2.49,4.3,4.3,0,0,1-3.33,1.14A10.53,10.53,0,0,1,42,49Zm1.43,5.16h.66a2.17,2.17,0,0,0,2.18-2.22,1.85,1.85,0,0,0-2.07-2.06,2.83,2.83,0,0,0-.77.09Zm0,6.1a3.43,3.43,0,0,0,.73.06,2.26,2.26,0,0,0,2.45-2.5A2.41,2.41,0,0,0,44,42.87h-.63Z" transform="translate(0 -2.7)"/><path class="cls-1" d="M50.76,44.62c0,2.77,1.1,3.35,2.14,3.35a3.18,3.18,0,0,0,1.49-.34l.24,1a4.36,4.36,0,0,1-2,.44c-2.16,0-3.29-1.77-3.29-4.53,0-2.93,1.25-4.76,3-4.76s2.58,1.94,2.58,4c0,.35,0,.59,0,.81Zm2.84-1.06c0-1.81-.66-2.61-1.34-2.61-.95,0-1.42,1.37-1.48,2.61Z" transform="translate(0 -2.7)"/><path class="cls-1" d="M56.53,36.09H58V49H56.53Z" transform="translate(0 -2.7)"/><path class="cls-1" d="M61.85,37.58V40h1.73v1.09H61.85v5.37c0,1.17.42,1.48.94,1.48a3.21,3.21,0,0,0,.58-.05L63.43,49a3.18,3.18,0,0,1-1.06.14A1.83,1.83,0,0,1,61,48.57a3.24,3.24,0,0,1-.53-2.26V41.07H59.31V40h1.11V38Z" transform="translate(0 -2.7)"/><path class="cls-1" d="M64.68,47.34a3.66,3.66,0,0,0,1.8.52,2,2,0,0,0,2.1-2.14,3.23,3.23,0,0,0-1.66-2.62c-1-.69-2.37-1.86-2.37-3.48a3.17,3.17,0,0,1,3.33-3.3,3.37,3.37,0,0,1,1.76.46L69.29,38a2.71,2.71,0,0,0-1.5-.42A1.74,1.74,0,0,0,66,39.38c0,1.24.65,1.74,1.85,2.58A4.34,4.34,0,0,1,70,45.58a3.36,3.36,0,0,1-3.52,3.54,4.23,4.23,0,0,1-2.12-.55Z" transform="translate(0 -2.7)"/><path class="cls-1" d="M72.73,44.62c0,2.77,1.09,3.35,2.13,3.35a3.26,3.26,0,0,0,1.5-.34l.23,1a4.36,4.36,0,0,1-2,.44c-2.16,0-3.28-1.77-3.28-4.53,0-2.93,1.24-4.76,3-4.76s2.58,1.94,2.58,4c0,.35,0,.59,0,.81Zm2.83-1.06c0-1.81-.65-2.61-1.34-2.61-1,0-1.42,1.37-1.48,2.61Z" transform="translate(0 -2.7)"/><path class="cls-1" d="M78.49,42.31c0-1.06,0-1.61-.08-2.33h1.26l.07,1.08h0a2.28,2.28,0,0,1,2.06-1.23c1.25,0,2.19.92,2.19,3.11V49H82.6V43.19c0-1.08-.21-2.15-1.26-2.15-.6,0-1.17.5-1.35,1.47a3.81,3.81,0,0,0-.07.81V49H78.49Z" transform="translate(0 -2.7)"/><path class="cls-1" d="M85.79,47.51a2.87,2.87,0,0,0,1.47.47,1.23,1.23,0,0,0,1.33-1.31c0-.68-.25-1.16-1.16-1.77-1.18-.76-1.82-1.54-1.82-2.57a2.43,2.43,0,0,1,2.5-2.5,3,3,0,0,1,1.6.46l-.38,1.09a2,2,0,0,0-1.2-.41A1.12,1.12,0,0,0,87,42.12c0,.61.23,1,1.12,1.56A3.31,3.31,0,0,1,90,46.44a2.52,2.52,0,0,1-2.72,2.68,3.06,3.06,0,0,1-1.78-.53Z" transform="translate(0 -2.7)"/><path class="cls-1" d="M92.45,44.62c0,2.77,1.1,3.35,2.13,3.35a3.23,3.23,0,0,0,1.5-.34l.24,1a4.44,4.44,0,0,1-2,.44c-2.16,0-3.28-1.77-3.28-4.53,0-2.93,1.24-4.76,3-4.76s2.59,1.94,2.59,4c0,.35,0,.59,0,.81Zm2.84-1.06c0-1.81-.66-2.61-1.34-2.61-1,0-1.42,1.37-1.49,2.61Z" transform="translate(0 -2.7)"/><path class="cls-1" d="M104.26,39.28a3.15,3.15,0,1,1-3.14-3.06A3.08,3.08,0,0,1,104.26,39.28Zm-5.51,0a2.38,2.38,0,0,0,2.39,2.45,2.45,2.45,0,0,0,0-4.89A2.38,2.38,0,0,0,98.75,39.28Zm1.89,1.61h-.71V37.83a5.76,5.76,0,0,1,1.17-.1,1.94,1.94,0,0,1,1.07.23.87.87,0,0,1,.3.67.8.8,0,0,1-.64.71v0a.88.88,0,0,1,.56.74,2.41,2.41,0,0,0,.22.77h-.76a2.59,2.59,0,0,1-.24-.75c-.06-.34-.25-.48-.64-.48h-.33Zm0-1.74H101c.39,0,.71-.13.71-.45s-.21-.46-.65-.46a2.53,2.53,0,0,0-.39,0Z" transform="translate(0 -2.7)"/><path class="cls-1" d="M110.51,37.64a.84.84,0,0,1-.88.93.85.85,0,0,1-.82-.93.86.86,0,0,1,.85-.94A.84.84,0,0,1,110.51,37.64ZM109,49V40h1.43v9Z" transform="translate(0 -2.7)"/><path class="cls-1" d="M112.14,47.51a2.84,2.84,0,0,0,1.46.47,1.23,1.23,0,0,0,1.34-1.31c0-.68-.25-1.16-1.16-1.77-1.18-.76-1.82-1.54-1.82-2.57a2.43,2.43,0,0,1,2.49-2.5,3,3,0,0,1,1.61.46l-.38,1.09a2,2,0,0,0-1.2-.41,1.12,1.12,0,0,0-1.17,1.15c0,.61.23,1,1.12,1.56a3.31,3.31,0,0,1,1.87,2.76,2.52,2.52,0,0,1-2.72,2.68,3.09,3.09,0,0,1-1.79-.53Z" transform="translate(0 -2.7)"/><path class="cls-1" d="M126.13,46.54c0,1,.05,1.79.07,2.46H125l-.1-.94h0a2.37,2.37,0,0,1-1.93,1.09c-1.58,0-2.2-1.22-2.2-3.47V40h1.43v5.5c0,1.41.23,2.47,1.21,2.47a1.41,1.41,0,0,0,1.3-1.21,4,4,0,0,0,.08-.81V40h1.43Z" transform="translate(0 -2.7)"/><path class="cls-1" d="M127.89,47.51a2.84,2.84,0,0,0,1.46.47,1.23,1.23,0,0,0,1.34-1.31c0-.68-.26-1.16-1.16-1.77-1.18-.76-1.83-1.54-1.83-2.57a2.43,2.43,0,0,1,2.5-2.5,3,3,0,0,1,1.61.46l-.38,1.09a2,2,0,0,0-1.21-.41,1.11,1.11,0,0,0-1.16,1.15c0,.61.23,1,1.12,1.56a3.33,3.33,0,0,1,1.87,2.76,2.52,2.52,0,0,1-2.72,2.68,3.09,3.09,0,0,1-1.79-.53Z" transform="translate(0 -2.7)"/><path class="cls-1" d="M134.54,44.62c0,2.77,1.1,3.35,2.14,3.35a3.18,3.18,0,0,0,1.49-.34l.24,1a4.36,4.36,0,0,1-2,.44c-2.16,0-3.29-1.77-3.29-4.53,0-2.93,1.25-4.76,3.05-4.76s2.58,1.94,2.58,4c0,.35,0,.59,0,.81Zm2.84-1.06c0-1.81-.66-2.61-1.34-2.61-.95,0-1.42,1.37-1.48,2.61Z" transform="translate(0 -2.7)"/><path class="cls-1" d="M145.74,36.09V46.84c0,.61,0,1.64.08,2.16h-1.23l-.1-1.13h-.06a2.09,2.09,0,0,1-1.89,1.28c-1.53,0-2.63-1.65-2.63-4.63,0-3.19,1.34-4.69,2.72-4.69a1.75,1.75,0,0,1,1.65,1.07h0V36.09Zm-1.42,7.32a4.09,4.09,0,0,0,0-.6c-.08-.94-.64-1.75-1.33-1.75-1.2,0-1.61,1.66-1.61,3.46s.5,3.43,1.53,3.43c.44,0,1.06-.23,1.38-1.53a2.26,2.26,0,0,0,.06-.6Z" transform="translate(0 -2.7)"/><path class="cls-1" d="M150.43,47.51a2.84,2.84,0,0,0,1.46.47,1.23,1.23,0,0,0,1.34-1.31c0-.68-.26-1.16-1.16-1.77-1.18-.76-1.83-1.54-1.83-2.57a2.43,2.43,0,0,1,2.5-2.5,3,3,0,0,1,1.61.46L154,41.38a2,2,0,0,0-1.21-.41,1.11,1.11,0,0,0-1.16,1.15c0,.61.23,1,1.12,1.56a3.33,3.33,0,0,1,1.87,2.76,2.52,2.52,0,0,1-2.72,2.68,3.09,3.09,0,0,1-1.79-.53Z" transform="translate(0 -2.7)"/><path class="cls-1" d="M157.08,44.62c0,2.77,1.1,3.35,2.14,3.35a3.18,3.18,0,0,0,1.49-.34l.24,1a4.36,4.36,0,0,1-2,.44c-2.16,0-3.29-1.77-3.29-4.53,0-2.93,1.25-4.76,3.05-4.76s2.58,1.94,2.58,4c0,.35,0,.59,0,.81Zm2.84-1.06c0-1.81-.66-2.61-1.34-2.61-1,0-1.42,1.37-1.48,2.61Z" transform="translate(0 -2.7)"/><path class="cls-1" d="M166.86,48.07h-.06a1.91,1.91,0,0,1-1.74,1.08c-1.44,0-2.61-1.59-2.61-4.56,0-3.18,1.34-4.76,2.85-4.76A1.8,1.8,0,0,1,167,41l0,0,.07-1.06h1.27c0,.62-.07,1.44-.07,2.81v9.8h-1.43Zm0-4.72a3.94,3.94,0,0,0,0-.6c-.1-.94-.67-1.69-1.31-1.69-1.17,0-1.61,1.57-1.61,3.46s.47,3.43,1.58,3.43c.44,0,1-.26,1.31-1.49a3.38,3.38,0,0,0,.07-.78Z" transform="translate(0 -2.7)"/><path class="cls-1" d="M175.7,46.54c0,1,.05,1.79.08,2.46h-1.26l-.09-.94h0a2.37,2.37,0,0,1-1.94,1.09c-1.57,0-2.2-1.22-2.2-3.47V40h1.44v5.5c0,1.41.23,2.47,1.21,2.47a1.41,1.41,0,0,0,1.3-1.21,4,4,0,0,0,.07-.81V40h1.43Z" transform="translate(0 -2.7)"/><path class="cls-1" d="M178.73,44.62c0,2.77,1.1,3.35,2.13,3.35a3.2,3.2,0,0,0,1.5-.34l.24,1a4.4,4.4,0,0,1-2,.44c-2.16,0-3.28-1.77-3.28-4.53,0-2.93,1.25-4.76,3-4.76s2.59,1.94,2.59,4c0,.35,0,.59,0,.81Zm2.84-1.06c0-1.81-.66-2.61-1.34-2.61-.95,0-1.42,1.37-1.49,2.61Z" transform="translate(0 -2.7)"/><path class="cls-1" d="M184.49,42.31c0-1.06-.05-1.61-.07-2.33h1.25l.07,1.08h0a2.3,2.3,0,0,1,2.07-1.23c1.25,0,2.18.92,2.18,3.11V49H188.6V43.19c0-1.08-.2-2.15-1.25-2.15-.61,0-1.18.5-1.36,1.47a3.81,3.81,0,0,0-.07.81V49h-1.43Z" transform="translate(0 -2.7)"/><path class="cls-1" d="M193.7,37.58V40h1.73v1.09H193.7v5.37c0,1.17.42,1.48.94,1.48a3.3,3.3,0,0,0,.58-.05l.06,1.11a3.21,3.21,0,0,1-1.07.14,1.8,1.8,0,0,1-1.41-.55,3.23,3.23,0,0,1-.54-2.26V41.07h-1.1V40h1.1V38Z" transform="translate(0 -2.7)"/><path class="cls-1" d="M198.25,37.64a.85.85,0,1,1-1.7,0,.85.85,0,0,1,.84-.94A.84.84,0,0,1,198.25,37.64ZM196.69,49V40h1.43v9Z" transform="translate(0 -2.7)"/><path class="cls-1" d="M203.7,49l-.1-1h0a2,2,0,0,1-1.81,1.1c-1.21,0-2.14-1-2.14-2.58,0-2.25,1.81-3.25,3.86-3.27V43c0-1.22-.31-2.06-1.45-2.06a2.67,2.67,0,0,0-1.5.47l-.3-1a3.93,3.93,0,0,1,2.11-.59c1.8,0,2.58,1.18,2.58,3.22V47a14.67,14.67,0,0,0,.1,2Zm-.22-4.67c-.73,0-2.48.15-2.48,2.11,0,1.17.6,1.59,1.11,1.59s1.16-.47,1.33-1.35a2.28,2.28,0,0,0,0-.52Z" transform="translate(0 -2.7)"/><path class="cls-1" d="M206.92,36.09h1.43V49h-1.43Z" transform="translate(0 -2.7)"/><path class="cls-1" d="M210.48,36.09h1.43V49h-1.43Z" transform="translate(0 -2.7)"/><path class="cls-1" d="M214.75,40l1.2,5.19c.17.7.25,1.29.37,1.86h0c.1-.51.25-1.2.39-1.85l1.07-5.2h1.42l-1.47,5.79a16.71,16.71,0,0,1-2.24,5.83A4.62,4.62,0,0,1,213.9,53l-.53-1.22a4.5,4.5,0,0,0,1.28-1.13,5.7,5.7,0,0,0,.81-1.53,1.5,1.5,0,0,0,.11-.45,1.26,1.26,0,0,0,0-.33L213.24,40Z" transform="translate(0 -2.7)"/><path class="cls-1" d="M224.13,40l.86,4.41c.19,1,.38,2,.49,2.88h.07c.15-.93.37-2,.57-2.84l1-4.45h1.11l1,4.32c.23,1,.43,2,.59,3h.06c.11-1,.29-1.88.5-2.92l.85-4.37h1.44l-2.27,9h-1.18l-1-4.37a22.39,22.39,0,0,1-.5-2.72h0a26.74,26.74,0,0,1-.54,2.77L226.05,49h-1.22l-2.2-9Z" transform="translate(0 -2.7)"/><path class="cls-1" d="M235.51,37.64a.84.84,0,0,1-.88.93.85.85,0,0,1-.82-.93.86.86,0,0,1,.85-.94A.84.84,0,0,1,235.51,37.64ZM234,49V40h1.43v9Z" transform="translate(0 -2.7)"/><path class="cls-1" d="M239.15,37.58V40h1.73v1.09h-1.73v5.37c0,1.17.42,1.48.94,1.48a3.13,3.13,0,0,0,.58-.05l.07,1.11a3.29,3.29,0,0,1-1.07.14,1.79,1.79,0,0,1-1.41-.55,3.18,3.18,0,0,1-.54-2.26V41.07h-1.11V40h1.11V38Z" transform="translate(0 -2.7)"/><path class="cls-1" d="M242.15,36.09h1.43v4.85h0a2.9,2.9,0,0,1,.77-.79,2.18,2.18,0,0,1,1.2-.32c1.14,0,2.11.91,2.11,3.18v6h-1.43V43.18c0-1.11-.25-2.14-1.22-2.14-.67,0-1.18.49-1.4,1.44a3.74,3.74,0,0,0-.06.68V49h-1.43Z" transform="translate(0 -2.7)"/><path class="cls-1" d="M252.46,47.34a3.73,3.73,0,0,0,1.81.52,2,2,0,0,0,2.1-2.14,3.25,3.25,0,0,0-1.66-2.62c-1-.69-2.37-1.86-2.37-3.48a3.17,3.17,0,0,1,3.33-3.3,3.4,3.4,0,0,1,1.76.46L257.08,38a2.71,2.71,0,0,0-1.5-.42,1.74,1.74,0,0,0-1.81,1.8c0,1.24.65,1.74,1.84,2.58a4.33,4.33,0,0,1,2.19,3.62,3.37,3.37,0,0,1-3.52,3.54,4.19,4.19,0,0,1-2.12-.55Z" transform="translate(0 -2.7)"/><path class="cls-1" d="M259.43,36.09h1.43v4.85h0a2.9,2.9,0,0,1,.77-.79,2.18,2.18,0,0,1,1.2-.32c1.14,0,2.11.91,2.11,3.18v6h-1.43V43.18c0-1.11-.25-2.14-1.22-2.14-.67,0-1.18.49-1.4,1.44a3.74,3.74,0,0,0-.06.68V49h-1.43Z" transform="translate(0 -2.7)"/><path class="cls-1" d="M272.52,44.48c0,3.5-1.62,4.67-3,4.67-1.62,0-2.94-1.47-2.94-4.65s1.48-4.67,3-4.67S272.52,41.34,272.52,44.48Zm-4.49,0c0,1.49.27,3.52,1.56,3.52s1.49-2.11,1.49-3.52S270.83,41,269.55,41,268,43.1,268,44.49Z" transform="translate(0 -2.7)"/><path class="cls-1" d="M274.72,40l1.14,5.07c.13.61.29,1.41.4,2.19h.05c.1-.74.25-1.51.38-2.19L277.8,40h1.43l-2.36,9h-1.28l-2.36-9Z" transform="translate(0 -2.7)"/><path class="cls-1" d="M281.24,44.62c0,2.77,1.1,3.35,2.14,3.35a3.18,3.18,0,0,0,1.49-.34l.24,1a4.36,4.36,0,0,1-2,.44c-2.16,0-3.29-1.77-3.29-4.53,0-2.93,1.25-4.76,3.05-4.76s2.58,1.94,2.58,4c0,.35,0,.59,0,.81Zm2.84-1.06c0-1.81-.66-2.61-1.34-2.61-.95,0-1.42,1.37-1.48,2.61Z" transform="translate(0 -2.7)"/><path class="cls-1" d="M287,36.09h1.44V49H287Z" transform="translate(0 -2.7)"/><path class="cls-1" d="M290.4,47.34a3.66,3.66,0,0,0,1.8.52,2,2,0,0,0,2.11-2.14,3.24,3.24,0,0,0-1.67-2.62c-1-.69-2.37-1.86-2.37-3.48a3.17,3.17,0,0,1,3.33-3.3,3.37,3.37,0,0,1,1.76.46L295,38a2.69,2.69,0,0,0-1.49-.42,1.74,1.74,0,0,0-1.82,1.8c0,1.24.65,1.74,1.85,2.58a4.34,4.34,0,0,1,2.18,3.62,3.36,3.36,0,0,1-3.52,3.54,4.23,4.23,0,0,1-2.12-.55Z" transform="translate(0 -2.7)"/><path class="cls-1" d="M298.45,44.62c0,2.77,1.1,3.35,2.13,3.35a3.26,3.26,0,0,0,1.5-.34l.23,1a4.36,4.36,0,0,1-2,.44c-2.16,0-3.28-1.77-3.28-4.53,0-2.93,1.24-4.76,3-4.76s2.58,1.94,2.58,4c0,.35,0,.59,0,.81Zm2.83-1.06c0-1.81-.65-2.61-1.33-2.61-.95,0-1.42,1.37-1.49,2.61Z" transform="translate(0 -2.7)"/><path class="cls-1" d="M304.21,42.31c0-1.06,0-1.61-.08-2.33h1.26l.07,1.08h0a2.28,2.28,0,0,1,2.06-1.23c1.25,0,2.19.92,2.19,3.11V49h-1.43V43.19c0-1.08-.21-2.15-1.26-2.15-.6,0-1.17.5-1.35,1.47a3.81,3.81,0,0,0-.07.81V49h-1.43Z" transform="translate(0 -2.7)"/><path class="cls-1" d="M311.52,47.51A2.84,2.84,0,0,0,313,48a1.23,1.23,0,0,0,1.33-1.31c0-.68-.25-1.16-1.15-1.77-1.18-.76-1.83-1.54-1.83-2.57a2.43,2.43,0,0,1,2.5-2.5,3,3,0,0,1,1.6.46l-.38,1.09a2,2,0,0,0-1.2-.41,1.12,1.12,0,0,0-1.17,1.15c0,.61.23,1,1.13,1.56a3.32,3.32,0,0,1,1.86,2.76A2.52,2.52,0,0,1,313,49.12a3.06,3.06,0,0,1-1.78-.53Z" transform="translate(0 -2.7)"/><path class="cls-1" d="M318.17,44.62c0,2.77,1.1,3.35,2.13,3.35a3.2,3.2,0,0,0,1.5-.34l.24,1a4.44,4.44,0,0,1-2,.44c-2.16,0-3.28-1.77-3.28-4.53,0-2.93,1.24-4.76,3-4.76s2.59,1.94,2.59,4c0,.35,0,.59,0,.81ZM321,43.56c0-1.81-.66-2.61-1.34-2.61-.95,0-1.42,1.37-1.49,2.61Z" transform="translate(0 -2.7)"/><path class="cls-1" d="M330,39.28a3.15,3.15,0,1,1-3.14-3.06A3.07,3.07,0,0,1,330,39.28Zm-5.51,0a2.38,2.38,0,0,0,2.39,2.45,2.45,2.45,0,0,0,0-4.89A2.38,2.38,0,0,0,324.47,39.28Zm1.89,1.61h-.71V37.83a5.76,5.76,0,0,1,1.17-.1,1.94,1.94,0,0,1,1.07.23.84.84,0,0,1,.3.67.79.79,0,0,1-.64.71v0a.88.88,0,0,1,.56.74,2.31,2.31,0,0,0,.23.77h-.77a2.59,2.59,0,0,1-.24-.75c-.06-.34-.24-.48-.64-.48h-.33Zm0-1.74h.33c.4,0,.71-.13.71-.45s-.2-.46-.65-.46a2.53,2.53,0,0,0-.39,0Z" transform="translate(0 -2.7)"/><path class="cls-1" d="M336.44,37.58V40h1.73v1.09h-1.73v5.37c0,1.17.42,1.48.94,1.48a3.21,3.21,0,0,0,.58-.05L338,49a3.18,3.18,0,0,1-1.06.14,1.83,1.83,0,0,1-1.42-.55,3.24,3.24,0,0,1-.53-2.26V41.07H333.9V40H335V38Z" transform="translate(0 -2.7)"/><path class="cls-1" d="M344.83,44.48c0,3.5-1.62,4.67-3,4.67-1.62,0-2.94-1.47-2.94-4.65s1.48-4.67,3-4.67S344.83,41.34,344.83,44.48Zm-4.49,0c0,1.49.26,3.52,1.55,3.52s1.49-2.11,1.49-3.52S343.13,41,341.86,41,340.34,43.1,340.34,44.49Z" transform="translate(0 -2.7)"/><path class="cls-1" d="M47.38,66.87c0,3.5-1.62,4.68-3,4.68-1.62,0-2.94-1.48-2.94-4.65s1.48-4.68,3-4.68S47.38,63.73,47.38,66.87Zm-4.49,0c0,1.49.27,3.52,1.56,3.52s1.49-2.11,1.49-3.52-.25-3.51-1.53-3.51S42.89,65.5,42.89,66.88Z" transform="translate(0 -2.7)"/><path class="cls-1" d="M49,65.18c0-1.38,0-2.18-.07-2.81h1.28l.07,1.14h0a2.08,2.08,0,0,1,1.91-1.29c1.57,0,2.61,1.67,2.61,4.64,0,3.35-1.39,4.69-2.79,4.69a1.72,1.72,0,0,1-1.58-1h0V75H49Zm1.43,2.9a3.48,3.48,0,0,0,.07.75c.28,1.28.92,1.51,1.32,1.51,1.19,0,1.57-1.63,1.57-3.45s-.45-3.44-1.59-3.44c-.65,0-1.23.81-1.32,1.63a3.87,3.87,0,0,0-.05.69Z" transform="translate(0 -2.7)"/><path class="cls-1" d="M58.19,60v2.4h1.73v1.09H58.19v5.37c0,1.17.42,1.48.94,1.48a3.13,3.13,0,0,0,.58,0l.07,1.11a3.25,3.25,0,0,1-1.07.14A1.79,1.79,0,0,1,57.3,71a3.18,3.18,0,0,1-.54-2.26V63.46h-1.1V62.37h1.1v-2Z" transform="translate(0 -2.7)"/><path class="cls-1" d="M62.75,60a.85.85,0,0,1-.89.93.84.84,0,0,1-.81-.93.85.85,0,1,1,1.7,0ZM61.19,71.4v-9h1.43v9Z" transform="translate(0 -2.7)"/><path class="cls-1" d="M64.62,64.7c0-1.06-.05-1.61-.07-2.33h1.26l.07,1.11h0a2.23,2.23,0,0,1,2-1.26,1.88,1.88,0,0,1,1.89,1.38h0a2.75,2.75,0,0,1,.88-1A2.2,2.2,0,0,1,72,62.22c1.22,0,2.17.89,2.17,3.19v6H72.76V65.74c0-1.18-.18-2.32-1.26-2.32-.61,0-1.12.51-1.32,1.36a4,4,0,0,0-.07.81V71.4H68.69V65.47c0-1-.18-2-1.24-2-.59,0-1.17.51-1.34,1.47a4.72,4.72,0,0,0-.06.77V71.4H64.62Z" transform="translate(0 -2.7)"/><path class="cls-1" d="M77.75,60a.85.85,0,0,1-.88.93.84.84,0,0,1-.82-.93.85.85,0,1,1,1.7,0ZM76.19,71.4v-9h1.43v9Z" transform="translate(0 -2.7)"/><path class="cls-1" d="M78.92,70.51l2.85-5.58c.24-.45.53-.93.72-1.33v0H79.27V62.37H84.1v1l-2.83,5.5c-.25.46-.52.94-.73,1.34v0h3.54V71.4H78.92Z" transform="translate(0 -2.7)"/><path class="cls-1" d="M86.25,67c0,2.77,1.1,3.35,2.14,3.35A3.18,3.18,0,0,0,89.88,70l.24,1a4.36,4.36,0,0,1-2,.44c-2.16,0-3.29-1.77-3.29-4.53,0-2.93,1.25-4.76,3-4.76s2.58,1.94,2.58,4c0,.35,0,.59,0,.81ZM89.09,66c0-1.81-.66-2.61-1.34-2.61-1,0-1.42,1.37-1.48,2.61Z" transform="translate(0 -2.7)"/><path class="cls-1" d="M94.94,64.7c0-1.06,0-1.61-.07-2.33h1.26l.07,1.11h0a2.23,2.23,0,0,1,2-1.26,1.88,1.88,0,0,1,1.89,1.38h0a2.75,2.75,0,0,1,.88-1,2.22,2.22,0,0,1,1.25-.35c1.23,0,2.17.89,2.17,3.19v6h-1.42V65.74c0-1.18-.17-2.32-1.26-2.32-.6,0-1.12.51-1.32,1.36a4,4,0,0,0-.06.81V71.4H99V65.47c0-1-.17-2-1.24-2-.59,0-1.17.51-1.34,1.47a4.72,4.72,0,0,0-.06.77V71.4H94.94Z" transform="translate(0 -2.7)"/><path class="cls-1" d="M108.07,60a.85.85,0,1,1-1.7,0,.85.85,0,0,1,.84-.94A.84.84,0,0,1,108.07,60ZM106.51,71.4v-9h1.43v9Z" transform="translate(0 -2.7)"/><path class="cls-1" d="M110,64.7c0-1.06,0-1.61-.08-2.33h1.26l.07,1.09h0a2.27,2.27,0,0,1,2.06-1.24c1.25,0,2.19.92,2.19,3.11V71.4h-1.43V65.58c0-1.08-.21-2.15-1.26-2.15-.6,0-1.17.5-1.35,1.47a3.81,3.81,0,0,0-.07.81V71.4H110Z" transform="translate(0 -2.7)"/><path class="cls-1" d="M118.52,67c0,2.77,1.09,3.35,2.13,3.35a3.26,3.26,0,0,0,1.5-.34l.23,1a4.36,4.36,0,0,1-2,.44c-2.16,0-3.28-1.77-3.28-4.53,0-2.93,1.24-4.76,3-4.76s2.58,1.94,2.58,4c0,.35,0,.59,0,.81ZM121.35,66c0-1.81-.65-2.61-1.34-2.61-1,0-1.42,1.37-1.48,2.61Z" transform="translate(0 -2.7)"/><path class="cls-1" d="M124.26,64.7c0-.76-.05-1.66-.07-2.33h1.28l.07,1.41h0a2.17,2.17,0,0,1,1.89-1.56l.3,0v1.47a1.23,1.23,0,0,0-.29,0,2,2,0,0,0-1.74,1.88,5.13,5.13,0,0,0-.06.83v5h-1.43Z" transform="translate(0 -2.7)"/><path class="cls-1" d="M132.36,71.4l-.09-1h-.05a2,2,0,0,1-1.81,1.11c-1.21,0-2.14-1-2.14-2.59,0-2.25,1.8-3.25,3.85-3.27v-.28c0-1.22-.31-2.06-1.45-2.06a2.66,2.66,0,0,0-1.49.47l-.31-1a4,4,0,0,1,2.11-.59c1.81,0,2.58,1.18,2.58,3.22v3.91a14.9,14.9,0,0,0,.1,2.05Zm-.21-4.68c-.74,0-2.48.15-2.48,2.11,0,1.17.59,1.59,1.11,1.59s1.16-.47,1.33-1.35a3,3,0,0,0,0-.52Z" transform="translate(0 -2.7)"/><path class="cls-1" d="M135.58,58.48H137V71.4h-1.43Z" transform="translate(0 -2.7)"/><path class="cls-1" d="M146.48,71.17a3.08,3.08,0,0,1-1.5.34c-2,0-3.3-1.59-3.3-4.58,0-2.59,1.31-4.7,3.57-4.7a2.74,2.74,0,0,1,1.27.29l-.28,1.17a2.35,2.35,0,0,0-1-.25c-1.44,0-2.09,1.72-2.09,3.5,0,2.1.81,3.37,2.13,3.37a2.16,2.16,0,0,0,1-.25Z" transform="translate(0 -2.7)"/><path class="cls-1" d="M153.14,66.87c0,3.5-1.62,4.68-3,4.68-1.62,0-2.94-1.48-2.94-4.65s1.48-4.68,3-4.68S153.14,63.73,153.14,66.87Zm-4.49,0c0,1.49.27,3.52,1.56,3.52s1.49-2.11,1.49-3.52-.26-3.51-1.53-3.51S148.65,65.5,148.65,66.88Z" transform="translate(0 -2.7)"/><path class="cls-1" d="M154.75,64.7c0-1.06-.05-1.61-.08-2.33h1.26l.07,1.09h0a2.29,2.29,0,0,1,2.07-1.24c1.25,0,2.19.92,2.19,3.11V71.4h-1.43V65.58c0-1.08-.21-2.15-1.26-2.15-.6,0-1.17.5-1.35,1.47a3.81,3.81,0,0,0-.07.81V71.4h-1.43Z" transform="translate(0 -2.7)"/><path class="cls-1" d="M164,60v2.4h1.73v1.09H164v5.37c0,1.17.42,1.48.94,1.48a3.13,3.13,0,0,0,.58,0l.07,1.11a3.29,3.29,0,0,1-1.07.14,1.79,1.79,0,0,1-1.41-.55,3.18,3.18,0,0,1-.54-2.26V63.46h-1.1V62.37h1.1v-2Z" transform="translate(0 -2.7)"/><path class="cls-1" d="M166.93,64.7c0-.76-.05-1.66-.07-2.33h1.28l.07,1.41h0a2.17,2.17,0,0,1,1.89-1.56l.3,0v1.47a1.23,1.23,0,0,0-.29,0,2,2,0,0,0-1.74,1.88,5.21,5.21,0,0,0,0,.83v5h-1.44Z" transform="translate(0 -2.7)"/><path class="cls-1" d="M176.86,66.87c0,3.5-1.63,4.68-3,4.68-1.61,0-2.93-1.48-2.93-4.65s1.47-4.68,3-4.68S176.86,63.73,176.86,66.87Zm-4.5,0c0,1.49.27,3.52,1.56,3.52s1.49-2.11,1.49-3.52-.25-3.51-1.53-3.51S172.36,65.5,172.36,66.88Z" transform="translate(0 -2.7)"/><path class="cls-1" d="M178.46,58.48h1.43V71.4h-1.43Z" transform="translate(0 -2.7)"/><path class="cls-1" d="M181.1,73.74a27.26,27.26,0,0,0,1.08-4.34l1.63-.19a23.34,23.34,0,0,1-1.72,4.41Z" transform="translate(0 -2.7)"/><path class="cls-1" d="M189.07,62.37l.86,4.41c.18,1,.38,2,.49,2.88h.07c.14-.93.36-2,.57-2.84l1-4.45h1.11l1,4.32c.23,1,.43,2,.59,3h.06c.11-1,.29-1.88.49-2.91l.86-4.38h1.43l-2.27,9h-1.17L193.13,67a27.06,27.06,0,0,1-.5-2.72h0c-.15,1.07-.33,1.91-.53,2.77L191,71.4h-1.22l-2.2-9Z" transform="translate(0 -2.7)"/><path class="cls-1" d="M202.3,71.4l-.1-1h0a2,2,0,0,1-1.81,1.11c-1.21,0-2.14-1-2.14-2.59,0-2.25,1.81-3.25,3.85-3.27v-.28c0-1.22-.31-2.06-1.44-2.06a2.67,2.67,0,0,0-1.5.47l-.3-1a3.93,3.93,0,0,1,2.11-.59c1.8,0,2.58,1.18,2.58,3.22v3.91a16.73,16.73,0,0,0,.09,2.05Zm-.22-4.68c-.73,0-2.48.15-2.48,2.11,0,1.17.6,1.59,1.11,1.59s1.16-.47,1.33-1.35a2.28,2.28,0,0,0,0-.52Z" transform="translate(0 -2.7)"/><path class="cls-1" d="M205.27,69.9a2.84,2.84,0,0,0,1.46.47,1.23,1.23,0,0,0,1.34-1.31c0-.68-.26-1.16-1.16-1.77-1.18-.76-1.83-1.54-1.83-2.57a2.43,2.43,0,0,1,2.5-2.5,3.08,3.08,0,0,1,1.61.46l-.39,1.09a2,2,0,0,0-1.2-.41,1.11,1.11,0,0,0-1.16,1.15c0,.61.23.95,1.12,1.56a3.33,3.33,0,0,1,1.87,2.76,2.52,2.52,0,0,1-2.73,2.68,3.15,3.15,0,0,1-1.78-.52Z" transform="translate(0 -2.7)"/><path class="cls-1" d="M212.67,60v2.4h1.73v1.09h-1.73v5.37c0,1.17.42,1.48.94,1.48a3.13,3.13,0,0,0,.58,0l.07,1.11a3.29,3.29,0,0,1-1.07.14,1.79,1.79,0,0,1-1.41-.55,3.18,3.18,0,0,1-.54-2.26V63.46h-1.1V62.37h1.1v-2Z" transform="translate(0 -2.7)"/><path class="cls-1" d="M216.53,67c0,2.77,1.1,3.35,2.14,3.35a3.18,3.18,0,0,0,1.49-.34l.24,1a4.4,4.4,0,0,1-2,.44c-2.16,0-3.28-1.77-3.28-4.53,0-2.93,1.25-4.76,3-4.76s2.58,1.94,2.58,4c0,.35,0,.59,0,.81ZM219.37,66c0-1.81-.66-2.61-1.34-2.61-.95,0-1.42,1.37-1.49,2.61Z" transform="translate(0 -2.7)"/><path class="cls-1" d="M228.79,71.4l-.09-1h0a2,2,0,0,1-1.81,1.11c-1.21,0-2.14-1-2.14-2.59,0-2.25,1.81-3.25,3.85-3.27v-.28c0-1.22-.31-2.06-1.45-2.06a2.66,2.66,0,0,0-1.49.47l-.31-1a4,4,0,0,1,2.11-.59c1.81,0,2.58,1.18,2.58,3.22v3.91a14.9,14.9,0,0,0,.1,2.05Zm-.21-4.68c-.74,0-2.48.15-2.48,2.11,0,1.17.6,1.59,1.11,1.59s1.16-.47,1.33-1.35a3,3,0,0,0,0-.52Z" transform="translate(0 -2.7)"/><path class="cls-1" d="M232,64.7c0-1.06,0-1.61-.07-2.33h1.25l.08,1.09h0a2.29,2.29,0,0,1,2.07-1.24c1.25,0,2.19.92,2.19,3.11V71.4h-1.44V65.58c0-1.08-.2-2.15-1.25-2.15-.6,0-1.17.5-1.35,1.47a3.76,3.76,0,0,0-.08.81V71.4H232Z" transform="translate(0 -2.7)"/><path class="cls-1" d="M245,58.48V69.24c0,.6.05,1.63.07,2.16h-1.23l-.09-1.14h-.07a2.09,2.09,0,0,1-1.89,1.29c-1.52,0-2.63-1.66-2.63-4.63,0-3.2,1.34-4.7,2.73-4.7a1.73,1.73,0,0,1,1.64,1.07h0V58.48Zm-1.43,7.32c0-.19,0-.4,0-.6-.08-.94-.64-1.75-1.34-1.75-1.19,0-1.6,1.66-1.6,3.46s.49,3.43,1.52,3.43c.45,0,1.06-.23,1.39-1.53a2.8,2.8,0,0,0,.05-.6Z" transform="translate(0 -2.7)"/><path class="cls-1" d="M249.93,65.18c0-1.38-.05-2.18-.07-2.81h1.28l.07,1.14h0a2.08,2.08,0,0,1,1.91-1.29c1.57,0,2.61,1.67,2.61,4.64,0,3.35-1.39,4.69-2.8,4.69a1.72,1.72,0,0,1-1.58-1h0V75h-1.43Zm1.43,2.9a2.94,2.94,0,0,0,.07.75c.28,1.28.92,1.51,1.31,1.51,1.2,0,1.58-1.63,1.58-3.45s-.45-3.44-1.59-3.44c-.65,0-1.24.81-1.32,1.63a3.87,3.87,0,0,0,0,.69Z" transform="translate(0 -2.7)"/><path class="cls-1" d="M262.93,66.87c0,3.5-1.62,4.68-3,4.68-1.62,0-2.94-1.48-2.94-4.65s1.48-4.68,3-4.68S262.93,63.73,262.93,66.87Zm-4.49,0c0,1.49.27,3.52,1.56,3.52s1.49-2.11,1.49-3.52-.26-3.51-1.53-3.51S258.44,65.5,258.44,66.88Z" transform="translate(0 -2.7)"/><path class="cls-1" d="M264.29,69.9a2.84,2.84,0,0,0,1.46.47,1.23,1.23,0,0,0,1.33-1.31c0-.68-.25-1.16-1.15-1.77-1.18-.76-1.83-1.54-1.83-2.57a2.43,2.43,0,0,1,2.5-2.5,3.14,3.14,0,0,1,1.61.46l-.39,1.09a2,2,0,0,0-1.2-.41,1.12,1.12,0,0,0-1.17,1.15c0,.61.24.95,1.13,1.56a3.33,3.33,0,0,1,1.87,2.76,2.52,2.52,0,0,1-2.73,2.68,3.13,3.13,0,0,1-1.78-.52Z" transform="translate(0 -2.7)"/><path class="cls-1" d="M271.69,60v2.4h1.73v1.09h-1.73v5.37c0,1.17.42,1.48.94,1.48a3.21,3.21,0,0,0,.58,0l.06,1.11a3.18,3.18,0,0,1-1.06.14,1.83,1.83,0,0,1-1.42-.55,3.24,3.24,0,0,1-.53-2.26V63.46h-1.11V62.37h1.11v-2Z" transform="translate(0 -2.7)"/><path class="cls-1" d="M278.32,66v1.11h-4.08V66Z" transform="translate(0 -2.7)"/><path class="cls-1" d="M279.88,65.18c0-1.38-.05-2.18-.08-2.81h1.29l.07,1.14h0a2.1,2.1,0,0,1,1.91-1.29c1.57,0,2.61,1.67,2.61,4.64,0,3.35-1.38,4.69-2.79,4.69a1.72,1.72,0,0,1-1.58-1h0V75h-1.42Zm1.42,2.9a2.93,2.93,0,0,0,.08.75c.28,1.28.92,1.51,1.31,1.51,1.19,0,1.58-1.63,1.58-3.45s-.45-3.44-1.59-3.44c-.66,0-1.24.81-1.32,1.63a3.85,3.85,0,0,0-.06.69Z" transform="translate(0 -2.7)"/><path class="cls-1" d="M287.32,64.7c0-.76-.05-1.66-.07-2.33h1.28l.07,1.41h0a2.17,2.17,0,0,1,1.89-1.56l.3,0v1.47a1.23,1.23,0,0,0-.29,0,2,2,0,0,0-1.74,1.88,5.13,5.13,0,0,0-.06.83v5h-1.43Z" transform="translate(0 -2.7)"/><path class="cls-1" d="M297.24,66.87c0,3.5-1.62,4.68-3,4.68-1.62,0-2.93-1.48-2.93-4.65s1.47-4.68,3-4.68S297.24,63.73,297.24,66.87Zm-4.49,0c0,1.49.27,3.52,1.56,3.52s1.49-2.11,1.49-3.52-.25-3.51-1.53-3.51S292.75,65.5,292.75,66.88Z" transform="translate(0 -2.7)"/><path class="cls-1" d="M303.25,71.17a3,3,0,0,1-1.49.34c-2,0-3.31-1.59-3.31-4.58,0-2.59,1.32-4.7,3.57-4.7a2.82,2.82,0,0,1,1.28.29L303,63.69a2.35,2.35,0,0,0-1-.25c-1.44,0-2.08,1.72-2.08,3.5,0,2.1.81,3.37,2.12,3.37a2.13,2.13,0,0,0,1-.25Z" transform="translate(0 -2.7)"/><path class="cls-1" d="M305.38,67c0,2.77,1.1,3.35,2.14,3.35A3.18,3.18,0,0,0,309,70l.24,1a4.36,4.36,0,0,1-2,.44c-2.16,0-3.29-1.77-3.29-4.53,0-2.93,1.25-4.76,3-4.76s2.58,1.94,2.58,4c0,.35,0,.59,0,.81ZM308.22,66c0-1.81-.66-2.61-1.34-2.61-.95,0-1.42,1.37-1.48,2.61Z" transform="translate(0 -2.7)"/><path class="cls-1" d="M310.9,69.9a2.84,2.84,0,0,0,1.46.47,1.23,1.23,0,0,0,1.33-1.31c0-.68-.25-1.16-1.15-1.77-1.18-.76-1.83-1.54-1.83-2.57a2.43,2.43,0,0,1,2.5-2.5,3.14,3.14,0,0,1,1.61.46l-.39,1.09a2,2,0,0,0-1.2-.41,1.12,1.12,0,0,0-1.17,1.15c0,.61.23.95,1.13,1.56a3.32,3.32,0,0,1,1.86,2.76,2.52,2.52,0,0,1-2.72,2.68,3.13,3.13,0,0,1-1.78-.52Z" transform="translate(0 -2.7)"/><path class="cls-1" d="M316.29,69.9a2.84,2.84,0,0,0,1.46.47,1.23,1.23,0,0,0,1.34-1.31c0-.68-.26-1.16-1.16-1.77-1.18-.76-1.83-1.54-1.83-2.57a2.43,2.43,0,0,1,2.5-2.5,3.08,3.08,0,0,1,1.61.46l-.39,1.09a2,2,0,0,0-1.2-.41,1.11,1.11,0,0,0-1.16,1.15c0,.61.23.95,1.12,1.56a3.33,3.33,0,0,1,1.87,2.76,2.52,2.52,0,0,1-2.72,2.68,3.16,3.16,0,0,1-1.79-.52Z" transform="translate(0 -2.7)"/><path class="cls-1" d="M323.49,60a.85.85,0,0,1-.88.93.84.84,0,0,1-.82-.93.85.85,0,1,1,1.7,0ZM321.93,71.4v-9h1.43v9Z" transform="translate(0 -2.7)"/><path class="cls-1" d="M325.36,64.7c0-1.06-.05-1.61-.07-2.33h1.25l.08,1.09h0a2.29,2.29,0,0,1,2.07-1.24c1.25,0,2.19.92,2.19,3.11V71.4h-1.43V65.58c0-1.08-.21-2.15-1.26-2.15-.6,0-1.17.5-1.35,1.47a3.76,3.76,0,0,0-.08.81V71.4h-1.43Z" transform="translate(0 -2.7)"/><path class="cls-1" d="M338.45,62.37c0,.62-.08,1.43-.08,2.81v5c0,2.38-.3,3.28-.89,3.94a3.17,3.17,0,0,1-2.41,1,4.44,4.44,0,0,1-2-.44l.34-1.14a3.69,3.69,0,0,0,1.68.4c1.14,0,1.84-.71,1.84-2.76v-.91h0a1.83,1.83,0,0,1-1.73,1.09c-1.6,0-2.65-1.8-2.65-4.45,0-3.33,1.51-4.7,2.84-4.7a1.82,1.82,0,0,1,1.68,1.16h0l.07-1Zm-1.51,3.11a2.31,2.31,0,0,0-.07-.66c-.16-.61-.49-1.37-1.3-1.37-1,0-1.6,1.4-1.6,3.4,0,2.31.73,3.35,1.59,3.35.45,0,1-.2,1.29-1.29a2.92,2.92,0,0,0,.09-.81Z" transform="translate(0 -2.7)"/><path class="cls-1" d="M43.6,82.36v2.4h1.73v1.09H43.6v5.37c0,1.18.42,1.48.94,1.48a3.13,3.13,0,0,0,.58,0l.07,1.11a3.29,3.29,0,0,1-1.07.14,1.79,1.79,0,0,1-1.41-.55,3.18,3.18,0,0,1-.54-2.26V85.85h-1.1V84.76h1.1v-2Z" transform="translate(0 -2.7)"/><path class="cls-1" d="M46.6,80.87H48v4.86h0a2.5,2.5,0,0,1,.76-.79,2.1,2.1,0,0,1,1.2-.33c1.14,0,2.11.91,2.11,3.19v6H50.71V88c0-1.12-.25-2.14-1.22-2.14-.67,0-1.18.48-1.4,1.43a3.74,3.74,0,0,0-.06.68v5.85H46.6Z" transform="translate(0 -2.7)"/><path class="cls-1" d="M54.14,87.09c0-.76,0-1.66-.07-2.33h1.28l.07,1.41h0a2.19,2.19,0,0,1,1.89-1.56l.3,0V86.1a1.28,1.28,0,0,0-.29,0A2,2,0,0,0,55.62,88a6.44,6.44,0,0,0,0,.82v5H54.14Z" transform="translate(0 -2.7)"/><path class="cls-1" d="M64.06,89.26c0,3.5-1.62,4.68-3,4.68-1.62,0-2.94-1.48-2.94-4.65s1.48-4.68,3-4.68S64.06,86.12,64.06,89.26Zm-4.49,0c0,1.49.27,3.52,1.56,3.52s1.49-2.11,1.49-3.52-.25-3.51-1.53-3.51S59.57,87.89,59.57,89.27Z" transform="translate(0 -2.7)"/><path class="cls-1" d="M71.08,91.33c0,1,0,1.78.08,2.46H69.9l-.1-1h0a2.37,2.37,0,0,1-1.94,1.1c-1.57,0-2.2-1.23-2.2-3.48v-5.7h1.43v5.5c0,1.41.23,2.47,1.22,2.47a1.39,1.39,0,0,0,1.29-1.21,3.34,3.34,0,0,0,.08-.8v-6h1.43Z" transform="translate(0 -2.7)"/><path class="cls-1" d="M78.62,84.76c0,.62-.08,1.43-.08,2.82v5c0,2.38-.3,3.28-.89,3.94a3.17,3.17,0,0,1-2.4,1,4.4,4.4,0,0,1-2-.44l.33-1.14a3.69,3.69,0,0,0,1.68.4c1.14,0,1.85-.71,1.85-2.76v-.91h0a1.81,1.81,0,0,1-1.72,1.09c-1.6,0-2.66-1.8-2.66-4.45,0-3.33,1.51-4.7,2.85-4.7a1.85,1.85,0,0,1,1.68,1.17h0l.07-1Zm-1.5,3.11a2.34,2.34,0,0,0-.08-.66c-.15-.61-.48-1.37-1.3-1.37-1,0-1.6,1.4-1.6,3.4,0,2.31.73,3.35,1.6,3.35.44,0,1-.2,1.29-1.29a2.92,2.92,0,0,0,.09-.81Z" transform="translate(0 -2.7)"/><path class="cls-1" d="M80.54,80.87H82v4.86h0a2.61,2.61,0,0,1,.76-.79,2.1,2.1,0,0,1,1.2-.33c1.15,0,2.11.91,2.11,3.19v6H84.65V88c0-1.12-.25-2.14-1.22-2.14-.66,0-1.18.48-1.4,1.43a3.74,3.74,0,0,0-.06.68v5.85H80.54Z" transform="translate(0 -2.7)"/><path class="cls-1" d="M91,87.58c0-1.39-.05-2.19-.07-2.82h1.28l.07,1.15h0a2.07,2.07,0,0,1,1.91-1.3c1.57,0,2.61,1.67,2.61,4.64,0,3.35-1.39,4.69-2.8,4.69a1.7,1.7,0,0,1-1.57-1h0v4.48H91Zm1.43,2.89a2.94,2.94,0,0,0,.07.75c.28,1.28.92,1.51,1.32,1.51,1.19,0,1.57-1.63,1.57-3.45s-.45-3.44-1.59-3.44c-.65,0-1.23.81-1.32,1.64a3.75,3.75,0,0,0,0,.68Z" transform="translate(0 -2.7)"/><path class="cls-1" d="M98.46,87.09c0-.76,0-1.66-.08-2.33h1.28l.08,1.41h0a2.2,2.2,0,0,1,1.89-1.56l.31,0V86.1a1.32,1.32,0,0,0-.3,0A2,2,0,0,0,99.94,88a6.44,6.44,0,0,0,0,.82v5H98.46Z" transform="translate(0 -2.7)"/><path class="cls-1" d="M103.85,89.4c0,2.77,1.1,3.35,2.13,3.35a3.37,3.37,0,0,0,1.5-.33l.24,1a4.44,4.44,0,0,1-2,.44c-2.16,0-3.28-1.77-3.28-4.53,0-2.93,1.24-4.76,3-4.76s2.59,2,2.59,4c0,.35,0,.59,0,.81Zm2.84-1.06c0-1.81-.66-2.61-1.34-2.61-.95,0-1.42,1.37-1.49,2.61Z" transform="translate(0 -2.7)"/><path class="cls-1" d="M114,93.57a3.13,3.13,0,0,1-1.49.33c-2,0-3.31-1.59-3.31-4.58,0-2.59,1.32-4.7,3.57-4.7a2.82,2.82,0,0,1,1.28.29l-.29,1.17a2.35,2.35,0,0,0-1-.25c-1.44,0-2.08,1.72-2.08,3.5,0,2.1.81,3.37,2.12,3.37a2.24,2.24,0,0,0,1-.24Z" transform="translate(0 -2.7)"/><path class="cls-1" d="M116.8,82.42a.83.83,0,0,1-.88.93.84.84,0,0,1-.82-.93.86.86,0,0,1,.85-.94A.84.84,0,0,1,116.8,82.42Zm-1.56,11.37v-9h1.44v9Z" transform="translate(0 -2.7)"/><path class="cls-1" d="M118.43,92.29a2.84,2.84,0,0,0,1.46.47,1.23,1.23,0,0,0,1.34-1.31c0-.68-.26-1.16-1.16-1.77-1.18-.76-1.83-1.53-1.83-2.57a2.43,2.43,0,0,1,2.5-2.5,3,3,0,0,1,1.61.47L122,86.16a2.07,2.07,0,0,0-1.21-.41,1.11,1.11,0,0,0-1.16,1.16c0,.6.23.94,1.12,1.55a3.33,3.33,0,0,1,1.87,2.76,2.52,2.52,0,0,1-2.72,2.68,3.16,3.16,0,0,1-1.79-.52Z" transform="translate(0 -2.7)"/><path class="cls-1" d="M125.08,89.4c0,2.77,1.1,3.35,2.14,3.35a3.32,3.32,0,0,0,1.49-.33l.24,1a4.36,4.36,0,0,1-2,.44c-2.16,0-3.29-1.77-3.29-4.53,0-2.93,1.25-4.76,3-4.76s2.58,2,2.58,4c0,.35,0,.59,0,.81Zm2.84-1.06c0-1.81-.66-2.61-1.34-2.61-1,0-1.42,1.37-1.48,2.61Z" transform="translate(0 -2.7)"/><path class="cls-1" d="M133.77,87.09c0-1.06-.05-1.6-.07-2.33H135l.07,1.11h0a2.23,2.23,0,0,1,2-1.26A1.88,1.88,0,0,1,139,86h0a2.75,2.75,0,0,1,.88-1,2.31,2.31,0,0,1,1.25-.35c1.23,0,2.17.89,2.17,3.19v6h-1.42V88.13c0-1.18-.17-2.32-1.26-2.32-.6,0-1.12.51-1.32,1.36a4.11,4.11,0,0,0-.06.81v5.81h-1.43V87.86c0-1-.17-2-1.24-2-.59,0-1.17.51-1.34,1.47a4.72,4.72,0,0,0-.06.77v5.74h-1.43Z" transform="translate(0 -2.7)"/><path class="cls-1" d="M146.36,89.4c0,2.77,1.09,3.35,2.13,3.35a3.4,3.4,0,0,0,1.5-.33l.23,1a4.36,4.36,0,0,1-2,.44c-2.16,0-3.28-1.77-3.28-4.53,0-2.93,1.24-4.76,3-4.76s2.58,2,2.58,4c0,.35,0,.59,0,.81Zm2.83-1.06c0-1.81-.66-2.61-1.34-2.61-.95,0-1.42,1.37-1.48,2.61Z" transform="translate(0 -2.7)"/><path class="cls-1" d="M155.69,93.79l-.1-1h-.05a2,2,0,0,1-1.81,1.11c-1.21,0-2.14-1-2.14-2.59,0-2.25,1.81-3.25,3.86-3.27V87.8c0-1.22-.31-2.06-1.45-2.06a2.67,2.67,0,0,0-1.5.47l-.3-1a3.93,3.93,0,0,1,2.11-.59c1.8,0,2.58,1.18,2.58,3.22v3.91a14.9,14.9,0,0,0,.1,2.05Zm-.22-4.68c-.73,0-2.48.15-2.48,2.11,0,1.18.6,1.59,1.11,1.59s1.16-.47,1.33-1.35a2.28,2.28,0,0,0,0-.52Z" transform="translate(0 -2.7)"/><path class="cls-1" d="M158.66,92.29a2.84,2.84,0,0,0,1.46.47,1.23,1.23,0,0,0,1.34-1.31c0-.68-.26-1.16-1.16-1.77-1.18-.76-1.83-1.53-1.83-2.57a2.43,2.43,0,0,1,2.5-2.5,3,3,0,0,1,1.61.47l-.38,1.08a2.07,2.07,0,0,0-1.21-.41,1.11,1.11,0,0,0-1.16,1.16c0,.6.23.94,1.12,1.55a3.33,3.33,0,0,1,1.87,2.76,2.52,2.52,0,0,1-2.72,2.68,3.16,3.16,0,0,1-1.79-.52Z" transform="translate(0 -2.7)"/><path class="cls-1" d="M169.71,91.33c0,1,0,1.78.08,2.46h-1.26l-.09-1h0a2.35,2.35,0,0,1-1.94,1.1c-1.57,0-2.2-1.23-2.2-3.48v-5.7h1.44v5.5c0,1.41.23,2.47,1.21,2.47a1.41,1.41,0,0,0,1.3-1.21,4,4,0,0,0,.07-.8v-6h1.43Z" transform="translate(0 -2.7)"/><path class="cls-1" d="M171.71,87.09c0-.76-.05-1.66-.07-2.33h1.28l.07,1.41h0a2.19,2.19,0,0,1,1.89-1.56l.3,0V86.1a1.23,1.23,0,0,0-.29,0A2,2,0,0,0,173.2,88a5,5,0,0,0,0,.82v5h-1.44Z" transform="translate(0 -2.7)"/><path class="cls-1" d="M177.11,89.4c0,2.77,1.09,3.35,2.13,3.35a3.4,3.4,0,0,0,1.5-.33l.23,1a4.36,4.36,0,0,1-2,.44c-2.16,0-3.28-1.77-3.28-4.53,0-2.93,1.24-4.76,3-4.76s2.58,2,2.58,4c0,.35,0,.59,0,.81Zm2.83-1.06c0-1.81-.65-2.61-1.34-2.61-.94,0-1.42,1.37-1.48,2.61Z" transform="translate(0 -2.7)"/><path class="cls-1" d="M182.87,87.09c0-1.06-.05-1.6-.08-2.33h1.26l.07,1.11h0a2.24,2.24,0,0,1,2-1.26A1.88,1.88,0,0,1,188.08,86h0a2.77,2.77,0,0,1,.89-1,2.27,2.27,0,0,1,1.24-.35c1.23,0,2.18.89,2.18,3.19v6H191V88.13c0-1.18-.17-2.32-1.26-2.32-.6,0-1.12.51-1.32,1.36a4.11,4.11,0,0,0-.06.81v5.81h-1.43V87.86c0-1-.17-2-1.24-2-.59,0-1.17.51-1.34,1.47a4.72,4.72,0,0,0-.06.77v5.74h-1.42Z" transform="translate(0 -2.7)"/><path class="cls-1" d="M195.45,89.4c0,2.77,1.1,3.35,2.13,3.35a3.37,3.37,0,0,0,1.5-.33l.24,1a4.44,4.44,0,0,1-2,.44c-2.16,0-3.28-1.77-3.28-4.53,0-2.93,1.24-4.76,3-4.76s2.59,2,2.59,4c0,.35,0,.59,0,.81Zm2.84-1.06c0-1.81-.66-2.61-1.34-2.61-.95,0-1.42,1.37-1.49,2.61Z" transform="translate(0 -2.7)"/><path class="cls-1" d="M201.21,87.09c0-1.06-.05-1.6-.08-2.33h1.26l.07,1.09h0a2.27,2.27,0,0,1,2.07-1.24c1.25,0,2.18.92,2.18,3.11v6.07h-1.43V88c0-1.08-.21-2.14-1.25-2.14-.61,0-1.18.5-1.36,1.46a3.81,3.81,0,0,0-.07.81v5.69h-1.43Z" transform="translate(0 -2.7)"/><path class="cls-1" d="M210.41,82.36v2.4h1.73v1.09h-1.73v5.37c0,1.18.42,1.48.94,1.48a3.13,3.13,0,0,0,.58,0l.07,1.11a3.25,3.25,0,0,1-1.07.14,1.79,1.79,0,0,1-1.41-.55,3.23,3.23,0,0,1-.54-2.26V85.85h-1.1V84.76H209v-2Z" transform="translate(0 -2.7)"/><path class="cls-1" d="M213.16,92.29a2.84,2.84,0,0,0,1.46.47A1.23,1.23,0,0,0,216,91.45c0-.68-.25-1.16-1.16-1.77-1.18-.76-1.82-1.53-1.82-2.57a2.43,2.43,0,0,1,2.49-2.5,3,3,0,0,1,1.61.47l-.38,1.08a2,2,0,0,0-1.2-.41,1.12,1.12,0,0,0-1.17,1.16c0,.6.23.94,1.12,1.55a3.31,3.31,0,0,1,1.87,2.76,2.52,2.52,0,0,1-2.72,2.68,3.16,3.16,0,0,1-1.79-.52Z" transform="translate(0 -2.7)"/><path class="cls-1" d="M225.31,93.79l-.1-1h-.05a2,2,0,0,1-1.81,1.11c-1.21,0-2.14-1-2.14-2.59,0-2.25,1.81-3.25,3.85-3.27V87.8c0-1.22-.31-2.06-1.45-2.06a2.66,2.66,0,0,0-1.49.47l-.31-1a4,4,0,0,1,2.11-.59c1.81,0,2.58,1.18,2.58,3.22v3.91a16.66,16.66,0,0,0,.1,2.05Zm-.22-4.68c-.73,0-2.48.15-2.48,2.11,0,1.18.6,1.59,1.11,1.59s1.16-.47,1.33-1.35a3,3,0,0,0,0-.52Z" transform="translate(0 -2.7)"/><path class="cls-1" d="M228.53,87.09c0-1.06-.06-1.6-.08-2.33h1.26l.07,1.09h0a2.29,2.29,0,0,1,2.07-1.24c1.25,0,2.19.92,2.19,3.11v6.07h-1.43V88c0-1.08-.21-2.14-1.26-2.14-.6,0-1.17.5-1.35,1.46a3.81,3.81,0,0,0-.07.81v5.69h-1.43Z" transform="translate(0 -2.7)"/><path class="cls-1" d="M241.52,80.87V91.63c0,.6,0,1.63.07,2.16h-1.23l-.09-1.14h-.07a2.09,2.09,0,0,1-1.89,1.29c-1.52,0-2.63-1.66-2.63-4.63,0-3.2,1.34-4.7,2.73-4.7a1.75,1.75,0,0,1,1.65,1.07h0V80.87Zm-1.43,7.32c0-.19,0-.4,0-.6-.08-.93-.64-1.75-1.34-1.75-1.19,0-1.6,1.66-1.6,3.46s.49,3.43,1.52,3.43c.45,0,1.06-.23,1.39-1.53a2.8,2.8,0,0,0,.05-.6Z" transform="translate(0 -2.7)"/><path class="cls-1" d="M250,93.79l-.1-1h-.05a2,2,0,0,1-1.81,1.11c-1.21,0-2.14-1-2.14-2.59,0-2.25,1.81-3.25,3.85-3.27V87.8c0-1.22-.3-2.06-1.44-2.06a2.67,2.67,0,0,0-1.5.47l-.3-1a3.93,3.93,0,0,1,2.11-.59c1.8,0,2.58,1.18,2.58,3.22v3.91a16.73,16.73,0,0,0,.09,2.05Zm-.22-4.68c-.73,0-2.48.15-2.48,2.11,0,1.18.6,1.59,1.11,1.59s1.16-.47,1.33-1.35a2.28,2.28,0,0,0,0-.52Z" transform="translate(0 -2.7)"/><path class="cls-1" d="M258.69,80.87V91.63c0,.6.05,1.63.07,2.16h-1.23l-.1-1.14h-.06a2.1,2.1,0,0,1-1.89,1.29c-1.53,0-2.63-1.66-2.63-4.63,0-3.2,1.34-4.7,2.72-4.7a1.74,1.74,0,0,1,1.65,1.07h0V80.87Zm-1.43,7.32c0-.19,0-.4,0-.6-.08-.93-.64-1.75-1.34-1.75-1.19,0-1.6,1.66-1.6,3.46s.49,3.43,1.52,3.43c.44,0,1.06-.23,1.39-1.53a2.8,2.8,0,0,0,.05-.6Z" transform="translate(0 -2.7)"/><path class="cls-1" d="M266.13,80.87V91.63c0,.6.05,1.63.07,2.16H265l-.1-1.14h-.07a2.08,2.08,0,0,1-1.89,1.29c-1.52,0-2.63-1.66-2.63-4.63,0-3.2,1.34-4.7,2.73-4.7a1.75,1.75,0,0,1,1.65,1.07h0V80.87Zm-1.43,7.32c0-.19,0-.4,0-.6-.08-.93-.64-1.75-1.34-1.75-1.19,0-1.6,1.66-1.6,3.46s.49,3.43,1.52,3.43c.45,0,1.06-.23,1.39-1.53a2.8,2.8,0,0,0,.05-.6Z" transform="translate(0 -2.7)"/><path class="cls-1" d="M269.7,82.42a.86.86,0,1,1-1.71,0,.86.86,0,0,1,.85-.94A.85.85,0,0,1,269.7,82.42Zm-1.56,11.37v-9h1.43v9Z" transform="translate(0 -2.7)"/><path class="cls-1" d="M273.33,82.36v2.4h1.73v1.09h-1.73v5.37c0,1.18.42,1.48.94,1.48a3.13,3.13,0,0,0,.58,0l.07,1.11a3.29,3.29,0,0,1-1.07.14,1.79,1.79,0,0,1-1.41-.55,3.18,3.18,0,0,1-.54-2.26V85.85h-1.1V84.76h1.1v-2Z" transform="translate(0 -2.7)"/><path class="cls-1" d="M277.89,82.42a.85.85,0,0,1-.89.93.83.83,0,0,1-.81-.93.85.85,0,1,1,1.7,0Zm-1.56,11.37v-9h1.43v9Z" transform="translate(0 -2.7)"/><path class="cls-1" d="M285.3,89.26c0,3.5-1.62,4.68-3,4.68-1.62,0-2.94-1.48-2.94-4.65s1.48-4.68,3-4.68S285.3,86.12,285.3,89.26Zm-4.49,0c0,1.49.27,3.52,1.56,3.52s1.49-2.11,1.49-3.52-.25-3.51-1.53-3.51S280.81,87.89,280.81,89.27Z" transform="translate(0 -2.7)"/><path class="cls-1" d="M286.91,87.09c0-1.06-.05-1.6-.08-2.33h1.26l.07,1.09h0a2.27,2.27,0,0,1,2.07-1.24c1.25,0,2.18.92,2.18,3.11v6.07H291V88c0-1.08-.21-2.14-1.25-2.14-.61,0-1.18.5-1.36,1.46a3.81,3.81,0,0,0-.07.81v5.69h-1.43Z" transform="translate(0 -2.7)"/><path class="cls-1" d="M298,93.79l-.1-1h-.05a2,2,0,0,1-1.81,1.11c-1.21,0-2.14-1-2.14-2.59,0-2.25,1.81-3.25,3.85-3.27V87.8c0-1.22-.3-2.06-1.44-2.06a2.67,2.67,0,0,0-1.5.47l-.3-1a3.93,3.93,0,0,1,2.11-.59c1.8,0,2.58,1.18,2.58,3.22v3.91a16.73,16.73,0,0,0,.09,2.05Zm-.22-4.68c-.73,0-2.48.15-2.48,2.11,0,1.18.6,1.59,1.11,1.59s1.16-.47,1.33-1.35a2.28,2.28,0,0,0,0-.52Z" transform="translate(0 -2.7)"/><path class="cls-1" d="M301.26,80.87h1.43V93.79h-1.43Z" transform="translate(0 -2.7)"/><path class="cls-1" d="M41.83,110c0-1.39,0-2.18-.08-2.82H43l.08,1.15h0a2.08,2.08,0,0,1,1.91-1.3c1.57,0,2.61,1.67,2.61,4.64,0,3.35-1.38,4.69-2.79,4.69a1.72,1.72,0,0,1-1.58-1h0v4.47H41.83Zm1.42,2.89a3.48,3.48,0,0,0,.07.75c.28,1.29.93,1.51,1.32,1.51,1.19,0,1.58-1.63,1.58-3.45s-.45-3.44-1.59-3.44c-.66,0-1.24.81-1.32,1.64a3.07,3.07,0,0,0-.06.68Z" transform="translate(0 -2.7)"/><path class="cls-1" d="M49.28,103.26h1.44v12.92H49.28Z" transform="translate(0 -2.7)"/><path class="cls-1" d="M56.42,116.18l-.1-1h0a2,2,0,0,1-1.81,1.11,2.3,2.3,0,0,1-2.14-2.58c0-2.26,1.81-3.25,3.86-3.27v-.29c0-1.22-.31-2.06-1.45-2.06a2.64,2.64,0,0,0-1.49.47l-.31-1A4,4,0,0,1,55,107c1.81,0,2.58,1.18,2.58,3.22v3.92a14.67,14.67,0,0,0,.1,2Zm-.21-4.68c-.74,0-2.48.15-2.48,2.11,0,1.18.59,1.59,1.1,1.59s1.16-.47,1.33-1.35a2.26,2.26,0,0,0,.05-.51Z" transform="translate(0 -2.7)"/><path class="cls-1" d="M64,116a3.13,3.13,0,0,1-1.49.33c-2,0-3.31-1.59-3.31-4.58,0-2.59,1.32-4.69,3.58-4.69a2.8,2.8,0,0,1,1.27.29l-.29,1.16a2.36,2.36,0,0,0-1-.24c-1.45,0-2.09,1.72-2.09,3.49,0,2.11.81,3.37,2.12,3.37a2.24,2.24,0,0,0,1-.24Z" transform="translate(0 -2.7)"/><path class="cls-1" d="M66.18,111.79c0,2.77,1.09,3.35,2.13,3.35a3.27,3.27,0,0,0,1.5-.33l.23,1a4.24,4.24,0,0,1-2,.44c-2.16,0-3.28-1.77-3.28-4.53,0-2.93,1.24-4.76,3-4.76s2.58,2,2.58,4c0,.35,0,.6,0,.81ZM69,110.73c0-1.81-.65-2.61-1.34-2.61-1,0-1.42,1.37-1.48,2.61Z" transform="translate(0 -2.7)"/><path class="cls-1" d="M71.94,109.48c0-1.06,0-1.6-.08-2.33h1.26l.07,1.11h0a2.24,2.24,0,0,1,2-1.26,1.88,1.88,0,0,1,1.89,1.38h0a2.77,2.77,0,0,1,.89-1,2.27,2.27,0,0,1,1.24-.35c1.23,0,2.17.89,2.17,3.19v6H80.07v-5.66c0-1.17-.17-2.31-1.26-2.31-.6,0-1.12.5-1.32,1.35a4.11,4.11,0,0,0-.06.81v5.81H76v-5.92c0-1-.17-2.05-1.24-2.05-.59,0-1.17.5-1.34,1.46a4.72,4.72,0,0,0-.06.77v5.74H71.94Z" transform="translate(0 -2.7)"/><path class="cls-1" d="M84.52,111.79c0,2.77,1.1,3.35,2.13,3.35a3.24,3.24,0,0,0,1.5-.33l.23,1a4.24,4.24,0,0,1-2,.44c-2.16,0-3.28-1.77-3.28-4.53,0-2.93,1.24-4.76,3-4.76s2.59,2,2.59,4c0,.35,0,.6,0,.81Zm2.84-1.06c0-1.81-.66-2.61-1.34-2.61-1,0-1.42,1.37-1.49,2.61Z" transform="translate(0 -2.7)"/><path class="cls-1" d="M90.28,109.48c0-1.06,0-1.6-.08-2.33h1.26l.07,1.09h0A2.27,2.27,0,0,1,93.63,107c1.25,0,2.19.92,2.19,3.11v6.07H94.39v-5.82c0-1.08-.21-2.14-1.26-2.14-.6,0-1.17.5-1.35,1.46a3.88,3.88,0,0,0-.07.81v5.69H90.28Z" transform="translate(0 -2.7)"/><path class="cls-1" d="M99.48,104.75v2.4h1.73v1.09H99.48v5.37c0,1.18.43,1.48.94,1.48a2.45,2.45,0,0,0,.58,0l.07,1.11a3.25,3.25,0,0,1-1.07.14,1.78,1.78,0,0,1-1.41-.54,3.28,3.28,0,0,1-.54-2.27v-5.24H97v-1.09h1.1v-2Z" transform="translate(0 -2.7)"/><path class="cls-1" d="M102.23,114.68a2.84,2.84,0,0,0,1.46.48,1.23,1.23,0,0,0,1.34-1.32c0-.68-.25-1.16-1.16-1.76-1.18-.76-1.82-1.54-1.82-2.58a2.43,2.43,0,0,1,2.49-2.5,3,3,0,0,1,1.61.47l-.38,1.08a2,2,0,0,0-1.2-.4,1.11,1.11,0,0,0-1.17,1.15c0,.6.23.94,1.12,1.55a3.32,3.32,0,0,1,1.87,2.76,2.52,2.52,0,0,1-2.72,2.68,3.16,3.16,0,0,1-1.79-.52Z" transform="translate(0 -2.7)"/><path class="cls-1" d="M116.35,111.66c0,3.49-1.63,4.67-3,4.67-1.61,0-2.93-1.48-2.93-4.65s1.47-4.68,3-4.68S116.35,108.51,116.35,111.66Zm-4.5,0c0,1.5.27,3.52,1.56,3.52s1.49-2.11,1.49-3.52-.25-3.51-1.53-3.51S111.85,110.28,111.85,111.66Z" transform="translate(0 -2.7)"/><path class="cls-1" d="M118,109.48c0-1.06,0-1.6-.08-2.33h1.26l.07,1.09h0a2.29,2.29,0,0,1,2.07-1.24c1.25,0,2.18.92,2.18,3.11v6.07h-1.43v-5.82c0-1.08-.21-2.14-1.25-2.14-.61,0-1.18.5-1.36,1.46a3.88,3.88,0,0,0-.07.81v5.69H118Z" transform="translate(0 -2.7)"/><path class="cls-1" d="M130.2,104.75v2.4h1.73v1.09H130.2v5.37c0,1.18.42,1.48.94,1.48a2.51,2.51,0,0,0,.58,0l.06,1.11a3.18,3.18,0,0,1-1.06.14,1.81,1.81,0,0,1-1.42-.54,3.28,3.28,0,0,1-.54-2.27v-5.24h-1.1v-1.09h1.1v-2Z" transform="translate(0 -2.7)"/><path class="cls-1" d="M133.19,103.26h1.43v4.86h0a2.53,2.53,0,0,1,.77-.79,2.07,2.07,0,0,1,1.19-.33c1.15,0,2.12.91,2.12,3.19v6h-1.43v-5.82c0-1.11-.25-2.14-1.23-2.14-.66,0-1.17.48-1.4,1.44a4.63,4.63,0,0,0-.06.67v5.85h-1.43Z" transform="translate(0 -2.7)"/><path class="cls-1" d="M141.76,111.79c0,2.77,1.1,3.35,2.14,3.35a3.19,3.19,0,0,0,1.49-.33l.24,1a4.24,4.24,0,0,1-2,.44c-2.16,0-3.29-1.77-3.29-4.53,0-2.93,1.25-4.76,3.05-4.76s2.58,2,2.58,4c0,.35,0,.6,0,.81Zm2.84-1.06c0-1.81-.66-2.61-1.34-2.61-.95,0-1.42,1.37-1.48,2.61Z" transform="translate(0 -2.7)"/><path class="cls-1" d="M154.86,116a3.21,3.21,0,0,1-1.5.33c-2,0-3.3-1.59-3.3-4.58,0-2.59,1.31-4.69,3.57-4.69a2.77,2.77,0,0,1,1.27.29l-.28,1.16a2.42,2.42,0,0,0-1-.24c-1.44,0-2.09,1.72-2.09,3.49,0,2.11.81,3.37,2.12,3.37a2.24,2.24,0,0,0,1-.24Z" transform="translate(0 -2.7)"/><path class="cls-1" d="M161.52,111.66c0,3.49-1.62,4.67-3,4.67-1.62,0-2.94-1.48-2.94-4.65s1.48-4.68,3-4.68S161.52,108.51,161.52,111.66Zm-4.49,0c0,1.5.26,3.52,1.55,3.52s1.49-2.11,1.49-3.52-.25-3.51-1.52-3.51S157,110.28,157,111.66Z" transform="translate(0 -2.7)"/><path class="cls-1" d="M163.12,109.48c0-1.06-.05-1.6-.07-2.33h1.25l.07,1.09h0a2.29,2.29,0,0,1,2.07-1.24c1.25,0,2.19.92,2.19,3.11v6.07h-1.44v-5.82c0-1.08-.2-2.14-1.25-2.14-.61,0-1.17.5-1.36,1.46a4.7,4.7,0,0,0-.07.81v5.69h-1.43Z" transform="translate(0 -2.7)"/><path class="cls-1" d="M171.23,107.15l1.15,5.07c.13.61.28,1.42.4,2.2h.05c.1-.75.25-1.51.38-2.2l1.11-5.07h1.42l-2.36,9h-1.27l-2.36-9Z" transform="translate(0 -2.7)"/><path class="cls-1" d="M177.76,111.79c0,2.77,1.1,3.35,2.13,3.35a3.27,3.27,0,0,0,1.5-.33l.23,1a4.24,4.24,0,0,1-2,.44c-2.16,0-3.28-1.77-3.28-4.53,0-2.93,1.24-4.76,3-4.76s2.58,2,2.58,4c0,.35,0,.6,0,.81Zm2.83-1.06c0-1.81-.65-2.61-1.34-2.61-.94,0-1.42,1.37-1.48,2.61Z" transform="translate(0 -2.7)"/><path class="cls-1" d="M184.21,107.15l1.19,5.19c.17.7.26,1.29.38,1.86h0c.09-.51.25-1.19.38-1.85l1.07-5.2h1.42l-1.47,5.8c-.56,2.27-1.18,4.46-2.24,5.82a4.61,4.61,0,0,1-1.62,1.37l-.54-1.22a4.25,4.25,0,0,0,1.28-1.13,5.38,5.38,0,0,0,.81-1.52,1.24,1.24,0,0,0,.11-.45,1,1,0,0,0-.05-.34l-2.27-8.33Z" transform="translate(0 -2.7)"/><path class="cls-1" d="M195.22,111.66c0,3.49-1.62,4.67-3,4.67-1.61,0-2.93-1.48-2.93-4.65s1.47-4.68,3-4.68S195.22,108.51,195.22,111.66Zm-4.5,0c0,1.5.27,3.52,1.56,3.52s1.49-2.11,1.49-3.52-.25-3.51-1.52-3.51S190.72,110.28,190.72,111.66Z" transform="translate(0 -2.7)"/><path class="cls-1" d="M196.81,109.48c0-.76-.05-1.65-.08-2.33H198l.07,1.41h0A2.18,2.18,0,0,1,200,107l.3,0v1.47H200a2,2,0,0,0-1.74,1.88,6.56,6.56,0,0,0,0,.82v5h-1.43Z" transform="translate(0 -2.7)"/><path class="cls-1" d="M204.29,116.18c0-.52.07-1.56.07-2.16V103.26h1.43v4.95h0a2,2,0,0,1,1.9-1.21c1.42,0,2.48,1.61,2.48,4.57,0,3.26-1.35,4.76-2.74,4.76a1.89,1.89,0,0,1-1.8-1.33h-.06l-.1,1.18Zm1.5-3.19a2.34,2.34,0,0,0,.06.56c.33,1.33,1,1.57,1.35,1.57,1.15,0,1.56-1.56,1.56-3.48s-.43-3.41-1.59-3.41c-.66,0-1.22.83-1.33,1.61a4.32,4.32,0,0,0-.05.62Z" transform="translate(0 -2.7)"/><path class="cls-1" d="M212.84,111.79c0,2.77,1.09,3.35,2.13,3.35a3.27,3.27,0,0,0,1.5-.33l.23,1a4.24,4.24,0,0,1-2,.44c-2.16,0-3.28-1.77-3.28-4.53,0-2.93,1.24-4.76,3-4.76s2.58,2,2.58,4c0,.35,0,.6,0,.81Zm2.83-1.06c0-1.81-.65-2.61-1.34-2.61-1,0-1.42,1.37-1.48,2.61Z" transform="translate(0 -2.7)"/><path class="cls-1" d="M218.6,103.26H220v12.92H218.6Z" transform="translate(0 -2.7)"/><path class="cls-1" d="M223.92,104.75v2.4h1.73v1.09h-1.73v5.37c0,1.18.42,1.48.94,1.48a2.45,2.45,0,0,0,.58,0l.07,1.11a3.29,3.29,0,0,1-1.07.14,1.78,1.78,0,0,1-1.41-.54,3.23,3.23,0,0,1-.54-2.27v-5.24h-1.1v-1.09h1.1v-2Z" transform="translate(0 -2.7)"/><path class="cls-1" d="M226.67,114.68a2.84,2.84,0,0,0,1.46.48,1.23,1.23,0,0,0,1.34-1.32c0-.68-.26-1.16-1.16-1.76-1.18-.76-1.83-1.54-1.83-2.58A2.44,2.44,0,0,1,229,107a3,3,0,0,1,1.61.47l-.39,1.08a2,2,0,0,0-1.2-.4,1.1,1.1,0,0,0-1.16,1.15c0,.6.23.94,1.12,1.55a3.34,3.34,0,0,1,1.87,2.76,2.52,2.52,0,0,1-2.72,2.68,3.16,3.16,0,0,1-1.79-.52Z" transform="translate(0 -2.7)"/><path class="cls-1" d="M232,115.25a1,1,0,0,1,1-1.1,1,1,0,0,1,.95,1.1,1,1,0,0,1-.95,1.08A1,1,0,0,1,232,115.25Z" transform="translate(0 -2.7)"/><path class="cls-1" d="M240.17,103.6v12.58h-1.43V103.6Z" transform="translate(0 -2.7)"/><path class="cls-1" d="M244.09,104.75v2.4h1.73v1.09h-1.73v5.37c0,1.18.42,1.48.94,1.48a2.45,2.45,0,0,0,.58,0l.07,1.11a3.29,3.29,0,0,1-1.07.14,1.78,1.78,0,0,1-1.41-.54,3.23,3.23,0,0,1-.54-2.27v-5.24h-1.1v-1.09h1.1v-2Z" transform="translate(0 -2.7)"/><path class="cls-1" d="M251,111.79c0,2.77,1.1,3.35,2.14,3.35a3.19,3.19,0,0,0,1.49-.33l.24,1a4.28,4.28,0,0,1-2,.44c-2.16,0-3.28-1.77-3.28-4.53,0-2.93,1.25-4.76,3-4.76s2.58,2,2.58,4c0,.35,0,.6,0,.81Zm2.84-1.06c0-1.81-.66-2.61-1.34-2.61-.95,0-1.42,1.37-1.49,2.61Z" transform="translate(0 -2.7)"/><path class="cls-1" d="M260.36,116.18l-.09-1h0a2,2,0,0,1-1.81,1.11,2.29,2.29,0,0,1-2.14-2.58c0-2.26,1.81-3.25,3.85-3.27v-.29c0-1.22-.31-2.06-1.45-2.06a2.66,2.66,0,0,0-1.49.47l-.31-1A4,4,0,0,1,259,107c1.81,0,2.58,1.18,2.58,3.22v3.92a14.67,14.67,0,0,0,.1,2Zm-.21-4.68c-.74,0-2.48.15-2.48,2.11,0,1.18.6,1.59,1.11,1.59s1.16-.47,1.33-1.35a3,3,0,0,0,0-.51Z" transform="translate(0 -2.7)"/><path class="cls-1" d="M263.34,114.68a2.8,2.8,0,0,0,1.46.48,1.23,1.23,0,0,0,1.33-1.32c0-.68-.25-1.16-1.15-1.76-1.18-.76-1.83-1.54-1.83-2.58a2.43,2.43,0,0,1,2.5-2.5,3,3,0,0,1,1.6.47l-.38,1.08a2,2,0,0,0-1.2-.4,1.11,1.11,0,0,0-1.17,1.15c0,.6.23.94,1.12,1.55a3.32,3.32,0,0,1,1.87,2.76,2.52,2.52,0,0,1-2.72,2.68,3.13,3.13,0,0,1-1.78-.52Z" transform="translate(0 -2.7)"/><path class="cls-1" d="M270.53,104.81a.84.84,0,0,1-.88.94.94.94,0,0,1,0-1.87A.84.84,0,0,1,270.53,104.81ZM269,116.18v-9h1.43v9Z" transform="translate(0 -2.7)"/><path class="cls-1" d="M272.41,103.26h1.43v12.92h-1.43Z" transform="translate(0 -2.7)"/><path class="cls-1" d="M276.68,107.15l1.2,5.19c.16.7.25,1.29.37,1.86h0c.1-.51.25-1.19.38-1.85l1.08-5.2h1.42L279.7,113c-.57,2.27-1.19,4.46-2.25,5.82a4.61,4.61,0,0,1-1.62,1.37l-.53-1.22a4.5,4.5,0,0,0,1.28-1.13,5.65,5.65,0,0,0,.81-1.52,1.42,1.42,0,0,0,.1-.45,1,1,0,0,0-.05-.34l-2.27-8.33Z" transform="translate(0 -2.7)"/><path class="cls-1" d="M288.89,116.18l-.09-1h-.05a2,2,0,0,1-1.81,1.11,2.29,2.29,0,0,1-2.14-2.58c0-2.26,1.81-3.25,3.85-3.27v-.29c0-1.22-.31-2.06-1.45-2.06a2.66,2.66,0,0,0-1.49.47l-.31-1a4,4,0,0,1,2.11-.59c1.81,0,2.58,1.18,2.58,3.22v3.92a16.39,16.39,0,0,0,.1,2Zm-.21-4.68c-.74,0-2.48.15-2.48,2.11,0,1.18.6,1.59,1.11,1.59s1.16-.47,1.33-1.35a3,3,0,0,0,0-.51Z" transform="translate(0 -2.7)"/><path class="cls-1" d="M297.55,103.26V114c0,.6.05,1.63.08,2.16H296.4l-.1-1.13h-.06a2.09,2.09,0,0,1-1.89,1.28c-1.53,0-2.63-1.65-2.63-4.63,0-3.2,1.34-4.7,2.72-4.7a1.75,1.75,0,0,1,1.65,1.07h0v-4.81Zm-1.42,7.32a3.89,3.89,0,0,0,0-.59c-.08-.94-.64-1.76-1.34-1.76-1.19,0-1.6,1.66-1.6,3.46s.5,3.43,1.53,3.43c.44,0,1.06-.23,1.38-1.53a2.71,2.71,0,0,0,.06-.6Z" transform="translate(0 -2.7)"/><path class="cls-1" d="M303.13,116.18l-.1-1h0a2,2,0,0,1-1.8,1.11,2.3,2.3,0,0,1-2.15-2.58c0-2.26,1.81-3.25,3.86-3.27v-.29c0-1.22-.31-2.06-1.45-2.06a2.64,2.64,0,0,0-1.49.47l-.31-1a4,4,0,0,1,2.11-.59c1.81,0,2.58,1.18,2.58,3.22v3.92a14.67,14.67,0,0,0,.1,2Zm-.21-4.68c-.74,0-2.48.15-2.48,2.11,0,1.18.59,1.59,1.11,1.59s1.16-.47,1.32-1.35a2.26,2.26,0,0,0,.05-.51Z" transform="translate(0 -2.7)"/><path class="cls-1" d="M306.34,110c0-1.39,0-2.18-.08-2.82h1.28l.08,1.15h0a2.09,2.09,0,0,1,1.91-1.3c1.57,0,2.61,1.67,2.61,4.64,0,3.35-1.38,4.69-2.79,4.69a1.72,1.72,0,0,1-1.58-1h0v4.47h-1.42Zm1.42,2.89a3.48,3.48,0,0,0,.07.75c.28,1.29.93,1.51,1.32,1.51,1.19,0,1.58-1.63,1.58-3.45s-.45-3.44-1.59-3.44c-.66,0-1.24.81-1.32,1.64a3.82,3.82,0,0,0-.06.68Z" transform="translate(0 -2.7)"/><path class="cls-1" d="M315.56,104.75v2.4h1.73v1.09h-1.73v5.37c0,1.18.42,1.48.94,1.48a2.51,2.51,0,0,0,.58,0l.06,1.11a3.21,3.21,0,0,1-1.07.14,1.8,1.8,0,0,1-1.41-.54,3.28,3.28,0,0,1-.54-2.27v-5.24H313v-1.09h1.1v-2Z" transform="translate(0 -2.7)"/><path class="cls-1" d="M318.31,114.68a2.8,2.8,0,0,0,1.46.48,1.23,1.23,0,0,0,1.33-1.32c0-.68-.25-1.16-1.15-1.76-1.18-.76-1.83-1.54-1.83-2.58a2.43,2.43,0,0,1,2.5-2.5,3,3,0,0,1,1.6.47l-.38,1.08a2,2,0,0,0-1.2-.4,1.11,1.11,0,0,0-1.17,1.15c0,.6.23.94,1.12,1.55a3.32,3.32,0,0,1,1.87,2.76,2.52,2.52,0,0,1-2.72,2.68,3.13,3.13,0,0,1-1.78-.52Z" transform="translate(0 -2.7)"/><path class="cls-1" d="M328.64,104.75v2.4h1.73v1.09h-1.73v5.37c0,1.18.42,1.48.94,1.48a2.51,2.51,0,0,0,.58,0l.06,1.11a3.18,3.18,0,0,1-1.06.14,1.81,1.81,0,0,1-1.42-.54,3.28,3.28,0,0,1-.54-2.27v-5.24h-1.1v-1.09h1.1v-2Z" transform="translate(0 -2.7)"/><path class="cls-1" d="M337,111.66c0,3.49-1.63,4.67-3,4.67-1.61,0-2.93-1.48-2.93-4.65s1.47-4.68,3-4.68S337,108.51,337,111.66Zm-4.5,0c0,1.5.27,3.52,1.56,3.52s1.49-2.11,1.49-3.52-.25-3.51-1.53-3.51S332.53,110.28,332.53,111.66Z" transform="translate(0 -2.7)"/><path class="cls-1" d="M42.85,134.18c0,2.77,1.1,3.35,2.14,3.35a3.19,3.19,0,0,0,1.49-.33l.24,1.05a4.36,4.36,0,0,1-2,.43c-2.16,0-3.29-1.77-3.29-4.53,0-2.93,1.25-4.75,3.05-4.75s2.58,1.94,2.58,4c0,.36,0,.6,0,.81Zm2.84-1.06c0-1.8-.66-2.61-1.34-2.61-1,0-1.42,1.37-1.48,2.61Z" transform="translate(0 -2.7)"/><path class="cls-1" d="M49.29,129.54l.83,1.94c.22.52.41,1,.61,1.58h0c.2-.57.42-1.1.6-1.58l.81-1.94h1.48L51.5,134l2.13,4.57H52.07l-.86-2c-.2-.48-.37-.94-.6-1.55h0c-.19.55-.4,1-.6,1.55l-.83,2H47.68L49.83,134l-2.08-4.5Z" transform="translate(0 -2.7)"/><path class="cls-1" d="M56.38,127.2a.84.84,0,0,1-.88.94.94.94,0,0,1,0-1.87A.84.84,0,0,1,56.38,127.2Zm-1.55,11.37v-9h1.43v9Z" transform="translate(0 -2.7)"/><path class="cls-1" d="M58,137.07a2.84,2.84,0,0,0,1.46.48,1.23,1.23,0,0,0,1.34-1.32c0-.68-.25-1.16-1.16-1.76-1.18-.76-1.82-1.54-1.82-2.57a2.43,2.43,0,0,1,2.49-2.5,3,3,0,0,1,1.61.46l-.38,1.08a2.1,2.1,0,0,0-1.2-.4,1.11,1.11,0,0,0-1.17,1.15c0,.6.23.95,1.12,1.56A3.3,3.3,0,0,1,62.17,136a2.52,2.52,0,0,1-2.72,2.68,3.09,3.09,0,0,1-1.79-.52Z" transform="translate(0 -2.7)"/><path class="cls-1" d="M65.41,127.14v2.4h1.73v1.09H65.41V136c0,1.18.42,1.49.94,1.49a2.4,2.4,0,0,0,.58-.06l.07,1.11a3.25,3.25,0,0,1-1.07.14,1.78,1.78,0,0,1-1.41-.54,3.28,3.28,0,0,1-.54-2.27v-5.24h-1.1v-1.09H64v-2Z" transform="translate(0 -2.7)"/><path class="cls-1" d="M70,127.2a.85.85,0,0,1-.88.94.94.94,0,1,1,.88-.94Zm-1.56,11.37v-9h1.43v9Z" transform="translate(0 -2.7)"/><path class="cls-1" d="M71.84,131.87c0-1.06,0-1.6-.07-2.33H73l.07,1.09h0a2.28,2.28,0,0,1,2.07-1.23c1.25,0,2.19.92,2.19,3.1v6.07H76v-5.82c0-1.08-.21-2.14-1.26-2.14-.6,0-1.17.5-1.35,1.47a3.72,3.72,0,0,0-.07.8v5.69H71.84Z" transform="translate(0 -2.7)"/><path class="cls-1" d="M84.93,129.54c0,.63-.08,1.43-.08,2.82v5c0,2.38-.3,3.29-.89,3.94a3.13,3.13,0,0,1-2.4,1,4.37,4.37,0,0,1-2-.44l.33-1.13a3.83,3.83,0,0,0,1.68.4c1.14,0,1.84-.72,1.84-2.76v-.92h0a1.82,1.82,0,0,1-1.73,1.1c-1.59,0-2.65-1.8-2.65-4.46,0-3.33,1.51-4.69,2.85-4.69a1.82,1.82,0,0,1,1.67,1.16h0l.07-1Zm-1.51,3.11a2.35,2.35,0,0,0-.07-.66c-.16-.61-.49-1.37-1.3-1.37-1,0-1.6,1.4-1.6,3.4,0,2.31.73,3.36,1.59,3.36.45,0,1-.2,1.29-1.29a3,3,0,0,0,.09-.82Z" transform="translate(0 -2.7)"/><path class="cls-1" d="M89.69,138.57c0-.52.07-1.56.07-2.16V125.66h1.43v4.94h0a2,2,0,0,1,1.91-1.2c1.41,0,2.47,1.6,2.47,4.56,0,3.27-1.35,4.76-2.74,4.76a1.87,1.87,0,0,1-1.79-1.33H91l-.1,1.18Zm1.5-3.19a1.89,1.89,0,0,0,.06.56c.33,1.34.94,1.58,1.34,1.58,1.16,0,1.57-1.57,1.57-3.48s-.43-3.42-1.59-3.42c-.67,0-1.22.83-1.34,1.61a4.3,4.3,0,0,0,0,.62Z" transform="translate(0 -2.7)"/><path class="cls-1" d="M98.23,134.18c0,2.77,1.1,3.35,2.14,3.35a3.19,3.19,0,0,0,1.49-.33l.24,1.05a4.36,4.36,0,0,1-2,.43c-2.16,0-3.29-1.77-3.29-4.53,0-2.93,1.25-4.75,3.05-4.75s2.58,1.94,2.58,4c0,.36,0,.6,0,.81Zm2.84-1.06c0-1.8-.66-2.61-1.34-2.61-1,0-1.42,1.37-1.48,2.61Z" transform="translate(0 -2.7)"/><path class="cls-1" d="M104,125.66h1.43v12.91H104Z" transform="translate(0 -2.7)"/><path class="cls-1" d="M109.32,127.14v2.4h1.73v1.09h-1.73V136c0,1.18.42,1.49.94,1.49a2.46,2.46,0,0,0,.58-.06l.06,1.11a3.18,3.18,0,0,1-1.06.14,1.82,1.82,0,0,1-1.42-.54,3.29,3.29,0,0,1-.53-2.27v-5.24h-1.11v-1.09h1.11v-2Z" transform="translate(0 -2.7)"/><path class="cls-1" d="M112.07,137.07a2.84,2.84,0,0,0,1.46.48,1.23,1.23,0,0,0,1.33-1.32c0-.68-.25-1.16-1.15-1.76-1.18-.76-1.83-1.54-1.83-2.57a2.43,2.43,0,0,1,2.5-2.5,3,3,0,0,1,1.61.46l-.39,1.08a2.08,2.08,0,0,0-1.2-.4,1.11,1.11,0,0,0-1.17,1.15c0,.6.23.95,1.13,1.56a3.3,3.3,0,0,1,1.86,2.75,2.52,2.52,0,0,1-2.72,2.68,3.05,3.05,0,0,1-1.78-.52Z" transform="translate(0 -2.7)"/><path class="cls-1" d="M124.21,138.57l-.1-1h0a2,2,0,0,1-1.81,1.11,2.3,2.3,0,0,1-2.14-2.58c0-2.26,1.81-3.25,3.86-3.27v-.29c0-1.22-.31-2.05-1.45-2.05A2.68,2.68,0,0,0,121,131l-.31-1a3.87,3.87,0,0,1,2.11-.59c1.81,0,2.58,1.18,2.58,3.21v3.92a14.67,14.67,0,0,0,.1,2ZM124,133.9c-.73,0-2.48.14-2.48,2.1,0,1.18.6,1.59,1.11,1.59s1.16-.47,1.33-1.34a2.37,2.37,0,0,0,0-.52Z" transform="translate(0 -2.7)"/><path class="cls-1" d="M127.43,131.87c0-1.06-.05-1.6-.08-2.33h1.26l.07,1.09h0a2.27,2.27,0,0,1,2.07-1.23c1.25,0,2.18.92,2.18,3.1v6.07h-1.43v-5.82c0-1.08-.21-2.14-1.25-2.14-.61,0-1.18.5-1.36,1.47a3.72,3.72,0,0,0-.07.8v5.69h-1.43Z" transform="translate(0 -2.7)"/><path class="cls-1" d="M140.42,125.66v10.75c0,.6.05,1.63.08,2.16h-1.23l-.1-1.13h-.06a2.09,2.09,0,0,1-1.89,1.28c-1.53,0-2.63-1.65-2.63-4.63,0-3.2,1.34-4.69,2.72-4.69a1.73,1.73,0,0,1,1.65,1.06h0v-4.8ZM139,133a3.89,3.89,0,0,0,0-.59c-.08-.94-.64-1.76-1.33-1.76-1.19,0-1.61,1.67-1.61,3.46s.5,3.44,1.53,3.44c.44,0,1.06-.24,1.38-1.54a2.22,2.22,0,0,0,.06-.6Z" transform="translate(0 -2.7)"/><path class="cls-1" d="M146.92,127.2a.85.85,0,0,1-.88.94.94.94,0,1,1,.88-.94Zm-1.56,11.37v-9h1.43v9Z" transform="translate(0 -2.7)"/><path class="cls-1" d="M148.55,137.07a2.84,2.84,0,0,0,1.46.48,1.23,1.23,0,0,0,1.33-1.32c0-.68-.25-1.16-1.15-1.76-1.18-.76-1.83-1.54-1.83-2.57a2.43,2.43,0,0,1,2.5-2.5,3,3,0,0,1,1.6.46l-.38,1.08a2.08,2.08,0,0,0-1.2-.4,1.11,1.11,0,0,0-1.17,1.15c0,.6.23.95,1.13,1.56A3.3,3.3,0,0,1,152.7,136a2.52,2.52,0,0,1-2.72,2.68,3.05,3.05,0,0,1-1.78-.52Z" transform="translate(0 -2.7)"/><path class="cls-1" d="M157.42,138.57v-7.94h-1.14v-1.09h1.14V129a4,4,0,0,1,.8-2.71,2.41,2.41,0,0,1,1.8-.77,2.61,2.61,0,0,1,1.14.22l-.24,1.13a1.88,1.88,0,0,0-.79-.16c-1,0-1.28,1.1-1.28,2.27v.57h1.65v1.09h-1.65v7.94Z" transform="translate(0 -2.7)"/><path class="cls-1" d="M166.78,136.11c0,1,.05,1.79.08,2.46H165.6l-.09-.94h0a2.37,2.37,0,0,1-1.94,1.09c-1.57,0-2.2-1.23-2.2-3.47v-5.71h1.44V135c0,1.41.23,2.47,1.21,2.47a1.41,1.41,0,0,0,1.3-1.21,4,4,0,0,0,.07-.8v-6h1.43Z" transform="translate(0 -2.7)"/><path class="cls-1" d="M168.8,125.66h1.43v12.91H168.8Z" transform="translate(0 -2.7)"/><path class="cls-1" d="M172.36,125.66h1.43v12.91h-1.43Z" transform="translate(0 -2.7)"/><path class="cls-1" d="M176.63,129.54l1.2,5.19c.16.7.25,1.29.37,1.86h0c.1-.51.25-1.19.39-1.85l1.07-5.2h1.42l-1.47,5.8a16.71,16.71,0,0,1-2.24,5.83,4.86,4.86,0,0,1-1.63,1.37l-.53-1.23a4.5,4.5,0,0,0,1.28-1.13,5.65,5.65,0,0,0,.81-1.52,1.42,1.42,0,0,0,.1-.45,1.32,1.32,0,0,0,0-.34l-2.28-8.33Z" transform="translate(0 -2.7)"/><path class="cls-1" d="M185,137.07a2.8,2.8,0,0,0,1.46.48,1.23,1.23,0,0,0,1.33-1.32c0-.68-.25-1.16-1.16-1.76-1.17-.76-1.82-1.54-1.82-2.57a2.43,2.43,0,0,1,2.5-2.5,3,3,0,0,1,1.6.46l-.38,1.08a2.08,2.08,0,0,0-1.2-.4,1.11,1.11,0,0,0-1.17,1.15c0,.6.23.95,1.12,1.56a3.3,3.3,0,0,1,1.87,2.75,2.52,2.52,0,0,1-2.72,2.68,3.05,3.05,0,0,1-1.78-.52Z" transform="translate(0 -2.7)"/><path class="cls-1" d="M195.07,138.35a3.21,3.21,0,0,1-1.5.33c-2,0-3.3-1.59-3.3-4.58,0-2.59,1.31-4.69,3.57-4.69a2.74,2.74,0,0,1,1.27.29l-.28,1.17a2.22,2.22,0,0,0-1-.25c-1.44,0-2.09,1.72-2.09,3.49,0,2.11.81,3.37,2.13,3.37a2.27,2.27,0,0,0,1-.24Z" transform="translate(0 -2.7)"/><path class="cls-1" d="M199.93,138.57l-.1-1h-.05a2,2,0,0,1-1.81,1.11,2.29,2.29,0,0,1-2.14-2.58c0-2.26,1.81-3.25,3.86-3.27v-.29c0-1.22-.31-2.05-1.45-2.05a2.74,2.74,0,0,0-1.5.46l-.3-1a3.85,3.85,0,0,1,2.11-.59c1.8,0,2.58,1.18,2.58,3.21v3.92a14.67,14.67,0,0,0,.1,2Zm-.22-4.67c-.73,0-2.48.14-2.48,2.1,0,1.18.6,1.59,1.11,1.59s1.16-.47,1.33-1.34a2.37,2.37,0,0,0,0-.52Z" transform="translate(0 -2.7)"/><path class="cls-1" d="M203.15,125.66h1.43v12.91h-1.43Z" transform="translate(0 -2.7)"/><path class="cls-1" d="M210.28,138.57l-.09-1h-.05a2,2,0,0,1-1.81,1.11,2.29,2.29,0,0,1-2.14-2.58c0-2.26,1.81-3.25,3.85-3.27v-.29c0-1.22-.31-2.05-1.45-2.05a2.73,2.73,0,0,0-1.49.46l-.31-1a3.9,3.9,0,0,1,2.11-.59c1.81,0,2.58,1.18,2.58,3.21v3.92a14.67,14.67,0,0,0,.1,2Zm-.21-4.67c-.74,0-2.48.14-2.48,2.1,0,1.18.6,1.59,1.11,1.59s1.16-.47,1.33-1.34a3.2,3.2,0,0,0,0-.52Z" transform="translate(0 -2.7)"/><path class="cls-1" d="M213.42,138.57c0-.52.07-1.56.07-2.16V125.66h1.43v4.94h0a2,2,0,0,1,1.91-1.2c1.41,0,2.47,1.6,2.47,4.56,0,3.27-1.35,4.76-2.74,4.76a1.87,1.87,0,0,1-1.79-1.33h-.06l-.1,1.18Zm1.5-3.19a1.89,1.89,0,0,0,.06.56c.33,1.34.94,1.58,1.34,1.58,1.16,0,1.57-1.57,1.57-3.48s-.43-3.42-1.59-3.42c-.67,0-1.22.83-1.34,1.61a4.3,4.3,0,0,0,0,.62Z" transform="translate(0 -2.7)"/><path class="cls-1" d="M221,125.66h1.43v12.91H221Z" transform="translate(0 -2.7)"/><path class="cls-1" d="M225.52,134.18c0,2.77,1.1,3.35,2.14,3.35a3.19,3.19,0,0,0,1.49-.33l.24,1.05a4.36,4.36,0,0,1-2,.43c-2.16,0-3.29-1.77-3.29-4.53,0-2.93,1.25-4.75,3-4.75s2.58,1.94,2.58,4c0,.36,0,.6,0,.81Zm2.84-1.06c0-1.8-.66-2.61-1.34-2.61-1,0-1.42,1.37-1.48,2.61Z" transform="translate(0 -2.7)"/><path class="cls-1" d="M236,127.14v2.4h1.74v1.09H236V136c0,1.18.43,1.49.94,1.49a2.4,2.4,0,0,0,.58-.06l.07,1.11a3.25,3.25,0,0,1-1.07.14,1.78,1.78,0,0,1-1.41-.54,3.28,3.28,0,0,1-.54-2.27v-5.24h-1.1v-1.09h1.1v-2Z" transform="translate(0 -2.7)"/><path class="cls-1" d="M244.37,134.05c0,3.49-1.63,4.67-3,4.67-1.61,0-2.93-1.48-2.93-4.65s1.47-4.67,3-4.67S244.37,130.91,244.37,134.05Zm-4.5,0c0,1.5.27,3.52,1.56,3.52s1.49-2.11,1.49-3.52-.25-3.51-1.53-3.51S239.87,132.67,239.87,134.05Z" transform="translate(0 -2.7)"/><path class="cls-1" d="M252.47,138.57l-.09-1h-.06a2,2,0,0,1-1.8,1.11,2.29,2.29,0,0,1-2.14-2.58c0-2.26,1.8-3.25,3.85-3.27v-.29c0-1.22-.31-2.05-1.45-2.05a2.73,2.73,0,0,0-1.49.46l-.31-1a3.9,3.9,0,0,1,2.11-.59c1.81,0,2.58,1.18,2.58,3.21v3.92a14.67,14.67,0,0,0,.1,2Zm-.21-4.67c-.74,0-2.48.14-2.48,2.1,0,1.18.59,1.59,1.11,1.59s1.16-.47,1.32-1.34a2.4,2.4,0,0,0,0-.52Z" transform="translate(0 -2.7)"/><path class="cls-1" d="M255.69,131.87c0-1.06-.05-1.6-.07-2.33h1.25l.07,1.09h0a2.28,2.28,0,0,1,2.07-1.23c1.25,0,2.19.92,2.19,3.1v6.07H259.8v-5.82c0-1.08-.2-2.14-1.25-2.14-.61,0-1.18.5-1.36,1.47a4.49,4.49,0,0,0-.07.8v5.69h-1.43Z" transform="translate(0 -2.7)"/><path class="cls-1" d="M263.83,129.54l1.19,5.19c.17.7.26,1.29.38,1.86h0c.09-.51.25-1.19.38-1.85l1.07-5.2h1.42l-1.47,5.8a16.51,16.51,0,0,1-2.24,5.83,5,5,0,0,1-1.62,1.37l-.54-1.23a4.5,4.5,0,0,0,1.28-1.13,5.38,5.38,0,0,0,.81-1.52,1.24,1.24,0,0,0,.11-.45,1,1,0,0,0-.05-.34l-2.27-8.33Z" transform="translate(0 -2.7)"/><path class="cls-1" d="M272.22,137.07a2.84,2.84,0,0,0,1.46.48,1.24,1.24,0,0,0,1.34-1.32c0-.68-.26-1.16-1.16-1.76-1.18-.76-1.83-1.54-1.83-2.57a2.43,2.43,0,0,1,2.5-2.5,3,3,0,0,1,1.61.46l-.39,1.08a2.08,2.08,0,0,0-1.2-.4,1.11,1.11,0,0,0-1.17,1.15c0,.6.24.95,1.13,1.56a3.32,3.32,0,0,1,1.87,2.75,2.52,2.52,0,0,1-2.73,2.68,3.05,3.05,0,0,1-1.78-.52Z" transform="translate(0 -2.7)"/><path class="cls-1" d="M279.42,127.2a.85.85,0,0,1-.89.94.94.94,0,1,1,.89-.94Zm-1.56,11.37v-9h1.43v9Z" transform="translate(0 -2.7)"/><path class="cls-1" d="M280.59,137.69l2.85-5.59c.24-.44.53-.93.72-1.32v0h-3.22v-1.2h4.82v1l-2.83,5.5c-.24.46-.52.94-.72,1.35v0h3.54v1.19h-5.16Z" transform="translate(0 -2.7)"/><path class="cls-1" d="M287.92,134.18c0,2.77,1.1,3.35,2.14,3.35a3.19,3.19,0,0,0,1.49-.33l.24,1.05a4.38,4.38,0,0,1-2,.43c-2.16,0-3.28-1.77-3.28-4.53,0-2.93,1.25-4.75,3.05-4.75s2.58,1.94,2.58,4c0,.36,0,.6,0,.81Zm2.84-1.06c0-1.8-.66-2.61-1.34-2.61-.95,0-1.42,1.37-1.48,2.61Z" transform="translate(0 -2.7)"/><path class="cls-1" d="M296.52,138.57c0-.52.08-1.56.08-2.16V125.66H298v4.94h0a2,2,0,0,1,1.91-1.2c1.41,0,2.47,1.6,2.47,4.56,0,3.27-1.35,4.76-2.74,4.76a1.87,1.87,0,0,1-1.79-1.33h-.06l-.1,1.18Zm1.5-3.19a2.29,2.29,0,0,0,.06.56c.34,1.34.95,1.58,1.35,1.58,1.15,0,1.56-1.57,1.56-3.48s-.42-3.42-1.59-3.42c-.66,0-1.21.83-1.33,1.61a4.32,4.32,0,0,0-.05.62Z" transform="translate(0 -2.7)"/><path class="cls-1" d="M305.07,134.18c0,2.77,1.1,3.35,2.13,3.35a3.24,3.24,0,0,0,1.5-.33l.24,1.05a4.44,4.44,0,0,1-2,.43c-2.16,0-3.28-1.77-3.28-4.53,0-2.93,1.24-4.75,3-4.75s2.59,1.94,2.59,4c0,.36,0,.6,0,.81Zm2.84-1.06c0-1.8-.66-2.61-1.34-2.61-.95,0-1.42,1.37-1.49,2.61Z" transform="translate(0 -2.7)"/><path class="cls-1" d="M310.83,125.66h1.43v12.91h-1.43Z" transform="translate(0 -2.7)"/><path class="cls-1" d="M316.15,127.14v2.4h1.73v1.09h-1.73V136c0,1.18.42,1.49.94,1.49a2.4,2.4,0,0,0,.58-.06l.07,1.11a3.25,3.25,0,0,1-1.07.14,1.78,1.78,0,0,1-1.41-.54,3.28,3.28,0,0,1-.54-2.27v-5.24h-1.1v-1.09h1.1v-2Z" transform="translate(0 -2.7)"/><path class="cls-1" d="M318.23,140.92a27.67,27.67,0,0,0,1.08-4.35l1.63-.18a23.21,23.21,0,0,1-1.72,4.4Z" transform="translate(0 -2.7)"/><path class="cls-1" d="M329,138.57l-.1-1h-.05a2,2,0,0,1-1.81,1.11,2.3,2.3,0,0,1-2.14-2.58c0-2.26,1.81-3.25,3.86-3.27v-.29c0-1.22-.31-2.05-1.45-2.05a2.71,2.71,0,0,0-1.49.46l-.31-1a3.9,3.9,0,0,1,2.11-.59c1.81,0,2.58,1.18,2.58,3.21v3.92a14.67,14.67,0,0,0,.1,2Zm-.21-4.67c-.74,0-2.48.14-2.48,2.1,0,1.18.59,1.59,1.11,1.59s1.16-.47,1.32-1.34a2.4,2.4,0,0,0,.05-.52Z" transform="translate(0 -2.7)"/><path class="cls-1" d="M332.25,131.87c0-1.06-.05-1.6-.07-2.33h1.25l.07,1.09h0a2.28,2.28,0,0,1,2.07-1.23c1.25,0,2.18.92,2.18,3.1v6.07h-1.43v-5.82c0-1.08-.2-2.14-1.25-2.14-.61,0-1.18.5-1.36,1.47a3.72,3.72,0,0,0-.07.8v5.69h-1.43Z" transform="translate(0 -2.7)"/><path class="cls-1" d="M345.24,125.66v10.75c0,.6.06,1.63.08,2.16h-1.23l-.1-1.13h-.06a2.09,2.09,0,0,1-1.89,1.28c-1.53,0-2.63-1.65-2.63-4.63,0-3.2,1.34-4.69,2.72-4.69a1.73,1.73,0,0,1,1.65,1.06h0v-4.8ZM343.82,133a5.82,5.82,0,0,0,0-.59c-.08-.94-.64-1.76-1.34-1.76-1.19,0-1.6,1.67-1.6,3.46s.49,3.44,1.52,3.44c.44,0,1.06-.24,1.39-1.54a2.74,2.74,0,0,0,.05-.6Z" transform="translate(0 -2.7)"/><path class="cls-1" d="M353.75,138.57l-.09-1h-.05a2,2,0,0,1-1.81,1.11,2.29,2.29,0,0,1-2.14-2.58c0-2.26,1.81-3.25,3.85-3.27v-.29c0-1.22-.31-2.05-1.45-2.05a2.73,2.73,0,0,0-1.49.46l-.31-1a3.9,3.9,0,0,1,2.11-.59c1.81,0,2.58,1.18,2.58,3.21v3.92a14.67,14.67,0,0,0,.1,2Zm-.21-4.67c-.74,0-2.48.14-2.48,2.1,0,1.18.6,1.59,1.11,1.59s1.16-.47,1.33-1.34a3.2,3.2,0,0,0,0-.52Z" transform="translate(0 -2.7)"/><path class="cls-1" d="M358.57,127.14v2.4h1.73v1.09h-1.73V136c0,1.18.42,1.49.94,1.49a2.46,2.46,0,0,0,.58-.06l.06,1.11a3.21,3.21,0,0,1-1.07.14,1.8,1.8,0,0,1-1.41-.54,3.28,3.28,0,0,1-.54-2.27v-5.24H356v-1.09h1.1v-2Z" transform="translate(0 -2.7)"/><path class="cls-1" d="M45.41,161l-.09-1h0a2,2,0,0,1-1.81,1.11,2.29,2.29,0,0,1-2.14-2.58c0-2.26,1.8-3.25,3.85-3.27V155c0-1.22-.31-2.05-1.45-2.05a2.66,2.66,0,0,0-1.49.47l-.31-1a3.9,3.9,0,0,1,2.11-.59c1.81,0,2.58,1.18,2.58,3.21v3.92a14.67,14.67,0,0,0,.1,2Zm-.21-4.67c-.74,0-2.48.14-2.48,2.1,0,1.18.59,1.6,1.11,1.6s1.16-.47,1.33-1.35a3.2,3.2,0,0,0,0-.52Z" transform="translate(0 -2.7)"/><path class="cls-1" d="M48.63,154.27c0-1.07-.05-1.61-.07-2.33h1.25l.07,1.08h0A2.28,2.28,0,0,1,52,151.79c1.25,0,2.19.92,2.19,3.1V161H52.74v-5.82c0-1.07-.2-2.14-1.25-2.14-.61,0-1.17.5-1.36,1.47a4.58,4.58,0,0,0-.07.8V161H48.63Z" transform="translate(0 -2.7)"/><path class="cls-1" d="M56.77,151.94,58,157.12c.17.7.26,1.29.38,1.87h0c.09-.52.24-1.2.38-1.86l1.07-5.19h1.42l-1.47,5.79a16.51,16.51,0,0,1-2.24,5.83,4.86,4.86,0,0,1-1.62,1.37l-.54-1.23a4.23,4.23,0,0,0,1.28-1.13,5.38,5.38,0,0,0,.81-1.52,1.24,1.24,0,0,0,.11-.45,1,1,0,0,0,0-.34l-2.27-8.32Z" transform="translate(0 -2.7)"/><path class="cls-1" d="M65.16,159.46a2.75,2.75,0,0,0,1.46.48A1.23,1.23,0,0,0,68,158.62c0-.68-.26-1.16-1.16-1.76-1.18-.76-1.83-1.54-1.83-2.57a2.43,2.43,0,0,1,2.5-2.5,3,3,0,0,1,1.61.46l-.39,1.08a2.08,2.08,0,0,0-1.2-.4,1.12,1.12,0,0,0-1.17,1.15c0,.6.24.95,1.13,1.56a3.32,3.32,0,0,1,1.87,2.75,2.52,2.52,0,0,1-2.73,2.68,3.08,3.08,0,0,1-1.78-.52Z" transform="translate(0 -2.7)"/><path class="cls-1" d="M70.79,154.75c0-1.39-.05-2.18-.08-2.81H72l.07,1.14h0A2.07,2.07,0,0,1,74,151.79c1.57,0,2.61,1.66,2.61,4.63,0,3.36-1.38,4.69-2.79,4.69a1.71,1.71,0,0,1-1.58-1h0v4.47H70.79Zm1.42,2.9a3.45,3.45,0,0,0,.07.74c.28,1.29.93,1.52,1.32,1.52,1.19,0,1.58-1.64,1.58-3.46s-.45-3.44-1.6-3.44c-.65,0-1.23.82-1.32,1.64a3.87,3.87,0,0,0-.05.69Z" transform="translate(0 -2.7)"/><path class="cls-1" d="M79.26,156.57c0,2.77,1.1,3.36,2.13,3.36a3.26,3.26,0,0,0,1.5-.34l.23,1a4.36,4.36,0,0,1-2,.43c-2.16,0-3.28-1.77-3.28-4.53,0-2.92,1.24-4.75,3-4.75s2.58,1.94,2.58,4c0,.36,0,.6,0,.81Zm2.83-1c0-1.81-.65-2.61-1.34-2.61-.94,0-1.42,1.36-1.48,2.61Z" transform="translate(0 -2.7)"/><path class="cls-1" d="M86,156.57c0,2.77,1.1,3.36,2.13,3.36a3.2,3.2,0,0,0,1.5-.34l.24,1a4.41,4.41,0,0,1-2,.43c-2.16,0-3.28-1.77-3.28-4.53,0-2.92,1.24-4.75,3-4.75s2.59,1.94,2.59,4c0,.36,0,.6,0,.81Zm2.84-1c0-1.81-.66-2.61-1.34-2.61-1,0-1.42,1.36-1.49,2.61Z" transform="translate(0 -2.7)"/><path class="cls-1" d="M97.23,148.05V158.8c0,.61,0,1.63.07,2.16H96.07L96,159.83h-.07A2.08,2.08,0,0,1,94,161.11c-1.52,0-2.63-1.65-2.63-4.63,0-3.2,1.34-4.69,2.73-4.69a1.74,1.74,0,0,1,1.65,1.06h0v-4.8Zm-1.43,7.31c0-.18,0-.4,0-.59-.08-.94-.64-1.76-1.34-1.76-1.19,0-1.6,1.67-1.6,3.47s.49,3.43,1.52,3.43c.45,0,1.06-.24,1.39-1.54a2.74,2.74,0,0,0,0-.6Z" transform="translate(0 -2.7)"/><path class="cls-1" d="M107.71,156.44c0,3.49-1.62,4.67-3,4.67-1.61,0-2.93-1.48-2.93-4.65s1.47-4.67,3-4.67S107.71,153.3,107.71,156.44Zm-4.5,0c0,1.5.27,3.52,1.56,3.52s1.49-2.11,1.49-3.52-.25-3.51-1.52-3.51S103.21,155.06,103.21,156.44Z" transform="translate(0 -2.7)"/><path class="cls-1" d="M109.3,154.27c0-.77,0-1.66-.08-2.33h1.29l.07,1.41h0a2.16,2.16,0,0,1,1.89-1.56h.3v1.47h-.3a2,2,0,0,0-1.74,1.88,6.56,6.56,0,0,0,0,.82v5H109.3Z" transform="translate(0 -2.7)"/><path class="cls-1" d="M118.63,149.53v2.41h1.73V153h-1.73v5.37c0,1.18.42,1.49.94,1.49a2.4,2.4,0,0,0,.58-.06l.06,1.11a3.18,3.18,0,0,1-1.06.14,1.78,1.78,0,0,1-1.41-.54,3.21,3.21,0,0,1-.54-2.27V153h-1.11v-1.08h1.11v-2Z" transform="translate(0 -2.7)"/><path class="cls-1" d="M121.63,148.05h1.43v4.85h0a2.64,2.64,0,0,1,.77-.79,2.1,2.1,0,0,1,1.2-.32c1.14,0,2.11.9,2.11,3.18v6h-1.43v-5.82c0-1.11-.25-2.14-1.22-2.14-.67,0-1.18.48-1.4,1.44a3.63,3.63,0,0,0-.06.67V161h-1.43Z" transform="translate(0 -2.7)"/><path class="cls-1" d="M129.17,154.27c0-.77,0-1.66-.07-2.33h1.28l.07,1.41h.05a2.16,2.16,0,0,1,1.89-1.56h.3v1.47h-.3a2,2,0,0,0-1.74,1.88,6.56,6.56,0,0,0-.05.82v5h-1.43Z" transform="translate(0 -2.7)"/><path class="cls-1" d="M139.09,156.44c0,3.49-1.62,4.67-3,4.67-1.62,0-2.94-1.48-2.94-4.65s1.48-4.67,3-4.67S139.09,153.3,139.09,156.44Zm-4.49,0c0,1.5.27,3.52,1.56,3.52s1.49-2.11,1.49-3.52-.26-3.51-1.53-3.51S134.6,155.06,134.6,156.44Z" transform="translate(0 -2.7)"/><path class="cls-1" d="M146.11,158.5c0,1,0,1.79.07,2.46h-1.25l-.1-.94h0a2.35,2.35,0,0,1-1.93,1.09c-1.58,0-2.2-1.23-2.2-3.47v-5.7h1.43v5.49c0,1.42.23,2.47,1.22,2.47a1.39,1.39,0,0,0,1.29-1.21,3.34,3.34,0,0,0,.08-.8v-5.95h1.43Z" transform="translate(0 -2.7)"/><path class="cls-1" d="M153.65,151.94c0,.62-.08,1.42-.08,2.81v5c0,2.38-.3,3.29-.89,3.94a3.13,3.13,0,0,1-2.4,1,4.37,4.37,0,0,1-2-.44l.33-1.13a3.83,3.83,0,0,0,1.68.4c1.14,0,1.85-.72,1.85-2.76v-.92h0a1.82,1.82,0,0,1-1.72,1.1c-1.6,0-2.66-1.8-2.66-4.46,0-3.33,1.51-4.69,2.85-4.69a1.84,1.84,0,0,1,1.68,1.16h0l.07-1Zm-1.5,3.1a2.34,2.34,0,0,0-.08-.66c-.16-.61-.48-1.37-1.3-1.37-1,0-1.6,1.4-1.6,3.4,0,2.31.73,3.36,1.6,3.36.44,0,1-.2,1.28-1.29a2.67,2.67,0,0,0,.1-.82Z" transform="translate(0 -2.7)"/><path class="cls-1" d="M155.57,148.05H157v4.85h0a2.64,2.64,0,0,1,.77-.79,2.1,2.1,0,0,1,1.2-.32c1.14,0,2.11.9,2.11,3.18v6h-1.43v-5.82c0-1.11-.25-2.14-1.22-2.14-.67,0-1.18.48-1.4,1.44a3.63,3.63,0,0,0-.06.67V161h-1.43Z" transform="translate(0 -2.7)"/><path class="cls-1" d="M163.11,154.75c0-1.39-.05-2.18-.07-2.81h1.28l.07,1.14h0a2.06,2.06,0,0,1,1.9-1.29c1.58,0,2.62,1.66,2.62,4.63,0,3.36-1.39,4.69-2.8,4.69a1.71,1.71,0,0,1-1.58-1h0v4.47h-1.43Zm1.43,2.9a2.91,2.91,0,0,0,.07.74c.28,1.29.92,1.52,1.31,1.52,1.2,0,1.58-1.64,1.58-3.46s-.45-3.44-1.59-3.44c-.65,0-1.24.82-1.32,1.64a3.87,3.87,0,0,0-.05.69Z" transform="translate(0 -2.7)"/><path class="cls-1" d="M176,158.5c0,1,.05,1.79.08,2.46H174.8l-.1-.94h0a2.39,2.39,0,0,1-1.94,1.09c-1.57,0-2.2-1.23-2.2-3.47v-5.7H172v5.49c0,1.42.23,2.47,1.22,2.47a1.41,1.41,0,0,0,1.3-1.21,4,4,0,0,0,.07-.8v-5.95H176Z" transform="translate(0 -2.7)"/><path class="cls-1" d="M179.76,149.53v2.41h1.73V153h-1.73v5.37c0,1.18.42,1.49.94,1.49a2.46,2.46,0,0,0,.58-.06l.06,1.11a3.18,3.18,0,0,1-1.06.14,1.81,1.81,0,0,1-1.42-.54,3.26,3.26,0,0,1-.54-2.27V153h-1.1v-1.08h1.1v-2Z" transform="translate(0 -2.7)"/><path class="cls-1" d="M182.43,160a1,1,0,0,1,.95-1.09,1,1,0,0,1,.94,1.09,1,1,0,0,1-.95,1.08A1,1,0,0,1,182.43,160Z" transform="translate(0 -2.7)"/><rect class="cls-2" width="14.22" height="12.96"/><rect class="cls-2" x="15.27" width="14.22" height="12.96"/><rect class="cls-2" x="15.27" y="14.32" width="14.22" height="12.96"/></g></g></svg>