<svg xmlns="http://www.w3.org/2000/svg" viewBox="0 0 190.88 67.17"><defs><style>.cls-1{fill:#1d1d1b;}</style></defs><title>Asset 38Belt1 ing2</title><g id="Layer_2" data-name="Layer 2"><g id="Layer_7" data-name="Layer 7"><path class="cls-1" d="M.9,2.59a6.45,6.45,0,0,1,1.68-.2,3.11,3.11,0,0,1,2.22.7,2.3,2.3,0,0,1,.66,1.72A2.33,2.33,0,0,1,3.92,7v0A2.48,2.48,0,0,1,5.78,9.65a2.88,2.88,0,0,1-.72,2,3.39,3.39,0,0,1-2.66.91,8.15,8.15,0,0,1-1.5-.1ZM2,6.71h.53A1.73,1.73,0,0,0,4.31,4.93,1.47,1.47,0,0,0,2.66,3.29,2,2,0,0,0,2,3.36Zm0,4.88a2.9,2.9,0,0,0,.58.05,1.82,1.82,0,0,0,2-2,2,2,0,0,0-2-2.06H2Z" transform="translate(-0.39 -2.05)"/><path class="cls-1" d="M7.94,9c0,2.21.88,2.68,1.71,2.68a2.63,2.63,0,0,0,1.2-.27l.19.83a3.47,3.47,0,0,1-1.6.35c-1.73,0-2.63-1.41-2.63-3.62s1-3.8,2.44-3.8,2.07,1.55,2.07,3.18a5.67,5.67,0,0,1,0,.65Zm2.27-.85c0-1.45-.52-2.09-1.07-2.09C8.38,6.05,8,7.15,8,8.14Z" transform="translate(-0.39 -2.05)"/><path class="cls-1" d="M12.55,2.17H13.7V12.49H12.55Z" transform="translate(-0.39 -2.05)"/><path class="cls-1" d="M16.81,3.36V5.28h1.38v.87H16.81v4.29c0,.94.34,1.19.75,1.19a2.12,2.12,0,0,0,.47-.05l0,.89a2.69,2.69,0,0,1-.85.11,1.43,1.43,0,0,1-1.13-.43,2.53,2.53,0,0,1-.43-1.81V6.15h-.89V5.28h.89V3.69Z" transform="translate(-0.39 -2.05)"/><path class="cls-1" d="M19.07,11.17a3.12,3.12,0,0,0,1.45.41A1.59,1.59,0,0,0,22.2,9.87a2.59,2.59,0,0,0-1.33-2.09A3.75,3.75,0,0,1,19,5a2.54,2.54,0,0,1,2.66-2.64A2.77,2.77,0,0,1,23,2.71l-.28,1a2.08,2.08,0,0,0-1.19-.34,1.39,1.39,0,0,0-1.46,1.43c0,1,.53,1.4,1.48,2.07a3.46,3.46,0,0,1,1.75,2.9,2.69,2.69,0,0,1-2.82,2.82,3.21,3.21,0,0,1-1.69-.44Z" transform="translate(-0.39 -2.05)"/><path class="cls-1" d="M25.51,9c0,2.21.88,2.68,1.71,2.68a2.55,2.55,0,0,0,1.19-.27l.19.83a3.39,3.39,0,0,1-1.59.35c-1.73,0-2.63-1.41-2.63-3.62s1-3.8,2.44-3.8,2.07,1.55,2.07,3.18a5.67,5.67,0,0,1,0,.65Zm2.27-.85c0-1.45-.53-2.09-1.07-2.09-.76,0-1.14,1.1-1.19,2.09Z" transform="translate(-0.39 -2.05)"/><path class="cls-1" d="M30.12,7.14c0-.85,0-1.28-.06-1.86h1l.06.86h0a1.82,1.82,0,0,1,1.66-1c1,0,1.74.73,1.74,2.48v4.85H33.41V7.84c0-.86-.17-1.71-1-1.71-.48,0-.93.4-1.08,1.17a3.12,3.12,0,0,0-.05.65v4.54H30.12Z" transform="translate(-0.39 -2.05)"/><path class="cls-1" d="M36,11.3a2.22,2.22,0,0,0,1.17.38,1,1,0,0,0,1.06-1.06c0-.54-.2-.92-.92-1.41-.94-.6-1.46-1.23-1.46-2.05a1.94,1.94,0,0,1,2-2,2.34,2.34,0,0,1,1.28.37l-.31.87a1.61,1.61,0,0,0-1-.33A.89.89,0,0,0,36.9,7c0,.48.18.76.9,1.25a2.64,2.64,0,0,1,1.49,2.2,2,2,0,0,1-2.17,2.14,2.5,2.5,0,0,1-1.43-.41Z" transform="translate(-0.39 -2.05)"/><path class="cls-1" d="M41.29,9c0,2.21.88,2.68,1.71,2.68a2.55,2.55,0,0,0,1.19-.27l.19.83a3.42,3.42,0,0,1-1.59.35c-1.73,0-2.63-1.41-2.63-3.62s1-3.8,2.44-3.8,2.06,1.55,2.06,3.18c0,.28,0,.47,0,.65Zm2.27-.85c0-1.45-.53-2.09-1.07-2.09-.76,0-1.14,1.1-1.19,2.09Z" transform="translate(-0.39 -2.05)"/><path class="cls-1" d="M50.73,4.72a2.51,2.51,0,1,1-2.5-2.45A2.45,2.45,0,0,1,50.73,4.72Zm-4.4,0a1.89,1.89,0,0,0,1.91,2,1.87,1.87,0,0,0,1.87-1.94,1.89,1.89,0,1,0-3.78,0ZM47.84,6h-.57V3.55a5.55,5.55,0,0,1,.94-.07,1.46,1.46,0,0,1,.85.18.66.66,0,0,1,.24.54.63.63,0,0,1-.5.56v0a.73.73,0,0,1,.44.6,2,2,0,0,0,.18.61h-.61a1.82,1.82,0,0,1-.19-.59c0-.27-.2-.39-.51-.39h-.27Zm0-1.38h.27c.32,0,.57-.11.57-.36s-.16-.38-.52-.38a1.8,1.8,0,0,0-.32,0Z" transform="translate(-0.39 -2.05)"/><path class="cls-1" d="M54.3,11.3a2.25,2.25,0,0,0,1.17.38,1,1,0,0,0,1.06-1.06c0-.54-.2-.92-.92-1.41-.94-.6-1.46-1.23-1.46-2.05a1.94,1.94,0,0,1,2-2,2.34,2.34,0,0,1,1.28.37l-.3.87a1.66,1.66,0,0,0-1-.33.89.89,0,0,0-.93.92c0,.48.19.76.9,1.25a2.64,2.64,0,0,1,1.49,2.2,2,2,0,0,1-2.17,2.14A2.5,2.5,0,0,1,54,12.17Z" transform="translate(-0.39 -2.05)"/><path class="cls-1" d="M62.33,12.32a2.59,2.59,0,0,1-1.19.26c-1.58,0-2.65-1.27-2.65-3.66,0-2.07,1-3.75,2.86-3.75a2.2,2.2,0,0,1,1,.23l-.23.93a1.9,1.9,0,0,0-.82-.2c-1.16,0-1.67,1.38-1.67,2.8,0,1.68.65,2.7,1.7,2.7a1.78,1.78,0,0,0,.83-.2Z" transform="translate(-0.39 -2.05)"/><path class="cls-1" d="M66.22,12.49l-.08-.76h0a1.62,1.62,0,0,1-1.45.88,1.83,1.83,0,0,1-1.71-2.06c0-1.8,1.45-2.6,3.08-2.62V7.71c0-1-.24-1.65-1.15-1.65a2.16,2.16,0,0,0-1.2.38l-.24-.81a3.12,3.12,0,0,1,1.68-.47c1.45,0,2.07.94,2.07,2.57v3.13a12,12,0,0,0,.08,1.63Zm-.17-3.73c-.59,0-2,.11-2,1.68,0,.94.48,1.27.89,1.27s.93-.37,1.06-1.08a1.9,1.9,0,0,0,0-.41Z" transform="translate(-0.39 -2.05)"/><path class="cls-1" d="M68.8,7.14c0-.85,0-1.28-.06-1.86h1l.06.86h0a1.82,1.82,0,0,1,1.65-1c1,0,1.75.73,1.75,2.48v4.85H72.08V7.84c0-.86-.16-1.71-1-1.71-.48,0-.94.4-1.08,1.17a3.06,3.06,0,0,0-.06.65v4.54H68.8Z" transform="translate(-0.39 -2.05)"/><path class="cls-1" d="M74.64,11.3a2.28,2.28,0,0,0,1.17.38,1,1,0,0,0,1.07-1.06c0-.54-.2-.92-.93-1.41C75,8.61,74.49,8,74.49,7.16a1.94,1.94,0,0,1,2-2,2.35,2.35,0,0,1,1.29.37l-.31.87a1.63,1.63,0,0,0-1-.33.88.88,0,0,0-.93.92c0,.48.18.76.89,1.25a2.63,2.63,0,0,1,1.5,2.2,2,2,0,0,1-2.18,2.14,2.52,2.52,0,0,1-1.43-.41Z" transform="translate(-0.39 -2.05)"/><path class="cls-1" d="M82.91,3.36V5.28h1.38v.87H82.91v4.29c0,.94.33,1.19.75,1.19a2,2,0,0,0,.46-.05l.06.89a2.72,2.72,0,0,1-.86.11,1.46,1.46,0,0,1-1.13-.43,2.58,2.58,0,0,1-.43-1.81V6.15h-.88V5.28h.88V3.69Z" transform="translate(-0.39 -2.05)"/><path class="cls-1" d="M85.31,2.17h1.14V6.05h0a2,2,0,0,1,.61-.63,1.65,1.65,0,0,1,1-.26c.92,0,1.69.72,1.69,2.55v4.78H88.59V7.84c0-.89-.2-1.71-1-1.71-.53,0-1,.38-1.12,1.15a3,3,0,0,0,0,.54v4.67H85.31Z" transform="translate(-0.39 -2.05)"/><path class="cls-1" d="M92.16,9c0,2.21.88,2.68,1.71,2.68a2.55,2.55,0,0,0,1.19-.27l.19.83a3.42,3.42,0,0,1-1.59.35C91.93,12.58,91,11.17,91,9s1-3.8,2.44-3.8,2.06,1.55,2.06,3.18c0,.28,0,.47,0,.65Zm2.27-.85c0-1.45-.53-2.09-1.07-2.09-.76,0-1.14,1.1-1.19,2.09Z" transform="translate(-0.39 -2.05)"/><path class="cls-1" d="M99.11,7.14c0-.85,0-1.28-.06-1.86h1l.06.89h0a1.78,1.78,0,0,1,1.62-1,1.5,1.5,0,0,1,1.51,1.1h0a2.36,2.36,0,0,1,.71-.83,1.87,1.87,0,0,1,1-.27c1,0,1.74.71,1.74,2.55v4.78h-1.14V8c0-.94-.14-1.85-1-1.85-.48,0-.89.4-1.06,1.08a3.34,3.34,0,0,0,0,.65v4.64h-1.15V7.76c0-.8-.13-1.64-1-1.64-.47,0-.94.4-1.07,1.17a4,4,0,0,0,0,.62v4.58H99.11Z" transform="translate(-0.39 -2.05)"/><path class="cls-1" d="M109.61,3.41a.66.66,0,0,1-.7.74.68.68,0,0,1-.66-.74.69.69,0,0,1,.68-.75A.67.67,0,0,1,109.61,3.41Zm-1.24,9.08V5.28h1.14v7.21Z" transform="translate(-0.39 -2.05)"/><path class="cls-1" d="M111.11,7.14c0-.85,0-1.28,0-1.86h1l.06.86h0a1.84,1.84,0,0,1,1.66-1c1,0,1.75.73,1.75,2.48v4.85H114.4V7.84c0-.86-.16-1.71-1-1.71-.48,0-.94.4-1.08,1.17a3.06,3.06,0,0,0-.06.65v4.54h-1.15Z" transform="translate(-0.39 -2.05)"/><path class="cls-1" d="M118,9c0,2.21.88,2.68,1.71,2.68a2.55,2.55,0,0,0,1.19-.27l.19.83a3.42,3.42,0,0,1-1.59.35c-1.73,0-2.63-1.41-2.63-3.62s1-3.8,2.44-3.8,2.06,1.55,2.06,3.18c0,.28,0,.47,0,.65Zm2.27-.85c0-1.45-.53-2.09-1.07-2.09-.76,0-1.14,1.1-1.19,2.09Z" transform="translate(-0.39 -2.05)"/><path class="cls-1" d="M122.57,7.14c0-.61,0-1.33-.06-1.86h1l.06,1.13h0a1.74,1.74,0,0,1,1.51-1.25h.24V6.34h-.23a1.58,1.58,0,0,0-1.4,1.51,6.15,6.15,0,0,0,0,.66v4h-1.14Z" transform="translate(-0.39 -2.05)"/><path class="cls-1" d="M129.05,12.49l-.08-.76h0a1.62,1.62,0,0,1-1.45.88,1.83,1.83,0,0,1-1.71-2.06c0-1.8,1.45-2.6,3.08-2.62V7.71c0-1-.24-1.65-1.15-1.65a2.14,2.14,0,0,0-1.2.38l-.25-.81a3.18,3.18,0,0,1,1.69-.47c1.45,0,2.07.94,2.07,2.57v3.13a14,14,0,0,0,.07,1.63Zm-.17-3.73c-.59,0-2,.11-2,1.68,0,.94.48,1.27.89,1.27s.93-.37,1.06-1.08a1.9,1.9,0,0,0,0-.41Z" transform="translate(-0.39 -2.05)"/><path class="cls-1" d="M131.62,2.17h1.15V12.49h-1.15Z" transform="translate(-0.39 -2.05)"/><path class="cls-1" d="M140.34,12.32a2.61,2.61,0,0,1-1.2.26c-1.57,0-2.64-1.27-2.64-3.66,0-2.07,1.05-3.75,2.86-3.75a2.15,2.15,0,0,1,1,.23l-.22.93a1.94,1.94,0,0,0-.82-.2c-1.16,0-1.67,1.38-1.67,2.8,0,1.68.65,2.7,1.69,2.7a1.83,1.83,0,0,0,.84-.2Z" transform="translate(-0.39 -2.05)"/><path class="cls-1" d="M145.67,8.88c0,2.79-1.3,3.73-2.4,3.73-1.29,0-2.35-1.18-2.35-3.72s1.18-3.73,2.43-3.73S145.67,6.37,145.67,8.88Zm-3.59,0c0,1.2.21,2.82,1.24,2.82s1.19-1.69,1.19-2.82-.2-2.8-1.22-2.8S142.08,7.78,142.08,8.88Z" transform="translate(-0.39 -2.05)"/><path class="cls-1" d="M147,7.14c0-.85,0-1.28-.06-1.86h1l.06.86h0a1.81,1.81,0,0,1,1.65-1c1,0,1.75.73,1.75,2.48v4.85h-1.15V7.84c0-.86-.16-1.71-1-1.71-.48,0-.94.4-1.08,1.17a3.06,3.06,0,0,0-.06.65v4.54H147Z" transform="translate(-0.39 -2.05)"/><path class="cls-1" d="M154.32,3.36V5.28h1.38v.87h-1.38v4.29c0,.94.33,1.19.75,1.19a2,2,0,0,0,.46-.05l.06.89a2.72,2.72,0,0,1-.86.11,1.46,1.46,0,0,1-1.13-.43,2.58,2.58,0,0,1-.43-1.81V6.15h-.88V5.28h.88V3.69Z" transform="translate(-0.39 -2.05)"/><path class="cls-1" d="M157.41,9c0,2.21.88,2.68,1.7,2.68a2.6,2.6,0,0,0,1.2-.27l.19.83a3.42,3.42,0,0,1-1.59.35c-1.73,0-2.63-1.41-2.63-3.62s1-3.8,2.43-3.8,2.07,1.55,2.07,3.18c0,.28,0,.47,0,.65Zm2.27-.85c0-1.45-.53-2.09-1.08-2.09-.75,0-1.13,1.1-1.18,2.09Z" transform="translate(-0.39 -2.05)"/><path class="cls-1" d="M162,7.14c0-.85,0-1.28-.06-1.86h1l.06.86h0a1.82,1.82,0,0,1,1.65-1c1,0,1.75.73,1.75,2.48v4.85H165.3V7.84c0-.86-.16-1.71-1-1.71-.48,0-.94.4-1.08,1.17a3.06,3.06,0,0,0-.06.65v4.54H162Z" transform="translate(-0.39 -2.05)"/><path class="cls-1" d="M169.38,3.36V5.28h1.38v.87h-1.38v4.29c0,.94.34,1.19.75,1.19a2.19,2.19,0,0,0,.47-.05l.05.89a2.69,2.69,0,0,1-.85.11,1.46,1.46,0,0,1-1.14-.43,2.58,2.58,0,0,1-.43-1.81V6.15h-.88V5.28h.88V3.69Z" transform="translate(-0.39 -2.05)"/><path class="cls-1" d="M178.55,8.88c0,2.79-1.29,3.73-2.4,3.73-1.29,0-2.35-1.18-2.35-3.72s1.18-3.73,2.43-3.73S178.55,6.37,178.55,8.88Zm-3.59,0c0,1.2.22,2.82,1.25,2.82S177.4,10,177.4,8.88s-.2-2.8-1.22-2.8S175,7.78,175,8.88Z" transform="translate(-0.39 -2.05)"/><path class="cls-1" d="M180.08,12.49V6.15h-.91V5.28h.91V4.83a3.16,3.16,0,0,1,.64-2.16,1.9,1.9,0,0,1,1.44-.62,2.16,2.16,0,0,1,.91.17l-.19.91a1.59,1.59,0,0,0-.63-.12c-.83,0-1,.87-1,1.81v.46h1.32v.87h-1.32v6.34Z" transform="translate(-0.39 -2.05)"/><path class="cls-1" d="M4.33,30.23a2.5,2.5,0,0,1-1.2.27C1.56,30.5.49,29.22.49,26.84c0-2.08,1.05-3.76,2.85-3.76a2.2,2.2,0,0,1,1,.23l-.23.94a1.76,1.76,0,0,0-.82-.2c-1.15,0-1.67,1.37-1.67,2.79,0,1.69.65,2.7,1.7,2.7a1.76,1.76,0,0,0,.83-.2Z" transform="translate(-0.39 -2.05)"/><path class="cls-1" d="M9.65,26.79c0,2.79-1.29,3.74-2.4,3.74C6,30.53,4.9,29.35,4.9,26.81s1.19-3.74,2.43-3.74S9.65,24.28,9.65,26.79Zm-3.59,0c0,1.2.22,2.82,1.25,2.82S8.5,27.92,8.5,26.79,8.3,24,7.28,24,6.06,25.69,6.06,26.79Z" transform="translate(-0.39 -2.05)"/><path class="cls-1" d="M10.94,25.05c0-.85,0-1.28-.06-1.86h1l.06.87h0a1.81,1.81,0,0,1,1.65-1c1,0,1.75.74,1.75,2.49v4.85H14.23V25.76c0-.87-.17-1.72-1-1.72-.48,0-.93.4-1.08,1.17a3.06,3.06,0,0,0-.06.65v4.55H10.94Z" transform="translate(-0.39 -2.05)"/><path class="cls-1" d="M17.43,23.19l.91,4c.11.49.23,1.14.32,1.76h0c.08-.6.2-1.21.31-1.76l.88-4H21l-1.9,7.22h-1l-1.89-7.22Z" transform="translate(-0.39 -2.05)"/><path class="cls-1" d="M22.65,26.9c0,2.21.88,2.68,1.7,2.68a2.6,2.6,0,0,0,1.2-.27l.19.84a3.56,3.56,0,0,1-1.6.35c-1.72,0-2.62-1.42-2.62-3.63s1-3.8,2.43-3.8S26,24.62,26,26.25c0,.28,0,.48,0,.65Zm2.27-.85c0-1.44-.53-2.08-1.07-2.08-.76,0-1.14,1.09-1.19,2.08Z" transform="translate(-0.39 -2.05)"/><path class="cls-1" d="M27.81,23.19l1,4.15c.14.56.21,1,.3,1.49h0c.08-.41.2-1,.31-1.48l.86-4.16H31.4l-1.18,4.63a13.3,13.3,0,0,1-1.79,4.66,3.9,3.9,0,0,1-1.3,1.1l-.43-1a3.48,3.48,0,0,0,1-.9,4.56,4.56,0,0,0,.65-1.22,1.15,1.15,0,0,0,.09-.36.84.84,0,0,0,0-.27L26.6,23.19Z" transform="translate(-0.39 -2.05)"/><path class="cls-1" d="M36.61,26.79c0,2.79-1.29,3.74-2.4,3.74-1.29,0-2.35-1.18-2.35-3.72s1.18-3.74,2.43-3.74S36.61,24.28,36.61,26.79Zm-3.59,0c0,1.2.21,2.82,1.25,2.82s1.19-1.69,1.19-2.82-.2-2.8-1.22-2.8S33,25.69,33,26.79Z" transform="translate(-0.39 -2.05)"/><path class="cls-1" d="M37.89,25.05c0-.61,0-1.32-.06-1.86h1l.06,1.13h0a1.74,1.74,0,0,1,1.51-1.25h.24v1.18h-.23a1.57,1.57,0,0,0-1.4,1.5,6.15,6.15,0,0,0,0,.66v4H37.89Z" transform="translate(-0.39 -2.05)"/><path class="cls-1" d="M43.87,30.41c0-.41.06-1.25.06-1.73v-8.6h1.14v4h0a1.63,1.63,0,0,1,1.53-1c1.13,0,2,1.29,2,3.65,0,2.61-1.07,3.81-2.19,3.81A1.5,1.5,0,0,1,45,29.46h0l-.08.95Zm1.2-2.55a2.06,2.06,0,0,0,0,.45c.27,1.06.76,1.25,1.08,1.25.92,0,1.25-1.25,1.25-2.78s-.34-2.73-1.27-2.73c-.54,0-1,.67-1.07,1.29a4,4,0,0,0,0,.5Z" transform="translate(-0.39 -2.05)"/><path class="cls-1" d="M50.71,26.9c0,2.21.88,2.68,1.71,2.68a2.55,2.55,0,0,0,1.19-.27l.19.84a3.55,3.55,0,0,1-1.59.35c-1.73,0-2.63-1.42-2.63-3.63s1-3.8,2.44-3.8,2.06,1.55,2.06,3.18c0,.28,0,.48,0,.65ZM53,26.05c0-1.44-.53-2.08-1.07-2.08-.76,0-1.14,1.09-1.19,2.08Z" transform="translate(-0.39 -2.05)"/><path class="cls-1" d="M55.32,20.08h1.14V30.41H55.32Z" transform="translate(-0.39 -2.05)"/><path class="cls-1" d="M59.58,21.27v1.92H61v.87H59.58v4.29c0,.94.33,1.19.75,1.19a2.07,2.07,0,0,0,.46,0l.06.88a2.42,2.42,0,0,1-.86.12,1.46,1.46,0,0,1-1.13-.44,2.58,2.58,0,0,1-.43-1.81V24.06h-.88v-.87h.88V21.6Z" transform="translate(-0.39 -2.05)"/><path class="cls-1" d="M61.78,29.21a2.22,2.22,0,0,0,1.17.38A1,1,0,0,0,64,28.54c0-.55-.21-.93-.93-1.41-.94-.61-1.46-1.23-1.46-2.06a1.94,1.94,0,0,1,2-2,2.43,2.43,0,0,1,1.28.37l-.31.87a1.61,1.61,0,0,0-1-.33.89.89,0,0,0-.93.92c0,.49.18.76.9,1.25a2.67,2.67,0,0,1,1.49,2.2,2,2,0,0,1-2.17,2.15,2.5,2.5,0,0,1-1.43-.42Z" transform="translate(-0.39 -2.05)"/><path class="cls-1" d="M70,21.27v1.92h1.39v.87H70v4.29c0,.94.34,1.19.75,1.19a2.11,2.11,0,0,0,.47,0l0,.88a2.36,2.36,0,0,1-.85.12,1.44,1.44,0,0,1-1.13-.44,2.58,2.58,0,0,1-.43-1.81V24.06H68v-.87h.88V21.6Z" transform="translate(-0.39 -2.05)"/><path class="cls-1" d="M76.75,26.79c0,2.79-1.29,3.74-2.4,3.74-1.29,0-2.35-1.18-2.35-3.72s1.18-3.74,2.43-3.74S76.75,24.28,76.75,26.79Zm-3.59,0c0,1.2.21,2.82,1.25,2.82s1.19-1.69,1.19-2.82S75.39,24,74.38,24,73.16,25.69,73.16,26.79Z" transform="translate(-0.39 -2.05)"/><path class="cls-1" d="M83.24,30.41l-.08-.77h0a1.63,1.63,0,0,1-1.45.89A1.84,1.84,0,0,1,80,28.46c0-1.8,1.45-2.6,3.08-2.61v-.23c0-1-.24-1.65-1.15-1.65a2.14,2.14,0,0,0-1.2.38l-.24-.81a3.12,3.12,0,0,1,1.68-.47c1.45,0,2.07.95,2.07,2.57v3.13a14.17,14.17,0,0,0,.07,1.64Zm-.17-3.74c-.59,0-2,.12-2,1.69,0,.93.48,1.27.89,1.27s.93-.38,1.06-1.08a2.06,2.06,0,0,0,0-.42Z" transform="translate(-0.39 -2.05)"/><path class="cls-1" d="M85.62,29.21a2.22,2.22,0,0,0,1.17.38,1,1,0,0,0,1.06-1.05c0-.55-.2-.93-.92-1.41-1-.61-1.46-1.23-1.46-2.06a1.94,1.94,0,0,1,2-2,2.43,2.43,0,0,1,1.28.37l-.31.87a1.63,1.63,0,0,0-1-.33.89.89,0,0,0-.93.92c0,.49.18.76.9,1.25a2.67,2.67,0,0,1,1.49,2.2,2,2,0,0,1-2.17,2.15,2.5,2.5,0,0,1-1.43-.42Z" transform="translate(-0.39 -2.05)"/><path class="cls-1" d="M89.93,29.21a2.25,2.25,0,0,0,1.17.38,1,1,0,0,0,1.07-1.05c0-.55-.21-.93-.93-1.41-.94-.61-1.46-1.23-1.46-2.06a1.94,1.94,0,0,1,2-2,2.4,2.4,0,0,1,1.28.37l-.3.87a1.66,1.66,0,0,0-1-.33.9.9,0,0,0-.94.92c0,.49.19.76.9,1.25a2.66,2.66,0,0,1,1.5,2.2,2,2,0,0,1-2.18,2.15,2.5,2.5,0,0,1-1.43-.42Z" transform="translate(-0.39 -2.05)"/><path class="cls-1" d="M95.25,26.9c0,2.21.88,2.68,1.71,2.68a2.63,2.63,0,0,0,1.2-.27l.19.84a3.6,3.6,0,0,1-1.6.35c-1.73,0-2.62-1.42-2.62-3.63s1-3.8,2.43-3.8,2.07,1.55,2.07,3.18a5.55,5.55,0,0,1,0,.65Zm2.27-.85c0-1.44-.52-2.08-1.07-2.08-.76,0-1.13,1.09-1.19,2.08Z" transform="translate(-0.39 -2.05)"/><path class="cls-1" d="M99.66,29.21a2.28,2.28,0,0,0,1.17.38,1,1,0,0,0,1.07-1.05c0-.55-.2-.93-.92-1.41-1-.61-1.47-1.23-1.47-2.06a1.94,1.94,0,0,1,2-2,2.44,2.44,0,0,1,1.29.37l-.31.87a1.63,1.63,0,0,0-1-.33.89.89,0,0,0-.93.92c0,.49.18.76.89,1.25a2.66,2.66,0,0,1,1.5,2.2,2,2,0,0,1-2.18,2.15,2.52,2.52,0,0,1-1.43-.42Z" transform="translate(-0.39 -2.05)"/><path class="cls-1" d="M104,29.21a2.22,2.22,0,0,0,1.17.38,1,1,0,0,0,1.06-1.05c0-.55-.2-.93-.92-1.41-.94-.61-1.46-1.23-1.46-2.06a1.94,1.94,0,0,1,2-2,2.43,2.43,0,0,1,1.28.37l-.31.87a1.61,1.61,0,0,0-1-.33.89.89,0,0,0-.93.92c0,.49.18.76.9,1.25a2.67,2.67,0,0,1,1.49,2.2,2,2,0,0,1-2.17,2.15,2.5,2.5,0,0,1-1.43-.42Z" transform="translate(-0.39 -2.05)"/><path class="cls-1" d="M112.24,21.27v1.92h1.39v.87h-1.39v4.29c0,.94.34,1.19.75,1.19a2.11,2.11,0,0,0,.47,0l.05.88a2.36,2.36,0,0,1-.85.12,1.44,1.44,0,0,1-1.13-.44,2.53,2.53,0,0,1-.43-1.81V24.06h-.89v-.87h.89V21.6Z" transform="translate(-0.39 -2.05)"/><path class="cls-1" d="M114.64,20.08h1.14V24h0a2.16,2.16,0,0,1,.61-.63,1.78,1.78,0,0,1,1-.26c.92,0,1.69.72,1.69,2.55v4.79h-1.14V25.75c0-.89-.2-1.71-1-1.71-.53,0-.94.39-1.12,1.15a3.19,3.19,0,0,0,0,.54v4.68h-1.14Z" transform="translate(-0.39 -2.05)"/><path class="cls-1" d="M121.49,26.9c0,2.21.88,2.68,1.71,2.68a2.63,2.63,0,0,0,1.2-.27l.19.84a3.56,3.56,0,0,1-1.6.35c-1.73,0-2.62-1.42-2.62-3.63s1-3.8,2.43-3.8,2.07,1.55,2.07,3.18c0,.28,0,.48,0,.65Zm2.27-.85c0-1.44-.52-2.08-1.07-2.08-.76,0-1.13,1.09-1.18,2.08Z" transform="translate(-0.39 -2.05)"/><path class="cls-1" d="M128.45,25.05c0-.85,0-1.28-.06-1.86h1l0,.89h0a1.79,1.79,0,0,1,1.63-1,1.5,1.5,0,0,1,1.51,1.1h0a2.15,2.15,0,0,1,.71-.82,1.74,1.74,0,0,1,1-.28c1,0,1.74.71,1.74,2.55v4.79H135V25.89c0-.95-.14-1.86-1-1.86-.48,0-.89.41-1.05,1.08a3.3,3.3,0,0,0,0,.65v4.65H131.7V25.67c0-.79-.14-1.64-1-1.64-.48,0-.94.41-1.08,1.18a3.82,3.82,0,0,0,0,.61v4.59h-1.14Z" transform="translate(-0.39 -2.05)"/><path class="cls-1" d="M139,21.32a.68.68,0,0,1-.71.74.66.66,0,0,1-.65-.74.68.68,0,1,1,1.36,0Zm-1.25,9.09V23.19h1.15v7.22Z" transform="translate(-0.39 -2.05)"/><path class="cls-1" d="M140.45,25.05c0-.85,0-1.28-.06-1.86h1l.06.87h0a1.81,1.81,0,0,1,1.65-1c1,0,1.75.74,1.75,2.49v4.85h-1.14V25.76c0-.87-.17-1.72-1-1.72-.48,0-.94.4-1.08,1.17a3.06,3.06,0,0,0-.06.65v4.55h-1.14Z" transform="translate(-0.39 -2.05)"/><path class="cls-1" d="M147.3,26.9c0,2.21.88,2.68,1.71,2.68a2.63,2.63,0,0,0,1.2-.27l.19.84a3.6,3.6,0,0,1-1.6.35c-1.73,0-2.62-1.42-2.62-3.63s1-3.8,2.43-3.8,2.07,1.55,2.07,3.18a5.55,5.55,0,0,1,0,.65Zm2.27-.85c0-1.44-.52-2.08-1.07-2.08-.76,0-1.13,1.09-1.19,2.08Z" transform="translate(-0.39 -2.05)"/><path class="cls-1" d="M151.9,25.05c0-.61,0-1.32-.06-1.86h1l0,1.13h0a1.75,1.75,0,0,1,1.51-1.25h.25v1.18h-.24a1.56,1.56,0,0,0-1.39,1.5,4.33,4.33,0,0,0,0,.66v4H151.9Z" transform="translate(-0.39 -2.05)"/><path class="cls-1" d="M158.38,30.41l-.08-.77h0a1.61,1.61,0,0,1-1.44.89,1.84,1.84,0,0,1-1.72-2.07c0-1.8,1.45-2.6,3.09-2.61v-.23c0-1-.25-1.65-1.16-1.65a2.13,2.13,0,0,0-1.19.38l-.25-.81a3.16,3.16,0,0,1,1.69-.47c1.44,0,2.06.95,2.06,2.57v3.13a12.17,12.17,0,0,0,.08,1.64Zm-.17-3.74c-.59,0-2,.12-2,1.69,0,.93.47,1.27.88,1.27s.93-.38,1.07-1.08a2,2,0,0,0,0-.42Z" transform="translate(-0.39 -2.05)"/><path class="cls-1" d="M161,20.08h1.14V30.41H161Z" transform="translate(-0.39 -2.05)"/><path class="cls-1" d="M170.57,23.19c0,.5-.06,1.14-.06,2.25v4c0,1.91-.24,2.63-.71,3.15a2.53,2.53,0,0,1-1.92.77,3.54,3.54,0,0,1-1.6-.35l.27-.91a3,3,0,0,0,1.35.32c.91,0,1.47-.57,1.47-2.21v-.73h0a1.44,1.44,0,0,1-1.38.88c-1.28,0-2.12-1.44-2.12-3.56,0-2.67,1.21-3.76,2.28-3.76a1.47,1.47,0,0,1,1.34.93h0l.06-.81Zm-1.2,2.49a1.76,1.76,0,0,0-.06-.53c-.12-.49-.39-1.1-1-1.1-.83,0-1.28,1.12-1.28,2.72,0,1.85.58,2.68,1.28,2.68.35,0,.8-.16,1-1a2.53,2.53,0,0,0,.07-.65Z" transform="translate(-0.39 -2.05)"/><path class="cls-1" d="M172.07,25.05c0-.61,0-1.32-.06-1.86h1l.06,1.13h0a1.74,1.74,0,0,1,1.51-1.25h.24v1.18h-.23a1.55,1.55,0,0,0-1.39,1.5,4.23,4.23,0,0,0,0,.66v4h-1.14Z" transform="translate(-0.39 -2.05)"/><path class="cls-1" d="M178.55,30.41l-.08-.77h0a1.63,1.63,0,0,1-1.45.89,1.84,1.84,0,0,1-1.71-2.07c0-1.8,1.45-2.6,3.08-2.61v-.23c0-1-.24-1.65-1.15-1.65a2.14,2.14,0,0,0-1.2.38l-.24-.81a3.12,3.12,0,0,1,1.68-.47c1.45,0,2.07.95,2.07,2.57v3.13a14.17,14.17,0,0,0,.07,1.64Zm-.17-3.74c-.59,0-2,.12-2,1.69,0,.93.48,1.27.89,1.27s.93-.38,1.06-1.08a2.06,2.06,0,0,0,0-.42Z" transform="translate(-0.39 -2.05)"/><path class="cls-1" d="M185.47,20.08v8.6c0,.48,0,1.31.06,1.73h-1l-.08-.91h-.05a1.68,1.68,0,0,1-1.51,1c-1.22,0-2.1-1.32-2.1-3.71,0-2.55,1.07-3.75,2.17-3.75a1.38,1.38,0,0,1,1.32.85h0V20.08Zm-1.14,5.85a3.7,3.7,0,0,0,0-.47c-.06-.76-.51-1.41-1.07-1.41-1,0-1.28,1.33-1.28,2.77s.4,2.74,1.22,2.74c.36,0,.85-.18,1.11-1.22a2.39,2.39,0,0,0,0-.48Z" transform="translate(-0.39 -2.05)"/><path class="cls-1" d="M187.89,26.9c0,2.21.88,2.68,1.71,2.68a2.55,2.55,0,0,0,1.19-.27l.19.84a3.52,3.52,0,0,1-1.59.35c-1.73,0-2.63-1.42-2.63-3.63s1-3.8,2.44-3.8,2.06,1.55,2.06,3.18c0,.28,0,.48,0,.65Zm2.27-.85c0-1.44-.53-2.08-1.07-2.08-.76,0-1.14,1.09-1.19,2.08Z" transform="translate(-0.39 -2.05)"/><path class="cls-1" d="M3.66,48.32l-.08-.76h0a1.62,1.62,0,0,1-1.44.88A1.83,1.83,0,0,1,.39,46.38c0-1.81,1.44-2.6,3.08-2.62v-.23c0-1-.25-1.64-1.16-1.64a2.18,2.18,0,0,0-1.2.37l-.24-.8A3.12,3.12,0,0,1,2.56,41c1.44,0,2.06,1,2.06,2.57v3.14a12.11,12.11,0,0,0,.08,1.63Zm-.17-3.74c-.59,0-2,.12-2,1.69,0,.94.47,1.27.88,1.27s.93-.38,1.07-1.08a2.93,2.93,0,0,0,0-.41Z" transform="translate(-0.39 -2.05)"/><path class="cls-1" d="M6.24,43c0-.85,0-1.29-.06-1.87h1l.06.87h0a1.83,1.83,0,0,1,1.65-1c1,0,1.75.74,1.75,2.49v4.85H9.53V43.67c0-.86-.17-1.72-1-1.72-.48,0-.94.4-1.08,1.18a3,3,0,0,0-.06.64v4.55H6.24Z" transform="translate(-0.39 -2.05)"/><path class="cls-1" d="M16.63,38v8.6c0,.49,0,1.31.06,1.73h-1l-.08-.91h-.05a1.66,1.66,0,0,1-1.51,1c-1.22,0-2.1-1.32-2.1-3.7C12,42.18,13,41,14.14,41a1.39,1.39,0,0,1,1.32.86h0V38Zm-1.14,5.85a3.7,3.7,0,0,0,0-.47C15.41,42.62,15,42,14.4,42c-1,0-1.28,1.33-1.28,2.77s.4,2.75,1.22,2.75c.36,0,.85-.19,1.11-1.23a2.39,2.39,0,0,0,0-.48Z" transform="translate(-0.39 -2.05)"/><path class="cls-1" d="M24.1,48.14a2.43,2.43,0,0,1-1.19.27c-1.57,0-2.64-1.27-2.64-3.66,0-2.07,1.05-3.76,2.85-3.76a2.33,2.33,0,0,1,1,.23l-.23.94a1.76,1.76,0,0,0-.82-.2c-1.15,0-1.67,1.38-1.67,2.79,0,1.69.65,2.7,1.7,2.7a1.78,1.78,0,0,0,.83-.19Z" transform="translate(-0.39 -2.05)"/><path class="cls-1" d="M25.09,38h1.15v3.89h0a2,2,0,0,1,.61-.64,1.72,1.72,0,0,1,.95-.26c.92,0,1.69.73,1.69,2.55v4.79H28.38V43.66c0-.88-.2-1.71-1-1.71-.53,0-.94.39-1.12,1.15a3.19,3.19,0,0,0,0,.54v4.68H25.09Z" transform="translate(-0.39 -2.05)"/><path class="cls-1" d="M34,48.32l-.07-.76h0a1.65,1.65,0,0,1-1.45.88,1.83,1.83,0,0,1-1.71-2.06c0-1.81,1.44-2.6,3.08-2.62v-.23c0-1-.25-1.64-1.16-1.64a2.12,2.12,0,0,0-1.19.37l-.25-.8A3.15,3.15,0,0,1,32.89,41c1.44,0,2.06,1,2.06,2.57v3.14A12.11,12.11,0,0,0,35,48.32Zm-.17-3.74c-.59,0-2,.12-2,1.69,0,.94.47,1.27.89,1.27s.92-.38,1.06-1.08a1.93,1.93,0,0,0,0-.41Z" transform="translate(-0.39 -2.05)"/><path class="cls-1" d="M36.56,43c0-.61,0-1.33-.06-1.87h1l.06,1.13h0A1.75,1.75,0,0,1,39.13,41l.24,0v1.17h-.23a1.55,1.55,0,0,0-1.39,1.5,4.43,4.43,0,0,0,0,.66v4H36.56Z" transform="translate(-0.39 -2.05)"/><path class="cls-1" d="M43,48.32,43,47.56h0a1.63,1.63,0,0,1-1.44.88,1.83,1.83,0,0,1-1.72-2.06c0-1.81,1.45-2.6,3.09-2.62v-.23c0-1-.25-1.64-1.16-1.64a2.13,2.13,0,0,0-1.2.37l-.24-.8A3.11,3.11,0,0,1,41.93,41c1.45,0,2.07,1,2.07,2.57v3.14a12.11,12.11,0,0,0,.08,1.63Zm-.17-3.74c-.59,0-2,.12-2,1.69,0,.94.48,1.27.89,1.27s.93-.38,1.06-1.08a2,2,0,0,0,0-.41Z" transform="translate(-0.39 -2.05)"/><path class="cls-1" d="M49.14,48.14a2.47,2.47,0,0,1-1.2.27c-1.57,0-2.64-1.27-2.64-3.66,0-2.07,1.05-3.76,2.86-3.76a2.32,2.32,0,0,1,1,.23l-.23.94a1.76,1.76,0,0,0-.82-.2c-1.15,0-1.67,1.38-1.67,2.79,0,1.69.65,2.7,1.7,2.7a1.75,1.75,0,0,0,.83-.19Z" transform="translate(-0.39 -2.05)"/><path class="cls-1" d="M51.75,39.18V41.1h1.39V42H51.75v4.3c0,.94.34,1.18.76,1.18a2.07,2.07,0,0,0,.46,0l.05.89a2.61,2.61,0,0,1-.85.11A1.42,1.42,0,0,1,51,48a2.58,2.58,0,0,1-.43-1.81V42h-.88V41.1h.88V39.52Z" transform="translate(-0.39 -2.05)"/><path class="cls-1" d="M54.84,44.81c0,2.22.88,2.68,1.71,2.68a2.63,2.63,0,0,0,1.2-.27l.19.84a3.44,3.44,0,0,1-1.6.35c-1.73,0-2.62-1.41-2.62-3.62s1-3.81,2.43-3.81,2.07,1.56,2.07,3.18a5.43,5.43,0,0,1,0,.65ZM57.11,44c0-1.45-.52-2.09-1.07-2.09-.76,0-1.13,1.09-1.19,2.09Z" transform="translate(-0.39 -2.05)"/><path class="cls-1" d="M59.44,43c0-.61,0-1.33-.06-1.87h1l.05,1.13h0A1.76,1.76,0,0,1,62,41l.24,0v1.17H62a1.56,1.56,0,0,0-1.39,1.5,4.5,4.5,0,0,0,0,.66v4H59.44Z" transform="translate(-0.39 -2.05)"/><path class="cls-1" d="M64.37,39.23a.68.68,0,1,1-.69-.75A.68.68,0,0,1,64.37,39.23Zm-1.25,9.09V41.1h1.15v7.22Z" transform="translate(-0.39 -2.05)"/><path class="cls-1" d="M65.67,47.12a2.28,2.28,0,0,0,1.17.38,1,1,0,0,0,1.07-1c0-.54-.2-.93-.93-1.41-.94-.61-1.46-1.23-1.46-2.06a2,2,0,0,1,2-2,2.44,2.44,0,0,1,1.29.37l-.31.87a1.63,1.63,0,0,0-1-.32.89.89,0,0,0-.94.92c0,.48.19.75.9,1.24A2.66,2.66,0,0,1,69,46.27a2,2,0,0,1-2.18,2.14A2.45,2.45,0,0,1,65.39,48Z" transform="translate(-0.39 -2.05)"/><path class="cls-1" d="M71.59,39.18V41.1H73V42H71.59v4.3c0,.94.34,1.18.75,1.18a2.11,2.11,0,0,0,.47,0l0,.89a2.61,2.61,0,0,1-.85.11A1.4,1.4,0,0,1,70.88,48a2.58,2.58,0,0,1-.43-1.81V42h-.88V41.1h.88V39.52Z" transform="translate(-0.39 -2.05)"/><path class="cls-1" d="M75.24,39.23a.68.68,0,0,1-.71.75.67.67,0,0,1-.65-.75.68.68,0,1,1,1.36,0ZM74,48.32V41.1h1.15v7.22Z" transform="translate(-0.39 -2.05)"/><path class="cls-1" d="M80.26,48.14a2.47,2.47,0,0,1-1.2.27c-1.57,0-2.64-1.27-2.64-3.66,0-2.07,1-3.76,2.86-3.76a2.28,2.28,0,0,1,1,.23l-.22.94a1.81,1.81,0,0,0-.83-.2c-1.15,0-1.66,1.38-1.66,2.79,0,1.69.64,2.7,1.69,2.7a1.82,1.82,0,0,0,.84-.19Z" transform="translate(-0.39 -2.05)"/><path class="cls-1" d="M81.05,47.12a2.22,2.22,0,0,0,1.17.38,1,1,0,0,0,1.06-1c0-.54-.2-.93-.92-1.41-.94-.61-1.46-1.23-1.46-2.06a1.94,1.94,0,0,1,2-2,2.43,2.43,0,0,1,1.28.37l-.31.87a1.6,1.6,0,0,0-1-.32.89.89,0,0,0-.93.92c0,.48.18.75.9,1.24a2.67,2.67,0,0,1,1.49,2.21,2,2,0,0,1-2.17,2.14A2.42,2.42,0,0,1,80.77,48Z" transform="translate(-0.39 -2.05)"/><path class="cls-1" d="M92.34,44.7c0,2.8-1.3,3.74-2.41,3.74-1.29,0-2.34-1.18-2.34-3.72S88.77,41,90,41,92.34,42.19,92.34,44.7Zm-3.6,0c0,1.19.22,2.81,1.25,2.81s1.19-1.68,1.19-2.81S91,41.9,90,41.9,88.74,43.6,88.74,44.71Z" transform="translate(-0.39 -2.05)"/><path class="cls-1" d="M93.86,48.32V42H93V41.1h.91v-.44a3.19,3.19,0,0,1,.64-2.17,1.94,1.94,0,0,1,1.44-.62,2.11,2.11,0,0,1,.91.18l-.19.9a1.55,1.55,0,0,0-.63-.12c-.83,0-1,.88-1,1.81v.46h1.32V42H95v6.35Z" transform="translate(-0.39 -2.05)"/><path class="cls-1" d="M100.77,39.18V41.1h1.39V42h-1.39v4.3c0,.94.34,1.18.76,1.18a2.07,2.07,0,0,0,.46,0l.05.89a2.61,2.61,0,0,1-.85.11,1.42,1.42,0,0,1-1.13-.44,2.58,2.58,0,0,1-.43-1.81V42h-.88V41.1h.88V39.52Z" transform="translate(-0.39 -2.05)"/><path class="cls-1" d="M103.17,38h1.15v3.89h0a2.2,2.2,0,0,1,.61-.64,1.73,1.73,0,0,1,1-.26c.91,0,1.69.73,1.69,2.55v4.79h-1.15V43.66c0-.88-.2-1.71-1-1.71-.53,0-.94.39-1.11,1.15a3.19,3.19,0,0,0-.05.54v4.68h-1.15Z" transform="translate(-0.39 -2.05)"/><path class="cls-1" d="M110,44.81c0,2.22.88,2.68,1.71,2.68a2.58,2.58,0,0,0,1.19-.27l.19.84a3.42,3.42,0,0,1-1.59.35c-1.73,0-2.63-1.41-2.63-3.62s1-3.81,2.44-3.81,2.06,1.56,2.06,3.18c0,.29,0,.48,0,.65ZM112.3,44c0-1.45-.53-2.09-1.07-2.09-.76,0-1.14,1.09-1.19,2.09Z" transform="translate(-0.39 -2.05)"/><path class="cls-1" d="M117,43c0-.85,0-1.29-.06-1.87h1L118,42h0a1.79,1.79,0,0,1,1.62-1,1.5,1.5,0,0,1,1.51,1.1h0a2.31,2.31,0,0,1,.71-.82,1.8,1.8,0,0,1,1-.28c1,0,1.74.71,1.74,2.56v4.78h-1.14V43.8c0-.94-.14-1.85-1-1.85-.48,0-.9.4-1.06,1.08a3.24,3.24,0,0,0,0,.65v4.64h-1.14V43.58c0-.79-.14-1.63-1-1.63-.47,0-.94.4-1.07,1.17a4,4,0,0,0,0,.61v4.59H117Z" transform="translate(-0.39 -2.05)"/><path class="cls-1" d="M129.09,48.32l-.07-.76h0a1.65,1.65,0,0,1-1.45.88,1.83,1.83,0,0,1-1.71-2.06c0-1.81,1.44-2.6,3.08-2.62v-.23c0-1-.25-1.64-1.16-1.64a2.12,2.12,0,0,0-1.19.37l-.25-.8A3.15,3.15,0,0,1,128,41c1.44,0,2.06,1,2.06,2.57v3.14a12.11,12.11,0,0,0,.08,1.63Zm-.17-3.74c-.59,0-2,.12-2,1.69,0,.94.48,1.27.89,1.27s.92-.38,1.06-1.08a1.93,1.93,0,0,0,0-.41Z" transform="translate(-0.39 -2.05)"/><path class="cls-1" d="M132.94,39.18V41.1h1.39V42h-1.39v4.3c0,.94.34,1.18.75,1.18a2.11,2.11,0,0,0,.47,0l.05.89a2.61,2.61,0,0,1-.85.11,1.4,1.4,0,0,1-1.13-.44,2.58,2.58,0,0,1-.43-1.81V42h-.88V41.1h.88V39.52Z" transform="translate(-0.39 -2.05)"/><path class="cls-1" d="M136,44.81c0,2.22.88,2.68,1.71,2.68a2.63,2.63,0,0,0,1.2-.27l.19.84a3.47,3.47,0,0,1-1.6.35c-1.73,0-2.63-1.41-2.63-3.62s1-3.81,2.44-3.81,2.07,1.56,2.07,3.18a5.43,5.43,0,0,1,0,.65ZM138.3,44c0-1.45-.52-2.09-1.07-2.09-.76,0-1.13,1.09-1.19,2.09Z" transform="translate(-0.39 -2.05)"/><path class="cls-1" d="M140.63,43c0-.61,0-1.33-.06-1.87h1l.05,1.13h0A1.75,1.75,0,0,1,143.2,41l.24,0v1.17h-.23a1.55,1.55,0,0,0-1.39,1.5,4.43,4.43,0,0,0,0,.66v4h-1.14Z" transform="translate(-0.39 -2.05)"/><path class="cls-1" d="M145.56,39.23a.68.68,0,0,1-.71.75.67.67,0,0,1-.65-.75.68.68,0,1,1,1.36,0Zm-1.25,9.09V41.1h1.15v7.22Z" transform="translate(-0.39 -2.05)"/><path class="cls-1" d="M149.92,48.32l-.08-.76h0a1.64,1.64,0,0,1-1.45.88,1.83,1.83,0,0,1-1.71-2.06c0-1.81,1.45-2.6,3.08-2.62v-.23c0-1-.25-1.64-1.16-1.64a2.12,2.12,0,0,0-1.19.37l-.25-.8a3.18,3.18,0,0,1,1.69-.48c1.45,0,2.07,1,2.07,2.57v3.14a12.17,12.17,0,0,0,.07,1.63Zm-.18-3.74c-.58,0-2,.12-2,1.69,0,.94.48,1.27.89,1.27s.93-.38,1.06-1.08a1.93,1.93,0,0,0,0-.41Z" transform="translate(-0.39 -2.05)"/><path class="cls-1" d="M152.49,38h1.15V48.32h-1.15Z" transform="translate(-0.39 -2.05)"/><path class="cls-1" d="M154.61,50.2a21.86,21.86,0,0,0,.86-3.48l1.3-.15a18.89,18.89,0,0,1-1.37,3.53Z" transform="translate(-0.39 -2.05)"/><path class="cls-1" d="M.79,60.88c0-.61,0-1.33-.06-1.86h1l.06,1.12h0A1.75,1.75,0,0,1,3.37,58.9h.24v1.17H3.37A1.57,1.57,0,0,0,2,61.58a4.28,4.28,0,0,0,0,.65v4H.79Z" transform="translate(-0.39 -2.05)"/><path class="cls-1" d="M5.11,62.72c0,2.22.88,2.69,1.7,2.69A2.6,2.6,0,0,0,8,65.14L8.2,66a3.44,3.44,0,0,1-1.6.35C4.88,66.32,4,64.91,4,62.7s1-3.8,2.43-3.8,2.07,1.55,2.07,3.18c0,.28,0,.47,0,.64Zm2.27-.84c0-1.45-.53-2.09-1.07-2.09-.76,0-1.14,1.1-1.19,2.09Z" transform="translate(-0.39 -2.05)"/><path class="cls-1" d="M14.14,59c0,.49-.07,1.14-.07,2.25v4c0,1.9-.24,2.63-.71,3.15a2.53,2.53,0,0,1-1.92.77,3.46,3.46,0,0,1-1.59-.36l.26-.9a3,3,0,0,0,1.35.32c.91,0,1.47-.57,1.47-2.21v-.73h0a1.44,1.44,0,0,1-1.37.87c-1.28,0-2.13-1.43-2.13-3.56,0-2.66,1.21-3.75,2.28-3.75a1.46,1.46,0,0,1,1.34.93h0l.06-.81ZM12.93,61.5a1.84,1.84,0,0,0-.06-.53c-.12-.48-.38-1.09-1-1.09-.83,0-1.28,1.12-1.28,2.72,0,1.85.58,2.68,1.28,2.68.35,0,.8-.16,1-1a2.56,2.56,0,0,0,.07-.66Z" transform="translate(-0.39 -2.05)"/><path class="cls-1" d="M18.53,66.23l-.08-.76h0a1.62,1.62,0,0,1-1.45.88,1.83,1.83,0,0,1-1.71-2.06c0-1.8,1.45-2.6,3.08-2.62v-.22c0-1-.24-1.65-1.15-1.65a2.06,2.06,0,0,0-1.2.38l-.24-.81a3.12,3.12,0,0,1,1.68-.47c1.45,0,2.07.94,2.07,2.57V64.6a14,14,0,0,0,.07,1.63Zm-.17-3.73c-.59,0-2,.11-2,1.68,0,.94.48,1.27.89,1.27s.93-.37,1.06-1.08a1.9,1.9,0,0,0,0-.41Z" transform="translate(-0.39 -2.05)"/><path class="cls-1" d="M21.1,60.88c0-.61-.05-1.33-.07-1.86h1l.06,1.12h0a1.73,1.73,0,0,1,1.51-1.24h.24v1.17h-.24a1.58,1.58,0,0,0-1.39,1.51,4.28,4.28,0,0,0,0,.65v4H21.1Z" transform="translate(-0.39 -2.05)"/><path class="cls-1" d="M29,55.91v8.6c0,.48,0,1.3.06,1.72H28l-.07-.9h-.06a1.66,1.66,0,0,1-1.51,1c-1.22,0-2.1-1.32-2.1-3.7,0-2.56,1.07-3.75,2.18-3.75a1.39,1.39,0,0,1,1.32.85h0V55.91Zm-1.14,5.85a3.93,3.93,0,0,0,0-.48c-.07-.75-.51-1.4-1.07-1.4-.95,0-1.28,1.33-1.28,2.77s.39,2.74,1.22,2.74c.35,0,.84-.19,1.1-1.23a1.73,1.73,0,0,0,0-.48Z" transform="translate(-0.39 -2.05)"/><path class="cls-1" d="M30.55,55.91H31.7V66.23H30.55Z" transform="translate(-0.39 -2.05)"/><path class="cls-1" d="M34.22,62.72c0,2.22.87,2.69,1.7,2.69a2.63,2.63,0,0,0,1.2-.27l.19.83a3.44,3.44,0,0,1-1.6.35c-1.73,0-2.62-1.41-2.62-3.62s1-3.8,2.43-3.8,2.07,1.55,2.07,3.18c0,.28,0,.47,0,.64Zm2.26-.84c0-1.45-.52-2.09-1.07-2.09-.76,0-1.13,1.1-1.18,2.09Z" transform="translate(-0.39 -2.05)"/><path class="cls-1" d="M38.63,65a2.21,2.21,0,0,0,1.16.37,1,1,0,0,0,1.07-1c0-.54-.2-.92-.92-1.41-.95-.61-1.46-1.23-1.46-2.05a1.94,1.94,0,0,1,2-2,2.35,2.35,0,0,1,1.29.37l-.31.86a1.63,1.63,0,0,0-1-.32.89.89,0,0,0-.93.92c0,.48.18.76.9,1.25A2.64,2.64,0,0,1,42,64.18a2,2,0,0,1-2.18,2.14,2.49,2.49,0,0,1-1.42-.41Z" transform="translate(-0.39 -2.05)"/><path class="cls-1" d="M42.94,65a2.25,2.25,0,0,0,1.17.37,1,1,0,0,0,1.07-1c0-.54-.21-.92-.93-1.41-.94-.61-1.46-1.23-1.46-2.05a1.94,1.94,0,0,1,2-2,2.34,2.34,0,0,1,1.28.37l-.3.86a1.65,1.65,0,0,0-1-.32.89.89,0,0,0-.94.92c0,.48.19.76.9,1.25a2.64,2.64,0,0,1,1.49,2.2,2,2,0,0,1-2.17,2.14,2.5,2.5,0,0,1-1.43-.41Z" transform="translate(-0.39 -2.05)"/><path class="cls-1" d="M54.23,62.62c0,2.79-1.3,3.73-2.4,3.73-1.3,0-2.35-1.18-2.35-3.72s1.18-3.73,2.42-3.73S54.23,60.11,54.23,62.62Zm-3.6,0c0,1.2.22,2.82,1.25,2.82s1.19-1.69,1.19-2.82-.2-2.81-1.22-2.81S50.63,61.51,50.63,62.62Z" transform="translate(-0.39 -2.05)"/><path class="cls-1" d="M55.75,66.23V59.89h-.91V59h.91v-.45a3.22,3.22,0,0,1,.64-2.16,1.92,1.92,0,0,1,1.45-.62,2.11,2.11,0,0,1,.9.17l-.19.91a1.53,1.53,0,0,0-.63-.13c-.83,0-1,.88-1,1.82V59h1.32v.87H56.9v6.34Z" transform="translate(-0.39 -2.05)"/><path class="cls-1" d="M61.19,66.23c0-.41.06-1.24.06-1.72v-8.6h1.14v4h0a1.59,1.59,0,0,1,1.52-1c1.13,0,2,1.28,2,3.65,0,2.61-1.08,3.8-2.19,3.8a1.49,1.49,0,0,1-1.43-1.06h0l-.08.94Zm1.2-2.54a1.48,1.48,0,0,0,0,.44c.26,1.07.75,1.26,1.07,1.26.93,0,1.25-1.25,1.25-2.78s-.34-2.73-1.27-2.73c-.53,0-1,.66-1.06,1.29a2.63,2.63,0,0,0,0,.49Z" transform="translate(-0.39 -2.05)"/><path class="cls-1" d="M68,62.72c0,2.22.87,2.69,1.7,2.69a2.63,2.63,0,0,0,1.2-.27l.19.83a3.44,3.44,0,0,1-1.6.35c-1.72,0-2.62-1.41-2.62-3.62s1-3.8,2.43-3.8,2.07,1.55,2.07,3.18c0,.28,0,.47,0,.64Zm2.26-.84c0-1.45-.52-2.09-1.07-2.09-.76,0-1.13,1.1-1.18,2.09Z" transform="translate(-0.39 -2.05)"/><path class="cls-1" d="M72.63,55.91h1.15V66.23H72.63Z" transform="translate(-0.39 -2.05)"/><path class="cls-1" d="M76.89,57.09V59h1.39v.87H76.89v4.29c0,.94.34,1.19.75,1.19a2,2,0,0,0,.47-.05l0,.89a2.61,2.61,0,0,1-.85.11,1.43,1.43,0,0,1-1.13-.43,2.58,2.58,0,0,1-.43-1.81V59.89h-.88V59h.88V57.43Z" transform="translate(-0.39 -2.05)"/><path class="cls-1" d="M81.44,65a2.22,2.22,0,0,0,1.17.37,1,1,0,0,0,1.06-1c0-.54-.2-.92-.92-1.41-.94-.61-1.46-1.23-1.46-2.05a1.94,1.94,0,0,1,2-2,2.34,2.34,0,0,1,1.28.37l-.31.86a1.63,1.63,0,0,0-1-.32.89.89,0,0,0-.93.92c0,.48.18.76.9,1.25a2.64,2.64,0,0,1,1.49,2.2,2,2,0,0,1-2.17,2.14,2.5,2.5,0,0,1-1.43-.41Z" transform="translate(-0.39 -2.05)"/><path class="cls-1" d="M85.94,61.27c0-1.11,0-1.75-.06-2.25h1l.06.91h0a1.66,1.66,0,0,1,1.53-1c1.25,0,2.08,1.33,2.08,3.7,0,2.69-1.1,3.75-2.23,3.75a1.36,1.36,0,0,1-1.26-.83h0V69.1H85.94Zm1.14,2.31a2.31,2.31,0,0,0,.06.6c.22,1,.73,1.21,1,1.21,1,0,1.26-1.31,1.26-2.76s-.36-2.75-1.27-2.75c-.53,0-1,.65-1.06,1.31a3.24,3.24,0,0,0,0,.55Z" transform="translate(-0.39 -2.05)"/><path class="cls-1" d="M92.72,62.72c0,2.22.87,2.69,1.7,2.69a2.63,2.63,0,0,0,1.2-.27l.19.83a3.44,3.44,0,0,1-1.6.35c-1.73,0-2.62-1.41-2.62-3.62s1-3.8,2.43-3.8,2.07,1.55,2.07,3.18c0,.28,0,.47,0,.64ZM95,61.88c0-1.45-.52-2.09-1.07-2.09-.76,0-1.13,1.1-1.18,2.09Z" transform="translate(-0.39 -2.05)"/><path class="cls-1" d="M98.13,62.72c0,2.22.88,2.69,1.71,2.69a2.63,2.63,0,0,0,1.2-.27l.19.83a3.47,3.47,0,0,1-1.6.35C97.9,66.32,97,64.91,97,62.7s1-3.8,2.43-3.8,2.07,1.55,2.07,3.18a5.36,5.36,0,0,1,0,.64Zm2.27-.84c0-1.45-.52-2.09-1.07-2.09-.76,0-1.13,1.1-1.19,2.09Z" transform="translate(-0.39 -2.05)"/><path class="cls-1" d="M107.09,55.91v8.6c0,.48,0,1.3.06,1.72h-1l-.08-.9h0a1.67,1.67,0,0,1-1.51,1c-1.22,0-2.11-1.32-2.11-3.7,0-2.56,1.08-3.75,2.18-3.75a1.38,1.38,0,0,1,1.32.85h0V55.91ZM106,61.76a3.93,3.93,0,0,0,0-.48c-.06-.75-.51-1.4-1.07-1.4-1,0-1.28,1.33-1.28,2.77s.39,2.74,1.22,2.74c.35,0,.85-.19,1.11-1.23a2.27,2.27,0,0,0,0-.48Z" transform="translate(-0.39 -2.05)"/><path class="cls-1" d="M115.47,62.62c0,2.79-1.29,3.73-2.4,3.73-1.29,0-2.35-1.18-2.35-3.72s1.18-3.73,2.43-3.73S115.47,60.11,115.47,62.62Zm-3.59,0c0,1.2.22,2.82,1.25,2.82s1.19-1.69,1.19-2.82-.2-2.81-1.22-2.81S111.88,61.51,111.88,62.62Z" transform="translate(-0.39 -2.05)"/><path class="cls-1" d="M116.75,60.88c0-.61,0-1.33-.06-1.86h1l.06,1.12h0a1.74,1.74,0,0,1,1.51-1.24h.24v1.17h-.23a1.58,1.58,0,0,0-1.4,1.51,6.12,6.12,0,0,0,0,.65v4h-1.14Z" transform="translate(-0.39 -2.05)"/><path class="cls-1" d="M124.21,57.09V59h1.39v.87h-1.39v4.29c0,.94.34,1.19.75,1.19a2,2,0,0,0,.47-.05l0,.89a2.61,2.61,0,0,1-.85.11,1.43,1.43,0,0,1-1.13-.43,2.58,2.58,0,0,1-.43-1.81V59.89h-.89V59h.89V57.43Z" transform="translate(-0.39 -2.05)"/><path class="cls-1" d="M126.61,55.91h1.15v3.88h0a1.84,1.84,0,0,1,.61-.63,1.64,1.64,0,0,1,.95-.26c.92,0,1.69.72,1.69,2.54v4.79H129.9V61.58c0-.89-.2-1.71-1-1.71-.53,0-.94.38-1.12,1.15a3,3,0,0,0,0,.54v4.67h-1.15Z" transform="translate(-0.39 -2.05)"/><path class="cls-1" d="M132.65,60.88c0-.61-.05-1.33-.06-1.86h1l.06,1.12h0a1.73,1.73,0,0,1,1.51-1.24h.24v1.17h-.24a1.58,1.58,0,0,0-1.39,1.51,4.28,4.28,0,0,0,0,.65v4h-1.14Z" transform="translate(-0.39 -2.05)"/><path class="cls-1" d="M140.58,62.62c0,2.79-1.3,3.73-2.4,3.73-1.29,0-2.35-1.18-2.35-3.72s1.18-3.73,2.43-3.73S140.58,60.11,140.58,62.62Zm-3.59,0c0,1.2.21,2.82,1.24,2.82s1.2-1.69,1.2-2.82-.21-2.81-1.23-2.81S137,61.51,137,62.62Z" transform="translate(-0.39 -2.05)"/><path class="cls-1" d="M146.2,64.27c0,.79,0,1.43.06,2h-1l-.08-.75h0a1.89,1.89,0,0,1-1.54.87c-1.26,0-1.76-1-1.76-2.77V59H143v4.39c0,1.13.19,2,1,2a1.12,1.12,0,0,0,1-1,3.16,3.16,0,0,0,.06-.64V59h1.15Z" transform="translate(-0.39 -2.05)"/><path class="cls-1" d="M152.23,59c0,.49-.07,1.14-.07,2.25v4c0,1.9-.24,2.63-.71,3.15a2.53,2.53,0,0,1-1.92.77,3.46,3.46,0,0,1-1.59-.36l.27-.9a2.92,2.92,0,0,0,1.34.32c.91,0,1.47-.57,1.47-2.21v-.73h0a1.47,1.47,0,0,1-1.38.87c-1.28,0-2.13-1.43-2.13-3.56,0-2.66,1.21-3.75,2.28-3.75a1.46,1.46,0,0,1,1.34.93h0l.06-.81ZM151,61.5A2.27,2.27,0,0,0,151,61c-.13-.48-.39-1.09-1.05-1.09-.82,0-1.27,1.12-1.27,2.72,0,1.85.58,2.68,1.27,2.68.36,0,.8-.16,1-1a2.19,2.19,0,0,0,.07-.66Z" transform="translate(-0.39 -2.05)"/><path class="cls-1" d="M153.76,55.91h1.15v3.88h0a1.94,1.94,0,0,1,.61-.63,1.65,1.65,0,0,1,1-.26c.91,0,1.69.72,1.69,2.54v4.79h-1.15V61.58c0-.89-.2-1.71-1-1.71-.53,0-.94.38-1.11,1.15a3,3,0,0,0-.05.54v4.67h-1.15Z" transform="translate(-0.39 -2.05)"/><path class="cls-1" d="M159.8,61.27c0-1.11,0-1.75-.06-2.25h1l.06.91h0a1.66,1.66,0,0,1,1.53-1c1.25,0,2.08,1.33,2.08,3.7,0,2.69-1.1,3.75-2.23,3.75a1.36,1.36,0,0,1-1.26-.83h0V69.1H159.8Zm1.14,2.31a2.31,2.31,0,0,0,.06.6c.22,1,.73,1.21,1.05,1.21.95,0,1.26-1.31,1.26-2.76S163,59.88,162,59.88c-.53,0-1,.65-1.06,1.31a3.24,3.24,0,0,0,0,.55Z" transform="translate(-0.39 -2.05)"/><path class="cls-1" d="M170.09,64.27c0,.79,0,1.43.06,2h-1l-.08-.75h0a1.9,1.9,0,0,1-1.55.87c-1.26,0-1.75-1-1.75-2.77V59h1.14v4.39c0,1.13.18,2,1,2a1.12,1.12,0,0,0,1-1,3.16,3.16,0,0,0,.06-.64V59h1.14Z" transform="translate(-0.39 -2.05)"/><path class="cls-1" d="M173.11,57.09V59h1.39v.87h-1.39v4.29c0,.94.34,1.19.75,1.19a2,2,0,0,0,.47-.05l0,.89a2.61,2.61,0,0,1-.85.11,1.43,1.43,0,0,1-1.13-.43,2.58,2.58,0,0,1-.43-1.81V59.89h-.88V59H172V57.43Z" transform="translate(-0.39 -2.05)"/><path class="cls-1" d="M175.25,65.49a.81.81,0,0,1,.76-.88.78.78,0,0,1,.76.88.76.76,0,0,1-.76.86A.78.78,0,0,1,175.25,65.49Z" transform="translate(-0.39 -2.05)"/></g></g></svg>