<svg xmlns="http://www.w3.org/2000/svg" viewBox="0 0 195.01 82.1"><defs><style>.cls-1{fill:#1d1d1b;}</style></defs><title>Asset 15</title><g id="Layer_2" data-name="Layer 2"><g id="Layer_7" data-name="Layer 7"><path class="cls-1" d="M.42.42A6.39,6.39,0,0,1,2.1.22a3.14,3.14,0,0,1,2.21.7A2.26,2.26,0,0,1,5,2.64,2.31,2.31,0,0,1,3.43,4.87v0A2.48,2.48,0,0,1,5.29,7.48a2.9,2.9,0,0,1-.71,2,3.42,3.42,0,0,1-2.67.91,9.46,9.46,0,0,1-1.49-.09ZM1.56,4.54h.53A1.73,1.73,0,0,0,3.83,2.77,1.48,1.48,0,0,0,2.17,1.12a2.26,2.26,0,0,0-.61.07Zm0,4.88a2.82,2.82,0,0,0,.58.05,1.81,1.81,0,0,0,2-2,1.93,1.93,0,0,0-2-2h-.5Z"/><path class="cls-1" d="M7.46,6.82c0,2.21.88,2.68,1.7,2.68a2.6,2.6,0,0,0,1.2-.27l.19.84a3.56,3.56,0,0,1-1.6.35C7.23,10.42,6.33,9,6.33,6.79S7.32,3,8.76,3s2.07,1.55,2.07,3.18c0,.28,0,.48,0,.65ZM9.73,6c0-1.44-.53-2.09-1.08-2.09C7.9,3.88,7.52,5,7.47,6Z"/><path class="cls-1" d="M12.06,0h1.15V10.33H12.06Z"/><path class="cls-1" d="M16.32,1.19V3.11h1.39V4H16.32V8.27c0,.94.34,1.19.76,1.19a1.58,1.58,0,0,0,.46-.05l.05.89a2.32,2.32,0,0,1-.85.12A1.44,1.44,0,0,1,15.61,10a2.58,2.58,0,0,1-.43-1.81V4H14.3V3.11h.88V1.52Z"/><path class="cls-1" d="M18.59,9A3,3,0,0,0,20,9.41,1.58,1.58,0,0,0,21.71,7.7a2.56,2.56,0,0,0-1.33-2.09,3.74,3.74,0,0,1-1.89-2.79A2.54,2.54,0,0,1,21.15.18a2.65,2.65,0,0,1,1.4.37l-.27,1a2.14,2.14,0,0,0-1.2-.34,1.38,1.38,0,0,0-1.45,1.44c0,1,.52,1.39,1.48,2.06a3.46,3.46,0,0,1,1.74,2.9A2.69,2.69,0,0,1,20,10.42a3.38,3.38,0,0,1-1.7-.44Z"/><path class="cls-1" d="M25,6.82C25,9,25.9,9.5,26.73,9.5a2.63,2.63,0,0,0,1.2-.27l.19.84a3.56,3.56,0,0,1-1.6.35c-1.73,0-2.62-1.42-2.62-3.63s1-3.8,2.43-3.8S28.4,4.54,28.4,6.17c0,.28,0,.48,0,.65ZM27.29,6c0-1.44-.52-2.09-1.07-2.09C25.46,3.88,25.09,5,25,6Z"/><path class="cls-1" d="M29.63,5c0-.85,0-1.28-.06-1.86h1l.05.87h0a1.83,1.83,0,0,1,1.66-1c1,0,1.75.74,1.75,2.48v4.86H32.92V5.67c0-.86-.16-1.71-1-1.71-.49,0-.94.4-1.09,1.17a4,4,0,0,0,0,.65v4.55H29.63Z"/><path class="cls-1" d="M35.48,9.13a2.25,2.25,0,0,0,1.17.38,1,1,0,0,0,1.07-1c0-.55-.21-.93-.93-1.42-.94-.6-1.46-1.23-1.46-2a1.94,1.94,0,0,1,2-2,2.4,2.4,0,0,1,1.28.37l-.3.87a1.63,1.63,0,0,0-1-.33.9.9,0,0,0-.94.92c0,.49.19.76.9,1.25a2.66,2.66,0,0,1,1.5,2.2,2,2,0,0,1-2.18,2.15A2.5,2.5,0,0,1,35.2,10Z"/><path class="cls-1" d="M40.8,6.82c0,2.21.88,2.68,1.71,2.68a2.63,2.63,0,0,0,1.2-.27l.19.84a3.6,3.6,0,0,1-1.6.35c-1.73,0-2.62-1.42-2.62-3.63s1-3.8,2.43-3.8,2.07,1.55,2.07,3.18a5.55,5.55,0,0,1,0,.65ZM43.07,6c0-1.44-.52-2.09-1.07-2.09-.76,0-1.13,1.1-1.19,2.09Z"/><path class="cls-1" d="M50.25,2.55A2.52,2.52,0,1,1,47.74.1,2.46,2.46,0,0,1,50.25,2.55Zm-4.4,0a1.9,1.9,0,0,0,1.91,2,1.88,1.88,0,0,0,1.86-1.94,1.89,1.89,0,1,0-3.77,0Zm1.5,1.28h-.56V1.39a4.42,4.42,0,0,1,.94-.08,1.57,1.57,0,0,1,.85.18.71.71,0,0,1,.24.54.63.63,0,0,1-.51.57v0a.7.7,0,0,1,.45.59,1.6,1.6,0,0,0,.18.61h-.62a2,2,0,0,1-.19-.59c-.05-.27-.19-.39-.51-.39h-.27Zm0-1.38h.27c.31,0,.56-.11.56-.36s-.16-.38-.52-.38a1,1,0,0,0-.31,0Z"/><path class="cls-1" d="M54.82,6.82c0,2.21.88,2.68,1.71,2.68a2.55,2.55,0,0,0,1.19-.27l.19.84a3.55,3.55,0,0,1-1.59.35c-1.73,0-2.63-1.42-2.63-3.63s1-3.8,2.44-3.8,2.06,1.55,2.06,3.18c0,.28,0,.48,0,.65ZM57.09,6c0-1.44-.53-2.09-1.07-2.09-.76,0-1.14,1.1-1.19,2.09Z"/><path class="cls-1" d="M59.23,9.13a2.25,2.25,0,0,0,1.17.38,1,1,0,0,0,1.07-1c0-.55-.21-.93-.93-1.42-.94-.6-1.46-1.23-1.46-2a1.94,1.94,0,0,1,2-2,2.4,2.4,0,0,1,1.28.37l-.3.87a1.66,1.66,0,0,0-1-.33.9.9,0,0,0-.94.92c0,.49.19.76.9,1.25a2.65,2.65,0,0,1,1.49,2.2,2,2,0,0,1-2.17,2.15A2.5,2.5,0,0,1,59,10Z"/><path class="cls-1" d="M67.26,10.15a2.43,2.43,0,0,1-1.19.27c-1.58,0-2.65-1.28-2.65-3.67C63.42,4.68,64.48,3,66.28,3a2.2,2.2,0,0,1,1,.23l-.23.94a1.76,1.76,0,0,0-.82-.2c-1.15,0-1.67,1.37-1.67,2.79,0,1.69.65,2.7,1.7,2.7a1.78,1.78,0,0,0,.83-.2Z"/><path class="cls-1" d="M71.15,10.33l-.08-.77h0a1.61,1.61,0,0,1-1.44.89,1.84,1.84,0,0,1-1.71-2.07c0-1.8,1.44-2.6,3.08-2.61V5.54c0-1-.25-1.65-1.16-1.65a2.19,2.19,0,0,0-1.2.38l-.24-.81A3.13,3.13,0,0,1,70.05,3c1.44,0,2.06.94,2.06,2.57V8.69a12.17,12.17,0,0,0,.08,1.64ZM71,6.59c-.59,0-2,.12-2,1.68,0,.94.47,1.28.88,1.28s.93-.38,1.07-1.08a2,2,0,0,0,0-.42Z"/><path class="cls-1" d="M73.73,5c0-.85,0-1.28-.06-1.86h1l.06.87h0a1.81,1.81,0,0,1,1.65-1c1,0,1.75.74,1.75,2.48v4.86H77V5.67C77,4.81,76.85,4,76,4c-.48,0-.94.4-1.08,1.17a3.06,3.06,0,0,0-.06.65v4.55H73.73Z"/><path class="cls-1" d="M80.58,6.82c0,2.21.88,2.68,1.71,2.68a2.63,2.63,0,0,0,1.2-.27l.19.84a3.6,3.6,0,0,1-1.6.35c-1.73,0-2.62-1.42-2.62-3.63s1-3.8,2.43-3.8S84,4.54,84,6.17a5.55,5.55,0,0,1,0,.65ZM82.85,6c0-1.44-.52-2.09-1.07-2.09C81,3.88,80.65,5,80.59,6Z"/><path class="cls-1" d="M88.05,10.33,88,9.56h0a1.63,1.63,0,0,1-1.45.89,1.84,1.84,0,0,1-1.71-2.07c0-1.8,1.45-2.6,3.08-2.61V5.54c0-1-.24-1.65-1.15-1.65a2.14,2.14,0,0,0-1.2.38l-.24-.81A3.12,3.12,0,0,1,86.94,3C88.39,3,89,3.93,89,5.56V8.69a12.17,12.17,0,0,0,.08,1.64Zm-.17-3.74c-.59,0-2,.12-2,1.68,0,.94.48,1.28.89,1.28s.93-.38,1.06-1.08a2.06,2.06,0,0,0,0-.42Z"/><path class="cls-1" d="M93.78,6.82c0,2.21.88,2.68,1.71,2.68a2.58,2.58,0,0,0,1.19-.27l.19.84a3.55,3.55,0,0,1-1.59.35c-1.73,0-2.63-1.42-2.63-3.63s1-3.8,2.44-3.8,2.06,1.55,2.06,3.18c0,.28,0,.48,0,.65ZM96.05,6c0-1.44-.53-2.09-1.07-2.09-.76,0-1.14,1.1-1.19,2.09Z"/><path class="cls-1" d="M98.39,0h1.14V10.33H98.39Z"/><path class="cls-1" d="M107.1,10.15a2.43,2.43,0,0,1-1.19.27c-1.58,0-2.65-1.28-2.65-3.67,0-2.07,1.06-3.75,2.86-3.75a2.2,2.2,0,0,1,1,.23l-.23.94a1.76,1.76,0,0,0-.82-.2c-1.15,0-1.67,1.37-1.67,2.79,0,1.69.65,2.7,1.7,2.7a1.78,1.78,0,0,0,.83-.2Z"/><path class="cls-1" d="M112.43,6.71c0,2.79-1.29,3.74-2.4,3.74-1.29,0-2.35-1.19-2.35-3.72S108.86,3,110.11,3,112.43,4.2,112.43,6.71Zm-3.59,0c0,1.2.21,2.82,1.25,2.82s1.19-1.69,1.19-2.82-.2-2.8-1.22-2.8S108.84,5.61,108.84,6.71Z"/><path class="cls-1" d="M113.72,5c0-.85,0-1.28-.06-1.86h1l.06.87h0a1.81,1.81,0,0,1,1.65-1c1,0,1.75.74,1.75,2.48v4.86H117V5.67c0-.86-.17-1.71-1-1.71-.48,0-.94.4-1.08,1.17a3.06,3.06,0,0,0-.06.65v4.55h-1.14Z"/><path class="cls-1" d="M121.08,1.19V3.11h1.39V4h-1.39V8.27c0,.94.34,1.19.75,1.19a1.61,1.61,0,0,0,.47-.05l0,.89a2.32,2.32,0,0,1-.85.12,1.44,1.44,0,0,1-1.13-.44,2.58,2.58,0,0,1-.43-1.81V4h-.88V3.11h.88V1.52Z"/><path class="cls-1" d="M124.17,6.82c0,2.21.88,2.68,1.71,2.68a2.55,2.55,0,0,0,1.19-.27l.19.84a3.52,3.52,0,0,1-1.59.35C123.94,10.42,123,9,123,6.79S124,3,125.48,3s2.06,1.55,2.06,3.18c0,.28,0,.48,0,.65ZM126.44,6c0-1.44-.53-2.09-1.07-2.09-.76,0-1.14,1.1-1.19,2.09Z"/><path class="cls-1" d="M128.78,5c0-.85,0-1.28-.06-1.86h1l.06.87h0a1.81,1.81,0,0,1,1.65-1c1,0,1.75.74,1.75,2.48v4.86h-1.14V5.67c0-.86-.17-1.71-1-1.71-.48,0-.94.4-1.08,1.17a3.06,3.06,0,0,0-.06.65v4.55h-1.14Z"/><path class="cls-1" d="M136.07,1.24a.68.68,0,1,1-1.36,0,.68.68,0,1,1,1.36,0Zm-1.25,9.09V3.11H136v7.22Z"/><path class="cls-1" d="M141.92,0V8.6c0,.48,0,1.3.06,1.73h-1l-.08-.91h0a1.68,1.68,0,0,1-1.51,1c-1.22,0-2.11-1.33-2.11-3.71,0-2.55,1.08-3.75,2.18-3.75a1.38,1.38,0,0,1,1.32.85h0V0Zm-1.14,5.85a3.7,3.7,0,0,0,0-.47c-.06-.76-.51-1.41-1.07-1.41-.95,0-1.28,1.33-1.28,2.77s.39,2.74,1.22,2.74c.35,0,.85-.19,1.11-1.23a2.23,2.23,0,0,0,0-.47Z"/><path class="cls-1" d="M148,6.71c0,2.79-1.3,3.74-2.4,3.74-1.3,0-2.35-1.19-2.35-3.72S144.39,3,145.64,3,148,4.2,148,6.71Zm-3.59,0c0,1.2.21,2.82,1.24,2.82s1.19-1.69,1.19-2.82-.2-2.8-1.22-2.8S144.37,5.61,144.37,6.71Z"/><path class="cls-1" d="M151.59,5c0-.85,0-1.28-.06-1.86h1l.05.89h0a1.79,1.79,0,0,1,1.63-1,1.5,1.5,0,0,1,1.51,1.1h0a2.26,2.26,0,0,1,.71-.83,1.85,1.85,0,0,1,1-.27c1,0,1.73.71,1.73,2.55v4.79h-1.14V5.8c0-.94-.13-1.85-1-1.85-.49,0-.9.4-1.06,1.08a3.3,3.3,0,0,0-.05.65v4.65h-1.14V5.59c0-.79-.14-1.64-1-1.64-.48,0-.94.41-1.07,1.17a3.05,3.05,0,0,0-.05.62v4.59h-1.14Z"/><path class="cls-1" d="M162.09,1.24a.68.68,0,0,1-.71.74.66.66,0,0,1-.65-.74.68.68,0,1,1,1.36,0Zm-1.25,9.09V3.11H162v7.22Z"/><path class="cls-1" d="M163.59,5c0-.85,0-1.28-.06-1.86h1l.06.87h0a1.81,1.81,0,0,1,1.65-1c1,0,1.75.74,1.75,2.48v4.86h-1.14V5.67c0-.86-.17-1.71-1-1.71-.48,0-.93.4-1.08,1.17a3.06,3.06,0,0,0-.06.65v4.55h-1.14Z"/><path class="cls-1" d="M170.45,6.82c0,2.21.87,2.68,1.7,2.68a2.63,2.63,0,0,0,1.2-.27l.19.84a3.56,3.56,0,0,1-1.6.35c-1.73,0-2.62-1.42-2.62-3.63s1-3.8,2.43-3.8,2.07,1.55,2.07,3.18c0,.28,0,.48,0,.65ZM172.71,6c0-1.44-.52-2.09-1.07-2.09-.76,0-1.13,1.1-1.18,2.09Z"/><path class="cls-1" d="M175,5c0-.61,0-1.32-.06-1.86h1l.05,1.13h0A1.75,1.75,0,0,1,177.62,3h.24V4.18h-.24a1.56,1.56,0,0,0-1.39,1.5,4.33,4.33,0,0,0,0,.66v4H175Z"/><path class="cls-1" d="M181.52,10.33l-.07-.77h0a1.61,1.61,0,0,1-1.44.89,1.84,1.84,0,0,1-1.71-2.07c0-1.8,1.44-2.6,3.08-2.61V5.54c0-1-.25-1.65-1.16-1.65a2.13,2.13,0,0,0-1.19.38l-.25-.81A3.16,3.16,0,0,1,180.42,3c1.44,0,2.06.94,2.06,2.57V8.69a12.17,12.17,0,0,0,.08,1.64Zm-.17-3.74c-.59,0-2,.12-2,1.68,0,.94.47,1.28.88,1.28s.93-.38,1.07-1.08a2,2,0,0,0,0-.42Z"/><path class="cls-1" d="M184.1,0h1.14V10.33H184.1Z"/><path class="cls-1" d="M4.67,17.91v8.6c0,.49,0,1.31.06,1.73h-1l-.07-.91H3.61a1.65,1.65,0,0,1-1.51,1C.88,28.36,0,27,0,24.66,0,22.1,1.07,20.9,2.18,20.9a1.4,1.4,0,0,1,1.32.86h0V17.91ZM3.53,23.76a3.7,3.7,0,0,0,0-.47c-.07-.75-.51-1.41-1.07-1.41-1,0-1.28,1.33-1.28,2.77s.39,2.75,1.22,2.75c.35,0,.84-.19,1.1-1.23a1.82,1.82,0,0,0,0-.48Z"/><path class="cls-1" d="M7.08,24.73c0,2.22.88,2.68,1.71,2.68a2.63,2.63,0,0,0,1.2-.27l.19.84a3.47,3.47,0,0,1-1.6.35C6.85,28.33,6,26.91,6,24.71S7,20.9,8.39,20.9s2.07,1.56,2.07,3.18a5.43,5.43,0,0,1,0,.65Zm2.27-.85c0-1.44-.52-2.08-1.07-2.08-.76,0-1.13,1.09-1.19,2.08Z"/><path class="cls-1" d="M14,17.91h1.14V28.24H14Z"/><path class="cls-1" d="M19.74,28.24l-.07-.77h0a1.63,1.63,0,0,1-1.45.89,1.84,1.84,0,0,1-1.71-2.07c0-1.8,1.44-2.59,3.08-2.61v-.23c0-1-.25-1.64-1.16-1.64a2.12,2.12,0,0,0-1.19.37l-.25-.8a3.15,3.15,0,0,1,1.69-.48c1.44,0,2.06,1,2.06,2.57v3.14a12.11,12.11,0,0,0,.08,1.63Zm-.17-3.74c-.59,0-2,.12-2,1.69,0,.94.48,1.27.89,1.27s.92-.38,1.06-1.08a1.93,1.93,0,0,0,0-.41Z"/><path class="cls-1" d="M22.12,27a2.28,2.28,0,0,0,1.17.38,1,1,0,0,0,1.07-1.05c0-.54-.2-.93-.93-1.41C22.49,24.35,22,23.73,22,22.9a2,2,0,0,1,2-2,2.47,2.47,0,0,1,1.29.37l-.31.87a1.63,1.63,0,0,0-1-.32.89.89,0,0,0-.94.92c0,.48.19.75.9,1.24a2.66,2.66,0,0,1,1.5,2.21,2,2,0,0,1-2.18,2.14,2.52,2.52,0,0,1-1.43-.42Z"/><path class="cls-1" d="M32.5,28.06a2.47,2.47,0,0,1-1.2.27c-1.57,0-2.64-1.27-2.64-3.66,0-2.07,1.05-3.76,2.86-3.76a2.28,2.28,0,0,1,1,.23l-.22.94a1.8,1.8,0,0,0-.82-.2c-1.16,0-1.67,1.37-1.67,2.79,0,1.69.64,2.7,1.69,2.7a1.71,1.71,0,0,0,.84-.2Z"/><path class="cls-1" d="M37.83,24.62c0,2.8-1.3,3.74-2.4,3.74-1.3,0-2.35-1.18-2.35-3.72s1.18-3.74,2.42-3.74S37.83,22.11,37.83,24.62Zm-3.59,0c0,1.19.21,2.81,1.24,2.81s1.19-1.69,1.19-2.81-.2-2.81-1.22-2.81S34.24,23.52,34.24,24.63Z"/><path class="cls-1" d="M39.1,22.88c0-.6,0-1.32-.06-1.86h1l.06,1.13h0a1.75,1.75,0,0,1,1.52-1.25l.24,0v1.17h-.24a1.56,1.56,0,0,0-1.39,1.5,4.41,4.41,0,0,0,0,.66v4H39.1Z"/><path class="cls-1" d="M42.78,22.88c0-.6,0-1.32-.06-1.86h1l.06,1.13h0a1.73,1.73,0,0,1,1.51-1.25l.24,0v1.17h-.24A1.57,1.57,0,0,0,44,23.58a4.41,4.41,0,0,0,0,.66v4H42.78Z"/><path class="cls-1" d="M47.09,24.73c0,2.22.88,2.68,1.71,2.68A2.58,2.58,0,0,0,50,27.14l.19.84a3.42,3.42,0,0,1-1.59.35c-1.73,0-2.63-1.42-2.63-3.62s1-3.81,2.44-3.81,2.06,1.56,2.06,3.18c0,.29,0,.48,0,.65Zm2.27-.85c0-1.44-.53-2.08-1.07-2.08-.76,0-1.14,1.09-1.19,2.08Z"/><path class="cls-1" d="M54.55,28.24l-.07-.77h0a1.63,1.63,0,0,1-1.45.89,1.84,1.84,0,0,1-1.71-2.07c0-1.8,1.44-2.59,3.08-2.61v-.23c0-1-.25-1.64-1.16-1.64a2.12,2.12,0,0,0-1.19.37l-.25-.8a3.15,3.15,0,0,1,1.69-.48c1.44,0,2.06,1,2.06,2.57v3.14a12.11,12.11,0,0,0,.08,1.63Zm-.17-3.74c-.59,0-2,.12-2,1.69,0,.94.48,1.27.89,1.27s.92-.38,1.06-1.08a1.93,1.93,0,0,0,0-.41Z"/><path class="cls-1" d="M56.93,27a2.28,2.28,0,0,0,1.17.38,1,1,0,0,0,1.07-1.05c0-.54-.2-.93-.93-1.41-.94-.61-1.46-1.23-1.46-2.06a2,2,0,0,1,2-2,2.47,2.47,0,0,1,1.29.37l-.31.87a1.63,1.63,0,0,0-1-.32.89.89,0,0,0-.94.92c0,.48.19.75.9,1.24a2.66,2.66,0,0,1,1.5,2.21,2,2,0,0,1-2.18,2.14,2.52,2.52,0,0,1-1.43-.42Z"/><path class="cls-1" d="M65.2,19.1V21h1.38v.87H65.2v4.3c0,.94.33,1.18.75,1.18a2.07,2.07,0,0,0,.46,0l0,.88a2.32,2.32,0,0,1-.85.12,1.42,1.42,0,0,1-1.13-.44,2.58,2.58,0,0,1-.43-1.81V21.89h-.88V21h.88V19.43Z"/><path class="cls-1" d="M67.58,22.88c0-.6,0-1.32-.06-1.86h1l.06,1.13h0a1.73,1.73,0,0,1,1.51-1.25l.24,0v1.17h-.24a1.57,1.57,0,0,0-1.39,1.5,4.41,4.41,0,0,0,0,.66v4H67.58Z"/><path class="cls-1" d="M74.06,28.24,74,27.47h0a1.64,1.64,0,0,1-1.45.89,1.84,1.84,0,0,1-1.71-2.07c0-1.8,1.44-2.59,3.08-2.61v-.23c0-1-.25-1.64-1.16-1.64a2.12,2.12,0,0,0-1.19.37l-.25-.8A3.15,3.15,0,0,1,73,20.9c1.44,0,2.06,1,2.06,2.57v3.14a12.11,12.11,0,0,0,.08,1.63Zm-.17-3.74c-.59,0-2,.12-2,1.69,0,.94.48,1.27.89,1.27s.92-.38,1.06-1.08a1.93,1.93,0,0,0,0-.41Z"/><path class="cls-1" d="M76.64,22.88c0-.84,0-1.28-.06-1.86h1l.06.87h0a1.83,1.83,0,0,1,1.66-1c1,0,1.74.74,1.74,2.49v4.85H79.93V23.59c0-.86-.17-1.72-1-1.72-.48,0-.93.4-1.08,1.18a3,3,0,0,0,0,.64v4.55H76.64Z"/><path class="cls-1" d="M82.49,27a2.22,2.22,0,0,0,1.17.38,1,1,0,0,0,1.06-1.05c0-.54-.2-.93-.92-1.41-.94-.61-1.46-1.23-1.46-2.06a1.94,1.94,0,0,1,2-2,2.43,2.43,0,0,1,1.28.37l-.31.87a1.6,1.6,0,0,0-1-.32.89.89,0,0,0-.93.92c0,.48.18.75.9,1.24a2.67,2.67,0,0,1,1.49,2.21,2,2,0,0,1-2.17,2.14,2.5,2.5,0,0,1-1.43-.42Z"/><path class="cls-1" d="M87,23.27c0-1.11,0-1.74-.06-2.25h1l.06.92h0a1.66,1.66,0,0,1,1.53-1c1.25,0,2.09,1.33,2.09,3.71,0,2.68-1.11,3.75-2.24,3.75a1.36,1.36,0,0,1-1.26-.84h0V31.1H87Zm1.14,2.32a2.19,2.19,0,0,0,.06.59c.22,1,.73,1.22,1,1.22,1,0,1.26-1.31,1.26-2.77s-.36-2.75-1.27-2.75c-.52,0-1,.66-1.06,1.31a3.31,3.31,0,0,0,0,.55Z"/><path class="cls-1" d="M97.39,24.62c0,2.8-1.3,3.74-2.4,3.74-1.3,0-2.35-1.18-2.35-3.72s1.18-3.74,2.42-3.74S97.39,22.11,97.39,24.62Zm-3.6,0c0,1.19.22,2.81,1.25,2.81s1.19-1.69,1.19-2.81S96,21.82,95,21.82,93.79,23.52,93.79,24.63Z"/><path class="cls-1" d="M98.66,22.88c0-.6,0-1.32-.06-1.86h1l.05,1.13h0a1.75,1.75,0,0,1,1.52-1.25l.24,0v1.17h-.24a1.56,1.56,0,0,0-1.39,1.5,4.41,4.41,0,0,0,0,.66v4H98.66Z"/><path class="cls-1" d="M104.14,19.1V21h1.38v.87h-1.38v4.3c0,.94.34,1.18.75,1.18a2.11,2.11,0,0,0,.47,0l0,.88a2.36,2.36,0,0,1-.85.12,1.4,1.4,0,0,1-1.13-.44,2.53,2.53,0,0,1-.43-1.81V21.89h-.89V21H103V19.43Z"/><path class="cls-1" d="M109.4,28.24l-.08-.77h0a1.63,1.63,0,0,1-1.45.89,1.84,1.84,0,0,1-1.71-2.07c0-1.8,1.45-2.59,3.08-2.61v-.23c0-1-.25-1.64-1.16-1.64a2.12,2.12,0,0,0-1.19.37l-.25-.8a3.15,3.15,0,0,1,1.69-.48c1.45,0,2.06,1,2.06,2.57v3.14a12.11,12.11,0,0,0,.08,1.63Zm-.18-3.74c-.58,0-2,.12-2,1.69,0,.94.48,1.27.89,1.27s.93-.38,1.06-1.08a1.93,1.93,0,0,0,0-.41Z"/><path class="cls-1" d="M116.32,17.91v8.6c0,.49,0,1.31.06,1.73h-1l-.08-.91h0a1.66,1.66,0,0,1-1.51,1c-1.22,0-2.11-1.32-2.11-3.7,0-2.56,1.08-3.76,2.18-3.76a1.39,1.39,0,0,1,1.32.86h0V17.91Zm-1.14,5.85a3.7,3.7,0,0,0,0-.47c-.06-.75-.51-1.41-1.07-1.41-1,0-1.28,1.33-1.28,2.77s.4,2.75,1.22,2.75c.35,0,.85-.19,1.11-1.23a2.39,2.39,0,0,0,0-.48Z"/><path class="cls-1" d="M122.36,24.62c0,2.8-1.3,3.74-2.4,3.74-1.29,0-2.35-1.18-2.35-3.72s1.18-3.74,2.43-3.74S122.36,22.11,122.36,24.62Zm-3.59,0c0,1.19.21,2.81,1.24,2.81s1.19-1.69,1.19-2.81-.2-2.81-1.22-2.81S118.77,23.52,118.77,24.63Z"/><path class="cls-1" d="M123.64,22.88c0-.6,0-1.32-.06-1.86h1l.06,1.13h0a1.73,1.73,0,0,1,1.51-1.25l.24,0v1.17h-.24a1.57,1.57,0,0,0-1.39,1.5,4.41,4.41,0,0,0,0,.66v4h-1.14Z"/><path class="cls-1" d="M130.12,28.24l-.08-.77h0a1.63,1.63,0,0,1-1.45.89,1.84,1.84,0,0,1-1.71-2.07c0-1.8,1.45-2.59,3.08-2.61v-.23c0-1-.25-1.64-1.16-1.64a2.12,2.12,0,0,0-1.19.37l-.25-.8A3.15,3.15,0,0,1,129,20.9c1.45,0,2.06,1,2.06,2.57v3.14a12.11,12.11,0,0,0,.08,1.63Zm-.18-3.74c-.58,0-2,.12-2,1.69,0,.94.48,1.27.89,1.27s.92-.38,1.06-1.08a1.93,1.93,0,0,0,0-.41Z"/><path class="cls-1" d="M132.49,27a2.28,2.28,0,0,0,1.17.38,1,1,0,0,0,1.07-1.05c0-.54-.2-.93-.92-1.41-.95-.61-1.47-1.23-1.47-2.06a2,2,0,0,1,2-2,2.44,2.44,0,0,1,1.29.37l-.31.87a1.63,1.63,0,0,0-1-.32.89.89,0,0,0-.93.92c0,.48.18.75.89,1.24a2.66,2.66,0,0,1,1.5,2.21,2,2,0,0,1-2.18,2.14,2.52,2.52,0,0,1-1.43-.42Z"/><path class="cls-1" d="M139.34,23.27c0-1.11,0-1.74-.06-2.25h1l.06.92h0a1.65,1.65,0,0,1,1.53-1c1.25,0,2.08,1.33,2.08,3.71,0,2.68-1.1,3.75-2.23,3.75a1.36,1.36,0,0,1-1.26-.84h0V31.1h-1.14Zm1.14,2.32a2.19,2.19,0,0,0,.06.59c.22,1,.73,1.22,1.05,1.22.95,0,1.26-1.31,1.26-2.77s-.36-2.75-1.27-2.75c-.53,0-1,.66-1.06,1.31a3.31,3.31,0,0,0,0,.55Z"/><path class="cls-1" d="M148.16,28.24l-.08-.77h0a1.61,1.61,0,0,1-1.44.89,1.84,1.84,0,0,1-1.71-2.07c0-1.8,1.44-2.59,3.08-2.61v-.23c0-1-.25-1.64-1.16-1.64a2.12,2.12,0,0,0-1.19.37l-.25-.8a3.15,3.15,0,0,1,1.69-.48c1.44,0,2.06,1,2.06,2.57v3.14a12.11,12.11,0,0,0,.08,1.63ZM148,24.5c-.59,0-2,.12-2,1.69,0,.94.47,1.27.88,1.27s.93-.38,1.07-1.08a1.93,1.93,0,0,0,0-.41Z"/><path class="cls-1" d="M150.73,22.88c0-.6,0-1.32-.06-1.86h1l.06,1.13h0a1.74,1.74,0,0,1,1.51-1.25l.24,0v1.17h-.23a1.57,1.57,0,0,0-1.4,1.5,6.32,6.32,0,0,0,0,.66v4h-1.14Z"/><path class="cls-1" d="M157.21,28.24l-.08-.77h0a1.63,1.63,0,0,1-1.45.89,1.84,1.84,0,0,1-1.71-2.07c0-1.8,1.45-2.59,3.08-2.61v-.23c0-1-.24-1.64-1.15-1.64a2.13,2.13,0,0,0-1.2.37l-.24-.8a3.11,3.11,0,0,1,1.68-.48c1.45,0,2.07,1,2.07,2.57v3.14a14.09,14.09,0,0,0,.07,1.63ZM157,24.5c-.59,0-2,.12-2,1.69,0,.94.48,1.27.89,1.27s.93-.38,1.06-1.08a2,2,0,0,0,0-.41Z"/><path class="cls-1" d="M162.94,24.73c0,2.22.88,2.68,1.71,2.68a2.58,2.58,0,0,0,1.19-.27L166,28a3.42,3.42,0,0,1-1.59.35c-1.73,0-2.63-1.42-2.63-3.62s1-3.81,2.44-3.81,2.06,1.56,2.06,3.18c0,.29,0,.48,0,.65Zm2.27-.85c0-1.44-.53-2.08-1.07-2.08-.76,0-1.14,1.09-1.19,2.08Z"/><path class="cls-1" d="M168.08,21l.91,4.05c.11.49.23,1.14.32,1.76h0c.08-.6.2-1.21.31-1.76l.89-4.05h1.14l-1.89,7.22h-1L166.89,21Z"/><path class="cls-1" d="M175.4,28.24l-.07-.77h0a1.63,1.63,0,0,1-1.45.89,1.84,1.84,0,0,1-1.71-2.07c0-1.8,1.45-2.59,3.08-2.61v-.23c0-1-.25-1.64-1.16-1.64a2.12,2.12,0,0,0-1.19.37l-.25-.8a3.15,3.15,0,0,1,1.69-.48c1.45,0,2.06,1,2.06,2.57v3.14a12.11,12.11,0,0,0,.08,1.63Zm-.17-3.74c-.58,0-2,.12-2,1.69,0,.94.48,1.27.89,1.27s.92-.38,1.06-1.08a1.93,1.93,0,0,0,0-.41Z"/><path class="cls-1" d="M178,17.91h1.15V28.24H178Z"/><path class="cls-1" d="M185.16,26.27c0,.8,0,1.43.06,2h-1l-.08-.76h0a1.88,1.88,0,0,1-1.55.88c-1.26,0-1.76-1-1.76-2.78V21H182v4.4c0,1.13.18,2,1,2a1.13,1.13,0,0,0,1-1,3.27,3.27,0,0,0,.06-.65V21h1.14Z"/><path class="cls-1" d="M189.63,28.24l-.08-.77h0a1.62,1.62,0,0,1-1.44.89,1.84,1.84,0,0,1-1.72-2.07c0-1.8,1.45-2.59,3.09-2.61v-.23c0-1-.25-1.64-1.16-1.64a2.16,2.16,0,0,0-1.2.37l-.24-.8a3.11,3.11,0,0,1,1.68-.48c1.45,0,2.07,1,2.07,2.57v3.14a12.11,12.11,0,0,0,.08,1.63Zm-.17-3.74c-.59,0-2,.12-2,1.69,0,.94.48,1.27.89,1.27s.93-.38,1.06-1.08a2,2,0,0,0,0-.41Z"/><path class="cls-1" d="M192.2,22.88c0-.6,0-1.32-.06-1.86h1l.06,1.13h0a1.73,1.73,0,0,1,1.51-1.25l.24,0v1.17h-.24a1.57,1.57,0,0,0-1.39,1.5,4.41,4.41,0,0,0,0,.66v4H192.2Z"/><path class="cls-1" d="M.32,35.83H1.46V46.15H.32Z"/><path class="cls-1" d="M6,46.15,6,45.39h0a1.62,1.62,0,0,1-1.45.88,1.83,1.83,0,0,1-1.71-2.06c0-1.81,1.45-2.6,3.08-2.62v-.22c0-1-.25-1.65-1.16-1.65a2.12,2.12,0,0,0-1.19.37l-.25-.8a3.16,3.16,0,0,1,1.69-.47c1.45,0,2.06.94,2.06,2.57v3.13a12,12,0,0,0,.08,1.63Zm-.18-3.74c-.58,0-2,.12-2,1.69,0,.94.48,1.27.89,1.27s.93-.37,1.06-1.08a1.89,1.89,0,0,0,0-.41Z"/><path class="cls-1" d="M11,35.83h1.14V46.15H11Z"/><path class="cls-1" d="M14.61,42.64c0,2.22.88,2.68,1.7,2.68a2.48,2.48,0,0,0,1.2-.27l.19.84a3.42,3.42,0,0,1-1.59.35c-1.73,0-2.63-1.41-2.63-3.62s1-3.8,2.43-3.8S18,40.37,18,42c0,.28,0,.47,0,.64Zm2.27-.84c0-1.45-.53-2.09-1.07-2.09-.76,0-1.14,1.1-1.19,2.09Z"/><path class="cls-1" d="M19.77,38.94l.95,4.14c.14.56.21,1,.3,1.49h0c.08-.41.2-1,.31-1.48l.86-4.15h1.14l-1.18,4.63a13.46,13.46,0,0,1-1.79,4.66,3.71,3.71,0,0,1-1.3,1.09l-.43-1a3.52,3.52,0,0,0,1-.91,4.41,4.41,0,0,0,.65-1.22,1,1,0,0,0,.09-.36.84.84,0,0,0,0-.27l-1.82-6.65Z"/><path class="cls-1" d="M27.28,38.94l.95,4.14c.14.56.21,1,.3,1.49h0c.08-.41.2-1,.31-1.48l.86-4.15h1.13l-1.17,4.63a13.27,13.27,0,0,1-1.8,4.66,3.62,3.62,0,0,1-1.29,1.09l-.43-1a3.52,3.52,0,0,0,1-.91,4.41,4.41,0,0,0,.65-1.22,1,1,0,0,0,.08-.36.83.83,0,0,0,0-.27l-1.82-6.65Z"/><path class="cls-1" d="M34.19,35.83h1.14V46.15H34.19Z"/><path class="cls-1" d="M39.9,46.15l-.08-.76h0a1.62,1.62,0,0,1-1.45.88,1.83,1.83,0,0,1-1.71-2.06c0-1.81,1.45-2.6,3.08-2.62v-.22c0-1-.25-1.65-1.16-1.65a2.12,2.12,0,0,0-1.19.37l-.25-.8a3.18,3.18,0,0,1,1.69-.47c1.45,0,2.07.94,2.07,2.57v3.13a12.09,12.09,0,0,0,.07,1.63Zm-.18-3.74c-.58,0-2,.12-2,1.69,0,.94.48,1.27.89,1.27s.93-.37,1.06-1.08a1.89,1.89,0,0,0,0-.41Z"/><path class="cls-1" d="M42.27,45a2.38,2.38,0,0,0,1.17.37,1,1,0,0,0,1.07-1c0-.54-.2-.92-.92-1.41-1-.61-1.46-1.23-1.46-2.06a1.93,1.93,0,0,1,2-2,2.35,2.35,0,0,1,1.29.37l-.31.86a1.63,1.63,0,0,0-1-.32.89.89,0,0,0-.93.92c0,.48.18.76.9,1.24A2.67,2.67,0,0,1,45.6,44.1a2,2,0,0,1-2.18,2.14A2.41,2.41,0,0,1,42,45.82Z"/><path class="cls-1" d="M52.65,46a2.43,2.43,0,0,1-1.19.27c-1.58,0-2.65-1.27-2.65-3.66,0-2.07,1-3.75,2.86-3.75a2.2,2.2,0,0,1,1,.23l-.23.93a1.9,1.9,0,0,0-.82-.2c-1.16,0-1.67,1.38-1.67,2.8,0,1.68.65,2.69,1.7,2.69a1.78,1.78,0,0,0,.83-.19Z"/><path class="cls-1" d="M56.54,46.15l-.08-.76h0a1.62,1.62,0,0,1-1.44.88,1.83,1.83,0,0,1-1.72-2.06c0-1.81,1.45-2.6,3.09-2.62v-.22c0-1-.25-1.65-1.16-1.65a2.16,2.16,0,0,0-1.2.37l-.24-.8a3.12,3.12,0,0,1,1.68-.47c1.45,0,2.07.94,2.07,2.57v3.13a12,12,0,0,0,.08,1.63Zm-.17-3.74c-.59,0-2,.12-2,1.69,0,.94.48,1.27.89,1.27s.93-.37,1.06-1.08a1.9,1.9,0,0,0,0-.41Z"/><path class="cls-1" d="M59.11,40.8c0-.61,0-1.33-.06-1.86h1l.06,1.12h0a1.73,1.73,0,0,1,1.51-1.24h.24V40h-.24a1.58,1.58,0,0,0-1.39,1.51,4.28,4.28,0,0,0,0,.65v4H59.11Z"/><path class="cls-1" d="M65.59,46.15l-.08-.76h0a1.62,1.62,0,0,1-1.45.88,1.83,1.83,0,0,1-1.71-2.06c0-1.81,1.45-2.6,3.08-2.62v-.22c0-1-.25-1.65-1.16-1.65a2.12,2.12,0,0,0-1.19.37l-.25-.8a3.16,3.16,0,0,1,1.69-.47c1.45,0,2.06.94,2.06,2.57v3.13a12,12,0,0,0,.08,1.63Zm-.18-3.74c-.58,0-2,.12-2,1.69,0,.94.48,1.27.89,1.27s.93-.37,1.06-1.08a1.89,1.89,0,0,0,0-.41Z"/><path class="cls-1" d="M71.68,46a2.43,2.43,0,0,1-1.19.27c-1.57,0-2.65-1.27-2.65-3.66,0-2.07,1.06-3.75,2.86-3.75a2.2,2.2,0,0,1,1,.23l-.23.93a1.9,1.9,0,0,0-.82-.2c-1.15,0-1.67,1.38-1.67,2.8,0,1.68.65,2.69,1.7,2.69a1.78,1.78,0,0,0,.83-.19Z"/><path class="cls-1" d="M74.3,37v1.93h1.39v.87H74.3V44.1c0,.94.34,1.19.75,1.19a2,2,0,0,0,.47,0l0,.89a2.61,2.61,0,0,1-.85.11,1.43,1.43,0,0,1-1.13-.43A2.62,2.62,0,0,1,73.16,44V39.81h-.89v-.87h.89V37.35Z"/><path class="cls-1" d="M77.39,42.64c0,2.22.88,2.68,1.71,2.68a2.43,2.43,0,0,0,1.19-.27l.19.84a3.39,3.39,0,0,1-1.59.35c-1.73,0-2.63-1.41-2.63-3.62s1-3.8,2.44-3.8,2.06,1.55,2.06,3.18c0,.28,0,.47,0,.64Zm2.27-.84c0-1.45-.53-2.09-1.07-2.09-.76,0-1.14,1.1-1.19,2.09Z"/><path class="cls-1" d="M82,40.8c0-.61,0-1.33-.06-1.86h1L83,40.06h0a1.74,1.74,0,0,1,1.51-1.24h.24V40h-.23a1.56,1.56,0,0,0-1.39,1.51,4.19,4.19,0,0,0-.05.65v4H82Z"/><path class="cls-1" d="M88,36l-1.56,2h-.77l1.15-2ZM85.67,46.15V38.94h1.15v7.21Z"/><path class="cls-1" d="M88.22,45a2.35,2.35,0,0,0,1.17.37,1,1,0,0,0,1.07-1c0-.54-.21-.92-.93-1.41-.94-.61-1.46-1.23-1.46-2.06a1.94,1.94,0,0,1,2-2,2.32,2.32,0,0,1,1.28.37l-.3.86a1.65,1.65,0,0,0-1-.32.89.89,0,0,0-.94.92c0,.48.19.76.9,1.24a2.67,2.67,0,0,1,1.49,2.21,2,2,0,0,1-2.17,2.14,2.42,2.42,0,0,1-1.43-.42Z"/><path class="cls-1" d="M94.14,37v1.93h1.38v.87H94.14V44.1c0,.94.34,1.19.75,1.19a2.19,2.19,0,0,0,.47,0l0,.89a2.72,2.72,0,0,1-.86.11,1.46,1.46,0,0,1-1.13-.43A2.62,2.62,0,0,1,93,44V39.81h-.88v-.87H93V37.35Z"/><path class="cls-1" d="M97.78,37.06a.67.67,0,0,1-.7.75.68.68,0,0,1-.66-.75.69.69,0,0,1,.68-.75A.67.67,0,0,1,97.78,37.06Zm-1.24,9.09V38.94h1.14v7.21Z"/><path class="cls-1" d="M102.81,46a2.5,2.5,0,0,1-1.2.27C100,46.24,99,45,99,42.58c0-2.07,1-3.75,2.85-3.75a2.2,2.2,0,0,1,1,.23l-.23.93a1.9,1.9,0,0,0-.82-.2c-1.15,0-1.67,1.38-1.67,2.8,0,1.68.65,2.69,1.7,2.69a1.75,1.75,0,0,0,.83-.19Z"/><path class="cls-1" d="M106.69,46.15l-.07-.76h0a1.63,1.63,0,0,1-1.45.88,1.83,1.83,0,0,1-1.71-2.06c0-1.81,1.44-2.6,3.08-2.62v-.22c0-1-.25-1.65-1.16-1.65a2.12,2.12,0,0,0-1.19.37l-.25-.8a3.16,3.16,0,0,1,1.69-.47c1.44,0,2.06.94,2.06,2.57v3.13a12,12,0,0,0,.08,1.63Zm-.17-3.74c-.59,0-2,.12-2,1.69,0,.94.48,1.27.89,1.27s.92-.37,1.06-1.08a1.89,1.89,0,0,0,0-.41Z"/><path class="cls-1" d="M109.07,45a2.38,2.38,0,0,0,1.17.37,1,1,0,0,0,1.07-1c0-.54-.2-.92-.93-1.41-.94-.61-1.46-1.23-1.46-2.06a1.94,1.94,0,0,1,2-2,2.38,2.38,0,0,1,1.29.37l-.31.86a1.63,1.63,0,0,0-1-.32.89.89,0,0,0-.94.92c0,.48.19.76.9,1.24a2.66,2.66,0,0,1,1.5,2.21,2,2,0,0,1-2.18,2.14,2.42,2.42,0,0,1-1.43-.42Z"/><path class="cls-1" d="M120.28,35.83v8.59c0,.49,0,1.31.06,1.73h-1l-.07-.9h0a1.68,1.68,0,0,1-1.52,1c-1.22,0-2.1-1.32-2.1-3.7,0-2.56,1.07-3.75,2.18-3.75a1.39,1.39,0,0,1,1.32.85h0V35.83Zm-1.14,5.85a3.93,3.93,0,0,0,0-.48c-.07-.75-.51-1.4-1.07-1.4-1,0-1.28,1.33-1.28,2.77s.39,2.74,1.22,2.74c.35,0,.84-.19,1.1-1.23a1.73,1.73,0,0,0,0-.48Z"/><path class="cls-1" d="M122.69,42.64c0,2.22.88,2.68,1.71,2.68a2.51,2.51,0,0,0,1.2-.27l.19.84a3.44,3.44,0,0,1-1.6.35c-1.73,0-2.62-1.41-2.62-3.62s1-3.8,2.43-3.8,2.07,1.55,2.07,3.18a5.36,5.36,0,0,1,0,.64ZM125,41.8c0-1.45-.52-2.09-1.07-2.09-.76,0-1.13,1.1-1.18,2.09Z"/><path class="cls-1" d="M127.3,35.83h1.15V46.15H127.3Z"/><path class="cls-1" d="M132.5,40.8c0-.85,0-1.29-.06-1.86h1l.05.88h0a1.79,1.79,0,0,1,1.63-1,1.49,1.49,0,0,1,1.51,1.1h0a2.26,2.26,0,0,1,.71-.83,1.85,1.85,0,0,1,1-.27c1,0,1.73.71,1.73,2.55v4.78H139V41.63c0-.94-.14-1.85-1-1.85-.48,0-.89.4-1.05,1.08a3.24,3.24,0,0,0-.05.65v4.64h-1.14V41.42c0-.8-.14-1.64-1-1.64-.48,0-.94.4-1.07,1.17a3.05,3.05,0,0,0-.05.62v4.58H132.5Z"/><path class="cls-1" d="M143,37.06a.68.68,0,0,1-.71.75.67.67,0,0,1-.65-.75.68.68,0,1,1,1.36,0Zm-1.25,9.09V38.94h1.15v7.21Z"/><path class="cls-1" d="M144.5,40.8c0-.85,0-1.29-.06-1.86h1l.06.86h0a1.82,1.82,0,0,1,1.65-1c1,0,1.75.73,1.75,2.48v4.85h-1.14V41.5c0-.86-.17-1.71-1-1.71-.48,0-.94.4-1.08,1.17a3,3,0,0,0-.06.64v4.55H144.5Z"/><path class="cls-1" d="M151.35,42.64c0,2.22.88,2.68,1.71,2.68a2.51,2.51,0,0,0,1.2-.27l.19.84a3.44,3.44,0,0,1-1.6.35c-1.73,0-2.62-1.41-2.62-3.62s1-3.8,2.43-3.8,2.07,1.55,2.07,3.18c0,.28,0,.47,0,.64Zm2.27-.84c0-1.45-.52-2.09-1.07-2.09-.76,0-1.13,1.1-1.18,2.09Z"/><path class="cls-1" d="M156,40.8c0-.61,0-1.33-.06-1.86h1l.05,1.12h0a1.75,1.75,0,0,1,1.51-1.24h.25V40h-.24a1.57,1.57,0,0,0-1.39,1.51,4.28,4.28,0,0,0,0,.65v4H156Z"/><path class="cls-1" d="M162.43,46.15l-.08-.76h0a1.6,1.6,0,0,1-1.44.88,1.83,1.83,0,0,1-1.71-2.06c0-1.81,1.44-2.6,3.08-2.62v-.22c0-1-.25-1.65-1.16-1.65a2.12,2.12,0,0,0-1.19.37l-.25-.8a3.16,3.16,0,0,1,1.69-.47c1.44,0,2.06.94,2.06,2.57v3.13a12,12,0,0,0,.08,1.63Zm-.17-3.74c-.59,0-2,.12-2,1.69,0,.94.47,1.27.88,1.27s.93-.37,1.07-1.08a1.89,1.89,0,0,0,0-.41Z"/><path class="cls-1" d="M165,35.83h1.14V46.15H165Z"/><path class="cls-1" d="M4.67,53.74v8.6c0,.48,0,1.3.06,1.73h-1l-.07-.91H3.61a1.67,1.67,0,0,1-1.51,1C.88,64.19,0,62.86,0,60.48c0-2.56,1.07-3.75,2.18-3.75a1.39,1.39,0,0,1,1.32.85h0V53.74ZM3.53,59.59a3.93,3.93,0,0,0,0-.48c-.07-.75-.51-1.4-1.07-1.4-1,0-1.28,1.33-1.28,2.77s.39,2.74,1.22,2.74c.35,0,.84-.18,1.1-1.23a1.7,1.7,0,0,0,0-.47Z"/><path class="cls-1" d="M7.08,60.56c0,2.21.88,2.68,1.71,2.68A2.63,2.63,0,0,0,10,63l.19.84a3.6,3.6,0,0,1-1.6.34C6.85,64.15,6,62.74,6,60.53s1-3.8,2.43-3.8,2.07,1.55,2.07,3.18a5.67,5.67,0,0,1,0,.65Zm2.27-.85c0-1.45-.52-2.09-1.07-2.09-.76,0-1.13,1.1-1.19,2.09Z"/><path class="cls-1" d="M11.69,53.74h1.15V64.07H11.69Z"/><path class="cls-1" d="M16.89,58.71c0-.85,0-1.28-.06-1.86h1l.05.89h0a1.79,1.79,0,0,1,1.63-1,1.5,1.5,0,0,1,1.51,1.1h0A2.26,2.26,0,0,1,21.8,57a1.82,1.82,0,0,1,1-.27c1,0,1.73.71,1.73,2.55v4.79H23.39V59.54c0-.94-.14-1.85-1-1.85-.48,0-.89.4-1.05,1.08a3.3,3.3,0,0,0,0,.65v4.65H20.14V59.33c0-.79-.14-1.64-1-1.64-.48,0-.94.41-1.08,1.17a4,4,0,0,0,0,.62v4.59H16.89Z"/><path class="cls-1" d="M29,64.07l-.08-.77h0a1.63,1.63,0,0,1-1.45.89,1.84,1.84,0,0,1-1.71-2.07c0-1.8,1.45-2.6,3.08-2.61v-.23c0-1-.24-1.65-1.15-1.65a2.14,2.14,0,0,0-1.2.38l-.24-.81a3.12,3.12,0,0,1,1.68-.47c1.45,0,2.07.94,2.07,2.57v3.13A12.17,12.17,0,0,0,30,64.07Zm-.17-3.74c-.59,0-2,.11-2,1.68,0,.94.48,1.28.89,1.28s.93-.38,1.06-1.08a2.06,2.06,0,0,0,0-.42Z"/><path class="cls-1" d="M32.85,54.93v1.92h1.38v.87H32.85V62c0,.94.34,1.19.75,1.19a2,2,0,0,0,.46-.05l.06.89a2.46,2.46,0,0,1-.86.11,1.46,1.46,0,0,1-1.13-.43,2.58,2.58,0,0,1-.43-1.81V57.72h-.88v-.87h.88V55.26Z"/><path class="cls-1" d="M35.94,60.56c0,2.21.88,2.68,1.71,2.68A2.58,2.58,0,0,0,38.84,63l.19.84a3.55,3.55,0,0,1-1.59.34c-1.73,0-2.63-1.41-2.63-3.62s1-3.8,2.44-3.8,2.06,1.55,2.06,3.18c0,.28,0,.47,0,.65Zm2.27-.85c0-1.45-.53-2.09-1.07-2.09-.76,0-1.14,1.1-1.19,2.09Z"/><path class="cls-1" d="M40.54,58.71c0-.61,0-1.32-.06-1.86h1L41.56,58h0a1.73,1.73,0,0,1,1.51-1.25h.24v1.18h-.24a1.57,1.57,0,0,0-1.39,1.5,4.33,4.33,0,0,0,0,.66v4H40.54Z"/><path class="cls-1" d="M45.46,55a.66.66,0,0,1-.7.74A.68.68,0,0,1,44.1,55a.69.69,0,0,1,.68-.75A.67.67,0,0,1,45.46,55Zm-1.24,9.09V56.85h1.14v7.22Z"/><path class="cls-1" d="M49.82,64.07l-.08-.77h0a1.61,1.61,0,0,1-1.44.89,1.84,1.84,0,0,1-1.71-2.07c0-1.8,1.44-2.6,3.08-2.61v-.23c0-1-.25-1.65-1.16-1.65a2.13,2.13,0,0,0-1.19.38L47,57.2a3.16,3.16,0,0,1,1.69-.47c1.44,0,2.06.94,2.06,2.57v3.13a12.17,12.17,0,0,0,.08,1.64Zm-.17-3.74c-.59,0-2,.11-2,1.68,0,.94.47,1.28.88,1.28s.93-.38,1.07-1.08a2,2,0,0,0,0-.42Z"/><path class="cls-1" d="M52.4,53.74h1.14V64.07H52.4Z"/><path class="cls-1" d="M54.51,65.94a21,21,0,0,0,.86-3.47l1.31-.15a19,19,0,0,1-1.38,3.52Z"/><path class="cls-1" d="M61.54,55a.68.68,0,1,1-1.36,0,.68.68,0,0,1,.68-.75A.67.67,0,0,1,61.54,55ZM60.3,64.07V56.85h1.14v7.22Z"/><path class="cls-1" d="M63,58.71c0-.85,0-1.28-.06-1.86h1l.05.86h0a1.84,1.84,0,0,1,1.66-1c1,0,1.74.73,1.74,2.48v4.86H66.33V59.41c0-.86-.17-1.71-1-1.71-.49,0-.94.4-1.09,1.17a3.12,3.12,0,0,0,0,.65v4.55H63Z"/><path class="cls-1" d="M73.44,53.74v8.6c0,.48,0,1.3.06,1.73h-1l-.07-.91h-.06a1.68,1.68,0,0,1-1.51,1c-1.22,0-2.1-1.33-2.1-3.71,0-2.56,1.07-3.75,2.18-3.75a1.39,1.39,0,0,1,1.32.85h0V53.74ZM72.3,59.59a3.93,3.93,0,0,0,0-.48c-.07-.75-.51-1.4-1.07-1.4-1,0-1.28,1.33-1.28,2.77s.39,2.74,1.21,2.74c.36,0,.85-.18,1.11-1.23a1.7,1.7,0,0,0,0-.47Z"/><path class="cls-1" d="M75.85,60.56c0,2.21.88,2.68,1.71,2.68a2.63,2.63,0,0,0,1.2-.27l.19.84a3.6,3.6,0,0,1-1.6.34c-1.73,0-2.62-1.41-2.62-3.62s1-3.8,2.43-3.8,2.07,1.55,2.07,3.18a5.67,5.67,0,0,1,0,.65Zm2.27-.85c0-1.45-.52-2.09-1.07-2.09-.76,0-1.13,1.1-1.19,2.09Z"/><path class="cls-1" d="M80.45,59.1c0-1.11,0-1.75-.06-2.25h1l0,.91h0a1.67,1.67,0,0,1,1.53-1c1.26,0,2.09,1.33,2.09,3.71,0,2.68-1.11,3.75-2.24,3.75a1.38,1.38,0,0,1-1.26-.84h0v3.58H80.45Zm1.14,2.32a2.23,2.23,0,0,0,.06.59c.22,1,.74,1.21,1,1.21,1,0,1.26-1.31,1.26-2.76s-.36-2.75-1.27-2.75c-.52,0-1,.65-1.06,1.31a3.24,3.24,0,0,0,0,.55Z"/><path class="cls-1" d="M87.23,60.56c0,2.21.88,2.68,1.71,2.68A2.58,2.58,0,0,0,90.13,63l.19.84a3.55,3.55,0,0,1-1.59.34c-1.73,0-2.63-1.41-2.63-3.62s1-3.8,2.44-3.8,2.06,1.55,2.06,3.18c0,.28,0,.47,0,.65Zm2.27-.85c0-1.45-.53-2.09-1.07-2.09-.76,0-1.14,1.1-1.19,2.09Z"/><path class="cls-1" d="M91.84,58.71c0-.85,0-1.28-.06-1.86h1l.06.86h0a1.82,1.82,0,0,1,1.65-1c1,0,1.75.73,1.75,2.48v4.86H95.12V59.41c0-.86-.16-1.71-1-1.71-.48,0-.94.4-1.08,1.17a3.06,3.06,0,0,0-.06.65v4.55H91.84Z"/><path class="cls-1" d="M102.23,53.74v8.6c0,.48,0,1.3.06,1.73h-1l-.08-.91h0a1.68,1.68,0,0,1-1.51,1c-1.22,0-2.11-1.33-2.11-3.71,0-2.56,1.08-3.75,2.18-3.75a1.38,1.38,0,0,1,1.32.85h0V53.74Zm-1.14,5.85a3.93,3.93,0,0,0,0-.48c-.06-.75-.51-1.4-1.07-1.4-1,0-1.28,1.33-1.28,2.77s.39,2.74,1.22,2.74c.35,0,.85-.18,1.11-1.23a2.23,2.23,0,0,0,0-.47Z"/><path class="cls-1" d="M105.08,55a.66.66,0,0,1-.7.74.68.68,0,0,1-.66-.74.69.69,0,0,1,.68-.75A.67.67,0,0,1,105.08,55Zm-1.24,9.09V56.85H105v7.22Z"/><path class="cls-1" d="M107.39,60.56c0,2.21.88,2.68,1.71,2.68a2.63,2.63,0,0,0,1.2-.27l.19.84a3.57,3.57,0,0,1-1.6.34c-1.73,0-2.62-1.41-2.62-3.62s1-3.8,2.43-3.8,2.07,1.55,2.07,3.18c0,.28,0,.47,0,.65Zm2.27-.85c0-1.45-.52-2.09-1.07-2.09-.76,0-1.13,1.1-1.18,2.09Z"/><path class="cls-1" d="M112,58.71c0-.85,0-1.28-.06-1.86h1l0,.86h0a1.84,1.84,0,0,1,1.66-1c1,0,1.75.73,1.75,2.48v4.86h-1.15V59.41c0-.86-.17-1.71-1-1.71-.49,0-.94.4-1.09,1.17a4,4,0,0,0,0,.65v4.55H112Z"/><path class="cls-1" d="M119.37,54.93v1.92h1.38v.87h-1.38V62c0,.94.33,1.19.75,1.19a2,2,0,0,0,.46-.05l0,.89a2.36,2.36,0,0,1-.85.11,1.44,1.44,0,0,1-1.13-.43,2.58,2.58,0,0,1-.43-1.81V57.72h-.88v-.87h.88V55.26Z"/><path class="cls-1" d="M122.46,60.56c0,2.21.87,2.68,1.7,2.68a2.63,2.63,0,0,0,1.2-.27l.19.84a3.57,3.57,0,0,1-1.6.34c-1.72,0-2.62-1.41-2.62-3.62s1-3.8,2.43-3.8,2.07,1.55,2.07,3.18c0,.28,0,.47,0,.65Zm2.26-.85c0-1.45-.52-2.09-1.07-2.09-.76,0-1.13,1.1-1.18,2.09Z"/><path class="cls-1" d="M127.06,58.71c0-.85,0-1.28-.06-1.86h1l.06.89h0a1.78,1.78,0,0,1,1.62-1,1.5,1.5,0,0,1,1.51,1.1h0A2.36,2.36,0,0,1,132,57a1.87,1.87,0,0,1,1-.27c1,0,1.74.71,1.74,2.55v4.79h-1.14V59.54c0-.94-.14-1.85-1-1.85-.48,0-.89.4-1.05,1.08a2.68,2.68,0,0,0,0,.65v4.65h-1.14V59.33c0-.79-.14-1.64-1-1.64-.47,0-.93.41-1.07,1.17a4,4,0,0,0-.05.62v4.59h-1.14Z"/><path class="cls-1" d="M137.13,60.56c0,2.21.88,2.68,1.71,2.68A2.58,2.58,0,0,0,140,63l.19.84a3.55,3.55,0,0,1-1.59.34c-1.73,0-2.63-1.41-2.63-3.62s1-3.8,2.44-3.8,2.06,1.55,2.06,3.18c0,.28,0,.47,0,.65Zm2.27-.85c0-1.45-.53-2.09-1.07-2.09-.76,0-1.14,1.1-1.19,2.09Z"/><path class="cls-1" d="M141.74,58.71c0-.85,0-1.28-.06-1.86h1l.06.86h0a1.82,1.82,0,0,1,1.65-1c1,0,1.75.73,1.75,2.48v4.86H145V59.41c0-.86-.17-1.71-1-1.71-.48,0-.94.4-1.08,1.17a3.06,3.06,0,0,0-.06.65v4.55h-1.14Z"/><path class="cls-1" d="M149.1,54.93v1.92h1.39v.87H149.1V62c0,.94.34,1.19.75,1.19a2,2,0,0,0,.47-.05l.05.89a2.39,2.39,0,0,1-.85.11,1.43,1.43,0,0,1-1.13-.43,2.58,2.58,0,0,1-.43-1.81V57.72h-.89v-.87H148V55.26Z"/><path class="cls-1" d="M152.19,60.56c0,2.21.88,2.68,1.71,2.68a2.55,2.55,0,0,0,1.19-.27l.19.84a3.55,3.55,0,0,1-1.59.34c-1.73,0-2.63-1.41-2.63-3.62s1-3.8,2.44-3.8,2.06,1.55,2.06,3.18c0,.28,0,.47,0,.65Zm2.27-.85c0-1.45-.53-2.09-1.07-2.09-.76,0-1.14,1.1-1.19,2.09Z"/><path class="cls-1" d="M4.67,71.65v8.6c0,.48,0,1.31.06,1.73h-1l-.07-.91H3.61a1.67,1.67,0,0,1-1.51,1C.88,82.1,0,80.78,0,78.4c0-2.56,1.07-3.76,2.18-3.76a1.4,1.4,0,0,1,1.32.86h0V71.65ZM3.53,77.5a3.7,3.7,0,0,0,0-.47c-.07-.75-.51-1.41-1.07-1.41-1,0-1.28,1.33-1.28,2.77s.39,2.75,1.22,2.75c.35,0,.84-.19,1.1-1.23a1.82,1.82,0,0,0,0-.48Z"/><path class="cls-1" d="M7.08,78.47c0,2.22.88,2.68,1.71,2.68a2.63,2.63,0,0,0,1.2-.27l.19.84a3.6,3.6,0,0,1-1.6.35C6.85,82.07,6,80.65,6,78.45c0-2.35,1-3.81,2.43-3.81s2.07,1.56,2.07,3.18a5.43,5.43,0,0,1,0,.65Zm2.27-.85c0-1.44-.52-2.08-1.07-2.08-.76,0-1.13,1.09-1.19,2.08Z"/><path class="cls-1" d="M14,71.65h1.14V82H14Z"/><path class="cls-1" d="M19.74,82l-.07-.77h0a1.63,1.63,0,0,1-1.45.89A1.84,1.84,0,0,1,16.47,80c0-1.8,1.44-2.6,3.08-2.61v-.23c0-1-.25-1.64-1.16-1.64a2.12,2.12,0,0,0-1.19.37L17,75.11a3.25,3.25,0,0,1,1.69-.47c1.44,0,2.06,1,2.06,2.57v3.13A12.17,12.17,0,0,0,20.78,82Zm-.17-3.74c-.59,0-2,.12-2,1.69,0,.94.48,1.27.89,1.27s.92-.38,1.06-1.08a1.93,1.93,0,0,0,0-.41Z"/><path class="cls-1" d="M25.24,74.76l.92,4c.1.49.22,1.14.32,1.76h0c.07-.6.2-1.21.3-1.76l.89-4h1.14L27,82h-1l-1.89-7.22Z"/><path class="cls-1" d="M30.46,78.47c0,2.22.88,2.68,1.71,2.68a2.55,2.55,0,0,0,1.19-.27l.19.84a3.55,3.55,0,0,1-1.59.35c-1.73,0-2.63-1.42-2.63-3.62,0-2.35,1-3.81,2.44-3.81s2.06,1.56,2.06,3.18c0,.29,0,.48,0,.65Zm2.27-.85c0-1.44-.53-2.08-1.07-2.08-.76,0-1.14,1.09-1.19,2.08Z"/><path class="cls-1" d="M35.07,71.65h1.14V82H35.07Z"/><path class="cls-1" d="M42.35,78.36c0,2.8-1.3,3.74-2.4,3.74-1.29,0-2.35-1.18-2.35-3.72s1.18-3.74,2.43-3.74S42.35,75.85,42.35,78.36Zm-3.59,0c0,1.19.21,2.81,1.25,2.81s1.19-1.69,1.19-2.81S41,75.56,40,75.56,38.76,77.26,38.76,78.37Z"/><path class="cls-1" d="M47.16,81.8a2.47,2.47,0,0,1-1.2.27c-1.57,0-2.64-1.28-2.64-3.66,0-2.07,1-3.76,2.86-3.76a2.32,2.32,0,0,1,1,.23l-.22.94a1.81,1.81,0,0,0-.83-.2c-1.15,0-1.66,1.37-1.66,2.79,0,1.69.64,2.7,1.69,2.7a1.76,1.76,0,0,0,.83-.2Z"/><path class="cls-1" d="M49.39,72.89a.68.68,0,1,1-1.36,0,.69.69,0,0,1,.68-.75A.68.68,0,0,1,49.39,72.89ZM48.15,82V74.76h1.14V82Z"/><path class="cls-1" d="M55.24,71.65v8.6c0,.48,0,1.31.06,1.73h-1l-.08-.91h-.05a1.68,1.68,0,0,1-1.51,1c-1.22,0-2.11-1.32-2.11-3.7,0-2.56,1.08-3.76,2.18-3.76a1.39,1.39,0,0,1,1.32.86h0V71.65ZM54.1,77.5a3.7,3.7,0,0,0,0-.47c-.06-.75-.51-1.41-1.07-1.41-.95,0-1.28,1.33-1.28,2.77s.39,2.75,1.22,2.75c.35,0,.85-.19,1.11-1.23a2.39,2.39,0,0,0,0-.48Z"/><path class="cls-1" d="M59.7,82l-.07-.77h0a1.63,1.63,0,0,1-1.45.89A1.84,1.84,0,0,1,56.43,80c0-1.8,1.45-2.6,3.08-2.61v-.23c0-1-.25-1.64-1.16-1.64a2.12,2.12,0,0,0-1.19.37l-.25-.81a3.25,3.25,0,0,1,1.69-.47c1.44,0,2.06,1,2.06,2.57v3.13A12.17,12.17,0,0,0,60.74,82Zm-.17-3.74c-.59,0-2,.12-2,1.69,0,.94.48,1.27.89,1.27s.92-.38,1.06-1.08a1.93,1.93,0,0,0,0-.41Z"/><path class="cls-1" d="M66.63,71.65v8.6c0,.48,0,1.31.06,1.73h-1l-.08-.91h0a1.68,1.68,0,0,1-1.51,1c-1.22,0-2.11-1.32-2.11-3.7,0-2.56,1.08-3.76,2.18-3.76a1.39,1.39,0,0,1,1.32.86h0V71.65ZM65.49,77.5a3.7,3.7,0,0,0,0-.47c-.06-.75-.51-1.41-1.07-1.41-1,0-1.28,1.33-1.28,2.77s.39,2.75,1.22,2.75c.35,0,.85-.19,1.11-1.23a2.39,2.39,0,0,0,0-.48Z"/><path class="cls-1" d="M74.93,71.65v8.6c0,.48,0,1.31.06,1.73H74l-.08-.91h-.05a1.68,1.68,0,0,1-1.51,1c-1.22,0-2.11-1.32-2.11-3.7,0-2.56,1.07-3.76,2.18-3.76a1.39,1.39,0,0,1,1.32.86h0V71.65ZM73.79,77.5a3.7,3.7,0,0,0,0-.47c-.06-.75-.51-1.41-1.07-1.41-1,0-1.28,1.33-1.28,2.77s.39,2.75,1.22,2.75c.35,0,.85-.19,1.11-1.23a2.39,2.39,0,0,0,0-.48Z"/><path class="cls-1" d="M77.35,78.47c0,2.22.88,2.68,1.7,2.68a2.6,2.6,0,0,0,1.2-.27l.19.84a3.55,3.55,0,0,1-1.59.35c-1.73,0-2.63-1.42-2.63-3.62,0-2.35,1-3.81,2.43-3.81s2.07,1.56,2.07,3.18c0,.29,0,.48,0,.65Zm2.27-.85c0-1.44-.53-2.08-1.08-2.08-.75,0-1.13,1.09-1.18,2.08Z"/><path class="cls-1" d="M84.3,71.65h1.14V82H84.3Z"/><path class="cls-1" d="M90,82l-.08-.77h0a1.63,1.63,0,0,1-1.45.89A1.84,1.84,0,0,1,86.73,80c0-1.8,1.45-2.6,3.08-2.61v-.23c0-1-.24-1.64-1.15-1.64a2.13,2.13,0,0,0-1.2.37l-.25-.81a3.28,3.28,0,0,1,1.69-.47c1.45,0,2.07,1,2.07,2.57v3.13A14.17,14.17,0,0,0,91,82Zm-.17-3.74c-.59,0-2,.12-2,1.69,0,.94.48,1.27.89,1.27s.93-.38,1.06-1.08a2,2,0,0,0,0-.41Z"/><path class="cls-1" d="M98.45,81.8a2.47,2.47,0,0,1-1.2.27c-1.57,0-2.64-1.28-2.64-3.66,0-2.07,1-3.76,2.86-3.76a2.32,2.32,0,0,1,1,.23l-.22.94a1.81,1.81,0,0,0-.83-.2c-1.15,0-1.66,1.37-1.66,2.79,0,1.69.64,2.7,1.69,2.7a1.83,1.83,0,0,0,.84-.2Z"/><path class="cls-1" d="M103.78,78.36c0,2.8-1.3,3.74-2.4,3.74-1.3,0-2.35-1.18-2.35-3.72s1.18-3.74,2.42-3.74S103.78,75.85,103.78,78.36Zm-3.6,0c0,1.19.22,2.81,1.25,2.81s1.19-1.69,1.19-2.81-.2-2.81-1.22-2.81S100.18,77.26,100.18,78.37Z"/><path class="cls-1" d="M105.05,76.62c0-.6,0-1.32-.06-1.86h1l0,1.13h0a1.76,1.76,0,0,1,1.52-1.25l.24,0v1.17h-.24a1.56,1.56,0,0,0-1.39,1.5,4.33,4.33,0,0,0,0,.66v4h-1.15Z"/><path class="cls-1" d="M108.73,76.62c0-.6,0-1.32-.06-1.86h1l.06,1.13h0a1.74,1.74,0,0,1,1.51-1.25l.24,0v1.17h-.24a1.57,1.57,0,0,0-1.39,1.5,4.33,4.33,0,0,0,0,.66v4h-1.14Z"/><path class="cls-1" d="M113,78.47c0,2.22.88,2.68,1.71,2.68a2.58,2.58,0,0,0,1.19-.27l.19.84a3.55,3.55,0,0,1-1.59.35c-1.73,0-2.63-1.42-2.63-3.62,0-2.35,1-3.81,2.44-3.81s2.06,1.56,2.06,3.18c0,.29,0,.48,0,.65Zm2.27-.85c0-1.44-.53-2.08-1.07-2.08-.76,0-1.14,1.09-1.19,2.08Z"/><path class="cls-1" d="M120.5,82l-.07-.77h0a1.64,1.64,0,0,1-1.45.89A1.84,1.84,0,0,1,117.23,80c0-1.8,1.44-2.6,3.08-2.61v-.23c0-1-.25-1.64-1.16-1.64a2.12,2.12,0,0,0-1.19.37l-.25-.81a3.25,3.25,0,0,1,1.69-.47c1.44,0,2.06,1,2.06,2.57v3.13a12.17,12.17,0,0,0,.08,1.64Zm-.17-3.74c-.59,0-2,.12-2,1.69,0,.94.48,1.27.89,1.27s.92-.38,1.06-1.08a1.93,1.93,0,0,0,0-.41Z"/><path class="cls-1" d="M129.86,78.36c0,2.8-1.3,3.74-2.41,3.74-1.29,0-2.34-1.18-2.34-3.72s1.18-3.74,2.42-3.74S129.86,75.85,129.86,78.36Zm-3.6,0c0,1.19.22,2.81,1.25,2.81s1.19-1.69,1.19-2.81-.2-2.81-1.22-2.81S126.26,77.26,126.26,78.37Z"/><path class="cls-1" d="M133.47,76.62c0-.6,0-1.32-.06-1.86h1l.06,1.13h0a1.74,1.74,0,0,1,1.51-1.25l.24,0v1.17h-.24a1.57,1.57,0,0,0-1.39,1.5,4.33,4.33,0,0,0,0,.66v4h-1.15Z"/><path class="cls-1" d="M137.79,78.47c0,2.22.88,2.68,1.7,2.68a2.6,2.6,0,0,0,1.2-.27l.19.84a3.55,3.55,0,0,1-1.59.35c-1.73,0-2.63-1.42-2.63-3.62,0-2.35,1-3.81,2.43-3.81s2.07,1.56,2.07,3.18c0,.29,0,.48,0,.65Zm2.27-.85c0-1.44-.53-2.08-1.07-2.08-.76,0-1.14,1.09-1.19,2.08Z"/><path class="cls-1" d="M142.4,76.62c0-.84,0-1.28-.06-1.86h1l.06.87h0a1.83,1.83,0,0,1,1.65-1c1,0,1.75.74,1.75,2.49V82h-1.15V77.33c0-.87-.16-1.72-1-1.72-.48,0-.94.4-1.08,1.18a2.9,2.9,0,0,0-.06.64V82H142.4Z"/><path class="cls-1" d="M152.79,71.65v8.6c0,.48,0,1.31.06,1.73h-1l-.08-.91h0a1.68,1.68,0,0,1-1.51,1c-1.22,0-2.11-1.32-2.11-3.7,0-2.56,1.08-3.76,2.18-3.76a1.39,1.39,0,0,1,1.32.86h0V71.65Zm-1.14,5.85a3.7,3.7,0,0,0,0-.47c-.06-.75-.51-1.41-1.07-1.41-.95,0-1.28,1.33-1.28,2.77s.39,2.75,1.22,2.75c.35,0,.85-.19,1.11-1.23a2.39,2.39,0,0,0,0-.48Z"/><path class="cls-1" d="M155.64,72.89a.66.66,0,0,1-.7.74.68.68,0,0,1-.66-.74.69.69,0,0,1,.68-.75A.67.67,0,0,1,155.64,72.89ZM154.4,82V74.76h1.14V82Z"/><path class="cls-1" d="M157.14,76.62c0-.84,0-1.28-.06-1.86h1l.06.89h0a1.78,1.78,0,0,1,1.62-1,1.5,1.5,0,0,1,1.51,1.1h0a2.32,2.32,0,0,1,.71-.82,1.8,1.8,0,0,1,1-.28c1,0,1.74.71,1.74,2.55V82h-1.14V77.46c0-.95-.14-1.86-1-1.86-.48,0-.89.41-1,1.09a2.64,2.64,0,0,0-.05.65V82H160.4V77.24c0-.79-.14-1.64-1-1.64-.47,0-.93.41-1.07,1.18a3.76,3.76,0,0,0-.05.61V82h-1.14Z"/><path class="cls-1" d="M167.64,72.89a.66.66,0,0,1-.7.74.68.68,0,0,1-.66-.74.69.69,0,0,1,.68-.75A.67.67,0,0,1,167.64,72.89ZM166.4,82V74.76h1.14V82Z"/><path class="cls-1" d="M170,78.47c0,2.22.87,2.68,1.7,2.68a2.63,2.63,0,0,0,1.2-.27l.19.84a3.56,3.56,0,0,1-1.6.35c-1.72,0-2.62-1.42-2.62-3.62,0-2.35,1-3.81,2.43-3.81s2.07,1.56,2.07,3.18c0,.29,0,.48,0,.65Zm2.26-.85c0-1.44-.52-2.08-1.07-2.08-.76,0-1.13,1.09-1.18,2.08Z"/><path class="cls-1" d="M174.56,76.62c0-.84,0-1.28-.06-1.86h1l.05.87h0a1.84,1.84,0,0,1,1.66-1c1,0,1.75.74,1.75,2.49V82h-1.15V77.33c0-.87-.16-1.72-1-1.72-.49,0-.94.4-1.08,1.18a2.9,2.9,0,0,0-.06.64V82h-1.15Z"/><path class="cls-1" d="M181.93,72.84v1.92h1.38v.87h-1.38v4.29c0,1,.33,1.19.75,1.19a2.07,2.07,0,0,0,.46,0l.06.89a2.72,2.72,0,0,1-.86.11,1.46,1.46,0,0,1-1.13-.44,2.58,2.58,0,0,1-.43-1.81V75.63h-.88v-.87h.88V73.17Z"/><path class="cls-1" d="M188.64,78.36c0,2.8-1.3,3.74-2.4,3.74-1.3,0-2.35-1.18-2.35-3.72s1.18-3.74,2.42-3.74S188.64,75.85,188.64,78.36Zm-3.6,0c0,1.19.22,2.81,1.25,2.81s1.19-1.69,1.19-2.81-.2-2.81-1.22-2.81S185,77.26,185,78.37Z"/><path class="cls-1" d="M189.35,81.24a.8.8,0,0,1,.76-.88.78.78,0,0,1,.76.88.76.76,0,0,1-.76.86A.78.78,0,0,1,189.35,81.24Z"/></g></g></svg>